<svg width="40" height="32" viewBox="0 0 40 32" fill="none" xmlns="http://www.w3.org/2000/svg">
<path d="M0.808994 30.9074L0.835682 30.9341C1.91417 32.0126 3.66199 32.0126 4.73937 30.9341L31.2569 4.41661C31.5675 4.10594 31.742 3.6846 31.742 3.24528C31.742 2.80596 31.5675 2.38462 31.2569 2.07395L29.6681 0.485122C29.3574 0.174501 28.936 0 28.4967 0C28.0574 0 27.6361 0.174501 27.3254 0.485122L0.807884 27.0026C-0.269493 28.0811 -0.269497 29.829 0.808994 30.9074Z" fill="#F4900C"/>
<path d="M20.2163 4.45104L24.1478 0.51955C24.4605 0.206892 24.8846 0.03125 25.3269 0.03125C25.7691 0.03125 26.1932 0.206892 26.506 0.51955L30.4364 4.45104C32.8024 6.77702 34.717 7.80325 37.1686 7.84884C37.3587 9.59777 36.4292 13.6227 34.9816 15.2448C33.1003 17.3529 29.9282 18.0189 26.9507 17.9733C27.0997 15.346 26.4648 13.0567 24.1478 10.7396L20.2174 6.80815C20.0623 6.65361 19.9392 6.46997 19.8551 6.26778C19.7711 6.06558 19.7278 5.84879 19.7277 5.62982C19.7276 5.41086 19.7707 5.19403 19.8545 4.99175C19.9384 4.78947 20.0613 4.60573 20.2163 4.45104Z" fill="#66757F"/>
<path d="M37.1686 7.84891C38.0036 7.86448 38.8986 7.76886 39.8971 7.56873C40.6831 13.0724 32.0352 21.7203 26.5316 20.9342C26.7462 19.8924 26.8963 18.9118 26.9496 17.9734C31.8618 16.4068 35.9634 12.3341 37.1686 7.84891Z" fill="#CCD6DD"/>
</svg>
