<svg width="24" height="24" viewBox="0 0 24 24" fill="none" xmlns="http://www.w3.org/2000/svg">
<path fill-rule="evenodd" clip-rule="evenodd" d="M9.99996 2.00004C10.0001 1.79149 9.93513 1.5881 9.814 1.41833C9.69287 1.24856 9.52169 1.12091 9.32442 1.05325C9.12715 0.98558 8.91366 0.981282 8.71383 1.04095C8.514 1.10063 8.33783 1.22128 8.20996 1.38604L1.20996 10.386C1.07341 10.5616 0.999268 10.7776 0.999268 11C0.999268 11.2224 1.07341 11.4385 1.20996 11.614L8.20996 20.614C8.33783 20.7788 8.514 20.8995 8.71383 20.9591C8.91366 21.0188 9.12715 21.0145 9.32442 20.9468C9.52169 20.8792 9.69287 20.7515 9.814 20.5818C9.93513 20.412 10.0001 20.2086 9.99996 20V16.01C15.379 16.122 17.963 17.143 19.261 18.253C20.495 19.308 20.721 20.549 20.956 21.849L21.017 22.184C21.0618 22.4237 21.1928 22.6388 21.3851 22.7887C21.5774 22.9387 21.8179 23.0131 22.0614 22.9981C22.3048 22.9832 22.5343 22.8797 22.7068 22.7073C22.8793 22.5349 22.9828 22.3054 22.998 22.062C23.169 19.314 22.912 15.332 20.971 12.001C19.087 8.76804 15.694 6.28204 9.99996 6.02204V2.00004Z" fill="white"/>
</svg>
