<?xml version="1.0" encoding="UTF-8"?><svg xmlns="http://www.w3.org/2000/svg" viewBox="0 0 428 2136.5"><defs><style>.r{fill:#84a749;}.s{fill:#b79984;}.t{fill:#c19f87;}.u{fill:#6d5341;}.v{opacity:.78;}</style></defs><g id="a"><g id="b" class="v"/></g><g id="c"><g id="d"><g><path id="e" class="u" d="M245.38,2075.19s6.08,15.65,14.14,20.8c9.31,5.95,1.5,6.38-2.96,5.75-4.46-.62-12.4-4.67-15.38-8.4-2.97-3.73-56.15,12.29-63.01,12.95-6.86,.66-14.67,1.82-15.76-.4s7.46-4.43,10.49-12.13,5.5-21.84,7.21-24.61c3.46-5.61,65.28,6.03,65.28,6.03Z"/><path class="u" d="M257.23,2101.91c-2.95-3.61-5.79-6.47-8.59-9.06-.69-.64-1.23-1.47-1.66-2.44-.2-2.75-.43-5.43-.43-5.43l-.02-.32c-.56-11.52-.67-34.48-1.9-52.45-.55-8.06-.64-9.45-.79-26.05-4.08,4.9-9.98,4.96-14.96,7.06-10.23,4.29-18.47,5.36-28.78,2.19-6.34-1.98-14.41-2.57-19.1-10.61,.71,12.37-.04,17.48,.15,26.42,.11,4.25-.21,11.31-.45,15.54-.66,11.54-.15,15.94-2.43,26.75-.54,2.92-.94,5.91-1.21,8.95-.34,2.58-.55,5.2-.65,7.84-.28,2.45-.58,5.47-.8,8.8-.54,8.38-4.65,10.41-9.77,12.1-5.12,1.69-7.48,4.06-7.48,4.06,0,0-10.23,8.65-3,6.16,3.49-1.2,13.9-5.7,18.18-5.79,4.28-.09,7.83,.15,12.41-3.1,4.57-3.24,3.66-5.34,10.98-4.22,4.42,.68,5.94,4.72,2.88,14.45-2.78,8.82-.7,15.09,3.16,14.21,1.39-.32,6.28-16.33,13.35-22.56,2.08-1.83,2.75-2.56,5.88-4.28,4.24-2.34,7.43-.46,14.38,4.62,5.4,3.95,6.81,6.11,9.1,7.78,2.29,1.67,4.66-1.44,1.86-5.42-2.8-3.98-3.81-3.42-6.56-10.94s4.28-1.71,10.02,2.05c6.09,3.98,16.76,6.04,19.51,5.49,2.4-.48-10.33-8.2-13.28-11.81Z"/><g id="f"><path class="t" d="M230.71,2014.18c-6.25,2.19-12.57,3.6-18.92,4.21-2.82,0-17.59-2.11-20.88-4.39-4.31-2.94-9.96-7.9-9.96-9.03-.08-1.6,3.99-.95,5.84-1.28,7.65-1.36,11.85-1.68,17.43-2.19,9.44-.85,8.99-1.25,19.64,0,1.41,.18,13.64,1.98,15.08,2.51,3.64,1.33,4.96,1.57,4.92,2.07,0,.11,.04,.19-.08,.35-2.96,3.95-9.56,6.19-13.11,7.9"/><path class="u" d="M214.35,2000.74c-2.7,0-4.9,.32-10.1,.79-2.75,.26-5.17,.45-7.84,.77-2,.55-4.01,1.25-5.99,2.09l-1.71,.71c8.59,2.57,17.27,3.89,25.97,3.95h2.51c3.16-.22,6.57,.34,9.36-2.98-4.52-1.36-9.1-2.09-13.68-2.17-1.7,0-3.39,.12-5.04,.42h-.41v-.02l5.1,1.11-4.55-1.11h2.72c4.87-.05,9.73,.61,14.54,1.98-2.48,1.98-5.39,1.52-8.06,1.7h-1.37c-2.51,0-5.03-.12-7.54-.34-5.32-.45-10.63-1.4-15.9-2.83,3.57-1.22,7.18-2.06,10.81-2.49,3.35-.38,6.72-.55,10.1-.55,7.27,0,14.52,.84,21.73,2.49,.31,.12,2.56,.87,1.73,1.6-9.07,2.67-20.97,7.17-32.05,7.17-7.85,0-15.3-2.25-21.03-8.99,6.02,7.31,13.78,9.72,21.93,9.72,10.84,0,22.37-4.27,31.38-6.9,.11-.05,.2-.13,.29-.26,.09-.12,.16-.27,.21-.45,.05-.17,.08-.37,.1-.57,0-.2,0-.4-.04-.59-.17-.47-.39-.86-.66-1.14-.26-.28-.56-.45-.86-.5-4.17-.75-11.05-1.76-12.09-1.98-4.79-.43-7.37-.65-9.52-.65Z"/></g></g></g><g id="g"><g><path class="u" d="M240.2,2006.27c5.15,3.16,80.77,47.26,86.7,50.9,1.07,.65,1.35,1.15,9.03,5.41,4.46,2.88,9.34,5.8,9.34,5.8l13.58,7.98c13.74,7.72,5.02,2.66,22.74,13.58,6.89,4.25,5.96,3.52,20.35,11.81-2.15-6-1.77-8.21-1.05-13.56,1.49-10.99,4.75-18.63,12.7-25.92,4.92-4.46,10.52-11.98,19.84-11.95-8.55-5.59-13.99-8.89-21.58-13.62-4.51-2.81-7.45-4.69-11.05-6.9-11.23-6.88-5.58-3.12-20.03-12.3-2.53-1.61-8.44-4.83-12.3-7.37-4.46-2.7-4.64-2.75-6.87-4.17-6.26-3.57-5.27-3.02-8.13-4.74-7.9-4.74-75.1-42.82-80.9-46.07"/><g id="h"><path class="u" d="M399.94,2087.06c1.28-6.5,3.26-11.15,5.96-16.94,1.43-2.43,10.8-14.73,14.42-16.41,4.72-2.22,11.81-3.93,12.78-3.36,1.42,.75-1.2,3.92-1.85,5.68-2.7,7.29-4.56,11.07-6.95,16.14-4.05,8.57-3.48,8.38-9.96,16.93-.87,1.13-8.62,10.76-9.81,11.73-.92,.76-1.25,1.16-1.92,1.1-1.77-.16-3.36-2.86-3.6-3.78-1.9-4.56,.5-5.75,.82-9.68"/><path class="u" d="M419.81,2081.27c1.37-2.33,2.21-4.39,4.44-9.1,1.17-2.5,2.23-4.69,3.31-7.15,.54-2.01,.96-4.09,1.23-6.23l.26-1.84c-6.57,6.1-12.11,12.91-16.57,20.38l-1.27,2.16c-1.41,2.83-3.62,5.49-2.18,9.58,3.47-3.21,6.41-6.78,8.81-10.69,.86-1.47,1.62-2.99,2.2-4.56l.21-.35h.02l-3.54,3.84,3.26-3.36-1.38,2.34c-2.42,4.22-5.45,8.08-9.07,11.53-.45-3.14,1.42-5.42,2.62-7.81l.69-1.18c1.27-2.16,2.65-4.28,4.11-6.33,3.09-4.36,6.6-8.45,10.5-12.27-.76,3.7-1.87,7.23-3.33,10.58-1.38,3.08-2.93,6.08-4.64,8.98-3.69,6.26-8.09,12.09-13.17,17.47-.26,.21-2.05,1.77-2.26,.68,2.3-9.17,4.45-21.71,10.07-31.27,3.98-6.77,9.7-12.05,18.41-13.57-9.36,1.48-15.37,6.95-19.5,13.97-5.5,9.34-7.66,21.44-9.96,30.54-.01,.12,.01,.24,.07,.38,.06,.14,.16,.28,.28,.41,.12,.13,.27,.26,.44,.37,.17,.11,.35,.2,.53,.27,.49,.09,.94,.1,1.32,.02,.38-.08,.67-.25,.86-.49,2.76-3.21,7.12-8.64,7.83-9.42,2.81-3.91,4.3-6.02,5.39-7.88Z"/></g></g><path class="u" d="M302.39,2038.27s-9.9,7.82-3.58,25.72c2.92,8.29,2.95,15.95,3.82,21.62,1.01,6.58,.84,8.08,3.79,12.53,6.37,9.59,14.77,18.75,4.2,12.89-9.28-5.15-13.67-24.2-13.67-24.2,0,0-3.25,3.02-4.88,11.15-1.52,7.59-1.42,9.59-2.34,11.16s-3.17-6.04-.26-15.28c2.91-9.25,2.14-22.01-2.71-27.39-4.84-5.38-9.51-46.18-9.51-46.18l25.14,18Z"/><g><path class="r" d="M281.73,2090.8s-.59-4.07,4.35-6.57c4.94-2.51,4.99-1.62,4.99-1.62,0,0-.45,6.68-4.23,7.69-3.78,1.02-5.11,.5-5.11,.5Z"/><path class="r" d="M288.16,2106s-3.63-.42-4.66-5.23c-1.03-4.81-.26-4.65-.26-4.65,0,0,5.63,1.9,5.65,5.38s-.73,4.51-.73,4.51Z"/><path class="r" d="M284.28,2102.15s.06-4.47,5.79-6.33c5.73-1.86,5.63-.9,5.63-.9,0,0-1.61,7.1-5.84,7.55s-5.58-.33-5.58-.33Z"/><path class="r" d="M290.19,2093.24s1.38-3.44,6.37-3.17,4.63,.99,4.63,.99c0,0-3.37,5.01-6.78,4.1-3.41-.91-4.22-1.92-4.22-1.92Z"/><path class="r" d="M300.5,2110.42s-2.71-3.48,.57-8.44,3.79-4.16,3.79-4.16c0,0,3.13,6.46,.15,9.42-2.98,2.95-4.5,3.18-4.5,3.18Z"/><path class="r" d="M312.6,2117.3s-3.61-2.38-2.13-8.02c1.48-5.64,2.21-5.05,2.21-5.05,0,0,4.94,5.02,3.1,8.7s-3.18,4.37-3.18,4.37Z"/><path class="r" d="M308.86,2105.15s-4.61,.14-6.78-5.68c-2.17-5.82-1.17-5.77-1.17-5.77,0,0,7.38,1.35,8.04,5.69s-.09,5.76-.09,5.76Z"/><path class="r" d="M299.82,2091.53s-2.74-3.21,.17-8.09,3.44-4.14,3.44-4.14c0,0,3.27,6.04,.55,8.99s-4.16,3.24-4.16,3.24Z"/></g><g id="i"><path class="t" d="M401.84,2087.47c1.16-6.29,3.03-12.25,5.6-17.83,1.38-2.34,10.41-13.52,13.97-15.1,4.64-2.08,11.67-4.25,12.64-3.68,1.42,.75-1.13,3.79-1.74,5.5-2.56,7.04-4.34,10.68-6.62,15.57-3.87,8.26-3.31,8.09-9.59,16.29-.84,1.08-8.36,10.31-9.52,11.24-2.93,2.35-3.78,3.32-4.18,3.03-.09-.07-.19-.06-.26-.24-1.96-4.46-.67-11.06-.41-14.89"/><path class="u" d="M421.41,2080.71c1.32-2.24,2.12-4.23,4.25-8.78,1.12-2.41,2.13-4.52,3.16-6.9,.5-1.94,.88-3.96,1.12-6.03l.22-1.78c-6.4,5.82-11.78,12.35-16.08,19.54l-1.23,2.08c-1.35,2.73-3.5,5.28-2,9.28,3.38-3.06,6.24-6.49,8.55-10.25,.83-1.41,1.55-2.88,2.1-4.39l.2-.34h.02l-3.44,3.68,3.17-3.21-1.32,2.25c-2.33,4.06-5.27,7.76-8.8,11.06-.49-3.06,1.32-5.24,2.47-7.55l.67-1.14c1.23-2.08,2.56-4.11,3.97-6.09,2.99-4.18,6.4-8.11,10.2-11.76-.69,3.58-1.73,7-3.13,10.23-1.31,2.97-2.8,5.86-4.45,8.66-3.55,6.02-7.81,11.62-12.75,16.76-.25,.2-2,1.69-2.23,.63,2.13-8.88,4.05-21.03,9.46-30.23,3.83-6.52,9.41-11.55,18.01-12.89-9.24,1.29-15.11,6.5-19.08,13.26-5.29,8.99-7.24,20.72-9.37,29.52-.01,.11,.02,.24,.08,.37,.06,.13,.16,.27,.28,.4,.12,.13,.28,.26,.44,.37,.17,.11,.35,.2,.53,.27,.49,.1,.93,.11,1.31,.04,.37-.07,.66-.23,.85-.47,2.68-3.08,6.91-8.28,7.6-9.03,2.71-3.76,4.16-5.78,5.21-7.57Z"/></g><g id="j"><path class="s" d="M240.09,1992.54c.53-6.66,2.94-9.88,5.34-15.57,1.38-2.34,10.05-11.04,14.94-15.68,5.48-1.59,10.91-6.9,12.2-6.14,1.87,1.02,.95,4.76,.43,6.52-2.17,7.27-3.78,10.77-5.92,15.75-3.63,8.4-1.09,9.44-7.72,17.44-.89,1.05-10.95,9.03-12.27,9.86-3.31,2.12-5.94,2.25-6.49,1.88-.13-.09-.24-.09-.36-.3-3.09-5.12-1.03-6.35-1.27-10.46"/><path class="u" d="M258.67,1987.58c1.14-1.93,1.75-3.69,3.46-7.67,.9-2.11,1.72-3.96,2.54-6.05,.3-1.75,.45-3.59,.45-5.5l.02-1.64c-6.15,4.64-11.1,10.08-14.82,16.25l-1.06,1.79c-1.11,2.38-3.09,4.5-.99,8.42,3.24-2.44,5.89-5.29,7.9-8.51,.72-1.22,1.31-2.49,1.71-3.84l.17-.29h.02l-3.24,3.01,3-2.61-1.14,1.94c-1.99,3.51-4.69,6.6-8.06,9.24-.91-2.92,.76-4.73,1.71-6.75l.58-.98c1.06-1.79,2.23-3.53,3.5-5.19,2.69-3.54,5.86-6.78,9.48-9.72-.29,3.26-.99,6.32-2.08,9.17-1.04,2.61-2.28,5.13-3.7,7.53-3.06,5.19-6.93,9.89-11.59,14.08-.25,.15-1.94,1.33-2.31,.31,1.18-8.03,1.73-19.15,6.39-27.07,3.3-5.61,8.66-9.62,17.72-9.8-9.75,.05-15.4,4.2-18.82,10.01-4.56,7.74-5.18,18.46-6.37,26.42,0,.1,.05,.22,.13,.36,.08,.13,.2,.27,.35,.41,.15,.14,.33,.27,.52,.4,.19,.12,.4,.23,.6,.32,.53,.15,1.01,.22,1.41,.2,.39-.02,.68-.14,.85-.33,2.49-2.54,6.38-6.88,7.03-7.49,2.44-3.17,3.74-4.89,4.65-6.43Z"/></g></g></g><g id="k"/><g id="l"><g id="m"/><g id="n"/></g><g id="o"><g id="p"/><g id="q"/></g></svg>