<?xml version="1.0" encoding="UTF-8"?><svg xmlns="http://www.w3.org/2000/svg" xmlns:xlink="http://www.w3.org/1999/xlink" viewBox="0 0 428 400"><defs><style>.m{fill:none;}.n{fill:#c19f87;}.o{fill:#6d5341;}.p{opacity:.78;}.q{clip-path:url(#e);}</style><clipPath id="e"><path class="m" d="M29.06,197.86s30.04,7.73,56.19,11.91c26.14,4.18,111.63,11.72,111.63,11.72l69.21,10.05s-94.88,49.12-116.09,53.58c-17.4,3.66-72.56,16.74-72.56,16.74l-46.88,6.7-1.49-110.7Z"/></clipPath></defs><g id="a"><g id="b" class="p"/></g><g id="c"><g id="d"><path class="n" d="M29.06,197.86s30.04,7.73,56.19,11.91c26.14,4.18,111.63,11.72,111.63,11.72l50.23,7.81c4.36,.63,10.25,7.31,6.33,9.3-26.54,13.48-87.03,43.06-103.44,46.51-17.4,3.66-72.56,16.74-72.56,16.74l-46.88,6.7-1.49-110.7Z"/><g class="q"><path class="o" d="M269.18,177.97c-20.52,0-37.2,2.49-76.61,6.23-20.85,2.03-39.24,3.58-59.52,6.08-15.21,4.36-30.41,9.82-45.46,16.52l-13,5.61c65.15,20.27,131.03,30.69,197.04,31.16h19.05c23.96-1.71,49.87,2.65,71.05-23.53-34.33-10.72-69.04-16.45-103.83-17.14-12.92,0-25.75,.93-38.26,3.27h-3.11v-.16l38.67,8.73-34.5-8.73h20.6c36.92-.43,73.81,4.78,110.29,15.58-18.8,15.58-40.88,12-61.16,13.4h-10.38c-19.05,0-38.18-.93-57.23-2.65-40.39-3.58-80.7-11.06-120.68-22.28,27.11-9.65,54.49-16.2,82-19.63,25.43-2.96,51.02-4.36,76.61-4.36,55.13,.05,110.2,6.61,164.91,19.63,2.37,.93,19.46,6.86,13.16,12.62-68.84,21.03-159.1,56.56-243.23,56.56-59.6,0-116.1-17.76-159.59-70.89,45.7,57.65,104.57,76.66,166.38,76.66,82.25,0,169.73-33.66,238.08-54.38,.8-.37,1.56-1.06,2.21-2.01,.66-.95,1.2-2.16,1.6-3.53,.4-1.38,.64-2.9,.72-4.46,.08-1.57-.02-3.15-.28-4.64-1.27-3.7-2.97-6.78-4.97-9.03-2-2.24-4.24-3.58-6.56-3.91-31.64-5.92-83.88-13.87-91.73-15.58-36.38-3.43-55.92-5.14-72.27-5.14Z"/></g></g></g><g id="f"/><g id="g"><g id="h"/><g id="i"/></g><g id="j"><g id="k"/><g id="l"/></g></svg>