<svg width="59" height="59" viewBox="0 0 59 59" fill="none" xmlns="http://www.w3.org/2000/svg">
<g clip-path="url(#clip0_507_2745)">
<circle cx="29.2708" cy="29.2708" r="26.8715" fill="#5B7A20" fill-opacity="0.7" stroke="#5B7A20" stroke-width="4.79849"/>
<path d="M40.9367 14.6732C36.8443 18.2797 33.3819 21.7129 30.212 26.1923C28.8141 28.1679 27.2594 30.4933 26.2432 32.6887C25.6631 33.8529 24.6173 35.672 24.2608 37.4209C22.3108 35.5737 20.2163 33.477 18.0733 31.8347C16.5459 30.6647 12.1464 33.0503 13.9372 34.4224C17.1469 36.8806 19.8162 39.9424 22.938 42.5102C24.2438 43.583 27.1377 41.2532 27.8178 40.2757C30.05 37.0554 30.3551 33.1189 31.982 29.6062C34.466 24.2339 38.8714 19.8207 43.2209 15.9885C46.1027 13.2517 43.1263 12.7469 40.9411 14.6732" fill="#FFF8EC"/>
</g>
<defs>
<clipPath id="clip0_507_2745">
<rect width="58.5416" height="58.5416" fill="white"/>
</clipPath>
</defs>
</svg>
