<svg width="183" height="183" viewBox="0 0 183 183" fill="none" xmlns="http://www.w3.org/2000/svg">
<circle cx="91.5" cy="91.5" r="84" fill="#5B7A20" fill-opacity="0.7" stroke="#5B7A20" stroke-width="15"/>
<path d="M127.968 45.8681C115.175 57.1421 104.352 67.8743 94.4427 81.8766C90.0727 88.0524 85.213 95.3215 82.0363 102.184C80.2228 105.824 76.9537 111.51 75.8392 116.977C69.7437 111.203 63.1963 104.649 56.4973 99.5149C51.7225 95.8572 37.9697 103.315 43.5679 107.604C53.6012 115.288 61.9454 124.859 71.7043 132.886C75.7862 136.24 84.8324 128.957 86.9582 125.901C93.9362 115.835 94.89 103.529 99.9756 92.5485C107.741 75.7547 121.512 61.9593 135.108 49.9797C144.117 41.4245 134.813 39.8466 127.982 45.8681" fill="#FFF8EC"/>
</svg>
