<svg width="122" height="121" viewBox="0 0 122 121" fill="none" xmlns="http://www.w3.org/2000/svg">
<path fill-rule="evenodd" clip-rule="evenodd" d="M47.8027 33.4296C47.3879 33.0137 47.2125 32.3803 47.3009 31.6182C47.3893 30.8561 47.7371 30.0034 48.2957 29.1794C48.8544 28.3553 49.5958 27.6012 50.4163 27.0226C51.2367 26.444 52.0952 26.0699 52.8715 25.9525L95.3331 19.4869C96.1614 19.3607 96.8508 19.5334 97.2925 19.9777C97.7341 20.422 97.9027 21.1125 97.7715 21.94L91.0527 64.3622C90.9307 65.1378 90.5514 65.994 89.9679 66.811C89.3845 67.628 88.626 68.3649 87.7986 68.9186C86.9713 69.4723 86.1165 69.8151 85.3538 69.8989C84.5912 69.9828 83.9589 69.8036 83.5455 69.3863L75.6225 61.4159C56.9491 80.423 49.8992 91.4858 47.5436 98.2358C45.3037 104.652 46.974 107.921 48.7299 111.338L49.1808 112.22C49.4992 112.856 49.4663 113.743 49.0883 114.714C48.7104 115.685 48.0134 116.673 47.1286 117.493C46.2437 118.314 45.232 118.908 44.2837 119.166C43.3355 119.424 42.516 119.328 41.9796 118.894C35.9221 114.002 28.9179 105.15 29.122 91.7181C29.3204 78.681 36.3032 61.8667 55.7892 41.464L47.8027 33.4296Z" fill="#999529"/>
</svg>
