<svg width="103" height="187" viewBox="0 0 103 187" fill="none" xmlns="http://www.w3.org/2000/svg">
<path d="M43.1812 73.0277C43.1406 76.5777 43.2624 128.029 43.2144 132.113C43.207 132.848 43.1001 133.142 43.1849 138.302C43.1037 141.423 43.089 144.762 43.089 144.762L43.089 154.018C43.207 163.281 43.1849 157.357 43.0263 169.588C42.9636 174.343 43.0263 173.655 43.0779 183.417C44.5831 180.537 45.3579 180.073 47.1915 178.845C50.9656 176.323 54.0056 175.694 57.8093 177.557C60.1483 178.721 63.5867 179.321 65.3207 184.046C65.5015 178.051 65.531 174.307 65.6158 169.059C65.6675 165.938 65.7154 163.887 65.7413 161.406C65.8298 153.666 65.6896 157.651 65.9036 147.594C65.9405 145.837 65.8593 141.882 65.9479 139.166C65.97 136.104 65.9552 135.998 65.9885 134.441C65.9516 130.209 65.9626 130.873 65.9737 128.91C66.0032 123.491 66.018 74.9026 65.9626 71" fill="#6D5341"/>
<path d="M47.3722 178.028C49.678 176.741 51.5301 176.359 53.8728 176C54.9131 176 60.5762 177.082 61.79 178.416C63.3801 180.144 65.2505 183.223 65.2505 183.888C65.2801 184.828 63.7785 184.446 63.096 184.64C60.2737 185.439 58.7242 185.627 56.6656 185.927C53.1829 186.427 53.3489 186.662 49.4198 185.927C48.8996 185.821 44.3876 184.763 43.8563 184.452C43.4431 184.211 43.255 184.17 43.148 183.805C42.8713 182.859 43.4284 181.249 43.6755 180.861C44.7676 178.539 45.5977 179.397 46.9074 178.386" fill="#6D5341"/>
<path d="M52.932 186.368C53.9281 186.368 54.7398 186.18 56.6582 185.904C57.6728 185.751 58.5656 185.639 59.5506 185.451C60.2885 185.128 61.03 184.716 61.7605 184.223L62.3914 183.805C59.2223 182.295 56.02 181.519 52.8103 181.484L51.8843 181.484C50.7184 181.613 49.4604 181.284 48.4311 183.235C50.0986 184.035 51.7883 184.464 53.478 184.511C54.1052 184.511 54.7287 184.44 55.3374 184.264L55.4887 184.264L55.4887 184.276L53.6072 183.623L55.2858 184.276L54.2823 184.276C52.4856 184.305 50.6926 183.917 48.9181 183.112C49.833 181.948 50.9066 182.218 51.8916 182.113L52.3971 182.113C53.3231 182.113 54.2528 182.183 55.1788 182.312C57.1415 182.577 59.1005 183.135 61.0448 183.976C59.7277 184.693 58.3959 185.187 57.0567 185.439C55.8207 185.663 54.5774 185.763 53.3305 185.763C50.6483 185.763 47.9736 185.269 45.3136 184.299C45.1992 184.229 44.3691 183.788 44.6754 183.359C48.0216 181.789 52.4118 179.144 56.4996 179.144C59.3957 179.144 62.1442 180.467 64.2582 184.428C62.0372 180.132 59.1743 178.715 56.1675 178.715C52.1683 178.715 47.9146 181.225 44.5905 182.771C44.5499 182.8 44.5167 182.847 44.4835 182.924C44.4503 182.994 44.4245 183.082 44.406 183.188C44.3876 183.288 44.3765 183.406 44.3691 183.523C44.3691 183.641 44.3692 183.758 44.3839 183.87C44.4466 184.146 44.5278 184.375 44.6274 184.54C44.7233 184.705 44.834 184.804 44.9447 184.834C46.4831 185.275 49.0214 185.868 49.405 185.998C51.1722 186.25 52.1241 186.38 52.9173 186.38L52.932 186.368Z" fill="#6D5341"/>
<path d="M52.4803 30.8298C52.4803 30.8298 25.7353 91.4648 5.35667 101.298C-15.022 111.131 29.1314 95.0716 31.6784 91.1383C34.2254 87.2049 21.7407 115.821 25.1418 123.112C25.1418 123.112 37.3685 107.673 43.7623 98.8517C44.6013 97.6938 55.989 125.948 57.1636 124.68C57.1636 124.68 58.1404 96.8725 65.0201 104.257C73.0744 112.9 89.3608 119.571 89.3608 119.571C89.3608 119.571 73.3699 93.5043 73.3699 87.2778C73.3699 87.2778 93.6609 102.938 103 104.578C103 104.578 54.1783 41.9768 52.4803 30.8323V30.8298Z" fill="#AFD079"/>
<path d="M34.1989 56.8838C34.1989 56.8838 19.1 74.961 10.1192 78.9344C1.13588 82.9078 30.3779 74.1653 31.9068 71.7833C33.4357 69.3988 37.4094 73.957 37.0265 82.6994C36.6437 91.4419 44.1381 87.082 47.3861 77.1473C47.3861 77.1473 52.5458 68.0082 52.3557 66.4194C52.1655 64.8305 62.4775 85.6287 61.0437 90.3877C61.0437 90.3877 72.4567 84.9208 70.7527 71.9364L70.1296 65.4279C70.1296 65.4279 75.0992 74.1678 87.5206 81.1231L100.898 89.4665C100.898 89.4665 82.7412 69.203 76.6256 60.064C70.5099 50.925 46.4302 35.0339 46.4302 35.0339L34.1989 56.8863V56.8838Z" fill="#A5CA68"/>
<path d="M37.608 41.5047C37.608 41.5047 25.0265 56.1327 17.5412 59.3479C10.0559 62.5632 34.4226 55.4906 35.6972 53.562C36.9719 51.6333 37.7683 57.7403 37.4502 64.8154C37.1322 71.8905 45.8921 65.9403 48.5993 57.9021C48.5993 57.9021 52.8991 50.5085 52.7388 49.2219C52.5786 47.9352 57.4669 61.1199 56.2724 64.9721C56.2724 64.9721 64.564 68.9912 65.5182 60.1492L68.909 51.7496C68.909 51.7496 71.6887 55.4906 82.0414 61.1174L93.1904 67.8689C93.1904 67.8689 78.0621 51.4715 72.9659 44.0779C67.8697 36.6843 47.8029 23.8232 47.8029 23.8232L37.6105 41.5047H37.608Z" fill="#AACD70"/>
<path d="M52.753 0.00251872C52.753 0.00251872 37.653 39.0734 26.1469 45.4085C14.6408 51.7437 39.5703 41.3954 41.0088 38.8614C42.4474 36.3273 39.0916 46.6755 41.9687 54.0682C41.9687 54.0682 48.921 33.1597 51.3169 30.2042C51.3169 30.2042 59.7053 40.5524 59.2266 48.1546C58.7479 55.7567 58.986 59.5578 58.986 59.5578C58.986 59.5578 63.3017 40.1284 63.3017 36.1153C63.3017 36.1153 76.0058 46.4635 81.2789 47.5185C81.2789 47.5185 53.7129 7.18066 52.7555 0L52.753 0.00251872Z" fill="#9AC355"/>
</svg>
