<svg width="130" height="127" viewBox="0 0 130 127" fill="none" xmlns="http://www.w3.org/2000/svg">
<rect y="0.0253906" width="130" height="126.691" rx="5.37204" fill="#FFFAF1"/>
<path d="M19.1841 18.7776C19.1375 18.7776 19.0735 18.7776 18.992 18.7776C18.9144 18.7737 18.8349 18.7718 18.7534 18.7718C18.6758 18.7679 18.6118 18.766 18.5614 18.766C18.41 18.766 18.2549 18.7679 18.0958 18.7718C17.9367 18.7757 17.7796 18.7776 17.6244 18.7776V17.4565C17.7796 17.4565 17.9367 17.4585 18.0958 17.4623C18.2549 17.4662 18.41 17.4682 18.5614 17.4682C18.6118 17.4682 18.6758 17.4682 18.7534 17.4682C18.8349 17.4643 18.9144 17.4623 18.992 17.4623C19.0735 17.4585 19.1375 17.4565 19.1841 17.4565H20.8252C20.8718 17.4565 20.9339 17.4585 21.0115 17.4623C21.0929 17.4623 21.1744 17.4643 21.2559 17.4682C21.3374 17.4682 21.3994 17.4682 21.4421 17.4682C21.5973 17.4682 21.7525 17.4662 21.9077 17.4623C22.0668 17.4585 22.2239 17.4565 22.3791 17.4565V18.7776C22.2239 18.7776 22.0668 18.7757 21.9077 18.7718C21.7525 18.7679 21.5973 18.766 21.4421 18.766C21.3994 18.766 21.3374 18.7679 21.2559 18.7718C21.1744 18.7718 21.0929 18.7737 21.0115 18.7776C20.9339 18.7776 20.8718 18.7776 20.8252 18.7776H19.1841ZM18.573 22.217C18.4488 22.2403 18.313 22.2558 18.1656 22.2636C18.0221 22.2714 17.896 22.2752 17.7873 22.2752C17.6865 22.2752 17.5604 22.2714 17.4091 22.2636C17.2616 22.2558 17.1278 22.2403 17.0075 22.217V14.2673C17.1278 14.244 17.2616 14.2285 17.4091 14.2208C17.5604 14.213 17.6865 14.2091 17.7873 14.2091C17.896 14.2091 18.0221 14.213 18.1656 14.2208C18.313 14.2285 18.4488 14.244 18.573 14.2673V16.6068C18.573 16.7698 18.5711 16.9153 18.5672 17.0433C18.5633 17.1675 18.5614 17.3091 18.5614 17.4682V18.766C18.5614 18.9211 18.5633 19.0628 18.5672 19.1908C18.5711 19.3188 18.573 19.4643 18.573 19.6273V22.217ZM21.4305 19.6273C21.4305 19.4643 21.4324 19.3188 21.4363 19.1908C21.4402 19.0628 21.4421 18.9211 21.4421 18.766V17.4682C21.4421 17.3091 21.4402 17.1675 21.4363 17.0433C21.4324 16.9153 21.4305 16.7698 21.4305 16.6068V14.2673C21.5585 14.244 21.6924 14.2285 21.832 14.2208C21.9756 14.213 22.1017 14.2091 22.2103 14.2091C22.3151 14.2091 22.4412 14.213 22.5886 14.2208C22.7399 14.2285 22.8757 14.244 22.996 14.2673V22.217C22.8679 22.2403 22.736 22.2558 22.6002 22.2636C22.4644 22.2714 22.3403 22.2752 22.2278 22.2752C22.1114 22.2752 21.9814 22.2714 21.8379 22.2636C21.6943 22.2558 21.5585 22.2403 21.4305 22.217V19.6273ZM29.6033 19.3246C29.6033 19.9338 29.5043 20.4692 29.3064 20.9309C29.1086 21.3887 28.8157 21.7456 28.4277 22.0017C28.0436 22.2539 27.5664 22.38 26.996 22.38C26.4218 22.38 25.9407 22.252 25.5527 21.9959C25.1686 21.7359 24.8796 21.3771 24.6856 20.9192C24.4916 20.4614 24.3946 19.9299 24.3946 19.3246C24.3946 18.7194 24.4916 18.1879 24.6856 17.73C24.8835 17.2722 25.1745 16.9153 25.5586 16.6592C25.9465 16.4032 26.4257 16.2751 26.996 16.2751C27.5702 16.2751 28.0494 16.4051 28.4335 16.665C28.8215 16.9211 29.1125 17.278 29.3064 17.7359C29.5043 18.1898 29.6033 18.7194 29.6033 19.3246ZM25.9601 19.3246C25.9601 19.6661 25.9873 19.9823 26.0416 20.2733C26.0959 20.5604 26.1987 20.7932 26.35 20.9716C26.5013 21.1462 26.7167 21.2335 26.996 21.2335C27.2831 21.2335 27.5004 21.1462 27.6478 20.9716C27.7991 20.7932 27.902 20.5604 27.9563 20.2733C28.0106 19.9823 28.0378 19.6661 28.0378 19.3246C28.0378 18.9871 28.0106 18.6728 27.9563 18.3819C27.902 18.0909 27.7991 17.8581 27.6478 17.6835C27.5004 17.505 27.2831 17.4158 26.996 17.4158C26.7167 17.4158 26.5013 17.505 26.35 17.6835C26.1987 17.8581 26.0959 18.0909 26.0416 18.3819C25.9873 18.6728 25.9601 18.9871 25.9601 19.3246ZM30.1168 16.5312C30.272 16.4652 30.4214 16.4187 30.565 16.3915C30.7124 16.3605 30.8521 16.345 30.984 16.345C31.209 16.345 31.3739 16.3973 31.4787 16.5021C31.5834 16.6068 31.6571 16.7659 31.6998 16.9793L32.1421 19.121C32.2197 19.4895 32.2876 19.8407 32.3458 20.1743C32.4079 20.508 32.4544 20.7815 32.4855 20.9949C32.4971 21.057 32.5281 21.088 32.5786 21.088L33.3817 16.4846C33.502 16.4575 33.6552 16.4381 33.8415 16.4264C34.0316 16.4148 34.1732 16.409 34.2663 16.409C34.371 16.409 34.5204 16.4148 34.7144 16.4264C34.9084 16.4381 35.0597 16.4575 35.1683 16.4846L35.9656 20.9949C35.9812 21.057 36.0122 21.088 36.0588 21.088C36.117 20.7893 36.1752 20.475 36.2334 20.1452C36.2915 19.8154 36.3575 19.474 36.4312 19.121L37.0016 16.4381C37.0869 16.4187 37.1839 16.4051 37.2925 16.3973C37.4051 16.3857 37.5098 16.3799 37.6068 16.3799C37.7193 16.3799 37.8532 16.3876 38.0084 16.4032C38.1674 16.4187 38.2974 16.4517 38.3983 16.5021L38.4448 16.5894L37.0597 22.2229C36.9084 22.2423 36.7261 22.2558 36.5127 22.2636C36.3032 22.2752 36.1092 22.2811 35.9307 22.2811C35.6397 22.2811 35.4147 22.2384 35.2556 22.153C35.0966 22.0638 34.9899 21.8582 34.9356 21.5361L34.6737 20.1103C34.6426 19.9124 34.6058 19.6874 34.5631 19.4352C34.5204 19.183 34.4758 18.9173 34.4292 18.6379C34.3866 18.3586 34.3439 18.0831 34.3012 17.8115H34.243C34.2042 18.0792 34.1615 18.3508 34.115 18.6263C34.0684 18.9017 34.0219 19.1656 33.9753 19.4178C33.9326 19.6699 33.8919 19.895 33.8531 20.0928L33.4574 22.217C33.2944 22.2364 33.1043 22.252 32.887 22.2636C32.6698 22.2752 32.468 22.2811 32.2818 22.2811C32.0063 22.2811 31.789 22.2345 31.63 22.1414C31.4709 22.0444 31.3564 21.8388 31.2866 21.5245L30.1168 16.5312ZM42.5822 16.3741C42.8809 16.3741 43.1002 16.473 43.2398 16.6709C43.3834 16.8649 43.4552 17.1306 43.4552 17.4682V22.217C43.3504 22.2364 43.2301 22.25 43.0943 22.2578C42.9624 22.2694 42.8305 22.2752 42.6986 22.2752C42.5706 22.2752 42.4386 22.2694 42.3029 22.2578C42.1671 22.25 42.0448 22.2364 41.9362 22.217V16.4555L42.0119 16.3741H42.5822ZM45.0672 18.6437C45.0672 18.2868 45.009 18.0404 44.8926 17.9046C44.7801 17.7688 44.6366 17.7009 44.462 17.7009C44.2835 17.7048 44.0934 17.7688 43.8916 17.893C43.6899 18.0172 43.5037 18.1762 43.3329 18.3702C43.1661 18.5603 43.04 18.764 42.9547 18.9813V17.602C43.1331 17.3809 43.331 17.1733 43.5483 16.9793C43.7694 16.7853 44.0041 16.6301 44.2525 16.5137C44.5046 16.3935 44.7665 16.3333 45.0381 16.3333C45.3757 16.3333 45.6589 16.4129 45.8878 16.5719C46.1206 16.731 46.2952 16.9483 46.4116 17.2237C46.5318 17.4992 46.592 17.8096 46.592 18.1549V22.217C46.4833 22.2364 46.3611 22.25 46.2253 22.2578C46.0934 22.2694 45.9634 22.2752 45.8354 22.2752C45.7035 22.2752 45.5696 22.2694 45.4339 22.2578C45.3019 22.25 45.1797 22.2364 45.0672 22.217V18.6437ZM48.204 18.6321C48.204 18.2752 48.1439 18.0307 48.0236 17.8988C47.9072 17.7669 47.7617 17.7009 47.5871 17.7009C47.4203 17.7009 47.238 17.763 47.0401 17.8872C46.8422 18.0113 46.6541 18.1743 46.4756 18.376C46.301 18.5739 46.1594 18.7912 46.0507 19.0278V17.5089C46.2331 17.2994 46.4407 17.1054 46.6735 16.9269C46.9062 16.7485 47.1526 16.6049 47.4126 16.4963C47.6764 16.3876 47.9402 16.3333 48.204 16.3333C48.5455 16.3333 48.8287 16.4148 49.0537 16.5777C49.2787 16.7407 49.4475 16.9599 49.56 17.2354C49.6725 17.5108 49.7288 17.8232 49.7288 18.1723V20.8727C49.7288 21.0861 49.7463 21.2878 49.7812 21.4779C49.8161 21.668 49.8782 21.8349 49.9674 21.9784C49.8588 22.0677 49.721 22.1453 49.5542 22.2112C49.3874 22.2733 49.2089 22.3043 49.0188 22.3043C48.7162 22.3043 48.5047 22.2229 48.3844 22.0599C48.2642 21.897 48.204 21.6603 48.204 21.3499V18.6321ZM50.9071 20.6399C50.9071 20.1821 51.0099 19.8077 51.2156 19.5167C51.4251 19.2257 51.7005 19.0104 52.042 18.8707C52.3873 18.731 52.7655 18.6612 53.1768 18.6612C53.3708 18.6612 53.6016 18.669 53.8693 18.6845C54.1409 18.6961 54.3892 18.7272 54.6143 18.7776V19.7611C54.428 19.7184 54.2108 19.6932 53.9625 19.6855C53.718 19.6738 53.5008 19.668 53.3106 19.668C53.0041 19.668 52.7752 19.7475 52.6239 19.9066C52.4726 20.0618 52.397 20.2713 52.397 20.5351C52.397 20.733 52.4552 20.8979 52.5715 21.0298C52.6879 21.1617 52.849 21.2277 53.0546 21.2277C53.3106 21.2277 53.5764 21.1365 53.8519 20.9542C54.1312 20.7718 54.366 20.5138 54.5561 20.1801L54.7772 21.2161C54.6298 21.3868 54.4571 21.5633 54.2593 21.7456C54.0614 21.9241 53.8286 22.0754 53.5609 22.1996C53.2971 22.3199 52.9925 22.38 52.6472 22.38C52.2553 22.38 51.9294 22.2927 51.6695 22.1181C51.4134 21.9435 51.2214 21.7224 51.0933 21.4547C50.9692 21.187 50.9071 20.9154 50.9071 20.6399ZM55.9819 21.5245C55.9509 21.6603 55.8849 21.8058 55.784 21.961C55.687 22.1162 55.5862 22.2306 55.4814 22.3043C55.1865 22.2772 54.944 22.1938 54.7539 22.0541C54.5638 21.9144 54.4203 21.7456 54.3233 21.5478C54.2302 21.346 54.17 21.1423 54.1429 20.9367V18.3819C54.1429 18.0792 54.0711 17.8581 53.9275 17.7184C53.784 17.5749 53.5725 17.5031 53.2932 17.5031C53.0216 17.5031 52.7345 17.5458 52.4319 17.6311C52.1292 17.7126 51.8247 17.8057 51.5182 17.9105C51.4057 17.7863 51.3145 17.6234 51.2447 17.4216C51.1787 17.2199 51.138 17.022 51.1224 16.828C51.363 16.7271 51.6307 16.6379 51.9256 16.5603C52.2243 16.4827 52.525 16.4226 52.8276 16.3799C53.1341 16.3333 53.4154 16.31 53.6715 16.31C54.0323 16.31 54.3621 16.376 54.6608 16.5079C54.9596 16.6398 55.2001 16.8513 55.3825 17.1423C55.5648 17.4294 55.656 17.8076 55.656 18.2771V20.6515C55.656 20.8417 55.6793 21.0104 55.7258 21.1579C55.7724 21.3053 55.8577 21.4275 55.9819 21.5245ZM57.8647 16.3741C58.1635 16.3741 58.3827 16.473 58.5224 16.6709C58.662 16.8649 58.7319 17.1306 58.7319 17.4682V22.217C58.6271 22.2364 58.5069 22.25 58.3711 22.2578C58.2392 22.2694 58.1072 22.2752 57.9753 22.2752C57.8473 22.2752 57.7154 22.2694 57.5796 22.2578C57.4438 22.25 57.3216 22.2364 57.2129 22.217V16.4497L57.2886 16.3741H57.8647ZM62.0142 20.8727C62.0142 21.0861 62.0317 21.2878 62.0666 21.4779C62.1054 21.668 62.1694 21.8349 62.2586 21.9784C62.15 22.0677 62.0103 22.1453 61.8396 22.2112C61.6728 22.2733 61.4962 22.3043 61.31 22.3043C61.0074 22.3043 60.7959 22.2229 60.6757 22.0599C60.5554 21.897 60.4953 21.6603 60.4953 21.3499V18.6437C60.4953 18.3178 60.4526 18.0792 60.3672 17.9279C60.2857 17.7766 60.1267 17.7009 59.89 17.7009C59.7309 17.7009 59.5563 17.7397 59.3662 17.8173C59.1761 17.8949 58.9918 18.0133 58.8134 18.1723C58.6349 18.3314 58.4836 18.5312 58.3594 18.7718V17.3867C58.6271 17.1073 58.9336 16.8629 59.2789 16.6534C59.6281 16.44 60.0103 16.3333 60.4254 16.3333C60.7862 16.3333 61.083 16.4206 61.3158 16.5952C61.5525 16.7659 61.7271 17.0026 61.8396 17.3052C61.956 17.604 62.0142 17.9454 62.0142 18.3295V20.8727ZM66.6607 22.0483C66.5055 22.607 66.3231 23.0881 66.1136 23.4916C65.908 23.8989 65.6325 24.2113 65.2872 24.4285C64.9458 24.6497 64.4938 24.7603 63.9312 24.7603C63.7217 24.7603 63.4928 24.737 63.2445 24.6904C62.9962 24.6439 62.8022 24.5973 62.6626 24.5507C62.647 24.3762 62.6703 24.1802 62.7324 23.963C62.7945 23.7457 62.8759 23.5789 62.9768 23.4625C63.0855 23.4974 63.229 23.5323 63.4075 23.5672C63.5859 23.606 63.7625 23.6254 63.9371 23.6254C64.166 23.6254 64.36 23.5769 64.519 23.4799C64.6781 23.3829 64.812 23.2452 64.9206 23.0667C65.0331 22.8921 65.1262 22.6846 65.1999 22.444L65.2407 22.2869C64.9613 22.283 64.7324 22.2326 64.554 22.1356C64.3794 22.0347 64.2552 21.8582 64.1815 21.606L62.7382 16.5545C62.9012 16.4807 63.0661 16.4284 63.2329 16.3973C63.3997 16.3624 63.5471 16.345 63.6752 16.345C63.8575 16.345 64.0108 16.3915 64.1349 16.4846C64.2591 16.5739 64.3541 16.7465 64.4201 17.0026L65.0836 19.4585C65.1301 19.6098 65.1728 19.7863 65.2116 19.9881C65.2543 20.186 65.295 20.3819 65.3338 20.5759C65.3726 20.766 65.4036 20.9309 65.4269 21.0706C65.4386 21.1249 65.4735 21.152 65.5317 21.152L66.6723 16.4381C66.7577 16.4187 66.8566 16.4051 66.9691 16.3973C67.0855 16.3857 67.1922 16.3799 67.2892 16.3799C67.4211 16.3799 67.555 16.3876 67.6908 16.4032C67.8266 16.4148 67.9604 16.442 68.0923 16.4846L68.1447 16.5836L66.6607 22.0483ZM73.0929 22.217C72.8834 22.2558 72.6312 22.2752 72.3364 22.2752C72.0764 22.2752 71.832 22.2558 71.6031 22.217V13.7319L71.6787 13.6563H72.2665C72.573 13.6563 72.7864 13.728 72.9067 13.8716C73.0308 14.0113 73.0929 14.2518 73.0929 14.5932V22.217ZM76.3752 20.8727C76.3752 21.0861 76.3927 21.2878 76.4276 21.4779C76.4625 21.668 76.5246 21.8349 76.6138 21.9784C76.5013 22.0677 76.3617 22.1453 76.1948 22.2112C76.028 22.2733 75.8495 22.3043 75.6594 22.3043C75.3607 22.3043 75.1512 22.2229 75.0309 22.0599C74.9106 21.897 74.8505 21.6603 74.8505 21.3499V18.6437C74.8505 18.3178 74.8078 18.0812 74.7224 17.9337C74.641 17.7824 74.4799 17.7068 74.2394 17.7068C74.0881 17.7068 73.9154 17.7475 73.7214 17.829C73.5313 17.9066 73.347 18.0249 73.1686 18.184C72.9901 18.3392 72.8407 18.5351 72.7205 18.7718V17.3925C72.9843 17.1093 73.2888 16.8629 73.6342 16.6534C73.9833 16.4439 74.3674 16.3391 74.7865 16.3391C75.1434 16.3391 75.4383 16.4264 75.671 16.601C75.9077 16.7717 76.0842 17.0065 76.2006 17.3052C76.317 17.604 76.3752 17.9454 76.3752 18.3295V20.8727ZM78.5337 19.8135V18.7485H81.0304V18.603C81.0304 18.3819 80.9974 18.1782 80.9314 17.9919C80.8694 17.8057 80.7685 17.6563 80.6288 17.5438C80.493 17.4313 80.3087 17.375 80.0759 17.375C79.7384 17.375 79.492 17.5167 79.3368 17.7999C79.1855 18.0792 79.1099 18.4847 79.1099 19.0162V19.476C79.1099 19.7902 79.139 20.0773 79.1972 20.3373C79.2592 20.5972 79.3756 20.8048 79.5463 20.96C79.7209 21.1113 79.9731 21.187 80.3029 21.187C80.5822 21.187 80.8519 21.1501 81.1118 21.0764C81.3757 20.9988 81.6279 20.9037 81.8684 20.7912C81.9848 20.9076 82.0798 21.0531 82.1536 21.2277C82.2312 21.4023 82.2816 21.5672 82.3049 21.7224C82.0178 21.928 81.6744 22.089 81.2748 22.2054C80.879 22.3218 80.4756 22.38 80.0643 22.38C79.5754 22.38 79.17 22.2966 78.848 22.1297C78.5259 21.9629 78.2699 21.7379 78.0798 21.4547C77.8935 21.1676 77.7616 20.8436 77.684 20.4828C77.6064 20.1181 77.5676 19.7417 77.5676 19.3537C77.5676 18.7718 77.6569 18.248 77.8353 17.7824C78.0138 17.3168 78.2893 16.9502 78.6617 16.6825C79.0342 16.4109 79.5095 16.2751 80.0876 16.2751C80.5958 16.2751 81.0245 16.3857 81.3737 16.6068C81.7268 16.8241 81.9945 17.119 82.1768 17.4914C82.3631 17.8639 82.4562 18.2829 82.4562 18.7485C82.4562 18.9735 82.4465 19.1636 82.4271 19.3188C82.4077 19.4701 82.3767 19.635 82.334 19.8135H78.5337ZM86.6993 18.8416C86.7071 18.5661 86.6896 18.3217 86.6469 18.1083C86.6043 17.8949 86.5208 17.7281 86.3967 17.6078C86.2764 17.4837 86.096 17.4216 85.8555 17.4216C85.5373 17.4216 85.3026 17.5787 85.1513 17.893C85 18.2034 84.9243 18.6884 84.9243 19.3479C84.9243 20.0075 85.0232 20.4769 85.2211 20.7563C85.4229 21.0318 85.708 21.1695 86.0766 21.1695C86.3249 21.1695 86.5635 21.1152 86.7924 21.0065C87.0213 20.8979 87.2308 20.7738 87.421 20.6341C87.549 20.7078 87.6731 20.832 87.7934 21.0065C87.9137 21.1811 87.9913 21.346 88.0262 21.5012C87.7624 21.765 87.4365 21.9784 87.0485 22.1414C86.6644 22.3005 86.2609 22.38 85.838 22.38C85.419 22.38 85.0543 22.3043 84.7439 22.153C84.4374 22.0017 84.1813 21.7903 83.9757 21.5187C83.7701 21.2432 83.6168 20.9212 83.5159 20.5526C83.4151 20.184 83.3646 19.7825 83.3646 19.3479C83.3646 18.797 83.4345 18.3275 83.5741 17.9396C83.7177 17.5477 83.9097 17.2296 84.1503 16.9851C84.3947 16.7407 84.6663 16.5622 84.965 16.4497C85.2677 16.3333 85.5742 16.2751 85.8846 16.2751C86.226 16.2751 86.5325 16.3256 86.8041 16.4264C87.0757 16.5234 87.3065 16.6592 87.4966 16.8338C87.6867 17.0045 87.8303 17.2005 87.9273 17.4216C88.0281 17.6428 88.0786 17.8755 88.0786 18.12C88.0786 18.3799 88.0107 18.5758 87.8749 18.7078C87.743 18.8358 87.5587 18.8998 87.322 18.8998C87.194 18.8998 87.0815 18.8959 86.9845 18.8882C86.8914 18.8765 86.7963 18.861 86.6993 18.8416ZM89.4655 15.6059C89.4655 15.2683 89.5256 15.0278 89.6459 14.8842C89.7662 14.7407 89.9796 14.6689 90.2861 14.6689H90.868L90.9495 14.7504V20.5701C90.9495 20.733 90.9864 20.861 91.0601 20.9542C91.1377 21.0473 91.2677 21.0938 91.45 21.0938H92.1716C92.2531 21.3305 92.2939 21.5769 92.2939 21.8329C92.2939 21.8873 92.2919 21.9455 92.288 22.0075C92.2842 22.0657 92.2745 22.12 92.2589 22.1705C92.0533 22.1976 91.8244 22.2209 91.5722 22.2403C91.3239 22.2597 91.0834 22.2694 90.8506 22.2694C90.3889 22.2694 90.0416 22.155 89.8088 21.9261C89.5799 21.6933 89.4655 21.3363 89.4655 20.8552V15.6059ZM92.3579 16.4264C92.4044 16.6049 92.4277 16.7853 92.4277 16.9677C92.4277 17.1694 92.4044 17.3556 92.3579 17.5264L90.3152 17.4914L88.5751 17.5264C88.5363 17.3479 88.5169 17.1617 88.5169 16.9677C88.5169 16.7931 88.5363 16.6127 88.5751 16.4264L90.3501 16.4555L92.3579 16.4264ZM93.0886 20.6399C93.0886 20.1821 93.1914 19.8077 93.3971 19.5167C93.6066 19.2257 93.882 19.0104 94.2235 18.8707C94.5688 18.731 94.947 18.6612 95.3583 18.6612C95.5523 18.6612 95.7831 18.669 96.0508 18.6845C96.3224 18.6961 96.5707 18.7272 96.7958 18.7776V19.7611C96.6095 19.7184 96.3923 19.6932 96.144 19.6855C95.8995 19.6738 95.6823 19.668 95.4922 19.668C95.1856 19.668 94.9567 19.7475 94.8054 19.9066C94.6541 20.0618 94.5785 20.2713 94.5785 20.5351C94.5785 20.733 94.6367 20.8979 94.753 21.0298C94.8694 21.1617 95.0305 21.2277 95.2361 21.2277C95.4922 21.2277 95.7579 21.1365 96.0334 20.9542C96.3127 20.7718 96.5475 20.5138 96.7376 20.1801L96.9587 21.2161C96.8113 21.3868 96.6386 21.5633 96.4408 21.7456C96.2429 21.9241 96.0101 22.0754 95.7424 22.1996C95.4786 22.3199 95.174 22.38 94.8287 22.38C94.4368 22.38 94.1109 22.2927 93.851 22.1181C93.5949 21.9435 93.4029 21.7224 93.2748 21.4547C93.1507 21.187 93.0886 20.9154 93.0886 20.6399ZM98.1634 21.5245C98.1324 21.6603 98.0664 21.8058 97.9655 21.961C97.8685 22.1162 97.7677 22.2306 97.6629 22.3043C97.368 22.2772 97.1255 22.1938 96.9354 22.0541C96.7453 21.9144 96.6018 21.7456 96.5048 21.5478C96.4117 21.346 96.3515 21.1423 96.3244 20.9367V18.3819C96.3244 18.0792 96.2526 17.8581 96.109 17.7184C95.9655 17.5749 95.754 17.5031 95.4747 17.5031C95.2031 17.5031 94.916 17.5458 94.6134 17.6311C94.3107 17.7126 94.0062 17.8057 93.6997 17.9105C93.5872 17.7863 93.496 17.6234 93.4262 17.4216C93.3602 17.2199 93.3195 17.022 93.3039 16.828C93.5445 16.7271 93.8122 16.6379 94.1071 16.5603C94.4058 16.4827 94.7065 16.4226 95.0091 16.3799C95.3156 16.3333 95.5969 16.31 95.853 16.31C96.2138 16.31 96.5436 16.376 96.8423 16.5079C97.1411 16.6398 97.3816 16.8513 97.564 17.1423C97.7463 17.4294 97.8375 17.8076 97.8375 18.2771V20.6515C97.8375 20.8417 97.8608 21.0104 97.9073 21.1579C97.9539 21.3053 98.0392 21.4275 98.1634 21.5245ZM103.026 16.4381C103.026 16.6282 102.995 16.861 102.933 17.1364C102.871 17.4119 102.776 17.6563 102.648 17.8697C102.558 17.8387 102.469 17.8173 102.38 17.8057C102.291 17.7941 102.201 17.7844 102.112 17.7766C101.926 17.7766 101.761 17.8135 101.618 17.8872C101.474 17.9609 101.348 18.0618 101.239 18.1898C101.131 18.314 101.034 18.4595 100.948 18.6263C100.863 18.7931 100.787 18.9696 100.721 19.1559L100.529 18.9114C100.545 18.6127 100.584 18.314 100.646 18.0152C100.712 17.7126 100.811 17.4371 100.942 17.1888C101.074 16.9366 101.253 16.7349 101.478 16.5836C101.707 16.4323 101.99 16.3566 102.328 16.3566C102.471 16.3566 102.595 16.3644 102.7 16.3799C102.805 16.3915 102.913 16.4109 103.026 16.4381ZM99.0569 17.1423C99.0879 17.0065 99.152 16.859 99.249 16.7C99.3498 16.5409 99.4526 16.4245 99.5574 16.3508C100.023 16.409 100.372 16.6049 100.605 16.9386C100.838 17.2722 100.974 17.7009 101.012 18.2247V22.217C100.908 22.2364 100.789 22.25 100.657 22.2578C100.525 22.2694 100.392 22.2752 100.256 22.2752C100.124 22.2752 99.99 22.2694 99.8542 22.2578C99.7223 22.25 99.602 22.2364 99.4934 22.217V18.3469C99.4934 18.0172 99.4449 17.7533 99.3479 17.5555C99.2509 17.3576 99.1539 17.2199 99.0569 17.1423ZM104.256 19.8135V18.7485H106.753V18.603C106.753 18.3819 106.72 18.1782 106.654 17.9919C106.592 17.8057 106.491 17.6563 106.351 17.5438C106.216 17.4313 106.031 17.375 105.799 17.375C105.461 17.375 105.215 17.5167 105.059 17.7999C104.908 18.0792 104.833 18.4847 104.833 19.0162V19.476C104.833 19.7902 104.862 20.0773 104.92 20.3373C104.982 20.5972 105.098 20.8048 105.269 20.96C105.444 21.1113 105.696 21.187 106.026 21.187C106.305 21.187 106.575 21.1501 106.834 21.0764C107.098 20.9988 107.351 20.9037 107.591 20.7912C107.707 20.9076 107.803 21.0531 107.876 21.2277C107.954 21.4023 108.004 21.5672 108.028 21.7224C107.74 21.928 107.397 22.089 106.997 22.2054C106.602 22.3218 106.198 22.38 105.787 22.38C105.298 22.38 104.893 22.2966 104.571 22.1297C104.249 21.9629 103.993 21.7379 103.802 21.4547C103.616 21.1676 103.484 20.8436 103.407 20.4828C103.329 20.1181 103.29 19.7417 103.29 19.3537C103.29 18.7718 103.38 18.248 103.558 17.7824C103.736 17.3168 104.012 16.9502 104.384 16.6825C104.757 16.4109 105.232 16.2751 105.81 16.2751C106.318 16.2751 106.747 16.3857 107.096 16.6068C107.449 16.8241 107.717 17.119 107.9 17.4914C108.086 17.8639 108.179 18.2829 108.179 18.7485C108.179 18.9735 108.169 19.1636 108.15 19.3188C108.13 19.4701 108.099 19.635 108.057 19.8135H104.256ZM108.948 21.8038C108.955 21.637 109.004 21.4527 109.093 21.251C109.182 21.0453 109.285 20.8824 109.402 20.7621C109.654 20.894 109.918 21.0104 110.193 21.1113C110.468 21.2122 110.746 21.2626 111.025 21.2626C111.293 21.2626 111.5 21.2102 111.648 21.1055C111.799 21.0007 111.877 20.8669 111.881 20.7039C111.881 20.5642 111.828 20.4382 111.724 20.3256C111.623 20.2131 111.466 20.12 111.252 20.0463L110.589 19.8077C110.321 19.7068 110.075 19.5827 109.85 19.4352C109.628 19.2839 109.452 19.0996 109.32 18.8823C109.192 18.6651 109.128 18.4051 109.128 18.1025C109.128 17.7262 109.219 17.4022 109.402 17.1306C109.584 16.8552 109.838 16.6437 110.164 16.4963C110.49 16.3488 110.864 16.2751 111.287 16.2751C111.629 16.2751 111.989 16.3217 112.37 16.4148C112.75 16.504 113.062 16.6088 113.307 16.7291C113.314 16.8493 113.301 16.9812 113.266 17.1248C113.231 17.2683 113.179 17.4022 113.109 17.5264C113.043 17.6466 112.967 17.7417 112.882 17.8115C112.657 17.7106 112.404 17.6175 112.125 17.5322C111.85 17.4429 111.57 17.3983 111.287 17.3983C111.085 17.3983 110.926 17.4488 110.81 17.5496C110.697 17.6466 110.641 17.7688 110.641 17.9163C110.641 18.0482 110.688 18.1588 110.781 18.248C110.874 18.3372 111.017 18.4168 111.211 18.4866L111.933 18.7485C112.372 18.9037 112.732 19.1268 113.016 19.4178C113.303 19.7049 113.446 20.087 113.446 20.5642C113.446 21.1229 113.231 21.5652 112.8 21.8911C112.37 22.217 111.786 22.38 111.049 22.38C110.633 22.38 110.245 22.3237 109.885 22.2112C109.524 22.0948 109.211 21.959 108.948 21.8038ZM16.938 34.6399C16.938 34.1821 17.0408 33.8077 17.2464 33.5167C17.4559 33.2257 17.7314 33.0104 18.0728 32.8707C18.4181 32.731 18.7964 32.6612 19.2077 32.6612C19.4017 32.6612 19.6325 32.669 19.9002 32.6845C20.1718 32.6961 20.4201 32.7272 20.6451 32.7776V33.7611C20.4589 33.7184 20.2416 33.6932 19.9933 33.6855C19.7489 33.6738 19.5316 33.668 19.3415 33.668C19.035 33.668 18.8061 33.7475 18.6548 33.9066C18.5035 34.0618 18.4278 34.2713 18.4278 34.5351C18.4278 34.733 18.486 34.8979 18.6024 35.0298C18.7188 35.1617 18.8798 35.2277 19.0854 35.2277C19.3415 35.2277 19.6073 35.1365 19.8827 34.9542C20.1621 34.7718 20.3968 34.5138 20.5869 34.1801L20.8081 35.2161C20.6606 35.3868 20.488 35.5633 20.2901 35.7456C20.0923 35.9241 19.8595 36.0754 19.5918 36.1996C19.3279 36.3199 19.0234 36.38 18.6781 36.38C18.2862 36.38 17.9603 36.2927 17.7004 36.1181C17.4443 35.9435 17.2522 35.7224 17.1242 35.4547C17.0001 35.187 16.938 34.9154 16.938 34.6399ZM22.0128 35.5245C21.9817 35.6603 21.9158 35.8058 21.8149 35.961C21.7179 36.1162 21.617 36.2306 21.5123 36.3043C21.2174 36.2772 20.9749 36.1938 20.7848 36.0541C20.5947 35.9144 20.4511 35.7456 20.3541 35.5478C20.261 35.346 20.2009 35.1423 20.1737 34.9367V32.3819C20.1737 32.0792 20.102 31.8581 19.9584 31.7184C19.8149 31.5749 19.6034 31.5031 19.3241 31.5031C19.0525 31.5031 18.7654 31.5458 18.4627 31.6311C18.1601 31.7126 17.8556 31.8057 17.549 31.9105C17.4365 31.7863 17.3454 31.6234 17.2755 31.4216C17.2096 31.2199 17.1688 31.022 17.1533 30.828C17.3939 30.7271 17.6616 30.6379 17.9564 30.5603C18.2552 30.4827 18.5559 30.4226 18.8585 30.3799C19.165 30.3333 19.4463 30.31 19.7023 30.31C20.0632 30.31 20.3929 30.376 20.6917 30.5079C20.9904 30.6398 21.231 30.8513 21.4133 31.1423C21.5957 31.4294 21.6869 31.8076 21.6869 32.2771V34.6515C21.6869 34.8417 21.7101 35.0104 21.7567 35.1579C21.8033 35.3053 21.8886 35.4275 22.0128 35.5245ZM26.8753 30.4381C26.8753 30.6282 26.8443 30.861 26.7822 31.1364C26.7201 31.4119 26.6251 31.6563 26.497 31.8697C26.4078 31.8387 26.3186 31.8173 26.2293 31.8057C26.1401 31.7941 26.0508 31.7844 25.9616 31.7766C25.7754 31.7766 25.6105 31.8135 25.4669 31.8872C25.3234 31.9609 25.1973 32.0618 25.0887 32.1898C24.98 32.314 24.883 32.4595 24.7977 32.6263C24.7123 32.7931 24.6367 32.9696 24.5707 33.1559L24.3787 32.9114C24.3942 32.6127 24.433 32.314 24.495 32.0152C24.561 31.7126 24.6599 31.4371 24.7919 31.1888C24.9238 30.9366 25.1022 30.7349 25.3273 30.5836C25.5562 30.4323 25.8394 30.3566 26.1769 30.3566C26.3205 30.3566 26.4446 30.3644 26.5494 30.3799C26.6542 30.3915 26.7628 30.4109 26.8753 30.4381ZM22.9063 31.1423C22.9373 31.0065 23.0013 30.859 23.0983 30.7C23.1992 30.5409 23.302 30.4245 23.4068 30.3508C23.8723 30.409 24.2215 30.6049 24.4543 30.9386C24.6871 31.2722 24.8229 31.7009 24.8617 32.2247V36.217C24.7569 36.2364 24.6386 36.25 24.5067 36.2578C24.3748 36.2694 24.2409 36.2752 24.1051 36.2752C23.9732 36.2752 23.8394 36.2694 23.7036 36.2578C23.5717 36.25 23.4514 36.2364 23.3427 36.217V32.3469C23.3427 32.0172 23.2942 31.7533 23.1973 31.5555C23.1003 31.3576 23.0033 31.2199 22.9063 31.1423ZM28.1057 33.8135V32.7485H30.6024V32.603C30.6024 32.3819 30.5694 32.1782 30.5034 31.9919C30.4414 31.8057 30.3405 31.6563 30.2008 31.5438C30.065 31.4313 29.8807 31.375 29.6479 31.375C29.3104 31.375 29.064 31.5167 28.9088 31.7999C28.7575 32.0792 28.6819 32.4847 28.6819 33.0162V33.476C28.6819 33.7902 28.711 34.0773 28.7692 34.3373C28.8312 34.5972 28.9476 34.8048 29.1184 34.96C29.2929 35.1113 29.5451 35.187 29.8749 35.187C30.1543 35.187 30.4239 35.1501 30.6839 35.0764C30.9477 34.9988 31.1999 34.9037 31.4404 34.7912C31.5568 34.9076 31.6519 35.0531 31.7256 35.2277C31.8032 35.4023 31.8536 35.5672 31.8769 35.7224C31.5898 35.928 31.2464 36.089 30.8468 36.2054C30.4511 36.3218 30.0476 36.38 29.6363 36.38C29.1474 36.38 28.742 36.2966 28.42 36.1297C28.098 35.9629 27.8419 35.7379 27.6518 35.4547C27.4656 35.1676 27.3336 34.8436 27.256 34.4828C27.1784 34.1181 27.1397 33.7417 27.1397 33.3537C27.1397 32.7718 27.2289 32.248 27.4074 31.7824C27.5858 31.3168 27.8613 30.9502 28.2338 30.6825C28.6062 30.4109 29.0815 30.2751 29.6596 30.2751C30.1678 30.2751 30.5966 30.3857 30.9457 30.6068C31.2988 30.8241 31.5665 31.119 31.7489 31.4914C31.9351 31.8639 32.0282 32.2829 32.0282 32.7485C32.0282 32.9735 32.0185 33.1636 31.9991 33.3188C31.9797 33.4701 31.9487 33.635 31.906 33.8135H28.1057ZM38.1886 35.0938C38.2236 35.2025 38.2527 35.3208 38.2759 35.4488C38.2992 35.5769 38.3109 35.7049 38.3109 35.8329C38.3109 35.8873 38.3089 35.9455 38.305 36.0075C38.3012 36.0657 38.2915 36.12 38.2759 36.1705C38.1207 36.1938 37.9423 36.2151 37.7405 36.2345C37.5388 36.2578 37.3409 36.2694 37.1469 36.2694C36.693 36.2694 36.3612 36.155 36.1517 35.9261C35.9461 35.6933 35.8433 35.3363 35.8433 34.8552V27.7319L35.9248 27.6563H36.5126C36.8191 27.6563 37.0325 27.728 37.1527 27.8716C37.273 28.0113 37.3331 28.2518 37.3331 28.5932V34.5584C37.3331 34.9154 37.4942 35.0938 37.8162 35.0938H38.1886ZM44.1241 33.3246C44.1241 33.9338 44.0252 34.4692 43.8273 34.9309C43.6294 35.3887 43.3365 35.7456 42.9485 36.0017C42.5644 36.2539 42.0872 36.38 41.5169 36.38C40.9427 36.38 40.4616 36.252 40.0736 35.9959C39.6895 35.7359 39.4004 35.3771 39.2064 34.9192C39.0125 34.4614 38.9155 33.9299 38.9155 33.3246C38.9155 32.7194 39.0125 32.1879 39.2064 31.73C39.4043 31.2722 39.6953 30.9153 40.0794 30.6592C40.4674 30.4032 40.9465 30.2751 41.5169 30.2751C42.0911 30.2751 42.5702 30.4051 42.9543 30.665C43.3423 30.9211 43.6333 31.278 43.8273 31.7359C44.0252 32.1898 44.1241 32.7194 44.1241 33.3246ZM40.481 33.3246C40.481 33.6661 40.5081 33.9823 40.5624 34.2733C40.6168 34.5604 40.7196 34.7932 40.8709 34.9716C41.0222 35.1462 41.2375 35.2335 41.5169 35.2335C41.804 35.2335 42.0212 35.1462 42.1687 34.9716C42.32 34.7932 42.4228 34.5604 42.4771 34.2733C42.5314 33.9823 42.5586 33.6661 42.5586 33.3246C42.5586 32.9871 42.5314 32.6728 42.4771 32.3819C42.4228 32.0909 42.32 31.8581 42.1687 31.6835C42.0212 31.505 41.804 31.4158 41.5169 31.4158C41.2375 31.4158 41.0222 31.505 40.8709 31.6835C40.7196 31.8581 40.6168 32.0909 40.5624 32.3819C40.5081 32.6728 40.481 32.9871 40.481 33.3246ZM50.2814 31.1306C50.1728 31.2199 50.0913 31.3537 50.037 31.5322C49.9827 31.7068 49.9555 31.8949 49.9555 32.0967V35.3499C49.9555 35.8465 49.9323 36.2597 49.8857 36.5895C49.843 36.9232 49.779 37.1986 49.6937 37.4159C49.6083 37.6332 49.5035 37.8194 49.3794 37.9746C49.1738 38.2384 48.8925 38.4382 48.5355 38.574C48.1786 38.7137 47.7732 38.7835 47.3192 38.7835C46.9584 38.7835 46.5879 38.7467 46.2076 38.673C45.8313 38.5992 45.5015 38.5081 45.2183 38.3994C45.2183 38.2171 45.2532 38.0173 45.3231 37.8C45.3968 37.5827 45.4899 37.4101 45.6024 37.282C45.8468 37.3946 46.1087 37.4819 46.3881 37.5439C46.6713 37.606 46.9351 37.637 47.1795 37.637C47.5171 37.637 47.779 37.5769 47.9652 37.4566C48.1553 37.3364 48.2872 37.1695 48.3609 36.9561C48.4385 36.7466 48.4773 36.51 48.4773 36.2461V31.9919C48.4773 31.5613 48.5821 31.1908 48.7916 30.8804C49.0011 30.5661 49.3309 30.3896 49.7809 30.3508C49.8857 30.4206 49.9885 30.5351 50.0894 30.6941C50.1941 30.8493 50.2582 30.9948 50.2814 31.1306ZM44.9855 33.3363C44.9855 32.6612 45.0922 32.0967 45.3056 31.6428C45.5229 31.1888 45.8041 30.8474 46.1495 30.6185C46.4986 30.3896 46.8711 30.2751 47.2668 30.2751C47.6277 30.2751 47.9361 30.3333 48.1922 30.4497C48.4482 30.5622 48.6655 30.7019 48.844 30.8687C49.0224 31.0356 49.1679 31.2024 49.2805 31.3692L49.0477 32.6321C48.8343 32.2596 48.5879 31.9687 48.3086 31.7591C48.0331 31.5458 47.7712 31.4391 47.5229 31.4391C47.2086 31.4391 46.9662 31.602 46.7954 31.9279C46.6247 32.2538 46.5394 32.7272 46.5394 33.3479C46.5394 33.9609 46.6208 34.4052 46.7838 34.6806C46.9506 34.9522 47.1543 35.088 47.3949 35.088C47.6665 35.088 47.9283 34.9988 48.1805 34.8203C48.4327 34.638 48.6383 34.3897 48.7974 34.0754L49.0127 35.1753C48.8964 35.3732 48.7392 35.5594 48.5414 35.734C48.3435 35.9086 48.1165 36.0521 47.8604 36.1647C47.6044 36.2733 47.3328 36.3276 47.0457 36.3276C46.584 36.3276 46.1999 36.2015 45.8934 35.9493C45.5869 35.6971 45.358 35.346 45.2067 34.896C45.0592 34.4459 44.9855 33.926 44.9855 33.3363ZM56.4762 31.1306C56.3676 31.2199 56.2861 31.3537 56.2318 31.5322C56.1775 31.7068 56.1503 31.8949 56.1503 32.0967V35.3499C56.1503 35.8465 56.1271 36.2597 56.0805 36.5895C56.0378 36.9232 55.9738 37.1986 55.8885 37.4159C55.8031 37.6332 55.6983 37.8194 55.5742 37.9746C55.3686 38.2384 55.0873 38.4382 54.7303 38.574C54.3734 38.7137 53.968 38.7835 53.514 38.7835C53.1532 38.7835 52.7827 38.7467 52.4025 38.673C52.0261 38.5992 51.6963 38.5081 51.4131 38.3994C51.4131 38.2171 51.448 38.0173 51.5179 37.8C51.5916 37.5827 51.6847 37.4101 51.7972 37.282C52.0416 37.3946 52.3035 37.4819 52.5829 37.5439C52.8661 37.606 53.1299 37.637 53.3743 37.637C53.7119 37.637 53.9738 37.5769 54.16 37.4566C54.3501 37.3364 54.482 37.1695 54.5557 36.9561C54.6333 36.7466 54.6721 36.51 54.6721 36.2461V31.9919C54.6721 31.5613 54.7769 31.1908 54.9864 30.8804C55.1959 30.5661 55.5257 30.3896 55.9758 30.3508C56.0805 30.4206 56.1833 30.5351 56.2842 30.6941C56.3889 30.8493 56.453 30.9948 56.4762 31.1306ZM51.1803 33.3363C51.1803 32.6612 51.287 32.0967 51.5004 31.6428C51.7177 31.1888 51.999 30.8474 52.3443 30.6185C52.6934 30.3896 53.0659 30.2751 53.4616 30.2751C53.8225 30.2751 54.1309 30.3333 54.387 30.4497C54.643 30.5622 54.8603 30.7019 55.0388 30.8687C55.2172 31.0356 55.3627 31.2024 55.4753 31.3692L55.2425 32.6321C55.0291 32.2596 54.7827 31.9687 54.5034 31.7591C54.2279 31.5458 53.966 31.4391 53.7177 31.4391C53.4034 31.4391 53.161 31.602 52.9902 31.9279C52.8195 32.2538 52.7342 32.7272 52.7342 33.3479C52.7342 33.9609 52.8156 34.4052 52.9786 34.6806C53.1454 34.9522 53.3491 35.088 53.5897 35.088C53.8613 35.088 54.1231 34.9988 54.3753 34.8203C54.6275 34.638 54.8331 34.3897 54.9922 34.0754L55.2075 35.1753C55.0912 35.3732 54.934 35.5594 54.7362 35.734C54.5383 35.9086 54.3113 36.0521 54.0552 36.1647C53.7992 36.2733 53.5276 36.3276 53.2405 36.3276C52.7788 36.3276 52.3947 36.2015 52.0882 35.9493C51.7817 35.6971 51.5528 35.346 51.4015 34.896C51.254 34.4459 51.1803 33.926 51.1803 33.3363ZM58.3295 33.8135V32.7485H60.8262V32.603C60.8262 32.3819 60.7932 32.1782 60.7273 31.9919C60.6652 31.8057 60.5643 31.6563 60.4246 31.5438C60.2889 31.4313 60.1046 31.375 59.8718 31.375C59.5342 31.375 59.2879 31.5167 59.1327 31.7999C58.9814 32.0792 58.9057 32.4847 58.9057 33.0162V33.476C58.9057 33.7902 58.9348 34.0773 58.993 34.3373C59.0551 34.5972 59.1715 34.8048 59.3422 34.96C59.5168 35.1113 59.769 35.187 60.0987 35.187C60.3781 35.187 60.6477 35.1501 60.9077 35.0764C61.1715 34.9988 61.4237 34.9037 61.6642 34.7912C61.7806 34.9076 61.8757 35.0531 61.9494 35.2277C62.027 35.4023 62.0774 35.5672 62.1007 35.7224C61.8136 35.928 61.4703 36.089 61.0706 36.2054C60.6749 36.3218 60.2714 36.38 59.8601 36.38C59.3713 36.38 58.9658 36.2966 58.6438 36.1297C58.3218 35.9629 58.0657 35.7379 57.8756 35.4547C57.6894 35.1676 57.5575 34.8436 57.4799 34.4828C57.4023 34.1181 57.3635 33.7417 57.3635 33.3537C57.3635 32.7718 57.4527 32.248 57.6312 31.7824C57.8097 31.3168 58.0851 30.9502 58.4576 30.6825C58.83 30.4109 59.3053 30.2751 59.8834 30.2751C60.3917 30.2751 60.8204 30.3857 61.1696 30.6068C61.5226 30.8241 61.7903 31.119 61.9727 31.4914C62.1589 31.8639 62.252 32.2829 62.252 32.7485C62.252 32.9735 62.2423 33.1636 62.2229 33.3188C62.2035 33.4701 62.1725 33.635 62.1298 33.8135H58.3295ZM68.1305 34.5584C68.1305 34.7641 68.1576 34.9542 68.212 35.1288C68.2663 35.2995 68.3478 35.4314 68.4564 35.5245C68.4253 35.6603 68.3594 35.8058 68.2585 35.961C68.1615 36.1162 68.0606 36.2306 67.9559 36.3043C67.5058 36.2655 67.1741 36.089 66.9607 35.7747C66.7512 35.4605 66.6465 35.088 66.6465 34.6574V27.7319L66.7221 27.6563H67.3099C67.6164 27.6563 67.8298 27.728 67.9501 27.8716C68.0703 28.0113 68.1305 28.2518 68.1305 28.5932V34.5584ZM63.1721 33.3945C63.1721 32.7155 63.2788 32.1491 63.4922 31.6951C63.7056 31.2412 63.9849 30.9017 64.3302 30.6767C64.6794 30.4478 65.0538 30.3333 65.4534 30.3333C65.8414 30.3333 66.1906 30.4129 66.501 30.5719C66.8152 30.7271 67.1043 30.8939 67.3681 31.0724L67.1528 32.2014C66.9277 32.023 66.6872 31.86 66.4311 31.7126C66.1789 31.5652 65.9345 31.4914 65.6978 31.4914C65.4961 31.4914 65.3234 31.5652 65.1799 31.7126C65.0363 31.8561 64.9238 32.0715 64.8423 32.3586C64.7648 32.6418 64.726 32.991 64.726 33.4061C64.726 33.8135 64.7648 34.1452 64.8423 34.4013C64.9199 34.6574 65.0247 34.8455 65.1566 34.9658C65.2924 35.0822 65.4379 35.1404 65.5931 35.1404C65.7522 35.1404 65.9248 35.0958 66.111 35.0065C66.3012 34.9173 66.4816 34.7641 66.6523 34.5468C66.823 34.3295 66.9568 34.0327 67.0538 33.6564L67.3856 34.6166C67.3312 34.9076 67.2032 35.1889 67.0015 35.4605C66.7997 35.7282 66.5456 35.9493 66.2391 36.1239C65.9326 36.2946 65.5911 36.38 65.2148 36.38C64.7609 36.38 64.3807 36.2539 64.0741 36.0017C63.7715 35.7495 63.5446 35.3984 63.3932 34.9483C63.2458 34.4983 63.1721 33.9803 63.1721 33.3945ZM71.9297 34.6399C71.9297 34.1821 72.0325 33.8077 72.2381 33.5167C72.4476 33.2257 72.7231 33.0104 73.0645 32.8707C73.4098 32.731 73.7881 32.6612 74.1993 32.6612C74.3933 32.6612 74.6242 32.669 74.8919 32.6845C75.1635 32.6961 75.4118 32.7272 75.6368 32.7776V33.7611C75.4506 33.7184 75.2333 33.6932 74.985 33.6855C74.7406 33.6738 74.5233 33.668 74.3332 33.668C74.0267 33.668 73.7978 33.7475 73.6465 33.9066C73.4952 34.0618 73.4195 34.2713 73.4195 34.5351C73.4195 34.733 73.4777 34.8979 73.5941 35.0298C73.7105 35.1617 73.8715 35.2277 74.0771 35.2277C74.3332 35.2277 74.599 35.1365 74.8744 34.9542C75.1538 34.7718 75.3885 34.5138 75.5786 34.1801L75.7998 35.2161C75.6523 35.3868 75.4797 35.5633 75.2818 35.7456C75.0839 35.9241 74.8512 36.0754 74.5834 36.1996C74.3196 36.3199 74.0151 36.38 73.6698 36.38C73.2779 36.38 72.952 36.2927 72.692 36.1181C72.436 35.9435 72.2439 35.7224 72.1159 35.4547C71.9917 35.187 71.9297 34.9154 71.9297 34.6399ZM77.0044 35.5245C76.9734 35.6603 76.9074 35.8058 76.8066 35.961C76.7096 36.1162 76.6087 36.2306 76.504 36.3043C76.2091 36.2772 75.9666 36.1938 75.7765 36.0541C75.5864 35.9144 75.4428 35.7456 75.3458 35.5478C75.2527 35.346 75.1926 35.1423 75.1654 34.9367V32.3819C75.1654 32.0792 75.0936 31.8581 74.9501 31.7184C74.8065 31.5749 74.5951 31.5031 74.3157 31.5031C74.0442 31.5031 73.757 31.5458 73.4544 31.6311C73.1518 31.7126 72.8472 31.8057 72.5407 31.9105C72.4282 31.7863 72.337 31.6234 72.2672 31.4216C72.2012 31.2199 72.1605 31.022 72.145 30.828C72.3855 30.7271 72.6532 30.6379 72.9481 30.5603C73.2469 30.4827 73.5475 30.4226 73.8502 30.3799C74.1567 30.3333 74.438 30.31 74.694 30.31C75.0548 30.31 75.3846 30.376 75.6834 30.5079C75.9821 30.6398 76.2227 30.8513 76.405 31.1423C76.5874 31.4294 76.6785 31.8076 76.6785 32.2771V34.6515C76.6785 34.8417 76.7018 35.0104 76.7484 35.1579C76.7949 35.3053 76.8803 35.4275 77.0044 35.5245ZM78.8873 30.3741C79.186 30.3741 79.4053 30.473 79.5449 30.6709C79.6846 30.8649 79.7544 31.1306 79.7544 31.4682V36.217C79.6497 36.2364 79.5294 36.25 79.3936 36.2578C79.2617 36.2694 79.1298 36.2752 78.9979 36.2752C78.8698 36.2752 78.7379 36.2694 78.6021 36.2578C78.4663 36.25 78.3441 36.2364 78.2355 36.217V30.4497L78.3112 30.3741H78.8873ZM83.0368 34.8727C83.0368 35.0861 83.0542 35.2878 83.0891 35.4779C83.1279 35.668 83.1919 35.8349 83.2812 35.9784C83.1725 36.0677 83.0329 36.1453 82.8622 36.2112C82.6953 36.2733 82.5188 36.3043 82.3326 36.3043C82.0299 36.3043 81.8185 36.2229 81.6982 36.0599C81.5779 35.897 81.5178 35.6603 81.5178 35.3499V32.6437C81.5178 32.3178 81.4751 32.0792 81.3898 31.9279C81.3083 31.7766 81.1492 31.7009 80.9126 31.7009C80.7535 31.7009 80.5789 31.7397 80.3888 31.8173C80.1987 31.8949 80.0144 32.0133 79.8359 32.1723C79.6574 32.3314 79.5061 32.5312 79.382 32.7718V31.3867C79.6497 31.1073 79.9562 30.8629 80.3015 30.6534C80.6507 30.44 81.0328 30.3333 81.448 30.3333C81.8088 30.3333 82.1056 30.4206 82.3384 30.5952C82.5751 30.7659 82.7496 31.0026 82.8622 31.3052C82.9786 31.604 83.0368 31.9454 83.0368 32.3295V34.8727ZM89.3613 34.5701C89.3613 34.7757 89.3885 34.9658 89.4428 35.1404C89.4971 35.315 89.5786 35.4469 89.6872 35.5361C89.6562 35.6758 89.5902 35.8213 89.4894 35.9726C89.3924 36.12 89.2915 36.2306 89.1867 36.3043C88.7367 36.2655 88.3991 36.0871 88.1741 35.7689C87.9529 35.4508 87.8424 35.0764 87.8424 34.6457V30.4381C87.9471 30.4187 88.0655 30.4051 88.1974 30.3973C88.3332 30.3857 88.469 30.3799 88.6048 30.3799C88.7328 30.3799 88.8628 30.3857 88.9947 30.3973C89.1305 30.4051 89.2527 30.4187 89.3613 30.4381V34.5701ZM84.5659 31.7824C84.5659 31.569 84.5465 31.3673 84.5077 31.1772C84.4728 30.9871 84.4107 30.8222 84.3215 30.6825C84.434 30.5855 84.5736 30.5079 84.7405 30.4497C84.9073 30.3876 85.0838 30.3566 85.2701 30.3566C85.5727 30.3566 85.7841 30.4381 85.9044 30.601C86.0247 30.7601 86.0848 30.9948 86.0848 31.3052V34.0172C86.0848 34.3392 86.1275 34.5759 86.2129 34.7272C86.2982 34.8785 86.4573 34.9542 86.6901 34.9542C86.8491 34.9542 87.0237 34.9154 87.2138 34.8378C87.404 34.7563 87.5882 34.636 87.7667 34.4769C87.9452 34.3179 88.0946 34.1219 88.2148 33.8892V35.2626C87.951 35.5458 87.6445 35.7941 87.2953 36.0075C86.95 36.217 86.5679 36.3218 86.1488 36.3218C85.7919 36.3218 85.4951 36.2364 85.2584 36.0657C85.0256 35.8911 84.851 35.6525 84.7347 35.3499C84.6221 35.0473 84.5659 34.7059 84.5659 34.3256V31.7824ZM90.605 34.6399C90.605 34.1821 90.7078 33.8077 90.9135 33.5167C91.123 33.2257 91.3984 33.0104 91.7398 32.8707C92.0852 32.731 92.4634 32.6612 92.8747 32.6612C93.0687 32.6612 93.2995 32.669 93.5672 32.6845C93.8388 32.6961 94.0871 32.7272 94.3122 32.7776V33.7611C94.1259 33.7184 93.9087 33.6932 93.6604 33.6855C93.4159 33.6738 93.1987 33.668 93.0085 33.668C92.702 33.668 92.4731 33.7475 92.3218 33.9066C92.1705 34.0618 92.0949 34.2713 92.0949 34.5351C92.0949 34.733 92.153 34.8979 92.2694 35.0298C92.3858 35.1617 92.5468 35.2277 92.7525 35.2277C93.0085 35.2277 93.2743 35.1365 93.5498 34.9542C93.8291 34.7718 94.0639 34.5138 94.254 34.1801L94.4751 35.2161C94.3277 35.3868 94.155 35.5633 93.9572 35.7456C93.7593 35.9241 93.5265 36.0754 93.2588 36.1996C92.995 36.3199 92.6904 36.38 92.3451 36.38C91.9532 36.38 91.6273 36.2927 91.3674 36.1181C91.1113 35.9435 90.9193 35.7224 90.7912 35.4547C90.6671 35.187 90.605 34.9154 90.605 34.6399ZM95.6798 35.5245C95.6488 35.6603 95.5828 35.8058 95.4819 35.961C95.3849 36.1162 95.2841 36.2306 95.1793 36.3043C94.8844 36.2772 94.6419 36.1938 94.4518 36.0541C94.2617 35.9144 94.1182 35.7456 94.0212 35.5478C93.9281 35.346 93.8679 35.1423 93.8408 34.9367V32.3819C93.8408 32.0792 93.769 31.8581 93.6254 31.7184C93.4819 31.5749 93.2704 31.5031 92.9911 31.5031C92.7195 31.5031 92.4324 31.5458 92.1298 31.6311C91.8271 31.7126 91.5226 31.8057 91.2161 31.9105C91.1036 31.7863 91.0124 31.6234 90.9425 31.4216C90.8766 31.2199 90.8359 31.022 90.8203 30.828C91.0609 30.7271 91.3286 30.6379 91.6235 30.5603C91.9222 30.4827 92.2229 30.4226 92.5255 30.3799C92.832 30.3333 93.1133 30.31 93.3694 30.31C93.7302 30.31 94.06 30.376 94.3587 30.5079C94.6575 30.6398 94.898 30.8513 95.0804 31.1423C95.2627 31.4294 95.3539 31.8076 95.3539 32.2771V34.6515C95.3539 34.8417 95.3772 35.0104 95.4237 35.1579C95.4703 35.3053 95.5556 35.4275 95.6798 35.5245ZM99.2387 35.0938C99.2736 35.2025 99.3027 35.3208 99.326 35.4488C99.3493 35.5769 99.3609 35.7049 99.3609 35.8329C99.3609 35.8873 99.359 35.9455 99.3551 36.0075C99.3512 36.0657 99.3415 36.12 99.326 36.1705C99.1708 36.1938 98.9924 36.2151 98.7906 36.2345C98.5889 36.2578 98.391 36.2694 98.197 36.2694C97.7431 36.2694 97.4113 36.155 97.2018 35.9261C96.9962 35.6933 96.8934 35.3363 96.8934 34.8552V27.7319L96.9749 27.6563H97.5626C97.8692 27.6563 98.0825 27.728 98.2028 27.8716C98.3231 28.0113 98.3832 28.2518 98.3832 28.5932V34.5584C98.3832 34.9154 98.5442 35.0938 98.8663 35.0938H99.2387ZM102.66 35.0938C102.695 35.2025 102.724 35.3208 102.747 35.4488C102.771 35.5769 102.782 35.7049 102.782 35.8329C102.782 35.8873 102.78 35.9455 102.776 36.0075C102.773 36.0657 102.763 36.12 102.747 36.1705C102.592 36.1938 102.414 36.2151 102.212 36.2345C102.01 36.2578 101.812 36.2694 101.618 36.2694C101.164 36.2694 100.833 36.155 100.623 35.9261C100.418 35.6933 100.315 35.3363 100.315 34.8552V27.7319L100.396 27.6563H100.984C101.291 27.6563 101.504 27.728 101.624 27.8716C101.744 28.0113 101.805 28.2518 101.805 28.5932V34.5584C101.805 34.9154 101.966 35.0938 102.288 35.0938H102.66ZM106.972 36.0483C106.817 36.607 106.635 37.0881 106.425 37.4916C106.22 37.8989 105.944 38.2113 105.599 38.4285C105.258 38.6497 104.806 38.7603 104.243 38.7603C104.033 38.7603 103.805 38.737 103.556 38.6904C103.308 38.6439 103.114 38.5973 102.974 38.5507C102.959 38.3762 102.982 38.1802 103.044 37.963C103.106 37.7457 103.188 37.5789 103.289 37.4625C103.397 37.4974 103.541 37.5323 103.719 37.5672C103.898 37.606 104.074 37.6254 104.249 37.6254C104.478 37.6254 104.672 37.5769 104.831 37.4799C104.99 37.3829 105.124 37.2452 105.232 37.0667C105.345 36.8921 105.438 36.6846 105.512 36.444L105.552 36.2869C105.273 36.283 105.044 36.2326 104.866 36.1356C104.691 36.0347 104.567 35.8582 104.493 35.606L103.05 30.5545C103.213 30.4807 103.378 30.4284 103.545 30.3973C103.711 30.3624 103.859 30.345 103.987 30.345C104.169 30.345 104.322 30.3915 104.447 30.4846C104.571 30.5739 104.666 30.7465 104.732 31.0026L105.395 33.4585C105.442 33.6098 105.484 33.7863 105.523 33.9881C105.566 34.186 105.607 34.3819 105.645 34.5759C105.684 34.766 105.715 34.9309 105.739 35.0706C105.75 35.1249 105.785 35.152 105.843 35.152L106.984 30.4381C107.069 30.4187 107.168 30.4051 107.281 30.3973C107.397 30.3857 107.504 30.3799 107.601 30.3799C107.733 30.3799 107.867 30.3876 108.002 30.4032C108.138 30.4148 108.272 30.442 108.404 30.4846L108.456 30.5836L106.972 36.0483ZM108.63 28.7387C108.948 28.5525 109.303 28.3992 109.695 28.279C110.091 28.1587 110.506 28.0985 110.94 28.0985C111.67 28.0985 112.232 28.2906 112.628 28.6747C113.028 29.0549 113.227 29.5496 113.227 30.1587C113.227 30.7174 113.082 31.1791 112.791 31.5438C112.5 31.9085 112.139 32.2073 111.708 32.4401L110.993 32.8242L110.888 33.8601C110.803 33.8872 110.711 33.9066 110.614 33.9183C110.521 33.9299 110.426 33.9357 110.329 33.9357C110.236 33.9357 110.137 33.9299 110.032 33.9183C109.928 33.9066 109.829 33.8872 109.736 33.8601L109.654 32.1258L109.776 31.9687L110.382 31.6835C110.746 31.505 111.045 31.3071 111.278 31.0899C111.511 30.8726 111.627 30.6165 111.627 30.3217C111.627 30.0501 111.538 29.8328 111.359 29.6699C111.185 29.5069 110.932 29.4254 110.603 29.4254C110.351 29.4254 110.104 29.4662 109.864 29.5477C109.627 29.6253 109.4 29.7222 109.183 29.8386C109.043 29.73 108.919 29.569 108.81 29.3556C108.702 29.1422 108.641 28.9366 108.63 28.7387ZM110.329 34.7854C110.469 34.7854 110.607 34.8009 110.742 34.832C110.882 34.863 110.998 34.9057 111.092 34.96C111.126 35.0221 111.154 35.1171 111.173 35.2451C111.196 35.3693 111.208 35.4799 111.208 35.5769C111.208 35.67 111.196 35.7806 111.173 35.9086C111.154 36.0328 111.126 36.1259 111.092 36.1879C110.998 36.2461 110.882 36.2888 110.742 36.316C110.607 36.347 110.469 36.3625 110.329 36.3625C110.019 36.3625 109.763 36.3043 109.561 36.1879C109.526 36.1259 109.497 36.0328 109.474 35.9086C109.454 35.7806 109.445 35.67 109.445 35.5769C109.445 35.4799 109.454 35.3693 109.474 35.2451C109.497 35.1171 109.526 35.0221 109.561 34.96C109.763 34.8436 110.019 34.7854 110.329 34.7854Z" fill="#7D4D2B"/>
<g filter="url(#filter0_ddddii_537_4698)">
<rect x="10.744" y="50.4089" width="49.7792" height="27.7555" rx="5.37204" fill="#EB6A00"/>
<path d="M19.0034 63.7612V62.4799H21.2355V68.3623H19.8012V63.7612H19.0034ZM22.2104 67.3148V66.2027L24.7567 62.5605H26.2958V66.1222H26.9566V67.3148H26.2958V68.3623H24.9179V67.3148H22.2104ZM25.0146 64.0754L23.6608 66.1222H25.0146V64.0754ZM27.6315 65.3405C27.6315 64.4165 27.8088 63.6886 28.1633 63.1568C28.5232 62.625 29.1007 62.3591 29.8958 62.3591C30.6909 62.3591 31.2657 62.625 31.6202 63.1568C31.9801 63.6886 32.1601 64.4165 32.1601 65.3405C32.1601 66.2753 31.9801 67.0086 31.6202 67.5404C31.2657 68.0722 30.6909 68.3381 29.8958 68.3381C29.1007 68.3381 28.5232 68.0722 28.1633 67.5404C27.8088 67.0086 27.6315 66.2753 27.6315 65.3405ZM30.8064 65.3405C30.8064 64.798 30.7473 64.3816 30.6291 64.0915C30.5109 63.7961 30.2665 63.6483 29.8958 63.6483C29.5251 63.6483 29.2807 63.7961 29.1625 64.0915C29.0443 64.3816 28.9852 64.798 28.9852 65.3405C28.9852 65.7058 29.0067 66.0094 29.0497 66.2511C29.0927 66.4875 29.1786 66.6809 29.3076 66.8313C29.4419 66.9763 29.6379 67.0488 29.8958 67.0488C30.1537 67.0488 30.347 66.9763 30.476 66.8313C30.6103 66.6809 30.6989 66.4875 30.7419 66.2511C30.7849 66.0094 30.8064 65.7058 30.8064 65.3405ZM34.5078 67.0891L33.6133 69.4018H32.735L33.2024 67.0891H34.5078ZM35.2016 65.3405C35.2016 64.4165 35.3789 63.6886 35.7335 63.1568C36.0934 62.625 36.6709 62.3591 37.466 62.3591C38.261 62.3591 38.8358 62.625 39.1904 63.1568C39.5503 63.6886 39.7303 64.4165 39.7303 65.3405C39.7303 66.2753 39.5503 67.0086 39.1904 67.5404C38.8358 68.0722 38.261 68.3381 37.466 68.3381C36.6709 68.3381 36.0934 68.0722 35.7335 67.5404C35.3789 67.0086 35.2016 66.2753 35.2016 65.3405ZM38.3765 65.3405C38.3765 64.798 38.3174 64.3816 38.1992 64.0915C38.0811 63.7961 37.8366 63.6483 37.466 63.6483C37.0953 63.6483 36.8509 63.7961 36.7327 64.0915C36.6145 64.3816 36.5554 64.798 36.5554 65.3405C36.5554 65.7058 36.5769 66.0094 36.6199 66.2511C36.6628 66.4875 36.7488 66.6809 36.8777 66.8313C37.012 66.9763 37.2081 67.0488 37.466 67.0488C37.7238 67.0488 37.9172 66.9763 38.0461 66.8313C38.1804 66.6809 38.2691 66.4875 38.3121 66.2511C38.355 66.0094 38.3765 65.7058 38.3765 65.3405ZM40.4583 65.3405C40.4583 64.4165 40.6355 63.6886 40.9901 63.1568C41.35 62.625 41.9275 62.3591 42.7226 62.3591C43.5176 62.3591 44.0925 62.625 44.447 63.1568C44.8069 63.6886 44.9869 64.4165 44.9869 65.3405C44.9869 66.2753 44.8069 67.0086 44.447 67.5404C44.0925 68.0722 43.5176 68.3381 42.7226 68.3381C41.9275 68.3381 41.35 68.0722 40.9901 67.5404C40.6355 67.0086 40.4583 66.2753 40.4583 65.3405ZM43.6331 65.3405C43.6331 64.798 43.574 64.3816 43.4559 64.0915C43.3377 63.7961 43.0933 63.6483 42.7226 63.6483C42.3519 63.6483 42.1075 63.7961 41.9893 64.0915C41.8711 64.3816 41.812 64.798 41.812 65.3405C41.812 65.7058 41.8335 66.0094 41.8765 66.2511C41.9195 66.4875 42.0054 66.6809 42.1343 66.8313C42.2686 66.9763 42.4647 67.0488 42.7226 67.0488C42.9804 67.0488 43.1738 66.9763 43.3028 66.8313C43.4371 66.6809 43.5257 66.4875 43.5687 66.2511C43.6117 66.0094 43.6331 65.7058 43.6331 65.3405ZM45.7149 65.3405C45.7149 64.4165 45.8922 63.6886 46.2467 63.1568C46.6066 62.625 47.1841 62.3591 47.9792 62.3591C48.7743 62.3591 49.3491 62.625 49.7036 63.1568C50.0636 63.6886 50.2435 64.4165 50.2435 65.3405C50.2435 66.2753 50.0636 67.0086 49.7036 67.5404C49.3491 68.0722 48.7743 68.3381 47.9792 68.3381C47.1841 68.3381 46.6066 68.0722 46.2467 67.5404C45.8922 67.0086 45.7149 66.2753 45.7149 65.3405ZM48.8898 65.3405C48.8898 64.798 48.8307 64.3816 48.7125 64.0915C48.5943 63.7961 48.3499 63.6483 47.9792 63.6483C47.6085 63.6483 47.3641 63.7961 47.2459 64.0915C47.1277 64.3816 47.0686 64.798 47.0686 65.3405C47.0686 65.7058 47.0901 66.0094 47.1331 66.2511C47.1761 66.4875 47.262 66.6809 47.391 66.8313C47.5253 66.9763 47.7213 67.0488 47.9792 67.0488C48.2371 67.0488 48.4305 66.9763 48.5594 66.8313C48.6937 66.6809 48.7823 66.4875 48.8253 66.2511C48.8683 66.0094 48.8898 65.7058 48.8898 65.3405Z" fill="#FFFAF1"/>
</g>
<g filter="url(#filter1_ddddii_537_4698)">
<rect x="69.4766" y="50.4089" width="49.7792" height="27.7555" rx="5.37204" fill="#EB6A00"/>
<path d="M82.4927 66.6379C82.5733 67.0623 82.8204 67.2745 83.2341 67.2745C83.5188 67.2745 83.7203 67.1482 83.8384 66.8957C83.9566 66.6433 84.0157 66.2323 84.0157 65.6629C83.8975 65.8294 83.7364 65.9583 83.5322 66.0496C83.3281 66.141 83.0998 66.1866 82.8473 66.1866C82.5035 66.1866 82.1973 66.1168 81.9287 65.9771C81.6601 65.8321 81.4479 65.6199 81.2921 65.3405C81.1417 65.0558 81.0665 64.712 81.0665 64.3091C81.0665 63.9116 81.1471 63.5651 81.3082 63.2696C81.4747 62.9742 81.7084 62.7458 82.0093 62.5847C82.3155 62.4235 82.6754 62.3429 83.089 62.3429C83.8841 62.3429 84.4401 62.5901 84.7571 63.0843C85.074 63.5785 85.2325 64.3064 85.2325 65.268C85.2325 65.9664 85.168 66.5439 85.0391 67.0005C84.9155 67.4517 84.7033 67.7956 84.4025 68.0319C84.107 68.2683 83.7015 68.3865 83.1857 68.3865C82.7775 68.3865 82.4283 68.3059 82.1382 68.1447C81.8535 67.9836 81.6332 67.7714 81.4774 67.5082C81.327 67.2449 81.2411 66.9548 81.2196 66.6379H82.4927ZM83.1616 65.0988C83.3872 65.0988 83.5672 65.0316 83.7015 64.8973C83.8358 64.7577 83.9029 64.5696 83.9029 64.3333C83.9029 64.0754 83.8331 63.8767 83.6934 63.737C83.5537 63.5973 83.3657 63.5275 83.1293 63.5275C82.893 63.5275 82.7049 63.6 82.5653 63.745C82.431 63.8847 82.3638 64.0781 82.3638 64.3252C82.3638 64.5562 82.431 64.7442 82.5653 64.8893C82.7049 65.029 82.9037 65.0988 83.1616 65.0988ZM85.9677 65.3405C85.9677 64.4165 86.1449 63.6886 86.4995 63.1568C86.8594 62.625 87.4369 62.3591 88.232 62.3591C89.027 62.3591 89.6018 62.625 89.9564 63.1568C90.3163 63.6886 90.4963 64.4165 90.4963 65.3405C90.4963 66.2753 90.3163 67.0086 89.9564 67.5404C89.6018 68.0722 89.027 68.3381 88.232 68.3381C87.4369 68.3381 86.8594 68.0722 86.4995 67.5404C86.1449 67.0086 85.9677 66.2753 85.9677 65.3405ZM89.1425 65.3405C89.1425 64.798 89.0834 64.3816 88.9653 64.0915C88.8471 63.7961 88.6026 63.6483 88.232 63.6483C87.8613 63.6483 87.6169 63.7961 87.4987 64.0915C87.3805 64.3816 87.3214 64.798 87.3214 65.3405C87.3214 65.7058 87.3429 66.0094 87.3859 66.2511C87.4289 66.4875 87.5148 66.6809 87.6437 66.8313C87.778 66.9763 87.9741 67.0488 88.232 67.0488C88.4898 67.0488 88.6832 66.9763 88.8122 66.8313C88.9465 66.6809 89.0351 66.4875 89.0781 66.2511C89.121 66.0094 89.1425 65.7058 89.1425 65.3405ZM92.8439 67.0891L91.9495 69.4018H91.0712L91.5385 67.0891H92.8439ZM93.5378 65.3405C93.5378 64.4165 93.7151 63.6886 94.0697 63.1568C94.4296 62.625 95.0071 62.3591 95.8021 62.3591C96.5972 62.3591 97.172 62.625 97.5266 63.1568C97.8865 63.6886 98.0665 64.4165 98.0665 65.3405C98.0665 66.2753 97.8865 67.0086 97.5266 67.5404C97.172 68.0722 96.5972 68.3381 95.8021 68.3381C95.0071 68.3381 94.4296 68.0722 94.0697 67.5404C93.7151 67.0086 93.5378 66.2753 93.5378 65.3405ZM96.7127 65.3405C96.7127 64.798 96.6536 64.3816 96.5354 64.0915C96.4172 63.7961 96.1728 63.6483 95.8021 63.6483C95.4315 63.6483 95.187 63.7961 95.0689 64.0915C94.9507 64.3816 94.8916 64.798 94.8916 65.3405C94.8916 65.7058 94.9131 66.0094 94.956 66.2511C94.999 66.4875 95.085 66.6809 95.2139 66.8313C95.3482 66.9763 95.5443 67.0488 95.8021 67.0488C96.06 67.0488 96.2534 66.9763 96.3823 66.8313C96.5166 66.6809 96.6053 66.4875 96.6482 66.2511C96.6912 66.0094 96.7127 65.7058 96.7127 65.3405ZM98.7944 65.3405C98.7944 64.4165 98.9717 63.6886 99.3263 63.1568C99.6862 62.625 100.264 62.3591 101.059 62.3591C101.854 62.3591 102.429 62.625 102.783 63.1568C103.143 63.6886 103.323 64.4165 103.323 65.3405C103.323 66.2753 103.143 67.0086 102.783 67.5404C102.429 68.0722 101.854 68.3381 101.059 68.3381C100.264 68.3381 99.6862 68.0722 99.3263 67.5404C98.9717 67.0086 98.7944 66.2753 98.7944 65.3405ZM101.969 65.3405C101.969 64.798 101.91 64.3816 101.792 64.0915C101.674 63.7961 101.429 63.6483 101.059 63.6483C100.688 63.6483 100.444 63.7961 100.325 64.0915C100.207 64.3816 100.148 64.798 100.148 65.3405C100.148 65.7058 100.17 66.0094 100.213 66.2511C100.256 66.4875 100.342 66.6809 100.471 66.8313C100.605 66.9763 100.801 67.0488 101.059 67.0488C101.317 67.0488 101.51 66.9763 101.639 66.8313C101.773 66.6809 101.862 66.4875 101.905 66.2511C101.948 66.0094 101.969 65.7058 101.969 65.3405ZM104.051 65.3405C104.051 64.4165 104.228 63.6886 104.583 63.1568C104.943 62.625 105.52 62.3591 106.315 62.3591C107.11 62.3591 107.685 62.625 108.04 63.1568C108.4 63.6886 108.58 64.4165 108.58 65.3405C108.58 66.2753 108.4 67.0086 108.04 67.5404C107.685 68.0722 107.11 68.3381 106.315 68.3381C105.52 68.3381 104.943 68.0722 104.583 67.5404C104.228 67.0086 104.051 66.2753 104.051 65.3405ZM107.226 65.3405C107.226 64.798 107.167 64.3816 107.049 64.0915C106.93 63.7961 106.686 63.6483 106.315 63.6483C105.945 63.6483 105.7 63.7961 105.582 64.0915C105.464 64.3816 105.405 64.798 105.405 65.3405C105.405 65.7058 105.426 66.0094 105.469 66.2511C105.512 66.4875 105.598 66.6809 105.727 66.8313C105.861 66.9763 106.058 67.0488 106.315 67.0488C106.573 67.0488 106.767 66.9763 106.896 66.8313C107.03 66.6809 107.119 66.4875 107.161 66.2511C107.204 66.0094 107.226 65.7058 107.226 65.3405Z" fill="#FFFAF1"/>
</g>
<g filter="url(#filter2_ddddii_537_4698)">
<rect x="10.744" y="87.1179" width="49.7792" height="27.7555" rx="5.37204" fill="#EB6A00"/>
<path d="M20.7947 100.47V99.1889H23.0268V105.071H21.5925V100.47H20.7947ZM23.921 103.967C24.1037 103.822 24.187 103.755 24.1708 103.766C24.6973 103.331 25.111 102.974 25.4118 102.694C25.718 102.415 25.9759 102.122 26.1854 101.816C26.3949 101.51 26.4996 101.211 26.4996 100.921C26.4996 100.701 26.4486 100.529 26.3465 100.406C26.2445 100.282 26.0914 100.22 25.8872 100.22C25.6831 100.22 25.5219 100.298 25.4037 100.454C25.2909 100.604 25.2345 100.819 25.2345 101.099H23.9049C23.9157 100.642 24.0124 100.261 24.195 99.9544C24.383 99.6482 24.6275 99.4226 24.9283 99.2775C25.2345 99.1325 25.573 99.06 25.9436 99.06C26.5829 99.06 27.0637 99.2238 27.386 99.5515C27.7137 99.8792 27.8776 100.306 27.8776 100.833C27.8776 101.408 27.6815 101.942 27.2893 102.436C26.8972 102.925 26.3976 103.403 25.7905 103.871H27.9662V104.991H23.921V103.967ZM28.5729 102.05C28.5729 101.126 28.7502 100.398 29.1047 99.8658C29.4646 99.334 30.0421 99.068 30.8372 99.068C31.6323 99.068 32.2071 99.334 32.5616 99.8658C32.9215 100.398 33.1015 101.126 33.1015 102.05C33.1015 102.984 32.9215 103.718 32.5616 104.249C32.2071 104.781 31.6323 105.047 30.8372 105.047C30.0421 105.047 29.4646 104.781 29.1047 104.249C28.7502 103.718 28.5729 102.984 28.5729 102.05ZM31.7478 102.05C31.7478 101.507 31.6887 101.091 31.5705 100.801C31.4523 100.505 31.2079 100.357 30.8372 100.357C30.4665 100.357 30.2221 100.505 30.1039 100.801C29.9857 101.091 29.9266 101.507 29.9266 102.05C29.9266 102.415 29.9481 102.718 29.9911 102.96C30.0341 103.196 30.12 103.39 30.249 103.54C30.3833 103.685 30.5793 103.758 30.8372 103.758C31.095 103.758 31.2884 103.685 31.4174 103.54C31.5517 103.39 31.6403 103.196 31.6833 102.96C31.7263 102.718 31.7478 102.415 31.7478 102.05ZM35.4492 103.798L34.5547 106.111H33.6764L34.1438 103.798H35.4492ZM36.143 102.05C36.143 101.126 36.3203 100.398 36.6749 99.8658C37.0348 99.334 37.6123 99.068 38.4074 99.068C39.2024 99.068 39.7772 99.334 40.1318 99.8658C40.4917 100.398 40.6717 101.126 40.6717 102.05C40.6717 102.984 40.4917 103.718 40.1318 104.249C39.7772 104.781 39.2024 105.047 38.4074 105.047C37.6123 105.047 37.0348 104.781 36.6749 104.249C36.3203 103.718 36.143 102.984 36.143 102.05ZM39.3179 102.05C39.3179 101.507 39.2588 101.091 39.1406 100.801C39.0225 100.505 38.778 100.357 38.4074 100.357C38.0367 100.357 37.7923 100.505 37.6741 100.801C37.5559 101.091 37.4968 101.507 37.4968 102.05C37.4968 102.415 37.5183 102.718 37.5613 102.96C37.6042 103.196 37.6902 103.39 37.8191 103.54C37.9534 103.685 38.1495 103.758 38.4074 103.758C38.6652 103.758 38.8586 103.685 38.9875 103.54C39.1218 103.39 39.2105 103.196 39.2535 102.96C39.2964 102.718 39.3179 102.415 39.3179 102.05ZM41.3997 102.05C41.3997 101.126 41.5769 100.398 41.9315 99.8658C42.2914 99.334 42.8689 99.068 43.664 99.068C44.459 99.068 45.0338 99.334 45.3884 99.8658C45.7483 100.398 45.9283 101.126 45.9283 102.05C45.9283 102.984 45.7483 103.718 45.3884 104.249C45.0338 104.781 44.459 105.047 43.664 105.047C42.8689 105.047 42.2914 104.781 41.9315 104.249C41.5769 103.718 41.3997 102.984 41.3997 102.05ZM44.5745 102.05C44.5745 101.507 44.5154 101.091 44.3973 100.801C44.2791 100.505 44.0346 100.357 43.664 100.357C43.2933 100.357 43.0489 100.505 42.9307 100.801C42.8125 101.091 42.7534 101.507 42.7534 102.05C42.7534 102.415 42.7749 102.718 42.8179 102.96C42.8609 103.196 42.9468 103.39 43.0757 103.54C43.21 103.685 43.4061 103.758 43.664 103.758C43.9218 103.758 44.1152 103.685 44.2442 103.54C44.3785 103.39 44.4671 103.196 44.5101 102.96C44.5531 102.718 44.5745 102.415 44.5745 102.05ZM46.6563 102.05C46.6563 101.126 46.8336 100.398 47.1881 99.8658C47.548 99.334 48.1255 99.068 48.9206 99.068C49.7157 99.068 50.2905 99.334 50.645 99.8658C51.005 100.398 51.1849 101.126 51.1849 102.05C51.1849 102.984 51.005 103.718 50.645 104.249C50.2905 104.781 49.7157 105.047 48.9206 105.047C48.1255 105.047 47.548 104.781 47.1881 104.249C46.8336 103.718 46.6563 102.984 46.6563 102.05ZM49.8312 102.05C49.8312 101.507 49.7721 101.091 49.6539 100.801C49.5357 100.505 49.2913 100.357 48.9206 100.357C48.5499 100.357 48.3055 100.505 48.1873 100.801C48.0691 101.091 48.01 101.507 48.01 102.05C48.01 102.415 48.0315 102.718 48.0745 102.96C48.1175 103.196 48.2034 103.39 48.3324 103.54C48.4667 103.685 48.6627 103.758 48.9206 103.758C49.1785 103.758 49.3719 103.685 49.5008 103.54C49.6351 103.39 49.7237 103.196 49.7667 102.96C49.8097 102.718 49.8312 102.415 49.8312 102.05Z" fill="#FFFAF1"/>
</g>
<g filter="url(#filter3_ddddii_537_4698)">
<rect x="69.4766" y="87.1179" width="49.7792" height="27.7555" rx="5.37204" fill="#EB6A00"/>
<path d="M85.0103 100.39H82.4961V101.502C82.6036 101.383 82.754 101.287 82.9474 101.211C83.1408 101.136 83.3503 101.099 83.5759 101.099C83.9788 101.099 84.3119 101.19 84.5751 101.373C84.8437 101.555 85.0398 101.792 85.1634 102.082C85.2869 102.372 85.3487 102.686 85.3487 103.025C85.3487 103.653 85.1714 104.153 84.8169 104.523C84.4623 104.889 83.9627 105.071 83.3181 105.071C82.8883 105.071 82.5149 104.999 82.198 104.854C81.881 104.703 81.6366 104.496 81.4647 104.233C81.2928 103.97 81.1988 103.667 81.1827 103.323H82.5284C82.5606 103.489 82.6385 103.629 82.7621 103.742C82.8856 103.849 83.0548 103.903 83.2697 103.903C83.5222 103.903 83.7102 103.822 83.8338 103.661C83.9573 103.5 84.0191 103.285 84.0191 103.016C84.0191 102.753 83.9547 102.552 83.8257 102.412C83.6968 102.272 83.5088 102.203 83.2617 102.203C83.079 102.203 82.9286 102.248 82.8104 102.34C82.6922 102.426 82.6143 102.541 82.5767 102.686H81.2471V99.1809H85.0103V100.39ZM86.1093 102.05C86.1093 101.126 86.2866 100.398 86.6411 99.8658C87.0011 99.334 87.5786 99.068 88.3736 99.068C89.1687 99.068 89.7435 99.334 90.098 99.8658C90.458 100.398 90.6379 101.126 90.6379 102.05C90.6379 102.984 90.458 103.718 90.098 104.249C89.7435 104.781 89.1687 105.047 88.3736 105.047C87.5786 105.047 87.0011 104.781 86.6411 104.249C86.2866 103.718 86.1093 102.984 86.1093 102.05ZM89.2842 102.05C89.2842 101.507 89.2251 101.091 89.1069 100.801C88.9887 100.505 88.7443 100.357 88.3736 100.357C88.0029 100.357 87.7585 100.505 87.6403 100.801C87.5221 101.091 87.4631 101.507 87.4631 102.05C87.4631 102.415 87.4845 102.718 87.5275 102.96C87.5705 103.196 87.6564 103.39 87.7854 103.54C87.9197 103.685 88.1158 103.758 88.3736 103.758C88.6315 103.758 88.8249 103.685 88.9538 103.54C89.0881 103.39 89.1767 103.196 89.2197 102.96C89.2627 102.718 89.2842 102.415 89.2842 102.05ZM92.9856 103.798L92.0911 106.111H91.2128L91.6802 103.798H92.9856ZM93.6795 102.05C93.6795 101.126 93.8567 100.398 94.2113 99.8658C94.5712 99.334 95.1487 99.068 95.9438 99.068C96.7388 99.068 97.3137 99.334 97.6682 99.8658C98.0281 100.398 98.2081 101.126 98.2081 102.05C98.2081 102.984 98.0281 103.718 97.6682 104.249C97.3137 104.781 96.7388 105.047 95.9438 105.047C95.1487 105.047 94.5712 104.781 94.2113 104.249C93.8567 103.718 93.6795 102.984 93.6795 102.05ZM96.8543 102.05C96.8543 101.507 96.7952 101.091 96.6771 100.801C96.5589 100.505 96.3145 100.357 95.9438 100.357C95.5731 100.357 95.3287 100.505 95.2105 100.801C95.0923 101.091 95.0332 101.507 95.0332 102.05C95.0332 102.415 95.0547 102.718 95.0977 102.96C95.1407 103.196 95.2266 103.39 95.3555 103.54C95.4898 103.685 95.6859 103.758 95.9438 103.758C96.2016 103.758 96.395 103.685 96.524 103.54C96.6583 103.39 96.7469 103.196 96.7899 102.96C96.8329 102.718 96.8543 102.415 96.8543 102.05ZM98.9361 102.05C98.9361 101.126 99.1134 100.398 99.4679 99.8658C99.8278 99.334 100.405 99.068 101.2 99.068C101.995 99.068 102.57 99.334 102.925 99.8658C103.285 100.398 103.465 101.126 103.465 102.05C103.465 102.984 103.285 103.718 102.925 104.249C102.57 104.781 101.995 105.047 101.2 105.047C100.405 105.047 99.8278 104.781 99.4679 104.249C99.1134 103.718 98.9361 102.984 98.9361 102.05ZM102.111 102.05C102.111 101.507 102.052 101.091 101.934 100.801C101.816 100.505 101.571 100.357 101.2 100.357C100.83 100.357 100.585 100.505 100.467 100.801C100.349 101.091 100.29 101.507 100.29 102.05C100.29 102.415 100.311 102.718 100.354 102.96C100.397 103.196 100.483 103.39 100.612 103.54C100.746 103.685 100.943 103.758 101.2 103.758C101.458 103.758 101.652 103.685 101.781 103.54C101.915 103.39 102.004 103.196 102.047 102.96C102.089 102.718 102.111 102.415 102.111 102.05ZM104.193 102.05C104.193 101.126 104.37 100.398 104.725 99.8658C105.084 99.334 105.662 99.068 106.457 99.068C107.252 99.068 107.827 99.334 108.181 99.8658C108.541 100.398 108.721 101.126 108.721 102.05C108.721 102.984 108.541 103.718 108.181 104.249C107.827 104.781 107.252 105.047 106.457 105.047C105.662 105.047 105.084 104.781 104.725 104.249C104.37 103.718 104.193 102.984 104.193 102.05ZM107.368 102.05C107.368 101.507 107.308 101.091 107.19 100.801C107.072 100.505 106.828 100.357 106.457 100.357C106.086 100.357 105.842 100.505 105.724 100.801C105.606 101.091 105.546 101.507 105.546 102.05C105.546 102.415 105.568 102.718 105.611 102.96C105.654 103.196 105.74 103.39 105.869 103.54C106.003 103.685 106.199 103.758 106.457 103.758C106.715 103.758 106.908 103.685 107.037 103.54C107.172 103.39 107.26 103.196 107.303 102.96C107.346 102.718 107.368 102.415 107.368 102.05Z" fill="#FFFAF1"/>
</g>
<defs>
<filter id="filter0_ddddii_537_4698" x="4.02897" y="43.6939" width="64.5523" height="42.5287" filterUnits="userSpaceOnUse" color-interpolation-filters="sRGB">
<feFlood flood-opacity="0" result="BackgroundImageFix"/>
<feColorMatrix in="SourceAlpha" type="matrix" values="0 0 0 0 0 0 0 0 0 0 0 0 0 0 0 0 0 0 127 0" result="hardAlpha"/>
<feOffset dx="2.23835" dy="2.23835"/>
<feGaussianBlur stdDeviation="2.90985"/>
<feColorMatrix type="matrix" values="0 0 0 0 0.862745 0 0 0 0 0.862745 0 0 0 0 0.862745 0 0 0 0.9 0"/>
<feBlend mode="normal" in2="BackgroundImageFix" result="effect1_dropShadow_537_4698"/>
<feColorMatrix in="SourceAlpha" type="matrix" values="0 0 0 0 0 0 0 0 0 0 0 0 0 0 0 0 0 0 127 0" result="hardAlpha"/>
<feOffset dx="-2.23835" dy="-2.23835"/>
<feGaussianBlur stdDeviation="2.23835"/>
<feColorMatrix type="matrix" values="0 0 0 0 1 0 0 0 0 1 0 0 0 0 1 0 0 0 0.9 0"/>
<feBlend mode="normal" in2="effect1_dropShadow_537_4698" result="effect2_dropShadow_537_4698"/>
<feColorMatrix in="SourceAlpha" type="matrix" values="0 0 0 0 0 0 0 0 0 0 0 0 0 0 0 0 0 0 127 0" result="hardAlpha"/>
<feOffset dx="2.23835" dy="-2.23835"/>
<feGaussianBlur stdDeviation="2.23835"/>
<feColorMatrix type="matrix" values="0 0 0 0 0.862745 0 0 0 0 0.862745 0 0 0 0 0.862745 0 0 0 0.2 0"/>
<feBlend mode="normal" in2="effect2_dropShadow_537_4698" result="effect3_dropShadow_537_4698"/>
<feColorMatrix in="SourceAlpha" type="matrix" values="0 0 0 0 0 0 0 0 0 0 0 0 0 0 0 0 0 0 127 0" result="hardAlpha"/>
<feOffset dx="-2.23835" dy="2.23835"/>
<feGaussianBlur stdDeviation="2.23835"/>
<feColorMatrix type="matrix" values="0 0 0 0 0.862745 0 0 0 0 0.862745 0 0 0 0 0.862745 0 0 0 0.2 0"/>
<feBlend mode="normal" in2="effect3_dropShadow_537_4698" result="effect4_dropShadow_537_4698"/>
<feBlend mode="normal" in="SourceGraphic" in2="effect4_dropShadow_537_4698" result="shape"/>
<feColorMatrix in="SourceAlpha" type="matrix" values="0 0 0 0 0 0 0 0 0 0 0 0 0 0 0 0 0 0 127 0" result="hardAlpha"/>
<feOffset dx="-0.44767" dy="-0.44767"/>
<feGaussianBlur stdDeviation="0.44767"/>
<feComposite in2="hardAlpha" operator="arithmetic" k2="-1" k3="1"/>
<feColorMatrix type="matrix" values="0 0 0 0 0.862745 0 0 0 0 0.862745 0 0 0 0 0.862745 0 0 0 0.5 0"/>
<feBlend mode="normal" in2="shape" result="effect5_innerShadow_537_4698"/>
<feColorMatrix in="SourceAlpha" type="matrix" values="0 0 0 0 0 0 0 0 0 0 0 0 0 0 0 0 0 0 127 0" result="hardAlpha"/>
<feOffset dx="0.44767" dy="0.44767"/>
<feGaussianBlur stdDeviation="0.44767"/>
<feComposite in2="hardAlpha" operator="arithmetic" k2="-1" k3="1"/>
<feColorMatrix type="matrix" values="0 0 0 0 1 0 0 0 0 1 0 0 0 0 1 0 0 0 0.3 0"/>
<feBlend mode="normal" in2="effect5_innerShadow_537_4698" result="effect6_innerShadow_537_4698"/>
</filter>
<filter id="filter1_ddddii_537_4698" x="62.7615" y="43.6939" width="64.5523" height="42.5287" filterUnits="userSpaceOnUse" color-interpolation-filters="sRGB">
<feFlood flood-opacity="0" result="BackgroundImageFix"/>
<feColorMatrix in="SourceAlpha" type="matrix" values="0 0 0 0 0 0 0 0 0 0 0 0 0 0 0 0 0 0 127 0" result="hardAlpha"/>
<feOffset dx="2.23835" dy="2.23835"/>
<feGaussianBlur stdDeviation="2.90985"/>
<feColorMatrix type="matrix" values="0 0 0 0 0.862745 0 0 0 0 0.862745 0 0 0 0 0.862745 0 0 0 0.9 0"/>
<feBlend mode="normal" in2="BackgroundImageFix" result="effect1_dropShadow_537_4698"/>
<feColorMatrix in="SourceAlpha" type="matrix" values="0 0 0 0 0 0 0 0 0 0 0 0 0 0 0 0 0 0 127 0" result="hardAlpha"/>
<feOffset dx="-2.23835" dy="-2.23835"/>
<feGaussianBlur stdDeviation="2.23835"/>
<feColorMatrix type="matrix" values="0 0 0 0 1 0 0 0 0 1 0 0 0 0 1 0 0 0 0.9 0"/>
<feBlend mode="normal" in2="effect1_dropShadow_537_4698" result="effect2_dropShadow_537_4698"/>
<feColorMatrix in="SourceAlpha" type="matrix" values="0 0 0 0 0 0 0 0 0 0 0 0 0 0 0 0 0 0 127 0" result="hardAlpha"/>
<feOffset dx="2.23835" dy="-2.23835"/>
<feGaussianBlur stdDeviation="2.23835"/>
<feColorMatrix type="matrix" values="0 0 0 0 0.862745 0 0 0 0 0.862745 0 0 0 0 0.862745 0 0 0 0.2 0"/>
<feBlend mode="normal" in2="effect2_dropShadow_537_4698" result="effect3_dropShadow_537_4698"/>
<feColorMatrix in="SourceAlpha" type="matrix" values="0 0 0 0 0 0 0 0 0 0 0 0 0 0 0 0 0 0 127 0" result="hardAlpha"/>
<feOffset dx="-2.23835" dy="2.23835"/>
<feGaussianBlur stdDeviation="2.23835"/>
<feColorMatrix type="matrix" values="0 0 0 0 0.862745 0 0 0 0 0.862745 0 0 0 0 0.862745 0 0 0 0.2 0"/>
<feBlend mode="normal" in2="effect3_dropShadow_537_4698" result="effect4_dropShadow_537_4698"/>
<feBlend mode="normal" in="SourceGraphic" in2="effect4_dropShadow_537_4698" result="shape"/>
<feColorMatrix in="SourceAlpha" type="matrix" values="0 0 0 0 0 0 0 0 0 0 0 0 0 0 0 0 0 0 127 0" result="hardAlpha"/>
<feOffset dx="-0.44767" dy="-0.44767"/>
<feGaussianBlur stdDeviation="0.44767"/>
<feComposite in2="hardAlpha" operator="arithmetic" k2="-1" k3="1"/>
<feColorMatrix type="matrix" values="0 0 0 0 0.862745 0 0 0 0 0.862745 0 0 0 0 0.862745 0 0 0 0.5 0"/>
<feBlend mode="normal" in2="shape" result="effect5_innerShadow_537_4698"/>
<feColorMatrix in="SourceAlpha" type="matrix" values="0 0 0 0 0 0 0 0 0 0 0 0 0 0 0 0 0 0 127 0" result="hardAlpha"/>
<feOffset dx="0.44767" dy="0.44767"/>
<feGaussianBlur stdDeviation="0.44767"/>
<feComposite in2="hardAlpha" operator="arithmetic" k2="-1" k3="1"/>
<feColorMatrix type="matrix" values="0 0 0 0 1 0 0 0 0 1 0 0 0 0 1 0 0 0 0.3 0"/>
<feBlend mode="normal" in2="effect5_innerShadow_537_4698" result="effect6_innerShadow_537_4698"/>
</filter>
<filter id="filter2_ddddii_537_4698" x="4.02897" y="80.4029" width="64.5523" height="42.5287" filterUnits="userSpaceOnUse" color-interpolation-filters="sRGB">
<feFlood flood-opacity="0" result="BackgroundImageFix"/>
<feColorMatrix in="SourceAlpha" type="matrix" values="0 0 0 0 0 0 0 0 0 0 0 0 0 0 0 0 0 0 127 0" result="hardAlpha"/>
<feOffset dx="2.23835" dy="2.23835"/>
<feGaussianBlur stdDeviation="2.90985"/>
<feColorMatrix type="matrix" values="0 0 0 0 0.862745 0 0 0 0 0.862745 0 0 0 0 0.862745 0 0 0 0.9 0"/>
<feBlend mode="normal" in2="BackgroundImageFix" result="effect1_dropShadow_537_4698"/>
<feColorMatrix in="SourceAlpha" type="matrix" values="0 0 0 0 0 0 0 0 0 0 0 0 0 0 0 0 0 0 127 0" result="hardAlpha"/>
<feOffset dx="-2.23835" dy="-2.23835"/>
<feGaussianBlur stdDeviation="2.23835"/>
<feColorMatrix type="matrix" values="0 0 0 0 1 0 0 0 0 1 0 0 0 0 1 0 0 0 0.9 0"/>
<feBlend mode="normal" in2="effect1_dropShadow_537_4698" result="effect2_dropShadow_537_4698"/>
<feColorMatrix in="SourceAlpha" type="matrix" values="0 0 0 0 0 0 0 0 0 0 0 0 0 0 0 0 0 0 127 0" result="hardAlpha"/>
<feOffset dx="2.23835" dy="-2.23835"/>
<feGaussianBlur stdDeviation="2.23835"/>
<feColorMatrix type="matrix" values="0 0 0 0 0.862745 0 0 0 0 0.862745 0 0 0 0 0.862745 0 0 0 0.2 0"/>
<feBlend mode="normal" in2="effect2_dropShadow_537_4698" result="effect3_dropShadow_537_4698"/>
<feColorMatrix in="SourceAlpha" type="matrix" values="0 0 0 0 0 0 0 0 0 0 0 0 0 0 0 0 0 0 127 0" result="hardAlpha"/>
<feOffset dx="-2.23835" dy="2.23835"/>
<feGaussianBlur stdDeviation="2.23835"/>
<feColorMatrix type="matrix" values="0 0 0 0 0.862745 0 0 0 0 0.862745 0 0 0 0 0.862745 0 0 0 0.2 0"/>
<feBlend mode="normal" in2="effect3_dropShadow_537_4698" result="effect4_dropShadow_537_4698"/>
<feBlend mode="normal" in="SourceGraphic" in2="effect4_dropShadow_537_4698" result="shape"/>
<feColorMatrix in="SourceAlpha" type="matrix" values="0 0 0 0 0 0 0 0 0 0 0 0 0 0 0 0 0 0 127 0" result="hardAlpha"/>
<feOffset dx="-0.44767" dy="-0.44767"/>
<feGaussianBlur stdDeviation="0.44767"/>
<feComposite in2="hardAlpha" operator="arithmetic" k2="-1" k3="1"/>
<feColorMatrix type="matrix" values="0 0 0 0 0.862745 0 0 0 0 0.862745 0 0 0 0 0.862745 0 0 0 0.5 0"/>
<feBlend mode="normal" in2="shape" result="effect5_innerShadow_537_4698"/>
<feColorMatrix in="SourceAlpha" type="matrix" values="0 0 0 0 0 0 0 0 0 0 0 0 0 0 0 0 0 0 127 0" result="hardAlpha"/>
<feOffset dx="0.44767" dy="0.44767"/>
<feGaussianBlur stdDeviation="0.44767"/>
<feComposite in2="hardAlpha" operator="arithmetic" k2="-1" k3="1"/>
<feColorMatrix type="matrix" values="0 0 0 0 1 0 0 0 0 1 0 0 0 0 1 0 0 0 0.3 0"/>
<feBlend mode="normal" in2="effect5_innerShadow_537_4698" result="effect6_innerShadow_537_4698"/>
</filter>
<filter id="filter3_ddddii_537_4698" x="62.7615" y="80.4029" width="64.5523" height="42.5287" filterUnits="userSpaceOnUse" color-interpolation-filters="sRGB">
<feFlood flood-opacity="0" result="BackgroundImageFix"/>
<feColorMatrix in="SourceAlpha" type="matrix" values="0 0 0 0 0 0 0 0 0 0 0 0 0 0 0 0 0 0 127 0" result="hardAlpha"/>
<feOffset dx="2.23835" dy="2.23835"/>
<feGaussianBlur stdDeviation="2.90985"/>
<feColorMatrix type="matrix" values="0 0 0 0 0.862745 0 0 0 0 0.862745 0 0 0 0 0.862745 0 0 0 0.9 0"/>
<feBlend mode="normal" in2="BackgroundImageFix" result="effect1_dropShadow_537_4698"/>
<feColorMatrix in="SourceAlpha" type="matrix" values="0 0 0 0 0 0 0 0 0 0 0 0 0 0 0 0 0 0 127 0" result="hardAlpha"/>
<feOffset dx="-2.23835" dy="-2.23835"/>
<feGaussianBlur stdDeviation="2.23835"/>
<feColorMatrix type="matrix" values="0 0 0 0 1 0 0 0 0 1 0 0 0 0 1 0 0 0 0.9 0"/>
<feBlend mode="normal" in2="effect1_dropShadow_537_4698" result="effect2_dropShadow_537_4698"/>
<feColorMatrix in="SourceAlpha" type="matrix" values="0 0 0 0 0 0 0 0 0 0 0 0 0 0 0 0 0 0 127 0" result="hardAlpha"/>
<feOffset dx="2.23835" dy="-2.23835"/>
<feGaussianBlur stdDeviation="2.23835"/>
<feColorMatrix type="matrix" values="0 0 0 0 0.862745 0 0 0 0 0.862745 0 0 0 0 0.862745 0 0 0 0.2 0"/>
<feBlend mode="normal" in2="effect2_dropShadow_537_4698" result="effect3_dropShadow_537_4698"/>
<feColorMatrix in="SourceAlpha" type="matrix" values="0 0 0 0 0 0 0 0 0 0 0 0 0 0 0 0 0 0 127 0" result="hardAlpha"/>
<feOffset dx="-2.23835" dy="2.23835"/>
<feGaussianBlur stdDeviation="2.23835"/>
<feColorMatrix type="matrix" values="0 0 0 0 0.862745 0 0 0 0 0.862745 0 0 0 0 0.862745 0 0 0 0.2 0"/>
<feBlend mode="normal" in2="effect3_dropShadow_537_4698" result="effect4_dropShadow_537_4698"/>
<feBlend mode="normal" in="SourceGraphic" in2="effect4_dropShadow_537_4698" result="shape"/>
<feColorMatrix in="SourceAlpha" type="matrix" values="0 0 0 0 0 0 0 0 0 0 0 0 0 0 0 0 0 0 127 0" result="hardAlpha"/>
<feOffset dx="-0.44767" dy="-0.44767"/>
<feGaussianBlur stdDeviation="0.44767"/>
<feComposite in2="hardAlpha" operator="arithmetic" k2="-1" k3="1"/>
<feColorMatrix type="matrix" values="0 0 0 0 0.862745 0 0 0 0 0.862745 0 0 0 0 0.862745 0 0 0 0.5 0"/>
<feBlend mode="normal" in2="shape" result="effect5_innerShadow_537_4698"/>
<feColorMatrix in="SourceAlpha" type="matrix" values="0 0 0 0 0 0 0 0 0 0 0 0 0 0 0 0 0 0 127 0" result="hardAlpha"/>
<feOffset dx="0.44767" dy="0.44767"/>
<feGaussianBlur stdDeviation="0.44767"/>
<feComposite in2="hardAlpha" operator="arithmetic" k2="-1" k3="1"/>
<feColorMatrix type="matrix" values="0 0 0 0 1 0 0 0 0 1 0 0 0 0 1 0 0 0 0.3 0"/>
<feBlend mode="normal" in2="effect5_innerShadow_537_4698" result="effect6_innerShadow_537_4698"/>
</filter>
</defs>
</svg>
