<svg width="183" height="183" viewBox="0 0 183 183" fill="none" xmlns="http://www.w3.org/2000/svg">
<circle cx="91.5" cy="91.5" r="84" fill="#7D4D2B" fill-opacity="0.7" stroke="#7D4D2B" stroke-width="15"/>
<path d="M127.969 121.744C128.668 120.647 134.34 112.561 131.253 111.343C126.255 111.254 121.374 111.544 116.78 109.122C110.719 105.933 106.217 101.579 101.713 96.4541C100.497 95.074 100.522 93.3242 101.713 91.9381C108.904 83.0177 117.458 76.7159 126.457 69.064C130.509 65.4636 123.757 59.1606 118.806 58.7094C116.556 58.7094 114.307 60.0595 112.053 60.9596C103.952 65.9113 99.0004 73.5644 92.791 80.1854C92.0961 81.0303 91.106 81.2583 90.158 81.0795C89.2087 80.9031 88.3014 80.3198 87.7757 79.5409C84.3086 74.3913 81.1511 68.8935 78.9789 63.0574C77.816 59.9407 76.7275 56.7832 75.945 53.5453C74.7833 48.6969 73.0216 51.3371 70.9982 53.9497C65.4681 61.0856 63.3691 66.5605 68.2259 75.0237C71.8034 81.2595 75.6534 87.2192 80.0722 92.891C80.8955 93.9495 81.4787 95.5168 80.5703 96.7601C78.5685 99.5024 76.101 102.931 73.2352 106.072C72.2841 107.122 71.2833 108.125 70.2361 109.079C66.1365 113.624 57.5845 113.174 56.2332 117.227C54.4354 120.827 60.7348 127.125 66.8002 127.343C67.9191 127.25 69.0211 127.011 70.0777 126.631C77.5544 123.995 83.7518 115.033 88.1274 109.329C89.3059 107.789 91.6197 107.003 93.1402 108.682C98.914 115.053 105.603 123.733 114.284 126.152C119.838 127.699 124.71 126.87 127.963 121.74" fill="#FFFAF1"/>
<path d="M62.8616 117.22C64.2129 113.167 72.7649 113.62 76.8645 109.072C77.9074 108.127 78.9047 107.114 79.8635 106.065C82.727 102.924 85.1968 99.4956 87.1962 96.7533C88.1071 95.5112 87.5215 93.9426 86.6994 92.8841C82.283 87.2124 78.427 81.2539 74.8519 75.0169C70.3539 67.1789 71.8228 61.9057 76.4564 55.5007C76.2743 54.8493 76.1022 54.1952 75.9404 53.5385C74.7787 48.69 73.0169 51.3303 70.9935 53.9429C65.4634 61.0788 63.3644 66.5537 68.2213 75.0169C71.7988 81.2527 75.6487 87.2124 80.0676 92.8841C80.8908 93.9426 81.4741 95.51 80.5656 96.7533C78.5638 99.4956 76.0964 102.924 73.2305 106.065C72.2795 107.115 71.2786 108.118 70.2314 109.072C66.1319 113.617 57.5799 113.167 56.2285 117.22C54.4308 120.82 60.7302 127.119 66.7955 127.336C67.9045 127.242 68.9968 127.006 70.0454 126.632C65.287 124.856 61.3986 120.143 62.8616 117.22Z" fill="#694124"/>
</svg>
