<svg width="59" height="59" viewBox="0 0 59 59" fill="none" xmlns="http://www.w3.org/2000/svg">
<g clip-path="url(#clip0_507_1502)">
<circle cx="29.2708" cy="29.2708" r="26.8715" fill="#7D4D2B" fill-opacity="0.7" stroke="#7D4D2B" stroke-width="4.79849"/>
<path d="M40.9371 38.9458C41.1609 38.5949 42.9753 36.0081 41.9878 35.6184C40.3888 35.59 38.8274 35.6829 37.3578 34.9082C35.419 33.8877 33.9786 32.4949 32.5378 30.8556C32.1489 30.4141 32.1569 29.8543 32.5378 29.4109C34.8382 26.5573 37.5747 24.5413 40.4533 22.0935C41.7498 20.9417 39.5899 18.9254 38.0059 18.7811C37.286 18.7811 36.5666 19.213 35.8456 19.5009C33.2542 21.0849 31.6701 23.5332 29.6837 25.6512C29.4615 25.9215 29.1447 25.9944 28.8414 25.9372C28.5378 25.8808 28.2475 25.6942 28.0794 25.4451C26.9702 23.7977 25.9602 22.039 25.2653 20.172C24.8933 19.175 24.545 18.1649 24.2947 17.1291C23.9231 15.5781 23.3595 16.4227 22.7122 17.2584C20.9432 19.5412 20.2717 21.2926 21.8254 24C22.9698 25.9948 24.2014 27.9013 25.615 29.7157C25.8784 30.0543 26.065 30.5557 25.7743 30.9535C25.134 31.8307 24.3446 32.9276 23.4278 33.9323C23.1236 34.2681 22.8034 34.5892 22.4684 34.8944C21.157 36.3482 18.4212 36.2043 17.9889 37.5007C17.4138 38.6525 19.429 40.6673 21.3693 40.7368C21.7273 40.7071 22.0798 40.6306 22.4178 40.5091C24.8096 39.666 26.7921 36.799 28.1918 34.9742C28.5689 34.4816 29.309 34.2302 29.7955 34.7673C31.6425 36.8055 33.7824 39.5819 36.5593 40.3559C38.336 40.8508 39.8947 40.5855 40.9351 38.9447" fill="#FFFAF1"/>
<path d="M20.1094 37.4986C20.5416 36.2021 23.2774 36.3468 24.5889 34.8922C24.9225 34.5896 25.2415 34.2656 25.5483 33.9301C26.4643 32.9254 27.2544 31.8285 27.894 30.9513C28.1854 30.5539 27.998 30.0521 27.7351 29.7135C26.3223 27.8991 25.0887 25.993 23.9451 23.9978C22.5061 21.4904 22.9761 19.8035 24.4583 17.7546C24.4001 17.5462 24.345 17.3369 24.2933 17.1269C23.9216 15.5759 23.358 16.4205 22.7108 17.2563C20.9417 19.539 20.2702 21.2904 21.8239 23.9978C22.9684 25.9926 24.2 27.8991 25.6135 29.7135C25.8769 30.0521 26.0635 30.5535 25.7729 30.9513C25.1325 31.8285 24.3432 32.9254 23.4264 33.9301C23.1221 34.2659 22.802 34.587 22.467 34.8922C21.1555 36.346 18.4197 36.2021 17.9875 37.4986C17.4124 38.6503 19.4275 40.6651 21.3678 40.7346C21.7226 40.7045 22.072 40.6289 22.4075 40.5096C20.8853 39.9414 19.6414 38.4338 20.1094 37.4986Z" fill="#694124"/>
</g>
<defs>
<clipPath id="clip0_507_1502">
<rect width="58.5416" height="58.5416" fill="white"/>
</clipPath>
</defs>
</svg>
