<?xml version="1.0" encoding="utf-8"?>
<!-- Generator: Adobe Illustrator 26.3.1, SVG Export Plug-In . SVG Version: 6.00 Build 0)  -->
<svg version="1.1" id="Layer_1" xmlns="http://www.w3.org/2000/svg" xmlns:xlink="http://www.w3.org/1999/xlink" x="0px" y="0px"
	 viewBox="0 0 484 2261" style="enable-background:new 0 0 484 2261;" xml:space="preserve">
<style type="text/css">
	.st0{display:none;}
	.st1{display:inline;}
	.st2{clip-path:url(#SVGID_00000088127656563867224370000002757735392945518757_);}
	.st3{clip-path:url(#SVGID_00000051351701919174958510000004704142394977330340_);}
	.st4{fill:url(#SVGID_00000123436185795063754200000009048302485388898469_);}
	.st5{fill:#98B393;}
	.st6{fill:#C0CCAD;}
	.st7{fill:#C7D5C4;}
	.st8{fill:#AC9C94;}
	.st9{fill:#6D5341;}
	.st10{fill:#C19F87;}
	.st11{fill:#715847;}
	.st12{fill:#E0A54F;}
	.st13{fill:#84A749;}
	.st14{fill:#FBF5F7;}
	.st15{fill:#EFEFEF;}
	.st16{fill:#AFD079;}
	.st17{fill:#A5CA68;}
	.st18{fill:#AACD70;}
	.st19{fill:#9AC355;}
	.st20{fill:url(#Sumatran_Background_00000087392901975224577420000001550637343515595685_);}
	.st21{fill:url(#SVGID_00000183931889036237045690000011528151341658494622_);}
	.st22{fill:#CC9C73;}
	.st23{fill:#72523E;}
	.st24{fill:#FBF4F6;}
	.st25{fill:#EEEEEE;}
	.st26{display:inline;fill:url(#SVGID_00000104696687473954141480000001529531878077542583_);}
	.st27{display:inline;fill:#FCECE0;}
	.st28{display:inline;fill:#D6E0FA;}
	.st29{fill:#645639;}
	.st30{fill:#396D0A;}
	.st31{fill:#66A566;}
	.st32{fill:#316700;}
	.st33{fill:#458144;}
	.st34{display:inline;fill:#316700;}
	.st35{fill:#4D7600;}
</style>
<g id="Layer_1_00000121276312735278120940000015333927854266942355_" class="st0">
	<g class="st1">
		<g>
			<defs>
				<rect id="SVGID_1_" width="484" height="2261"/>
			</defs>
			<clipPath id="SVGID_00000139993908918864433770000001306745468789281974_">
				<use xlink:href="#SVGID_1_"  style="overflow:visible;"/>
			</clipPath>
			<g style="clip-path:url(#SVGID_00000139993908918864433770000001306745468789281974_);">
				<g>
					<g>
						<defs>
							<rect id="SVGID_00000059285678688107585530000017464339729909480092_" x="-254" width="1044" height="2927"/>
						</defs>
						<clipPath id="SVGID_00000083776910043093658480000016836744308355087516_">
							<use xlink:href="#SVGID_00000059285678688107585530000017464339729909480092_"  style="overflow:visible;"/>
						</clipPath>
						<g style="clip-path:url(#SVGID_00000083776910043093658480000016836744308355087516_);">
							
								<linearGradient id="SVGID_00000008110628795465660730000005709851352481701046_" gradientUnits="userSpaceOnUse" x1="219.5" y1="1057.1001" x2="219.5" y2="-1219.9" gradientTransform="matrix(1 0 0 1 0 1182)">
								<stop  offset="0.1169" style="stop-color:#FBF5F7"/>
								<stop  offset="0.5311" style="stop-color:#AE9FFA"/>
							</linearGradient>
							<path style="fill:url(#SVGID_00000008110628795465660730000005709851352481701046_);" d="M484-37.9H-45v2277h529V-37.9z"/>
							<path class="st5" d="M-165.3,1504.9c0,0,53.3,58.3,168.4,77.7c115.1,19.4,70.1,26.5,155.8,96.9
								c85.6,70.4-27.5,110.2,149.9,208.1S480.1,2157,480.1,2157l-73.4,238.8L-254,2585.5L-165.3,1504.9z"/>
							<path class="st6" d="M572.9,1916.1c0,0-41.1-92-103.1,1.5c-62,93.4-112.1,39.6-150.3,164.1s-46.7,110.4-153.5,157.1
								C59.1,2285.4-44.9,2516-44.9,2516l455.7,147l379.2-36.7L572.9,1916.1L572.9,1916.1z"/>
							<path class="st7" d="M-31.2,2158.5c0,0,53.3,58.3,168.4,77.8c115.1,19.4,70.1,26.5,155.8,96.9
								c85.6,70.4-27.5,110.2,149.9,208.2s171.3,269.4,171.3,269.4l-73.4,238.8l-660.6,189.6L-31.2,2158.5L-31.2,2158.5z"/>
							<path class="st8" d="M623.1,2223.8c0,0-37.8-48.4-81.7-107.5c4.8,3.2,9.9,6.3,15.4,9.4l56.7,35.3c0,0-76.9-85.7-102.9-124.3
								c-6.8-10.1-18.8-22.2-32.8-34.5l0.5-1.2c0,0,11.8,15.7,55.6,39.3l47.2,28.3c0,0-64.1-68.8-85.6-99.9
								c-2.7-3.9-6.5-8.2-10.9-12.7c16.4,11.6,35.8,23.9,47.1,26.2c0,0-116.6-169.6-120.7-199.8c0,0-63.9,164.3-112.6,190.9
								c-38.6,21.2,19.8-1.9,48.6-17.6l-1.3,2.3c0,0-53.3,61.4-85,74.9s71.5-16.2,76.9-24.3c0.8-1.2,1.5-1.6,2.2-1.5l-9.1,16.2
								c0,0-64,76.5-102,93.2c-33.9,15,60.6-12.7,86.3-26.1c-33.7,53.9-71.7,103.2-105.5,119.5c-86.3,41.6,100.7-26.3,111.5-42.9
								c10.8-16.6-42.1,104.3-27.7,135.1c0,0,51.8-65.2,78.8-102.5c0.8-1.1,3.8,4,8,12.5c-0.1,9.6,0.1,5.1-0.4,21.7
								c-0.1,3.2,0.1,10.3-0.1,15.2c-0.1,5.5,0,5.7-0.1,8.5c0.1,7.6,0.1,6.4,0,10c0,5.1,0.1,23.7,0.4,41.5c0,1.4-0.1,2.9-0.2,4.7
								c-0.1,3.2,0.1,10.3-0.1,15.2c-0.1,5.5,0,5.7-0.1,8.5c0.1,7.6,0.1,6.4,0,10c-0.1,8.1,0.5,50.2,0.7,68.8c0,0.7,0,1.4,0,2.1
								c-0.3,14,0.1,6.8-0.5,24.9c-0.1,3.2,0.1,10.3-0.1,15.2c-0.1,5.5,0,5.7-0.1,8.5c0.1,7.7,0.1,6.4,0,10
								c-0.1,9.6,0.7,67.1,0.8,76.4c-0.1,2.2-0.1,4.3-0.2,6.6c-0.3,14,0.1,6.8-0.5,25c-0.1,3.2,0.1,10.3-0.1,15.2
								c-0.1,5.5,0,5.7-0.1,8.5c0.1,7.6,0.1,6.4,0,10c-0.1,8.5,0.5,54.8,0.8,71.5c0,1.2-0.1,2.5-0.1,3.8c-0.3,14,0.1,6.8-0.5,24.9
								c-0.1,3.2,0.1,10.3-0.1,15.2c-0.1,5.5,0,5.7-0.1,8.5c0.1,7.6,0.1,6.4,0,10c-0.1,9.2,0.6,62.6,0.8,75
								c-0.1,1.9-0.1,3.8-0.1,5.8c-0.3,14,0.1,6.8-0.5,25c-0.1,3.2,0.1,10.3-0.1,15.2c-0.1,5.5,0,5.7-0.1,8.5c0.1,7.6,0.1,6.4,0,10
								c-0.1,9.6,0.7,68,0.8,76.6c-0.1,2.3-0.1,4.4-0.2,6.8c-0.3,14,0.1,6.8-0.5,24.9c-0.1,3.2,0.1,10.3-0.1,15.2
								c-0.1,5.5,0,5.7-0.1,8.5c0.1,7.6,0.1,6.4,0,10c-0.1,9.8,0.1,68.3,0.3,75.3l0.6-0.1c-0.1,2.6-0.1,5-0.2,7.6
								c-0.3,14,0.1,6.8-0.5,24.9c-0.1,3.2,0.1,10.3-0.1,15.2c-0.1,5.5,0,5.7-0.1,8.5c0.1,7.6,0.1,6.4,0,10
								c-0.1,9.8,0.1,68.3,0.3,75.3l64.9-8.6c0.1-6.4,0.1-65.2,0.3-72.6c0-1.3,0.3-1.9,0.1-11.2c0.2-5.6,0.3-11.7,0.3-11.7v-16.7
								c-0.3-16.7-0.3-6,0.2-28.1c0.2-8.2,0-7.4-0.1-22.9c0.4-1,0.4-2.1-0.6-3c0-19.3,0.1-43.4,0.2-48c0-1.3,0.3-1.9,0.1-11.2
								c0.2-5.6,0.3-11.7,0.3-11.7v-16.7c-0.3-16.7-0.3-6,0.2-28.1c0.1-3.4,0.1-5.2,0.1-7.3c0.5-17.5-0.7-60.6-0.6-67.1
								c0-1.3,0.3-1.9,0.1-11.2c0.2-5.6,0.3-11.7,0.3-11.7v-16.7c-0.3-16.7-0.3-6,0.2-28.1c0-2.1,0.1-3.6,0.1-4.9
								c0.5-17.6-0.7-60.6-0.6-66.9c0-1.3,0.3-1.9,0.1-11.2c0.2-5.6,0.3-11.7,0.3-11.7v-16.7c-0.3-15.3-0.3-7.6,0.1-23.3
								c0.4-5.3,0.3-16.5,0.2-28.5c0-0.3,0-0.6,0-0.9c-0.2-18-0.7-37.6-0.6-41.8c0-1.3,0.3-1.9,0.1-11.2c0.2-5.6,0.3-11.7,0.3-11.7
								v-16.7c-0.3-16.7-0.3-6,0.2-28.1c0.1-3.2,0.1-5,0.1-7c0.5-17.5-0.7-60.6-0.6-67c0-1.3,0.3-1.9,0.1-11.2
								c0.2-5.6,0.3-11.7,0.3-11.7v-16.7c-0.3-12.8-0.3-9.6-0.1-17.1c0.6-4.6,0.5-19.3,0.3-34.4c0.1-0.5,0.1-1,0-1.4
								c-0.2-16.6-0.6-33.3-0.6-37.1c0-1.1,0.2-1.6,0.2-6.9h0.1c0.8-6.2,0.4-31.6,0-50.9c0.1-2.3,0.1-5.4,0.2-9.9
								c0.2-8.2,0-7.4-0.1-22.9c0.4-0.9,0.4-1.8-0.2-2.7c0.2-4.9,0.2-9.5,0.2-9.5v-17c4.4-5.8,9.9-6.8,16.8,0.6
								c34.1,36.5,103.1,64.7,103.1,64.7s-67.7-110.1-67.7-136.5C497.7,2150.7,583.6,2216.9,623.1,2223.8L623.1,2223.8z"/>
						</g>
					</g>
				</g>
			</g>
		</g>
	</g>
	<g id="b" class="st1">
		<g id="aa">
			<g>
				<g id="ab">
					<path class="st9" d="M275.4,2260.4c-6.2,2.2-11.3,2.8-17.6,3.4c-2.8,0-18.2-1.8-21.5-4.1c-4.3-2.9-9.4-8.2-9.4-9.3
						c-0.1-1.6,4-0.9,5.8-1.3c7.6-1.4,11.9-1.7,17.4-2.2c9.4-0.9,9-1.2,19.6,0c1.4,0.2,13.6,2,15.1,2.5c4.5,1.6,1.4,5.2,0.5,6.1
						c-3,3.9-5.2,2.5-8.8,4.2"/>
					<path class="st9" d="M260.4,2246.2c-2.7,0-4.9,0.3-10.1,0.8c-2.8,0.3-5.2,0.5-7.8,0.8c-2,0.6-4,1.2-6,2.1l-1.7,0.7
						c8.6,2.6,17.3,3.9,26,4h2.5c3.2-0.2,6.6,0.3,9.4-3c-4.5-1.4-9.1-2.1-13.7-2.2c-1.7,0-3.4,0.1-5,0.4h-0.4l0,0l5.1,1.1l-4.6-1.1
						h2.7c4.9-0.1,9.7,0.6,14.5,2c-2.5,2-5.4,1.5-8.1,1.7h-1.4c-2.5,0-5-0.1-7.5-0.3c-5.3-0.4-10.6-1.4-15.9-2.8
						c3.6-1.2,7.2-2.1,10.8-2.5c3.4-0.4,6.7-0.5,10.1-0.5c7.3,0,14.5,0.8,21.7,2.5c0.3,0.1,2.6,0.9,1.7,1.6
						c-9.1,2.7-21,7.2-32.1,7.2c-7.9,0-15.3-2.2-21-9c6,7.3,13.8,9.7,21.9,9.7c10.8,0,22.4-4.3,31.4-6.9c0.1-0.1,0.2-0.1,0.3-0.3
						c0.1-0.1,0.2-0.3,0.2-0.4c0.1-0.2,0.1-0.4,0.1-0.6c0-0.2,0-0.4,0-0.6c-0.2-0.5-0.4-0.9-0.7-1.1c-0.3-0.3-0.6-0.5-0.9-0.5
						c-4.2-0.8-11-1.8-12.1-2C265.1,2246.4,262.5,2246.2,260.4,2246.2L260.4,2246.2L260.4,2246.2z"/>
				</g>
			</g>
			<g id="ac">
				<path class="st10" d="M274,2256c-6,2.2-12.1,3.6-18.2,4.2c-2.7,0-16.9-2.1-20.1-4.4c-4.1-2.9-9.6-7.9-9.6-9
					c-0.1-1.6,3.8-0.9,5.6-1.3c7.4-1.4,11.4-1.7,16.8-2.2c9.1-0.9,8.7-1.2,18.9,0c1.4,0.2,13.1,2,14.5,2.5c3.5,1.3,4.8,1.6,4.7,2.1
					c0,0.1,0,0.2-0.1,0.3c-2.9,3.9-9.2,6.2-12.6,7.9"/>
				<path class="st9" d="M258.2,2242.6c-2.6,0-4.7,0.3-9.7,0.8c-2.6,0.3-5,0.4-7.6,0.8c-1.9,0.6-3.9,1.2-5.8,2.1l-1.6,0.7
					c8.3,2.6,16.6,3.9,25,3.9h2.4c3-0.2,6.3,0.3,9-3c-4.4-1.4-8.8-2.1-13.2-2.2c-1.6,0-3.3,0.1-4.9,0.4h-0.4l0,0l4.9,1.1l-4.4-1.1
					h2.6c4.7-0.1,9.4,0.6,14,2c-2.4,2-5.2,1.5-7.8,1.7h-1.3c-2.4,0-4.8-0.1-7.3-0.3c-5.1-0.5-10.2-1.4-15.3-2.8
					c3.4-1.2,6.9-2.1,10.4-2.5c3.2-0.4,6.5-0.6,9.7-0.6c7,0,14,0.8,20.9,2.5c0.3,0.1,2.5,0.9,1.7,1.6c-8.7,2.7-20.2,7.2-30.9,7.2
					c-7.6,0-14.7-2.2-20.2-9c5.8,7.3,13.3,9.7,21.1,9.7c10.4,0,21.5-4.3,30.2-6.9c0.1,0,0.2-0.1,0.3-0.3c0.1-0.1,0.1-0.3,0.2-0.4
					c0-0.2,0.1-0.4,0.1-0.6c0-0.2,0-0.4,0-0.6c-0.2-0.5-0.4-0.9-0.6-1.1s-0.5-0.4-0.8-0.5c-4-0.8-10.6-1.8-11.6-2
					C262.7,2242.8,260.3,2242.5,258.2,2242.6L258.2,2242.6L258.2,2242.6z"/>
			</g>
		</g>
		<g id="ad">
			<g>
				<g id="ae">
					<path class="st9" d="M275.4,2126.9c-6.2,2.2-11.3,2.8-17.6,3.4c-2.8,0-18.2-1.8-21.5-4.1c-4.3-2.9-9.4-8.2-9.4-9.3
						c-0.1-1.6,4-1,5.8-1.3c7.6-1.4,11.9-1.7,17.4-2.2c9.4-0.8,9-1.2,19.6,0c1.4,0.2,13.6,2,15.1,2.5c4.5,1.6,1.4,5.2,0.5,6.1
						c-3,3.9-5.2,2.5-8.8,4.2"/>
					<path class="st9" d="M260.4,2112.8c-2.7,0-4.9,0.3-10.1,0.8c-2.8,0.3-5.2,0.4-7.8,0.8c-2,0.6-4,1.2-6,2.1l-1.7,0.7
						c8.6,2.6,17.3,3.9,26,3.9h2.5c3.2-0.2,6.6,0.3,9.4-3c-4.5-1.4-9.1-2.1-13.7-2.2c-1.7,0-3.4,0.1-5,0.4h-0.4l0,0l5.1,1.1
						l-4.6-1.1h2.7c4.9,0,9.7,0.6,14.5,2c-2.5,2-5.4,1.5-8.1,1.7h-1.4c-2.5,0-5-0.1-7.5-0.3c-5.3-0.4-10.6-1.4-15.9-2.8
						c3.6-1.2,7.2-2.1,10.8-2.5c3.4-0.4,6.7-0.6,10.1-0.6c7.3,0,14.5,0.8,21.7,2.5c0.3,0.1,2.6,0.9,1.7,1.6
						c-9.1,2.7-21,7.2-32.1,7.2c-7.9,0-15.3-2.2-21-9c6,7.3,13.8,9.7,21.9,9.7c10.8,0,22.4-4.3,31.4-6.9c0.1-0.1,0.2-0.1,0.3-0.3
						c0.1-0.1,0.2-0.3,0.2-0.5c0.1-0.2,0.1-0.4,0.1-0.6c0-0.2,0-0.4,0-0.6c-0.2-0.5-0.4-0.9-0.7-1.1c-0.3-0.3-0.6-0.4-0.9-0.5
						c-4.2-0.8-11-1.8-12.1-2C265.1,2113,262.5,2112.7,260.4,2112.8L260.4,2112.8L260.4,2112.8z"/>
				</g>
				<polygon class="st9" points="230.5,2207 189.3,2170.4 190.2,2163 233.2,2190.3 				"/>
			</g>
			<path class="st11" d="M245.4,2187.4c-0.6-0.6-1.5,0.2-1.5,1.4s0.1,2.8-0.7,2.2s-2.1-0.7-2.1-0.4s0.1,0.2-0.4,0.3
				s-0.8,0.2-1.3,0.6c-0.5,0.4-0.1,0.9-0.5,0.4c-0.4-0.4-0.9-1.9-1.4-1.5s-0.1,0.3-0.5,0s-0.1-1.1-0.4-0.9c-0.4,0.2-0.4-0.1-0.6-0.2
				c-0.2-0.1,0.8,1-0.3,1.7s-3,1.1-3.9,2.5c-0.9,1.3-1,2.6-1.9,3s-1.2-0.1-1.1,0.7c0.2,0.9,0.4,2-0.2,2.1c-0.6,0.1-1.1,0.3-0.6,0.7
				c0.4,0.4,1.2-0.1,0.4,0.4s-1-0.4-0.8,0.5s0,1.9-0.3,2s-0.2,0-0.2,0.7s-0.1-1.1,0.1,0.7s-0.1,2.7-0.5,3s-0.8,1.8-0.7,2.7
				s0.5,1.2,0.1,1.9s-0.1,3.5,0.1,3.9c0.1,0.4,1.2,2,0.6,2.2c-0.6,0.2-0.2,1.3,0.3,1.5s-0.3,1.6,0.2,1.8s1.6,0.3,1.4,0.8
				s-0.8,0.5,0.3,0.8s1.1-0.4,1.1,0.3s-1.4,0.5,0.1,0.7s2.2,0.6,2,1.2s0.7,0.5,1.2,0.1s1.1-1.2,1.1-0.5s0.9,0.5,0.9-0.3
				s-0.6-0.7,0.1-0.8c0.7-0.1,0.9,0,0.9-0.5s-1.1-0.5-0.1-0.5s1.2,0.5,2.4-1.6s1.7-3.9,2.1-3.9s1.1-0.8,0.5-0.9s-0.3-0.1,0.1-0.9
				c0.4-0.8,0.5-1.9,0.3-2.2s-0.3,0,0-0.9s0.4-1.2,0.2-1.4s0-0.9,0.2-1.5s0.4-1.2,0.2-1.3s-0.1,0-0.1-0.5c-0.1-1.5-0.1-1.8,0.1-2
				s0.8-1.8,0.3-2.3s-1-0.3-0.1-1.4s0.9-1.1,0.5-1.7c-0.4-0.7-0.9-1.9-0.1-2.3c0.7-0.4,1.6-1.2,1-1.4s-0.8-1.4-0.3-1.5
				s0.1-0.6-0.1-0.8s-0.7,0.5,0.2-1.2c0.9-1.6,2.4-3.2,2.4-4.1C245.9,2187.8,245.4,2187.4,245.4,2187.4L245.4,2187.4L245.4,2187.4z"
				/>
			<g id="af">
				<path class="st10" d="M274.6,2125.4c-6,2.2-12.1,3.6-18.2,4.2c-2.7,0-16.9-2.1-20.1-4.4c-4.1-2.9-9.6-7.9-9.6-9
					c-0.1-1.6,3.8-0.9,5.6-1.3c7.4-1.4,11.4-1.7,16.8-2.2c9.1-0.8,8.7-1.2,18.9,0c1.4,0.2,13.1,2,14.5,2.5c3.5,1.3,4.8,1.6,4.7,2.1
					c0,0.1,0,0.2-0.1,0.3c-2.9,4-9.2,6.2-12.6,7.9"/>
				<path class="st9" d="M258.9,2112c-2.6,0-4.7,0.3-9.7,0.8c-2.6,0.3-5,0.4-7.6,0.8c-1.9,0.6-3.9,1.2-5.8,2.1l-1.6,0.7
					c8.3,2.6,16.6,3.9,25,3.9h2.4c3-0.2,6.3,0.3,9-3c-4.4-1.4-8.8-2.1-13.2-2.2c-1.6,0-3.3,0.1-4.9,0.4h-0.4l0,0l4.9,1.1l-4.4-1.1
					h2.6c4.7,0,9.4,0.6,14,2c-2.4,2-5.2,1.5-7.8,1.7h-1.3c-2.4,0-4.8-0.1-7.3-0.3c-5.1-0.4-10.2-1.4-15.3-2.8
					c3.4-1.2,6.9-2.1,10.4-2.5c3.2-0.4,6.5-0.6,9.7-0.6c7,0,14,0.8,20.9,2.5c0.3,0.1,2.5,0.9,1.7,1.6c-8.7,2.7-20.2,7.2-30.9,7.2
					c-7.6,0-14.7-2.2-20.2-9c5.8,7.3,13.3,9.7,21.1,9.7c10.4,0,21.5-4.3,30.2-6.9c0.1-0.1,0.2-0.1,0.3-0.3c0.1-0.1,0.1-0.3,0.2-0.5
					c0-0.2,0.1-0.4,0.1-0.6c0-0.2,0-0.4,0-0.6c-0.2-0.5-0.4-0.9-0.6-1.1s-0.5-0.4-0.8-0.5c-4-0.8-10.6-1.8-11.6-2
					C263.4,2112.2,260.9,2112,258.9,2112L258.9,2112L258.9,2112z"/>
			</g>
			<path class="st12" d="M223.4,2207.4c0,0-2.7,7-3.7,7.4s-3.6,1.8-2.8,2.2s-1.9,4.5-1.2,6.6c0.6,2.1-3.1,6.3-2.1,7.8
				s2.7,0.6,2.4,3.3s0.4,3.2,0.8,4.2c0.6,1.3,1.7,0.2,1.7-1.8s-0.1-7.8,0.9-8c1-0.3,1.9-2.2,1.9-1s0,3.2,1.1,3.1c2,0,2-0.7,1.7-2.9
				c-0.3-2.3,1-2.6,2.1-3.6c1.2-1-0.5-2.1-0.1-9.3s-0.3-11.7-0.3-11.7l-0.7-2L223.4,2207.4L223.4,2207.4L223.4,2207.4z"/>
		</g>
		<g id="ag">
			<g>
				<path class="st9" d="M287,2263.4c1.1-9-0.4-173.4-0.3-180.4c0-1.2,0.3-1.8,0.1-10.5c0.2-5.3,0.3-11,0.3-11v-15.8
					c-0.3-15.8-0.3-5.7,0.2-26.5c0.2-8.1,0-6.9-0.1-23.5c-4.1,4.9-6.2,5.7-11.1,7.8c-10.2,4.3-18.5,5.4-28.8,2.2
					c-6.3-2-15.7-3-20.4-11c-0.5,10.2-0.6,16.6-0.8,25.5c-0.1,5.3-0.3,8.8-0.3,13c-0.2,13.2,0.1,6.4-0.4,23.5
					c-0.1,3,0.1,9.7-0.1,14.3c-0.1,5.2,0,5.4-0.1,8c0.1,7.2,0.1,6.1,0,9.4c-0.1,9.2,0.7,169.1,0.8,175.7"/>
				<g id="ah">
					<path class="st9" d="M275.4,2004.9c-6.2,2.2-11.3,2.8-17.6,3.4c-2.8,0-18.2-1.8-21.5-4.1c-4.3-2.9-9.4-8.2-9.4-9.3
						c-0.1-1.6,4-1,5.8-1.3c7.6-1.4,11.9-1.7,17.4-2.2c9.4-0.8,9-1.2,19.6,0c1.4,0.2,13.6,2,15.1,2.5c4.5,1.6,1.4,5.2,0.5,6.1
						c-3,4-5.2,2.5-8.8,4.2"/>
					<path class="st9" d="M260.4,1990.7c-2.7,0-4.9,0.3-10.1,0.8c-2.8,0.3-5.2,0.4-7.8,0.8c-2,0.5-4,1.2-6,2.1l-1.7,0.7
						c8.6,2.6,17.3,3.9,26,3.9h2.5c3.2-0.2,6.6,0.3,9.4-3c-4.5-1.4-9.1-2.1-13.7-2.2c-1.7,0-3.4,0.1-5,0.4h-0.4l0,0l5.1,1.1
						l-4.6-1.1h2.7c4.9,0,9.7,0.6,14.5,2c-2.5,2-5.4,1.5-8.1,1.7h-1.4c-2.5,0-5-0.1-7.5-0.3c-5.3-0.4-10.6-1.4-15.9-2.8
						c3.6-1.2,7.2-2.1,10.8-2.5c3.4-0.4,6.7-0.6,10.1-0.6c7.3,0,14.5,0.8,21.7,2.5c0.3,0.1,2.6,0.9,1.7,1.6
						c-9.1,2.7-21,7.2-32.1,7.2c-7.9,0-15.3-2.2-21-9c6,7.3,13.8,9.7,21.9,9.7c10.8,0,22.4-4.3,31.4-6.9c0.1-0.1,0.2-0.1,0.3-0.3
						c0.1-0.1,0.2-0.3,0.2-0.5c0.1-0.2,0.1-0.4,0.1-0.6s0-0.4,0-0.6c-0.2-0.5-0.4-0.9-0.7-1.1c-0.3-0.3-0.6-0.4-0.9-0.5
						c-4.2-0.8-11-1.8-12.1-2C265.1,1990.9,262.5,1990.7,260.4,1990.7L260.4,1990.7L260.4,1990.7z"/>
				</g>
				<path class="st9" d="M284.1,2060.3c0,0,11.8,4.6,24-9.9c5.7-6.7,12.2-10.6,16.7-14.3c5.2-4.2,6.5-4.8,8.9-9.6
					c5-10.3,8.7-22.2,9-10.2c0.3,10.6-13.9,24-13.9,24s4.2,1.3,12.1-1.4c7.3-2.5,9-3.6,10.8-3.6s-3.6,5.8-13,8
					c-9.5,2.2-20.1,9.3-22.2,16.2s-35,31.6-35,31.6L284.1,2060.3L284.1,2060.3L284.1,2060.3z"/>
				<g>
					<path class="st13" d="M320.6,2062.5c0,0-3.5-2.9-1.4-8.6s2.9-5.1,2.9-5.1s4.6,5.8,2.3,9.4
						C322.1,2061.9,320.6,2062.5,320.6,2062.5L320.6,2062.5L320.6,2062.5z"/>
					<path class="st13" d="M328.4,2051.7c0,0-0.6-4.1,4.4-6.6s5-1.6,5-1.6s-0.5,6.7-4.2,7.7C329.7,2052.2,328.4,2051.7,328.4,2051.7
						z"/>
					<path class="st13" d="M348.6,2047.9c0,0-3.6-0.4-4.7-5.2c-1-4.8-0.3-4.7-0.3-4.7s5.6,1.9,5.6,5.4S348.6,2047.9,348.6,2047.9
						L348.6,2047.9L348.6,2047.9z"/>
					<path class="st13" d="M336.5,2043.4c0,0,0.1-4.5,5.8-6.3c5.7-1.9,5.6-0.9,5.6-0.9s-1.6,7.1-5.8,7.6
						C337.9,2044.1,336.5,2043.4,336.5,2043.4L336.5,2043.4L336.5,2043.4z"/>
					<path class="st13" d="M328.6,2039.3c0,0,1.4-3.4,6.4-3.2s4.6,1,4.6,1s-3.4,5-6.8,4.1S328.6,2039.3,328.6,2039.3z"/>
					<path class="st13" d="M338,2032.5c0,0-2.7-3.5,0.6-8.4c3.3-5,3.8-4.2,3.8-4.2s3.1,6.5,0.1,9.4
						C339.5,2032.3,338,2032.5,338,2032.5L338,2032.5z"/>
					<path class="st13" d="M340.7,2021c0,0-3.6-2.4-2.1-8s2.2-5.1,2.2-5.1s4.9,5,3.1,8.7C342.1,2020.3,340.7,2021,340.7,2021z"/>
					<path class="st13" d="M338.8,2033.1c0,0-4.6,0.1-6.8-5.7c-2.2-5.8-1.2-5.8-1.2-5.8s7.4,1.3,8,5.7
						C339.6,2031.7,338.8,2033.1,338.8,2033.1z"/>
					<path class="st13" d="M322.8,2042.8c0,0-2.7-3.2,0.2-8.1s3.4-4.1,3.4-4.1s3.3,6,0.5,9C324.2,2042.5,322.8,2042.8,322.8,2042.8
						L322.8,2042.8L322.8,2042.8z"/>
				</g>
			</g>
			<path class="st9" d="M287,2076.5c1.1-9-0.4-61.8-0.3-68.8c0-1.2,0.3-1.8,0.1-10.5c0.2-5.3,0.3-11,0.3-11v-15.8
				c-0.3-15.8-0.3-5.7,0.2-26.5c0.2-8.1,0-6.9-0.1-23.5c-4.1,4.9-6.2,5.7-11.1,7.8c-10.2,4.3-18.5,5.4-28.8,2.2
				c-6.3-2-15.7-3-20.4-11c-0.5,10.2-0.6,16.6-0.8,25.5c-0.1,5.3-0.3,8.8-0.3,13c-0.2,13.2,0.1,6.4-0.4,23.5
				c-0.1,3,0.1,9.7-0.1,14.3c-0.1,5.2,0,5.4-0.1,8c0.1,7.2,0.1,6.1,0,9.4c-0.1,9.2,0.7,65.9,0.8,72.5"/>
			<path class="st9" d="M287,1936.5c1.1-9-0.4-61.8-0.3-68.8c0-1.2,0.3-1.8,0.1-10.5c0.2-5.3,0.3-11,0.3-11v-15.8
				c-0.3-15.8-0.3-5.7,0.2-26.5c0.2-8.1,0-6.9-0.1-23.5c-4.1,4.9-6.2,5.7-11.1,7.8c-10.2,4.3-18.5,5.4-28.8,2.2
				c-6.3-2-15.7-3-20.4-11c-0.5,10.2-0.6,16.6-0.8,25.5c-0.1,5.3-0.3,8.8-0.3,13c-0.2,13.2,0.1,6.4-0.4,23.5
				c-0.1,3,0.1,9.7-0.1,14.3c-0.1,5.2,0,5.4-0.1,8c0.1,7.2,0.1,6.1,0,9.4c-0.1,9.2,0.7,65.9,0.8,72.5"/>
			<g>
				<path class="st14" d="M60.8,1710.2c0,0,230-4.6,249,0c19.1,4.6,39.2,1,41.2-3.6c2.1-4.6,27.3,5.2,23.7-8.2
					c-3.6-13.4-18-27.3-44.3-23.7s-35.1-6.2-46.4-13.4c-11.3-7.2-26.8-76.3-76.8-54.7c-50,21.7-40.2,53.6-37.1,55.2
					c3.1,1.5,0,5.2-14.9,7.2c-14.9,2.1-31.4,11.9-22.2,15.5s-7.7,12.4-22.2,12.9s-23.7,5.7-18,5.7
					C98.5,1703,60.8,1710.2,60.8,1710.2L60.8,1710.2L60.8,1710.2z"/>
				<path class="st15" d="M109.7,1709.8c0,0,159.2-3.2,172.4,0c13.2,3.2,27.1,0.7,28.6-2.5c1.4-3.2,18.9,3.6,16.4-5.7
					s-12.5-18.9-30.7-16.4s-24.3-4.3-32.1-9.3c-7.9-5-14.4-62.8-43.5-38.7c-36.4,30.2-50.9,16.5-35.4,39.1c1.4,2,0,3.6-10.4,5
					c-10.3,1.4-21.8,8.2-15.3,10.7c6.4,2.5-5.4,8.6-15.4,8.9c-10,0.4-16.4,3.9-12.5,3.9C135.8,1704.8,109.7,1709.8,109.7,1709.8
					L109.7,1709.8L109.7,1709.8z"/>
			</g>
			<g>
				<path class="st14" d="M-107.4,1761.6c0,0,229.9-4.6,249,0s39.2,1,41.2-3.6c2.1-4.6,27.3,5.2,23.7-8.2
					c-3.6-13.4-18.1-27.3-44.3-23.7s-35.1-6.2-46.4-13.4c-11.3-7.2-26.8-76.3-76.8-54.7c-50,21.7-40.2,53.6-37.1,55.2
					c3.1,1.5,0,5.2-15,7.2c-14.9,2.1-31.5,11.9-22.2,15.5s-7.7,12.4-22.2,12.9s-23.7,5.7-18,5.7S-107.4,1761.6-107.4,1761.6
					L-107.4,1761.6L-107.4,1761.6z"/>
				<path class="st15" d="M-55.1,1767.7c0,0,159.2-3.2,172.4,0s27.1,0.7,28.6-2.5c1.4-3.2,18.9,3.6,16.4-5.7s-12.5-18.9-30.7-16.4
					s-24.3-4.3-32.1-9.3S85.1,1671,56,1695.1c-36.4,30.2-50.9,16.5-35.4,39.1c1.4,2,0,3.6-10.4,5s-21.8,8.2-15.4,10.7
					s-5.3,8.6-15.3,8.9c-10,0.4-16.4,3.9-12.5,3.9S-55.1,1767.7-55.1,1767.7L-55.1,1767.7L-55.1,1767.7z"/>
			</g>
			<path class="st16" d="M252.8,1678.4c0,0-106.8,241.4-188.2,280.6s94.9-24.8,105.1-40.5c10.2-15.7-39.7,98.3-26.1,127.3
				c0,0,48.8-61.5,74.3-96.6c3.4-4.6,48.8,107.9,53.5,102.8c0,0,3.9-110.7,31.4-81.3c32.2,34.4,97.2,61,97.2,61
				s-63.9-103.8-63.9-128.6c0,0,81,62.3,118.3,68.9C454.5,1972,259.6,1722.8,252.8,1678.4L252.8,1678.4L252.8,1678.4z"/>
			<path class="st17" d="M179,1783.1c0,0-60.3,72-96.2,87.8s81-19,87.1-28.5c6.1-9.5,22,8.7,20.5,43.5s28.4,17.5,41.4-22.1
				c0,0,20.6-36.4,19.9-42.7c-0.8-6.3,40.4,76.5,34.7,95.5c0,0,45.6-21.8,38.8-73.5l-2.5-25.9c0,0,19.9,34.8,69.5,62.5l53.5,33.2
				c0,0-72.6-80.7-97-117.1S228,1696.1,228,1696.1L179,1783.1L179,1783.1L179,1783.1z"/>
			<path class="st18" d="M193,1721.5c0,0-50.2,57.9-80.1,70.6s67.4-15.3,72.5-22.9s8.3,16.5,7,44.5s33.7,4.4,44.5-27.3
				c0,0,17.2-29.2,16.5-34.3c-0.6-5.1,18.9,47.1,14.1,62.3c0,0,33.1,15.9,36.9-19.1l13.5-33.2c0,0,11.1,14.8,52.4,37.1l44.5,26.7
				c0,0-60.4-64.9-80.8-94.1s-100.5-80.1-100.5-80.1L193,1721.5L193,1721.5L193,1721.5z"/>
			<path class="st19" d="M254.6,1556.1c0,0-60.2,154.8-106.2,179.9c-45.9,25.1,53.6-15.9,59.3-25.9s-7.6,31,3.8,60.2
				c0,0,27.7-82.8,37.3-94.6c0,0,33.5,41,31.6,71.1s-1,45.2-1,45.2s17.2-77,17.2-92.9c0,0,50.7,41,71.7,45.2
				C368.4,1744.4,258.4,1584.6,254.6,1556.1L254.6,1556.1L254.6,1556.1z"/>
			<g>
				<path class="st14" d="M274.4,1820.3c0,0,186.8-10.4,202.4-6.6c15.6,3.8,32,0.8,33.7-3s22.3,4.2,19.4-6.7
					c-3-10.9-14.7-22.3-36.2-19.4s-28.6-5.1-37.9-10.9s-21.9-62.3-62.7-44.6c-40.8,17.7-32.8,43.8-30.3,45c2.5,1.3,0,4.2-12.2,5.9
					s-25.7,9.7-18.1,12.6c7.6,3-6.3,10.1-18.1,10.5s-19.4,4.6-14.7,4.6S274.4,1820.3,274.4,1820.3L274.4,1820.3L274.4,1820.3z"/>
				<path class="st15" d="M313.8,1815.4c0,0,130-2.6,140.8,0s22.1,0.6,23.3-2c1.2-2.6,15.5,2.9,13.4-4.7c-2-7.6-10.2-15.5-25.1-13.4
					s-19.8-3.5-26.2-7.6c-6.4-4.1-11.8-51.3-35.5-31.6c-29.7,24.6-41.5,13.5-28.9,31.9c1.1,1.6,0,2.9-8.5,4.1s-17.8,6.7-12.5,8.7
					c5.2,2-4.4,7-12.5,7.3c-8.2,0.3-13.4,3.2-10.2,3.2S313.8,1815.4,313.8,1815.4L313.8,1815.4L313.8,1815.4z"/>
			</g>
		</g>
	</g>
</g>
<g id="Layer_2_00000052820466778528819570000011253427292970088325_">
	
		<linearGradient id="Sumatran_Background_00000041991795607767494530000015147694623823988623_" gradientUnits="userSpaceOnUse" x1="243.0312" y1="-1.3767" x2="243.0312" y2="2287.1001" gradientTransform="matrix(1 0 0 -1 0 2262)">
		<stop  offset="8.016948e-02" style="stop-color:#FCF5F7"/>
		<stop  offset="0.5776" style="stop-color:#82A1F0"/>
	</linearGradient>
	
		<rect id="Sumatran_Background" x="0.6" y="-25.1" style="fill:url(#Sumatran_Background_00000041991795607767494530000015147694623823988623_);" width="484.8" height="2288.5"/>
	
		<linearGradient id="SVGID_00000114069025299825183510000006155449449423011503_" gradientUnits="userSpaceOnUse" x1="806.9328" y1="1728.6266" x2="301.2403" y2="2020.5883">
		<stop  offset="0" style="stop-color:#988172"/>
		<stop  offset="1" style="stop-color:#8B7161"/>
	</linearGradient>
	<path style="fill:url(#SVGID_00000114069025299825183510000006155449449423011503_);" d="M251.5,1815.9c0,23.8,17.8,43.1,39.8,43.1
		c1.4,0,2.7-0.1,4-0.2c10,20.8,29.1,35.6,51.6,38.2c0,0.4-0.1,0.7-0.1,1.1c0,1.4,0.2,2.7,0.5,4c-5.7,0.2-10.3,4.1-10.3,9
		c0,5,4.8,9,10.7,9c0.4,0,0.7,0,1.1,0c3,4.8,8.9,8.1,15.8,8.1c3.8,0,7.3-1,10.2-2.7c13.2,23.7,32.4,54.1,48.2,70.6
		c17.5,18.3,21.4,28.6,22.6,49.1c-0.4,9.6-0.5,16.9-0.8,26.4c-0.2,6.9-0.4,11.5-0.5,17c-0.3,17.2,0.2,8.4-0.6,30.7
		c-0.1,3.9,0.2,12.7-0.2,18.7c-0.1,6.8,0,7.1-0.2,10.5c0.1,9.4-22.8,7.7-22.9,12c-0.1,9.9,23.5,62.2,23.8,85.1c0,0.8,0,1.7-0.1,2.6
		c-0.2,13.1,0,11.1-0.2,19.3h43.6v-697.1c-39.6,1.5-71.8,34.1-76.4,76c0,0.4-0.1,0.8-0.1,1.3c-0.1,1.1-0.2,2.3-0.2,3.4
		c-1.6,0.1-3.2,0.3-4.7,0.7c-11.7-7.4-25.4-11.6-39.9-11.6c-40.9,0-74.5,33.2-79.2,76.1c0,0.4-0.1,0.8-0.1,1.3c-0.3,3-0.4,6-0.4,9
		c0,6,0.6,11.9,1.7,17.6c0,0.5-0.1,1-0.1,1.5c-16.2,0.9-29.9,12.3-35.3,28c-1.6,4.7-2.5,9.7-2.5,15c0,5.5,0.9,10.7,2.7,15.5
		C252,1807.9,251.5,1811.8,251.5,1815.9z M462.6,1870.6c5.5,3.1,11.8,4.9,18.4,4.9c1.4,0,2.7-0.1,4-0.2c0.1,0.1,0.1,0.2,0.2,0.4
		c-6.8,36.2-6.7,68.9-12.6,56.9c-4.6-9.4-24-35.7-31.4-51.7C449.4,1879.9,456.8,1876.2,462.6,1870.6z M407.2,1867.7
		c9.3,17.2,26.3,44.6,35.5,72c4.5,13.8-7.8,50.1-31.3,12.5c-7.7-12.3-13.6-21.8-18.3-29.5c2.4-1.5,4.1-3.9,4.2-6.6
		c7.3-1.3,12.8-6.8,12.8-13.4c0-7.6-7.3-13.7-16.3-13.7c-2.2,0-4.4,0.4-6.3,1.1c-0.4-0.7-0.9-1.5-1.4-2.1
		C394.4,1882.9,401.6,1876,407.2,1867.7z"/>
	<g id="Stage_9_Sumatran_Stump">
		<g>
			<g id="Top_Stump_Old_Growth_00000122678059214476972580000011952149713104334000_">
				<path class="st22" d="M290.3,2200.1c-8.4,2.9-15.1,3.8-23.7,4.6c-3.8,0-24.4-2.5-28.8-5.5c-5.8-4-12.6-11-12.6-12.5
					c-0.1-2.1,5.4-1.3,7.8-1.7c10.3-1.8,15.9-2.3,23.4-2.9c12.7-1.1,12.1-1.7,26.4,0c1.9,0.2,18.3,2.7,20.3,3.4c6,2.2,1.9,7,0.7,8.2
					c-4,5.3-7,3.3-11.8,5.6"/>
				<path class="st23" d="M270.1,2181c-3.6,0-6.6,0.4-13.6,1.1c-3.7,0.3-6.9,0.6-10.5,1c-2.7,0.7-5.4,1.7-8,2.8l-2.3,1
					c11.5,3.5,23.2,5.2,34.9,5.3h3.4c4.2-0.3,8.8,0.5,12.6-4c-6.1-1.8-12.2-2.8-18.4-2.9c-2.3,0-4.6,0.2-6.8,0.6h-0.5l0,0l6.8,1.5
					l-6.1-1.5c1.2,0,2.4,0,3.6,0c6.5-0.1,13.1,0.8,19.5,2.7c-3.3,2.7-7.2,2-10.8,2.3H272c-3.4,0-6.8-0.2-10.1-0.5
					c-7.1-0.6-14.3-1.9-21.4-3.8c4.8-1.6,9.6-2.8,14.5-3.3c4.5-0.5,9-0.7,13.6-0.7c9.8,0,19.5,1.1,29.2,3.3c0.4,0.2,3.4,1.2,2.3,2.1
					c-12.2,3.6-28.2,9.6-43,9.6c-10.5,0-20.5-3-28.2-12.1c8.1,9.8,18.5,13.1,29.4,13.1c14.6,0,30-5.7,42.1-9.3
					c0.1-0.1,0.3-0.2,0.4-0.3c0.1-0.2,0.2-0.4,0.3-0.6c0.1-0.2,0.1-0.5,0.1-0.8s0-0.5,0-0.8c-0.2-0.6-0.5-1.2-0.9-1.5
					s-0.8-0.6-1.2-0.7c-5.6-1-14.8-2.4-16.2-2.7C276.4,2181.3,273,2181,270.1,2181z"/>
			</g>
		</g>
	</g>
	<g id="Stage_10_Sumatran_Stump">
		<g>
			<path class="st23" d="M303.9,2259.9c1.5-12.1,1.4-109.5,1.5-118.9c0-1.7,0.4-2.3,0.1-14.1c0.3-7.1,0.4-14.8,0.4-14.8V2091
				c-0.4-21.2-0.3-7.6,0.2-35.6c0.2-10.9,0-9.3-0.2-31.6c-5.5,6.6-8.3,7.6-15,10.5c-13.7,5.8-24.8,7.2-38.6,2.9
				c-8.5-2.7-21-4-27.3-14.8c-0.7,13.7-0.8,22.2-1.1,34.2c-0.2,7.1-0.4,11.8-0.5,17.5c-0.3,17.7,0.2,8.6-0.6,31.6
				c-0.1,4,0.2,13.1-0.2,19.3c-0.1,7,0,7.2-0.2,10.8c0.1,9.7,0.1,8.2,0.1,12.6c-0.1,12.4,0.1,104.3,0.3,113.3"/>
			<g id="Top_Stump_Old_Growth_00000181048881037227966250000000596077239476416942_">
				<path class="st22" d="M290.3,2036.1c-8.4,2.9-15.1,3.8-23.7,4.6c-3.8,0-24.4-2.5-28.8-5.5c-5.8-4-12.6-11-12.6-12.5
					c-0.1-2.1,5.4-1.3,7.8-1.7c10.3-1.8,15.9-2.3,23.4-2.9c12.7-1.1,12.1-1.7,26.4,0c1.9,0.2,18.3,2.7,20.3,3.4c6,2.2,1.9,7,0.7,8.2
					c-4,5.3-7,3.3-11.8,5.6"/>
				<path class="st23" d="M270.1,2017.1c-3.6,0-6.6,0.4-13.6,1.1c-3.7,0.3-6.9,0.6-10.5,1c-2.7,0.7-5.4,1.7-8,2.8l-2.3,1
					c11.5,3.5,23.2,5.2,34.9,5.3h3.4c4.2-0.3,8.8,0.5,12.6-4c-6.1-1.8-12.2-2.8-18.4-2.9c-2.3,0-4.6,0.2-6.8,0.6h-0.5l0,0l6.8,1.5
					l-6.1-1.5c1.2,0,2.4,0,3.6,0c6.5-0.1,13.1,0.8,19.5,2.7c-3.3,2.7-7.2,2-10.8,2.3H272c-3.4,0-6.8-0.2-10.1-0.5
					c-7.1-0.6-14.3-1.9-21.4-3.8c4.8-1.6,9.6-2.8,14.5-3.3c4.5-0.5,9-0.7,13.6-0.7c9.8,0,19.5,1.1,29.2,3.3c0.4,0.2,3.4,1.2,2.3,2.1
					c-12.2,3.6-28.2,9.6-43,9.6c-10.5,0-20.5-3-28.2-12.1c8.1,9.8,18.5,13.1,29.4,13.1c14.6,0,30-5.7,42.1-9.3
					c0.1-0.1,0.3-0.2,0.4-0.3c0.1-0.2,0.2-0.4,0.3-0.6c0.1-0.2,0.1-0.5,0.1-0.8s0-0.5,0-0.8c-0.2-0.6-0.5-1.2-0.9-1.5
					s-0.8-0.6-1.2-0.7c-5.6-1-14.8-2.4-16.2-2.7C276.4,2017.4,273,2017.1,270.1,2017.1z"/>
			</g>
		</g>
	</g>
	<g>
		<path class="st24" d="M-137.6,1681c0,0,308.8-6.2,334.4,0s52.6,1.4,55.4-4.8c2.8-6.2,36.7,6.9,31.8-11.1
			c-4.8-18-24.2-36.7-59.5-31.8s-47.1-8.3-62.3-18s-36-102.5-103.2-73.4s-54,72-49.8,74.1s0,6.9-20.1,9.7
			c-20.1,2.8-42.2,15.9-29.8,20.8c12.5,4.8-10.4,16.6-29.8,17.3c-19.4,0.7-31.8,7.6-24.2,7.6C-87.1,1671.3-137.6,1681-137.6,1681z"
			/>
		<path class="st25" d="M-72,1680.4c0,0,213.8-4.3,231.5,0s36.4,1,38.3-3.4c1.9-4.3,25.4,4.8,22-7.7s-16.8-25.4-41.2-22
			s-32.6-5.8-43.1-12.5s-19.3-84.3-58.4-52c-48.9,40.5-68.3,22.2-47.6,52.5c1.8,2.7,0,4.8-13.9,6.7s-29.2,11-20.6,14.4
			s-7.2,11.5-20.6,12s-22,5.3-16.8,5.3S-72,1680.4-72,1680.4z"/>
	</g>
</g>
<g id="Layer_3" class="st0">
	
		<linearGradient id="SVGID_00000027586133785748308290000014357435564890858943_" gradientUnits="userSpaceOnUse" x1="244.1652" y1="-1.6001" x2="244.1652" y2="2262.019">
		<stop  offset="0.3323" style="stop-color:#CDD9F9"/>
		<stop  offset="0.5721" style="stop-color:#F7C6A2"/>
	</linearGradient>
	
		<rect x="-2.1" y="-1.6" style="display:inline;fill:url(#SVGID_00000027586133785748308290000014357435564890858943_);" width="492.6" height="2263.6"/>
	<path class="st27" d="M492.9,1788c-76.9,99.7-139.4,43.4-187.8,200.9c-51,166.1-62.3,147.2-204.9,209.5
		c-29.5,12.9-58.8,36.3-86.8,65.3h479.5V1788z"/>
	<path class="st28" d="M-1.3,1966.9c0,0,79.4,40.5,88.9,103.3c159.1,98.3,78.3,71.5,192.6,165.4s-237.2-117.6-0.5,13
		c26.3-78.2-23.1-19.3-23.1-19.3l41.2,30.2L0,2261L-1.3,1966.9z"/>
	<g id="Stage_9_Sumatran_Stump_00000144318625766688103170000018334545778360288433_" class="st1">
		<g>
			<path class="st29" d="M213.9,2257.9C217.6,2172.9,213.7,2248.5,213.9,2257.9"/>
			<path class="st29" d="M297.8,2259.6c-0.4-22.3-0.4-8,0.3-37.5c0.2-11.4,0-9.8-0.2-33.3c-5.8,6.9-8.7,8-15.8,11
				c-14.5,6.1-26.1,7.6-40.7,3.1c-9-2.8-22.2-4.2-28.8-15.6c-0.7,14.4-0.8,23.4-1.1,36.1c-0.2,7.5-0.4,12.5-0.5,18.4"/>
			<g id="Top_Stump_Old_Growth_00000063617109472471351290000002843830432571735993_">
				<path class="st22" d="M281.5,2224.5c-8.8,3.1-15.9,4-24.9,4.9c-4,0-25.7-2.6-30.4-5.8c-6.1-4.2-13.3-11.6-13.3-13.2
					c-0.1-2.3,5.6-1.3,8.3-1.8c10.8-1.9,16.8-2.4,24.7-3.1c13.4-1.2,12.7-1.8,27.8,0c2,0.3,19.3,2.8,21.3,3.6c6.3,2.3,2,7.4,0.7,8.6
					c-4.2,5.6-7.4,3.5-12.4,6"/>
				<path class="st23" d="M260.2,2204.4c-3.8,0-6.9,0.4-14.3,1.1c-3.9,0.4-7.3,0.6-11.1,1.1c-2.8,0.8-5.7,1.8-8.5,3l-2.4,1
					c12.2,3.6,24.4,5.5,36.8,5.6h3.6c4.5-0.3,9.3,0.5,13.3-4.2c-6.4-1.9-12.9-3-19.4-3.1c-2.4,0-4.8,0.2-7.1,0.6h-0.6l0,0l7.2,1.6
					l-6.4-1.6c1.3,0,2.6,0,3.8,0c6.9-0.1,13.8,0.9,20.6,2.8c-3.5,2.8-7.6,2.2-11.4,2.4h-1.9c-3.6,0-7.1-0.2-10.7-0.5
					c-7.5-0.6-15.1-2-22.5-4c5.1-1.7,10.2-2.9,15.3-3.5c4.7-0.5,9.5-0.8,14.3-0.8c10.3,0,20.6,1.2,30.8,3.5c0.4,0.2,3.6,1.2,2.5,2.3
					c-12.8,3.8-29.7,10.2-45.4,10.2c-11.1,0-21.7-3.2-29.8-12.7c8.5,10.3,19.5,13.8,31,13.8c15.3,0,31.7-6,44.4-9.8
					c0.1-0.1,0.3-0.2,0.4-0.4s0.2-0.4,0.3-0.6c0.1-0.2,0.1-0.5,0.1-0.8s0-0.6-0.1-0.8c-0.2-0.7-0.6-1.2-0.9-1.6s-0.8-0.6-1.2-0.7
					c-5.9-1.1-15.6-2.5-17.1-2.8C266.9,2204.7,263.2,2204.4,260.2,2204.4z"/>
			</g>
		</g>
	</g>
	<g id="Stage_10_Sumatran_Stump_00000025410361211046466010000001695214305115125403_" class="st1">
		<g>
			<g id="Top_Stump_Old_Growth_00000095321564792533924950000010482258823946794937_">
				<path class="st22" d="M281.5,2051.7c-8.8,3.1-15.9,4-24.9,4.9c-4,0-25.7-2.6-30.4-5.8c-6.1-4.2-13.3-11.6-13.3-13.2
					c-0.1-2.3,5.6-1.3,8.3-1.8c10.8-1.9,16.8-2.4,24.7-3.1c13.4-1.2,12.7-1.8,27.8,0c2,0.3,19.3,2.8,21.3,3.6c6.3,2.3,2,7.4,0.7,8.6
					c-4.2,5.6-7.4,3.5-12.4,6"/>
				<path class="st23" d="M260.2,2031.6c-3.8,0-6.9,0.4-14.3,1.1c-3.9,0.4-7.3,0.6-11.1,1.1c-2.8,0.8-5.7,1.8-8.5,3l-2.4,1
					c12.2,3.6,24.4,5.5,36.8,5.6h3.6c4.5-0.3,9.3,0.5,13.3-4.2c-6.4-1.9-12.9-3-19.4-3.1c-2.4,0-4.8,0.2-7.1,0.6h-0.6l0,0l7.2,1.6
					l-6.4-1.6c1.3,0,2.6,0,3.8,0c6.9-0.1,13.8,0.9,20.6,2.8c-3.5,2.8-7.6,2.2-11.4,2.4h-1.9c-3.6,0-7.1-0.2-10.7-0.5
					c-7.5-0.6-15.1-2-22.5-4c5.1-1.7,10.2-2.9,15.3-3.5c4.7-0.5,9.5-0.8,14.3-0.8c10.3,0,20.6,1.2,30.8,3.5c0.4,0.2,3.6,1.2,2.5,2.3
					c-12.8,3.8-29.7,10.2-45.4,10.2c-11.1,0-21.7-3.2-29.8-12.7c8.5,10.3,19.5,13.8,31,13.8c15.3,0,31.7-6,44.4-9.8
					c0.1-0.1,0.3-0.2,0.4-0.4c0.1-0.2,0.2-0.4,0.3-0.6c0.1-0.2,0.1-0.5,0.1-0.8s0-0.6-0.1-0.8c-0.2-0.7-0.6-1.2-0.9-1.6
					c-0.4-0.4-0.8-0.6-1.2-0.7c-5.9-1.1-15.6-2.5-17.1-2.8C266.9,2031.9,263.2,2031.6,260.2,2031.6z"/>
			</g>
		</g>
	</g>
	<g class="st1">
		<path class="st24" d="M157.8,1611.7c0,0,325.4-6.6,352.4,0s55.5,1.5,58.4-5.1s38.7,7.3,33.6-11.7s-25.5-38.7-62.8-33.6
			c-37.2,5.1-49.6-8.8-65.7-19s-37.9-108-108.7-77.3c-70.8,30.6-56.9,75.9-52.5,78.1s0,7.3-21.2,10.2c-21.2,2.9-44.5,16.8-31.4,21.9
			s-10.9,17.5-31.4,18.2c-20.4,0.7-33.6,8-25.5,8C211,1601.4,157.8,1611.7,157.8,1611.7z"/>
		<path class="st25" d="M227,1611c0,0,225.3-4.5,244,0s38.4,1,40.4-3.5c2-4.5,26.8,5.1,23.2-8.1c-3.5-13.1-17.7-26.8-43.4-23.2
			c-25.8,3.5-34.4-6.1-45.5-13.1c-11.1-7.1-20.4-88.9-61.5-54.8c-51.5,42.7-72,23.4-50.1,55.3c1.9,2.8,0,5.1-14.7,7.1
			s-30.8,11.6-21.7,15.2s-7.6,12.1-21.7,12.6s-23.2,5.6-17.7,5.6C263.8,1604.1,227,1611,227,1611z"/>
	</g>
	<g class="st1">
		<path class="st24" d="M116.4,1887.3c0,0,325.4-6.6,352.4,0s55.5,1.5,58.4-5.1s38.7,7.3,33.6-11.7c-5.1-19-25.5-38.7-62.8-33.6
			c-37.2,5.1-49.6-8.8-65.7-19s-37.9-108-108.7-77.3c-70.8,30.6-56.9,75.9-52.5,78.1s0,7.3-21.2,10.2c-21.2,2.9-44.5,16.8-31.4,21.9
			s-10.9,17.5-31.4,18.2c-20.4,0.7-33.6,8-25.5,8S116.4,1887.3,116.4,1887.3z"/>
		<path class="st25" d="M185.6,1886.7c0,0,225.3-4.5,244,0s38.4,1,40.4-3.5s26.8,5.1,23.2-8.1c-3.5-13.1-17.7-26.8-43.4-23.2
			c-25.8,3.5-34.4-6.1-45.5-13.1c-11.1-7.1-20.4-88.9-61.5-54.8c-51.5,42.7-72,23.4-50.1,55.3c1.9,2.8,0,5.1-14.7,7.1
			s-30.8,11.6-21.7,15.2c9.1,3.5-7.6,12.1-21.7,12.6c-14.1,0.5-23.2,5.6-17.7,5.6S185.6,1886.7,185.6,1886.7z"/>
	</g>
	<g id="Congrats_Amazon" class="st1">
		<g>
			<path class="st29" d="M299.7,2261.4c1.1-4.7-2.4-123.3-2.3-133.1c0-1.8,0.4-2.5,0.1-14.9c0.3-7.5,0.4-15.6,0.4-15.6v-22.3
				c-0.4-22.3-0.4-8,0.3-37.5c0.2-11.4,0-9.8-0.2-33.3c-5.8,6.9-8.7,8-15.8,11c-14.5,6.1-26.1,7.6-40.7,3.1
				c-9-2.8-22.2-4.2-28.8-15.6c-0.7,14.4-0.8,23.4-1.1,36.1c-0.2,7.5-0.4,12.5-0.5,18.4c-0.3,18.6,0.2,9-0.6,33.3
				c-0.1,4.2,0.2,13.8-0.2,20.3c-0.1,7.4,0,7.6-0.2,11.4c0.1,10.2,0.1,8.6,0.1,13.3c-0.1,13,0.9,116.2,1.1,125.6L299.7,2261.4z"/>
		</g>
		<g>
			<path class="st24" d="M-130.3,1696.5c0,0,264.4-14.7,286.4-9.4s45.3,1.2,47.7-4.2s31.6,6,27.4-9.5c-4.2-15.5-20.9-31.6-51.2-27.4
				s-40.5-7.1-53.6-15.5c-13.1-8.3-31-88.2-88.8-63.1s-46.5,62-42.9,63.7s0,6-17.3,8.3c-17.3,2.4-36.3,13.7-25.6,17.9
				s-8.9,14.3-25.6,14.9s-27.4,6.6-20.9,6.6S-130.3,1696.5-130.3,1696.5z"/>
			<path class="st25" d="M-74.6,1689.6c0,0,184-3.7,199.2,0c15.3,3.7,31.3,0.8,33-2.9c1.6-3.7,21.9,4.1,19-6.6s-14.4-21.9-35.5-19
				s-28-4.9-37.1-10.7c-9.1-5.8-16.6-72.5-50.2-44.7c-42.1,34.9-58.8,19.1-40.9,45.1c1.6,2.3,0,4.1-12,5.8s-25.2,9.5-17.7,12.4
				s-6.2,9.9-17.7,10.3s-19,4.5-14.4,4.5S-74.6,1689.6-74.6,1689.6z"/>
		</g>
		<path class="st29" d="M297.8,2019.8c0,0,7.9-67.5,11.1-71.8c20.2-26.6,36.6-22.4,46.2-46.6c9.7-24.3,25.6-35.9,37.7-56.5
			c9.6-16.3,16.6-21,37-54.5s49.3-102.4,44.2-101s-47.1,76.3-48.8,82c-1.7,5.7,1.7-31.4,1.7-50.6s-73.8,177.6-102.8,182.6
			s-34.1,12.7-12.5-15.2s20.9-46.6,27-66.7c5.6-18.5,19-66.5,36.6-91.5s21.6-45.7,20.4-57.8s-76.1-18.5-67,0.7
			c9.1,19.3-4.5,90.6-12.5,123.4s-21,82.7-38.6,94.9c-17.6,12.1-16.5,0.7-11.9-32.1c4.5-32.8,9.1-41.6,16.5-78
			c0.9-4.4,7.6,14.3,2.6-12.3c-5.4-28.6,10.6-45.9,7.6-82.4c-3.4-41.4-19.3-67.1-20.4-54.9c-1.1,12.1-4,134.1-14.8,179
			c-10.8,44.9-9.6,93.6-16.6,78.6c-5.8-12.4-34.3-51.8-35.5-65.3c-1.1-13.6,9.5-48.3,12.3-67.5c2.8-19.3,9.7-108.4,9.1-114.1
			c-0.6-5.7-8.5-2.9-8.5-2.9s-5.5,141.4-20.3,156.3c-14.8,15-12,22.4-17.2-9.4c-5.4-33.1-0.6-92-1.1-114.1s-12.5-26.4-14.2-8.6
			s1.3,127.8,2.8,145.5c0.8,9.4-9.7,6,4.5,18.8c22.4,20.2,27.4,39.1,36.9,69c4.8,15,5.4,53-32.4,13.6
			c-32.8-34.3-31.8-53.5-37.5-67.1s-25.3-1.6-33.3-30.1s-8.5,10-11.3-13.5H38.7c0,0,44,2.2,50.8,15.1c6.8,12.8,26.9,20.3,38.6,44.9
			c11.7,24.7,11.2,56.6,60.8,97.7c24.6,20.4,23.2,35,23.9,67.1c0.7,35.7,0.6,64.9,0.6,64.9l65.9-4.3L297.8,2019.8z"/>
		<g>
			<path class="st30" d="M157.2,1749.7c0-20.9-15-37.8-33.4-37.8c-4.6,0-9,1.1-13,3c-7.1-16.9-22.3-28.6-39.9-28.6
				c-24.3,0-44.1,22.3-44.1,49.8c0,3.8,0.4,7.5,1.1,11c-11.7,0.5-21.1,11.4-21.1,24.8c0,13.7,9.8,24.9,22,24.9c0.8,0,1.5,0,2.2-0.1
				c6.1,13.2,18.3,22.3,32.4,22.3c12.3,0,23.2-6.9,29.8-17.5c3.9,5.1,9.7,8.3,16.1,8.3c11.5,0,20.9-10.3,21.4-23.2
				C145.9,1783,157.2,1767.8,157.2,1749.7z"/>
			<g>
				<path class="st31" d="M32.5,1659.5c0,0.2-0.1,0.5-0.1,0.7c0.1,0,0.1,0,0.2,0C32.6,1659.9,32.5,1659.7,32.5,1659.5z"/>
				<path class="st32" d="M27.5,1763.3c0.7,0,1.4,0,2.2-0.1c5.9,12.8,17.7,21.6,31.3,21.6c11.9,0,22.5-6.7,28.9-17
					c3.8,4.9,9.4,8.1,15.6,8.1c11.1,0,20.2-9.9,20.7-22.4c14.8-3.6,25.8-18.5,25.5-36.4c0-1-0.1-2-0.2-3
					c-5.9-10.7-16.4-17.9-28.4-17.9c-4.6,0-9,1.1-13,3c-7.1-16.9-22.3-28.6-39.9-28.6c-22.6,0-41.2,19.2-43.8,43.9
					c0,0.2,0.1,0.5,0.1,0.7c-0.1,0-0.1,0-0.2,0c-0.2,1.7-0.2,3.4-0.2,5.2c0,3.8,0.4,7.5,1.1,11c-9.1,0.4-16.7,7-19.7,16.2
					C10.6,1756.8,18.4,1763.3,27.5,1763.3z"/>
			</g>
		</g>
		<g>
			<g>
				<path class="st31" d="M265.7,1627.2c0,0.3-0.1,0.6-0.1,1c0.1,0,0.2,0,0.3,0C265.8,1627.8,265.7,1627.5,265.7,1627.2z"/>
				<path class="st32" d="M427.4,1626.6c-7.6-13.9-21.2-23.1-36.7-23.1c-6,0-11.6,1.4-16.8,3.8c-9.1-21.9-28.8-37-51.6-37
					c-29.2,0-53.3,24.8-56.6,56.8c0.1,0.3,0.1,0.6,0.2,0.9c-0.1,0-0.2,0-0.3,0c-0.2,2.2-0.3,4.4-0.3,6.7c0,4.9,0.5,9.6,1.4,14.2
					c-11.7,0.5-21.6,9.1-25.5,20.9c3.9,11.9,14,20.3,25.8,20.3c0.9,0,1.9-0.1,2.8-0.2c7.6,16.6,22.9,27.9,40.6,27.9
					c0.1,0,0.1,0,0.2,0c-0.2,5.7-0.1,11.4,0.5,17.2c1.2,11,4.1,21.4,7.9,31.7c4.3,11.9,8.8,24.8,0.1,35.8
					c-10.8,13.6-29.2,21-29.8,40.9c-0.5,18.7,18.5,32.8,35.7,23.6c5.6-3,0.6-11.6-5-8.6c-9.2,4.9-19.3-2-20.6-11.7
					c-1.2-8.9,3.9-15.8,10-21.6c10.9-10.4,24-18.9,24.8-35.4c0.5-9.7-3.2-19.1-6.5-28.1c-3.4-9.4-6-19-6.9-29.1
					c-0.5-5.4-0.5-10.7-0.2-16.1c11.2-2.9,20.8-10.4,27.2-20.6c4.9,6.4,12.1,10.4,20.2,10.4c14.4,0,26.2-12.9,26.8-29
					c19.1-4.6,33.4-24,33-47.1C427.6,1629.2,427.6,1627.9,427.4,1626.6z"/>
			</g>
			<ellipse class="st32" cx="355.4" cy="1603.8" rx="22.4" ry="25.3"/>
		</g>
		<g>
			<path class="st30" d="M507.1,1733.3c0-21.7-15.6-39.4-34.8-39.4c-4.8,0-9.4,1.1-13.5,3.1c-7.4-17.6-23.2-29.8-41.6-29.8
				c-25.4,0-45.9,23.3-45.9,51.9c0,3.9,0.4,7.8,1.1,11.5c-12.2,0.6-22,11.9-22,25.9c0,14.3,10.3,25.9,22.9,25.9c0.8,0,1.6,0,2.3-0.1
				c6.3,13.8,19.1,23.2,33.8,23.2c12.9,0,24.2-7.2,31.1-18.3c4.1,5.3,10.1,8.7,16.8,8.7c12,0,21.8-10.7,22.3-24.1
				C495.3,1768,507.1,1752.2,507.1,1733.3z"/>
			<path class="st33" d="M385.7,1741.8c0-6.5-5.4-11.7-12.1-11.7c-1.7,0-3.3,0.3-4.7,0.9c-2.6-5.3-8-8.9-14.4-8.9
				c-8.8,0-15.9,6.9-15.9,15.5c0,1.2,0.1,2.3,0.4,3.4c-4.2,0.2-7.6,3.6-7.6,7.7c0,4.3,3.6,7.7,7.9,7.7c0.3,0,0.5,0,0.8,0
				c2.2,4.1,6.6,6.9,11.7,6.9c4.5,0,8.4-2.2,10.8-5.5c1.4,1.6,3.5,2.6,5.8,2.6c4.2,0,7.6-3.2,7.7-7.2
				C381.7,1752.2,385.7,1747.5,385.7,1741.8z"/>
			<path class="st33" d="M305.1,1701.6c0-4.5-4.2-8.2-9.4-8.2c-1.3,0-2.5,0.2-3.6,0.6c-2-3.7-6.2-6.2-11.2-6.2
				c-6.8,0-12.3,4.9-12.3,10.9c0,0.8,0.1,1.6,0.3,2.4c-3.3,0.1-5.9,2.5-5.9,5.4c0,3,2.8,5.4,6.2,5.4c0.2,0,0.4,0,0.6,0
				c1.7,2.9,5.1,4.9,9.1,4.9c3.5,0,6.5-1.5,8.4-3.8c1.1,1.1,2.7,1.8,4.5,1.8c3.2,0,5.9-2.2,6-5
				C302,1708.8,305.1,1705.5,305.1,1701.6z"/>
			<g>
				<path class="st31" d="M362,1692.2c0,0.3-0.1,0.5-0.1,0.8c0.1,0,0.1,0,0.2,0C362.1,1692.7,362.1,1692.5,362,1692.2z"/>
				<path class="st32" d="M492.3,1691.8c-6.1-11.2-17.1-18.6-29.6-18.6c-4.8,0-9.4,1.1-13.5,3.1c-7.4-17.6-23.2-29.8-41.6-29.8
					c-23.5,0-42.9,20-45.6,45.8c0,0.3,0.1,0.5,0.1,0.8c-0.1,0-0.1,0-0.2,0c-0.2,1.8-0.2,3.6-0.2,5.4c0,3.9,0.4,7.8,1.1,11.5
					c-9.4,0.4-17.4,7.3-20.6,16.9c3.1,9.6,11.3,16.4,20.8,16.4c0.8,0,1.5,0,2.2-0.1c3.6,7.8,9.3,14.1,16.2,18.1
					c-10.8,13.9-15.1,31.9-11.7,49.4c1.8,9.3,6,17.4,11.5,24.9c6.5,8.8,16.1,18.9,10.2,30.4c-4.8,9.4-14.3,15.2-18.5,25.1
					c-3.5,8.2-2.9,17.2,3.7,23.6c6.8,6.6,18.1,7.6,23,16.2c6.5,11.4-1.9,24.7-14.6,25.1c-6.4,0.2-6.4,10.1,0,9.9
					c20.2-0.7,33.5-21.9,23.2-40c-5.3-9.2-14.8-10.9-22.8-16.8c-12.5-9.2,2.6-22.7,9-30.4c6-7.2,10.3-15.5,8.4-25.1
					c-2.2-11.1-10.9-19.1-16.8-28.3c-11.9-18.6-9.5-44,5.1-60.3c2.2,0.5,4.4,0.7,6.7,0.7c12.4,0,23.4-7,30.1-17.7
					c4,5.1,9.8,8.4,16.3,8.4c11.6,0,21.1-10.4,21.6-23.3c15.4-3.7,26.9-19.3,26.6-37.9C492.5,1693.9,492.4,1692.8,492.3,1691.8z"/>
			</g>
		</g>
		<g>
			<path class="st30" d="M285.7,1664.1c0-21.7-15.6-39.4-34.8-39.4c-4.8,0-9.4,1.1-13.5,3.1c-7.4-17.6-23.2-29.8-41.6-29.8
				c-25.4,0-45.9,23.3-45.9,51.9c0,3.9,0.4,7.8,1.1,11.5c-12.2,0.6-22,11.9-22,25.9c0,14.3,10.3,25.9,22.9,25.9c0.8,0,1.6,0,2.3-0.1
				c6.3,13.8,19.1,23.2,33.8,23.2c12.9,0,24.2-7.2,31.1-18.3c4.1,5.3,10.1,8.7,16.8,8.7c12,0,21.8-10.7,22.3-24.1
				C273.9,1698.8,285.7,1683,285.7,1664.1z"/>
			<path class="st33" d="M195.4,1734.3c0-6.5-5.4-11.7-12.1-11.7c-1.7,0-3.3,0.3-4.7,0.9c-2.6-5.3-8-8.9-14.4-8.9
				c-8.8,0-15.9,6.9-15.9,15.5c0,1.2,0.1,2.3,0.4,3.4c-4.2,0.2-7.6,3.6-7.6,7.7c0,4.3,3.6,7.7,7.9,7.7c0.3,0,0.5,0,0.8,0
				c2.2,4.1,6.6,6.9,11.7,6.9c4.5,0,8.4-2.2,10.8-5.5c1.4,1.6,3.5,2.6,5.8,2.6c4.2,0,7.6-3.2,7.7-7.2
				C191.3,1744.6,195.4,1739.9,195.4,1734.3z"/>
			<path class="st33" d="M108.9,1809.8c0-4.5-4.2-8.2-9.4-8.2c-1.3,0-2.5,0.2-3.6,0.6c-2-3.7-6.2-6.2-11.2-6.2
				c-6.8,0-12.3,4.9-12.3,10.9c0,0.8,0.1,1.6,0.3,2.4c-3.3,0.1-5.9,2.5-5.9,5.4c0,3,2.8,5.4,6.2,5.4c0.2,0,0.4,0,0.6,0
				c1.7,2.9,5.1,4.9,9.1,4.9c3.5,0,6.5-1.5,8.4-3.8c1.1,1.1,2.7,1.8,4.5,1.8c3.2,0,5.9-2.2,6-5
				C105.7,1817,108.9,1813.7,108.9,1809.8z"/>
			<g>
				<path class="st31" d="M140.6,1623c0,0.3-0.1,0.5-0.1,0.8c0.1,0,0.1,0,0.2,0C140.7,1623.5,140.7,1623.3,140.6,1623z"/>
				<path class="st32" d="M152.2,1690.5c0.8,0,1.5,0,2.2-0.1c6.1,13.3,18.4,22.5,32.7,22.5c12.4,0,23.4-7,30.1-17.7
					c4,5.1,9.8,8.4,16.3,8.4c11.6,0,21.1-10.4,21.6-23.3c15.4-3.7,26.9-19.3,26.6-37.9c0-1.1-0.1-2.1-0.2-3.1
					c-6.1-11.2-17.1-18.6-29.6-18.6c-4.8,0-9.4,1.1-13.5,3.1c-7.4-17.6-23.2-29.8-41.6-29.8c-23.5,0-42.9,20-45.6,45.8
					c0,0.3,0.1,0.5,0.1,0.8c-0.1,0-0.1,0-0.2,0c-0.2,1.8-0.2,3.6-0.2,5.4c0,3.9,0.4,7.8,1.1,11.5c-9.4,0.4-17.4,7.3-20.6,16.9
					C134.5,1683.7,142.6,1690.5,152.2,1690.5z"/>
			</g>
		</g>
	</g>
	<path class="st34" d="M206.9,1629.2c-15.8,8.4-22.5,26.4-22.9,43.5c-0.2,11.3,2,22.6,3.7,33.8c2,13.5,1.8,26.7,0,40.2
		c-3.4,24.5-7.1,48.1-6.7,73c0.5,25.4,2.2,50.8,3.5,76.1c1.5,29,2.9,58,4.4,87c0.3,6.3,10.2,6.4,9.9,0c-2.5-48.5-5.2-97-7.4-145.5
		c-1-23.7-0.8-47,3-70.4c1.8-11.2,3.8-22.4,4.5-33.7c0.7-11.2-0.6-22.2-2.3-33.2c-3.2-20.8-7.2-50.2,15.2-62.1
		C217.5,1634.8,212.5,1626.2,206.9,1629.2z"/>
	<path class="st34" d="M74.7,1683.3c-11.2,11.9-18,27.2-19.1,43.6c-0.5,8.1,0.5,16.2,2.8,23.9c2.9,9.6,7.9,19.3,7.3,29.5
		c-0.5,9.3-5.7,17.6-8.2,26.4c-2.4,8.2-3.4,16.8-3.2,25.3c0.4,17.2,5.9,33.9,15.7,48c3.6,5.2,12.2,0.2,8.6-5
		c-9.3-13.3-14.5-28.9-14.4-45.2c0-8.4,1.5-16.7,4.3-24.7c2.6-7.5,6.1-14.5,7-22.5c1.9-16.9-9.2-31.7-10-48.4
		c-0.8-16.3,5.1-32.1,16.2-44C86.1,1685.6,79.1,1678.6,74.7,1683.3z"/>
	<g class="st1">
		<g>
			<g>
				<path class="st35" d="M70.9,1897c0,0-3-2.5-1-7.4c1.9-4.9,2.5-4.3,2.5-4.3s3.9,5,1.8,8.1S70.9,1897,70.9,1897z"/>
			</g>
			<g>
				<path class="st35" d="M78.1,1890.4c0,0-7.2,0.8-11.2-8c-4.1-8.8-2.5-8.8-2.5-8.8s11.7,1.2,13.2,7.9
					C79.1,1888.1,78.1,1890.4,78.1,1890.4z"/>
			</g>
			<g>
				<path class="st35" d="M61.4,1875.8c0,0,0.1-4.7,6.2-6.7c6.1-1.9,6-0.9,6-0.9s-1.7,7.5-6.2,8
					C62.8,1876.6,61.4,1875.8,61.4,1875.8z"/>
			</g>
			<g>
				<path class="st35" d="M71.3,1875.4c0,0-9.4,0.9-14.6-10.6c-5.2-11.6-3.2-11.6-3.2-11.6s15.2,1.7,17.1,10.5
					S71.3,1875.4,71.3,1875.4z"/>
			</g>
			<g>
				<path class="st35" d="M65.4,1867.4c0,0-9.2-1.4-11.5-13.7s-0.3-11.9-0.3-11.9s14.2,5.3,14,14.1S65.4,1867.4,65.4,1867.4z"/>
			</g>
			<g>
				<path class="st35" d="M49.3,1845.7c0,0,2.2-5.6,10.4-5.2c8.1,0.4,7.6,1.6,7.6,1.6s-5.4,8.2-11,6.8
					C50.6,1847.4,49.3,1845.7,49.3,1845.7z"/>
			</g>
			<g>
				<path class="st35" d="M61.4,1843c0,0-5.9-0.7-7.6-8.6s-0.4-7.6-0.4-7.6s9.2,3.1,9.3,8.8C62.6,1841.3,61.4,1843,61.4,1843z"/>
			</g>
			<g>
				<path class="st35" d="M53.4,1829.6c0,0-1.4-4.1,3.2-7.7s4.9-2.7,4.9-2.7s0.8,7-2.9,8.8C54.9,1829.9,53.4,1829.6,53.4,1829.6z"/>
			</g>
			<g>
				<path class="st35" d="M59.5,1821.2c0,0-4.2-1.2-4.5-7.1s0.6-5.6,0.6-5.6s6.3,3.3,5.7,7.4C60.6,1820.1,59.5,1821.2,59.5,1821.2z"
					/>
			</g>
			<g>
				<path class="st35" d="M53.2,1803.8c0,0,2.7-3.2,8.1-1.2c5.3,2.1,4.7,2.7,4.7,2.7s-5.4,4.2-8.8,2
					C53.7,1805.1,53.2,1803.8,53.2,1803.8z"/>
			</g>
			<g>
				<path class="st35" d="M53.6,1804.7c0,0-2.7-7.7,5.9-14.4c8.6-6.8,9-5.1,9-5.1s1.7,13.1-5.2,16.6
					C56.4,1805.2,53.6,1804.7,53.6,1804.7z"/>
			</g>
			<g>
				<path class="st35" d="M61.4,1792.3c0,0-2.2-4.3,2.3-9s4.9-3.7,4.9-3.7s2.1,7.6-1.7,10.2C63,1792.3,61.4,1792.3,61.4,1792.3z"/>
			</g>
			<g>
				<path class="st35" d="M69,1789.2c0,0-7.3-3.7-5.7-14.6c1.6-10.9,3.1-10,3.1-10s10.4,8.4,7.7,15.7
					C71.4,1787.6,69,1789.2,69,1789.2z"/>
			</g>
			<g>
				<path class="st35" d="M68.6,1773.2c0,0-3.5-2.3-2.1-7.7c1.4-5.4,2.1-4.8,2.1-4.8s4.7,4.8,3,8.3S68.6,1773.2,68.6,1773.2z"/>
			</g>
			<g>
				<path class="st35" d="M64.2,1765.6c0,0-3.5-5.2,1.6-11.9c5.1-6.7,5.8-5.5,5.8-5.5s3.8,9.4-0.7,13.3
					C66.3,1765.4,64.2,1765.6,64.2,1765.6z"/>
			</g>
			<g>
				<path class="st35" d="M55.3,1751.8c0,0,1.1-8,11.9-10c10.7-2,10.3-0.3,10.3-0.3s-4.6,12.4-12.3,12.2S55.3,1751.8,55.3,1751.8z"
					/>
			</g>
			<g>
				<path class="st35" d="M62.8,1750.2c0,0-6.6-4.9-3.3-15.5s4.7-9.4,4.7-9.4s8.9,10,5.1,16.9C65.5,1749,62.8,1750.2,62.8,1750.2z"
					/>
			</g>
			<g>
				<path class="st35" d="M64.7,1733.1c0,0-3.7-0.2-5-5s-0.5-4.7-0.5-4.7s5.8,1.6,6,5.1C65.4,1732,64.7,1733.1,64.7,1733.1z"/>
			</g>
			<g>
				<path class="st35" d="M48.6,1723.1c0,0,1.5-9.2,13.8-11.2c12.3-2.1,11.8-0.1,11.8-0.1s-5.4,14.1-14.3,13.7
					C51.1,1725.1,48.6,1723.1,48.6,1723.1z"/>
			</g>
			<g>
				<path class="st35" d="M50.6,1716.8c0,0-1.4-9,9.5-14.6c10.9-5.7,11-3.7,11-3.7s-0.8,14.8-9.2,17.1S50.6,1716.8,50.6,1716.8z"/>
			</g>
		</g>
	</g>
	<g class="st1">
		<g>
			<g>
				<path class="st35" d="M175.1,1978.9c0,0,4.8-5,13.3-1s7.3,5,7.3,5s-9.4,6.3-14.7,2.3C175.8,1981.2,175.1,1978.9,175.1,1978.9z"
					/>
			</g>
			<g>
				<path class="st35" d="M183.8,1980.6c0,0-5-3.1-3.2-10.7c1.8-7.7,2.8-6.9,2.8-6.9s6.9,6.6,4.5,11.6
					C185.6,1979.6,183.8,1980.6,183.8,1980.6z"/>
			</g>
			<g>
				<path class="st35" d="M189,1971.7c0,0-7.1-0.5-9.6-9.7c-2.5-9.3-1-9-1-9s11.2,3.2,11.5,9.9C190.3,1969.6,189,1971.7,189,1971.7z
					"/>
			</g>
			<g>
				<path class="st35" d="M179.6,1956c0,0-0.3-4.7,5.6-7.1c5.9-2.4,5.8-1.4,5.8-1.4s-1.1,7.6-5.5,8.4
					C181.1,1956.7,179.6,1956,179.6,1956z"/>
			</g>
			<g>
				<path class="st35" d="M174,1944.2c0,0,3.3-8.3,15.3-7.6c12,0.6,11.1,2.4,11.1,2.4s-8.1,12-16.2,9.8
					C176,1946.6,174,1944.2,174,1944.2z"/>
			</g>
			<g>
				<path class="st35" d="M184.1,1936.3c0,0,0-4.6,5.9-6.6s5.8-1,5.8-1s-1.6,7.4-5.9,7.9C185.5,1937.1,184.1,1936.3,184.1,1936.3z"
					/>
			</g>
			<g>
				<path class="st35" d="M196.3,1934.2c0,0-7.5-1.3-9-11.5c-1.5-10.1,0.1-9.7,0.1-9.7s11.4,4.7,11,11.9
					C197.9,1932.1,196.3,1934.2,196.3,1934.2z"/>
			</g>
			<g>
				<path class="st35" d="M193.6,1921.3c0,0-4.9-1.9-4.6-9.1c0.3-7.1,1.4-6.6,1.4-6.6s7.2,4.8,5.9,9.6
					C195,1920.1,193.6,1921.3,193.6,1921.3z"/>
			</g>
			<g>
				<path class="st35" d="M184.4,1902.8c0,0,2.7-3.9,8.8-2.2s5.5,2.5,5.5,2.5s-5.6,5.3-9.5,3.2
					C185.1,1904.3,184.4,1902.8,184.4,1902.8z"/>
			</g>
			<g>
				<path class="st35" d="M194.6,1900.3c0,0-5.3,0.6-8.3-5.9s-1.9-6.5-1.9-6.5s8.6,0.9,9.7,5.8S194.6,1900.3,194.6,1900.3z"/>
			</g>
			<g>
				<path class="st35" d="M186.9,1893.9c0,0-5.1-4.3-1.9-12.8c3.3-8.4,4.3-7.4,4.3-7.4s6.7,8.6,3.2,14
					C189.1,1893.1,186.9,1893.9,186.9,1893.9z"/>
			</g>
			<g>
				<path class="st35" d="M182.3,1878.8c0,0-0.9-4.8,4.9-8.1c5.8-3.3,5.9-2.2,5.9-2.2s-0.2,8-4.6,9.5
					C183.9,1879.4,182.3,1878.8,182.3,1878.8z"/>
			</g>
			<g>
				<path class="st35" d="M190.3,1870.2c0,0-4.5-0.2-6.1-6.1s-0.7-5.7-0.7-5.7s7.1,1.9,7.4,6.2S190.3,1870.2,190.3,1870.2z"/>
			</g>
			<g>
				<path class="st35" d="M190.5,1859.6c0,0-4.4,0.5-7-4.8s-1.6-5.4-1.6-5.4s7.1,0.6,8.2,4.7C191,1858.1,190.5,1859.6,190.5,1859.6z
					"/>
			</g>
			<g>
				<path class="st35" d="M186.2,1853.4c0,0-5.4-2.6-4.4-10.6s2.1-7.3,2.1-7.3s7.6,6,5.8,11.3
					C187.9,1852.2,186.2,1853.4,186.2,1853.4z"/>
			</g>
			<g>
				<path class="st35" d="M174.1,1841c0,0-0.3-8.3,10.1-12.3c10.4-4,10.3-2.2,10.3-2.2s-2.3,13.3-10.1,14.5
					C176.7,1842.4,174.1,1841,174.1,1841z"/>
			</g>
			<g>
				<path class="st35" d="M176,1826.5c0,0,1.4-5.2,8.7-5.7c7.3-0.4,6.9,0.7,6.9,0.7s-4.1,7.8-9.2,7.1S176,1826.5,176,1826.5z"/>
			</g>
			<g>
				<path class="st35" d="M181.6,1820.4c0,0-2.2-3.6,1.5-8.1c3.7-4.4,4.1-3.6,4.1-3.6s2.3,6.6-0.9,9.1
					C183.1,1820.3,181.6,1820.4,181.6,1820.4z"/>
			</g>
			<g>
				<path class="st35" d="M181.6,1815.4c0,0-4.5-6,1.2-14.4s6.6-7,6.6-7s5.2,11.1,0,16.1C184.2,1815.1,181.6,1815.4,181.6,1815.4z"
					/>
			</g>
			<g>
				<path class="st35" d="M184.4,1804.3c0,0-4.3-4.7-0.1-12.3c4.2-7.6,5-6.5,5-6.5s5.3,9,1.3,13.6
					C186.6,1803.8,184.4,1804.3,184.4,1804.3z"/>
			</g>
			<g>
				<path class="st35" d="M179.2,1787.2c0,0,2.9-7.1,13.3-6.5c10.4,0.6,9.6,2.1,9.6,2.1s-7,10.4-14.1,8.5S179.2,1787.2,179.2,1787.2
					z"/>
			</g>
			<g>
				<path class="st35" d="M190,1787.6c0,0-4.9-6.2,0.8-15.1s6.7-7.5,6.7-7.5s5.7,11.5,0.5,16.8C192.7,1787.2,190,1787.6,190,1787.6z
					"/>
			</g>
			<g>
				<path class="st35" d="M189.8,1774.8c0,0-1.8-7,6.3-12.3s8.4-3.8,8.4-3.8s0.5,11.7-5.9,14.2S189.8,1774.8,189.8,1774.8z"/>
			</g>
			<g>
				<path class="st35" d="M202.5,1764.4c0,0-5.3-0.1-7.4-7c-2.1-6.8-1-6.7-1-6.7s8.4,2,8.9,7
					C203.4,1762.8,202.5,1764.4,202.5,1764.4z"/>
			</g>
			<g>
				<path class="st35" d="M187.1,1748.8c0,0,3.2-7.5,14.2-6.7s10.2,2.4,10.2,2.4s-7.7,10.9-15.1,8.8S187.1,1748.8,187.1,1748.8z"/>
			</g>
			<g>
				<path class="st35" d="M197.2,1749.3c0,0-6.1-4.9-2.5-14.7c3.6-9.9,4.8-8.7,4.8-8.7s8,9.8,4.1,16.1S197.2,1749.3,197.2,1749.3z"
					/>
			</g>
			<g>
				<path class="st35" d="M187.3,1729.3c0,0,2.5-6.5,11.9-6.2c9.4,0.4,8.7,1.7,8.7,1.7s-6.2,9.5-12.6,7.9
					C188.9,1731.2,187.3,1729.3,187.3,1729.3z"/>
			</g>
			<g>
				<path class="st35" d="M187.9,1725.2c0,0-1.4-7.4,7.4-12.3c8.8-4.9,9-3.3,9-3.3s-0.3,12.2-7.1,14.3
					C190.4,1726.1,187.9,1725.2,187.9,1725.2z"/>
			</g>
			<g>
				<path class="st35" d="M201.8,1720.9c0,0-9.3-0.6-12.7-12.7c-3.3-12.2-1.3-11.9-1.3-11.9s14.7,4.1,15.2,13
					C203.6,1718.1,201.8,1720.9,201.8,1720.9z"/>
			</g>
			<g>
				<path class="st35" d="M188.8,1705.5c0,0-2.4-5.6,3.7-11c6.1-5.5,6.5-4.2,6.5-4.2s1.9,9.7-3.1,12.6S188.8,1705.5,188.8,1705.5z"
					/>
			</g>
			<g>
				<path class="st35" d="M187.5,1687.6c0,0,2.6-3.8,8.6-2c6,1.7,5.3,2.5,5.3,2.5s-5.5,5.1-9.4,3
					C188.2,1689.1,187.5,1687.6,187.5,1687.6z"/>
			</g>
			<g>
				<path class="st35" d="M193.2,1685.9c0,0-3.4-3.8,0-9.8s4.1-5.1,4.1-5.1s4.1,7.2,0.9,10.9C195,1685.5,193.2,1685.9,193.2,1685.9z
					"/>
			</g>
			<g>
				<path class="st35" d="M192.4,1678c0,0-3.8-5.7,1.7-13c5.6-7.4,6.3-6.1,6.3-6.1s4.2,10.3-0.7,14.6
					C194.8,1677.8,192.4,1678,192.4,1678z"/>
			</g>
			<g>
				<path class="st35" d="M203,1667.3c0,0-4.8-1.5-5-8.3s0.8-6.4,0.8-6.4s7.2,4,6.3,8.8C204.3,1666.1,203,1667.3,203,1667.3z"/>
			</g>
			<g>
				<path class="st35" d="M205.7,1665.2c0,0-8.2-4.6-5.8-17.1s4-11.3,4-11.3s11.5,10.2,8,18.4S205.7,1665.2,205.7,1665.2z"/>
			</g>
			<g>
				<path class="st35" d="M205.5,1655.2c0,0-6.3-6.7-0.5-17.7s7.1-9.4,7.1-9.4s7.8,12.9,2.2,19.6
					C208.7,1654.4,205.5,1655.2,205.5,1655.2z"/>
			</g>
			<g>
				<path class="st35" d="M209.5,1636.6c0,0-0.9-3.7,3.5-6.4c4.3-2.7,4.4-1.9,4.4-1.9s0.1,6.2-3.3,7.4S209.5,1636.6,209.5,1636.6z"
					/>
			</g>
		</g>
	</g>
	<g class="st1">
		<g>
			<g>
				<path class="st35" d="M314.9,1806.3c0,0,2.2-8.9,14.5-10s11.7,0.8,11.7,0.8s-6.5,13.4-15.1,12.4
					C317.3,1808.5,314.9,1806.3,314.9,1806.3z"/>
			</g>
			<g>
				<path class="st35" d="M311.8,1795.9c0,0,3-8.4,15-8.2s11.2,1.9,11.2,1.9s-7.6,12.4-15.9,10.5
					C313.9,1798.3,311.8,1795.9,311.8,1795.9z"/>
			</g>
			<g>
				<path class="st35" d="M322.6,1800.4c0,0-7.2,0.9-11.5-7.9s-2.7-8.9-2.7-8.9s11.8,1,13.5,7.7
					C323.6,1798,322.6,1800.4,322.6,1800.4z"/>
			</g>
			<g>
				<path class="st35" d="M302.8,1794.1c0,0-2.3-4.3,2.2-9.2c4.5-4.8,5-3.8,5-3.8s2.2,7.7-1.6,10.4
					C304.5,1794.1,302.8,1794.1,302.8,1794.1z"/>
			</g>
			<g>
				<path class="st35" d="M301.6,1791.1c0,0-6.6-3-5.6-12.7s2.4-8.9,2.4-8.9s9.4,7.1,7.3,13.6
					C303.7,1789.7,301.6,1791.1,301.6,1791.1z"/>
			</g>
			<g>
				<path class="st35" d="M299.1,1780.3c0,0-5.8-2.5-5.2-11s1.8-7.8,1.8-7.8s8.4,5.9,6.8,11.7S299.1,1780.3,299.1,1780.3z"/>
			</g>
			<g>
				<path class="st35" d="M299.9,1772.8c0,0-6.9-3.4-5.5-13.7c1.4-10.3,2.8-9.4,2.8-9.4s9.8,7.8,7.4,14.7
					C302.1,1771.3,299.9,1772.8,299.9,1772.8z"/>
			</g>
			<g>
				<path class="st35" d="M295,1753.3c0,0,1.3-4.6,7.6-4.9c6.4-0.4,6,0.6,6,0.6s-3.6,6.8-8,6.2C296.2,1754.5,295,1753.3,295,1753.3z
					"/>
			</g>
			<g>
				<path class="st35" d="M300.5,1748.2c0,0-0.4-5.6,6.5-8.6s6.9-1.8,6.9-1.8s-1.2,9-6.4,10.1C302.3,1749,300.5,1748.2,300.5,1748.2
					z"/>
			</g>
			<g>
				<path class="st35" d="M311.5,1747.3c0,0-6.3-4.9-2.7-15c3.5-10.1,4.8-8.9,4.8-8.9s8.3,9.9,4.4,16.4
					C314.1,1746.3,311.5,1747.3,311.5,1747.3z"/>
			</g>
			<g>
				<path class="st35" d="M314.4,1734.3c0,0-2.5-5,2.8-10.3s5.7-4.2,5.7-4.2s2.2,8.8-2.2,11.6S314.4,1734.3,314.4,1734.3z"/>
			</g>
			<g>
				<path class="st35" d="M319.7,1724.4c0,0-2.3-3.9,1.6-8.6c4-4.7,4.4-3.8,4.4-3.8s2.4,7-1,9.7
					C321.3,1724.4,319.7,1724.4,319.7,1724.4z"/>
			</g>
			<g>
				<path class="st35" d="M327.6,1720.3c0,0-8.1-1.5-9.6-12.5s0.2-10.5,0.2-10.5s12.3,5.2,11.8,13
					C329.4,1718.1,327.6,1720.3,327.6,1720.3z"/>
			</g>
			<g>
				<path class="st35" d="M309.7,1698.5c0,0,4-6.8,14.4-4.7s9.4,3.5,9.4,3.5s-8.7,9.5-15.6,6.5
					C311,1700.9,309.7,1698.5,309.7,1698.5z"/>
			</g>
			<g>
				<path class="st35" d="M310.5,1695.5c0,0-0.7-7.3,8.2-11.3c9-4.1,9-2.5,9-2.5s-1.3,11.8-8.1,13.3S310.5,1695.5,310.5,1695.5z"/>
			</g>
			<g>
				<path class="st35" d="M320,1684.6c0,0-3.8-0.2-5.1-5.2s-0.5-4.8-0.5-4.8s6,1.7,6.2,5.3C320.7,1683.4,320,1684.6,320,1684.6z"/>
			</g>
			<g>
				<path class="st35" d="M305.1,1667.5c0,0,4.5-5.1,13-1.6s7.4,4.6,7.4,4.6s-9,6.6-14.3,2.9S305.1,1667.5,305.1,1667.5z"/>
			</g>
			<g>
				<path class="st35" d="M306.6,1658.3c0,0,3.2-3.6,9.2-1.1s5.2,3.3,5.2,3.3s-6.3,4.7-10.1,2
					C307.2,1659.9,306.6,1658.3,306.6,1658.3z"/>
			</g>
			<g>
				<path class="st35" d="M307.7,1648.9c0,0,2.6-3.1,7.7-1.2s4.5,2.6,4.5,2.6s-5.2,4.1-8.4,2S307.7,1648.9,307.7,1648.9z"/>
			</g>
			<g>
				<path class="st35" d="M303.3,1648.2c0,0-1.3-8.6,9.1-13.9c10.4-5.4,10.5-3.5,10.5-3.5s-0.8,14.1-8.8,16.3
					C306.2,1649.3,303.3,1648.2,303.3,1648.2z"/>
			</g>
			<g>
				<path class="st35" d="M309.9,1636.5c0,0-2.4-4.2,1.9-9.1s4.8-4,4.8-4s2.4,7.5-1.3,10.3C311.6,1636.5,309.9,1636.5,309.9,1636.5z
					"/>
			</g>
		</g>
	</g>
	<g class="st1">
		<g>
			<g>
				<path class="st35" d="M387.9,1904.4c0,0-4.3-2.7-2.7-9.3c1.6-6.6,2.4-5.9,2.4-5.9s5.9,5.7,3.8,10
					C389.4,1903.5,387.9,1904.4,387.9,1904.4z"/>
			</g>
			<g>
				<path class="st35" d="M386,1888.3c0,0,3.8-4.8,11.6-2c7.8,2.8,6.9,3.8,6.9,3.8s-7.7,6.4-12.7,3.3
					C386.9,1890.3,386,1888.3,386,1888.3z"/>
			</g>
			<g>
				<path class="st35" d="M402.4,1887.1c0,0-5.3,0.3-7.9-6.3c-2.7-6.6-1.5-6.6-1.5-6.6s8.5,1.3,9.4,6.3
					C403.2,1885.4,402.4,1887.1,402.4,1887.1z"/>
			</g>
			<g>
				<path class="st35" d="M387.2,1873.6c0,0,1.4-6.6,10.5-7.7s8.7,0.3,8.7,0.3s-4.5,10.1-10.9,9.5S387.2,1873.6,387.2,1873.6z"/>
			</g>
			<g>
				<path class="st35" d="M388.5,1860.5c0,0,2.3-3.7,8-2.4c5.7,1.3,5.2,2.1,5.2,2.1s-4.9,5.1-8.6,3.4
					C389.2,1861.9,388.5,1860.5,388.5,1860.5z"/>
			</g>
			<g>
				<path class="st35" d="M391.5,1863c0,0-6.3-4.8-2.9-14.9s4.7-9,4.7-9s8.4,9.8,4.6,16.3C394.1,1861.9,391.5,1863,391.5,1863z"/>
			</g>
			<g>
				<path class="st35" d="M378.3,1846.8c0,0,0.9-8.6,12.3-11.1c11.3-2.5,11-0.7,11-0.7s-4.4,13.3-12.6,13.4
					S378.3,1846.8,378.3,1846.8z"/>
			</g>
			<g>
				<path class="st35" d="M373.1,1836.5c0,0,2.5-6.4,11.7-6.1c9.3,0.4,8.6,1.7,8.6,1.7s-6.1,9.4-12.5,7.8
					C374.6,1838.3,373.1,1836.5,373.1,1836.5z"/>
			</g>
			<g>
				<path class="st35" d="M373.7,1826.3c0,0,2.2-4.7,9.1-3.9c6.9,0.8,6.4,1.7,6.4,1.7s-5.1,6.7-9.8,5.2
					C374.7,1827.8,373.7,1826.3,373.7,1826.3z"/>
			</g>
			<g>
				<path class="st35" d="M381.1,1829.3c0,0-4.9-6.9,1.9-16.1s7.7-7.6,7.7-7.6s5.4,12.7-0.6,18.1
					C384.1,1829,381.1,1829.3,381.1,1829.3z"/>
			</g>
			<g>
				<path class="st35" d="M388,1809.3c0,0,2.9-2.9,7.9-0.5s4.3,3,4.3,3s-5.6,3.7-8.8,1.3C388.4,1810.7,388,1809.3,388,1809.3z"/>
			</g>
			<g>
				<path class="st35" d="M390.9,1805.3c0,0,1.6-5.9,9.8-6.4c8.2-0.5,7.7,0.7,7.7,0.7s-4.5,8.8-10.2,8S390.9,1805.3,390.9,1805.3z"
					/>
			</g>
			<g>
				<path class="st35" d="M399.3,1805.3c0,0-4.6-6.4,1.7-15s7.1-7.1,7.1-7.1s5.1,11.8-0.5,16.8C402,1805,399.3,1805.3,399.3,1805.3z
					"/>
			</g>
			<g>
				<path class="st35" d="M394.6,1786.1c0,0,2.7-6.8,12.5-6.3c9.9,0.5,9.1,1.9,9.1,1.9s-6.6,9.9-13.3,8.2
					C396.2,1788.1,394.6,1786.1,394.6,1786.1z"/>
			</g>
			<g>
				<path class="st35" d="M408.6,1784.6c0,0-6.9-0.4-9.4-9.5c-2.5-9-1-8.8-1-8.8s10.9,3,11.3,9.6
					C409.9,1782.5,408.6,1784.6,408.6,1784.6z"/>
			</g>
			<g>
				<path class="st35" d="M407.1,1773.4c0,0-6.5,1.4-11.2-6.3s-3.2-7.9-3.2-7.9s10.9-0.1,13,5.9
					C407.8,1771.2,407.1,1773.4,407.1,1773.4z"/>
			</g>
			<g>
				<path class="st35" d="M391.3,1762.3c0,0-1.5-4.3,3.3-8.1c4.8-3.8,5.1-2.9,5.1-2.9s1,7.4-2.9,9.3S391.3,1762.3,391.3,1762.3z"/>
			</g>
			<g>
				<path class="st35" d="M386.7,1762c0,0-6.3-6.1-1.2-16.9s6.3-9.3,6.3-9.3s8,11.9,2.9,18.6S386.7,1762,386.7,1762z"/>
			</g>
			<g>
				<path class="st35" d="M385.6,1748.6c0,0-4.8-1.8-4.5-8.7c0.2-6.9,1.2-6.4,1.2-6.4s7,4.5,5.8,9.2
					C386.9,1747.4,385.6,1748.6,385.6,1748.6z"/>
			</g>
			<g>
				<path class="st35" d="M383.3,1742.8c0,0-7.2-1.6-8.4-11.5s0.4-9.4,0.4-9.4s11,4.9,10.4,12C385,1740.9,383.3,1742.8,383.3,1742.8
					z"/>
			</g>
			<g>
				<path class="st35" d="M365.5,1732.8c0,0-2.3-8.7,7.9-15.4s10.5-4.7,10.5-4.7s0.6,14.7-7.4,17.8
					C368.5,1733.6,365.5,1732.8,365.5,1732.8z"/>
			</g>
			<g>
				<path class="st35" d="M376.6,1725.6c0,0-7.7-2.4-8-13.3s1.4-10.2,1.4-10.2s11.4,6.5,10,14
					C378.6,1723.7,376.6,1725.6,376.6,1725.6z"/>
			</g>
			<g>
				<path class="st35" d="M363.6,1705c0,0,2.7-6.4,12.1-5.8s8.7,2,8.7,2s-6.5,9.3-12.8,7.5C365.1,1706.9,363.6,1705,363.6,1705z"/>
			</g>
			<g>
				<path class="st35" d="M374.7,1707.2c0,0-6.5-5.7-2-16.4s5.7-9.4,5.7-9.4s8.4,11.2,3.8,18S374.7,1707.2,374.7,1707.2z"/>
			</g>
			<g>
				<path class="st35" d="M383.1,1695.1c0,0-5.3-2.6-4.3-10.4c1-7.9,2.1-7.2,2.1-7.2s7.5,5.9,5.7,11.2
					C384.8,1693.9,383.1,1695.1,383.1,1695.1z"/>
			</g>
			<g>
				<path class="st35" d="M388.5,1685.5c0,0-3.7-2.6-2-8.4s2.4-5.2,2.4-5.2s5,5.4,3,9.1C389.9,1684.8,388.5,1685.5,388.5,1685.5z"/>
			</g>
		</g>
	</g>
	<g class="st1">
		<g>
			<g>
				<path class="st35" d="M158.7,1866.1c0,0-0.5-6.4,7.5-9.9c8-3.4,8-2,8-2s-1.4,10.4-7.4,11.6
					C160.7,1867.1,158.7,1866.1,158.7,1866.1z"/>
			</g>
			<g>
				<path class="st35" d="M157.8,1854c0,0,0.8-5.8,8.6-7.2c7.7-1.4,7.5-0.2,7.5-0.2s-3.3,8.9-8.8,8.8
					C159.4,1855.2,157.8,1854,157.8,1854z"/>
			</g>
			<g>
				<path class="st35" d="M162.6,1853c0,0-6.1-5.5-1.7-15.6c4.4-10.1,5.6-8.8,5.6-8.8s7.8,10.8,3.3,17.1
					C165.3,1852.1,162.6,1853,162.6,1853z"/>
			</g>
			<g>
				<path class="st35" d="M157.1,1834.4c0,0,0-4.3,5.6-6.1c5.5-1.8,5.4-0.9,5.4-0.9s-1.5,6.8-5.6,7.3
					C158.4,1835.2,157.1,1834.4,157.1,1834.4z"/>
			</g>
			<g>
				<path class="st35" d="M165.6,1829.4c0,0-6.1,0.6-9.5-7c-3.4-7.5-2.1-7.5-2.1-7.5s9.9,1.1,11.2,6.8
					C166.4,1827.4,165.6,1829.4,165.6,1829.4z"/>
			</g>
			<g>
				<path class="st35" d="M146.3,1814.4c0,0,2.3-6.9,12.1-6.9c9.8-0.1,9.2,1.4,9.2,1.4s-6,10.2-12.7,8.8
					C148,1816.3,146.3,1814.4,146.3,1814.4z"/>
			</g>
			<g>
				<path class="st35" d="M141.3,1811.5c0,0-0.9-8.6,9.6-13.5c10.6-4.9,10.6-3,10.6-3s-1.4,14-9.4,15.9
					C144.1,1812.7,141.3,1811.5,141.3,1811.5z"/>
			</g>
			<g>
				<path class="st35" d="M139.4,1796.8c0,0,1.6-4.7,8.2-4.8c6.7-0.1,6.3,0.9,6.3,0.9s-4.1,7-8.7,6
					C140.6,1798.1,139.4,1796.8,139.4,1796.8z"/>
			</g>
			<g>
				<path class="st35" d="M143.7,1797.6c0,0-6.7-1.7-7.4-10.9c-0.7-9.3,0.7-8.8,0.7-8.8s10.1,5,9.2,11.5
					C145.3,1795.8,143.7,1797.6,143.7,1797.6z"/>
			</g>
			<g>
				<path class="st35" d="M121.7,1784c0,0,1.7-9,13.9-10.7s11.7,0.2,11.7,0.2s-5.8,13.8-14.5,13.2
					C124.1,1786.1,121.7,1784,121.7,1784z"/>
			</g>
			<g>
				<path class="st35" d="M129.3,1784.2c0,0-7.3-4.4-4.8-15.7c2.5-11.3,4-10.2,4-10.2s10.2,9.6,6.8,17
					C131.9,1782.7,129.3,1784.2,129.3,1784.2z"/>
			</g>
			<g>
				<path class="st35" d="M120.1,1774.1c0,0-5.1-6.3,0.8-15.6s6.9-7.8,6.9-7.8s6,11.8,0.6,17.3
					C122.8,1773.6,120.1,1774.1,120.1,1774.1z"/>
			</g>
			<g>
				<path class="st35" d="M111.2,1761c0,0-1.3-7,7.1-11.6c8.4-4.7,8.5-3.1,8.5-3.1s-0.3,11.5-6.8,13.6S111.2,1761,111.2,1761z"/>
			</g>
			<g>
				<path class="st35" d="M107.8,1745.8c0,0,2-4.3,8.4-3.7c6.4,0.7,5.9,1.6,5.9,1.6s-4.7,6.2-9,4.8S107.8,1745.8,107.8,1745.8z"/>
			</g>
			<g>
				<path class="st35" d="M110,1744.3c0,0-4.3-3.6-1.5-10.5c2.7-7,3.6-6.1,3.6-6.1s5.6,7.1,2.7,11.6
					C111.8,1743.6,110,1744.3,110,1744.3z"/>
			</g>
			<g>
				<path class="st35" d="M97.3,1735.7c0,0-1.7-9,9-15c10.7-6.1,10.9-4.1,10.9-4.1s-0.3,14.8-8.6,17.5S97.3,1735.7,97.3,1735.7z"/>
			</g>
			<g>
				<path class="st35" d="M102.6,1728.1c0,0-5.5-4.4-2.2-13.3s4.4-7.8,4.4-7.8s7.2,8.9,3.6,14.6S102.6,1728.1,102.6,1728.1z"/>
			</g>
		</g>
	</g>
</g>
</svg>
