<?xml version="1.0" encoding="UTF-8"?><svg xmlns="http://www.w3.org/2000/svg" xmlns:xlink="http://www.w3.org/1999/xlink" viewBox="0 0 194.89 214.64"><defs><style>.cls-1,.cls-2{fill:none;}.cls-3{clip-path:url(#clippath);}.cls-4,.cls-5{fill:#eb6a00;}.cls-6{fill:#f4900c;}.cls-7{fill:#e5c3b0;}.cls-8{fill:#a01c1c;}.cls-9{fill:#bf6f2c;}.cls-10{fill:#d19e8b;}.cls-11{fill:#c82320;}.cls-12{fill:#d9e0e8;}.cls-13{fill:#355687;}.cls-14{fill:#9acae5;}.cls-15,.cls-16{fill:#898683;}.cls-17{fill:#59382e;}.cls-18{fill:#496a91;}.cls-19{fill:#5e83a8;}.cls-20{fill:#513720;}.cls-16,.cls-5,.cls-2{mix-blend-mode:multiply;}.cls-21{clip-path:url(#clippath-1);}.cls-22{clip-path:url(#clippath-4);}.cls-23{clip-path:url(#clippath-3);}.cls-24{clip-path:url(#clippath-2);}.cls-25{isolation:isolate;}.cls-2{stroke:#eb6a00;stroke-miterlimit:10;stroke-width:.88px;}</style><clipPath id="clippath"><path class="cls-1" d="M95.34,92.76c1.56,.08,13.64,9.15,18.3,10.16,4.65,1.01,18.16-2.11,21.37-3.47s7.28-4.21,8.15-5.7,5.07,7.93,6.52,10.3,6.98,16.46,7.64,18.79,3.23,13.19,4.67,15.57,12.15,37.41,11.99,40.47,1.36,3.9,2.15,3.94,2.97,3.22,2.93,3.98l-.16,3.06s-8.85,4.13-12.72,3.16-4.2-2.14-4.2-2.14c0,0,.12-2.29-.66-2.33s-5.7-.98-5.5-4.8-2.15-3.94-2.81-6.28-4.51-18.62-5.21-20.19-2.23-2.42-2.15-3.94-2.23-2.42-2.93-3.98-7.59-14.78-12.37-18.27c-4.53-3.3-3.84-4.34-6.19-4.46s-7.65,3.95-9.62,11.51c-1.97,7.56-11.25,23.38-11.41,26.44s-6.82,18.4-6.94,20.7-2.12,6.25-2.16,7.02-14.99,1.51-17.21-.91,2.79-8.28,2.87-9.81,.48-9.17,1.35-10.65,2.96-14.82,3.54-15.33c.82-.72,1.5-9.4,1.58-10.93,.16-3.06,1.1-5.89,.47-8.99s3.57-19.42,3.57-19.42c0,0,.15-23.74,5.16-23.48Z"/></clipPath><clipPath id="clippath-1"><path class="cls-1" d="M88.51,20.93c-.53-1.64-3.64-5.41-2.6-7.68s0-9.82,3.1-10.58,8.28-4.53,15.52-1.51,15.24,10.36,14.86,10.09-9.69,8.8-15.9,9.56-14.99,.12-14.99,.12Z"/></clipPath><clipPath id="clippath-2"><path class="cls-1" d="M89.01,23.83c2.07,1.51,14.49-.76,21.73-4.53s6.21-3.02,9.31-5.29c2.07-1.51,1.03-4.53-1.03-3.78-6.1,5.57-26.91,10.58-30.01,10.58s0,3.02,0,3.02Z"/></clipPath><clipPath id="clippath-3"><path class="cls-1" d="M141.99,81.21c-.63-.34-17.83,6.73-34.24,3.28-9.52-2,1.69-16.81,3.45-16.4,9.25,2.13,16.38,4.46,20.48,4.07,2.99-.29,11.71-.47,12.94-1.24,1.67-1.05,4.39-3.8,5.59-4.55,1.9-1.19,2.11-.2,2.99-.29,.44-.04,.57,.27,.51,.79-.17,1.56,13.26,6.61,13.39,7.92,.17,1.76-.85,4.1-2.6,4.27l-22.5,2.16Z"/></clipPath><clipPath id="clippath-4"><path class="cls-1" d="M138.74,79.88q2.64-3.33,6.61-3.78c4.97-.57,8.29,2.06,9.4,2.94s5.31,2.41,6.31,2.29,12.27,1.6,15.25,1.26,13.26,1.49,13.26,1.49l.34,2.98s-28.27-.75-30.26-.52-7.72,2.91-9.7,3.14-5.85,1.68-9.06,.04c-3.21-1.64-4.78-6.49-2.14-9.82Z"/></clipPath></defs><g class="cls-25"><g id="Layer_2"><g id="Layer_6"><g><path class="cls-14" d="M54.95,35.37c-7.12,3.31-19.41,8.51-12.16,24.89,7.25,16.38,31.97,21.9,40.27,22.48,8.3,.58,30.67-1.41,36.6-5.46-20.74,3.46-41.34-2.07-41.34-2.07,0,0-21.78-2.49-28.44-16.3-6.82-14.15,5.08-23.54,5.08-23.54Z"/><path class="cls-14" d="M37.59,29.8c-9.81,4.56-26.74,11.71-16.75,34.27,9.99,22.56,36.81,32.2,50.81,32.2,16.45,0,35-5,48-12-38,7-53,2-53,2,0,0-26.88-5.04-36.05-24.05-9.4-19.49,7-32.43,7-32.43Z"/><path class="cls-14" d="M24.27,29.45c-12.02,5.73-32.76,14.71-20.54,43.01,12.22,28.3,46.06,33.62,59.92,35.81,19,3,50-12,60-19-49,17-59,12-59,12,0,0-37.75-7.28-48.97-31.14C4.18,45.7,24.27,29.45,24.27,29.45Z"/><g><g><g><path class="cls-9" d="M78.62,186.48c4.43-.5,17.74-2.73,16.74,2.35s-3.39,8.62-2.08,11.62c0,0,3.31,6.77,1,8.85s-19.13,1.19-21.25-.39-1-8.85,1.23-9.47,2.04-10.89,2.08-11.62,2.27-1.35,2.27-1.35Z"/><path class="cls-20" d="M71.95,205.92c-.77,.69-1.18,4.34-.49,5.11s6.43,3.27,12.28,3.58c6.58,.35,11.85-2.31,11.93-3.77,0,0,.19-3.66-.54-3.69-1.76,1.24-7.51,3.27-11.16,3.08s-10.34-2.59-12.02-4.3Z"/><path class="cls-20" d="M78.19,194.52c-.95,.41,2.16,.85,6.54,1.08s7.27,1.12,6.58,.35c-1.1-1.22-3.58-1.66-7.24-1.85s-4.39-.23-5.89,.42Z"/><path class="cls-20" d="M78,198.18c-.95,.41,2.16,.85,6.54,1.08s7.27,1.12,6.58,.35c-1.1-1.22-3.58-1.66-7.24-1.85s-4.39-.23-5.89,.42Z"/></g><g><path class="cls-9" d="M161,190.3c1.11,6.92,1.7,9.69-.69,12.99s-2.92,6.58,1.45,7.5c0,0,26.75,2.22,30.53,.36s1.42-12.95-5.19-13.3c-6.61-.35-8.52-5.94-7.57-10s-18.53,2.45-18.53,2.45Z"/><path class="cls-20" d="M172.05,194.98c-.49,.58,1.67,.27,4.61-.51s3.8-.6,3.31-1.11c-.7-.72-1.22-.84-3.67-.19s-3.48,.89-4.25,1.81Z"/><path class="cls-20" d="M174.11,197.83c-.49,.58,1.67,.27,4.61-.51s3.8-.6,3.31-1.11c-.7-.72-1.22-.84-3.67-.19s-3.48,.89-4.25,1.81Z"/><path class="cls-20" d="M158.32,206.33c.96-.8,2.15,.4,7.69,1.37s24.41,1.29,27.27,.07,1.14,4.86,.44,4.82-34.77-1.1-35.64-2-.74-3.46,.23-4.26Z"/></g><path class="cls-13" d="M95.34,92.76c1.56,.08,13.64,9.15,18.3,10.16,4.65,1.01,18.16-2.11,21.37-3.47s7.28-4.21,8.15-5.7,5.07,7.93,6.52,10.3,6.98,16.46,7.64,18.79,3.23,13.19,4.67,15.57,12.15,37.41,11.99,40.47,1.36,3.9,2.15,3.94,2.97,3.22,2.93,3.98l-.16,3.06s-8.85,4.13-12.72,3.16-4.2-2.14-4.2-2.14c0,0,.12-2.29-.66-2.33s-5.7-.98-5.5-4.8-2.15-3.94-2.81-6.28-4.51-18.62-5.21-20.19-2.23-2.42-2.15-3.94-2.23-2.42-2.93-3.98-7.59-14.78-12.37-18.27c-4.53-3.3-3.84-4.34-6.19-4.46s-7.65,3.95-9.62,11.51c-1.97,7.56-11.25,23.38-11.41,26.44s-6.82,18.4-6.94,20.7-2.12,6.25-2.16,7.02-14.99,1.51-17.21-.91,2.79-8.28,2.87-9.81,.48-9.17,1.35-10.65,2.96-14.82,3.54-15.33c.82-.72,1.5-9.4,1.58-10.93,.16-3.06,1.1-5.89,.47-8.99s3.57-19.42,3.57-19.42c0,0,.15-23.74,5.16-23.48Z"/><path class="cls-18" d="M100.92,106.07c2.47,.13,4.53,3.3,3.67,4.79s-.16,3.06,1.36,3.9,1.32,4.67,1.28,5.43-.52,9.93,1,10.78-.85,16.04-4.88,18.13c-4.03,2.09-7.65,11.09-5.46,14.27s.42,6.92-2.01,8.32-14.41,5.37-13.38,.83,2.87-9.81,4.68-14.31,5.22-9.68,3.94-15.11-.27-24.53,2.23-27.46,5.22-9.68,7.57-9.56Z"/><g class="cls-3"><path class="cls-18" d="M144.03,99.54c-1.65,1.45-.9,2.25,.66,2.33s-1.65,1.45-1.77,3.74,3.21-1.36,4.74-.52-.24,4.58-7.53,8.8-17.62,6.73-7.49,8.03c10.13,1.3,12.44,2.19,10.75,4.4s-5.02,5.86-.32,6.11,9.31,2.02,7.54,5.76-1.19,7.6,2.57,10.86,2.02,6.24,2.65,9.33,10.71,5.16,12.24,6.01,2.94-1.31,2.94-1.31l-20.48-67.79-6.5,4.25Z"/></g><path class="cls-19" d="M75.69,190.16c.12-2.29,1.33-9.12,3.02-9.03s.77,1.57,4.15,1.75c3.39,.18,13.5,1.48,15.24,.8,0,0-1.09,4.54-1.13,5.3s.6,4.63-1.09,4.54-11.93,.9-16.12-.09-4.07-3.28-4.07-3.28Z"/><path class="cls-19" d="M157.14,185.27c-2.9-.37-1.25,1.63-.2,3.82s2.57,3.97,2.57,3.97c0,0,5.38,3.35,11.04,1.35s11.2-1.71,11.32-4-3.25-8.6-6.02-8.74-8.59,4.91-18.7,3.61Z"/></g><path class="cls-12" d="M88.09,101.31c13.18,6.22,33.94,11.83,48.81,3.93,14.87-7.9-9.89-69.49-9.89-69.49l-37.09,5.58-1.83,59.97Z"/><path class="cls-8" d="M83.75,95.2c-1.1-6.92-4.92-8.87-5.67-15.97s-3.06-16.04-4.73-22.48-5.12-13.8,5.31-19.47,13.57-4.38,17.17-2.07,17.12,21.87,18.31,23.81,8.89,32.51,5.12,39.19-1.47,7.33-3.12,12.88-9.96,1.05-13.38,.51-15.72,3.22-17.11,.68-.79-10.09-1.9-17.08Z"/><path class="cls-8" d="M133.14,97.91c0,2.55-.05,11.52,2.08,13.08,2.97,2.17,8.6-3.71,10.42-5.23,3.13-2.62,6.25-4.36,9.38-6.11,3.13-1.74,3.13-6.98-1.04-13.08,0,0-4.93-11.47-4.33-19.3,.23-3,2-5.55,2-10,0-8,2-7-1-12,0,0-4.78-14.39-10-17-8-4-12.37-4.07-14.5-4.24-3.43-.27-11.77,3.22-10.72,4.09s6.25,9.6,9.38,13.08,4.17,14.83,4.17,16.57,5.21,28.79,5.21,30.53-1.04,9.6-1.04,9.6Z"/><path class="cls-11" d="M134.65,27.28c5.41-1.31,7.59,1.53,15.83,8.81,4.74,4.19,5.38,5.62,7.54,8.53s2.25,5.24,3.36,7.35c1.03,1.95,2.3,7.3,1.32,8.31s-2.01-3.25-6.4-5.39c-4.61-2.24-6.54,1.49-7.11,3.89-.57,2.4-2.77-3.85-3.58-5.43-1.22-2.41-.97-6.4-2.14-10.26-1.94-6.44-11.07-15.26-8.82-15.8Z"/><path class="cls-11" d="M88.99,41.79c5.71,6.16,4.95,11.99,7.29,13.71s15.56,9.19,16.83,11.78c2.6,5.33-2.75,16.53-5.99,16.84s-21.07-8.71-25.26-13.16c-4.44-4.73-8.81-7.11-10.26-10.86s-4.03-16.04,3.28-20.4c8.91-5.32,10.58-1.72,14.11,2.09Z"/><g><path class="cls-17" d="M89.01,23.83c1.03,2.27,3.1,1.51,3.1,4.53s-5.17,3.78-5.17,6.05,2.07,5.29,3.1,5.29,3.1-.76,3.1-.76l-1.03,4.53s1.03,3.02,3.1,2.27,6.21-3.02,6.21-3.02c0,0-1.03,3.78-1.03,4.53s3.1,3.02,3.1,3.02,2.07-.76,3.1-.76,4.14-1.51,4.14-1.51c0,0,0,2.27,1.03,2.27h9.31l2.68-2.75,3.53-1.78,4.14,1.51s3.1-3.78,3.1-4.53-3.1-7.56-3.1-7.56l4.14-1.51s-1.03-6.05-2.07-6.05-6.21-1.51-5.17-2.27,2.07-2.27,2.07-2.27c0,0-2.28-2.02-3.73-2.14s-2.48-2.39-2.48-2.39l-1.03-3.78-3.96-1.84-30.19,10.91Z"/><path class="cls-4" d="M88.51,20.93c-.53-1.64-3.64-5.41-2.6-7.68s0-9.82,3.1-10.58,8.28-4.53,15.52-1.51,15.24,10.36,14.86,10.09-9.69,8.8-15.9,9.56-14.99,.12-14.99,.12Z"/><g class="cls-21"><path class="cls-5" d="M86.42,3.04c4.14-1.51,8.28-3.02,6.21,0s-2.07,9.07,2.07,8.31,10.35-1.51,11.38,0,6.06,6.5,.96,7.03-24.77,5.06-24.77,5.06l4.14-20.4Z"/></g><g><path class="cls-7" d="M97.29,25.34l4.14,3.02c2.07,1.51,4.14,2.27,9.31,1.51,0,0,2.07,0,3.1-.76s7.24-3.02,8.28-6.05,1.03-5.29-1.03-6.8-1.41-4.36-3.81-3.69-21.93,9.84-21.93,9.84c0,0,.9,2.16,1.93,2.92Z"/><path class="cls-10" d="M115.4,24.96c1.03,.76,2.07,2.27,1.03,2.27s-1.03,0-2.07,.76,2.07,2.27,4.14,1.51,4.14-1.51,3.1-3.02-3.1-2.27-3.1-3.02-1.03-.76,0-1.51,3.1-3.02,3.1-3.78-2.07,2.27-4.14,3.02-2.07,2.27-5.17,3.02-6.21,.76-7.24,1.51,1.03,1.51,4.14,.76,5.17-2.27,6.21-1.51Z"/></g><path class="cls-4" d="M89.01,23.83c2.07,1.51,14.49-.76,21.73-4.53s6.21-3.02,9.31-5.29c2.07-1.51,1.03-4.53-1.03-3.78-6.1,5.57-26.91,10.58-30.01,10.58s0,3.02,0,3.02Z"/><g class="cls-24"><path class="cls-5" d="M93.19,25.3l-.92,.24-2.41-4.99,.92-.24,2.41,4.99Zm-.61-5.68l-.87,.28,2.88,4.85,.87-.28-2.88-4.85Zm-3.87,.69l-.92,.24,2.41,4.99,.92-.24-2.41-4.99Zm5.85-1.44l-.88,.31,3.1,4.78,.88-.31-3.1-4.78Zm3.1,0l-.88,.31,3.1,4.78,.88-.31-3.1-4.78Zm3.1-.76l-.88,.31,3.1,4.78,.88-.31-3.1-4.78Zm2.07-1.51l-.88,.31,3.1,4.78,.88-.31-3.1-4.78Zm3.1-.76l-.88,.31,3.1,4.78,.88-.31-3.1-4.78Zm12.42-6.05l-.88,.31,3.1,4.78,.88-.31-3.1-4.78Zm-2.07,.76l-.88,.31,3.1,4.78,.88-.31-3.1-4.78Zm-2.07,1.51l-.88,.31,3.1,4.78,.88-.31-3.1-4.78Zm-2.07,1.51l-.88,.31,3.1,4.78,.88-.31-3.1-4.78Zm-3.1,1.51l-.88,.31,3.1,4.78,.88-.31-3.1-4.78Zm10.35-6.05l-.88,.31,3.1,4.78,.88-.31-3.1-4.78Z"/><path class="cls-2" d="M89.01,23.83c2.07,1.51,14.49-.76,21.73-4.53s6.21-3.02,9.31-5.29c2.07-1.51,1.03-4.53-1.03-3.78-6.1,5.57-26.91,10.58-30.01,10.58s0,3.02,0,3.02Z"/></g><path class="cls-17" d="M107.34,26.56c-1.54-1.28,1.99-.18,4.77-1.24,1.08-.41,2.93-2.47,3.02-1.48s-1.81,2.17-2.81,2.26-3.89,1.36-4.98,.45Z"/><path class="cls-17" d="M117.25,22.98c-1.54-.67,1.09-.63,2.17-2.31,.42-.65,.83-1.15,1.81-1.31,0,0-.79,1.49-1.33,1.84s-1.57,2.25-2.66,1.78Z"/></g><path class="cls-7" d="M141.99,81.21c-.63-.34-17.83,6.73-34.24,3.28-9.52-2,1.69-16.81,3.45-16.4,9.25,2.13,16.38,4.46,20.48,4.07,2.99-.29,11.71-.47,12.94-1.24,1.67-1.05,4.39-3.8,5.59-4.55,1.9-1.19,2.11-.2,2.99-.29,.44-.04,.57,.27,.51,.79-.17,1.56,13.26,6.61,13.39,7.92,.17,1.76-.85,4.1-2.6,4.27l-22.5,2.16Z"/><g class="cls-23"><path class="cls-10" d="M102.91,75.91c2.99-.29,4.17,1.61,7.35,3.31s6.35,3.41,16.21,1.46c9.86-1.95,21.62-4.74,22.61-5.18,2.89-1.28,8.34-4.85,9.76-2.94l-3.41,6.35s-15.55,5.51-25.31,8.45-30.53-4.11-30.53-4.11l3.31-7.35Z"/></g><g id="axe"><path class="cls-6" d="M148.44,76.74c1.99-.23,6.45-3.43,8.2-5.65s7.06-7.17,9.16-6.41,4.91,5.44,2.16,7.77-11.76,10.43-11.76,10.43l-7.76-6.15Z"/><path class="cls-15" d="M137.65,80.28c2.64-3.33,3.72-3.72,7.7-4.18,4.97-.57,8.2,2.31,9.3,3.18s5.01,2.11,6,2,11,2,15,2,14,2,14,2l.25,1.77s-28.27-.75-30.26-.52-7.72,2.91-9.7,3.14-5.85,1.68-9.06,.04c-3.21-1.64-5.87-6.09-3.23-9.42Z"/><g class="cls-22"><path class="cls-16" d="M141.65,78.28c2-1,5.91-.43,9.12,1.21s5.53,2.49,7.41,3.17c2.1,.76,8.06,1.54,10.28,1.83,4.09,.53,17.5,2.02,18.34,1.9s3.1,.65,3.1,.65c0,0-21.21-.57-24.19-.22s-7.07-.19-11.92,1.38-10.14,2.08-13.14,.08-5-7,1-10Z"/></g></g><path class="cls-10" d="M150.89,61.61c1.97,1.71,4.62,1.9,4.21,4.05s-2.83,4.09-3.28,5.03,1.31,1.6,2.99,1.92,2-2.18,6.32-2.11,4.42,2.44,4.12,4.07c-.19,1.01-3.46,2.71-3.46,2.71,0,0,4.3,3.8,5.4,2.52s1.38-2.71,1.38-2.71c0,0,2.38,1.19,3.49-.09s.94-5.02,.37-6.61-5.46-3.25-6.87-5-.92-3.12-2.92-9.12c-1.79-5.36-7.47-4-10.12-3.75-1.22,.11-4.57,1.18-4.7,3.19-.16,2.37,1.09,4.18,3.06,5.89Z"/><path class="cls-7" d="M153.2,66.07c2.3,.2,3.8,1.88,6.97,1.46s6.35,1.28,3.46,2.56-6.87,1.66-7.77,2.75-9.15-1.13-9.15-1.13l6.49-5.64Z"/><path class="cls-7" d="M163.83,76.54c.18-2.47-.01-4.46,1.88-5.65s1.69,5.25,1.18,6.11-3.06-.46-3.06-.46Z"/><path class="cls-6" d="M151.65,82.28c-2.79-1.11-6-3-9-1s-2.06,4.34-.53,5.67,4.53,1.33,7.53,.33,4.21-1.11,6-2c2-1-4-3-4-3Z"/></g></g></g></g></g></svg>