<?xml version="1.0" encoding="UTF-8"?><svg xmlns="http://www.w3.org/2000/svg" xmlns:xlink="http://www.w3.org/1999/xlink" viewBox="0 0 177.28 213"><defs><style>.cls-1,.cls-2{fill:none;}.cls-3{clip-path:url(#clippath);}.cls-4,.cls-5{fill:#eb6a00;}.cls-6{fill:#f4900c;}.cls-7{fill:#e5c3b0;}.cls-8{fill:#a01c1c;}.cls-9{fill:#d8ae9a;}.cls-10{fill:#bf6f2c;}.cls-11{fill:#d19e8b;}.cls-12{fill:#c82320;}.cls-13{fill:#d9e0e8;}.cls-14{fill:#355687;}.cls-15,.cls-16{fill:#898683;}.cls-17{fill:#59382e;}.cls-18{fill:#496a91;}.cls-19{fill:#5e83a8;}.cls-20{fill:#513720;}.cls-16,.cls-5,.cls-2{mix-blend-mode:multiply;}.cls-21{clip-path:url(#clippath-1);}.cls-22{clip-path:url(#clippath-4);}.cls-23{clip-path:url(#clippath-3);}.cls-24{clip-path:url(#clippath-2);}.cls-25{clip-path:url(#clippath-5);}.cls-26{isolation:isolate;}.cls-2{stroke:#eb6a00;stroke-miterlimit:10;stroke-width:.88px;}</style><clipPath id="clippath"><path class="cls-1" d="M74.23,86.71c1.57,.04,13.92,9.03,18.61,9.94s18.1-2.73,21.27-4.24,7.16-4.58,7.98-6.14,5.31,8.04,6.83,10.45,7.47,16.79,8.2,19.18,3.62,13.54,5.14,15.94,13.27,38.29,13.2,41.45,1.48,3.99,2.26,4.01,3.07,3.24,3.05,4.03l-.07,3.16s-8.73,4.54-12.63,3.66c-3.9-.88-4.27-2.08-4.27-2.08,0,0,.05-2.37-.73-2.39s-5.73-.84-5.64-4.79-2.26-4.01-3-6.4-5.07-19.11-5.81-20.71-2.3-2.43-2.26-4.01-2.3-2.43-3.05-4.03-8.03-15.04-12.92-18.5c-4.63-3.27-3.97-4.36-6.33-4.42s-7.54,4.32-9.28,12.19-10.56,24.51-10.63,27.67-6.28,19.23-6.33,21.6-1.93,6.53-1.95,7.32-14.95,2.02-17.25-.41,2.55-8.64,2.58-10.22,.21-9.49,1.03-11.05,2.52-15.41,3.09-15.95c.8-.77,1.22-9.76,1.25-11.35,.07-3.16,.92-6.12,.21-9.3s2.99-20.18,2.99-20.18c0,0-.55-24.54,4.47-24.42Z"/></clipPath><clipPath id="clippath-1"><path class="cls-1" d="M19.45,39.62c-1-1.59,.07-3.12,2.14-3.08s-10.23-5.71-12.3-5.76S-.43,27.5,.02,28.21c1,1.59,2.04,1.61,4.07,3.22,1.61,1.27,2.02,2.39,6.13,4.05s9.23,4.13,9.23,4.13Z"/></clipPath><clipPath id="clippath-2"><path class="cls-1" d="M90.42,63.18c1.46,.03,10.3,2.59,12.36,3.42s5.23-2.22,10.46-4.44,10.53-7.57,13.71-10.62c0,0,3.06-2.58,7.3-2.17,5.26,.51,5.01,.59,6.2,.93,1.95,.56,5.15,1.5,5.11,3.25-.03,1.56,.98,2.37,.97,3.15s-1.54,1.88-4.23,3.81c-3.16,2.27-3.32,2.86-5.26,3.78-3.14,1.49-8.39,4.49-19.85,7.34s-13.58,5.15-13.55,3.59-3.02-3.98-5.11-3.25-2.14,3.08-1.12,3.88-.02,.78-3.11-.07c-1.18-.33-2.66-.89-4.09-1.5-1.11-.48-2.19-1.34-3.09-1.79-.97-.49-1.73-.57-2.05-.83-1.02-.81-2.02-2.39-.93-4.71s4.23-3.81,6.3-3.76Z"/></clipPath><clipPath id="clippath-3"><path class="cls-1" d="M50.73,77.09c-1.07,1.54-2.11,1.51-.1,4.69s3.02,3.98,5.04,6.37,3.04,3.2,5.11,3.25,8.41-5.27,8.49-9.18-3.86-12.6-3.78-16.5-2.95-7.1-2.95-7.1c0,0-4.12-.88-3.05-2.42s1.69-2.3,3.16-2.27c1.04,.02,1.02,.81,1.02,.81,0,0,1.07-1.54-2.02-2.39s-3.07-1.64-4.11-1.66-2.02-2.39-4.11-1.66-3.05-2.42-5.14-1.69-5.23,2.22-4.23,3.81-.03,1.56,2.02,2.39-.54,1.16,.46,2.75,10.23,5.71,10.22,6.49-.1,4.69-1.17,6.22-4.84,8.09-4.84,8.09Z"/></clipPath><clipPath id="clippath-4"><path class="cls-1" d="M69.09,21.39c-.5-1.7-3.52-5.68-2.43-8s.23-10.15,3.35-10.86,8.39-4.49,15.57-1.19,15.01,11.07,14.64,10.78-9.9,8.87-16.13,9.5c-6.23,.63-15-.23-15-.23Z"/></clipPath><clipPath id="clippath-5"><path class="cls-1" d="M69.52,24.39c2.04,1.61,14.51-.44,21.85-4.17,7.34-3.73,6.28-2.98,9.44-5.25,2.11-1.51,1.14-4.66-.95-3.93-6.23,5.61-27.17,10.3-30.27,10.22s-.07,3.12-.07,3.12Z"/></clipPath></defs><g class="cls-26"><g id="Layer_2"><g id="Layer_4"><g><g><path class="cls-10" d="M60.29,184.08c4.41-.65,17.67-3.37,16.82,1.91s-3.13,9.01-1.73,12.08c0,0,3.51,6.9,1.26,9.12s-19.1,1.82-21.26,.25-1.26-9.12,.95-9.82,1.72-11.32,1.73-12.08,2.23-1.46,2.23-1.46Z"/><path class="cls-20" d="M54.2,204.38c-.75,.74-1.05,4.52-.34,5.29s6.53,3.18,12.39,3.32c6.59,.16,11.79-2.75,11.82-4.26,0,0,.08-3.78-.65-3.8-1.73,1.34-7.41,3.61-11.07,3.52s-10.43-2.36-12.15-4.07Z"/><path class="cls-20" d="M60.11,192.4c-.94,.46,2.18,.81,6.58,.91s7.31,.93,6.59,.16c-1.13-1.22-3.63-1.6-7.29-1.69s-4.4-.1-5.88,.62Z"/><path class="cls-20" d="M60.02,196.19c-.94,.46,2.18,.81,6.58,.91s7.31,.93,6.59,.16c-1.13-1.22-3.63-1.6-7.29-1.69s-4.4-.1-5.88,.62Z"/></g><g><path class="cls-10" d="M142.81,185.5c1.31,7.11,1.99,9.96-.3,13.45s-2.72,6.89,1.67,7.7c0,0,26.83,1.47,30.55-.56,3.73-2.04,1.03-13.43-5.59-13.59-6.62-.16-8.7-5.87-7.87-10.1s-18.47,3.1-18.47,3.1Z"/><path class="cls-20" d="M154.02,189.99c-.47,.62,1.68,.23,4.6-.67,2.91-.9,3.79-.73,3.28-1.25-.72-.73-1.25-.83-3.68-.09-2.43,.75-3.45,1.03-4.2,2Z"/><path class="cls-20" d="M156.16,192.87c-.47,.62,1.68,.23,4.6-.67,2.91-.9,3.79-.73,3.28-1.25-.72-.73-1.25-.83-3.68-.09s-3.45,1.03-4.2,2Z"/><path class="cls-20" d="M140.62,202.15c.94-.86,2.16,.34,7.74,1.18,5.57,.84,24.46,.58,27.29-.77s1.29,4.99,.59,4.97-34.81-.07-35.71-.97-.84-3.55,.1-4.41Z"/></g><path class="cls-14" d="M74.23,86.71c1.57,.04,13.92,9.03,18.61,9.94s18.1-2.73,21.27-4.24,7.16-4.58,7.98-6.14,5.31,8.04,6.83,10.45,7.47,16.79,8.2,19.18,3.62,13.54,5.14,15.94,13.27,38.29,13.2,41.45,1.48,3.99,2.26,4.01,3.07,3.24,3.05,4.03l-.07,3.16s-8.73,4.54-12.63,3.66c-3.9-.88-4.27-2.08-4.27-2.08,0,0,.05-2.37-.73-2.39s-5.73-.84-5.64-4.79-2.26-4.01-3-6.4-5.07-19.11-5.81-20.71-2.3-2.43-2.26-4.01-2.3-2.43-3.05-4.03-8.03-15.04-12.92-18.5c-4.63-3.27-3.97-4.36-6.33-4.42s-7.54,4.32-9.28,12.19-10.56,24.51-10.63,27.67-6.28,19.23-6.33,21.6-1.93,6.53-1.95,7.32-14.95,2.02-17.25-.41,2.55-8.64,2.58-10.22,.21-9.49,1.03-11.05,2.52-15.41,3.09-15.95c.8-.77,1.22-9.76,1.25-11.35,.07-3.16,.92-6.12,.21-9.3s2.99-20.18,2.99-20.18c0,0-.55-24.54,4.47-24.42Z"/><path class="cls-18" d="M80.21,100.3c2.48,.06,4.63,3.27,3.81,4.84s-.07,3.16,1.48,3.99,1.46,4.78,1.44,5.57-.23,10.28,1.32,11.11-.37,16.61-4.34,18.88-7.32,11.69-5.04,14.91,.63,7.14-1.76,8.66-14.25,5.99-13.36,1.26,2.58-10.22,4.25-14.93,4.93-10.17,3.49-15.74-1-25.34,1.42-28.45,4.93-10.17,7.28-10.11Z"/><g class="cls-3"><path class="cls-18" d="M123.14,92.22c-1.6,1.54-.84,2.35,.73,2.39s-1.6,1.54-1.66,3.92,3.17-1.51,4.72-.68-.11,4.74-7.27,9.32-17.42,7.5-7.25,8.53c10.17,1.03,12.51,1.88,10.89,4.21s-4.84,6.21-.14,6.33,9.37,1.8,7.72,5.72-.96,7.89,2.89,11.14,2.21,6.38,2.92,9.56,10.87,5,12.42,5.83,2.91-1.45,2.91-1.45l-22.51-69.43-6.38,4.6Z"/></g><path class="cls-19" d="M57.47,187.97c.05-2.37,1.06-9.47,2.76-9.43s.81,1.6,4.21,1.68,13.55,1.11,15.27,.36c0,0-.95,4.72-.97,5.51s.74,4.76-.95,4.72-11.91,1.3-16.13,.41-4.17-3.26-4.17-3.26Z"/><path class="cls-19" d="M138.81,180.41c-2.91-.3-1.2,1.72-.09,3.95s2.69,4.02,2.69,4.02c0,0,5.48,3.29,11.08,1.05,5.6-2.24,11.15-2.11,11.2-4.48s-3.51-8.79-6.28-8.85-8.45,5.34-18.6,4.31Z"/><path class="cls-13" d="M79.21,101.21c13.34,5.79,33.95,10.97,47.58,3.47,13.64-7.49-16.16-65.25-16.16-65.25l-35.35,5.41,3.93,56.36Z"/><path class="cls-8" d="M47.39,41.06c-5.17,2.02,19.95-12.03,22.08-14.32s6.28-2.98,7.27-.61,15.98,26.95,16.84,34.79,1.08,44.57-.02,47.67-1.23,8.57-1.23,8.57c0,0-21.62-5.98-26.82-5.33-5.2,.66-.42-4.31,.67-6.63s-2.83-12.57-.74-13.3,7.46-9.2,5.63-20.19-18.96-32.49-23.67-30.65Z"/><path class="cls-12" d="M111.94,18.2s9.09,.68,13.07,3.22c5.11,3.25,11.2,8.86,11.15,11.21s1.98,3.95,1.97,4.74,3.97,7.91,5,7.93,4.06,4,4.02,5.57-.1,4.69-.65,5.85,.09-3.91-3.51-5.16c-3.9-1.36-10.83-2.21-12.92-1.48s-4.19,2.24-5.26,3.78c-1.13,1.63-1.97-1.7-2.14-2.09-1.37-3.07-10.73-33.55-10.73-33.55Z"/><path class="cls-8" d="M98.71,35.71c3.02,4.75,5.86,18.87,7.84,23.6s10.99,21.32,10.93,24.45-1.1,3.1,.93,5.49,8.09,10.32,8.03,13.45,2.97,7.09,2.97,7.09c0,0,11.43-5.11,10.01-10.67-1.41-5.56,2.71-4.7,2.76-7.04s-5.12-3.23-6.08-7.16-.56-25.02-2.6-26.62-7.2-2.49-10.24-6.46-5.14-29.41-7.17-31.79-10.31-2.55-12.4-1.81-4.99,17.48-4.99,17.48Z"/><path class="cls-12" d="M47.39,41.06c-4.45-.03-3.77,6.55-1.89,15.19s2.69,18.82,2.65,20.38-.14,6.25,1.88,8.64,1.93,6.3,5.02,7.15,5.13,2.47,8.27,.98,8.11-5.67,9.07-11.9-1.69-40.29-25-40.45Z"/><path class="cls-17" d="M69.52,24.39c.98,2.37,3.07,1.64,3,4.76s-5.26,3.78-5.32,6.13,1.95,5.52,2.98,5.54,3.12-.71,3.12-.71l-1.14,4.66s.97,3.15,3.05,2.42,6.28-2.98,6.28-2.98c0,0-1.12,3.88-1.14,4.66s3.04,3.2,3.04,3.2c0,0,2.09-.73,3.12-.71s4.18-1.46,4.18-1.46c0,0-.05,2.34,.98,2.37l9.32,.22,2.74-2.78,3.58-1.76,4.11,1.66s3.19-3.83,3.21-4.61-2.93-7.88-2.93-7.88l4.18-1.46s-.9-6.27-1.93-6.3-6.18-1.71-5.13-2.47,2.12-2.29,2.12-2.29c0,0-2.23-2.14-3.68-2.3s-2.43-2.53-2.43-2.53l-.95-3.93-3.92-2-30.46,10.56Z"/><g><path class="cls-6" d="M19.54,35.71c5.13,2.47,81.08,34.75,81.08,34.75,0,0,5.11,3.25,2.98,5.54s-7.21-.33-7.21-.33L18.43,38.81l1.11-3.1Z"/><g><path class="cls-15" d="M19.45,39.62c-1-1.59,.07-3.12,2.14-3.08s-10.23-5.71-12.3-5.76S-.43,27.5,.02,28.21c1,1.59,2.04,1.61,4.07,3.22,1.61,1.27,2.02,2.39,6.13,4.05s9.23,4.13,9.23,4.13Z"/><g class="cls-21"><path class="cls-16" d="M.39,28.12c1.68,.92,9.91,3.46,12.99,5.1,2.41,1.28,7.16,4.08,7.16,4.08l-1.05,.76L.02,28.21l-1.02-.81,1.39,.72Z"/></g></g></g><g><path class="cls-9" d="M85.1,69.31s-4.19,2.24-3.18,3.05,2.05,.83,6.21,.15c4.16-.68-3.04-3.2-3.04-3.2Z"/><path class="cls-7" d="M90.42,63.18c1.46,.03,10.3,2.59,12.36,3.42s5.23-2.22,10.46-4.44,10.53-7.57,13.71-10.62c0,0,3.06-2.58,7.3-2.17,5.26,.51,5.01,.59,6.2,.93,1.95,.56,5.15,1.5,5.11,3.25-.03,1.56,.98,2.37,.97,3.15s-1.54,1.88-4.23,3.81c-3.16,2.27-3.32,2.86-5.26,3.78-3.14,1.49-8.39,4.49-19.85,7.34s-13.58,5.15-13.55,3.59-3.02-3.98-5.11-3.25-2.14,3.08-1.12,3.88-.02,.78-3.11-.07-8.21-3.32-9.23-4.13-2.02-2.39-.93-4.71,4.23-3.81,6.3-3.76Z"/><g class="cls-24"><path class="cls-11" d="M98,71.57c1.05-.76,3.12-.71,5.18,.12s2.02,2.39,3.05,2.42,13.55-3.59,14.6-4.34,4.21-3.03,8.41-5.27c4.19-2.24,7.34-3.73,7.35-4.51s6.99-5.17,9.25-5.19,4.26,3.16,4.26,3.16l-20.02,15.15-28.08,4.8-4-6.35Z"/></g></g><g><path class="cls-11" d="M50.73,77.09c-1.07,1.54-2.11,1.51-.1,4.69s3.02,3.98,5.04,6.37,3.04,3.2,5.11,3.25,8.41-5.27,8.49-9.18-3.86-12.6-3.78-16.5-2.95-7.1-2.95-7.1c0,0-4.12-.88-3.05-2.42s-.38-2.35,1.09-2.32c1.04,.02,3.09,.85,3.09,.85,0,0,1.07-1.54-2.02-2.39s-3.07-1.64-4.11-1.66-2.02-2.39-4.11-1.66-3.05-2.42-5.14-1.69-5.23,2.22-4.23,3.81-.03,1.56,2.02,2.39-.54,1.16,.46,2.75,10.23,5.71,10.22,6.49-.1,4.69-1.17,6.22-4.84,8.09-4.84,8.09Z"/><g class="cls-23"><path class="cls-7" d="M47.78,46.93c-2.09,.73-4.02,2.23-4.13,3.41s.92,1.2,2.43,3.19-2.48,3.11,2.07,4.17,4.58-.5,5.6,.31-.07,3.12,5.11,3.25,5.26-3.78,5.26-3.78l2.23-6.98-18.57-3.57Z"/></g></g><path class="cls-4" d="M69.09,21.39c-.5-1.7-3.52-5.68-2.43-8s.23-10.15,3.35-10.86,8.39-4.49,15.57-1.19,15.01,11.07,14.64,10.78-9.9,8.87-16.13,9.5c-6.23,.63-15-.23-15-.23Z"/><g class="cls-22"><path class="cls-5" d="M67.41,2.85c4.18-1.46,8.35-2.93,6.21,.15s-2.28,9.32,1.88,8.64,10.39-1.32,11.39,.27,5.92,6.86,.8,7.29-24.9,4.64-24.9,4.64l4.61-20.99Z"/></g><g><path class="cls-7" d="M77.77,26.15l4.07,3.22c2.04,1.61,4.09,2.44,9.28,1.78,0,0,2.07,.05,3.12-.71s7.32-2.95,8.42-6.05,1.16-5.44-.88-7.05-1.31-4.54-3.73-3.91-22.17,9.65-22.17,9.65c0,0,.85,2.26,1.87,3.06Z"/><path class="cls-11" d="M95.9,26.19c1.02,.81,2.02,2.39,.98,2.37s-1.04-.02-2.09,.73,2.02,2.39,4.11,1.66,4.18-1.46,3.18-3.05-3.05-2.42-3.04-3.2-1.02-.81,.03-1.56,3.18-3.05,3.19-3.83-2.12,2.29-4.21,3.03-2.12,2.29-5.25,3-6.23,.63-7.28,1.39,1,1.59,4.12,.88,5.23-2.22,6.25-1.41Z"/></g><path class="cls-4" d="M69.52,24.39c2.04,1.61,14.51-.44,21.85-4.17,7.34-3.73,6.28-2.98,9.44-5.25,2.11-1.51,1.14-4.66-.95-3.93-6.23,5.61-27.17,10.3-30.27,10.22s-.07,3.12-.07,3.12Z"/><g class="cls-25"><path class="cls-5" d="M73.67,26.01l-.93,.22-2.29-5.21,.93-.22,2.29,5.21Zm-.48-5.89l-.88,.26,2.77,5.09,.88-.26-2.77-5.09Zm-3.89,.63l-.93,.22,2.29,5.21,.93-.22-2.29-5.21Zm5.88-1.35l-.89,.29,2.99,5.02,.89-.29-2.99-5.02Zm3.11,.07l-.89,.29,2.99,5.02,.89-.29-2.99-5.02Zm3.12-.71l-.89,.29,2.99,5.02,.89-.29-2.99-5.02Zm2.11-1.51l-.89,.29,2.99,5.02,.89-.29-2.99-5.02Zm3.12-.71l-.89,.29,2.99,5.02,.89-.29-2.99-5.02Zm12.57-5.95l-.89,.29,2.99,5.02,.89-.29-2.99-5.02Zm-2.09,.73l-.89,.29,2.99,5.02,.89-.29-2.99-5.02Zm-2.11,1.51l-.89,.29,2.99,5.02,.89-.29-2.99-5.02Zm-2.11,1.51l-.89,.29,2.99,5.02,.89-.29-2.99-5.02Zm-3.14,1.49l-.89,.29,2.99,5.02,.89-.29-2.99-5.02Zm10.49-6l-.89,.29,2.99,5.02,.89-.29-2.99-5.02Z"/><path class="cls-2" d="M69.52,24.39c2.04,1.61,14.51-.44,21.85-4.17,7.34-3.73,6.28-2.98,9.44-5.25,2.11-1.51,1.14-4.66-.95-3.93-6.23,5.61-27.17,10.3-30.27,10.22s-.07,3.12-.07,3.12Z"/></g><path class="cls-17" d="M87.79,27.65c-1.51-1.36,2-.14,4.8-1.17,1.09-.4,2.98-2.49,3.05-1.45s-1.86,2.2-2.86,2.27-3.93,1.31-4.99,.35Z"/><path class="cls-17" d="M97.79,24.19c-1.52-.73,1.11-.62,2.23-2.34,.43-.67,.85-1.17,1.85-1.31,0,0-.83,1.52-1.37,1.87s-1.62,2.29-2.7,1.78Z"/></g></g></g></g></svg>