<svg width="484" height="2261" viewBox="0 0 484 2261" fill="none" xmlns="http://www.w3.org/2000/svg">
<g clip-path="url(#clip0_440_4843)">
<g clip-path="url(#clip1_440_4843)">
<path d="M484 0H-45V2277H484V0Z" fill="url(#paint0_linear_440_4843)"/>
<path d="M-165.316 552.343C-165.316 552.343 -112.008 610.647 3.07107 630.092C118.15 649.538 73.219 656.564 158.849 726.968C244.479 797.373 131.32 837.165 308.7 935.113C486.079 1033.06 479.96 1204.48 479.96 1204.48L406.567 1443.24L-254 1632.88L-165.316 552.343Z" fill="#98B393"/>
<path d="M572.865 963.485C572.865 963.485 531.784 871.513 469.759 964.939C407.734 1058.37 357.671 1004.49 319.463 1129.05C281.255 1253.6 272.751 1239.47 165.922 1286.17C59.094 1332.87 -44.8818 1563.44 -44.8818 1563.44L410.788 1710.38L790 1673.64L572.865 963.485V963.485Z" fill="#C0CCAD"/>
<path d="M-31.2234 1205.97C-31.2234 1205.97 22.0848 1264.27 137.163 1283.72C252.242 1303.16 207.311 1310.19 292.942 1380.59C378.572 1451 265.413 1490.79 442.792 1588.74C620.171 1686.69 614.052 1858.1 614.052 1858.1L540.66 2096.86L-119.908 2286.51L-31.2234 1205.97V1205.97Z" fill="#C7D5C4"/>
<path d="M-1.67972 2074.26C-1.67972 2074.26 -73.4395 2100.19 123.706 1994.68C320.852 1889.15 313.312 1927.33 405.061 1765.1C496.81 1602.86 616.078 1501.86 686.416 1618.17C756.755 1734.48 600.161 2715.59 600.161 2715.59L7.50366 2766.06L-1.66912 2074.26H-1.67972Z" fill="#DFE7DD"/>
<path d="M316.876 1899.82C316.876 1899.82 279.071 1851.43 235.222 1792.36C240.026 1795.53 245.137 1798.68 250.62 1801.73L307.31 1837.01C307.31 1837.01 230.365 1751.33 204.448 1712.68C197.661 1702.55 185.636 1690.47 171.606 1678.15L172.105 1676.93C172.105 1676.93 183.876 1692.64 227.714 1716.27L274.925 1744.62C274.925 1744.62 210.864 1675.76 189.284 1644.72C186.559 1640.79 182.815 1636.5 178.361 1632C194.745 1643.59 214.183 1655.93 225.508 1658.18C225.508 1658.18 108.871 1488.54 104.82 1458.34C104.82 1458.34 40.9288 1622.65 -7.7559 1649.29C-46.3982 1670.43 12.0742 1647.39 40.8863 1631.65L39.5714 1633.91C39.5714 1633.91 -13.7049 1695.34 -45.4014 1708.84C-77.0979 1722.34 26.0826 1692.64 31.4802 1684.54C32.2756 1683.35 33.0285 1682.91 33.7178 1683.08L24.651 1699.23C24.651 1699.23 -39.3357 1775.67 -77.3948 1792.48C-111.286 1807.43 -16.8014 1779.78 8.92477 1766.42C-24.7441 1820.34 -62.7289 1869.65 -96.5675 1885.95C-182.855 1927.5 4.09978 1859.63 14.8844 1843.01C25.6691 1826.39 -27.1937 1947.32 -12.793 1978.13C-12.793 1978.13 38.9775 1912.88 66.0505 1875.61C66.8458 1874.51 69.8469 1879.59 74.0886 1888.07C73.9508 1897.67 74.2371 1893.21 73.675 1909.73C73.569 1912.91 73.8023 1920.05 73.5478 1924.95C73.4842 1930.48 73.5266 1930.67 73.4311 1933.49C73.5372 1941.13 73.5054 1939.93 73.4735 1943.48C73.4311 1948.55 73.622 1967.2 73.8341 1984.94C73.7917 1986.29 73.7387 1987.84 73.675 1989.65C73.569 1992.82 73.8023 1999.96 73.5478 2004.87C73.4842 2010.4 73.5266 2010.59 73.4311 2013.4C73.5372 2021.04 73.5054 2019.84 73.4735 2023.39C73.4099 2031.45 73.9295 2073.61 74.1946 2092.2C74.184 2092.89 74.1628 2093.58 74.1522 2094.3C73.8977 2108.28 74.3007 2101.09 73.6856 2119.25C73.5796 2122.42 73.8129 2129.56 73.5584 2134.47C73.4948 2140 73.5372 2140.19 73.4417 2143C73.5478 2150.64 73.516 2149.44 73.4842 2152.99C73.4099 2162.54 74.1522 2220.06 74.3219 2229.35C74.2583 2231.6 74.2052 2233.69 74.1628 2235.97C73.9083 2249.95 74.3113 2242.75 73.6962 2260.91C73.5902 2264.09 73.8235 2271.23 73.569 2276.14C73.5054 2281.67 73.5478 2281.86 73.4523 2284.67C73.5584 2292.31 73.5266 2291.11 73.4947 2294.66C73.4205 2303.14 74.0038 2349.42 74.2583 2366.2C74.2264 2367.43 74.1946 2368.66 74.1734 2369.95C73.9189 2383.93 74.3219 2376.74 73.7068 2394.9C73.6008 2398.07 73.8341 2405.22 73.5796 2410.12C73.516 2415.65 73.5584 2415.84 73.4629 2418.65C73.569 2426.29 73.5372 2425.1 73.5054 2428.64C73.4311 2437.81 74.1098 2491.22 74.3219 2503.68C74.2689 2505.63 74.2159 2507.47 74.1841 2509.48C73.9295 2523.46 74.3325 2516.26 73.7175 2534.42C73.6114 2537.6 73.8447 2544.74 73.5902 2549.64C73.5266 2555.17 73.569 2555.36 73.4735 2558.18C73.5796 2565.82 73.5478 2564.62 73.516 2568.16C73.4311 2577.79 74.1947 2636.15 74.3537 2644.75C74.2901 2647.05 74.2265 2649.18 74.1841 2651.52C73.9295 2665.5 74.3325 2658.3 73.7175 2676.46C73.6114 2679.64 73.8447 2686.78 73.5902 2691.68C73.5266 2697.21 73.569 2697.4 73.4735 2700.22C73.5796 2707.86 73.5478 2706.66 73.516 2710.2C73.4311 2719.99 73.6538 2778.49 73.8023 2785.54L74.3749 2785.47C74.3007 2788.1 74.2371 2790.47 74.1841 2793.08C73.9295 2807.06 74.3325 2799.86 73.7175 2818.02C73.6114 2821.2 73.8447 2828.34 73.5902 2833.24C73.5266 2838.77 73.569 2838.97 73.4735 2841.78C73.5796 2849.42 73.5478 2848.22 73.516 2851.77C73.4311 2861.55 73.6538 2920.05 73.8023 2927.11L138.669 2918.55C138.786 2912.14 138.807 2853.35 138.934 2845.97C138.956 2844.64 139.263 2844.11 139.019 2834.79C139.252 2829.16 139.295 2823.13 139.295 2823.13V2806.41C138.956 2789.68 139.019 2800.38 139.475 2778.29C139.645 2770.07 139.496 2770.85 139.337 2755.42C139.73 2754.41 139.751 2753.31 138.754 2752.4C138.796 2733.08 138.839 2708.96 138.924 2704.41C138.945 2703.08 139.252 2702.55 139.009 2693.23C139.242 2687.6 139.284 2681.57 139.284 2681.57V2664.85C138.945 2648.12 139.009 2658.82 139.465 2636.73C139.539 2633.37 139.549 2631.51 139.539 2629.43C140.016 2611.94 138.807 2568.79 138.924 2562.38C138.945 2561.05 139.252 2560.52 139.009 2551.2C139.242 2545.57 139.284 2539.54 139.284 2539.54V2522.82C138.945 2506.09 139.009 2516.79 139.465 2494.7C139.507 2492.63 139.528 2491.14 139.539 2489.81C140.005 2472.25 138.807 2429.26 138.924 2422.86C138.945 2421.53 139.252 2421 139.009 2411.68C139.242 2406.04 139.284 2400.01 139.284 2400.01V2383.3C138.966 2367.97 138.998 2375.67 139.358 2360.04C139.708 2354.72 139.687 2343.53 139.549 2331.51C139.592 2331.22 139.592 2330.93 139.549 2330.64C139.327 2312.61 138.849 2293.03 138.924 2288.88C138.945 2287.56 139.252 2287.03 139.009 2277.71C139.242 2272.07 139.284 2266.04 139.284 2266.04V2249.32C138.945 2232.6 139.009 2243.3 139.465 2221.21C139.528 2217.99 139.549 2216.15 139.539 2214.19C140.005 2196.65 138.807 2153.62 138.924 2147.22C138.945 2145.89 139.252 2145.36 139.009 2136.04C139.242 2130.4 139.284 2124.37 139.284 2124.37V2107.66C139.019 2094.91 138.998 2098.08 139.21 2090.54C139.772 2085.91 139.708 2071.21 139.507 2056.13C139.624 2055.67 139.634 2055.18 139.486 2054.72C139.252 2038.11 138.849 2021.43 138.924 2017.63C138.945 2016.54 139.146 2015.99 139.093 2010.74L139.199 2010.72C139.974 2004.54 139.581 1979.13 139.242 1959.83C139.305 1957.55 139.38 1954.43 139.475 1949.95C139.645 1941.72 139.496 1942.51 139.337 1927.08C139.687 1926.2 139.74 1925.24 139.093 1924.4C139.263 1919.48 139.295 1914.87 139.295 1914.87V1897.9C143.664 1892.08 149.178 1891.07 156.103 1898.5C190.206 1935.03 259.167 1963.22 259.167 1963.22C259.167 1963.22 191.458 1853.06 191.458 1826.75C191.458 1826.75 277.374 1892.93 316.918 1899.86L316.876 1899.82Z" fill="#BFB3AB"/>
<path d="M623.14 1271.2C623.14 1271.2 585.336 1222.81 541.487 1163.74C546.29 1166.92 551.402 1170.06 556.884 1173.12L613.575 1208.4C613.575 1208.4 536.63 1122.71 510.713 1084.06C503.926 1073.94 491.901 1061.86 477.871 1049.53L478.369 1048.31C478.369 1048.31 490.14 1064.02 533.979 1087.65L581.189 1116C581.189 1116 517.128 1047.15 495.549 1016.1C492.823 1012.17 489.08 1007.88 484.626 1003.38C501.01 1014.97 520.448 1027.31 531.773 1029.56C531.773 1029.56 415.136 859.922 411.085 829.725C411.085 829.725 347.193 994.033 298.509 1020.67C259.866 1041.82 318.339 1018.77 347.151 1003.03L345.836 1005.29C345.836 1005.29 292.56 1066.72 260.863 1080.22C229.167 1093.72 332.347 1064.02 337.745 1055.92C338.54 1054.74 339.293 1054.29 339.982 1054.46L330.916 1070.61C330.916 1070.61 266.929 1147.06 228.87 1163.86C194.978 1178.82 289.463 1151.17 315.189 1137.8C281.521 1191.72 243.536 1241.04 209.697 1257.33C123.409 1298.88 310.364 1231.02 321.149 1214.39C331.934 1197.77 279.071 1318.7 293.472 1349.51C293.472 1349.51 345.242 1284.27 372.315 1246.99C373.11 1245.9 376.112 1250.97 380.353 1259.45C380.215 1269.06 380.502 1264.59 379.94 1281.12C379.834 1284.29 380.067 1291.43 379.812 1296.34C379.749 1301.87 379.791 1302.06 379.696 1304.87C379.802 1312.51 379.77 1311.31 379.738 1314.86C379.696 1319.93 379.887 1338.58 380.099 1356.33C380.056 1357.68 380.003 1359.23 379.94 1361.03C379.834 1364.2 380.067 1371.35 379.812 1376.25C379.749 1381.78 379.791 1381.97 379.696 1384.78C379.802 1392.43 379.77 1391.23 379.738 1394.77C379.675 1402.83 380.194 1444.99 380.459 1463.58C380.449 1464.27 380.428 1464.96 380.417 1465.69C380.162 1479.67 380.565 1472.47 379.95 1490.63C379.844 1493.8 380.078 1500.95 379.823 1505.85C379.759 1511.38 379.802 1511.57 379.706 1514.38C379.812 1522.03 379.781 1520.83 379.749 1524.37C379.675 1533.93 380.417 1591.44 380.587 1600.73C380.523 1602.98 380.47 1605.07 380.428 1607.35C380.173 1621.33 380.576 1614.14 379.961 1632.3C379.855 1635.47 380.088 1642.62 379.834 1647.52C379.77 1653.05 379.812 1653.24 379.717 1656.05C379.823 1663.69 379.791 1662.5 379.759 1666.04C379.685 1674.52 380.268 1720.8 380.523 1737.58C380.491 1738.81 380.459 1740.04 380.438 1741.34C380.184 1755.32 380.587 1748.12 379.972 1766.28C379.865 1769.45 380.099 1776.6 379.844 1781.5C379.781 1787.03 379.823 1787.22 379.728 1790.04C379.834 1797.68 379.802 1796.48 379.77 1800.02C379.696 1809.19 380.374 1862.61 380.587 1875.07C380.534 1877.01 380.48 1878.86 380.449 1880.86C380.194 1894.84 380.597 1887.64 379.982 1905.81C379.876 1908.98 380.109 1916.12 379.855 1921.03C379.791 1926.56 379.834 1926.75 379.738 1929.56C379.844 1937.2 379.812 1936 379.781 1939.55C379.696 1949.18 380.459 2007.53 380.618 2016.13C380.555 2018.43 380.491 2020.57 380.449 2022.9C380.194 2036.88 380.597 2029.68 379.982 2047.84C379.876 2051.02 380.109 2058.16 379.855 2063.07C379.791 2068.6 379.834 2068.79 379.738 2071.6C379.844 2079.24 379.812 2078.04 379.781 2081.59C379.696 2091.37 379.918 2149.87 380.067 2156.93L380.64 2156.85C380.565 2159.49 380.502 2161.85 380.449 2164.46C380.194 2178.44 380.597 2171.25 379.982 2189.41C379.876 2192.58 380.109 2199.72 379.855 2204.63C379.791 2210.16 379.834 2210.35 379.738 2213.16C379.844 2220.8 379.812 2219.6 379.781 2223.15C379.696 2232.94 379.918 2291.43 380.067 2298.49L444.934 2289.93C445.05 2283.52 445.072 2224.73 445.199 2217.35C445.22 2216.03 445.528 2215.5 445.284 2206.18C445.517 2200.54 445.56 2194.51 445.56 2194.51V2177.79C445.22 2161.07 445.284 2171.77 445.74 2149.68C445.909 2141.45 445.761 2142.24 445.602 2126.8C445.994 2125.8 446.016 2124.69 445.019 2123.78C445.061 2104.46 445.104 2080.35 445.188 2075.79C445.21 2074.47 445.517 2073.93 445.273 2064.62C445.506 2058.98 445.549 2052.95 445.549 2052.95V2036.23C445.21 2019.5 445.273 2030.2 445.729 2008.12C445.803 2004.75 445.814 2002.89 445.803 2000.81C446.281 1983.32 445.072 1940.17 445.188 1933.76C445.21 1932.44 445.517 1931.91 445.273 1922.59C445.506 1916.95 445.549 1910.92 445.549 1910.92V1894.2C445.21 1877.48 445.273 1888.18 445.729 1866.09C445.772 1864.02 445.793 1862.52 445.803 1861.19C446.27 1843.64 445.072 1800.64 445.188 1794.24C445.21 1792.91 445.517 1792.38 445.273 1783.06C445.506 1777.43 445.549 1771.4 445.549 1771.4V1754.68C445.231 1739.35 445.263 1747.05 445.623 1731.42C445.973 1726.11 445.952 1714.91 445.814 1702.89C445.856 1702.61 445.856 1702.31 445.814 1702.02C445.591 1683.99 445.114 1664.42 445.188 1660.27C445.21 1658.94 445.517 1658.41 445.273 1649.09C445.506 1643.45 445.549 1637.42 445.549 1637.42V1620.71C445.21 1603.98 445.273 1614.68 445.729 1592.59C445.793 1589.37 445.814 1587.54 445.803 1585.57C446.27 1568.03 445.072 1525 445.188 1518.6C445.21 1517.27 445.517 1516.74 445.273 1507.42C445.506 1501.79 445.549 1495.76 445.549 1495.76V1479.04C445.284 1466.29 445.263 1469.47 445.475 1461.92C446.037 1457.29 445.973 1442.59 445.772 1427.52C445.888 1427.05 445.899 1426.56 445.75 1426.11C445.517 1409.49 445.114 1392.81 445.188 1389.01C445.21 1387.93 445.411 1387.37 445.358 1382.12L445.464 1382.1C446.238 1375.92 445.846 1350.51 445.507 1331.21C445.57 1328.93 445.644 1325.81 445.74 1321.33C445.909 1313.11 445.761 1313.89 445.602 1298.46C445.952 1297.58 446.005 1296.62 445.358 1295.78C445.528 1290.86 445.56 1286.25 445.56 1286.25V1269.28C449.929 1263.46 455.443 1262.46 462.367 1269.89C496.471 1306.41 565.431 1334.6 565.431 1334.6C565.431 1334.6 497.722 1224.45 497.722 1198.13C497.722 1198.13 583.639 1264.31 623.183 1271.24L623.14 1271.2Z" fill="#AC9C94"/>
<path d="M106 2235.69C82.734 2237.29 14.4313 2224.47 -0.913208 2224.47V2266.93L491.5 2266.93V2224.47L308.427 2224.47C288.628 2224.47 129.255 2234.09 105.989 2235.69H106Z" fill="#674836"/>
<path d="M90.6949 2260.8C90.6949 2260.8 88.2347 2258.51 90.1329 2253.35C92.0311 2248.19 92.2008 2246.41 91.6493 2250.88C91.0979 2255.36 90.9813 2260.24 91.872 2260.85C92.7628 2261.47 90.6949 2260.8 90.6949 2260.8V2260.8Z" fill="#6A8F25"/>
<path d="M88.5317 2264.78C88.5317 2264.78 81.0451 2257.8 86.835 2242.14C92.625 2226.47 93.1234 2221.04 91.4267 2234.64C89.73 2248.25 89.3907 2263.07 92.1054 2264.94C94.8201 2266.81 88.5317 2264.77 88.5317 2264.77V2264.78Z" fill="#6A8F25"/>
<path d="M79.5499 2271.33C79.5499 2271.33 66.8458 2259.48 76.6655 2232.9C86.4851 2206.33 87.3441 2197.08 84.4597 2220.19C81.5753 2243.31 80.992 2268.44 85.6155 2271.61C90.239 2274.79 79.5499 2271.33 79.5499 2271.33V2271.33Z" fill="#6A8F25"/>
<path d="M64.4704 2258.95C64.4704 2258.95 56.7928 2251.79 62.7207 2235.72C68.6591 2219.65 69.1787 2214.05 67.429 2228.03C65.6792 2242.01 65.3399 2257.2 68.1289 2259.12C70.9178 2261.04 64.4598 2258.95 64.4598 2258.95H64.4704Z" fill="#6A8F25"/>
<path d="M129.56 2270.86C129.56 2270.86 121.84 2263.66 127.81 2247.51C133.77 2231.35 134.3 2225.74 132.55 2239.78C130.801 2253.82 130.451 2269.1 133.25 2271.03C136.05 2272.96 129.571 2270.85 129.571 2270.85L129.56 2270.86Z" fill="#6A8F25"/>
<path d="M115.233 2269.6C115.233 2269.6 110.016 2264.73 114.046 2253.8C118.075 2242.88 118.436 2239.08 117.248 2248.58C116.061 2258.08 115.827 2268.41 117.725 2269.71C119.624 2271.02 115.233 2269.6 115.233 2269.6V2269.6Z" fill="#6A8F25"/>
<path d="M197.852 2266.24C197.852 2266.24 190.768 2259.63 196.24 2244.8C201.712 2229.97 202.2 2224.82 200.588 2237.71C198.976 2250.61 198.658 2264.63 201.235 2266.4C203.812 2268.18 197.852 2266.24 197.852 2266.24V2266.24Z" fill="#6A8F25"/>
<path d="M182.773 2268.53C182.773 2268.53 175.54 2261.77 181.129 2246.64C186.717 2231.5 187.216 2226.24 185.572 2239.4C183.928 2252.56 183.6 2266.88 186.23 2268.69C188.86 2270.51 182.773 2268.53 182.773 2268.53Z" fill="#6A8F25"/>
<path d="M167.63 2276.88C167.63 2276.88 157.789 2267.7 165.392 2247.1C172.995 2226.49 173.674 2219.33 171.437 2237.25C169.199 2255.16 168.754 2274.64 172.327 2277.1C175.901 2279.56 167.63 2276.88 167.63 2276.88V2276.88Z" fill="#6A8F25"/>
<path d="M152.529 2280.91C152.529 2280.91 141.829 2270.93 150.101 2248.54C158.372 2226.14 159.093 2218.36 156.665 2237.83C154.236 2257.3 153.749 2278.47 157.64 2281.16C161.532 2283.84 152.529 2280.91 152.529 2280.91Z" fill="#6A8F25"/>
<path d="M268.636 2260.74C268.636 2260.74 265.593 2257.9 267.947 2251.53C270.301 2245.16 270.503 2242.94 269.813 2248.49C269.124 2254.03 268.986 2260.05 270.089 2260.82C271.192 2261.58 268.636 2260.74 268.636 2260.74Z" fill="#6A8F25"/>
<path d="M256.558 2265.22C256.558 2265.22 249.877 2258.99 255.041 2245.01C260.206 2231.04 260.662 2226.16 259.145 2238.33C257.629 2250.49 257.321 2263.71 259.75 2265.38C262.178 2267.06 256.558 2265.23 256.558 2265.23V2265.22Z" fill="#6A8F25"/>
<path d="M241.521 2272.26C241.521 2272.26 232.984 2264.3 239.58 2246.43C246.176 2228.55 246.759 2222.34 244.819 2237.88C242.878 2253.42 242.486 2270.32 245.593 2272.45C248.7 2274.59 241.521 2272.26 241.521 2272.26V2272.26Z" fill="#6A8F25"/>
<path d="M253.249 2255.84C253.249 2255.84 251.531 2254.24 252.857 2250.66C254.183 2247.08 254.299 2245.83 253.907 2248.94C253.514 2252.05 253.44 2255.45 254.066 2255.88C254.692 2256.32 253.249 2255.84 253.249 2255.84Z" fill="#6A8F25"/>
<path d="M250.916 2275.43C250.916 2275.43 241.298 2266.47 248.732 2246.34C256.166 2226.22 256.823 2219.21 254.628 2236.71C252.433 2254.22 252.009 2273.25 255.497 2275.66C258.986 2278.07 250.906 2275.43 250.906 2275.43H250.916Z" fill="#6A8F25"/>
<path d="M266.229 2263.43C266.229 2263.43 261.457 2258.98 265.147 2249C268.838 2239.01 269.156 2235.54 268.074 2244.22C266.993 2252.9 266.77 2262.35 268.509 2263.54C270.248 2264.73 266.229 2263.43 266.229 2263.43V2263.43Z" fill="#6A8F25"/>
<path d="M281.372 2268.91C281.372 2268.91 274.363 2262.37 279.781 2247.7C285.2 2233.03 285.677 2227.93 284.087 2240.68C282.496 2253.44 282.178 2267.32 284.723 2269.08C287.268 2270.84 281.372 2268.92 281.372 2268.92V2268.91Z" fill="#6A8F25"/>
<path d="M465.538 2245.27C465.538 2245.27 463.396 2243.26 465.05 2238.77C466.705 2234.28 466.853 2232.72 466.365 2236.63C465.877 2240.54 465.782 2244.78 466.556 2245.32C467.33 2245.86 465.528 2245.27 465.528 2245.27H465.538Z" fill="#6A8F25"/>
<path d="M450.703 2270.34C450.703 2270.34 439.95 2260.31 448.264 2237.8C456.577 2215.28 457.309 2207.46 454.86 2227.03C452.421 2246.61 451.922 2267.89 455.835 2270.58C459.748 2273.28 450.703 2270.34 450.703 2270.34V2270.34Z" fill="#6A8F25"/>
<path d="M435.835 2256.7C435.835 2256.7 431.53 2252.68 434.86 2243.66C438.189 2234.63 438.486 2231.5 437.5 2239.35C436.525 2247.19 436.323 2255.72 437.893 2256.8C439.462 2257.87 435.835 2256.7 435.835 2256.7Z" fill="#6A8F25"/>
</g>
</g>
<defs>
<linearGradient id="paint0_linear_440_4843" x1="219.494" y1="2277" x2="219.494" y2="0" gradientUnits="userSpaceOnUse">
<stop offset="0.8" stop-color="#FBF5F7"/>
<stop offset="1" stop-color="#AE9FFA"/>
</linearGradient>
<clipPath id="clip0_440_4843">
<rect width="484" height="2261" fill="white"/>
</clipPath>
<clipPath id="clip1_440_4843">
<rect width="1044" height="2927" fill="white" transform="translate(-254)"/>
</clipPath>
</defs>
</svg>
