<?xml version="1.0" encoding="UTF-8"?><svg xmlns="http://www.w3.org/2000/svg" viewBox="0 0 428 2136.5"><defs><style>.ai{fill:#84a749;}.aj{fill:#c19f87;}.ak{fill:#e0a54f;}.al{fill:#715847;}.am{fill:#6d5341;}.an{opacity:.78;}</style></defs><g id="a"><g id="b" class="an"/></g><g id="c"><g id="d"><g><path id="e" class="am" d="M245.38,2075.19s6.08,15.65,14.14,20.8c9.31,5.95,1.5,6.38-2.96,5.75-4.46-.62-12.4-4.67-15.38-8.4-2.97-3.73-56.15,12.29-63.01,12.95-6.86,.66-14.67,1.82-15.76-.4s7.46-4.43,10.49-12.13c3.03-7.71,5.5-21.84,7.21-24.61,3.46-5.61,65.28,6.03,65.28,6.03Z"/><path class="am" d="M257.23,2101.91c-2.95-3.61-5.79-6.47-8.59-9.06-.69-.64-1.23-1.47-1.66-2.44-.2-2.75-.43-5.43-.43-5.43l-.02-.32c-.56-11.52-.67-34.48-1.9-52.45-.55-8.06-.64-9.45-.79-26.05-4.08,4.9-9.98,4.96-14.96,7.06-10.23,4.29-18.47,5.36-28.78,2.19-6.34-1.98-14.41-2.57-19.1-10.61,.71,12.37-.04,17.48,.15,26.42,.11,4.25-.21,11.31-.45,15.54-.66,11.54-.15,15.94-2.43,26.75-.54,2.92-.94,5.91-1.21,8.95-.34,2.58-.55,5.2-.65,7.84-.28,2.45-.58,5.47-.8,8.8-.54,8.38-4.65,10.41-9.77,12.1-5.12,1.69-7.48,4.06-7.48,4.06,0,0-10.23,8.65-3,6.16,3.49-1.2,13.9-5.7,18.18-5.79,4.28-.09,7.83,.15,12.41-3.1,4.57-3.24,3.66-5.34,10.98-4.22,4.42,.68,5.94,4.72,2.88,14.45-2.78,8.82-.7,15.09,3.16,14.21,1.39-.32,6.28-16.33,13.35-22.56,2.08-1.83,2.75-2.56,5.88-4.28,4.24-2.34,7.43-.46,14.38,4.62,5.4,3.95,6.81,6.11,9.1,7.78,2.29,1.67,4.66-1.44,1.86-5.42-2.8-3.98-3.81-3.42-6.56-10.94s4.28-1.71,10.02,2.05c6.09,3.98,16.76,6.04,19.51,5.49,2.4-.48-10.33-8.2-13.28-11.81Z"/><g id="f"><path class="aj" d="M230.71,2014.18c-6.25,2.19-12.57,3.6-18.92,4.21-2.82,0-17.59-2.11-20.88-4.39-4.31-2.94-9.96-7.9-9.96-9.03-.08-1.6,3.99-.95,5.84-1.28,7.65-1.36,11.85-1.68,17.43-2.19,9.44-.85,8.99-1.25,19.64,0,1.41,.18,13.64,1.98,15.08,2.51,3.64,1.33,4.96,1.57,4.92,2.07,0,.11,.04,.19-.08,.35-2.96,3.95-9.56,6.19-13.11,7.9"/><path class="am" d="M214.35,2000.74c-2.7,0-4.9,.32-10.1,.79-2.75,.26-5.17,.45-7.84,.77-2,.55-4.01,1.25-5.99,2.09l-1.71,.71c8.59,2.57,17.27,3.89,25.97,3.95h2.51c3.16-.22,6.57,.34,9.36-2.98-4.52-1.36-9.1-2.09-13.68-2.17-1.7,0-3.39,.12-5.04,.42h-.41v-.02l5.1,1.11-4.55-1.11h2.72c4.87-.05,9.73,.61,14.54,1.98-2.48,1.98-5.39,1.52-8.06,1.7h-1.37c-2.51,0-5.03-.12-7.54-.34-5.32-.45-10.63-1.4-15.9-2.83,3.57-1.22,7.18-2.06,10.81-2.49,3.35-.38,6.72-.55,10.1-.55,7.27,0,14.52,.84,21.73,2.49,.31,.12,2.56,.87,1.73,1.6-9.07,2.67-20.97,7.17-32.05,7.17-7.85,0-15.3-2.25-21.03-8.99,6.02,7.31,13.78,9.72,21.93,9.72,10.84,0,22.37-4.27,31.38-6.9,.11-.05,.2-.13,.29-.26,.09-.12,.16-.27,.21-.45,.05-.17,.08-.37,.1-.57,0-.2,0-.4-.04-.59-.17-.47-.39-.86-.66-1.14-.26-.28-.56-.45-.86-.5-4.17-.75-11.05-1.76-12.09-1.98-4.79-.43-7.37-.65-9.52-.65Z"/></g></g></g><g id="g"><g><path class="am" d="M243.9,2017.51c.11-6.04-.11-12.46,.02-19.41,.02-1.25,.31-1.75,.08-10.53,.22-5.31,.26-10.99,.26-10.99l.19-16.07c-.32-15.76-.34-8.26-.01-26.16,.15-8.09,0-6.92-.14-23.53-4.08,4.9-6.18,5.69-11.15,7.78-10.23,4.29-18.47,5.36-28.78,2.19-6.34-1.98-15.66-3-20.36-11.04-.49,10.2-1.06,17.52-1.29,26.46-.14,5.31-.58,10.56-.65,14.78-.24,13.17-.16,9.2-.75,26.31-.1,2.99,.27,7.5,0,10.54-.34,2.58-.17,4.67-.27,7.32,.1,7.2-.03,4.66-.06,8-.08,9.22,.27,12.67,.41,19.32"/><g id="h"><path class="am" d="M232.46,1919.97c-6.25,2.19-11.27,2.84-17.62,3.45-2.82,0-18.17-1.84-21.46-4.11-4.31-2.94-9.38-8.18-9.38-9.31-.08-1.6,3.99-.95,5.84-1.28,7.65-1.36,11.85-1.68,17.43-2.19,9.44-.85,8.99-1.25,19.64,0,1.41,.18,13.64,1.98,15.08,2.51,4.48,1.64,1.38,5.22,.49,6.11-2.96,3.95-5.21,2.49-8.76,4.21"/><path class="am" d="M217.4,1905.77c-2.7,0-4.9,.32-10.1,.79-2.75,.26-5.17,.45-7.84,.77-2,.55-4.01,1.25-5.99,2.09l-1.71,.71c8.59,2.57,17.27,3.89,25.97,3.95h2.51c3.16-.22,6.57,.34,9.36-2.98-4.52-1.36-9.1-2.09-13.68-2.17-1.7,0-3.39,.12-5.04,.42h-.41v-.02l5.1,1.11-4.55-1.11h2.72c4.87-.05,9.73,.61,14.54,1.98-2.48,1.98-5.39,1.52-8.06,1.7h-1.37c-2.51,0-5.03-.12-7.54-.34-5.32-.45-10.63-1.4-15.9-2.83,3.57-1.22,7.18-2.06,10.81-2.49,3.35-.38,6.72-.55,10.1-.55,7.27,0,14.52,.84,21.73,2.49,.31,.12,2.56,.87,1.73,1.6-9.07,2.67-20.97,7.17-32.05,7.17-7.85,0-15.3-2.25-21.03-8.99,6.02,7.31,13.78,9.72,21.93,9.72,10.84,0,22.37-4.27,31.38-6.9,.11-.05,.2-.13,.29-.26,.09-.12,.16-.27,.21-.45,.05-.17,.08-.37,.1-.57,0-.2,0-.4-.04-.59-.17-.47-.39-.86-.66-1.14-.26-.28-.56-.45-.86-.5-4.17-.75-11.05-1.76-12.09-1.98-4.79-.43-7.37-.65-9.52-.65Z"/></g></g><g id="i"><path class="aj" d="M231.92,1918.65c-6.01,2.19-12.1,3.6-18.21,4.21-2.72,0-16.93-2.11-20.1-4.39-4.15-2.94-9.58-7.9-9.58-9.03-.07-1.6,3.84-.95,5.62-1.28,7.36-1.36,11.41-1.68,16.78-2.19,9.08-.85,8.65-1.25,18.9,0,1.36,.18,13.13,1.98,14.52,2.51,3.5,1.33,4.78,1.57,4.74,2.07,0,.11,.04,.19-.08,.35-2.85,3.95-9.2,6.19-12.62,7.9"/><path class="am" d="M216.17,1905.21c-2.6,0-4.72,.32-9.72,.79-2.64,.26-4.98,.45-7.55,.77-1.93,.55-3.86,1.25-5.77,2.09l-1.65,.71c8.26,2.57,16.62,3.89,24.99,3.95h2.42c3.04-.22,6.33,.34,9.01-2.98-4.35-1.36-8.76-2.09-13.17-2.17-1.64,0-3.27,.12-4.85,.42h-.39v-.02l4.9,1.11-4.38-1.11h2.61c4.68-.05,9.36,.61,13.99,1.98-2.39,1.98-5.18,1.52-7.76,1.7h-1.32c-2.42,0-4.84-.12-7.26-.34-5.12-.45-10.23-1.4-15.31-2.83,3.44-1.22,6.91-2.06,10.4-2.49,3.22-.38,6.47-.55,9.72-.55,6.99,0,13.98,.84,20.92,2.49,.3,.12,2.47,.87,1.67,1.6-8.73,2.67-20.18,7.17-30.85,7.17-7.56,0-14.72-2.25-20.24-8.99,5.8,7.31,13.26,9.72,21.1,9.72,10.43,0,21.53-4.27,30.2-6.9,.1-.05,.2-.13,.28-.26,.08-.12,.15-.27,.2-.45,.05-.17,.08-.37,.09-.57,0-.2,0-.4-.04-.59-.16-.47-.38-.86-.63-1.14-.25-.28-.54-.45-.83-.5-4.01-.75-10.64-1.76-11.63-1.98-4.61-.43-7.09-.65-9.17-.65Z"/></g></g><g id="j"><g><path class="am" d="M244.53,1932c.11-6.04-.22-93.58-.09-100.53,.02-1.25,.31-1.75,.08-10.53,.22-5.31,.26-10.99,.26-10.99v-15.75c-.32-15.76-.26-5.68,.17-26.49,.17-8.09,0-6.92-.14-23.53-4.08,4.9-6.18,5.69-11.15,7.78-10.23,4.29-18.47,5.36-28.78,2.19-6.34-1.98-15.66-3-20.36-11.04-.49,10.2-.57,16.57-.8,25.5-.14,5.31-.27,8.8-.34,13.02-.24,13.17,.14,6.39-.44,23.5-.1,2.99,.12,9.72-.12,14.34-.06,5.21-.02,5.39-.11,8.04,.1,7.2,.07,6.07,.04,9.41-.08,9.22-.12,91.89,.03,98.53"/><g id="k"><path class="am" d="M233.17,1753.35c-6.25,2.19-11.27,2.84-17.62,3.45-2.82,0-18.17-1.84-21.46-4.11-4.31-2.94-9.38-8.18-9.38-9.31-.08-1.6,3.99-.95,5.84-1.28,7.65-1.36,11.85-1.68,17.43-2.19,9.44-.85,8.99-1.25,19.64,0,1.41,.18,13.64,1.98,15.08,2.51,1.12,.41,1.63,.48,1.92,1.1,.75,1.61-.76,4.35-1.43,5.01-2.96,3.95-5.21,2.49-8.76,4.21"/><path class="am" d="M218.1,1739.16c-2.7,0-4.9,.32-10.1,.79-2.75,.26-5.17,.45-7.84,.77-2,.55-4.01,1.25-5.99,2.09l-1.71,.71c8.59,2.57,17.27,3.89,25.97,3.95h2.51c3.16-.22,6.57,.34,9.36-2.98-4.52-1.36-9.1-2.09-13.68-2.17-1.7,0-3.39,.12-5.04,.42h-.41v-.02l5.1,1.11-4.55-1.11h2.72c4.87-.05,9.73,.61,14.54,1.98-2.48,1.98-5.39,1.52-8.06,1.7h-1.37c-2.51,0-5.03-.12-7.54-.34-5.32-.45-10.63-1.4-15.9-2.83,3.57-1.22,7.18-2.06,10.81-2.49,3.35-.38,6.72-.55,10.1-.55,7.27,0,14.52,.84,21.73,2.49,.31,.12,2.56,.87,1.73,1.6-9.07,2.67-20.97,7.17-32.05,7.17-7.85,0-15.3-2.25-21.03-8.99,6.02,7.31,13.78,9.72,21.93,9.72,10.84,0,22.37-4.27,31.38-6.9,.11-.05,.2-.13,.29-.26,.09-.12,.16-.27,.21-.45,.05-.17,.08-.37,.1-.57,0-.2,0-.4-.04-.59-.17-.47-.39-.86-.66-1.14-.26-.28-.56-.45-.86-.5-4.17-.75-11.05-1.76-12.09-1.98-4.79-.43-7.37-.65-9.52-.65Z"/></g></g><path class="am" d="M240.57,1862.18s11.76,4.56,23.99-9.95c5.66-6.72,12.25-10.63,16.7-14.26,5.16-4.21,6.54-4.82,8.88-9.62,5.03-10.35,8.67-22.24,8.98-10.15,.27,10.61-13.93,24.05-13.93,24.05,0,0,4.25,1.27,12.09-1.45,7.31-2.54,8.99-3.64,10.8-3.64s-3.6,5.79-13.04,7.97c-9.45,2.18-20.06,9.32-22.24,16.22s-34.98,31.62-34.98,31.62l2.76-30.79Z"/><g><path class="ai" d="M285.52,1854.85s-.59-4.07,4.35-6.57,4.99-1.62,4.99-1.62c0,0-.45,6.68-4.23,7.69s-5.11,.5-5.11,.5Z"/><path class="ai" d="M305.02,1849.72s-3.63-.42-4.66-5.23c-1.03-4.81-.26-4.65-.26-4.65,0,0,5.63,1.9,5.65,5.38s-.73,4.51-.73,4.51Z"/><path class="ai" d="M292.95,1845.19s.06-4.47,5.79-6.33,5.63-.9,5.63-.9c0,0-1.61,7.1-5.84,7.55-4.23,.45-5.58-.33-5.58-.33Z"/><path class="ai" d="M285.02,1841.11s1.38-3.44,6.37-3.17,4.63,.99,4.63,.99c0,0-3.37,5.01-6.78,4.1s-4.22-1.92-4.22-1.92Z"/><path class="ai" d="M294.45,1834.37s-2.71-3.48,.57-8.44,3.79-4.16,3.79-4.16c0,0,3.13,6.46,.15,9.42s-4.5,3.18-4.5,3.18Z"/><path class="ai" d="M297.16,1822.86s-3.61-2.38-2.13-8.02,2.21-5.05,2.21-5.05c0,0,4.94,5.02,3.1,8.7-1.84,3.68-3.18,4.37-3.18,4.37Z"/><path class="ai" d="M295.25,1834.92s-4.61,.14-6.78-5.68-1.17-5.77-1.17-5.77c0,0,7.38,1.35,8.04,5.69s-.09,5.76-.09,5.76Z"/><path class="ai" d="M279.24,1844.61s-2.74-3.21,.17-8.09c2.91-4.88,3.44-4.14,3.44-4.14,0,0,3.27,6.04,.55,8.99s-4.16,3.24-4.16,3.24Z"/></g><g id="l"><path class="aj" d="M232.56,1751.51c-6.01,2.19-12.1,3.6-18.21,4.21-2.72,0-16.93-2.11-20.1-4.39-4.15-2.94-9.58-7.9-9.58-9.03-.07-1.6,3.84-.95,5.62-1.28,7.36-1.36,11.41-1.68,16.78-2.19,9.08-.85,8.65-1.25,18.9,0,1.36,.18,13.13,1.98,14.52,2.51,3.5,1.33,4.78,1.57,4.74,2.07,0,.11,.04,.19-.08,.35-2.85,3.95-9.2,6.19-12.62,7.9"/><path class="am" d="M216.81,1738.07c-2.6,0-4.72,.32-9.72,.79-2.64,.26-4.98,.45-7.55,.77-1.93,.55-3.86,1.25-5.77,2.09l-1.65,.71c8.26,2.57,16.62,3.89,24.99,3.95h2.42c3.04-.22,6.33,.34,9.01-2.98-4.35-1.36-8.76-2.09-13.17-2.17-1.64,0-3.27,.12-4.85,.42h-.39v-.02l4.9,1.11-4.38-1.11h2.61c4.68-.05,9.36,.61,13.99,1.98-2.39,1.98-5.18,1.52-7.76,1.7h-1.32c-2.42,0-4.84-.12-7.26-.34-5.12-.45-10.23-1.4-15.31-2.83,3.44-1.22,6.91-2.06,10.4-2.49,3.22-.38,6.47-.55,9.72-.55,6.99,0,13.98,.84,20.92,2.49,.3,.12,2.47,.87,1.67,1.6-8.73,2.67-20.18,7.17-30.85,7.17-7.56,0-14.72-2.25-20.24-8.99,5.8,7.31,13.26,9.72,21.1,9.72,10.43,0,21.53-4.27,30.2-6.9,.1-.05,.2-.13,.28-.26,.08-.12,.15-.27,.2-.45,.05-.17,.08-.37,.09-.57,0-.2,0-.4-.04-.59-.16-.47-.38-.86-.63-1.14-.25-.28-.54-.45-.83-.5-4.01-.75-10.64-1.76-11.63-1.98-4.61-.43-7.09-.65-9.17-.65Z"/></g></g><g id="m"><g><path class="am" d="M244.88,1758.21c.11-6.04,.14-49.19,.27-56.14,.02-1.25,.31-1.75,.08-10.53,.22-5.31,.26-10.99,.26-10.99v-15.75c-.32-15.76-.26-5.68,.17-26.49,.17-8.09,0-6.92-.14-23.53-4.08,4.9-6.18,5.69-11.15,7.78-10.23,4.29-18.47,5.36-28.78,2.19-6.34-1.98-15.66-3-20.36-11.04-.49,10.2-.57,16.57-.8,25.5-.14,5.31-.27,8.8-.34,13.02-.24,13.17,.14,6.39-.44,23.5-.1,2.99,.12,9.72-.12,14.34-.06,5.21-.02,5.39-.11,8.04,.1,7.2,.07,6.07,.04,9.41-.08,9.22,.63,43.34,.77,49.99"/><g id="n"><path class="am" d="M233.87,1623.95c-6.25,2.19-11.27,2.84-17.62,3.45-2.82,0-18.17-1.84-21.46-4.11-4.31-2.94-9.38-8.18-9.38-9.31-.08-1.6,3.99-.95,5.84-1.28,7.65-1.36,11.85-1.68,17.43-2.19,9.44-.85,8.99-1.25,19.64,0,1.41,.18,13.64,1.98,15.08,2.51,4.48,1.64,1.38,5.22,.49,6.11-2.96,3.95-5.21,2.49-8.76,4.21"/><path class="am" d="M218.81,1609.76c-2.7,0-4.9,.32-10.1,.79-2.75,.26-5.17,.45-7.84,.77-2,.55-4.01,1.25-5.99,2.09l-1.71,.71c8.59,2.57,17.27,3.89,25.97,3.95h2.51c3.16-.22,6.57,.34,9.36-2.98-4.52-1.36-9.1-2.09-13.68-2.17-1.7,0-3.39,.12-5.04,.42h-.41v-.02l5.1,1.11-4.55-1.11h2.72c4.87-.05,9.73,.61,14.54,1.98-2.48,1.98-5.39,1.52-8.06,1.7h-1.37c-2.51,0-5.03-.12-7.54-.34-5.32-.45-10.63-1.4-15.9-2.83,3.57-1.22,7.18-2.06,10.81-2.49,3.35-.38,6.72-.55,10.1-.55,7.27,0,14.52,.84,21.73,2.49,.31,.12,2.56,.87,1.73,1.6-9.07,2.67-20.97,7.17-32.05,7.17-7.85,0-15.3-2.25-21.03-8.99,6.02,7.31,13.78,9.72,21.93,9.72,10.84,0,22.37-4.27,31.38-6.9,.11-.05,.2-.13,.29-.26,.09-.12,.16-.27,.21-.45,.05-.17,.08-.37,.1-.57,0-.2,0-.4-.04-.59-.17-.47-.39-.86-.66-1.14-.26-.28-.56-.45-.86-.5-4.17-.75-11.05-1.76-12.09-1.98-4.79-.43-7.37-.65-9.52-.65Z"/></g></g><path class="am" d="M176.86,1733.97c-.14-.18-6.53-8.29-6.64-8.48-4.28-7.72-4.76-9.86-14.61-21.29-10.82-12.56-4.66-7.6-16.14-18.72-.05-.05-1.68-2.04-1.72-2.09l-2.97-3.54c-1.11-1.42,1.93-.8,3.27,.42,.37,.34,1.39,1.6,1.79,1.99,2.31,2.31,5.96,4.94,8.84,8.03,1.12,1.2,3.06-.06,2.42-1.57-2.5-5.93-5.75-14.48-8.07-23.55-.04-.17-.47-1.97-.52-2.13-.45-1.79,1.56-.01,2.22,1.71,3.98,10.37,10.25,26.5,14.73,30.31,18.81,15.97,20.72,26.26,30.87,21.11,6.31-3.2-.54,22.1-.91,23.89-.03,.14,5.44,5.98,5.37,6.1-.65,1.2-7.98,1.06-17.95-12.16Z"/><g><path class="ai" d="M146.65,1702.1s-2.33-3.8,1.52-8.42c3.85-4.62,4.28-3.75,4.28-3.75,0,0,2.42,6.85-.91,9.48-3.33,2.63-4.88,2.69-4.88,2.69Z"/><path class="ai" d="M140.28,1694.85s-3.55-2.47-1.94-8.07,2.33-5,2.33-5c0,0,4.82,5.14,2.89,8.78s-3.28,4.3-3.28,4.3Z"/><path class="ai" d="M149.64,1691.02s-4.21-.82-4.97-6.55,.12-5.47,.12-5.47c0,0,6.42,2.74,6.12,6.81-.3,4.07-1.27,5.21-1.27,5.21Z"/><path class="ai" d="M138.93,1676.53s.83-3.41,5.55-3.82,4.47,.31,4.47,.31c0,0-2.49,5.15-5.8,4.74s-4.21-1.24-4.21-1.24Z"/><path class="ai" d="M140.86,1673.12s.66-3.29,5.15-3.86,4.28,.12,4.28,.12c0,0-2.18,5.01-5.35,4.75s-4.07-1.02-4.07-1.02Z"/></g><g id="o"><path class="aj" d="M233.27,1622.11c-6.01,2.19-12.1,3.6-18.21,4.21-2.72,0-16.93-2.11-20.1-4.39-4.15-2.94-9.58-7.9-9.58-9.03-.07-1.6,3.84-.95,5.62-1.28,7.36-1.36,11.41-1.68,16.78-2.19,9.08-.85,8.65-1.25,18.9,0,1.36,.18,13.13,1.98,14.52,2.51,3.5,1.33,4.78,1.57,4.74,2.07,0,.11,.04,.19-.08,.35-2.85,3.95-9.2,6.19-12.62,7.9"/><path class="am" d="M217.51,1608.67c-2.6,0-4.72,.32-9.72,.79-2.64,.26-4.98,.45-7.55,.77-1.93,.55-3.86,1.25-5.77,2.09l-1.65,.71c8.26,2.57,16.62,3.89,24.99,3.95h2.42c3.04-.22,6.33,.34,9.01-2.98-4.35-1.36-8.76-2.09-13.17-2.17-1.64,0-3.27,.12-4.85,.42h-.39v-.02l4.9,1.11-4.38-1.11h2.61c4.68-.05,9.36,.61,13.99,1.98-2.39,1.98-5.18,1.52-7.76,1.7h-1.32c-2.42,0-4.84-.12-7.26-.34-5.12-.45-10.23-1.4-15.31-2.83,3.44-1.22,6.91-2.06,10.4-2.49,3.22-.38,6.47-.55,9.72-.55,6.99,0,13.98,.84,20.92,2.49,.3,.12,2.47,.87,1.67,1.6-8.73,2.67-20.18,7.17-30.85,7.17-7.56,0-14.72-2.25-20.24-8.99,5.8,7.31,13.26,9.72,21.1,9.72,10.43,0,21.53-4.27,30.2-6.9,.1-.05,.2-.13,.28-.26,.08-.12,.15-.27,.2-.45,.05-.17,.08-.37,.09-.57,0-.2,0-.4-.04-.59-.16-.47-.38-.86-.63-1.14-.25-.28-.54-.45-.83-.5-4.01-.75-10.64-1.76-11.63-1.98-4.61-.43-7.09-.65-9.17-.65Z"/></g></g><g id="p"><g><path class="am" d="M245.6,1632.89c.11-6.04,.13-61.43,.25-68.38,.02-1.25,.31-1.75,.08-10.53,.22-5.31,.26-10.99,.26-10.99v-15.75c-.32-15.76-.26-5.68,.17-26.49,.17-8.09,0-6.92-.14-23.53-4.08,4.9-6.18,5.69-11.15,7.78-10.23,4.29-18.47,5.36-28.78,2.19-6.34-1.98-15.66-3-20.36-11.04-.49,10.2-.57,16.57-.8,25.5-.14,5.31-.27,8.8-.34,13.02-.24,13.17,.14,6.39-.44,23.5-.1,2.99,.12,9.72-.12,14.34-.06,5.21-.02,5.39-.11,8.04,.1,7.2,.07,6.07,.04,9.41-.08,9.22,.13,64.33,.27,70.98"/><g id="q"><path class="am" d="M234.58,1486.4c-6.25,2.19-11.27,2.84-17.62,3.45-2.82,0-18.17-1.84-21.46-4.11-4.31-2.94-9.38-8.18-9.38-9.31-.08-1.6,3.99-.95,5.84-1.28,7.65-1.36,11.85-1.68,17.43-2.19,9.44-.85,8.99-1.25,19.64,0,1.41,.18,13.64,1.98,15.08,2.51,4.48,1.64,1.38,5.22,.49,6.11-2.96,3.95-5.21,2.49-8.76,4.21"/><path class="am" d="M219.51,1472.21c-2.7,0-4.9,.32-10.1,.79-2.75,.26-5.17,.45-7.84,.77-2,.55-4.01,1.25-5.99,2.09l-1.71,.71c8.59,2.57,17.27,3.89,25.97,3.95h2.51c3.16-.22,6.57,.34,9.36-2.98-4.52-1.36-9.1-2.09-13.68-2.17-1.7,0-3.39,.12-5.04,.42h-.41v-.02l5.1,1.11-4.55-1.11h2.72c4.87-.05,9.73,.61,14.54,1.98-2.48,1.98-5.39,1.52-8.06,1.7h-1.37c-2.51,0-5.03-.12-7.54-.34-5.32-.45-10.63-1.4-15.9-2.83,3.57-1.22,7.18-2.06,10.81-2.49,3.35-.38,6.72-.55,10.1-.55,7.27,0,14.52,.84,21.73,2.49,.31,.12,2.56,.87,1.73,1.6-9.07,2.67-20.97,7.17-32.05,7.17-7.85,0-15.3-2.25-21.03-8.99,6.02,7.31,13.78,9.72,21.93,9.72,10.84,0,22.37-4.27,31.38-6.9,.11-.05,.2-.13,.29-.26,.09-.12,.16-.27,.21-.45,.05-.17,.08-.37,.1-.57,0-.2,0-.4-.04-.59-.17-.47-.39-.86-.66-1.14-.26-.28-.56-.45-.86-.5-4.17-.75-11.05-1.76-12.09-1.98-4.79-.43-7.37-.65-9.52-.65Z"/></g></g><polygon class="am" points="244.32 1588.8 272.37 1572.67 272.67 1577.76 243.09 1604.11 233.52 1599.59 244.32 1588.8"/><path class="ak" d="M248.26,1596.63c-2.74-2.47-6.72,2.41-5.25,5.35,1.47,2.94,.66,6.91,1.73,12.56,1.06,5.65,2.65,9.39,3.22,7.71,.89-2.6,1.17-10.39-1.14-16.03-2.14-5.2,4.4-6.92,1.44-9.58Z"/><path class="al" d="M225,1551.01c.63-.58,1.49,.24,1.49,1.4s-.05,2.8,.72,2.17,2.07-.67,2.07-.39-.14,.24,.39,.29,.82,.19,1.3,.63,.05,.87,.48,.43,.92-1.88,1.4-1.54,.1,.29,.48,0,.05-1.11,.43-.92,.39-.05,.63-.19-.77,1.01,.34,1.69,2.99,1.11,3.86,2.46c.87,1.35,1.01,2.65,1.88,3.04s1.21-.14,1.06,.72-.43,1.98,.19,2.07,1.06,.29,.63,.67-1.21-.1-.43,.39,.96-.43,.77,.48,0,1.88,.34,2.02,.24,0,.19,.72,.05-1.06-.05,.72,.12,2.67,.52,3,.79,1.77,.66,2.69-.46,1.18-.13,1.91,.07,3.48-.07,3.88-1.18,1.97-.59,2.17,.2,1.31-.26,1.51,.26,1.58-.2,1.84-1.58,.26-1.38,.79,.79,.53-.33,.85-1.05-.39-1.12,.33,1.38,.53-.07,.72-2.17,.59-2.04,1.25-.72,.53-1.18,.07-1.12-1.18-1.12-.53-.85,.46-.92-.33,.59-.66-.07-.79-.92,0-.85-.53,1.05-.53,.07-.53-1.18,.46-2.37-1.58-1.71-3.88-2.1-3.88-1.12-.85-.53-.92,.33-.13-.07-.92-.46-1.91-.33-2.17,.26,0,0-.92-.39-1.18-.2-1.38,0-.92-.2-1.51-.39-1.18-.2-1.31,.11-.01,.13-.53c.07-1.51,.13-1.77-.07-2.04s-.79-1.77-.26-2.3,.99-.33,.13-1.38-.92-1.05-.53-1.71,.85-1.91,.13-2.3-1.58-1.18-.99-1.38,.79-1.38,.26-1.51-.07-.59,.07-.79,.66,.46-.2-1.18-2.43-3.22-2.37-4.14,.56-1.34,.56-1.34Z"/><g id="r"><path class="aj" d="M233.97,1484.56c-6.01,2.19-12.1,3.6-18.21,4.21-2.72,0-16.93-2.11-20.1-4.39-4.15-2.94-9.58-7.9-9.58-9.03-.07-1.6,3.84-.95,5.62-1.28,7.36-1.36,11.41-1.68,16.78-2.19,9.08-.85,8.65-1.25,18.9,0,1.36,.18,13.13,1.98,14.52,2.51,3.5,1.33,4.78,1.57,4.74,2.07,0,.11,.04,.19-.08,.35-2.85,3.95-9.2,6.19-12.62,7.9"/><path class="am" d="M218.22,1471.12c-2.6,0-4.72,.32-9.72,.79-2.64,.26-4.98,.45-7.55,.77-1.93,.55-3.86,1.25-5.77,2.09l-1.65,.71c8.26,2.57,16.62,3.89,24.99,3.95h2.42c3.04-.22,6.33,.34,9.01-2.98-4.35-1.36-8.76-2.09-13.17-2.17-1.64,0-3.27,.12-4.85,.42h-.39v-.02l4.9,1.11-4.38-1.11h2.61c4.68-.05,9.36,.61,13.99,1.98-2.39,1.98-5.18,1.52-7.76,1.7h-1.32c-2.42,0-4.84-.12-7.26-.34-5.12-.45-10.23-1.4-15.31-2.83,3.44-1.22,6.91-2.06,10.4-2.49,3.22-.38,6.47-.55,9.72-.55,6.99,0,13.98,.84,20.92,2.49,.3,.12,2.47,.87,1.67,1.6-8.73,2.67-20.18,7.17-30.85,7.17-7.56,0-14.72-2.25-20.24-8.99,5.8,7.31,13.26,9.72,21.1,9.72,10.43,0,21.53-4.27,30.2-6.9,.1-.05,.2-.13,.28-.26,.08-.12,.15-.27,.2-.45,.05-.17,.08-.37,.09-.57,0-.2,0-.4-.04-.59-.16-.47-.38-.86-.63-1.14-.25-.28-.54-.45-.83-.5-4.01-.75-10.64-1.76-11.63-1.98-4.61-.43-7.09-.65-9.17-.65Z"/></g></g><g id="s"><g><path class="am" d="M246.4,1483.32c.11-6.04-.68-45.21-.55-52.16,.02-1.25,.31-1.75,.08-10.53,.22-5.31,.26-10.99,.26-10.99v-15.75c-.32-15.76-.26-5.68,.17-26.49,.17-8.09,0-6.92-.14-23.53-4.08,4.9-6.18,5.69-11.15,7.78-10.23,4.29-18.47,5.36-28.78,2.19-6.34-1.98-15.66-3-20.36-11.04-.49,10.2-.57,16.57-.8,25.5-.14,5.31-.27,8.8-.34,13.02-.24,13.17,.14,6.39-.44,23.5-.1,2.99,.12,9.72-.12,14.34-.06,5.21-.02,5.39-.11,8.04,.1,7.2,.07,6.07,.04,9.41-.08,9.22,.59,64.53,.73,71.17"/><g id="t"><path class="am" d="M234.58,1353.05c-6.25,2.19-11.27,2.84-17.62,3.45-2.82,0-18.17-1.84-21.46-4.11-4.31-2.94-9.38-8.18-9.38-9.31-.08-1.6,3.99-.95,5.84-1.28,7.65-1.36,11.85-1.68,17.43-2.19,9.44-.85,8.99-1.25,19.64,0,1.41,.18,13.64,1.98,15.08,2.51,4.48,1.64,1.38,5.22,.49,6.11-2.96,3.95-5.21,2.49-8.76,4.21"/><path class="am" d="M219.51,1338.85c-2.7,0-4.9,.32-10.1,.79-2.75,.26-5.17,.45-7.84,.77-2,.55-4.01,1.25-5.99,2.09l-1.71,.71c8.59,2.57,17.27,3.89,25.97,3.95h2.51c3.16-.22,6.57,.34,9.36-2.98-4.52-1.36-9.1-2.09-13.68-2.17-1.7,0-3.39,.12-5.04,.42h-.41v-.02l5.1,1.11-4.55-1.11h2.72c4.87-.05,9.73,.61,14.54,1.98-2.48,1.98-5.39,1.52-8.06,1.7h-1.37c-2.51,0-5.03-.12-7.54-.34-5.32-.45-10.63-1.4-15.9-2.83,3.57-1.22,7.18-2.06,10.81-2.49,3.35-.38,6.72-.55,10.1-.55,7.27,0,14.52,.84,21.73,2.49,.31,.12,2.56,.87,1.73,1.6-9.07,2.67-20.97,7.17-32.05,7.17-7.85,0-15.3-2.25-21.03-8.99,6.02,7.31,13.78,9.72,21.93,9.72,10.84,0,22.37-4.27,31.38-6.9,.11-.05,.2-.13,.29-.26,.09-.12,.16-.27,.21-.45,.05-.17,.08-.37,.1-.57,0-.2,0-.4-.04-.59-.17-.47-.39-.86-.66-1.14-.26-.28-.56-.45-.86-.5-4.17-.75-11.05-1.76-12.09-1.98-4.79-.43-7.37-.65-9.52-.65Z"/></g></g><polygon class="am" points="193.34 1447.02 152.17 1410.48 153.09 1403.07 196.12 1430.37 193.34 1447.02"/><path class="al" d="M183.72,1430.14c.63-.58,1.49,.24,1.49,1.4s-.05,2.8,.72,2.17,2.07-.67,2.07-.39-.14,.24,.39,.29,.82,.19,1.3,.63,.05,.87,.48,.43,.92-1.88,1.4-1.54,.1,.29,.48,0,.05-1.11,.43-.92,.39-.05,.63-.19-.77,1.01,.34,1.69,2.99,1.11,3.86,2.46c.87,1.35,1.01,2.65,1.88,3.04s1.21-.14,1.06,.72-.43,1.98,.19,2.07,1.06,.29,.63,.67-1.21-.1-.43,.39,.96-.43,.77,.48c-.19,.92,0,1.88,.34,2.02s.24,0,.19,.72,.05-1.06-.05,.72,.12,2.67,.52,3,.79,1.77,.66,2.69-.46,1.18-.13,1.91,.07,3.48-.07,3.88-1.18,1.97-.59,2.17,.2,1.31-.26,1.51,.26,1.58-.2,1.84-1.58,.26-1.38,.79,.79,.53-.33,.85-1.05-.39-1.12,.33,1.38,.53-.07,.72-2.17,.59-2.04,1.25-.72,.53-1.18,.07-1.12-1.18-1.12-.53-.85,.46-.92-.33,.59-.66-.07-.79-.92,0-.85-.53,1.05-.53,.07-.53-1.18,.46-2.37-1.58c-1.18-2.04-1.71-3.88-2.1-3.88s-1.12-.85-.53-.92,.33-.13-.07-.92-.46-1.91-.33-2.17,.26,0,0-.92-.39-1.18-.2-1.38,0-.92-.2-1.51-.39-1.18-.2-1.31,.11-.01,.13-.53c.07-1.51,.13-1.77-.07-2.04s-.79-1.77-.26-2.3,.99-.33,.13-1.38c-.85-1.05-.92-1.05-.53-1.71s.85-1.91,.13-2.3-1.58-1.18-.99-1.38,.79-1.38,.26-1.51-.07-.59,.07-.79,.66,.46-.2-1.18-2.43-3.22-2.37-4.14,.56-1.34,.56-1.34Z"/><path class="ak" d="M185.22,1444.23s-2.66,6.99-3.69,7.42-3.55,1.78-2.75,2.15-3.74,4.35-3.13,6.44,0,4.72,.98,6.26c.98,1.53,1.41,2.27,1.17,5.03s-1.46,5.3-.49,6.32c.97,1.01,2.39,1.04,2.33-.98s-.17-10.97,.86-11.22,2.39-.92,2.39,.31c0,1.23-.8,3.93,1.17,3.5s2.15-1.96,1.84-4.23-.55-2.09,.61-3.07c1.17-.98,1.04-2.64,1.47-9.81s-.31-11.72-.31-11.72l-.74-1.96-1.72,5.58Z"/><g id="u"><path class="aj" d="M235.32,1352.29c-6.01,2.19-12.1,3.6-18.21,4.21-2.72,0-16.93-2.11-20.1-4.39-4.15-2.94-9.58-7.9-9.58-9.03-.07-1.6,3.84-.95,5.62-1.28,7.36-1.36,11.41-1.68,16.78-2.19,9.08-.85,8.65-1.25,18.9,0,1.36,.18,13.13,1.98,14.52,2.51,3.5,1.33,4.78,1.57,4.74,2.07,0,.11,.04,.19-.08,.35-2.85,3.95-9.2,6.19-12.62,7.9"/><path class="am" d="M219.57,1338.85c-2.6,0-4.72,.32-9.72,.79-2.64,.26-4.98,.45-7.55,.77-1.93,.55-3.86,1.25-5.77,2.09l-1.65,.71c8.26,2.57,16.62,3.89,24.99,3.95h2.42c3.04-.22,6.33,.34,9.01-2.98-4.35-1.36-8.76-2.09-13.17-2.17-1.64,0-3.27,.12-4.85,.42h-.39v-.02l4.9,1.11-4.38-1.11h2.61c4.68-.05,9.36,.61,13.99,1.98-2.39,1.98-5.18,1.52-7.76,1.7h-1.32c-2.42,0-4.84-.12-7.26-.34-5.12-.45-10.23-1.4-15.31-2.83,3.44-1.22,6.91-2.06,10.4-2.49,3.22-.38,6.47-.55,9.72-.55,6.99,0,13.98,.84,20.92,2.49,.3,.12,2.47,.87,1.67,1.6-8.73,2.67-20.18,7.17-30.85,7.17-7.56,0-14.72-2.25-20.24-8.99,5.8,7.31,13.26,9.72,21.1,9.72,10.43,0,21.53-4.27,30.2-6.9,.1-.05,.2-.13,.28-.26,.08-.12,.15-.27,.2-.45,.05-.17,.08-.37,.09-.57,0-.2,0-.4-.04-.59-.16-.47-.38-.86-.63-1.14-.25-.28-.54-.45-.83-.5-4.01-.75-10.64-1.76-11.63-1.98-4.61-.43-7.09-.65-9.17-.65Z"/></g></g><g id="v"><g><path class="am" d="M246.11,1366.15c1.14-9.04-.39-61.83-.26-68.78,.02-1.25,.31-1.75,.08-10.53,.22-5.31,.26-10.99,.26-10.99v-15.75c-.32-15.76-.26-5.68,.17-26.49,.17-8.09,0-6.92-.14-23.53-4.08,4.9-6.18,5.69-11.15,7.78-10.23,4.29-18.47,5.36-28.78,2.19-6.34-1.98-15.66-3-20.36-11.04-.49,10.2-.57,16.57-.8,25.5-.14,5.31-.27,8.8-.34,13.02-.24,13.17,.14,6.39-.44,23.5-.1,2.99,.12,9.72-.12,14.34-.06,5.21-.02,5.39-.11,8.04,.1,7.2,.07,6.07,.04,9.41-.08,9.22,.66,65.86,.8,72.51"/><g id="w"><path class="am" d="M234.58,1219.25c-6.25,2.19-11.27,2.84-17.62,3.45-2.82,0-18.17-1.84-21.46-4.11-4.31-2.94-9.38-8.18-9.38-9.31-.08-1.6,3.99-.95,5.84-1.28,7.65-1.36,11.85-1.68,17.43-2.19,9.44-.85,8.99-1.25,19.64,0,1.41,.18,13.64,1.98,15.08,2.51,4.48,1.64,1.38,5.22,.49,6.11-2.96,3.95-5.21,2.49-8.76,4.21"/><path class="am" d="M219.51,1205.05c-2.7,0-4.9,.32-10.1,.79-2.75,.26-5.17,.45-7.84,.77-2,.55-4.01,1.25-5.99,2.09l-1.71,.71c8.59,2.57,17.27,3.89,25.97,3.95h2.51c3.16-.22,6.57,.34,9.36-2.98-4.52-1.36-9.1-2.09-13.68-2.17-1.7,0-3.39,.12-5.04,.42h-.41v-.02l5.1,1.11-4.55-1.11h2.72c4.87-.05,9.73,.61,14.54,1.98-2.48,1.98-5.39,1.52-8.06,1.7h-1.37c-2.51,0-5.03-.12-7.54-.34-5.32-.45-10.63-1.4-15.9-2.83,3.57-1.22,7.18-2.06,10.81-2.49,3.35-.38,6.72-.55,10.1-.55,7.27,0,14.52,.84,21.73,2.49,.31,.12,2.56,.87,1.73,1.6-9.07,2.67-20.97,7.17-32.05,7.17-7.85,0-15.3-2.25-21.03-8.99,6.02,7.31,13.78,9.72,21.93,9.72,10.84,0,22.37-4.27,31.38-6.9,.11-.05,.2-.13,.29-.26,.09-.12,.16-.27,.21-.45,.05-.17,.08-.37,.1-.57,0-.2,0-.4-.04-.59-.17-.47-.39-.86-.66-1.14-.26-.28-.56-.45-.86-.5-4.17-.75-11.05-1.76-12.09-1.98-4.79-.43-7.37-.65-9.52-.65Z"/></g></g><path class="am" d="M242.16,1287.28s9.46,4.63,21.69-9.88c5.66-6.72,14.55-10.7,19-14.33,5.16-4.21,6.54-4.82,8.88-9.62,5.03-10.35,7.32-21.92,7.62-9.84,.27,10.61-12.57,23.74-12.57,23.74,0,0,4.25,1.27,12.09-1.45,7.31-2.54,8.99-3.64,10.8-3.64s-6.18,5.55-15.63,7.73c-9.45,2.18-22.77,13.13-26.76,19.17-8.54,12.91-27.87,28.91-27.87,28.91l2.76-30.79Z"/><g><path class="ai" d="M287.11,1279.95s-.59-4.07,4.35-6.57c4.94-2.51,4.99-1.62,4.99-1.62,0,0-.45,6.68-4.23,7.69-3.78,1.02-5.11,.5-5.11,.5Z"/><path class="ai" d="M306.6,1274.83s-3.63-.42-4.66-5.23-.26-4.65-.26-4.65c0,0,5.63,1.9,5.65,5.38,.02,3.47-.73,4.51-.73,4.51Z"/><path class="ai" d="M294.54,1270.3s.06-4.47,5.79-6.33,5.63-.9,5.63-.9c0,0-1.61,7.1-5.84,7.55s-5.58-.33-5.58-.33Z"/><path class="ai" d="M286.61,1266.21s1.38-3.44,6.37-3.17,4.63,.99,4.63,.99c0,0-3.37,5.01-6.78,4.1s-4.22-1.92-4.22-1.92Z"/><path class="ai" d="M296.04,1259.47s-2.71-3.48,.57-8.44c3.27-4.96,3.79-4.16,3.79-4.16,0,0,3.13,6.46,.15,9.42-2.98,2.95-4.5,3.18-4.5,3.18Z"/><path class="ai" d="M298.74,1247.96s-3.61-2.38-2.13-8.02c1.48-5.64,2.21-5.05,2.21-5.05,0,0,4.94,5.02,3.1,8.7s-3.18,4.37-3.18,4.37Z"/><path class="ai" d="M296.84,1260.02s-4.61,.14-6.78-5.68c-2.17-5.82-1.17-5.77-1.17-5.77,0,0,7.38,1.35,8.04,5.69s-.09,5.76-.09,5.76Z"/><path class="ai" d="M280.83,1269.72s-2.74-3.21,.17-8.09,3.44-4.14,3.44-4.14c0,0,3.27,6.04,.55,8.99s-4.16,3.24-4.16,3.24Z"/></g><g id="x"><path class="aj" d="M233.29,1218.44c-6.01,2.19-12.1,3.6-18.21,4.21-2.72,0-16.93-2.11-20.1-4.39-4.15-2.94-9.58-7.9-9.58-9.03-.07-1.6,3.84-.95,5.62-1.28,7.36-1.36,11.41-1.68,16.78-2.19,9.08-.85,8.65-1.25,18.9,0,1.36,.18,13.13,1.98,14.52,2.51,3.5,1.33,4.78,1.57,4.74,2.07,0,.11,.04,.19-.08,.35-2.85,3.95-9.2,6.19-12.62,7.9"/><path class="am" d="M217.54,1205c-2.6,0-4.72,.32-9.72,.79-2.64,.26-4.98,.45-7.55,.77-1.93,.55-3.86,1.25-5.77,2.09l-1.65,.71c8.26,2.57,16.62,3.89,24.99,3.95h2.42c3.04-.22,6.33,.34,9.01-2.98-4.35-1.36-8.76-2.09-13.17-2.17-1.64,0-3.27,.12-4.85,.42h-.39v-.02l4.9,1.11-4.38-1.11h2.61c4.68-.05,9.36,.61,13.99,1.98-2.39,1.98-5.18,1.52-7.76,1.7h-1.32c-2.42,0-4.84-.12-7.26-.34-5.12-.45-10.23-1.4-15.31-2.83,3.44-1.22,6.91-2.06,10.4-2.49,3.22-.38,6.47-.55,9.72-.55,6.99,0,13.98,.84,20.92,2.49,.3,.12,2.47,.87,1.67,1.6-8.73,2.67-20.18,7.17-30.85,7.17-7.56,0-14.72-2.25-20.24-8.99,5.8,7.31,13.26,9.72,21.1,9.72,10.43,0,21.53-4.27,30.2-6.9,.1-.05,.2-.13,.28-.26,.08-.12,.15-.27,.2-.45,.05-.17,.08-.37,.09-.57,0-.2,0-.4-.04-.59-.16-.47-.38-.86-.63-1.14-.25-.28-.54-.45-.83-.5-4.01-.75-10.64-1.76-11.63-1.98-4.61-.43-7.09-.65-9.17-.65Z"/></g></g><g id="y"><g><path class="am" d="M246.11,1234.71c1.14-9.04-.39-61.83-.26-68.78,.02-1.25,.31-1.75,.08-10.53,.22-5.31,.26-10.99,.26-10.99v-15.75c-.32-15.76-.26-5.68,.17-26.49,.17-8.09,0-6.92-.14-23.53-4.08,4.9-6.18,5.69-11.15,7.78-10.23,4.29-18.47,5.36-28.78,2.19-6.34-1.98-15.66-3-20.36-11.04-.49,10.2-.57,16.57-.8,25.5-.14,5.31-.27,8.8-.34,13.02-.24,13.17,.14,6.39-.44,23.5-.1,2.99,.12,9.72-.12,14.34-.06,5.21-.02,5.39-.11,8.04,.1,7.2,.07,6.07,.04,9.41-.08,9.22,.66,65.86,.8,72.51"/><g id="a`"><path class="am" d="M234.58,1087.81c-6.25,2.19-11.27,2.84-17.62,3.45-2.82,0-18.17-1.84-21.46-4.11-4.31-2.94-9.38-8.18-9.38-9.31-.08-1.6,3.99-.95,5.84-1.28,7.65-1.36,11.85-1.68,17.43-2.19,9.44-.85,8.99-1.25,19.64,0,1.41,.18,13.64,1.98,15.08,2.51,4.48,1.64,1.38,5.22,.49,6.11-2.96,3.95-5.21,2.49-8.76,4.21"/><path class="am" d="M219.51,1073.62c-2.7,0-4.9,.32-10.1,.79-2.75,.26-5.17,.45-7.84,.77-2,.55-4.01,1.25-5.99,2.09l-1.71,.71c8.59,2.57,17.27,3.89,25.97,3.95h2.51c3.16-.22,6.57,.34,9.36-2.98-4.52-1.36-9.1-2.09-13.68-2.17-1.7,0-3.39,.12-5.04,.42h-.41v-.02l5.1,1.11-4.55-1.11h2.72c4.87-.05,9.73,.61,14.54,1.98-2.48,1.98-5.39,1.52-8.06,1.7h-1.37c-2.51,0-5.03-.12-7.54-.34-5.32-.45-10.63-1.4-15.9-2.83,3.57-1.22,7.18-2.06,10.81-2.49,3.35-.38,6.72-.55,10.1-.55,7.27,0,14.52,.84,21.73,2.49,.31,.12,2.56,.87,1.73,1.6-9.07,2.67-20.97,7.17-32.05,7.17-7.85,0-15.3-2.25-21.03-8.99,6.02,7.31,13.78,9.72,21.93,9.72,10.84,0,22.37-4.27,31.38-6.9,.11-.05,.2-.13,.29-.26,.09-.12,.16-.27,.21-.45,.05-.17,.08-.37,.1-.57,0-.2,0-.4-.04-.59-.17-.47-.39-.86-.66-1.14-.26-.28-.56-.45-.86-.5-4.17-.75-11.05-1.76-12.09-1.98-4.79-.43-7.37-.65-9.52-.65Z"/></g></g><path class="am" d="M174.45,1163.24c-.14-.18-6.53-8.29-6.64-8.48-4.28-7.72-4.76-9.86-14.61-21.29-10.82-12.56-4.66-7.6-16.14-18.72-.05-.05-1.68-2.04-1.72-2.09l-2.97-3.54c-1.11-1.42,1.93-.8,3.27,.42,.37,.34,1.39,1.6,1.79,1.99,2.31,2.31,5.96,4.94,8.84,8.03,1.12,1.2,3.06-.06,2.42-1.57-2.5-5.93-5.75-14.48-8.07-23.55-.04-.17-.47-1.97-.52-2.13-.45-1.79,1.56-.01,2.22,1.71,3.98,10.37,10.25,26.5,14.73,30.31,18.81,15.97,20.72,26.26,30.87,21.11,6.31-3.2-.54,22.1-.91,23.89-.03,.14,5.44,5.98,5.37,6.1-.65,1.2-7.98,1.06-17.95-12.16Z"/><g><path class="ai" d="M144.25,1131.37s-2.33-3.8,1.52-8.42c3.85-4.62,4.28-3.75,4.28-3.75,0,0,2.42,6.85-.91,9.48-3.33,2.63-4.88,2.69-4.88,2.69Z"/><path class="ai" d="M137.87,1124.12s-3.55-2.47-1.94-8.07,2.33-5,2.33-5c0,0,4.82,5.14,2.89,8.78-1.93,3.64-3.28,4.3-3.28,4.3Z"/><path class="ai" d="M147.23,1120.28s-4.21-.82-4.97-6.55,.12-5.47,.12-5.47c0,0,6.42,2.74,6.12,6.81-.3,4.07-1.27,5.21-1.27,5.21Z"/><path class="ai" d="M136.52,1105.8s.83-3.41,5.55-3.82,4.47,.31,4.47,.31c0,0-2.49,5.15-5.8,4.74s-4.21-1.24-4.21-1.24Z"/><path class="ai" d="M138.46,1102.39s.66-3.29,5.15-3.86,4.28,.12,4.28,.12c0,0-2.18,5.01-5.35,4.75s-4.07-1.02-4.07-1.02Z"/></g><g id="aa"><path class="aj" d="M233.97,1085.97c-6.01,2.19-12.1,3.6-18.21,4.21-2.72,0-16.93-2.11-20.1-4.39-4.15-2.94-9.58-7.9-9.58-9.03-.07-1.6,3.84-.95,5.62-1.28,7.36-1.36,11.41-1.68,16.78-2.19,9.08-.85,8.65-1.25,18.9,0,1.36,.18,13.13,1.98,14.52,2.51,3.5,1.33,4.78,1.57,4.74,2.07,0,.11,.04,.19-.08,.35-2.85,3.95-9.2,6.19-12.62,7.9"/><path class="am" d="M218.22,1072.53c-2.6,0-4.72,.32-9.72,.79-2.64,.26-4.98,.45-7.55,.77-1.93,.55-3.86,1.25-5.77,2.09l-1.65,.71c8.26,2.57,16.62,3.89,24.99,3.95h2.42c3.04-.22,6.33,.34,9.01-2.98-4.35-1.36-8.76-2.09-13.17-2.17-1.64,0-3.27,.12-4.85,.42h-.39v-.02l4.9,1.11-4.38-1.11h2.61c4.68-.05,9.36,.61,13.99,1.98-2.39,1.98-5.18,1.52-7.76,1.7h-1.32c-2.42,0-4.84-.12-7.26-.34-5.12-.45-10.23-1.4-15.31-2.83,3.44-1.22,6.91-2.06,10.4-2.49,3.22-.38,6.47-.55,9.72-.55,6.99,0,13.98,.84,20.92,2.49,.3,.12,2.47,.87,1.67,1.6-8.73,2.67-20.18,7.17-30.85,7.17-7.56,0-14.72-2.25-20.24-8.99,5.8,7.31,13.26,9.72,21.1,9.72,10.43,0,21.53-4.27,30.2-6.9,.1-.05,.2-.13,.28-.26,.08-.12,.15-.27,.2-.45,.05-.17,.08-.37,.09-.57,0-.2,0-.4-.04-.59-.16-.47-.38-.86-.63-1.14-.25-.28-.54-.45-.83-.5-4.01-.75-10.64-1.76-11.63-1.98-4.61-.43-7.09-.65-9.17-.65Z"/></g></g></g><g id="ab"/><g id="ac"><g id="ad"/><g id="ae"/></g><g id="af"><g id="ag"/><g id="ah"/></g></svg>