<?xml version="1.0" encoding="UTF-8"?><svg id="a" xmlns="http://www.w3.org/2000/svg" viewBox="0 0 428 2136.5"><defs><style>.ai{fill:#fbf5f7;}.aj{fill:#efefef;}.ak{fill:#84a749;}.al{fill:#a5ca68;}.am{fill:#afd079;}.an{fill:#c19f87;}.ao{fill:#aacd70;}.ap{fill:#e0a54f;}.aq{fill:#9ac355;}.ar{fill:#715847;}.as{fill:#6d5341;}</style></defs><g id="b"><g id="c"><g><path id="d" class="as" d="M245.38,2075.19s6.08,15.65,14.14,20.8c9.31,5.95,1.5,6.38-2.96,5.75-4.46-.62-12.4-4.67-15.38-8.4-2.97-3.73-56.15,12.29-63.01,12.95s-14.67,1.82-15.76-.4,7.46-4.43,10.49-12.13c3.03-7.71,5.5-21.84,7.21-24.61,3.46-5.61,65.28,6.03,65.28,6.03h-.01Z"/><path class="as" d="M257.23,2101.91c-2.95-3.61-5.79-6.47-8.59-9.06-.69-.64-1.23-1.47-1.66-2.44-.2-2.75-.43-5.43-.43-5.43l-.02-.32c-.56-11.52-.67-34.48-1.9-52.45-.55-8.06-.64-9.45-.79-26.05-4.08,4.9-9.98,4.96-14.96,7.06-10.23,4.29-18.47,5.36-28.78,2.19-6.34-1.98-14.41-2.57-19.1-10.61,.71,12.37-.04,17.48,.15,26.42,.11,4.25-.21,11.31-.45,15.54-.66,11.54-.15,15.94-2.43,26.75-.54,2.92-.94,5.91-1.21,8.95-.34,2.58-.55,5.2-.65,7.84-.28,2.45-.58,5.47-.8,8.8-.54,8.38-4.65,10.41-9.77,12.1-5.12,1.69-7.48,4.06-7.48,4.06,0,0-10.23,8.65-3,6.16,3.49-1.2,13.9-5.7,18.18-5.79s7.83,.15,12.41-3.1c4.57-3.24,3.66-5.34,10.98-4.22,4.42,.68,5.94,4.72,2.88,14.45-2.78,8.82-.7,15.09,3.16,14.21,1.39-.32,6.28-16.33,13.35-22.56,2.08-1.83,2.75-2.56,5.88-4.28,4.24-2.34,7.43-.46,14.38,4.62,5.4,3.95,6.81,6.11,9.1,7.78,2.29,1.67,4.66-1.44,1.86-5.42s-3.81-3.42-6.56-10.94,4.28-1.71,10.02,2.05c6.09,3.98,16.76,6.04,19.51,5.49,2.4-.48-10.33-8.2-13.28-11.81h0Z"/><g id="e"><path class="an" d="M230.71,2014.18c-6.25,2.19-12.57,3.6-18.92,4.21-2.82,0-17.59-2.11-20.88-4.39-4.31-2.94-9.96-7.9-9.96-9.03-.08-1.6,3.99-.95,5.84-1.28,7.65-1.36,11.85-1.68,17.43-2.19,9.44-.85,8.99-1.25,19.64,0,1.41,.18,13.64,1.98,15.08,2.51,3.64,1.33,4.96,1.57,4.92,2.07,0,.11,.04,.19-.08,.35-2.96,3.95-9.56,6.19-13.11,7.9"/><path class="as" d="M214.35,2000.74c-2.7,0-4.9,.32-10.1,.79-2.75,.26-5.17,.45-7.84,.77-2,.55-4.01,1.25-5.99,2.09l-1.71,.71c8.59,2.57,17.27,3.89,25.97,3.95h2.51c3.16-.22,6.57,.34,9.36-2.98-4.52-1.36-9.1-2.09-13.68-2.17-1.7,0-3.39,.12-5.04,.42h-.41v-.02l5.1,1.11-4.55-1.11h2.72c4.87-.05,9.73,.61,14.54,1.98-2.48,1.98-5.39,1.52-8.06,1.7h-1.37c-2.51,0-5.03-.12-7.54-.34-5.32-.45-10.63-1.4-15.9-2.83,3.57-1.22,7.18-2.06,10.81-2.49,3.35-.38,6.72-.55,10.1-.55,7.27,0,14.52,.84,21.73,2.49,.31,.12,2.56,.87,1.73,1.6-9.07,2.67-20.97,7.17-32.05,7.17-7.85,0-15.3-2.25-21.03-8.99,6.02,7.31,13.78,9.72,21.93,9.72,10.84,0,22.37-4.27,31.38-6.9,.11-.05,.2-.13,.29-.26,.09-.12,.16-.27,.21-.45,.05-.17,.08-.37,.1-.57,0-.2,0-.4-.04-.59-.17-.47-.39-.86-.66-1.14-.26-.28-.56-.45-.86-.5-4.17-.75-11.05-1.76-12.09-1.98-4.79-.43-7.37-.65-9.52-.65l-.04,.02Z"/></g></g></g><g id="f"><g><path class="as" d="M243.9,2017.51c.11-6.04-.11-12.46,.02-19.41,.02-1.25,.31-1.75,.08-10.53,.22-5.31,.26-10.99,.26-10.99l.19-16.07c-.32-15.76-.34-8.26,0-26.16,.15-8.09,0-6.92-.14-23.53-4.08,4.9-6.18,5.69-11.15,7.78-10.23,4.29-18.47,5.36-28.78,2.19-6.34-1.98-15.66-3-20.36-11.04-.49,10.2-1.06,17.52-1.29,26.46-.14,5.31-.58,10.56-.65,14.78-.24,13.17-.16,9.2-.75,26.31-.1,2.99,.27,7.5,0,10.54-.34,2.58-.17,4.67-.27,7.32,.1,7.2-.03,4.66-.06,8-.08,9.22,.27,12.67,.41,19.32"/><g id="g"><path class="as" d="M232.46,1919.97c-6.25,2.19-11.27,2.84-17.62,3.45-2.82,0-18.17-1.84-21.46-4.11-4.31-2.94-9.38-8.18-9.38-9.31-.08-1.6,3.99-.95,5.84-1.28,7.65-1.36,11.85-1.68,17.43-2.19,9.44-.85,8.99-1.25,19.64,0,1.41,.18,13.64,1.98,15.08,2.51,4.48,1.64,1.38,5.22,.49,6.11-2.96,3.95-5.21,2.49-8.76,4.21"/><path class="as" d="M217.4,1905.77c-2.7,0-4.9,.32-10.1,.79-2.75,.26-5.17,.45-7.84,.77-2,.55-4.01,1.25-5.99,2.09l-1.71,.71c8.59,2.57,17.27,3.89,25.97,3.95h2.51c3.16-.22,6.57,.34,9.36-2.98-4.52-1.36-9.1-2.09-13.68-2.17-1.7,0-3.39,.12-5.04,.42h-.41v-.02l5.1,1.11-4.55-1.11h2.72c4.87-.05,9.73,.61,14.54,1.98-2.48,1.98-5.39,1.52-8.06,1.7h-1.37c-2.51,0-5.03-.12-7.54-.34-5.32-.45-10.63-1.4-15.9-2.83,3.57-1.22,7.18-2.06,10.81-2.49,3.35-.38,6.72-.55,10.1-.55,7.27,0,14.52,.84,21.73,2.49,.31,.12,2.56,.87,1.73,1.6-9.07,2.67-20.97,7.17-32.05,7.17-7.85,0-15.3-2.25-21.03-8.99,6.02,7.31,13.78,9.72,21.93,9.72,10.84,0,22.37-4.27,31.38-6.9,.11-.05,.2-.13,.29-.26,.09-.12,.16-.27,.21-.45,.05-.17,.08-.37,.1-.57,0-.2,0-.4-.04-.59-.17-.47-.39-.86-.66-1.14-.26-.28-.56-.45-.86-.5-4.17-.75-11.05-1.76-12.09-1.98-4.79-.43-7.37-.65-9.52-.65l-.04,.02Z"/></g></g><g id="h"><path class="an" d="M231.92,1918.65c-6.01,2.19-12.1,3.6-18.21,4.21-2.72,0-16.93-2.11-20.1-4.39-4.15-2.94-9.58-7.9-9.58-9.03-.07-1.6,3.84-.95,5.62-1.28,7.36-1.36,11.41-1.68,16.78-2.19,9.08-.85,8.65-1.25,18.9,0,1.36,.18,13.13,1.98,14.52,2.51,3.5,1.33,4.78,1.57,4.74,2.07,0,.11,.04,.19-.08,.35-2.85,3.95-9.2,6.19-12.62,7.9"/><path class="as" d="M216.17,1905.21c-2.6,0-4.72,.32-9.72,.79-2.64,.26-4.98,.45-7.55,.77-1.93,.55-3.86,1.25-5.77,2.09l-1.65,.71c8.26,2.57,16.62,3.89,24.99,3.95h2.42c3.04-.22,6.33,.34,9.01-2.98-4.35-1.36-8.76-2.09-13.17-2.17-1.64,0-3.27,.12-4.85,.42h-.39v-.02l4.9,1.11-4.38-1.11h2.61c4.68-.05,9.36,.61,13.99,1.98-2.39,1.98-5.18,1.52-7.76,1.7h-1.32c-2.42,0-4.84-.12-7.26-.34-5.12-.45-10.23-1.4-15.31-2.83,3.44-1.22,6.91-2.06,10.4-2.49,3.22-.38,6.47-.55,9.72-.55,6.99,0,13.98,.84,20.92,2.49,.3,.12,2.47,.87,1.67,1.6-8.73,2.67-20.18,7.17-30.85,7.17-7.56,0-14.72-2.25-20.24-8.99,5.8,7.31,13.26,9.72,21.1,9.72,10.43,0,21.53-4.27,30.2-6.9,.1-.05,.2-.13,.28-.26,.08-.12,.15-.27,.2-.45,.05-.17,.08-.37,.09-.57,0-.2,0-.4-.04-.59-.16-.47-.38-.86-.63-1.14s-.54-.45-.83-.5c-4.01-.75-10.64-1.76-11.63-1.98-4.61-.43-7.09-.65-9.17-.65l.02,.02Z"/></g></g><g id="i"><g><path class="as" d="M244.53,1932c.11-6.04-.22-93.58-.09-100.53,.02-1.25,.31-1.75,.08-10.53,.22-5.31,.26-10.99,.26-10.99v-15.75c-.32-15.76-.26-5.68,.17-26.49,.17-8.09,0-6.92-.14-23.53-4.08,4.9-6.18,5.69-11.15,7.78-10.23,4.29-18.47,5.36-28.78,2.19-6.34-1.98-15.66-3-20.36-11.04-.49,10.2-.57,16.57-.8,25.5-.14,5.31-.27,8.8-.34,13.02-.24,13.17,.14,6.39-.44,23.5-.1,2.99,.12,9.72-.12,14.34-.06,5.21-.02,5.39-.11,8.04,.1,7.2,.07,6.07,.04,9.41-.08,9.22-.12,91.89,.03,98.53"/><g id="j"><path class="as" d="M233.17,1753.35c-6.25,2.19-11.27,2.84-17.62,3.45-2.82,0-18.17-1.84-21.46-4.11-4.31-2.94-9.38-8.18-9.38-9.31-.08-1.6,3.99-.95,5.84-1.28,7.65-1.36,11.85-1.68,17.43-2.19,9.44-.85,8.99-1.25,19.64,0,1.41,.18,13.64,1.98,15.08,2.51,1.12,.41,1.63,.48,1.92,1.1,.75,1.61-.76,4.35-1.43,5.01-2.96,3.95-5.21,2.49-8.76,4.21"/><path class="as" d="M218.1,1739.16c-2.7,0-4.9,.32-10.1,.79-2.75,.26-5.17,.45-7.84,.77-2,.55-4.01,1.25-5.99,2.09l-1.71,.71c8.59,2.57,17.27,3.89,25.97,3.95h2.51c3.16-.22,6.57,.34,9.36-2.98-4.52-1.36-9.1-2.09-13.68-2.17-1.7,0-3.39,.12-5.04,.42h-.41v-.02l5.1,1.11-4.55-1.11h2.72c4.87-.05,9.73,.61,14.54,1.98-2.48,1.98-5.39,1.52-8.06,1.7h-1.37c-2.51,0-5.03-.12-7.54-.34-5.32-.45-10.63-1.4-15.9-2.83,3.57-1.22,7.18-2.06,10.81-2.49,3.35-.38,6.72-.55,10.1-.55,7.27,0,14.52,.84,21.73,2.49,.31,.12,2.56,.87,1.73,1.6-9.07,2.67-20.97,7.17-32.05,7.17-7.85,0-15.3-2.25-21.03-8.99,6.02,7.31,13.78,9.72,21.93,9.72,10.84,0,22.37-4.27,31.38-6.9,.11-.05,.2-.13,.29-.26,.09-.12,.16-.27,.21-.45,.05-.17,.08-.37,.1-.57,0-.2,0-.4-.04-.59-.17-.47-.39-.86-.66-1.14-.26-.28-.56-.45-.86-.5-4.17-.75-11.05-1.76-12.09-1.98-4.79-.43-7.37-.65-9.52-.65l-.04,.02Z"/></g></g><path class="as" d="M240.57,1862.18s11.76,4.56,23.99-9.95c5.66-6.72,12.25-10.63,16.7-14.26,5.16-4.21,6.54-4.82,8.88-9.62,5.03-10.35,8.67-22.24,8.98-10.15,.27,10.61-13.93,24.05-13.93,24.05,0,0,4.25,1.27,12.09-1.45,7.31-2.54,8.99-3.64,10.8-3.64s-3.6,5.79-13.04,7.97c-9.45,2.18-20.06,9.32-22.24,16.22s-34.98,31.62-34.98,31.62l2.76-30.79h-.01Z"/><g><path class="ak" d="M285.52,1854.85s-.59-4.07,4.35-6.57,4.99-1.62,4.99-1.62c0,0-.45,6.68-4.23,7.69s-5.11,.5-5.11,.5Z"/><path class="ak" d="M305.02,1849.72s-3.63-.42-4.66-5.23c-1.03-4.81-.26-4.65-.26-4.65,0,0,5.63,1.9,5.65,5.38s-.73,4.51-.73,4.51h0Z"/><path class="ak" d="M292.95,1845.19s.06-4.47,5.79-6.33,5.63-.9,5.63-.9c0,0-1.61,7.1-5.84,7.55-4.23,.45-5.58-.33-5.58-.33h0Z"/><path class="ak" d="M285.02,1841.11s1.38-3.44,6.37-3.17,4.63,.99,4.63,.99c0,0-3.37,5.01-6.78,4.1s-4.22-1.92-4.22-1.92h0Z"/><path class="ak" d="M294.45,1834.37s-2.71-3.48,.57-8.44,3.79-4.16,3.79-4.16c0,0,3.13,6.46,.15,9.42s-4.5,3.18-4.5,3.18h-.01Z"/><path class="ak" d="M297.16,1822.86s-3.61-2.38-2.13-8.02,2.21-5.05,2.21-5.05c0,0,4.94,5.02,3.1,8.7-1.84,3.68-3.18,4.37-3.18,4.37h0Z"/><path class="ak" d="M295.25,1834.92s-4.61,.14-6.78-5.68-1.17-5.77-1.17-5.77c0,0,7.38,1.35,8.04,5.69s-.09,5.76-.09,5.76h0Z"/><path class="ak" d="M279.24,1844.61s-2.74-3.21,.17-8.09,3.44-4.14,3.44-4.14c0,0,3.27,6.04,.55,8.99s-4.16,3.24-4.16,3.24Z"/></g><g id="k"><path class="an" d="M232.56,1751.51c-6.01,2.19-12.1,3.6-18.21,4.21-2.72,0-16.93-2.11-20.1-4.39-4.15-2.94-9.58-7.9-9.58-9.03-.07-1.6,3.84-.95,5.62-1.28,7.36-1.36,11.41-1.68,16.78-2.19,9.08-.85,8.65-1.25,18.9,0,1.36,.18,13.13,1.98,14.52,2.51,3.5,1.33,4.78,1.57,4.74,2.07,0,.11,.04,.19-.08,.35-2.85,3.95-9.2,6.19-12.62,7.9"/><path class="as" d="M216.81,1738.07c-2.6,0-4.72,.32-9.72,.79-2.64,.26-4.98,.45-7.55,.77-1.93,.55-3.86,1.25-5.77,2.09l-1.65,.71c8.26,2.57,16.62,3.89,24.99,3.95h2.42c3.04-.22,6.33,.34,9.01-2.98-4.35-1.36-8.76-2.09-13.17-2.17-1.64,0-3.27,.12-4.85,.42h-.39v-.02l4.9,1.11-4.38-1.11h2.61c4.68-.05,9.36,.61,13.99,1.98-2.39,1.98-5.18,1.52-7.76,1.7h-1.32c-2.42,0-4.84-.12-7.26-.34-5.12-.45-10.23-1.4-15.31-2.83,3.44-1.22,6.91-2.06,10.4-2.49,3.22-.38,6.47-.55,9.72-.55,6.99,0,13.98,.84,20.92,2.49,.3,.12,2.47,.87,1.67,1.6-8.73,2.67-20.18,7.17-30.85,7.17-7.56,0-14.72-2.25-20.24-8.99,5.8,7.31,13.26,9.72,21.1,9.72,10.43,0,21.53-4.27,30.2-6.9,.1-.05,.2-.13,.28-.26,.08-.12,.15-.27,.2-.45,.05-.17,.08-.37,.09-.57,0-.2,0-.4-.04-.59-.16-.47-.38-.86-.63-1.14s-.54-.45-.83-.5c-4.01-.75-10.64-1.76-11.63-1.98-4.61-.43-7.09-.65-9.17-.65l.02,.02Z"/></g></g><g id="l"><g><path class="as" d="M244.88,1758.21c.11-6.04,.14-49.19,.27-56.14,.02-1.25,.31-1.75,.08-10.53,.22-5.31,.26-10.99,.26-10.99v-15.75c-.32-15.76-.26-5.68,.17-26.49,.17-8.09,0-6.92-.14-23.53-4.08,4.9-6.18,5.69-11.15,7.78-10.23,4.29-18.47,5.36-28.78,2.19-6.34-1.98-15.66-3-20.36-11.04-.49,10.2-.57,16.57-.8,25.5-.14,5.31-.27,8.8-.34,13.02-.24,13.17,.14,6.39-.44,23.5-.1,2.99,.12,9.72-.12,14.34-.06,5.21-.02,5.39-.11,8.04,.1,7.2,.07,6.07,.04,9.41-.08,9.22,.63,43.34,.77,49.99"/><g id="m"><path class="as" d="M233.87,1623.95c-6.25,2.19-11.27,2.84-17.62,3.45-2.82,0-18.17-1.84-21.46-4.11-4.31-2.94-9.38-8.18-9.38-9.31-.08-1.6,3.99-.95,5.84-1.28,7.65-1.36,11.85-1.68,17.43-2.19,9.44-.85,8.99-1.25,19.64,0,1.41,.18,13.64,1.98,15.08,2.51,4.48,1.64,1.38,5.22,.49,6.11-2.96,3.95-5.21,2.49-8.76,4.21"/><path class="as" d="M218.81,1609.76c-2.7,0-4.9,.32-10.1,.79-2.75,.26-5.17,.45-7.84,.77-2,.55-4.01,1.25-5.99,2.09l-1.71,.71c8.59,2.57,17.27,3.89,25.97,3.95h2.51c3.16-.22,6.57,.34,9.36-2.98-4.52-1.36-9.1-2.09-13.68-2.17-1.7,0-3.39,.12-5.04,.42h-.41v-.02l5.1,1.11-4.55-1.11h2.72c4.87-.05,9.73,.61,14.54,1.98-2.48,1.98-5.39,1.52-8.06,1.7h-1.37c-2.51,0-5.03-.12-7.54-.34-5.32-.45-10.63-1.4-15.9-2.83,3.57-1.22,7.18-2.06,10.81-2.49,3.35-.38,6.72-.55,10.1-.55,7.27,0,14.52,.84,21.73,2.49,.31,.12,2.56,.87,1.73,1.6-9.07,2.67-20.97,7.17-32.05,7.17-7.85,0-15.3-2.25-21.03-8.99,6.02,7.31,13.78,9.72,21.93,9.72,10.84,0,22.37-4.27,31.38-6.9,.11-.05,.2-.13,.29-.26,.09-.12,.16-.27,.21-.45,.05-.17,.08-.37,.1-.57,0-.2,0-.4-.04-.59-.17-.47-.39-.86-.66-1.14-.26-.28-.56-.45-.86-.5-4.17-.75-11.05-1.76-12.09-1.98-4.79-.43-7.37-.65-9.52-.65l-.04,.02Z"/></g></g><path class="as" d="M176.86,1733.97c-.14-.18-6.53-8.29-6.64-8.48-4.28-7.72-4.76-9.86-14.61-21.29-10.82-12.56-4.66-7.6-16.14-18.72-.05-.05-1.68-2.04-1.72-2.09l-2.97-3.54c-1.11-1.42,1.93-.8,3.27,.42,.37,.34,1.39,1.6,1.79,1.99,2.31,2.31,5.96,4.94,8.84,8.03,1.12,1.2,3.06-.06,2.42-1.57-2.5-5.93-5.75-14.48-8.07-23.55-.04-.17-.47-1.97-.52-2.13-.45-1.79,1.56-.01,2.22,1.71,3.98,10.37,10.25,26.5,14.73,30.31,18.81,15.97,20.72,26.26,30.87,21.11,6.31-3.2-.54,22.1-.91,23.89-.03,.14,5.44,5.98,5.37,6.1-.65,1.2-7.98,1.06-17.95-12.16l.02-.03Z"/><g><path class="ak" d="M146.65,1702.1s-2.33-3.8,1.52-8.42,4.28-3.75,4.28-3.75c0,0,2.42,6.85-.91,9.48s-4.88,2.69-4.88,2.69h0Z"/><path class="ak" d="M140.28,1694.85s-3.55-2.47-1.94-8.07,2.33-5,2.33-5c0,0,4.82,5.14,2.89,8.78s-3.28,4.3-3.28,4.3h0Z"/><path class="ak" d="M149.64,1691.02s-4.21-.82-4.97-6.55,.12-5.47,.12-5.47c0,0,6.42,2.74,6.12,6.81-.3,4.07-1.27,5.21-1.27,5.21h0Z"/><path class="ak" d="M138.93,1676.53s.83-3.41,5.55-3.82,4.47,.31,4.47,.31c0,0-2.49,5.15-5.8,4.74s-4.21-1.24-4.21-1.24h0Z"/><path class="ak" d="M140.86,1673.12s.66-3.29,5.15-3.86,4.28,.12,4.28,.12c0,0-2.18,5.01-5.35,4.75s-4.07-1.02-4.07-1.02h0Z"/></g><g id="n"><path class="an" d="M233.27,1622.11c-6.01,2.19-12.1,3.6-18.21,4.21-2.72,0-16.93-2.11-20.1-4.39-4.15-2.94-9.58-7.9-9.58-9.03-.07-1.6,3.84-.95,5.62-1.28,7.36-1.36,11.41-1.68,16.78-2.19,9.08-.85,8.65-1.25,18.9,0,1.36,.18,13.13,1.98,14.52,2.51,3.5,1.33,4.78,1.57,4.74,2.07,0,.11,.04,.19-.08,.35-2.85,3.95-9.2,6.19-12.62,7.9"/><path class="as" d="M217.51,1608.67c-2.6,0-4.72,.32-9.72,.79-2.64,.26-4.98,.45-7.55,.77-1.93,.55-3.86,1.25-5.77,2.09l-1.65,.71c8.26,2.57,16.62,3.89,24.99,3.95h2.42c3.04-.22,6.33,.34,9.01-2.98-4.35-1.36-8.76-2.09-13.17-2.17-1.64,0-3.27,.12-4.85,.42h-.39v-.02l4.9,1.11-4.38-1.11h2.61c4.68-.05,9.36,.61,13.99,1.98-2.39,1.98-5.18,1.52-7.76,1.7h-1.32c-2.42,0-4.84-.12-7.26-.34-5.12-.45-10.23-1.4-15.31-2.83,3.44-1.22,6.91-2.06,10.4-2.49,3.22-.38,6.47-.55,9.72-.55,6.99,0,13.98,.84,20.92,2.49,.3,.12,2.47,.87,1.67,1.6-8.73,2.67-20.18,7.17-30.85,7.17-7.56,0-14.72-2.25-20.24-8.99,5.8,7.31,13.26,9.72,21.1,9.72,10.43,0,21.53-4.27,30.2-6.9,.1-.05,.2-.13,.28-.26,.08-.12,.15-.27,.2-.45,.05-.17,.08-.37,.09-.57,0-.2,0-.4-.04-.59-.16-.47-.38-.86-.63-1.14s-.54-.45-.83-.5c-4.01-.75-10.64-1.76-11.63-1.98-4.61-.43-7.09-.65-9.17-.65l.02,.02Z"/></g></g><g id="o"><g><path class="as" d="M245.6,1632.89c.11-6.04,.13-61.43,.25-68.38,.02-1.25,.31-1.75,.08-10.53,.22-5.31,.26-10.99,.26-10.99v-15.75c-.32-15.76-.26-5.68,.17-26.49,.17-8.09,0-6.92-.14-23.53-4.08,4.9-6.18,5.69-11.15,7.78-10.23,4.29-18.47,5.36-28.78,2.19-6.34-1.98-15.66-3-20.36-11.04-.49,10.2-.57,16.57-.8,25.5-.14,5.31-.27,8.8-.34,13.02-.24,13.17,.14,6.39-.44,23.5-.1,2.99,.12,9.72-.12,14.34-.06,5.21-.02,5.39-.11,8.04,.1,7.2,.07,6.07,.04,9.41-.08,9.22,.13,64.33,.27,70.98"/><g id="p"><path class="as" d="M234.58,1486.4c-6.25,2.19-11.27,2.84-17.62,3.45-2.82,0-18.17-1.84-21.46-4.11-4.31-2.94-9.38-8.18-9.38-9.31-.08-1.6,3.99-.95,5.84-1.28,7.65-1.36,11.85-1.68,17.43-2.19,9.44-.85,8.99-1.25,19.64,0,1.41,.18,13.64,1.98,15.08,2.51,4.48,1.64,1.38,5.22,.49,6.11-2.96,3.95-5.21,2.49-8.76,4.21"/><path class="as" d="M219.51,1472.21c-2.7,0-4.9,.32-10.1,.79-2.75,.26-5.17,.45-7.84,.77-2,.55-4.01,1.25-5.99,2.09l-1.71,.71c8.59,2.57,17.27,3.89,25.97,3.95h2.51c3.16-.22,6.57,.34,9.36-2.98-4.52-1.36-9.1-2.09-13.68-2.17-1.7,0-3.39,.12-5.04,.42h-.41v-.02l5.1,1.11-4.55-1.11h2.72c4.87-.05,9.73,.61,14.54,1.98-2.48,1.98-5.39,1.52-8.06,1.7h-1.37c-2.51,0-5.03-.12-7.54-.34-5.32-.45-10.63-1.4-15.9-2.83,3.57-1.22,7.18-2.06,10.81-2.49,3.35-.38,6.72-.55,10.1-.55,7.27,0,14.52,.84,21.73,2.49,.31,.12,2.56,.87,1.73,1.6-9.07,2.67-20.97,7.17-32.05,7.17-7.85,0-15.3-2.25-21.03-8.99,6.02,7.31,13.78,9.72,21.93,9.72,10.84,0,22.37-4.27,31.38-6.9,.11-.05,.2-.13,.29-.26,.09-.12,.16-.27,.21-.45,.05-.17,.08-.37,.1-.57,0-.2,0-.4-.04-.59-.17-.47-.39-.86-.66-1.14-.26-.28-.56-.45-.86-.5-4.17-.75-11.05-1.76-12.09-1.98-4.79-.43-7.37-.65-9.52-.65l-.04,.02Z"/></g></g><polygon class="as" points="244.32 1588.8 272.37 1572.67 272.67 1577.76 243.09 1604.11 233.52 1599.59 244.32 1588.8"/><path class="ap" d="M248.26,1596.63c-2.74-2.47-6.72,2.41-5.25,5.35s.66,6.91,1.73,12.56c1.06,5.65,2.65,9.39,3.22,7.71,.89-2.6,1.17-10.39-1.14-16.03-2.14-5.2,4.4-6.92,1.44-9.58h0Z"/><path class="ar" d="M225,1551.01c.63-.58,1.49,.24,1.49,1.4s-.05,2.8,.72,2.17,2.07-.67,2.07-.39-.14,.24,.39,.29,.82,.19,1.3,.63,.05,.87,.48,.43,.92-1.88,1.4-1.54,.1,.29,.48,0,.05-1.11,.43-.92,.39-.05,.63-.19-.77,1.01,.34,1.69,2.99,1.11,3.86,2.46,1.01,2.65,1.88,3.04,1.21-.14,1.06,.72-.43,1.98,.19,2.07,1.06,.29,.63,.67-1.21-.1-.43,.39,.96-.43,.77,.48,0,1.88,.34,2.02,.24,0,.19,.72,.05-1.06-.05,.72,.12,2.67,.52,3,.79,1.77,.66,2.69-.46,1.18-.13,1.91,.07,3.48-.07,3.88-1.18,1.97-.59,2.17,.2,1.31-.26,1.51,.26,1.58-.2,1.84-1.58,.26-1.38,.79,.79,.53-.33,.85-1.05-.39-1.12,.33,1.38,.53-.07,.72-2.17,.59-2.04,1.25-.72,.53-1.18,.07-1.12-1.18-1.12-.53-.85,.46-.92-.33,.59-.66-.07-.79-.92,0-.85-.53,1.05-.53,.07-.53-1.18,.46-2.37-1.58-1.71-3.88-2.1-3.88-1.12-.85-.53-.92,.33-.13-.07-.92-.46-1.91-.33-2.17,.26,0,0-.92-.39-1.18-.2-1.38,0-.92-.2-1.51-.39-1.18-.2-1.31,.11-.01,.13-.53c.07-1.51,.13-1.77-.07-2.04s-.79-1.77-.26-2.3,.99-.33,.13-1.38-.92-1.05-.53-1.71,.85-1.91,.13-2.3-1.58-1.18-.99-1.38,.79-1.38,.26-1.51-.07-.59,.07-.79,.66,.46-.2-1.18-2.43-3.22-2.37-4.14,.56-1.34,.56-1.34l.05,.03Z"/><g id="q"><path class="an" d="M233.97,1484.56c-6.01,2.19-12.1,3.6-18.21,4.21-2.72,0-16.93-2.11-20.1-4.39-4.15-2.94-9.58-7.9-9.58-9.03-.07-1.6,3.84-.95,5.62-1.28,7.36-1.36,11.41-1.68,16.78-2.19,9.08-.85,8.65-1.25,18.9,0,1.36,.18,13.13,1.98,14.52,2.51,3.5,1.33,4.78,1.57,4.74,2.07,0,.11,.04,.19-.08,.35-2.85,3.95-9.2,6.19-12.62,7.9"/><path class="as" d="M218.22,1471.12c-2.6,0-4.72,.32-9.72,.79-2.64,.26-4.98,.45-7.55,.77-1.93,.55-3.86,1.25-5.77,2.09l-1.65,.71c8.26,2.57,16.62,3.89,24.99,3.95h2.42c3.04-.22,6.33,.34,9.01-2.98-4.35-1.36-8.76-2.09-13.17-2.17-1.64,0-3.27,.12-4.85,.42h-.39v-.02l4.9,1.11-4.38-1.11h2.61c4.68-.05,9.36,.61,13.99,1.98-2.39,1.98-5.18,1.52-7.76,1.7h-1.32c-2.42,0-4.84-.12-7.26-.34-5.12-.45-10.23-1.4-15.31-2.83,3.44-1.22,6.91-2.06,10.4-2.49,3.22-.38,6.47-.55,9.72-.55,6.99,0,13.98,.84,20.92,2.49,.3,.12,2.47,.87,1.67,1.6-8.73,2.67-20.18,7.17-30.85,7.17-7.56,0-14.72-2.25-20.24-8.99,5.8,7.31,13.26,9.72,21.1,9.72,10.43,0,21.53-4.27,30.2-6.9,.1-.05,.2-.13,.28-.26,.08-.12,.15-.27,.2-.45,.05-.17,.08-.37,.09-.57,0-.2,0-.4-.04-.59-.16-.47-.38-.86-.63-1.14s-.54-.45-.83-.5c-4.01-.75-10.64-1.76-11.63-1.98-4.61-.43-7.09-.65-9.17-.65l.02,.02Z"/></g></g><g id="r"><g><path class="as" d="M246.4,1483.32c.11-6.04-.68-45.21-.55-52.16,.02-1.25,.31-1.75,.08-10.53,.22-5.31,.26-10.99,.26-10.99v-15.75c-.32-15.76-.26-5.68,.17-26.49,.17-8.09,0-6.92-.14-23.53-4.08,4.9-6.18,5.69-11.15,7.78-10.23,4.29-18.47,5.36-28.78,2.19-6.34-1.98-15.66-3-20.36-11.04-.49,10.2-.57,16.57-.8,25.5-.14,5.31-.27,8.8-.34,13.02-.24,13.17,.14,6.39-.44,23.5-.1,2.99,.12,9.72-.12,14.34-.06,5.21-.02,5.39-.11,8.04,.1,7.2,.07,6.07,.04,9.41-.08,9.22,.59,64.53,.73,71.17"/><g id="s"><path class="as" d="M234.58,1353.05c-6.25,2.19-11.27,2.84-17.62,3.45-2.82,0-18.17-1.84-21.46-4.11-4.31-2.94-9.38-8.18-9.38-9.31-.08-1.6,3.99-.95,5.84-1.28,7.65-1.36,11.85-1.68,17.43-2.19,9.44-.85,8.99-1.25,19.64,0,1.41,.18,13.64,1.98,15.08,2.51,4.48,1.64,1.38,5.22,.49,6.11-2.96,3.95-5.21,2.49-8.76,4.21"/><path class="as" d="M219.51,1338.85c-2.7,0-4.9,.32-10.1,.79-2.75,.26-5.17,.45-7.84,.77-2,.55-4.01,1.25-5.99,2.09l-1.71,.71c8.59,2.57,17.27,3.89,25.97,3.95h2.51c3.16-.22,6.57,.34,9.36-2.98-4.52-1.36-9.1-2.09-13.68-2.17-1.7,0-3.39,.12-5.04,.42h-.41v-.02l5.1,1.11-4.55-1.11h2.72c4.87-.05,9.73,.61,14.54,1.98-2.48,1.98-5.39,1.52-8.06,1.7h-1.37c-2.51,0-5.03-.12-7.54-.34-5.32-.45-10.63-1.4-15.9-2.83,3.57-1.22,7.18-2.06,10.81-2.49,3.35-.38,6.72-.55,10.1-.55,7.27,0,14.52,.84,21.73,2.49,.31,.12,2.56,.87,1.73,1.6-9.07,2.67-20.97,7.17-32.05,7.17-7.85,0-15.3-2.25-21.03-8.99,6.02,7.31,13.78,9.72,21.93,9.72,10.84,0,22.37-4.27,31.38-6.9,.11-.05,.2-.13,.29-.26,.09-.12,.16-.27,.21-.45,.05-.17,.08-.37,.1-.57,0-.2,0-.4-.04-.59-.17-.47-.39-.86-.66-1.14-.26-.28-.56-.45-.86-.5-4.17-.75-11.05-1.76-12.09-1.98-4.79-.43-7.37-.65-9.52-.65l-.04,.02Z"/></g></g><polygon class="as" points="193.34 1447.02 152.17 1410.48 153.09 1403.07 196.12 1430.37 193.34 1447.02"/><path class="ar" d="M183.72,1430.14c.63-.58,1.49,.24,1.49,1.4s-.05,2.8,.72,2.17,2.07-.67,2.07-.39-.14,.24,.39,.29,.82,.19,1.3,.63,.05,.87,.48,.43,.92-1.88,1.4-1.54,.1,.29,.48,0,.05-1.11,.43-.92,.39-.05,.63-.19-.77,1.01,.34,1.69,2.99,1.11,3.86,2.46,1.01,2.65,1.88,3.04,1.21-.14,1.06,.72-.43,1.98,.19,2.07,1.06,.29,.63,.67-1.21-.1-.43,.39,.96-.43,.77,.48c-.19,.92,0,1.88,.34,2.02s.24,0,.19,.72,.05-1.06-.05,.72,.12,2.67,.52,3,.79,1.77,.66,2.69-.46,1.18-.13,1.91,.07,3.48-.07,3.88-1.18,1.97-.59,2.17,.2,1.31-.26,1.51,.26,1.58-.2,1.84-1.58,.26-1.38,.79,.79,.53-.33,.85-1.05-.39-1.12,.33,1.38,.53-.07,.72-2.17,.59-2.04,1.25-.72,.53-1.18,.07-1.12-1.18-1.12-.53-.85,.46-.92-.33,.59-.66-.07-.79-.92,0-.85-.53,1.05-.53,.07-.53-1.18,.46-2.37-1.58c-1.18-2.04-1.71-3.88-2.1-3.88s-1.12-.85-.53-.92,.33-.13-.07-.92-.46-1.91-.33-2.17,.26,0,0-.92-.39-1.18-.2-1.38,0-.92-.2-1.51-.39-1.18-.2-1.31,.11-.01,.13-.53c.07-1.51,.13-1.77-.07-2.04s-.79-1.77-.26-2.3,.99-.33,.13-1.38c-.85-1.05-.92-1.05-.53-1.71s.85-1.91,.13-2.3-1.58-1.18-.99-1.38,.79-1.38,.26-1.51-.07-.59,.07-.79,.66,.46-.2-1.18-2.43-3.22-2.37-4.14,.56-1.34,.56-1.34l.05,.03Z"/><path class="ap" d="M185.22,1444.23s-2.66,6.99-3.69,7.42-3.55,1.78-2.75,2.15-3.74,4.35-3.13,6.44,0,4.72,.98,6.26c.98,1.53,1.41,2.27,1.17,5.03s-1.46,5.3-.49,6.32c.97,1.01,2.39,1.04,2.33-.98s-.17-10.97,.86-11.22,2.39-.92,2.39,.31-.8,3.93,1.17,3.5,2.15-1.96,1.84-4.23-.55-2.09,.61-3.07c1.17-.98,1.04-2.64,1.47-9.81s-.31-11.72-.31-11.72l-.74-1.96-1.72,5.58v-.02Z"/><g id="t"><path class="an" d="M235.32,1352.29c-6.01,2.19-12.1,3.6-18.21,4.21-2.72,0-16.93-2.11-20.1-4.39-4.15-2.94-9.58-7.9-9.58-9.03-.07-1.6,3.84-.95,5.62-1.28,7.36-1.36,11.41-1.68,16.78-2.19,9.08-.85,8.65-1.25,18.9,0,1.36,.18,13.13,1.98,14.52,2.51,3.5,1.33,4.78,1.57,4.74,2.07,0,.11,.04,.19-.08,.35-2.85,3.95-9.2,6.19-12.62,7.9"/><path class="as" d="M219.57,1338.85c-2.6,0-4.72,.32-9.72,.79-2.64,.26-4.98,.45-7.55,.77-1.93,.55-3.86,1.25-5.77,2.09l-1.65,.71c8.26,2.57,16.62,3.89,24.99,3.95h2.42c3.04-.22,6.33,.34,9.01-2.98-4.35-1.36-8.76-2.09-13.17-2.17-1.64,0-3.27,.12-4.85,.42h-.39v-.02l4.9,1.11-4.38-1.11h2.61c4.68-.05,9.36,.61,13.99,1.98-2.39,1.98-5.18,1.52-7.76,1.7h-1.32c-2.42,0-4.84-.12-7.26-.34-5.12-.45-10.23-1.4-15.31-2.83,3.44-1.22,6.91-2.06,10.4-2.49,3.22-.38,6.47-.55,9.72-.55,6.99,0,13.98,.84,20.92,2.49,.3,.12,2.47,.87,1.67,1.6-8.73,2.67-20.18,7.17-30.85,7.17-7.56,0-14.72-2.25-20.24-8.99,5.8,7.31,13.26,9.72,21.1,9.72,10.43,0,21.53-4.27,30.2-6.9,.1-.05,.2-.13,.28-.26,.08-.12,.15-.27,.2-.45,.05-.17,.08-.37,.09-.57,0-.2,0-.4-.04-.59-.16-.47-.38-.86-.63-1.14s-.54-.45-.83-.5c-4.01-.75-10.64-1.76-11.63-1.98-4.61-.43-7.09-.65-9.17-.65l.02,.02Z"/></g></g><g id="u"><g><path class="as" d="M246.11,1366.15c1.14-9.04-.39-61.83-.26-68.78,.02-1.25,.31-1.75,.08-10.53,.22-5.31,.26-10.99,.26-10.99v-15.75c-.32-15.76-.26-5.68,.17-26.49,.17-8.09,0-6.92-.14-23.53-4.08,4.9-6.18,5.69-11.15,7.78-10.23,4.29-18.47,5.36-28.78,2.19-6.34-1.98-15.66-3-20.36-11.04-.49,10.2-.57,16.57-.8,25.5-.14,5.31-.27,8.8-.34,13.02-.24,13.17,.14,6.39-.44,23.5-.1,2.99,.12,9.72-.12,14.34-.06,5.21-.02,5.39-.11,8.04,.1,7.2,.07,6.07,.04,9.41-.08,9.22,.66,65.86,.8,72.51"/><g id="v"><path class="as" d="M234.58,1219.25c-6.25,2.19-11.27,2.84-17.62,3.45-2.82,0-18.17-1.84-21.46-4.11-4.31-2.94-9.38-8.18-9.38-9.31-.08-1.6,3.99-.95,5.84-1.28,7.65-1.36,11.85-1.68,17.43-2.19,9.44-.85,8.99-1.25,19.64,0,1.41,.18,13.64,1.98,15.08,2.51,4.48,1.64,1.38,5.22,.49,6.11-2.96,3.95-5.21,2.49-8.76,4.21"/><path class="as" d="M219.51,1205.05c-2.7,0-4.9,.32-10.1,.79-2.75,.26-5.17,.45-7.84,.77-2,.55-4.01,1.25-5.99,2.09l-1.71,.71c8.59,2.57,17.27,3.89,25.97,3.95h2.51c3.16-.22,6.57,.34,9.36-2.98-4.52-1.36-9.1-2.09-13.68-2.17-1.7,0-3.39,.12-5.04,.42h-.41v-.02l5.1,1.11-4.55-1.11h2.72c4.87-.05,9.73,.61,14.54,1.98-2.48,1.98-5.39,1.52-8.06,1.7h-1.37c-2.51,0-5.03-.12-7.54-.34-5.32-.45-10.63-1.4-15.9-2.83,3.57-1.22,7.18-2.06,10.81-2.49,3.35-.38,6.72-.55,10.1-.55,7.27,0,14.52,.84,21.73,2.49,.31,.12,2.56,.87,1.73,1.6-9.07,2.67-20.97,7.17-32.05,7.17-7.85,0-15.3-2.25-21.03-8.99,6.02,7.31,13.78,9.72,21.93,9.72,10.84,0,22.37-4.27,31.38-6.9,.11-.05,.2-.13,.29-.26,.09-.12,.16-.27,.21-.45,.05-.17,.08-.37,.1-.57,0-.2,0-.4-.04-.59-.17-.47-.39-.86-.66-1.14-.26-.28-.56-.45-.86-.5-4.17-.75-11.05-1.76-12.09-1.98-4.79-.43-7.37-.65-9.52-.65l-.04,.02Z"/></g></g><path class="as" d="M242.16,1287.28s9.46,4.63,21.69-9.88c5.66-6.72,14.55-10.7,19-14.33,5.16-4.21,6.54-4.82,8.88-9.62,5.03-10.35,7.32-21.92,7.62-9.84,.27,10.61-12.57,23.74-12.57,23.74,0,0,4.25,1.27,12.09-1.45,7.31-2.54,8.99-3.64,10.8-3.64s-6.18,5.55-15.63,7.73c-9.45,2.18-22.77,13.13-26.76,19.17-8.54,12.91-27.87,28.91-27.87,28.91l2.76-30.79h0Z"/><g><path class="ak" d="M287.11,1279.95s-.59-4.07,4.35-6.57c4.94-2.51,4.99-1.62,4.99-1.62,0,0-.45,6.68-4.23,7.69-3.78,1.02-5.11,.5-5.11,.5Z"/><path class="ak" d="M306.6,1274.83s-3.63-.42-4.66-5.23-.26-4.65-.26-4.65c0,0,5.63,1.9,5.65,5.38,.02,3.47-.73,4.51-.73,4.51h0Z"/><path class="ak" d="M294.54,1270.3s.06-4.47,5.79-6.33,5.63-.9,5.63-.9c0,0-1.61,7.1-5.84,7.55s-5.58-.33-5.58-.33h0Z"/><path class="ak" d="M286.61,1266.21s1.38-3.44,6.37-3.17,4.63,.99,4.63,.99c0,0-3.37,5.01-6.78,4.1s-4.22-1.92-4.22-1.92h0Z"/><path class="ak" d="M296.04,1259.47s-2.71-3.48,.57-8.44c3.27-4.96,3.79-4.16,3.79-4.16,0,0,3.13,6.46,.15,9.42-2.98,2.95-4.5,3.18-4.5,3.18h-.01Z"/><path class="ak" d="M298.74,1247.96s-3.61-2.38-2.13-8.02c1.48-5.64,2.21-5.05,2.21-5.05,0,0,4.94,5.02,3.1,8.7s-3.18,4.37-3.18,4.37h0Z"/><path class="ak" d="M296.84,1260.02s-4.61,.14-6.78-5.68c-2.17-5.82-1.17-5.77-1.17-5.77,0,0,7.38,1.35,8.04,5.69s-.09,5.76-.09,5.76h0Z"/><path class="ak" d="M280.83,1269.72s-2.74-3.21,.17-8.09,3.44-4.14,3.44-4.14c0,0,3.27,6.04,.55,8.99s-4.16,3.24-4.16,3.24Z"/></g><g id="w"><path class="an" d="M233.29,1218.44c-6.01,2.19-12.1,3.6-18.21,4.21-2.72,0-16.93-2.11-20.1-4.39-4.15-2.94-9.58-7.9-9.58-9.03-.07-1.6,3.84-.95,5.62-1.28,7.36-1.36,11.41-1.68,16.78-2.19,9.08-.85,8.65-1.25,18.9,0,1.36,.18,13.13,1.98,14.52,2.51,3.5,1.33,4.78,1.57,4.74,2.07,0,.11,.04,.19-.08,.35-2.85,3.95-9.2,6.19-12.62,7.9"/><path class="as" d="M217.54,1205c-2.6,0-4.72,.32-9.72,.79-2.64,.26-4.98,.45-7.55,.77-1.93,.55-3.86,1.25-5.77,2.09l-1.65,.71c8.26,2.57,16.62,3.89,24.99,3.95h2.42c3.04-.22,6.33,.34,9.01-2.98-4.35-1.36-8.76-2.09-13.17-2.17-1.64,0-3.27,.12-4.85,.42h-.39v-.02l4.9,1.11-4.38-1.11h2.61c4.68-.05,9.36,.61,13.99,1.98-2.39,1.98-5.18,1.52-7.76,1.7h-1.32c-2.42,0-4.84-.12-7.26-.34-5.12-.45-10.23-1.4-15.31-2.83,3.44-1.22,6.91-2.06,10.4-2.49,3.22-.38,6.47-.55,9.72-.55,6.99,0,13.98,.84,20.92,2.49,.3,.12,2.47,.87,1.67,1.6-8.73,2.67-20.18,7.17-30.85,7.17-7.56,0-14.72-2.25-20.24-8.99,5.8,7.31,13.26,9.72,21.1,9.72,10.43,0,21.53-4.27,30.2-6.9,.1-.05,.2-.13,.28-.26,.08-.12,.15-.27,.2-.45,.05-.17,.08-.37,.09-.57,0-.2,0-.4-.04-.59-.16-.47-.38-.86-.63-1.14s-.54-.45-.83-.5c-4.01-.75-10.64-1.76-11.63-1.98-4.61-.43-7.09-.65-9.17-.65l.02,.02Z"/></g></g><g id="x"><g><path class="as" d="M246.11,1234.71c1.14-9.04-.39-61.83-.26-68.78,.02-1.25,.31-1.75,.08-10.53,.22-5.31,.26-10.99,.26-10.99v-15.75c-.32-15.76-.26-5.68,.17-26.49,.17-8.09,0-6.92-.14-23.53-4.08,4.9-6.18,5.69-11.15,7.78-10.23,4.29-18.47,5.36-28.78,2.19-6.34-1.98-15.66-3-20.36-11.04-.49,10.2-.57,16.57-.8,25.5-.14,5.31-.27,8.8-.34,13.02-.24,13.17,.14,6.39-.44,23.5-.1,2.99,.12,9.72-.12,14.34-.06,5.21-.02,5.39-.11,8.04,.1,7.2,.07,6.07,.04,9.41-.08,9.22,.66,65.86,.8,72.51"/><g id="y"><path class="as" d="M234.58,1087.81c-6.25,2.19-11.27,2.84-17.62,3.45-2.82,0-18.17-1.84-21.46-4.11-4.31-2.94-9.38-8.18-9.38-9.31-.08-1.6,3.99-.95,5.84-1.28,7.65-1.36,11.85-1.68,17.43-2.19,9.44-.85,8.99-1.25,19.64,0,1.41,.18,13.64,1.98,15.08,2.51,4.48,1.64,1.38,5.22,.49,6.11-2.96,3.95-5.21,2.49-8.76,4.21"/><path class="as" d="M219.51,1073.62c-2.7,0-4.9,.32-10.1,.79-2.75,.26-5.17,.45-7.84,.77-2,.55-4.01,1.25-5.99,2.09l-1.71,.71c8.59,2.57,17.27,3.89,25.97,3.95h2.51c3.16-.22,6.57,.34,9.36-2.98-4.52-1.36-9.1-2.09-13.68-2.17-1.7,0-3.39,.12-5.04,.42h-.41v-.02l5.1,1.11-4.55-1.11h2.72c4.87-.05,9.73,.61,14.54,1.98-2.48,1.98-5.39,1.52-8.06,1.7h-1.37c-2.51,0-5.03-.12-7.54-.34-5.32-.45-10.63-1.4-15.9-2.83,3.57-1.22,7.18-2.06,10.81-2.49,3.35-.38,6.72-.55,10.1-.55,7.27,0,14.52,.84,21.73,2.49,.31,.12,2.56,.87,1.73,1.6-9.07,2.67-20.97,7.17-32.05,7.17-7.85,0-15.3-2.25-21.03-8.99,6.02,7.31,13.78,9.72,21.93,9.72,10.84,0,22.37-4.27,31.38-6.9,.11-.05,.2-.13,.29-.26,.09-.12,.16-.27,.21-.45,.05-.17,.08-.37,.1-.57,0-.2,0-.4-.04-.59-.17-.47-.39-.86-.66-1.14-.26-.28-.56-.45-.86-.5-4.17-.75-11.05-1.76-12.09-1.98-4.79-.43-7.37-.65-9.52-.65l-.04,.02Z"/></g></g><path class="as" d="M174.45,1163.24c-.14-.18-6.53-8.29-6.64-8.48-4.28-7.72-4.76-9.86-14.61-21.29-10.82-12.56-4.66-7.6-16.14-18.72-.05-.05-1.68-2.04-1.72-2.09l-2.97-3.54c-1.11-1.42,1.93-.8,3.27,.42,.37,.34,1.39,1.6,1.79,1.99,2.31,2.31,5.96,4.94,8.84,8.03,1.12,1.2,3.06-.06,2.42-1.57-2.5-5.93-5.75-14.48-8.07-23.55-.04-.17-.47-1.97-.52-2.13-.45-1.79,1.56-.01,2.22,1.71,3.98,10.37,10.25,26.5,14.73,30.31,18.81,15.97,20.72,26.26,30.87,21.11,6.31-3.2-.54,22.1-.91,23.89-.03,.14,5.44,5.98,5.37,6.1-.65,1.2-7.98,1.06-17.95-12.16l.02-.03Z"/><g><path class="ak" d="M144.25,1131.37s-2.33-3.8,1.52-8.42,4.28-3.75,4.28-3.75c0,0,2.42,6.85-.91,9.48s-4.88,2.69-4.88,2.69h0Z"/><path class="ak" d="M137.87,1124.12s-3.55-2.47-1.94-8.07,2.33-5,2.33-5c0,0,4.82,5.14,2.89,8.78-1.93,3.64-3.28,4.3-3.28,4.3h0Z"/><path class="ak" d="M147.23,1120.28s-4.21-.82-4.97-6.55,.12-5.47,.12-5.47c0,0,6.42,2.74,6.12,6.81-.3,4.07-1.27,5.21-1.27,5.21h0Z"/><path class="ak" d="M136.52,1105.8s.83-3.41,5.55-3.82,4.47,.31,4.47,.31c0,0-2.49,5.15-5.8,4.74s-4.21-1.24-4.21-1.24h0Z"/><path class="ak" d="M138.46,1102.39s.66-3.29,5.15-3.86,4.28,.12,4.28,.12c0,0-2.18,5.01-5.35,4.75s-4.07-1.02-4.07-1.02h0Z"/></g><g id="a`"><path class="an" d="M233.97,1085.97c-6.01,2.19-12.1,3.6-18.21,4.21-2.72,0-16.93-2.11-20.1-4.39-4.15-2.94-9.58-7.9-9.58-9.03-.07-1.6,3.84-.95,5.62-1.28,7.36-1.36,11.41-1.68,16.78-2.19,9.08-.85,8.65-1.25,18.9,0,1.36,.18,13.13,1.98,14.52,2.51,3.5,1.33,4.78,1.57,4.74,2.07,0,.11,.04,.19-.08,.35-2.85,3.95-9.2,6.19-12.62,7.9"/><path class="as" d="M218.22,1072.53c-2.6,0-4.72,.32-9.72,.79-2.64,.26-4.98,.45-7.55,.77-1.93,.55-3.86,1.25-5.77,2.09l-1.65,.71c8.26,2.57,16.62,3.89,24.99,3.95h2.42c3.04-.22,6.33,.34,9.01-2.98-4.35-1.36-8.76-2.09-13.17-2.17-1.64,0-3.27,.12-4.85,.42h-.39v-.02l4.9,1.11-4.38-1.11h2.61c4.68-.05,9.36,.61,13.99,1.98-2.39,1.98-5.18,1.52-7.76,1.7h-1.32c-2.42,0-4.84-.12-7.26-.34-5.12-.45-10.23-1.4-15.31-2.83,3.44-1.22,6.91-2.06,10.4-2.49,3.22-.38,6.47-.55,9.72-.55,6.99,0,13.98,.84,20.92,2.49,.3,.12,2.47,.87,1.67,1.6-8.73,2.67-20.18,7.17-30.85,7.17-7.56,0-14.72-2.25-20.24-8.99,5.8,7.31,13.26,9.72,21.1,9.72,10.43,0,21.53-4.27,30.2-6.9,.1-.05,.2-.13,.28-.26,.08-.12,.15-.27,.2-.45,.05-.17,.08-.37,.09-.57,0-.2,0-.4-.04-.59-.16-.47-.38-.86-.63-1.14s-.54-.45-.83-.5c-4.01-.75-10.64-1.76-11.63-1.98-4.61-.43-7.09-.65-9.17-.65l.02,.02Z"/></g></g><g id="aa"><g><path class="as" d="M246.11,1108.49c1.14-9.04-.39-61.83-.26-68.78,.02-1.25,.31-1.75,.08-10.53,.22-5.31,.26-10.99,.26-10.99v-15.75c-.32-15.76-.26-5.68,.17-26.49,.17-8.09,0-6.92-.14-23.53-4.08,4.9-6.18,5.69-11.15,7.78-10.23,4.29-18.47,5.36-28.78,2.19-6.34-1.98-15.66-3-20.36-11.04-.49,10.2-.57,16.57-.8,25.5-.14,5.31-.27,8.8-.34,13.02-.24,13.17,.14,6.39-.44,23.5-.1,2.99,.12,9.72-.12,14.34-.06,5.21-.02,5.39-.11,8.04,.1,7.2,.07,6.07,.04,9.41-.08,9.22,.66,65.86,.8,72.51"/><g id="ab"><path class="as" d="M234.58,961.59c-6.25,2.19-11.27,2.84-17.62,3.45-2.82,0-18.17-1.84-21.46-4.11-4.31-2.94-9.38-8.18-9.38-9.31-.08-1.6,3.99-.95,5.84-1.28,7.65-1.36,11.85-1.68,17.43-2.19,9.44-.85,8.99-1.25,19.64,0,1.41,.18,13.64,1.98,15.08,2.51,4.48,1.64,1.38,5.22,.49,6.11-2.96,3.95-5.21,2.49-8.76,4.21"/><path class="as" d="M219.51,947.4c-2.7,0-4.9,.32-10.1,.79-2.75,.26-5.17,.45-7.84,.77-2,.55-4.01,1.25-5.99,2.09l-1.71,.71c8.59,2.57,17.27,3.89,25.97,3.95h2.51c3.16-.22,6.57,.34,9.36-2.98-4.52-1.36-9.1-2.09-13.68-2.17-1.7,0-3.39,.12-5.04,.42h-.41v-.02l5.1,1.11-4.55-1.11h2.72c4.87-.05,9.73,.61,14.54,1.98-2.48,1.98-5.39,1.52-8.06,1.7h-1.37c-2.51,0-5.03-.12-7.54-.34-5.32-.45-10.63-1.4-15.9-2.83,3.57-1.22,7.18-2.06,10.81-2.49,3.35-.38,6.72-.55,10.1-.55,7.27,0,14.52,.84,21.73,2.49,.31,.12,2.56,.87,1.73,1.6-9.07,2.67-20.97,7.17-32.05,7.17-7.85,0-15.3-2.25-21.03-8.99,6.02,7.31,13.78,9.72,21.93,9.72,10.84,0,22.37-4.27,31.38-6.9,.11-.05,.2-.13,.29-.26,.09-.12,.16-.27,.21-.45,.05-.17,.08-.37,.1-.57,0-.2,0-.4-.04-.59-.17-.47-.39-.86-.66-1.14-.26-.28-.56-.45-.86-.5-4.17-.75-11.05-1.76-12.09-1.98-4.79-.43-7.37-.65-9.52-.65l-.04,.02Z"/></g></g><polygon class="as" points="247.81 1010.48 275.87 994.35 276.17 999.44 246.59 1025.79 237.02 1021.28 247.81 1010.48"/><path class="ar" d="M231.31,1016.72c.63-.58,1.49,.24,1.49,1.4s-.05,2.8,.72,2.17,2.07-.67,2.07-.39-.14,.24,.39,.29,.82,.19,1.3,.63,.05,.87,.48,.43,.92-1.88,1.4-1.54,.1,.29,.48,0,.05-1.11,.43-.92,.39-.05,.63-.19-.77,1.01,.34,1.69,2.99,1.11,3.86,2.46c.87,1.35,1.01,2.65,1.88,3.04s1.21-.14,1.06,.72-.43,1.98,.19,2.07,1.06,.29,.63,.67-1.21-.1-.43,.39,.96-.43,.77,.48,0,1.88,.34,2.02,.24,0,.19,.72,.05-1.06-.05,.72,.12,2.67,.52,3,.79,1.77,.66,2.69-.46,1.18-.13,1.91,.07,3.48-.07,3.88-1.18,1.97-.59,2.17,.2,1.31-.26,1.51,.26,1.58-.2,1.84-1.58,.26-1.38,.79,.79,.53-.33,.85-1.05-.39-1.12,.33,1.38,.53-.07,.72-2.17,.59-2.04,1.25-.72,.53-1.18,.07-1.12-1.18-1.12-.53-.85,.46-.92-.33,.59-.66-.07-.79-.92,0-.85-.53,1.05-.53,.07-.53-1.18,.46-2.37-1.58c-1.18-2.04-1.71-3.88-2.1-3.88s-1.12-.85-.53-.92,.33-.13-.07-.92-.46-1.91-.33-2.17,.26,0,0-.92-.39-1.18-.2-1.38,0-.92-.2-1.51-.39-1.18-.2-1.31,.11-.01,.13-.53c.07-1.51,.13-1.77-.07-2.04s-.79-1.77-.26-2.3,.99-.33,.13-1.38c-.85-1.05-.92-1.05-.53-1.71s.85-1.91,.13-2.3-1.58-1.18-.99-1.38,.79-1.38,.26-1.51-.07-.59,.07-.79,.66,.46-.2-1.18c-.85-1.64-2.43-3.22-2.37-4.14s.56-1.34,.56-1.34l.05,.03Z"/><path class="ap" d="M248.48,1031.07s2.66,6.99,3.69,7.42,3.55,1.78,2.75,2.15,3.74,4.35,3.13,6.44c-.61,2.09,0,4.72-.98,6.26s-1.41,2.27-1.17,5.03c.25,2.76,1.46,5.3,.49,6.32s-2.39,1.04-2.33-.98,.17-10.97-.86-11.22-2.39-.92-2.39,.31,.8,3.93-1.17,3.5-2.15-1.96-1.84-4.23,.55-2.09-.61-3.07c-1.17-.98-1.04-2.64-1.47-9.81s.33-7.34,.33-7.34l.21-6.5,2.22,5.74v-.02Z"/><g id="ac"><path class="an" d="M233.11,957.18c-6.01,2.19-12.1,3.6-18.21,4.21-2.72,0-16.93-2.11-20.1-4.39-4.15-2.94-9.58-7.9-9.58-9.03-.07-1.6,3.84-.95,5.62-1.28,7.36-1.36,11.41-1.68,16.78-2.19,9.08-.85,8.65-1.25,18.9,0,1.36,.18,13.13,1.98,14.52,2.51,3.5,1.33,4.78,1.57,4.74,2.07,0,.11,.04,.19-.08,.35-2.85,3.95-9.2,6.19-12.62,7.9"/><path class="as" d="M217.36,943.74c-2.6,0-4.72,.32-9.72,.79-2.64,.26-4.98,.45-7.55,.77-1.93,.55-3.86,1.25-5.77,2.09l-1.65,.71c8.26,2.57,16.62,3.89,24.99,3.95h2.42c3.04-.22,6.33,.34,9.01-2.98-4.35-1.36-8.76-2.09-13.17-2.17-1.64,0-3.27,.12-4.85,.42h-.39v-.02l4.9,1.11-4.38-1.11h2.61c4.68-.05,9.36,.61,13.99,1.98-2.39,1.98-5.18,1.52-7.76,1.7h-1.32c-2.42,0-4.84-.12-7.26-.34-5.12-.45-10.23-1.4-15.31-2.83,3.44-1.22,6.91-2.06,10.4-2.49,3.22-.38,6.47-.55,9.72-.55,6.99,0,13.98,.84,20.92,2.49,.3,.12,2.47,.87,1.67,1.6-8.73,2.67-20.18,7.17-30.85,7.17-7.56,0-14.72-2.25-20.24-8.99,5.8,7.31,13.26,9.72,21.1,9.72,10.43,0,21.53-4.27,30.2-6.9,.1-.05,.2-.13,.28-.26,.08-.12,.15-.27,.2-.45,.05-.17,.08-.37,.09-.57,0-.2,0-.4-.04-.59-.16-.47-.38-.86-.63-1.14s-.54-.45-.83-.5c-4.01-.75-10.64-1.76-11.63-1.98-4.61-.43-7.09-.65-9.17-.65l.02,.02Z"/></g></g><g id="ad"><g><path class="as" d="M246.11,975.03c1.14-9.04-.39-61.83-.26-68.78,.02-1.25,.31-1.75,.08-10.53,.22-5.31,.26-10.99,.26-10.99v-15.75c-.32-15.76-.26-5.68,.17-26.49,.17-8.09,0-6.92-.14-23.53-4.08,4.9-6.18,5.69-11.15,7.78-10.23,4.29-18.47,5.36-28.78,2.19-6.34-1.98-15.66-3-20.36-11.04-.49,10.2-.57,16.57-.8,25.5-.14,5.31-.27,8.8-.34,13.02-.24,13.17,.14,6.39-.44,23.5-.1,2.99,.12,9.72-.12,14.34-.06,5.21-.02,5.39-.11,8.04,.1,7.2,.07,6.07,.04,9.41-.08,9.22,.66,65.86,.8,72.51"/><g id="ae"><path class="as" d="M234.58,828.13c-6.25,2.19-11.27,2.84-17.62,3.45-2.82,0-18.17-1.84-21.46-4.11-4.31-2.94-9.38-8.18-9.38-9.31-.08-1.6,3.99-.95,5.84-1.28,7.65-1.36,11.85-1.68,17.43-2.19,9.44-.85,8.99-1.25,19.64,0,1.41,.18,13.64,1.98,15.08,2.51,4.48,1.64,1.38,5.22,.49,6.11-2.96,3.95-5.21,2.49-8.76,4.21"/><path class="as" d="M219.51,813.94c-2.7,0-4.9,.32-10.1,.79-2.75,.26-5.17,.45-7.84,.77-2,.55-4.01,1.25-5.99,2.09l-1.71,.71c8.59,2.57,17.27,3.89,25.97,3.95h2.51c3.16-.22,6.57,.34,9.36-2.98-4.52-1.36-9.1-2.09-13.68-2.17-1.7,0-3.39,.12-5.04,.42h-.41v-.02l5.1,1.11-4.55-1.11h2.72c4.87-.05,9.73,.61,14.54,1.98-2.48,1.98-5.39,1.52-8.06,1.7h-1.37c-2.51,0-5.03-.12-7.54-.34-5.32-.45-10.63-1.4-15.9-2.83,3.57-1.22,7.18-2.06,10.81-2.49,3.35-.38,6.72-.55,10.1-.55,7.27,0,14.52,.84,21.73,2.49,.31,.12,2.56,.87,1.73,1.6-9.07,2.67-20.97,7.17-32.05,7.17-7.85,0-15.3-2.25-21.03-8.99,6.02,7.31,13.78,9.72,21.93,9.72,10.84,0,22.37-4.27,31.38-6.9,.11-.05,.2-.13,.29-.26,.09-.12,.16-.27,.21-.45,.05-.17,.08-.37,.1-.57,0-.2,0-.4-.04-.59-.17-.47-.39-.86-.66-1.14-.26-.28-.56-.45-.86-.5-4.17-.75-11.05-1.76-12.09-1.98-4.79-.43-7.37-.65-9.52-.65l-.04,.02Z"/></g><polygon class="as" points="189.61 908.14 148.43 871.59 149.36 864.19 192.38 891.48 189.61 908.14"/></g><path class="ar" d="M204.55,888.58c-.63-.58-1.49,.24-1.49,1.4s.05,2.8-.72,2.17-2.07-.67-2.07-.39,.14,.24-.39,.29-.82,.19-1.3,.63-.05,.87-.48,.43-.92-1.88-1.4-1.54-.1,.29-.48,0-.05-1.11-.43-.92-.39-.05-.63-.19,.77,1.01-.34,1.69-2.99,1.11-3.86,2.46c-.87,1.35-1.01,2.65-1.88,3.04s-1.21-.14-1.06,.72,.43,1.98-.19,2.07-1.06,.29-.63,.67,1.21-.1,.43,.39-.96-.43-.77,.48,0,1.88-.34,2.02-.24,0-.19,.72-.05-1.06,.05,.72-.12,2.67-.52,3-.79,1.77-.66,2.69,.46,1.18,.13,1.91-.07,3.48,.07,3.88,1.18,1.97,.59,2.17-.2,1.31,.26,1.51-.26,1.58,.2,1.84,1.58,.26,1.38,.79-.79,.53,.33,.85,1.05-.39,1.12,.33-1.38,.53,.07,.72,2.17,.59,2.04,1.25,.72,.53,1.18,.07,1.12-1.18,1.12-.53,.85,.46,.92-.33-.59-.66,.07-.79,.92,0,.85-.53-1.05-.53-.07-.53,1.18,.46,2.37-1.58,1.71-3.88,2.1-3.88,1.12-.85,.53-.92-.33-.13,.07-.92,.46-1.91,.33-2.17-.26,0,0-.92,.39-1.18,.2-1.38,0-.92,.2-1.51,.39-1.18,.2-1.31-.11-.01-.13-.53c-.07-1.51-.13-1.77,.07-2.04s.79-1.77,.26-2.3-.99-.33-.13-1.38,.92-1.05,.53-1.71-.85-1.91-.13-2.3,1.58-1.18,.99-1.38-.79-1.38-.26-1.51,.07-.59-.07-.79-.66,.46,.2-1.18,2.43-3.22,2.37-4.14-.56-1.34-.56-1.34l-.05,.03Z"/><g id="af"><path class="an" d="M233.78,826.62c-6.01,2.19-12.1,3.6-18.21,4.21-2.72,0-16.93-2.11-20.1-4.39-4.15-2.94-9.58-7.9-9.58-9.03-.07-1.6,3.84-.95,5.62-1.28,7.36-1.36,11.41-1.68,16.78-2.19,9.08-.85,8.65-1.25,18.9,0,1.36,.18,13.13,1.98,14.52,2.51,3.5,1.33,4.78,1.57,4.74,2.07,0,.11,.04,.19-.08,.35-2.85,3.95-9.2,6.19-12.62,7.9"/><path class="as" d="M218.02,813.18c-2.6,0-4.72,.32-9.72,.79-2.64,.26-4.98,.45-7.55,.77-1.93,.55-3.86,1.25-5.77,2.09l-1.65,.71c8.26,2.57,16.62,3.89,24.99,3.95h2.42c3.04-.22,6.33,.34,9.01-2.98-4.35-1.36-8.76-2.09-13.17-2.17-1.64,0-3.27,.12-4.85,.42h-.39v-.02l4.9,1.11-4.38-1.11h2.61c4.68-.05,9.36,.61,13.99,1.98-2.39,1.98-5.18,1.52-7.76,1.7h-1.32c-2.42,0-4.84-.12-7.26-.34-5.12-.45-10.23-1.4-15.31-2.83,3.44-1.22,6.91-2.06,10.4-2.49,3.22-.38,6.47-.55,9.72-.55,6.99,0,13.98,.84,20.92,2.49,.3,.12,2.47,.87,1.67,1.6-8.73,2.67-20.18,7.17-30.85,7.17-7.56,0-14.72-2.25-20.24-8.99,5.8,7.31,13.26,9.72,21.1,9.72,10.43,0,21.53-4.27,30.2-6.9,.1-.05,.2-.13,.28-.26,.08-.12,.15-.27,.2-.45,.05-.17,.08-.37,.09-.57,0-.2,0-.4-.04-.59-.16-.47-.38-.86-.63-1.14s-.54-.45-.83-.5c-4.01-.75-10.64-1.76-11.63-1.98-4.61-.43-7.09-.65-9.17-.65l.02,.02Z"/></g><path class="ap" d="M182.51,908.55s-2.66,6.99-3.69,7.42-3.55,1.78-2.75,2.15-1.86,4.48-1.25,6.57-3.12,6.29-2.14,7.82,2.66,.58,2.41,3.34,.36,3.22,.83,4.25c.58,1.28,1.74,.24,1.67-1.79s-.14-7.78,.89-8.04,1.87-2.19,1.87-.97,0,3.15,1.14,3.14c2.01-.01,1.99-.65,1.68-2.92s.98-2.63,2.14-3.61c1.17-.98-.49-2.09-.06-9.27s-.31-11.72-.31-11.72l-.74-1.96-1.72,5.58h.03Z"/></g><g id="ag"><g><path class="as" d="M246.11,852.95c1.14-9.04-.39-61.83-.26-68.78,.02-1.25,.31-1.75,.08-10.53,.22-5.31,.26-10.99,.26-10.99v-15.75c-.32-15.76-.26-5.68,.17-26.49,.17-8.09,0-6.92-.14-23.53-4.08,4.9-6.18,5.69-11.15,7.78-10.23,4.29-18.47,5.36-28.78,2.19-6.34-1.98-15.66-3-20.36-11.04-.49,10.2-.57,16.57-.8,25.5-.14,5.31-.27,8.8-.34,13.02-.24,13.17,.14,6.39-.44,23.5-.1,2.99,.12,9.72-.12,14.34-.06,5.21-.02,5.39-.11,8.04,.1,7.2,.07,6.07,.04,9.41-.08,9.22,.66,65.86,.8,72.51"/><g id="ah"><path class="as" d="M234.58,706.05c-6.25,2.19-11.27,2.84-17.62,3.45-2.82,0-18.17-1.84-21.46-4.11-4.31-2.94-9.38-8.18-9.38-9.31-.08-1.6,3.99-.95,5.84-1.28,7.65-1.36,11.85-1.68,17.43-2.19,9.44-.85,8.99-1.25,19.64,0,1.41,.18,13.64,1.98,15.08,2.51,4.48,1.64,1.38,5.22,.49,6.11-2.96,3.95-5.21,2.49-8.76,4.21"/><path class="as" d="M219.51,691.86c-2.7,0-4.9,.32-10.1,.79-2.75,.26-5.17,.45-7.84,.77-2,.55-4.01,1.25-5.99,2.09l-1.71,.71c8.59,2.57,17.27,3.89,25.97,3.95h2.51c3.16-.22,6.57,.34,9.36-2.98-4.52-1.36-9.1-2.09-13.68-2.17-1.7,0-3.39,.12-5.04,.42h-.41v-.02l5.1,1.11-4.55-1.11h2.72c4.87-.05,9.73,.61,14.54,1.98-2.48,1.98-5.39,1.52-8.06,1.7h-1.37c-2.51,0-5.03-.12-7.54-.34-5.32-.45-10.63-1.4-15.9-2.83,3.57-1.22,7.18-2.06,10.81-2.49,3.35-.38,6.72-.55,10.1-.55,7.27,0,14.52,.84,21.73,2.49,.31,.12,2.56,.87,1.73,1.6-9.07,2.67-20.97,7.17-32.05,7.17-7.85,0-15.3-2.25-21.03-8.99,6.02,7.31,13.78,9.72,21.93,9.72,10.84,0,22.37-4.27,31.38-6.9,.11-.05,.2-.13,.29-.26,.09-.12,.16-.27,.21-.45,.05-.17,.08-.37,.1-.57,0-.2,0-.4-.04-.59-.17-.47-.39-.86-.66-1.14-.26-.28-.56-.45-.86-.5-4.17-.75-11.05-1.76-12.09-1.98-4.79-.43-7.37-.65-9.52-.65l-.04,.02Z"/></g><path class="as" d="M243.28,761.53s11.76,4.56,23.99-9.95c5.66-6.72,12.25-10.63,16.7-14.26,5.16-4.21,6.54-4.82,8.88-9.62,5.03-10.35,8.67-22.24,8.98-10.15,.27,10.61-13.93,24.05-13.93,24.05,0,0,4.25,1.27,12.09-1.45,7.31-2.54,8.99-3.64,10.8-3.64s-3.6,5.79-13.04,7.97c-9.45,2.18-20.06,9.32-22.24,16.22-2.18,6.9-34.98,31.62-34.98,31.62l2.76-30.79h-.01Z"/><g><path class="ak" d="M279.78,763.67s-3.53-2.88-1.38-8.63,2.86-5.06,2.86-5.06c0,0,4.64,5.79,2.32,9.45-2.32,3.66-3.8,4.25-3.8,4.25h0Z"/><path class="ak" d="M287.55,752.87s-.59-4.07,4.35-6.57,4.99-1.62,4.99-1.62c0,0-.45,6.68-4.23,7.69-3.78,1.02-5.11,.5-5.11,.5Z"/><path class="ak" d="M307.73,749.08s-3.63-.42-4.66-5.23-.26-4.65-.26-4.65c0,0,5.63,1.9,5.65,5.38s-.73,4.51-.73,4.51h0Z"/><path class="ak" d="M295.66,744.55s.06-4.47,5.79-6.33c5.73-1.86,5.63-.9,5.63-.9,0,0-1.61,7.1-5.84,7.55s-5.58-.33-5.58-.33h0Z"/><path class="ak" d="M287.73,740.46s1.38-3.44,6.37-3.17,4.63,.99,4.63,.99c0,0-3.37,5.01-6.78,4.1s-4.22-1.92-4.22-1.92Z"/><path class="ak" d="M297.16,733.72s-2.71-3.48,.57-8.44c3.27-4.96,3.79-4.16,3.79-4.16,0,0,3.13,6.46,.15,9.42-2.98,2.95-4.5,3.18-4.5,3.18h-.01Z"/><path class="ak" d="M299.87,722.21s-3.61-2.38-2.13-8.02,2.21-5.05,2.21-5.05c0,0,4.94,5.02,3.1,8.7s-3.18,4.37-3.18,4.37Z"/><path class="ak" d="M297.96,734.27s-4.61,.14-6.78-5.68-1.17-5.77-1.17-5.77c0,0,7.38,1.35,8.04,5.69s-.09,5.76-.09,5.76Z"/><path class="ak" d="M281.95,743.97s-2.74-3.21,.17-8.09,3.44-4.14,3.44-4.14c0,0,3.27,6.04,.55,8.99s-4.16,3.24-4.16,3.24h0Z"/></g></g><path class="as" d="M246.11,777.67c1.14-9.04-.39-61.83-.26-68.78,.02-1.25,.31-1.75,.08-10.53,.22-5.31,.26-10.99,.26-10.99v-15.75c-.32-15.76-.26-5.68,.17-26.49,.17-8.09,0-6.92-.14-23.53-4.08,4.9-6.18,5.69-11.15,7.78-10.23,4.29-18.47,5.36-28.78,2.19-6.34-1.98-15.66-3-20.36-11.04-.49,10.2-.57,16.57-.8,25.5-.14,5.31-.27,8.8-.34,13.02-.24,13.17,.14,6.39-.44,23.5-.1,2.99,.12,9.72-.12,14.34-.06,5.21-.02,5.39-.11,8.04,.1,7.2,.07,6.07,.04,9.41-.08,9.22,.66,65.86,.8,72.51"/><path class="as" d="M246.11,637.68c1.14-9.04-.39-61.83-.26-68.78,.02-1.25,.31-1.75,.08-10.53,.22-5.31,.26-10.99,.26-10.99v-15.75c-.32-15.76-.26-5.68,.17-26.49,.17-8.09,0-6.92-.14-23.53-4.08,4.9-6.18,5.69-11.15,7.78-10.23,4.29-18.47,5.36-28.78,2.19-6.34-1.98-15.66-3-20.36-11.04-.49,10.2-.57,16.57-.8,25.5-.14,5.31-.27,8.8-.34,13.02-.24,13.17,.14,6.39-.44,23.5-.1,2.99,.12,9.72-.12,14.34-.06,5.21-.02,5.39-.11,8.04,.1,7.2,.07,6.07,.04,9.41-.08,9.22,.66,65.86,.8,72.51"/><g><path class="ai" d="M20,411.42s229.95-4.64,249.02,0c19.08,4.64,39.18,1.03,41.25-3.61,2.06-4.64,27.33,5.16,23.72-8.25-3.61-13.4-18.05-27.33-44.34-23.72s-35.06-6.19-46.4-13.4c-11.34-7.22-26.81-76.31-76.82-54.65-50.01,21.65-40.21,53.62-37.12,55.17,3.09,1.55,0,5.16-14.95,7.22s-31.45,11.86-22.17,15.47c9.28,3.61-7.73,12.37-22.17,12.89s-23.72,5.67-18.05,5.67-31.97,7.22-31.97,7.22h0Z"/><path class="aj" d="M68.88,410.99s159.2-3.21,172.41,0c13.21,3.21,27.13,.71,28.56-2.5s18.92,3.57,16.42-5.71-12.49-18.92-30.7-16.42-24.27-4.28-32.13-9.28-14.41-62.78-43.46-38.71c-36.41,30.16-50.87,16.51-35.42,39.07,1.35,1.98,0,3.57-10.35,5-10.35,1.43-21.77,8.21-15.35,10.71,6.43,2.5-5.35,8.57-15.35,8.92-9.99,.36-16.42,3.93-12.49,3.93s-22.13,5-22.13,5h-.01Z"/></g><g><path class="ai" d="M-148.22,462.81s229.95-4.64,249.02,0c19.08,4.64,39.18,1.03,41.25-3.61,2.06-4.64,27.33,5.16,23.72-8.25-3.61-13.4-18.05-27.33-44.34-23.72-26.29,3.61-35.06-6.19-46.4-13.4-11.34-7.22-26.81-76.31-76.82-54.65-50.01,21.65-40.21,53.62-37.12,55.17,3.09,1.55,0,5.16-14.95,7.22-14.95,2.06-31.45,11.86-22.17,15.47,9.28,3.61-7.73,12.37-22.17,12.89s-23.72,5.67-18.05,5.67-31.97,7.22-31.97,7.22h0Z"/><path class="aj" d="M-95.96,468.92s159.2-3.21,172.41,0c13.21,3.21,27.13,.71,28.56-2.5s18.92,3.57,16.42-5.71-12.49-18.92-30.7-16.42c-18.2,2.5-24.27-4.28-32.13-9.28-7.85-5-14.41-62.78-43.46-38.71-36.41,30.16-50.87,16.51-35.42,39.07,1.35,1.98,0,3.57-10.35,5s-21.77,8.21-15.35,10.71c6.43,2.5-5.35,8.57-15.35,8.92-9.99,.36-16.42,3.93-12.49,3.93s-22.13,5-22.13,5h-.01Z"/></g><path class="am" d="M211.98,379.61S105.18,621.02,23.82,660.17c-81.37,39.15,94.93-24.79,105.1-40.45,10.17-15.66-39.68,98.27-26.1,127.3,0,0,48.82-61.47,74.35-96.59,3.35-4.61,48.82,107.88,53.51,102.83,0,0,3.9-110.71,31.37-81.31,32.16,34.41,97.19,60.97,97.19,60.97,0,0-63.85-103.78-63.85-128.57,0,0,81.02,62.35,118.31,68.88,0,0-194.94-249.24-201.72-293.61h0Z"/><path class="al" d="M138.13,484.26s-60.34,72.02-96.23,87.85,80.96-19,87.07-28.49c6.11-9.5,21.99,8.66,20.46,43.49-1.53,34.82,28.42,17.46,41.4-22.12,0,0,20.62-36.41,19.86-42.74s40.45,76.53,34.72,95.49c0,0,45.61-21.78,38.8-73.51l-2.49-25.93s19.86,34.82,69.5,62.53l53.46,33.24s-72.56-80.73-97-117.14c-24.44-36.41-120.67-99.72-120.67-99.72l-48.88,87.06h0Z"/><path class="ao" d="M152.19,422.72s-50.24,57.87-80.13,70.59c-29.89,12.72,67.41-15.26,72.5-22.89s8.27,16.53,7,44.52c-1.27,27.98,33.71,4.45,44.52-27.35,0,0,17.17-29.25,16.53-34.34s18.88,47.07,14.11,62.31c0,0,33.11,15.9,36.92-19.08l13.54-33.23s11.1,14.8,52.44,37.06l44.52,26.71s-60.41-64.87-80.76-94.12-100.48-80.13-100.48-80.13l-40.7,69.95h0Z"/><path class="aq" d="M213.72,257.31s-60.25,154.8-106.16,179.9,53.56-15.9,59.3-25.94-7.65,30.96,3.83,60.25c0,0,27.74-82.84,37.3-94.55,0,0,33.47,41,31.56,71.12s-.96,45.18-.96,45.18c0,0,17.22-76.98,17.22-92.88,0,0,50.69,41,71.73,45.18,0,0-109.99-159.82-113.81-188.27h-.01Z"/><g><path class="ai" d="M233.59,521.46s186.81-10.41,202.39-6.62c15.57,3.79,31.99,.84,33.67-2.95,1.68-3.79,22.31,4.21,19.36-6.73-2.95-10.94-14.73-22.31-36.2-19.36s-28.62-5.05-37.88-10.94-21.89-62.3-62.72-44.62-32.83,43.78-30.31,45.04c2.53,1.26,0,4.21-12.21,5.89-12.21,1.68-25.68,9.68-18.1,12.63s-6.31,10.1-18.1,10.52c-11.79,.42-19.36,4.63-14.73,4.63s-25.17,12.51-25.17,12.51h0Z"/><path class="aj" d="M272.93,516.56s129.98-2.62,140.76,0,22.15,.58,23.31-2.04c1.17-2.62,15.45,2.91,13.41-4.66-2.04-7.58-10.2-15.45-25.06-13.41s-19.82-3.5-26.23-7.58-11.76-51.26-35.48-31.6c-29.73,24.63-41.53,13.48-28.92,31.9,1.1,1.61,0,2.91-8.45,4.08-8.45,1.17-17.78,6.7-12.53,8.74s-4.37,6.99-12.53,7.29c-8.16,.29-13.41,3.21-10.2,3.21s-18.07,4.08-18.07,4.08h0Z"/></g></g></g></svg>