<?xml version="1.0" encoding="UTF-8"?><svg xmlns="http://www.w3.org/2000/svg" viewBox="0 0 428 69.33"><defs><style>.g{fill:#674836;}.h{fill:#6a8f25;}</style></defs><g id="a"/><g id="b"><g id="c"><g id="d"><path id="e" class="g" d="M100.82,23.32C78.88,24.83,14.47,12.75,0,12.75V52.75H428V12.75h-136.29c-18.67,0-168.96,9.06-190.9,10.57h0Z"/><g id="f"><g><path class="h" d="M52.03,46.71s-3.13-2.92-.71-9.46,2.63-8.82,1.92-3.13-.85,11.88,.28,12.66-1.49-.07-1.49-.07h0Z"/><path class="h" d="M50.07,43.2s-4.92-4.59-1.12-14.88,4.14-13.87,3.02-4.92-1.34,18.68,.45,19.91-2.35-.11-2.35-.11Z"/><path class="h" d="M41.59,48.97s-9.68-9.02-2.2-29.26,8.14-27.28,5.94-9.68-2.64,36.74,.88,39.16-4.62-.22-4.62-.22h0Z"/><path class="h" d="M27.36,39.16s-5.69-5.31-1.29-17.21c4.4-11.91,4.79-16.05,3.49-5.69-1.29,10.35-1.55,21.61,.52,23.03s-2.72-.13-2.72-.13h0Z"/></g><g><path class="h" d="M88.69,55.44s-7.78-7.25-1.77-23.52,6.54-21.93,4.77-7.78-2.12,29.53,.71,31.48-3.71-.18-3.71-.18h0Z"/><path class="h" d="M75.05,67.93s-10.97-10.22-2.49-33.17c8.48-22.94,9.23-30.92,6.73-10.97s-2.99,41.65,1,44.39-5.24-.25-5.24-.25h0Z"/></g><g><path class="h" d="M341.46,52.51s-8.3-7.73-1.89-25.09c6.41-17.35,6.98-23.39,5.09-8.3s-2.26,31.5,.75,33.57-3.96-.19-3.96-.19h.01Z"/><path class="h" d="M327.07,59.05s-11-10.25-2.5-33.24,9.25-30.99,6.75-11-3,41.73,1,44.48-5.25-.25-5.25-.25h0Z"/><path class="h" d="M312.91,40.89s-3.67-3.42-.83-11.09c2.83-7.67,3.08-10.34,2.25-3.67-.83,6.67-1,13.92,.33,14.84s-1.75-.08-1.75-.08Z"/><path class="h" d="M298.43,56.73s-10.14-9.44-2.3-30.64c7.83-21.19,8.52-28.57,6.22-10.14-2.3,18.43-2.76,38.47,.92,41s-4.84-.23-4.84-.23h0Z"/><path class="h" d="M284.11,54.8s-9.4-8.76-2.14-28.41,7.9-26.49,5.77-9.4c-2.14,17.09-2.56,35.67,.85,38.02s-4.49-.21-4.49-.21h.01Z"/></g><g><path class="h" d="M405.45,38.46s-5.42-5.05-1.23-16.39,4.56-15.28,3.33-5.42-1.48,20.57,.49,21.93-2.59-.12-2.59-.12h0Z"/><path class="h" d="M391.57,50.88s-9-8.38-2.04-27.19,7.57-25.35,5.52-9-2.45,34.15,.82,36.39c3.27,2.25-4.29-.2-4.29-.2h0Z"/><path class="h" d="M377.47,45.4s-5.91-5.51-1.34-17.86,4.97-16.65,3.63-5.91c-1.34,10.74-1.61,22.43,.54,23.91s-2.82-.13-2.82-.13h-.01Z"/></g><g><path class="h" d="M57.9,45.34s1.03-5.41-2.23-16.65c-1.82-6.28,2.34,1.84,3.69,4.55,1.89,3.78-.17,12.53-.17,12.53l-1.29-.43Z"/><path class="h" d="M38.5,45.34s1.03-5.41-2.23-16.65c-1.82-6.28,2.34,1.84,3.69,4.55,1.89,3.78-.17,12.53-.17,12.53l-1.29-.43Z"/></g><g><path class="h" d="M132.42,55.68s1.03-5.41-2.23-16.65c-1.82-6.28,2.34,1.84,3.69,4.55,1.89,3.78-.17,12.53-.17,12.53l-1.29-.43Z"/><path class="h" d="M113.01,55.68s1.03-5.41-2.23-16.65c-1.82-6.28,2.34,1.84,3.69,4.55,1.89,3.78-.17,12.53-.17,12.53l-1.29-.43Z"/><path class="h" d="M93.61,55.68s1.03-5.41-2.23-16.65c-1.82-6.28,2.34,1.84,3.69,4.55,1.89,3.78-.17,12.53-.17,12.53l-1.29-.43Z"/></g><g><path class="h" d="M294.18,41.9s1.03-5.41-2.23-16.65c-1.82-6.28,2.34,1.84,3.69,4.55,1.89,3.78-.17,12.53-.17,12.53l-1.29-.43Z"/><path class="h" d="M274.78,41.9s1.03-5.41-2.23-16.65c-1.82-6.28,2.34,1.84,3.69,4.55,1.89,3.78-.17,12.53-.17,12.53l-1.29-.43Z"/></g><g><path class="h" d="M359.62,46.03s1.03-5.41-2.23-16.65c-1.82-6.28,2.34,1.84,3.69,4.55,1.89,3.78-.17,12.53-.17,12.53l-1.29-.43Z"/><path class="h" d="M340.22,46.03s1.03-5.41-2.23-16.65c-1.82-6.28,2.34,1.84,3.69,4.55,1.89,3.78-.17,12.53-.17,12.53l-1.29-.43Z"/></g></g></g></g></g></svg>