<?xml version="1.0" encoding="UTF-8"?><svg xmlns="http://www.w3.org/2000/svg" viewBox="0 0 428 2136.5"><defs><style>.q{fill:#c19f87;}.r{fill:#6d5341;}.s{opacity:.78;}</style></defs><g id="a"><g id="b" class="s"/></g><g id="c"><g id="d"><g><path id="e" class="r" d="M245.38,2075.19s6.08,15.65,14.14,20.8c9.31,5.95,1.5,6.38-2.96,5.75-4.46-.62-12.4-4.67-15.38-8.4-2.97-3.73-56.15,12.29-63.01,12.95-6.86,.66-14.67,1.82-15.76-.4s7.46-4.43,10.49-12.13c3.03-7.71,5.5-21.84,7.21-24.61,3.46-5.61,65.28,6.03,65.28,6.03Z"/><path class="r" d="M257.23,2101.91c-2.95-3.61-5.79-6.47-8.59-9.06-.69-.64-1.23-1.47-1.66-2.44-.2-2.75-.43-5.43-.43-5.43l-.02-.32c-.56-11.52-.67-34.48-1.9-52.45-.55-8.06-.64-9.45-.79-26.05-4.08,4.9-9.98,4.96-14.96,7.06-10.23,4.29-18.47,5.36-28.78,2.19-6.34-1.98-14.41-2.57-19.1-10.61,.71,12.37-.04,17.48,.15,26.42,.11,4.25-.21,11.31-.45,15.54-.66,11.54-.15,15.94-2.43,26.75-.54,2.92-.94,5.91-1.21,8.95-.34,2.58-.55,5.2-.65,7.84-.28,2.45-.58,5.47-.8,8.8-.54,8.38-4.65,10.41-9.77,12.1-5.12,1.69-7.48,4.06-7.48,4.06,0,0-10.23,8.65-3,6.16,3.49-1.2,13.9-5.7,18.18-5.79,4.28-.09,7.83,.15,12.41-3.1,4.57-3.24,3.66-5.34,10.98-4.22,4.42,.68,5.94,4.72,2.88,14.45-2.78,8.82-.7,15.09,3.16,14.21,1.39-.32,6.28-16.33,13.35-22.56,2.08-1.83,2.75-2.56,5.88-4.28,4.24-2.34,7.43-.46,14.38,4.62,5.4,3.95,6.81,6.11,9.1,7.78,2.29,1.67,4.66-1.44,1.86-5.42-2.8-3.98-3.81-3.42-6.56-10.94s4.28-1.71,10.02,2.05c6.09,3.98,16.76,6.04,19.51,5.49,2.4-.48-10.33-8.2-13.28-11.81Z"/><g id="f"><path class="q" d="M230.71,2014.18c-6.25,2.19-12.57,3.6-18.92,4.21-2.82,0-17.59-2.11-20.88-4.39-4.31-2.94-9.96-7.9-9.96-9.03-.08-1.6,3.99-.95,5.84-1.28,7.65-1.36,11.85-1.68,17.43-2.19,9.44-.85,8.99-1.25,19.64,0,1.41,.18,13.64,1.98,15.08,2.51,3.64,1.33,4.96,1.57,4.92,2.07,0,.11,.04,.19-.08,.35-2.96,3.95-9.56,6.19-13.11,7.9"/><path class="r" d="M214.35,2000.74c-2.7,0-4.9,.32-10.1,.79-2.75,.26-5.17,.45-7.84,.77-2,.55-4.01,1.25-5.99,2.09l-1.71,.71c8.59,2.57,17.27,3.89,25.97,3.95h2.51c3.16-.22,6.57,.34,9.36-2.98-4.52-1.36-9.1-2.09-13.68-2.17-1.7,0-3.39,.12-5.04,.42h-.41v-.02l5.1,1.11-4.55-1.11h2.72c4.87-.05,9.73,.61,14.54,1.98-2.48,1.98-5.39,1.52-8.06,1.7h-1.37c-2.51,0-5.03-.12-7.54-.34-5.32-.45-10.63-1.4-15.9-2.83,3.57-1.22,7.18-2.06,10.81-2.49,3.35-.38,6.72-.55,10.1-.55,7.27,0,14.52,.84,21.73,2.49,.31,.12,2.56,.87,1.73,1.6-9.07,2.67-20.97,7.17-32.05,7.17-7.85,0-15.3-2.25-21.03-8.99,6.02,7.31,13.78,9.72,21.93,9.72,10.84,0,22.37-4.27,31.38-6.9,.11-.05,.2-.13,.29-.26,.09-.12,.16-.27,.21-.45,.05-.17,.08-.37,.1-.57,0-.2,0-.4-.04-.59-.17-.47-.39-.86-.66-1.14-.26-.28-.56-.45-.86-.5-4.17-.75-11.05-1.76-12.09-1.98-4.79-.43-7.37-.65-9.52-.65Z"/></g></g></g><g id="g"><g><path class="r" d="M243.9,2017.51c.11-6.04-.11-12.46,.02-19.41,.02-1.25,.31-1.75,.08-10.53,.22-5.31,.26-10.99,.26-10.99l.19-16.07c-.32-15.76-.34-8.26-.01-26.16,.15-8.09,0-6.92-.14-23.53-4.08,4.9-6.18,5.69-11.15,7.78-10.23,4.29-18.47,5.36-28.78,2.19-6.34-1.98-15.66-3-20.36-11.04-.49,10.2-1.06,17.52-1.29,26.46-.14,5.31-.58,10.56-.65,14.78-.24,13.17-.16,9.2-.75,26.31-.1,2.99,.27,7.5,0,10.54-.34,2.58-.17,4.67-.27,7.32,.1,7.2-.03,4.66-.06,8-.08,9.22,.27,12.67,.41,19.32"/><g id="h"><path class="r" d="M232.46,1919.97c-6.25,2.19-11.27,2.84-17.62,3.45-2.82,0-18.17-1.84-21.46-4.11-4.31-2.94-9.38-8.18-9.38-9.31-.08-1.6,3.99-.95,5.84-1.28,7.65-1.36,11.85-1.68,17.43-2.19,9.44-.85,8.99-1.25,19.64,0,1.41,.18,13.64,1.98,15.08,2.51,4.48,1.64,1.38,5.22,.49,6.11-2.96,3.95-5.21,2.49-8.76,4.21"/><path class="r" d="M217.4,1905.77c-2.7,0-4.9,.32-10.1,.79-2.75,.26-5.17,.45-7.84,.77-2,.55-4.01,1.25-5.99,2.09l-1.71,.71c8.59,2.57,17.27,3.89,25.97,3.95h2.51c3.16-.22,6.57,.34,9.36-2.98-4.52-1.36-9.1-2.09-13.68-2.17-1.7,0-3.39,.12-5.04,.42h-.41v-.02l5.1,1.11-4.55-1.11h2.72c4.87-.05,9.73,.61,14.54,1.98-2.48,1.98-5.39,1.52-8.06,1.7h-1.37c-2.51,0-5.03-.12-7.54-.34-5.32-.45-10.63-1.4-15.9-2.83,3.57-1.22,7.18-2.06,10.81-2.49,3.35-.38,6.72-.55,10.1-.55,7.27,0,14.52,.84,21.73,2.49,.31,.12,2.56,.87,1.73,1.6-9.07,2.67-20.97,7.17-32.05,7.17-7.85,0-15.3-2.25-21.03-8.99,6.02,7.31,13.78,9.72,21.93,9.72,10.84,0,22.37-4.27,31.38-6.9,.11-.05,.2-.13,.29-.26,.09-.12,.16-.27,.21-.45,.05-.17,.08-.37,.1-.57,0-.2,0-.4-.04-.59-.17-.47-.39-.86-.66-1.14-.26-.28-.56-.45-.86-.5-4.17-.75-11.05-1.76-12.09-1.98-4.79-.43-7.37-.65-9.52-.65Z"/></g></g><g id="i"><path class="q" d="M231.92,1918.65c-6.01,2.19-12.1,3.6-18.21,4.21-2.72,0-16.93-2.11-20.1-4.39-4.15-2.94-9.58-7.9-9.58-9.03-.07-1.6,3.84-.95,5.62-1.28,7.36-1.36,11.41-1.68,16.78-2.19,9.08-.85,8.65-1.25,18.9,0,1.36,.18,13.13,1.98,14.52,2.51,3.5,1.33,4.78,1.57,4.74,2.07,0,.11,.04,.19-.08,.35-2.85,3.95-9.2,6.19-12.62,7.9"/><path class="r" d="M216.17,1905.21c-2.6,0-4.72,.32-9.72,.79-2.64,.26-4.98,.45-7.55,.77-1.93,.55-3.86,1.25-5.77,2.09l-1.65,.71c8.26,2.57,16.62,3.89,24.99,3.95h2.42c3.04-.22,6.33,.34,9.01-2.98-4.35-1.36-8.76-2.09-13.17-2.17-1.64,0-3.27,.12-4.85,.42h-.39v-.02l4.9,1.11-4.38-1.11h2.61c4.68-.05,9.36,.61,13.99,1.98-2.39,1.98-5.18,1.52-7.76,1.7h-1.32c-2.42,0-4.84-.12-7.26-.34-5.12-.45-10.23-1.4-15.31-2.83,3.44-1.22,6.91-2.06,10.4-2.49,3.22-.38,6.47-.55,9.72-.55,6.99,0,13.98,.84,20.92,2.49,.3,.12,2.47,.87,1.67,1.6-8.73,2.67-20.18,7.17-30.85,7.17-7.56,0-14.72-2.25-20.24-8.99,5.8,7.31,13.26,9.72,21.1,9.72,10.43,0,21.53-4.27,30.2-6.9,.1-.05,.2-.13,.28-.26,.08-.12,.15-.27,.2-.45,.05-.17,.08-.37,.09-.57,0-.2,0-.4-.04-.59-.16-.47-.38-.86-.63-1.14-.25-.28-.54-.45-.83-.5-4.01-.75-10.64-1.76-11.63-1.98-4.61-.43-7.09-.65-9.17-.65Z"/></g></g></g><g id="j"/><g id="k"><g id="l"/><g id="m"/></g><g id="n"><g id="o"/><g id="p"/></g></svg>