<?xml version="1.0" encoding="UTF-8"?><svg xmlns="http://www.w3.org/2000/svg" viewBox="0 0 428 2136.5"><defs><style>.n{fill:#c19f87;}.o{fill:#6d5341;}.p{opacity:.78;}</style></defs><g id="a"><g id="b" class="p"/></g><g id="c"><g id="d"><g><path id="e" class="o" d="M245.38,2075.19s6.08,15.65,14.14,20.8c9.31,5.95,1.5,6.38-2.96,5.75-4.46-.62-12.4-4.67-15.38-8.4-2.97-3.73-56.15,12.29-63.01,12.95-6.86,.66-14.67,1.82-15.76-.4s7.46-4.43,10.49-12.13c3.03-7.71,5.5-21.84,7.21-24.61,3.46-5.61,65.28,6.03,65.28,6.03Z"/><path class="o" d="M257.23,2101.91c-2.95-3.61-5.79-6.47-8.59-9.06-.69-.64-1.23-1.47-1.66-2.44-.2-2.75-.43-5.43-.43-5.43l-.02-.32c-.56-11.52-.67-34.48-1.9-52.45-.55-8.06-.64-9.45-.79-26.05-4.08,4.9-9.98,4.96-14.96,7.06-10.23,4.29-18.47,5.36-28.78,2.19-6.34-1.98-14.41-2.57-19.1-10.61,.71,12.37-.04,17.48,.15,26.42,.11,4.25-.21,11.31-.45,15.54-.66,11.54-.15,15.94-2.43,26.75-.54,2.92-.94,5.91-1.21,8.95-.34,2.58-.55,5.2-.65,7.84-.28,2.45-.58,5.47-.8,8.8-.54,8.38-4.65,10.41-9.77,12.1-5.12,1.69-7.48,4.06-7.48,4.06,0,0-10.23,8.65-3,6.16,3.49-1.2,13.9-5.7,18.18-5.79,4.28-.09,7.83,.15,12.41-3.1,4.57-3.24,3.66-5.34,10.98-4.22,4.42,.68,5.94,4.72,2.88,14.45-2.78,8.82-.7,15.09,3.16,14.21,1.39-.32,6.28-16.33,13.35-22.56,2.08-1.83,2.75-2.56,5.88-4.28,4.24-2.34,7.43-.46,14.38,4.62,5.4,3.95,6.81,6.11,9.1,7.78,2.29,1.67,4.66-1.44,1.86-5.42-2.8-3.98-3.81-3.42-6.56-10.94s4.28-1.71,10.02,2.05c6.09,3.98,16.76,6.04,19.51,5.49,2.4-.48-10.33-8.2-13.28-11.81Z"/><g id="f"><path class="n" d="M230.71,2014.18c-6.25,2.19-12.57,3.6-18.92,4.21-2.82,0-17.59-2.11-20.88-4.39-4.31-2.94-9.96-7.9-9.96-9.03-.08-1.6,3.99-.95,5.84-1.28,7.65-1.36,11.85-1.68,17.43-2.19,9.44-.85,8.99-1.25,19.64,0,1.41,.18,13.64,1.98,15.08,2.51,3.64,1.33,4.96,1.57,4.92,2.07,0,.11,.04,.19-.08,.35-2.96,3.95-9.56,6.19-13.11,7.9"/><path class="o" d="M214.35,2000.74c-2.7,0-4.9,.32-10.1,.79-2.75,.26-5.17,.45-7.84,.77-2,.55-4.01,1.25-5.99,2.09l-1.71,.71c8.59,2.57,17.27,3.89,25.97,3.95h2.51c3.16-.22,6.57,.34,9.36-2.98-4.52-1.36-9.1-2.09-13.68-2.17-1.7,0-3.39,.12-5.04,.42h-.41v-.02l5.1,1.11-4.55-1.11h2.72c4.87-.05,9.73,.61,14.54,1.98-2.48,1.98-5.39,1.52-8.06,1.7h-1.37c-2.51,0-5.03-.12-7.54-.34-5.32-.45-10.63-1.4-15.9-2.83,3.57-1.22,7.18-2.06,10.81-2.49,3.35-.38,6.72-.55,10.1-.55,7.27,0,14.52,.84,21.73,2.49,.31,.12,2.56,.87,1.73,1.6-9.07,2.67-20.97,7.17-32.05,7.17-7.85,0-15.3-2.25-21.03-8.99,6.02,7.31,13.78,9.72,21.93,9.72,10.84,0,22.37-4.27,31.38-6.9,.11-.05,.2-.13,.29-.26,.09-.12,.16-.27,.21-.45,.05-.17,.08-.37,.1-.57,0-.2,0-.4-.04-.59-.17-.47-.39-.86-.66-1.14-.26-.28-.56-.45-.86-.5-4.17-.75-11.05-1.76-12.09-1.98-4.79-.43-7.37-.65-9.52-.65Z"/></g></g></g></g><g id="g"/><g id="h"><g id="i"/><g id="j"/></g><g id="k"><g id="l"/><g id="m"/></g></svg>