<svg width="43" height="43" viewBox="0 0 43 43" fill="none" xmlns="http://www.w3.org/2000/svg">
<path d="M24.7608 39.4167H18.2391C17.8305 39.4167 17.4341 39.2771 17.1158 39.021C16.7974 38.7649 16.5761 38.4076 16.4887 38.0084L15.7595 34.6329C14.7867 34.2067 13.8643 33.6737 13.0092 33.0437L9.71796 34.0918C9.32838 34.2161 8.90803 34.2033 8.52671 34.0557C8.14539 33.908 7.82605 33.6344 7.62171 33.2802L4.35371 27.6347C4.15151 27.2802 4.07561 26.8675 4.13842 26.4643C4.20124 26.061 4.39905 25.691 4.6995 25.4148L7.25262 23.0856C7.13652 22.0305 7.13652 20.9659 7.25262 19.9108L4.6995 17.587C4.39863 17.3107 4.20054 16.9404 4.13772 16.5367C4.07489 16.1331 4.15105 15.72 4.35371 15.3653L7.61454 9.71622C7.81888 9.36203 8.13823 9.0884 8.51955 8.94076C8.90087 8.79312 9.32121 8.78036 9.71079 8.90459L13.0021 9.95272C13.4392 9.63022 13.8943 9.32922 14.3637 9.05688C14.817 8.80247 15.2829 8.57134 15.7595 8.3653L16.4905 4.99339C16.5775 4.5942 16.7983 4.23674 17.1164 3.98029C17.4344 3.72383 17.8306 3.58377 18.2391 3.58334H24.7608C25.1694 3.58377 25.5655 3.72383 25.8835 3.98029C26.2016 4.23674 26.4224 4.5942 26.5095 4.99339L27.2476 8.36709C28.2192 8.79578 29.1413 9.32864 29.9978 9.9563L33.2909 8.90818C33.6802 8.7844 34.1002 8.7974 34.4811 8.94501C34.8621 9.09263 35.1811 9.366 35.3854 9.7198L38.6462 15.3689C39.0619 16.0981 38.9185 17.0208 38.3004 17.5888L35.7473 19.918C35.8634 20.9731 35.8634 22.0377 35.7473 23.0928L38.3004 25.422C38.9185 25.9917 39.0619 26.9126 38.6462 27.6418L35.3854 33.291C35.181 33.6452 34.8617 33.9188 34.4804 34.0664C34.099 34.2141 33.6787 34.2268 33.2891 34.1026L29.9978 33.0545C29.1434 33.684 28.2216 34.2164 27.2494 34.6419L26.5095 38.0084C26.4221 38.4073 26.2011 38.7643 25.8831 39.0204C25.5651 39.2765 25.1691 39.4163 24.7608 39.4167ZM21.4928 14.3333C19.5921 14.3333 17.7692 15.0884 16.4252 16.4324C15.0812 17.7764 14.3261 19.5993 14.3261 21.5C14.3261 23.4007 15.0812 25.2236 16.4252 26.5676C17.7692 27.9116 19.5921 28.6667 21.4928 28.6667C23.3935 28.6667 25.2164 27.9116 26.5604 26.5676C27.9044 25.2236 28.6595 23.4007 28.6595 21.5C28.6595 19.5993 27.9044 17.7764 26.5604 16.4324C25.2164 15.0884 23.3935 14.3333 21.4928 14.3333Z" fill="#7D4D2B"/>
</svg>
