<svg width="24" height="24" viewBox="0 0 24 24" fill="none" xmlns="http://www.w3.org/2000/svg">
<path fill-rule="evenodd" clip-rule="evenodd" d="M14 2.00004C13.9999 1.79149 14.0649 1.5881 14.186 1.41833C14.3071 1.24856 14.4783 1.12091 14.6756 1.05325C14.8728 0.98558 15.0863 0.981282 15.2862 1.04095C15.486 1.10063 15.6622 1.22128 15.79 1.38604L22.79 10.386C22.9266 10.5616 23.0007 10.7776 23.0007 11C23.0007 11.2224 22.9266 11.4385 22.79 11.614L15.79 20.614C15.6622 20.7788 15.486 20.8995 15.2862 20.9591C15.0863 21.0188 14.8728 21.0145 14.6756 20.9468C14.4783 20.8792 14.3071 20.7515 14.186 20.5818C14.0649 20.412 13.9999 20.2086 14 20V16.01C8.62104 16.122 6.03704 17.143 4.73904 18.253C3.50504 19.308 3.27904 20.549 3.04404 21.849L2.98304 22.184C2.93816 22.4237 2.80724 22.6388 2.6149 22.7887C2.42256 22.9387 2.18206 23.0131 1.93864 22.9981C1.69523 22.9832 1.46569 22.8797 1.2932 22.7073C1.12071 22.5349 1.01716 22.3054 1.00204 22.062C0.831039 19.314 1.08804 15.332 3.02904 12.001C4.91304 8.76804 8.30604 6.28204 14 6.02204V2.00004Z" fill="#7D4D2B"/>
</svg>
