<svg width="484" height="2261" viewBox="0 0 484 2261" fill="none" xmlns="http://www.w3.org/2000/svg">
<g clip-path="url(#clip0_693_5043)">
<g clip-path="url(#clip1_693_5043)">
<path d="M484 0H-45V2277H484V0Z" fill="url(#paint0_linear_693_5043)"/>
<path d="M-165.316 552.343C-165.316 552.343 -112.008 610.647 3.07107 630.092C118.15 649.538 73.219 656.564 158.849 726.968C244.479 797.373 131.32 837.165 308.7 935.113C486.079 1033.06 479.96 1204.48 479.96 1204.48L406.567 1443.24L-254 1632.88L-165.316 552.343Z" fill="#98B393"/>
<path d="M572.865 963.485C572.865 963.485 531.784 871.513 469.759 964.939C407.734 1058.37 357.671 1004.49 319.463 1129.05C281.255 1253.6 272.751 1239.47 165.922 1286.17C59.0939 1332.87 -44.8819 1563.44 -44.8819 1563.44L410.788 1710.38L790 1673.64L572.865 963.485V963.485Z" fill="#C0CCAD"/>
<path d="M-31.2234 1205.97C-31.2234 1205.97 22.0847 1264.27 137.163 1283.72C252.242 1303.16 207.311 1310.19 292.941 1380.59C378.572 1451 265.413 1490.79 442.792 1588.74C620.171 1686.69 614.052 1858.1 614.052 1858.1L540.659 2096.86L-119.908 2286.51L-31.2234 1205.97V1205.97Z" fill="#C7D5C4"/>
<path d="M-1.67966 2074.26C-1.67966 2074.26 -73.4394 2100.19 123.706 1994.68C320.852 1889.15 313.312 1927.33 405.061 1765.1C496.81 1602.86 616.078 1501.86 686.417 1618.17C756.755 1734.48 600.161 2715.59 600.161 2715.59L7.50372 2766.06L-1.66906 2074.26H-1.67966Z" fill="#DFE7DD"/>
<path d="M316.876 1899.82C316.876 1899.82 279.071 1851.43 235.222 1792.36C240.026 1795.53 245.137 1798.68 250.619 1801.73L307.31 1837.01C307.31 1837.01 230.365 1751.33 204.448 1712.68C197.661 1702.55 185.636 1690.47 171.606 1678.15L172.105 1676.93C172.105 1676.93 183.876 1692.64 227.714 1716.27L274.925 1744.62C274.925 1744.62 210.864 1675.76 189.284 1644.72C186.558 1640.79 182.815 1636.5 178.361 1632C194.745 1643.59 214.183 1655.93 225.508 1658.18C225.508 1658.18 108.871 1488.54 104.82 1458.34C104.82 1458.34 40.9287 1622.65 -7.75596 1649.29C-46.3983 1670.43 12.0742 1647.39 40.8862 1631.65L39.5713 1633.91C39.5713 1633.91 -13.705 1695.34 -45.4015 1708.84C-77.0979 1722.34 26.0826 1692.64 31.4802 1684.54C32.2755 1683.35 33.0284 1682.91 33.7177 1683.08L24.651 1699.23C24.651 1699.23 -39.3358 1775.67 -77.3949 1792.48C-111.286 1807.43 -16.8015 1779.78 8.92471 1766.42C-24.7442 1820.34 -62.729 1869.65 -96.5675 1885.95C-182.855 1927.5 4.09971 1859.63 14.8844 1843.01C25.669 1826.39 -27.1938 1947.32 -12.793 1978.13C-12.793 1978.13 38.9775 1912.88 66.0504 1875.61C66.8458 1874.51 69.8468 1879.59 74.0886 1888.07C73.9507 1897.67 74.237 1893.21 73.675 1909.73C73.5689 1912.91 73.8022 1920.05 73.5477 1924.95C73.4841 1930.48 73.5265 1930.67 73.4311 1933.49C73.5371 1941.13 73.5053 1939.93 73.4735 1943.48C73.4311 1948.55 73.6219 1967.2 73.834 1984.94C73.7916 1986.29 73.7386 1987.84 73.675 1989.65C73.5689 1992.82 73.8022 1999.96 73.5477 2004.87C73.4841 2010.4 73.5265 2010.59 73.4311 2013.4C73.5371 2021.04 73.5053 2019.84 73.4735 2023.39C73.4099 2031.45 73.9295 2073.61 74.1946 2092.2C74.184 2092.89 74.1628 2093.58 74.1522 2094.3C73.8977 2108.28 74.3006 2101.09 73.6856 2119.25C73.5795 2122.42 73.8128 2129.56 73.5583 2134.47C73.4947 2140 73.5371 2140.19 73.4417 2143C73.5477 2150.64 73.5159 2149.44 73.4841 2152.99C73.4099 2162.54 74.1522 2220.06 74.3218 2229.35C74.2582 2231.6 74.2052 2233.69 74.1628 2235.97C73.9083 2249.95 74.3112 2242.75 73.6962 2260.91C73.5901 2264.09 73.8234 2271.23 73.5689 2276.14C73.5053 2281.67 73.5477 2281.86 73.4523 2284.67C73.5583 2292.31 73.5265 2291.11 73.4947 2294.66C73.4205 2303.14 74.0037 2349.42 74.2582 2366.2C74.2264 2367.43 74.1946 2368.66 74.1734 2369.95C73.9189 2383.93 74.3218 2376.74 73.7068 2394.9C73.6007 2398.07 73.834 2405.22 73.5795 2410.12C73.5159 2415.65 73.5583 2415.84 73.4629 2418.65C73.5689 2426.29 73.5371 2425.1 73.5053 2428.64C73.4311 2437.81 74.1097 2491.22 74.3218 2503.68C74.2688 2505.63 74.2158 2507.47 74.184 2509.48C73.9295 2523.46 74.3325 2516.26 73.7174 2534.42C73.6114 2537.6 73.8447 2544.74 73.5902 2549.64C73.5265 2555.17 73.5689 2555.36 73.4735 2558.18C73.5795 2565.82 73.5477 2564.62 73.5159 2568.16C73.4311 2577.79 74.1946 2636.15 74.3537 2644.75C74.29 2647.05 74.2264 2649.18 74.184 2651.52C73.9295 2665.5 74.3325 2658.3 73.7174 2676.46C73.6114 2679.64 73.8447 2686.78 73.5902 2691.68C73.5265 2697.21 73.5689 2697.4 73.4735 2700.22C73.5795 2707.86 73.5477 2706.66 73.5159 2710.2C73.4311 2719.99 73.6538 2778.49 73.8022 2785.54L74.3749 2785.47C74.3006 2788.1 74.237 2790.47 74.184 2793.08C73.9295 2807.06 74.3325 2799.86 73.7174 2818.02C73.6114 2821.2 73.8447 2828.34 73.5902 2833.24C73.5265 2838.77 73.5689 2838.97 73.4735 2841.78C73.5795 2849.42 73.5477 2848.22 73.5159 2851.77C73.4311 2861.55 73.6538 2920.05 73.8022 2927.11L138.669 2918.55C138.786 2912.14 138.807 2853.35 138.934 2845.97C138.955 2844.64 139.263 2844.11 139.019 2834.79C139.252 2829.16 139.295 2823.13 139.295 2823.13V2806.41C138.955 2789.68 139.019 2800.38 139.475 2778.29C139.645 2770.07 139.496 2770.85 139.337 2755.42C139.73 2754.41 139.751 2753.31 138.754 2752.4C138.796 2733.08 138.839 2708.96 138.924 2704.41C138.945 2703.08 139.252 2702.55 139.008 2693.23C139.242 2687.6 139.284 2681.57 139.284 2681.57V2664.85C138.945 2648.12 139.008 2658.82 139.464 2636.73C139.539 2633.37 139.549 2631.51 139.539 2629.43C140.016 2611.94 138.807 2568.79 138.924 2562.38C138.945 2561.05 139.252 2560.52 139.008 2551.2C139.242 2545.57 139.284 2539.54 139.284 2539.54V2522.82C138.945 2506.09 139.008 2516.79 139.464 2494.7C139.507 2492.63 139.528 2491.14 139.539 2489.81C140.005 2472.25 138.807 2429.26 138.924 2422.86C138.945 2421.53 139.252 2421 139.008 2411.68C139.242 2406.04 139.284 2400.01 139.284 2400.01V2383.3C138.966 2367.97 138.998 2375.67 139.358 2360.04C139.708 2354.72 139.687 2343.53 139.549 2331.51C139.592 2331.22 139.592 2330.93 139.549 2330.64C139.327 2312.61 138.849 2293.03 138.924 2288.88C138.945 2287.56 139.252 2287.03 139.008 2277.71C139.242 2272.07 139.284 2266.04 139.284 2266.04V2249.32C138.945 2232.6 139.008 2243.3 139.464 2221.21C139.528 2217.99 139.549 2216.15 139.539 2214.19C140.005 2196.65 138.807 2153.62 138.924 2147.22C138.945 2145.89 139.252 2145.36 139.008 2136.04C139.242 2130.4 139.284 2124.37 139.284 2124.37V2107.66C139.019 2094.91 138.998 2098.08 139.21 2090.54C139.772 2085.91 139.708 2071.21 139.507 2056.13C139.624 2055.67 139.634 2055.18 139.486 2054.72C139.252 2038.11 138.849 2021.43 138.924 2017.63C138.945 2016.54 139.146 2015.99 139.093 2010.74L139.199 2010.72C139.973 2004.54 139.581 1979.13 139.242 1959.83C139.305 1957.55 139.38 1954.43 139.475 1949.95C139.645 1941.72 139.496 1942.51 139.337 1927.08C139.687 1926.2 139.74 1925.24 139.093 1924.4C139.263 1919.48 139.295 1914.87 139.295 1914.87V1897.9C143.664 1892.08 149.178 1891.07 156.103 1898.5C190.206 1935.03 259.167 1963.22 259.167 1963.22C259.167 1963.22 191.458 1853.06 191.458 1826.75C191.458 1826.75 277.374 1892.93 316.918 1899.86L316.876 1899.82Z" fill="#BFB3AB"/>
<path d="M623.14 1271.2C623.14 1271.2 585.336 1222.81 541.487 1163.74C546.29 1166.92 551.402 1170.06 556.884 1173.12L613.575 1208.4C613.575 1208.4 536.63 1122.71 510.713 1084.06C503.926 1073.94 491.901 1061.86 477.871 1049.53L478.369 1048.31C478.369 1048.31 490.14 1064.02 533.979 1087.65L581.189 1116C581.189 1116 517.128 1047.15 495.549 1016.1C492.823 1012.17 489.08 1007.88 484.626 1003.38C501.01 1014.97 520.448 1027.31 531.773 1029.56C531.773 1029.56 415.136 859.922 411.085 829.725C411.085 829.725 347.193 994.033 298.509 1020.67C259.866 1041.82 318.339 1018.77 347.151 1003.03L345.836 1005.29C345.836 1005.29 292.56 1066.72 260.863 1080.22C229.167 1093.72 332.347 1064.02 337.745 1055.92C338.54 1054.74 339.293 1054.29 339.982 1054.46L330.916 1070.61C330.916 1070.61 266.929 1147.06 228.87 1163.86C194.978 1178.82 289.463 1151.17 315.189 1137.8C281.521 1191.72 243.536 1241.04 209.697 1257.33C123.409 1298.88 310.364 1231.02 321.149 1214.39C331.934 1197.77 279.071 1318.7 293.472 1349.51C293.472 1349.51 345.242 1284.27 372.315 1246.99C373.11 1245.9 376.112 1250.97 380.353 1259.45C380.215 1269.06 380.502 1264.59 379.94 1281.12C379.834 1284.29 380.067 1291.43 379.812 1296.34C379.749 1301.87 379.791 1302.06 379.696 1304.87C379.802 1312.51 379.77 1311.31 379.738 1314.86C379.696 1319.93 379.887 1338.58 380.099 1356.33C380.056 1357.68 380.003 1359.23 379.94 1361.03C379.834 1364.2 380.067 1371.35 379.812 1376.25C379.749 1381.78 379.791 1381.97 379.696 1384.78C379.802 1392.43 379.77 1391.23 379.738 1394.77C379.675 1402.83 380.194 1444.99 380.459 1463.58C380.449 1464.27 380.428 1464.96 380.417 1465.69C380.162 1479.67 380.565 1472.47 379.95 1490.63C379.844 1493.8 380.078 1500.95 379.823 1505.85C379.759 1511.38 379.802 1511.57 379.706 1514.38C379.812 1522.03 379.781 1520.83 379.749 1524.37C379.675 1533.93 380.417 1591.44 380.587 1600.73C380.523 1602.98 380.47 1605.07 380.428 1607.35C380.173 1621.33 380.576 1614.14 379.961 1632.3C379.855 1635.47 380.088 1642.62 379.834 1647.52C379.77 1653.05 379.812 1653.24 379.717 1656.05C379.823 1663.69 379.791 1662.5 379.759 1666.04C379.685 1674.52 380.268 1720.8 380.523 1737.58C380.491 1738.81 380.459 1740.04 380.438 1741.34C380.184 1755.32 380.587 1748.12 379.972 1766.28C379.865 1769.45 380.099 1776.6 379.844 1781.5C379.781 1787.03 379.823 1787.22 379.728 1790.04C379.834 1797.68 379.802 1796.48 379.77 1800.02C379.696 1809.19 380.374 1862.61 380.587 1875.07C380.534 1877.01 380.48 1878.86 380.449 1880.86C380.194 1894.84 380.597 1887.64 379.982 1905.81C379.876 1908.98 380.109 1916.12 379.855 1921.03C379.791 1926.56 379.834 1926.75 379.738 1929.56C379.844 1937.2 379.812 1936 379.781 1939.55C379.696 1949.18 380.459 2007.53 380.618 2016.13C380.555 2018.43 380.491 2020.57 380.449 2022.9C380.194 2036.88 380.597 2029.68 379.982 2047.84C379.876 2051.02 380.109 2058.16 379.855 2063.07C379.791 2068.6 379.834 2068.79 379.738 2071.6C379.844 2079.24 379.812 2078.04 379.781 2081.59C379.696 2091.37 379.918 2149.87 380.067 2156.93L380.64 2156.85C380.565 2159.49 380.502 2161.85 380.449 2164.46C380.194 2178.44 380.597 2171.25 379.982 2189.41C379.876 2192.58 380.109 2199.72 379.855 2204.63C379.791 2210.16 379.834 2210.35 379.738 2213.16C379.844 2220.8 379.812 2219.6 379.781 2223.15C379.696 2232.94 379.918 2291.43 380.067 2298.49L444.934 2289.93C445.05 2283.52 445.072 2224.73 445.199 2217.35C445.22 2216.03 445.528 2215.5 445.284 2206.18C445.517 2200.54 445.56 2194.51 445.56 2194.51V2177.79C445.22 2161.07 445.284 2171.77 445.74 2149.68C445.909 2141.45 445.761 2142.24 445.602 2126.8C445.994 2125.8 446.016 2124.69 445.019 2123.78C445.061 2104.46 445.104 2080.35 445.188 2075.79C445.21 2074.47 445.517 2073.93 445.273 2064.62C445.506 2058.98 445.549 2052.95 445.549 2052.95V2036.23C445.21 2019.5 445.273 2030.2 445.729 2008.12C445.803 2004.75 445.814 2002.89 445.803 2000.81C446.281 1983.32 445.072 1940.17 445.188 1933.76C445.21 1932.44 445.517 1931.91 445.273 1922.59C445.506 1916.95 445.549 1910.92 445.549 1910.92V1894.2C445.21 1877.48 445.273 1888.18 445.729 1866.09C445.772 1864.02 445.793 1862.52 445.803 1861.19C446.27 1843.64 445.072 1800.64 445.188 1794.24C445.21 1792.91 445.517 1792.38 445.273 1783.06C445.506 1777.43 445.549 1771.4 445.549 1771.4V1754.68C445.231 1739.35 445.263 1747.05 445.623 1731.42C445.973 1726.11 445.952 1714.91 445.814 1702.89C445.856 1702.61 445.856 1702.31 445.814 1702.02C445.591 1683.99 445.114 1664.42 445.188 1660.27C445.21 1658.94 445.517 1658.41 445.273 1649.09C445.506 1643.45 445.549 1637.42 445.549 1637.42V1620.71C445.21 1603.98 445.273 1614.68 445.729 1592.59C445.793 1589.37 445.814 1587.54 445.803 1585.57C446.27 1568.03 445.072 1525 445.188 1518.6C445.21 1517.27 445.517 1516.74 445.273 1507.42C445.506 1501.79 445.549 1495.76 445.549 1495.76V1479.04C445.284 1466.29 445.263 1469.47 445.475 1461.92C446.037 1457.29 445.973 1442.59 445.772 1427.52C445.888 1427.05 445.899 1426.56 445.75 1426.11C445.517 1409.49 445.114 1392.81 445.188 1389.01C445.21 1387.93 445.411 1387.37 445.358 1382.12L445.464 1382.1C446.238 1375.92 445.846 1350.51 445.507 1331.21C445.57 1328.93 445.644 1325.81 445.74 1321.33C445.909 1313.11 445.761 1313.89 445.602 1298.46C445.952 1297.58 446.005 1296.62 445.358 1295.78C445.528 1290.86 445.56 1286.25 445.56 1286.25V1269.28C449.929 1263.46 455.443 1262.46 462.367 1269.89C496.471 1306.41 565.431 1334.6 565.431 1334.6C565.431 1334.6 497.722 1224.45 497.722 1198.13C497.722 1198.13 583.639 1264.31 623.183 1271.24L623.14 1271.2Z" fill="#AC9C94"/>
<path d="M106 2235.69C82.734 2237.29 14.4313 2224.47 -0.913208 2224.47V2266.93L491.5 2266.93V2224.47L308.427 2224.47C288.628 2224.47 129.255 2234.09 105.989 2235.69H106Z" fill="#674836"/>
<path d="M90.6949 2260.8C90.6949 2260.8 88.2347 2258.51 90.1329 2253.35C92.0311 2248.19 92.2008 2246.41 91.6493 2250.88C91.0979 2255.36 90.9813 2260.24 91.872 2260.85C92.7628 2261.47 90.6949 2260.8 90.6949 2260.8V2260.8Z" fill="#6A8F25"/>
<path d="M88.5317 2264.78C88.5317 2264.78 81.0451 2257.8 86.835 2242.14C92.625 2226.47 93.1234 2221.04 91.4267 2234.64C89.73 2248.25 89.3907 2263.07 92.1054 2264.94C94.8201 2266.81 88.5317 2264.77 88.5317 2264.77V2264.78Z" fill="#6A8F25"/>
<path d="M79.5498 2271.33C79.5498 2271.33 66.8458 2259.48 76.6654 2232.9C86.485 2206.33 87.344 2197.08 84.4596 2220.19C81.5752 2243.31 80.992 2268.44 85.6155 2271.61C90.239 2274.79 79.5498 2271.33 79.5498 2271.33V2271.33Z" fill="#6A8F25"/>
<path d="M64.4704 2258.95C64.4704 2258.95 56.7928 2251.79 62.7207 2235.72C68.6591 2219.65 69.1787 2214.05 67.429 2228.03C65.6792 2242.01 65.3399 2257.2 68.1289 2259.12C70.9178 2261.04 64.4598 2258.95 64.4598 2258.95H64.4704Z" fill="#6A8F25"/>
<path d="M129.56 2270.86C129.56 2270.86 121.84 2263.66 127.81 2247.51C133.77 2231.35 134.3 2225.74 132.55 2239.78C130.801 2253.82 130.451 2269.1 133.25 2271.03C136.05 2272.96 129.571 2270.85 129.571 2270.85L129.56 2270.86Z" fill="#6A8F25"/>
<path d="M115.233 2269.6C115.233 2269.6 110.016 2264.73 114.046 2253.8C118.075 2242.88 118.436 2239.08 117.248 2248.58C116.061 2258.08 115.827 2268.41 117.725 2269.71C119.624 2271.02 115.233 2269.6 115.233 2269.6V2269.6Z" fill="#6A8F25"/>
<path d="M197.852 2266.24C197.852 2266.24 190.768 2259.63 196.24 2244.8C201.712 2229.97 202.2 2224.82 200.588 2237.71C198.976 2250.61 198.658 2264.63 201.235 2266.4C203.812 2268.18 197.852 2266.24 197.852 2266.24V2266.24Z" fill="#6A8F25"/>
<path d="M182.773 2268.53C182.773 2268.53 175.54 2261.77 181.129 2246.64C186.717 2231.5 187.216 2226.24 185.572 2239.4C183.928 2252.56 183.6 2266.88 186.23 2268.69C188.86 2270.51 182.773 2268.53 182.773 2268.53Z" fill="#6A8F25"/>
<path d="M167.63 2276.88C167.63 2276.88 157.789 2267.7 165.392 2247.1C172.995 2226.49 173.674 2219.33 171.437 2237.25C169.199 2255.16 168.754 2274.64 172.327 2277.1C175.901 2279.56 167.63 2276.88 167.63 2276.88V2276.88Z" fill="#6A8F25"/>
<path d="M152.529 2280.91C152.529 2280.91 141.829 2270.93 150.101 2248.54C158.372 2226.14 159.093 2218.36 156.665 2237.83C154.236 2257.3 153.749 2278.47 157.64 2281.16C161.532 2283.84 152.529 2280.91 152.529 2280.91Z" fill="#6A8F25"/>
<path d="M268.636 2260.74C268.636 2260.74 265.593 2257.9 267.947 2251.53C270.301 2245.16 270.503 2242.94 269.813 2248.49C269.124 2254.03 268.986 2260.05 270.089 2260.82C271.192 2261.58 268.636 2260.74 268.636 2260.74Z" fill="#6A8F25"/>
<path d="M256.558 2265.22C256.558 2265.22 249.877 2258.99 255.041 2245.01C260.206 2231.04 260.662 2226.16 259.145 2238.33C257.629 2250.49 257.321 2263.71 259.75 2265.38C262.178 2267.06 256.558 2265.23 256.558 2265.23V2265.22Z" fill="#6A8F25"/>
<path d="M241.521 2272.26C241.521 2272.26 232.984 2264.3 239.58 2246.43C246.176 2228.55 246.759 2222.34 244.819 2237.88C242.878 2253.42 242.486 2270.32 245.593 2272.45C248.7 2274.59 241.521 2272.26 241.521 2272.26V2272.26Z" fill="#6A8F25"/>
<path d="M253.249 2255.84C253.249 2255.84 251.531 2254.24 252.857 2250.66C254.183 2247.08 254.299 2245.83 253.907 2248.94C253.514 2252.05 253.44 2255.45 254.066 2255.88C254.692 2256.32 253.249 2255.84 253.249 2255.84Z" fill="#6A8F25"/>
<path d="M250.916 2275.43C250.916 2275.43 241.298 2266.47 248.732 2246.34C256.166 2226.22 256.823 2219.21 254.628 2236.71C252.433 2254.22 252.009 2273.25 255.497 2275.66C258.986 2278.07 250.906 2275.43 250.906 2275.43H250.916Z" fill="#6A8F25"/>
<path d="M266.229 2263.43C266.229 2263.43 261.457 2258.98 265.147 2249C268.838 2239.01 269.156 2235.54 268.074 2244.22C266.993 2252.9 266.77 2262.35 268.509 2263.54C270.248 2264.73 266.229 2263.43 266.229 2263.43V2263.43Z" fill="#6A8F25"/>
<path d="M281.372 2268.91C281.372 2268.91 274.363 2262.37 279.781 2247.7C285.2 2233.03 285.677 2227.93 284.087 2240.68C282.496 2253.44 282.178 2267.32 284.723 2269.08C287.268 2270.84 281.372 2268.92 281.372 2268.92V2268.91Z" fill="#6A8F25"/>
<path d="M465.538 2245.27C465.538 2245.27 463.396 2243.26 465.05 2238.77C466.705 2234.28 466.853 2232.72 466.365 2236.63C465.878 2240.54 465.782 2244.78 466.556 2245.32C467.33 2245.86 465.528 2245.27 465.528 2245.27H465.538Z" fill="#6A8F25"/>
<path d="M450.703 2270.34C450.703 2270.34 439.95 2260.31 448.264 2237.8C456.577 2215.28 457.309 2207.46 454.86 2227.03C452.421 2246.61 451.922 2267.89 455.835 2270.58C459.748 2273.28 450.703 2270.34 450.703 2270.34V2270.34Z" fill="#6A8F25"/>
<path d="M435.835 2256.7C435.835 2256.7 431.53 2252.68 434.86 2243.66C438.189 2234.63 438.486 2231.5 437.5 2239.35C436.525 2247.19 436.323 2255.72 437.893 2256.8C439.462 2257.87 435.835 2256.7 435.835 2256.7Z" fill="#6A8F25"/>
<path d="M508 0H-85V2273H508V0Z" fill="url(#paint1_linear_693_5043)"/>
<path d="M714.001 997.144C714.001 985.099 713.798 973.063 713.421 961.018C712.75 951.168 712.078 941.308 711.406 931.459C707.956 922.38 704.507 913.302 701.067 904.223C695.205 896.302 689.343 888.38 683.481 880.459C676.592 872.844 668.827 866.554 660.207 861.57C662.131 852.511 662.314 843.324 660.767 833.998C661.204 819.125 657.419 805.121 649.42 791.988C643.558 784.067 637.696 776.145 631.834 768.224C617.109 753.172 599.615 742.314 579.353 735.658C568.454 733.483 557.544 731.317 546.645 729.141C524.46 727.401 503.139 730.763 482.684 739.218C463.765 745.231 445.386 752.757 427.781 761.766C401.698 775.117 375.808 789.902 352.218 807.208C328.924 824.297 308.306 844.432 288.135 864.863C274.183 878.995 261.462 894.284 250.207 910.552C240.783 924.18 232.418 938.609 222.19 951.663C221.101 952.088 220.012 952.503 218.913 952.909C214.822 953.868 210.731 954.808 206.64 955.737C187.202 960.138 168.304 965.538 149.131 971.125C139.88 973.815 130.762 976.93 122.122 981.133C105.137 989.381 87.4295 998.835 72.775 1010.95C62.3439 1019.57 52.8897 1029.46 43.4253 1039.02C40.24 1042.23 37.2175 1045.6 34.3884 1049.12C23.0515 1063.26 14.3503 1079.73 5.79171 1095.42C-2.90941 1111.37 -8.93405 1128.59 -13.4831 1146.06C-20.6169 1173.4 -26.7026 1200.83 -30.6207 1228.75C-33.2768 1247.7 -35.7803 1266.82 -35.8414 1285.97C-35.8922 1304.64 -34.9662 1323.55 -31.8622 1341.98C-28.8092 1360.04 -21.6143 1377.96 -13.9003 1394.37C-11.9871 1398.45 -9.70747 1402.31 -7.14293 1406.03C0.326802 1416.87 9.00757 1430.08 19.0622 1439.91C32.6888 1453.22 48.3101 1466.21 65.7226 1474.84C84.061 1483.94 102.338 1492.87 122.132 1498.37C132.594 1501.28 143.239 1503.5 153.863 1505.8L229.517 1522.1C254.735 1527.54 279.953 1532.98 305.171 1538.41C327.59 1543.25 350.03 1548 372.592 1552.21C383.563 1554.25 394.645 1555.88 405.819 1556.27C421.532 1556.84 437.428 1555.83 453.039 1554.75C459.043 1554.33 465.017 1553.44 470.848 1551.97C485.126 1548.36 500.717 1544.76 514.547 1538.79C527.767 1533.08 540.284 1525.2 552.385 1517.68C567.701 1508.17 581.073 1493.6 592.969 1481.05C599.33 1474.34 604.825 1466.86 609.649 1459.05C624.589 1434.86 637.635 1410.9 647.028 1384.3C655.017 1361.69 661.927 1338.67 668.237 1315.56C696.63 1211.4 713.951 1105.04 713.991 997.144H714.001Z" fill="#ADAB89"/>
<path d="M559.753 1649.63C557.147 1631.56 554.135 1614.08 548.589 1596.67C540.742 1572.02 530.26 1548.1 519.809 1524.41C509.439 1500.9 498.611 1477.58 487.895 1454.22C485.188 1448.34 482.501 1442.44 479.784 1436.56C475.245 1426.74 471.398 1416.15 464.6 1407.51C454.037 1394.09 441.916 1382.33 425.654 1375.47C414.378 1370.72 403.112 1367.03 391.399 1363.74C379.604 1360.43 367.677 1357.42 355.526 1355.65C337.625 1353.03 319.419 1350.32 301.324 1352.33C297.03 1352.81 292.633 1353.21 288.227 1353.71C283.78 1350.77 279.109 1348.17 274.356 1346C251.234 1335.47 229.456 1331.69 204.025 1330.12C190.225 1329.27 176.354 1329.44 162.544 1328.72C149.64 1328.04 136.756 1327.01 123.913 1325.66C115.253 1324.46 106.643 1322.98 98.2272 1320.71C98.044 1320.62 97.8608 1320.52 97.6776 1320.42C88.0708 1312.12 79.7563 1302.46 69.7526 1294.56C47.5062 1277.01 23.0312 1264.75 -4.78189 1257.73C-53.1825 1245.51 -102.245 1252.42 -150.655 1260.2C-160.812 1262.28 -169.808 1266.46 -177.654 1272.76C-186.121 1277.57 -192.94 1284.13 -198.099 1292.45C-203.87 1300.38 -207.004 1309.09 -207.523 1318.55C-209.884 1327.88 -209.416 1337.21 -206.108 1346.54C-199.707 1364.14 -187.302 1380.19 -169.625 1388.49C-168.281 1388.99 -166.928 1389.5 -165.585 1390C-166.694 1392.5 -167.681 1394.92 -168.526 1397.03C-174.235 1411.3 -173.675 1425.11 -171.467 1439.64C-169.197 1454.59 -166.063 1469.38 -162.857 1484.18C-157.789 1507.61 -152.09 1530.94 -144.509 1553.74C-135.268 1581.55 -123.188 1608.96 -108.239 1634.31C-94.9885 1656.77 -77.9323 1677.34 -59.431 1695.87C-52.0529 1703.26 -44.115 1710.12 -35.648 1716.31C-22.52 1725.88 -8.90348 1735.46 5.77139 1742.77C20.4055 1750.06 36.0676 1755.91 51.8212 1760.43C69.946 1765.64 89.18 1767.45 107.864 1769.28C134.609 1771.89 161.72 1771.48 188.566 1772.04C215.616 1772.6 242.666 1773.17 269.705 1773.71C297.427 1774.27 325.148 1774.83 352.88 1775.37C379.492 1775.89 406.226 1777.14 432.838 1776.61C439.229 1776.48 445.59 1776.05 451.95 1775.36C463.338 1774.12 476.497 1773.39 487.823 1769.97C504.768 1764.85 519.697 1758.25 532.723 1746.18C545.363 1734.47 549.006 1726.85 555.784 1711.51C559.366 1703.4 559.915 1693.88 560.954 1685.4C562.409 1673.49 561.462 1661.45 559.753 1649.62V1649.63Z" fill="#A5A559"/>
<path d="M594.292 2004.49C594.038 1981.66 593.784 1958.83 593.478 1936.01C592.247 1843.41 590.212 1750.79 584.329 1658.34C581.398 1612.33 577.603 1566.35 572.3 1520.54C569.716 1498.13 566.897 1475.3 560.546 1453.54C556.537 1439.82 550.359 1427.06 543.968 1414.22C540.356 1406.97 536.061 1400.18 530.81 1393.95C524.775 1386.79 518.333 1378.76 511.138 1372.3C503.567 1365.5 494.438 1360.02 486.103 1354.4C473.566 1348.01 460.214 1344.82 446.038 1344.82C431.861 1344.82 418.51 1348.01 405.972 1354.4C394.269 1360.44 384.774 1368.84 377.497 1379.58C377.223 1379.98 376.968 1380.4 376.714 1380.81C368.491 1383.29 360.411 1386.39 352.727 1389.89C347.517 1392.27 343.008 1395.72 338.307 1398.93C333.788 1402.02 328.975 1404.95 324.873 1408.61C316.946 1415.67 310.076 1424.01 303.797 1432.48C293.641 1446.17 287.372 1462.04 277.552 1475.88C272.921 1480.31 267.965 1484.42 262.805 1488.27C236.692 1505 209.103 1519.14 184.373 1538.11C178.817 1542.38 173.525 1546.97 168.67 1551.98C159.949 1561.01 151.187 1570.6 144.226 1581.05C136.889 1592.08 131.698 1604.3 124.453 1615.34C116.362 1619.53 107.824 1622.9 99.4381 1626.54C82.0053 1634.09 65.6208 1644.37 51.3428 1656.69C27.3461 1677.39 9.70978 1704.13 -4.18148 1731.93C-9.95169 1739.86 -13.0861 1748.56 -13.6051 1758.03C-15.9661 1767.35 -15.498 1776.69 -12.1906 1786.01C-11.1118 1789.89 -9.64638 1793.53 -7.81457 1796.94C-11.7021 1804.57 -15.3861 1812.31 -18.9886 1820.15C-27.4048 1838.49 -33.806 1857.69 -38.0497 1877.34C-41.3877 1892.79 -43.8402 1908.52 -45.4278 1924.23C-46.8729 1938.57 -44.9393 1952.81 -41.8965 1966.9C-39.8815 1976.24 -34.9152 1985.32 -30.4069 1993.58C-29.5114 1995.21 -28.5141 1996.76 -27.3946 1998.25C-23.5682 2003.36 -18.49 2008.88 -14.0936 2013.54C-13.1065 2014.58 -12.1499 2015.62 -11.0508 2016.55C-3.09257 2023.3 5.88333 2029.61 15.7242 2033.55C25.901 2037.64 36.0879 2041.72 46.8956 2043.85C92.7825 2052.9 139.077 2060.51 185.177 2068.49C237.913 2077.62 290.832 2085.41 344.128 2090.8C391.256 2095.57 438.639 2097.9 486.022 2097.78C490.805 2097.77 495.568 2097.81 500.331 2097.31C508.686 2096.45 517.529 2096.08 525.681 2093.94C531.929 2092.3 540.05 2089 545.983 2086.42C547.306 2085.85 548.385 2085.29 549.617 2084.55C568.83 2073.19 583.525 2057.63 590.537 2036.49C593.906 2026.34 594.404 2015.1 594.292 2004.45V2004.49Z" fill="#B2AE60"/>
<path d="M590.812 2193.87C588.207 2175.8 585.194 2158.33 579.648 2140.91C571.802 2116.26 561.32 2092.35 550.868 2068.65C540.498 2045.14 529.67 2021.83 518.954 1998.47C516.247 1992.58 513.56 1986.69 510.843 1980.8C506.304 1970.98 502.457 1960.39 495.659 1951.76C485.096 1938.33 472.975 1926.57 456.713 1919.72C445.437 1914.96 434.172 1911.27 422.458 1907.99C410.663 1904.68 398.736 1901.66 386.585 1899.89C368.684 1897.28 350.478 1894.57 332.384 1896.58C328.089 1897.05 323.693 1897.46 319.286 1897.95C314.839 1895.01 310.168 1892.41 305.415 1890.25C282.294 1879.71 260.516 1875.94 235.084 1874.36C221.284 1873.51 207.413 1873.68 193.603 1872.96C180.699 1872.29 167.816 1871.25 154.973 1869.9C146.312 1868.71 137.703 1867.22 129.286 1864.95C129.103 1864.86 128.92 1864.76 128.737 1864.66C119.13 1856.37 110.816 1846.7 100.812 1838.8C78.5656 1821.26 54.0905 1809 26.2775 1801.97C-22.1231 1789.75 -71.1851 1796.66 -119.596 1804.45C-129.752 1806.52 -138.749 1810.71 -146.595 1817.01C-155.062 1821.81 -161.88 1828.38 -167.04 1836.7C-172.81 1844.63 -175.945 1853.33 -176.464 1862.79C-178.825 1872.12 -178.356 1881.46 -175.049 1890.78C-168.648 1908.38 -156.242 1924.43 -138.565 1932.73C-137.222 1933.24 -135.869 1933.74 -134.525 1934.25C-135.634 1936.75 -136.622 1939.16 -137.466 1941.28C-143.175 1955.55 -142.616 1969.35 -140.407 1983.88C-138.138 1998.83 -135.003 2013.63 -131.798 2028.42C-126.73 2051.85 -121.031 2075.19 -113.449 2097.98C-104.209 2125.79 -92.1289 2153.21 -77.1792 2178.55C-63.9291 2201.01 -46.8729 2221.58 -28.3716 2240.11C-20.9935 2247.5 -13.0556 2254.37 -4.58855 2260.56C8.53945 2270.13 22.1559 2279.7 36.8308 2287.01C51.4649 2294.31 67.1269 2300.15 82.8805 2304.67C101.005 2309.88 120.239 2311.69 138.924 2313.52C165.668 2316.13 192.779 2315.73 219.625 2316.28C246.675 2316.85 273.725 2317.41 300.765 2317.95C328.486 2318.52 356.208 2319.07 383.939 2319.62C410.551 2320.13 437.286 2321.39 463.898 2320.85C470.289 2320.72 476.649 2320.3 483.01 2319.61C494.397 2318.36 507.556 2317.64 518.883 2314.22C535.827 2309.09 550.756 2302.5 563.783 2290.42C576.422 2278.71 580.065 2271.1 586.843 2255.75C590.425 2247.64 590.975 2238.13 592.013 2229.64C593.468 2217.73 592.522 2205.69 590.812 2193.86V2193.87Z" fill="#C6C39D"/>
<path d="M124.88 2239.4C125.002 2233.99 124.961 2232.88 124.87 2227.36C124.88 2224.79 124.89 2221.68 124.9 2218.24C125.033 2217.79 125.053 2217.34 124.9 2216.89C124.951 2198.82 124.982 2172.86 125.073 2168.32C125.094 2167.11 125.389 2166.64 125.155 2158.18C125.389 2153.07 125.429 2147.6 125.429 2147.6V2132.43C125.094 2117.25 148.592 2117.04 149.04 2097C149.202 2089.53 125.633 2100.17 125.48 2086.17C125.867 2085.26 125.887 2084.25 124.91 2083.42C124.951 2065.89 124.992 2044.01 125.073 2039.87C125.094 2038.67 125.389 2038.19 125.155 2029.74C125.389 2024.62 125.429 2019.16 125.429 2019.16V2003.99C125.094 1988.8 125.165 1998.52 125.602 1978.47C125.674 1975.41 125.684 1973.72 125.674 1971.84C126.142 1955.97 142.445 1924.9 142.567 1919.08C142.587 1917.88 125.389 1909.31 125.165 1900.86C125.399 1895.75 125.44 1890.28 125.44 1890.28V1875.11C125.104 1859.93 125.175 1869.64 125.613 1849.59C125.653 1847.71 125.674 1846.36 125.684 1845.15C126.142 1829.22 124.961 1790.21 125.083 1784.4C125.104 1783.19 125.399 1782.72 125.165 1774.26C125.399 1769.15 125.44 1763.68 125.44 1763.68V1748.51C125.134 1734.6 125.165 1741.58 125.511 1727.41C125.857 1722.58 125.837 1712.43 125.704 1701.52C125.745 1701.25 125.745 1700.99 125.704 1700.73C125.491 1684.37 125.022 1666.6 125.094 1662.83C125.114 1661.62 125.409 1661.15 125.175 1652.69C125.409 1647.58 125.45 1642.11 125.45 1642.11V1626.94C125.114 1611.76 125.185 1621.47 125.623 1601.43C125.684 1598.51 144.256 1584.8 144.246 1583.02C131.301 1568.64 124.972 1540.09 125.083 1534.29C125.104 1533.08 125.399 1532.61 125.165 1524.15C125.399 1519.04 125.44 1513.57 125.44 1513.57V1498.4C125.185 1486.83 125.165 1489.71 125.368 1482.86C125.908 1478.67 125.857 1465.33 125.653 1451.64C125.765 1451.22 125.776 1450.78 125.633 1450.36C125.399 1435.28 147.126 1430.14 147.198 1426.69C147.218 1425.48 125.399 1415.01 125.165 1406.56C125.399 1401.44 125.44 1395.97 125.44 1395.97V1380.8C125.104 1365.62 125.175 1375.34 125.613 1355.29C125.745 1349.27 125.674 1348.56 125.572 1341.18C126.651 1332.72 131.373 1296.65 133.5 1294.06C139.799 1286.36 145.59 1282.45 150.698 1279.23C153.222 1280.52 156.123 1281.27 159.226 1281.27C165.098 1281.27 170.289 1278.63 173.423 1274.59C175.296 1276.53 178.043 1277.77 181.106 1277.77C186.582 1277.77 191.049 1273.85 191.283 1268.94C198.458 1267.56 203.841 1261.78 203.841 1254.88C203.841 1246.94 196.728 1240.5 187.945 1240.5C185.767 1240.5 183.691 1240.9 181.798 1241.62L181.412 1241.02C185.136 1236.66 188.953 1232.4 192.464 1227.47C194.977 1228.2 197.623 1228.6 200.361 1228.6C216.165 1228.6 229.049 1215.48 229.711 1199.05C250.4 1194.39 265.93 1175.06 265.93 1151.92C265.93 1147.7 265.411 1143.6 264.434 1139.7C264.83 1137.16 265.044 1134.56 265.044 1131.9C265.044 1122.56 262.51 1113.86 258.144 1106.48C250.054 1092.81 235.633 1083.71 219.198 1083.71C212.868 1083.71 206.843 1085.05 201.358 1087.49C200.025 1084.53 198.478 1081.69 196.738 1079C204.228 1070.5 208.746 1059.07 208.543 1046.52C208.523 1045.23 208.441 1043.95 208.319 1042.68C200.229 1029.02 185.808 1019.91 169.373 1019.91C164.569 1019.91 159.949 1020.69 155.604 1022.12C155.654 1021.48 155.685 1020.84 155.685 1020.19C155.685 1006.41 145.06 995.236 131.953 995.236C130.284 995.236 128.666 995.414 127.098 995.76C118.194 990.33 107.854 987.225 96.8227 987.225C65.8447 987.225 39.9957 986.998 36.444 1018.55C36.4135 1018.87 36.6883 1043.88 36.6578 1044.2C36.5763 1045.03 36.5255 1045.86 36.4746 1046.7C35.2534 1046.77 34.0525 1046.94 32.8822 1047.18C23.9775 1041.76 13.638 1038.65 2.60638 1038.65C-28.3716 1038.65 -53.9051 1063.13 -57.4567 1094.68C-57.4873 1095 -57.528 1095.31 -57.5585 1095.62C-57.7722 1097.8 -57.8842 1100 -57.8842 1102.24C-57.8842 1106.95 -57.3855 1111.53 -56.4696 1115.94L-56.724 1116.28C-69.0175 1116.93 -79.3775 1125.32 -83.4685 1136.91C-84.6795 1140.35 -85.3512 1144.07 -85.3512 1147.95C-85.3512 1151.82 -84.6286 1155.82 -83.326 1159.36C-84.4964 1163.72 -84.822 1168.46 -84.0282 1173.38C-81.8911 1186.64 -71.8161 1197.15 -59.197 1199.29C-56.4594 1199.76 -53.8033 1199.82 -51.2286 1199.55C-43.6673 1214.88 -29.1451 1225.81 -12.0685 1227.7C-12.0888 1227.95 -12.1194 1228.21 -12.1194 1228.48C-12.1194 1229.49 -11.9769 1230.47 -11.7225 1231.4C-16.0476 1231.54 -19.5077 1234.46 -19.5077 1238.03C-19.5077 1241.6 -15.8746 1244.66 -11.3968 1244.66C-11.122 1244.66 -10.8473 1244.65 -10.5725 1244.63C-8.33362 1248.16 -3.82531 1250.57 1.375 1250.57C2.8201 1250.57 2.27055 1250.89 1.63959 1251.05C11.5314 1268.71 18.706 1308.35 30.6128 1320.44C43.8832 1333.9 61.9164 1321.68 62.8018 1336.73C62.4965 1343.8 62.4049 1349.18 62.2116 1356.2C62.0691 1361.31 61.9368 1364.67 61.8554 1368.74C61.6111 1381.42 62.008 1374.9 61.3974 1391.37C61.2957 1394.24 61.5195 1400.73 61.2753 1405.17C61.2142 1410.2 61.255 1410.36 61.1634 1412.91C61.2651 1419.86 61.2346 1418.76 61.2041 1421.97C61.143 1429.28 61.6417 1467.54 61.9063 1484.42C61.8961 1485.04 61.8757 1485.67 61.8656 1486.31C61.6213 1498.99 62.0182 1492.48 61.4076 1508.94C61.3058 1511.82 61.5297 1518.31 61.2855 1522.75C61.2244 1527.77 61.2651 1527.94 61.1735 1530.49C61.2753 1537.43 61.2448 1536.33 61.2142 1539.55C61.1328 1548.21 61.8656 1600.4 62.0284 1608.83C61.9673 1610.87 61.9063 1612.77 61.8656 1614.85C61.6213 1627.52 62.0182 1621.01 61.4076 1637.47C61.3058 1640.35 40.2196 1647.77 39.9754 1652.21C39.9143 1657.23 61.2651 1656.47 61.1634 1659.02C61.2651 1665.97 61.2346 1664.87 61.2041 1668.08C61.1328 1675.78 61.7027 1717.77 61.947 1733C61.9164 1734.11 61.8859 1735.23 61.8656 1736.41C61.6213 1749.09 62.0182 1742.57 61.4076 1759.03C61.3058 1761.91 61.5297 1768.4 61.2855 1772.84C61.2244 1777.86 61.2651 1778.03 61.1735 1780.58C61.2753 1787.53 61.0921 1786.43 61.2142 1789.64C63.0969 1840.89 23.1329 1829.59 23.3466 1840.89C23.2957 1842.65 61.9165 1861.17 61.8757 1862.99C61.6315 1875.67 62.0284 1869.15 61.4178 1885.62C61.316 1888.5 61.5399 1894.98 61.2957 1899.42C61.2346 1904.45 61.2753 1904.62 61.1837 1907.17C61.2855 1914.11 61.2549 1913.01 61.2244 1916.23C61.143 1924.96 61.8859 1977.91 62.0487 1985.71C61.9877 1987.8 61.9266 1989.73 61.8859 1991.85C61.6417 2004.53 62.0386 1998.01 61.428 2014.48C61.3262 2017.36 61.143 2017.97 60.8988 2022.42C60.8377 2027.44 37.9807 2029.91 37.8892 2032.46C37.9909 2039.4 61.2651 2041.88 61.2346 2045.1C61.1532 2053.98 61.3771 2107.05 61.5196 2113.45L62.0793 2113.38C62.008 2115.77 61.9368 2117.91 61.8961 2120.29C61.6518 2132.97 62.0487 2126.46 61.4381 2142.92C61.3364 2145.8 61.5602 2152.29 61.316 2156.73C61.2549 2161.75 61.2957 2161.92 61.2041 2164.47C61.3058 2171.41 61.2753 2170.32 61.2448 2173.53C61.1735 2182.04 61.3669 2231.22 61.5094 2240.87C61.3771 2245.61 61.2448 2248.88 61.1735 2252.77C61.0514 2258.92 61.082 2260.56 61.082 2262.48H124.717C124.453 2250.71 124.534 2258.24 124.951 2239.34L124.88 2239.4ZM178.196 1218.02C178.247 1218.09 178.308 1218.15 178.369 1218.22C175.774 1223.06 173.169 1227.76 170.614 1232.17C169.088 1231.61 167.48 1231.21 165.801 1230.99C170.614 1227.46 174.817 1223.07 178.196 1218.02ZM36.9224 1268.57C31.2641 1259.42 26.593 1252.54 23.0209 1246.87C24.8629 1245.74 26.0943 1243.98 26.1961 1241.98C31.7526 1241.01 35.925 1236.96 35.925 1232.13C35.925 1226.57 30.4092 1222.06 23.601 1222.06C21.9015 1222.06 20.2834 1222.34 18.8078 1222.85C18.4923 1222.31 18.1259 1221.77 17.729 1221.27C24.0182 1217.54 29.4628 1212.42 33.6862 1206.31C40.7081 1218.95 53.6529 1239.15 60.6037 1259.35C64.1045 1269.54 65.9159 1315.44 36.9122 1268.58L36.9224 1268.57ZM83.369 1254.12C79.858 1247.18 65.1425 1227.85 59.5453 1216.08C65.7327 1215.36 71.3401 1212.63 75.7568 1208.52C79.9293 1210.81 84.6818 1212.12 89.7193 1212.12C90.7268 1212.12 91.714 1212.07 92.6909 1211.97L92.9148 1212.24C87.745 1238.87 87.8366 1262.99 83.3588 1254.12H83.369ZM110.5 1255.47C97.6165 1263.71 98.4408 1255.95 101.769 1233.62C102.176 1230.91 102.623 1228.48 103.102 1226.25C108.719 1231.76 115.538 1235.93 123.109 1238.28C119.354 1246.18 115.141 1252.5 110.5 1255.48V1255.47ZM123.384 1260.81C128.493 1254.68 133.805 1247.6 138.72 1240.38C140.837 1240.31 142.923 1240.12 144.959 1239.78C142.964 1242.69 141.814 1246.11 141.814 1249.78C141.814 1251.21 141.987 1252.62 142.323 1253.96C136.746 1254.17 132.289 1258.32 132.289 1263.42C132.289 1264.49 132.502 1265.52 132.869 1266.49C118.387 1270.86 110.714 1276 123.394 1260.8L123.384 1260.81Z" fill="url(#paint2_linear_693_5043)"/>
<path d="M1.60904 1249.09C1.51745 1248.93 1.43604 1248.76 1.34445 1248.61C0.245366 1249.25 0.967907 1249.25 1.60904 1249.09Z" fill="url(#paint3_linear_693_5043)"/>
<path d="M330.348 2258.57C330.389 2258.3 330.389 2258.04 330.348 2257.78C330.145 2241.42 329.687 2223.65 329.758 2219.88C329.778 2218.67 330.063 2218.2 329.839 2209.74C330.063 2204.63 330.104 2199.16 330.104 2199.16V2183.99C329.778 2168.81 329.85 2178.52 330.277 2158.48C330.338 2155.56 330.359 2153.89 330.348 2152.11C330.796 2136.19 329.656 2097.14 329.768 2091.34C329.789 2090.13 330.074 2089.66 329.85 2081.2C330.074 2076.09 330.114 2070.62 330.114 2070.62V2055.45C329.87 2043.88 329.85 2046.76 330.043 2039.91C330.572 2035.72 330.511 2022.38 330.318 2008.69C330.43 2008.27 330.44 2007.83 330.297 2007.41C330.074 1992.34 351.669 1978.85 351.73 1975.4C351.75 1974.2 330.074 1972.07 329.85 1963.62C330.074 1958.5 330.114 1953.03 330.114 1953.03V1937.86C329.789 1922.68 329.86 1932.4 330.287 1912.35C330.42 1906.33 330.348 1905.63 330.247 1898.24C331.295 1889.78 335.854 1853.72 337.91 1851.12C344.006 1843.42 349.593 1839.51 354.538 1836.29C355.668 1836.89 356.879 1837.37 358.151 1837.7C358.029 1820.33 357.907 1785.75 357.968 1778.73C357.999 1775.52 358.029 1776.61 357.927 1769.68C358.029 1767.13 357.978 1766.96 358.039 1761.93C358.284 1757.49 358.06 1751 358.161 1748.13C358.772 1731.65 358.375 1738.18 358.619 1725.5C358.67 1723.13 358.731 1720.98 358.803 1718.59L358.243 1718.66C358.1 1712.26 357.876 1659.17 357.958 1650.3C357.988 1647.09 358.019 1648.17 357.917 1641.24C358.019 1638.7 357.968 1638.52 358.029 1633.5C358.273 1629.06 358.049 1622.57 358.151 1619.69C358.762 1603.22 358.365 1609.74 358.609 1597.07C358.65 1594.94 358.711 1593.01 358.772 1590.92C358.711 1588.24 358.589 1580.21 358.456 1570.47C355.749 1559.98 346.886 1552.29 336.373 1552.29C334.765 1552.29 333.198 1552.46 331.681 1552.81C323.072 1547.38 296.785 1551.14 286.12 1551.14C256.18 1551.14 247.805 1568.75 244.375 1600.31C244.345 1600.63 244.304 1600.93 244.273 1601.25C244.192 1602.08 244.141 1602.91 244.09 1603.75C242.91 1603.82 241.75 1603.99 240.62 1604.24C232.011 1598.81 214.588 1616.87 203.923 1616.87C173.983 1616.87 156.743 1620.17 153.314 1651.72C153.283 1652.04 153.243 1652.35 153.212 1652.66C153.008 1654.84 152.897 1657.04 152.897 1659.28C152.897 1663.72 153.324 1668.05 154.118 1672.24C154.077 1672.6 154.046 1672.97 154.016 1673.33C142.13 1673.99 132.126 1682.37 128.167 1693.96C126.997 1697.4 126.345 1701.12 126.345 1705C126.345 1708.88 127.037 1712.87 128.299 1716.41C127.587 1719.15 127.2 1722.04 127.2 1725.02C127.2 1742.55 140.257 1756.75 156.367 1756.75C157.364 1756.75 158.351 1756.69 159.328 1756.59C166.635 1771.92 180.669 1782.85 197.176 1784.74C197.155 1784.99 197.125 1785.25 197.125 1785.52C197.125 1786.53 197.257 1787.51 197.511 1788.45C193.329 1788.58 189.991 1791.5 189.991 1795.07C189.991 1798.64 193.502 1801.7 197.827 1801.7C198.091 1801.7 198.356 1801.69 198.621 1801.67C200.788 1805.2 205.144 1807.61 210.171 1807.61C212.96 1807.61 215.534 1806.87 217.651 1805.6C227.35 1823.03 237.76 1849.63 249.382 1861.82C262.215 1875.28 268.687 1878.72 269.542 1893.77C269.247 1900.84 269.166 1906.22 268.972 1913.24C268.84 1918.35 268.708 1921.72 268.626 1925.78C268.392 1938.46 268.769 1931.94 268.179 1948.41C268.077 1951.28 268.301 1957.77 268.057 1962.21C267.995 1967.24 268.036 1967.4 267.945 1969.96C268.046 1976.9 268.006 1975.8 267.985 1979.01C267.924 1986.32 268.413 2024.58 268.667 2041.46C268.657 2042.08 268.637 2042.71 268.626 2043.35C268.392 2056.03 268.769 2049.52 268.179 2065.98C268.077 2068.86 268.301 2075.35 268.057 2079.79C267.995 2084.81 268.036 2084.98 267.945 2087.53C270.448 2109.58 257.778 2097.25 257.758 2100.47C257.686 2109.13 268.616 2157.44 268.779 2165.87C268.718 2167.91 268.667 2169.81 268.626 2171.89C268.392 2184.57 268.769 2178.05 268.179 2194.51C268.077 2197.39 268.301 2203.88 268.057 2208.32C267.995 2213.34 268.036 2213.51 267.945 2216.06C268.046 2223.01 268.006 2221.91 267.985 2225.12C267.945 2229.71 268.128 2246.48 268.321 2262.51H330.389C330.379 2261.21 330.359 2259.88 330.348 2258.55V2258.57ZM244.548 1825.59C238.91 1816.56 234.565 1809.56 231.115 1803.89C232.896 1802.77 234.087 1801 234.188 1799C239.562 1798.03 243.592 1793.98 243.592 1789.15C243.592 1783.59 238.259 1779.08 231.685 1779.08C230.046 1779.08 228.479 1779.36 227.054 1779.87C226.749 1779.33 226.393 1778.79 226.006 1778.29C232.082 1774.56 237.343 1769.44 241.434 1763.33C248.222 1775.97 263.752 1795.27 267.446 1816.37C273.237 1849.41 261.818 1853.26 244.548 1825.6V1825.59ZM283.993 1801.52C280.604 1794.58 271.822 1784.88 266.418 1773.1C272.392 1772.39 279.383 1778.59 283.657 1774.47C287.698 1776.77 290.71 1769.15 295.585 1769.15C296.582 1769.15 297.569 1769.09 298.546 1768.99C298.587 1769.08 298.638 1769.18 298.678 1769.27C293.682 1795.9 288.329 1810.4 283.993 1801.53V1801.52ZM315.663 1812.48C303.207 1820.72 304.011 1812.96 307.227 1790.63C307.614 1787.92 308.051 1785.49 308.519 1783.26C313.943 1788.77 320.538 1792.95 327.855 1795.29C324.222 1803.19 320.151 1809.51 315.673 1812.49L315.663 1812.48ZM328.12 1817.82C333.055 1811.7 338.195 1804.61 342.937 1797.4C344.982 1797.33 346.998 1797.13 348.972 1796.79C347.048 1799.7 345.929 1803.12 345.929 1806.79C345.929 1808.22 346.102 1809.63 346.428 1810.97C341.034 1811.18 336.729 1815.33 336.729 1820.43C336.729 1821.51 336.933 1822.53 337.289 1823.5C323.296 1827.87 315.877 1833.01 328.13 1817.81L328.12 1817.82Z" fill="url(#paint4_linear_693_5043)"/>
<path d="M421.654 1686.61C422.621 1687.43 422.611 1688.44 422.224 1689.36C422.377 1703.36 422.519 1702.65 422.356 1710.11C421.909 1730.16 421.848 1720.45 422.173 1735.63V1750.8C422.173 1750.8 422.143 1756.27 421.909 1761.38C422.143 1769.83 421.848 1770.31 421.827 1771.51C421.817 1772.28 421.797 1773.65 421.786 1775.47C427.109 1770.11 430.549 1762.56 430.874 1754.14C450.872 1749.48 465.872 1730.16 465.872 1707.02C465.872 1702.79 465.373 1698.69 464.427 1694.79C464.804 1692.25 465.017 1689.65 465.017 1686.99C465.017 1677.65 462.575 1668.95 458.352 1661.57C450.749 1648.27 437.347 1639.32 422 1638.84C421.99 1641.77 421.848 1642.25 421.827 1643.07C421.746 1647.2 421.715 1669.08 421.664 1686.61H421.654Z" fill="url(#paint5_linear_693_5043)"/>
<path d="M561.086 742.927C561.483 740.386 561.696 737.785 561.696 735.124C561.696 725.789 559.162 717.086 554.796 709.709C546.706 696.041 532.306 686.933 515.87 686.933C509.551 686.933 503.526 688.278 498.041 690.721C496.708 687.754 495.161 684.916 493.42 682.226C500.911 673.731 505.429 662.299 505.226 649.749C505.205 648.454 505.124 647.178 505.002 645.912C496.911 632.245 482.511 623.137 466.076 623.137C461.282 623.137 456.652 623.918 452.317 625.352C452.368 624.709 452.398 624.066 452.398 623.414C452.398 609.638 441.774 598.463 428.676 598.463C427.007 598.463 425.389 598.641 423.822 598.987C414.917 593.557 404.588 590.452 393.566 590.452C362.609 590.452 337.085 614.928 333.534 646.486C333.503 646.802 333.462 647.109 333.432 647.425C333.351 648.256 333.3 649.086 333.249 649.927C332.028 649.996 330.827 650.164 329.656 650.412C320.752 644.982 310.422 641.877 299.401 641.877C268.443 641.877 242.92 666.353 239.368 697.91C239.338 698.227 239.297 698.534 239.267 698.85C239.053 701.026 238.941 703.231 238.941 705.466C238.941 709.906 239.378 714.238 240.203 718.431C240.162 718.787 240.132 719.153 240.101 719.519C227.808 720.172 217.458 728.558 213.367 740.148C212.156 743.59 211.484 747.308 211.484 751.185C211.484 755.061 212.207 759.057 213.499 762.597C212.766 765.336 212.359 768.224 212.359 771.211C212.359 788.735 225.864 802.936 242.523 802.936C243.551 802.936 244.579 802.877 245.586 802.778C253.148 818.106 267.649 829.034 284.726 830.923C284.706 831.18 284.675 831.437 284.675 831.704C284.675 832.713 284.818 833.692 285.072 834.632C280.747 834.77 277.297 837.687 277.297 841.258C277.297 844.828 280.93 847.883 285.408 847.883C285.683 847.883 285.957 847.874 286.232 847.854C288.471 851.384 292.979 853.797 298.17 853.797C301.05 853.797 303.716 853.056 305.904 851.79C315.928 869.215 330.43 891.614 342.449 903.798C355.719 917.258 358.68 924.892 359.566 939.954C359.261 947.025 359.169 952.405 358.976 959.426C358.833 964.539 358.701 967.901 358.619 971.966C358.375 984.644 358.772 978.127 358.161 994.593C358.06 997.471 358.284 1003.96 358.039 1008.4C357.978 1013.42 358.019 1013.59 357.927 1016.14C358.029 1023.08 340.637 1021.79 340.607 1024.99C340.545 1032.3 358.406 1070.77 358.67 1087.64C358.65 1088.27 358.64 1088.9 358.63 1089.54C358.385 1102.22 358.782 1095.7 358.172 1112.17C358.07 1115.05 358.294 1121.53 358.049 1125.97C357.988 1131 358.029 1131.17 357.938 1133.72C358.039 1140.66 358.009 1139.56 357.978 1142.78C357.897 1151.44 358.63 1203.63 358.792 1212.06C358.731 1214.1 358.67 1216 358.63 1218.07C358.385 1230.75 358.782 1224.23 358.172 1240.7C358.07 1243.58 358.294 1250.07 358.049 1254.51C357.988 1259.53 340.718 1251.36 340.617 1253.91C340.718 1260.86 355.251 1281.75 355.231 1284.97C355.159 1292.66 358.477 1320.99 358.721 1336.22C358.691 1337.34 358.66 1338.46 358.64 1339.63C358.396 1352.31 358.792 1345.8 358.182 1362.26C358.08 1365.14 358.304 1371.63 358.06 1376.07C357.999 1381.09 358.039 1381.26 357.948 1383.81C358.049 1390.75 358.019 1389.66 357.988 1392.87C357.917 1401.19 342.255 1443.14 342.459 1454.44C342.408 1456.2 358.691 1464.4 358.65 1466.22C358.406 1478.9 358.803 1472.38 358.192 1488.85C358.09 1491.72 358.314 1498.21 358.07 1502.65C358.009 1507.68 358.049 1507.84 357.958 1510.39C358.06 1517.34 358.029 1516.24 357.999 1519.45C357.948 1525.18 358.243 1549.93 358.507 1568.5C359.067 1570.64 359.362 1572.92 359.362 1575.26C359.362 1575.91 359.332 1576.55 359.291 1577.2C363.494 1575.76 367.962 1574.98 372.602 1574.98C388.498 1574.98 402.43 1584.09 410.246 1597.76C410.358 1599.02 410.439 1600.3 410.46 1601.59C410.653 1614.14 406.287 1625.58 399.052 1634.07C400.731 1636.76 402.227 1639.6 403.519 1642.57C408.821 1640.13 414.642 1638.78 420.759 1638.78C421.196 1638.78 421.624 1638.81 422.051 1638.83C422.051 1637.47 422.041 1635.6 421.959 1632.92C422.193 1627.81 422.234 1622.34 422.234 1622.34V1607.17C421.898 1591.99 421.97 1601.7 422.407 1581.66C422.478 1578.6 435.606 1576.44 435.586 1574.56C436.054 1558.68 421.756 1520.01 421.868 1514.19C421.888 1512.99 422.183 1512.51 421.949 1504.06C422.183 1498.94 422.224 1493.47 422.224 1493.47V1478.3C421.888 1463.12 421.959 1472.83 422.397 1452.79C422.438 1450.91 422.458 1449.56 422.468 1448.35C422.926 1432.42 421.746 1393.4 421.868 1387.6C421.888 1386.39 422.183 1385.92 421.949 1377.46C422.183 1372.35 435.596 1364.81 435.596 1364.81L422.214 1351.71C421.909 1337.79 421.949 1344.78 422.295 1330.61C422.641 1325.78 422.621 1315.62 422.489 1304.71C422.529 1304.45 422.529 1304.19 422.489 1303.92C422.275 1287.57 421.807 1269.8 421.878 1266.03C421.898 1264.82 422.193 1264.35 421.959 1255.89C422.193 1250.78 422.234 1245.31 422.234 1245.31V1230.14C421.898 1214.96 436.075 1227.79 436.522 1207.75C436.583 1204.83 422.499 1200.04 422.489 1198.26C422.947 1182.33 421.776 1143.29 421.888 1137.48C421.909 1136.28 422.204 1135.8 421.97 1127.35C422.204 1122.24 422.244 1116.77 422.244 1116.77V1101.6C421.99 1090.03 421.97 1092.9 422.173 1086.06C422.713 1081.87 422.662 1068.53 422.458 1054.84C422.57 1054.41 422.58 1053.98 422.438 1053.55C422.204 1038.48 421.817 1023.34 421.888 1019.9C421.909 1018.69 422.204 1018.22 421.97 1009.76C422.204 1004.65 422.244 999.182 422.244 999.182V984.011C421.909 968.831 421.98 978.542 422.417 958.496C422.55 952.474 422.478 951.772 422.377 944.384C423.455 935.929 428.177 899.862 430.304 897.271C436.604 889.567 442.384 885.661 447.493 882.437C450.007 883.723 452.917 884.474 456.021 884.474C461.893 884.474 467.073 881.834 470.218 877.799C472.08 879.737 474.828 880.973 477.901 880.973C483.376 880.973 487.844 877.057 488.068 872.152C495.242 870.768 500.615 864.992 500.615 858.089C500.615 850.148 493.502 843.71 484.719 843.71C482.531 843.71 480.435 844.116 478.542 844.837C478.43 844.63 478.308 844.422 478.186 844.224C481.911 839.863 485.727 835.611 489.228 830.676C491.741 831.408 494.387 831.803 497.115 831.803C512.909 831.803 525.783 818.69 526.444 802.254C547.123 797.596 562.643 778.272 562.643 755.131C562.643 750.908 562.124 746.804 561.147 742.907L561.086 742.927ZM333.697 871.747C327.865 862.718 323.367 855.716 319.805 850.049C321.647 848.922 322.879 847.161 322.98 845.154C328.537 844.185 332.709 840.14 332.709 835.304C332.709 829.746 327.194 825.237 320.396 825.237C318.696 825.237 317.078 825.514 315.602 826.028C315.287 825.484 314.92 824.95 314.524 824.446C320.813 820.717 326.247 815.594 330.481 809.483C337.503 822.131 350.437 842.326 357.388 862.53C360.889 872.716 351.567 899.417 333.707 871.756L333.697 871.747ZM380.123 857.298C376.612 850.356 361.906 831.032 356.319 819.254C362.497 818.542 368.104 815.812 372.521 811.698C376.693 813.992 381.436 815.298 386.473 815.298C387.501 815.298 388.529 815.238 389.536 815.14C389.577 815.229 389.628 815.327 389.679 815.416C384.509 842.049 384.611 866.169 380.123 857.298ZM407.244 858.643C394.36 866.891 395.195 859.128 398.522 836.797C398.929 834.088 399.377 831.655 399.856 829.43C405.463 834.938 412.281 839.112 419.853 841.455C416.098 849.357 411.895 855.676 407.254 858.653L407.244 858.643ZM439.056 857.14C433.479 857.348 429.022 861.501 429.022 866.594C429.022 867.672 429.236 868.701 429.602 869.67C415.131 874.041 407.458 879.173 420.128 863.973C425.226 857.852 430.549 850.771 435.454 843.552C437.571 843.483 439.647 843.285 441.692 842.949C439.697 845.856 438.547 849.278 438.547 852.947C438.547 854.381 438.721 855.785 439.056 857.13V857.14ZM467.327 835.354C465.801 834.8 464.193 834.394 462.514 834.177C467.327 830.646 471.53 826.255 474.909 821.212C474.96 821.281 475.021 821.34 475.082 821.409C472.487 826.245 469.892 830.943 467.327 835.354V835.354Z" fill="url(#paint6_linear_693_5043)"/>
<path d="M402.501 1785.67C399.855 1785.67 397.301 1785.27 394.869 1784.54C391.48 1789.47 387.786 1793.73 384.193 1798.09C384.305 1798.3 384.427 1798.49 384.529 1798.7C386.371 1797.97 388.386 1797.57 390.503 1797.57C398.99 1797.57 405.87 1804.01 405.87 1811.95C405.87 1818.86 400.67 1824.62 393.729 1826.02C393.505 1830.92 389.19 1834.84 383.898 1834.84C380.937 1834.84 378.281 1833.61 376.469 1831.66C373.437 1835.7 368.419 1838.34 362.741 1838.34C361.133 1838.34 359.586 1838.12 358.11 1837.72C358.141 1841.45 358.161 1844.39 358.192 1846.09C358.06 1850.84 357.927 1854.1 357.856 1858C357.612 1870.68 358.009 1864.16 357.398 1880.62C357.296 1883.5 357.52 1889.99 357.276 1894.43C357.215 1899.45 357.256 1899.62 357.164 1902.17C357.266 1909.12 357.235 1908.02 357.205 1911.23C357.133 1918.83 357.663 1943.96 357.907 1955.07C357.734 1960.13 357.642 1964.61 357.49 1970.07C357.347 1975.19 357.215 1978.55 357.133 1982.61C356.889 1995.29 357.286 1988.78 356.675 2005.24C356.574 2008.12 356.798 2014.61 356.553 2019.05C356.492 2024.07 356.533 2024.24 356.441 2026.79C356.543 2033.73 356.513 2032.63 356.482 2035.85C356.411 2044.39 343.201 2102.66 343.324 2113.92C343.303 2114.5 356.452 2130.89 356.441 2131.48C356.299 2136.59 355.841 2141.66 355.76 2145.72C355.515 2158.4 355.587 2154.58 354.986 2171.06C354.884 2173.93 355.261 2178.29 354.986 2181.21C354.64 2183.7 354.803 2185.71 354.701 2188.25C354.803 2195.2 354.66 2192.74 354.64 2195.96C354.589 2201.49 353.969 2235.84 353.551 2262.52H418.886C419.242 2234.7 419.731 2195.49 419.812 2191.08C419.832 2189.88 420.128 2189.4 419.893 2180.95C420.128 2175.83 420.168 2170.36 420.168 2170.36L420.362 2154.89C420.036 2139.71 420.005 2146.94 420.351 2129.69C420.372 2128.84 420.382 2128.1 420.392 2127.42H420.463C420.575 2121.6 420.239 2037.29 420.372 2030.6C420.392 2029.39 420.687 2028.92 420.453 2020.46C420.687 2015.35 420.728 2009.88 420.728 2009.88V1994.71C420.392 1979.53 420.463 1989.24 420.901 1969.19C421.033 1963.36 430.182 1960.96 430.08 1954.2C430.162 1941.84 420.982 1911.74 421.094 1905.96C421.115 1904.75 421.41 1904.28 421.176 1895.82C421.41 1890.71 421.451 1885.24 421.451 1885.24V1870.07C421.115 1854.89 421.186 1864.6 421.624 1844.56C421.746 1839.15 421.705 1838.03 421.613 1832.51C421.624 1829.94 421.634 1826.84 421.644 1823.39C421.776 1822.95 421.797 1822.49 421.644 1822.05C421.685 1807.01 421.715 1786.51 421.776 1777.44C416.718 1782.53 409.941 1785.66 402.501 1785.66V1785.67Z" fill="url(#paint7_linear_693_5043)"/>
<path d="M369.101 1786.03C370.72 1786.25 372.277 1786.66 373.752 1787.21C376.225 1782.79 378.739 1778.1 381.253 1773.27C381.202 1773.2 381.141 1773.14 381.09 1773.07C377.823 1778.11 373.762 1782.5 369.112 1786.03H369.101Z" fill="url(#paint8_linear_693_5043)"/>
<path d="M403.458 1642.57C402.166 1639.6 400.67 1636.76 398.991 1634.07C406.226 1625.58 410.602 1614.14 410.399 1601.59C410.378 1600.3 410.297 1599.02 410.185 1597.76C402.369 1584.09 388.437 1574.98 372.541 1574.98C367.901 1574.98 363.433 1575.76 359.23 1577.2C359.271 1576.56 359.301 1575.91 359.301 1575.26C359.301 1572.92 358.996 1570.65 358.446 1568.5C358.579 1578.23 358.711 1586.26 358.762 1588.95C358.701 1591.03 358.64 1592.97 358.599 1595.09C358.355 1607.77 358.752 1601.25 358.141 1617.71C358.039 1620.59 358.263 1627.08 358.019 1631.52C357.958 1636.54 357.999 1636.71 357.907 1639.26C358.009 1646.21 357.978 1645.11 357.948 1648.32C357.866 1657.2 358.09 1710.28 358.233 1716.68L358.792 1716.61C358.721 1718.99 358.65 1721.14 358.609 1723.52C358.365 1736.2 358.762 1729.68 358.151 1746.15C358.049 1749.03 358.273 1755.51 358.029 1759.95C357.968 1764.98 358.009 1765.15 357.917 1767.7C358.019 1774.64 357.988 1773.54 357.958 1776.76C357.897 1783.77 358.019 1818.35 358.141 1835.73C359.606 1836.12 361.164 1836.34 362.771 1836.34C368.45 1836.34 373.457 1833.7 376.5 1829.66C378.301 1831.6 380.957 1832.84 383.929 1832.84C389.221 1832.84 393.546 1828.92 393.76 1824.02C400.69 1822.63 405.901 1816.86 405.901 1809.95C405.901 1802.01 399.021 1795.58 390.534 1795.58C388.417 1795.58 386.392 1795.98 384.56 1796.7C384.458 1796.5 384.336 1796.29 384.224 1796.09C387.827 1791.73 391.511 1787.48 394.899 1782.54C397.332 1783.27 399.886 1783.67 402.532 1783.67C409.971 1783.67 416.739 1780.54 421.807 1775.45C421.817 1773.62 421.837 1772.25 421.848 1771.5C421.868 1770.29 422.163 1769.81 421.929 1761.36C422.163 1756.25 422.204 1750.78 422.204 1750.78V1735.61C421.868 1720.43 421.939 1730.14 422.377 1710.09C422.54 1702.63 422.397 1703.34 422.244 1689.34C422.631 1688.43 422.651 1687.43 421.674 1686.59C421.715 1669.07 421.756 1647.19 421.837 1643.05C421.858 1642.23 422 1641.75 422.01 1638.82C421.583 1638.81 421.156 1638.77 420.718 1638.77C414.602 1638.77 408.781 1640.11 403.479 1642.56L403.458 1642.57ZM373.752 1787.21C372.277 1786.66 370.72 1786.25 369.101 1786.03C373.762 1782.5 377.823 1778.11 381.079 1773.07C381.13 1773.14 381.191 1773.2 381.242 1773.27C378.729 1778.1 376.215 1782.8 373.742 1787.21H373.752Z" fill="url(#paint9_linear_693_5043)"/>
<path d="M403.138 1644.33C401.858 1641.27 400.375 1638.35 398.711 1635.57C405.881 1626.82 410.218 1615.04 410.016 1602.11C409.996 1600.77 409.915 1599.46 409.804 1598.15C402.059 1584.07 388.254 1574.68 372.502 1574.68C367.903 1574.68 363.476 1575.49 359.311 1576.97C359.351 1576.31 359.382 1575.64 359.382 1574.97C359.382 1572.56 359.079 1570.22 358.535 1568C358.666 1578.03 358.797 1586.3 358.847 1589.07C358.787 1591.22 358.726 1593.22 358.686 1595.4C358.444 1608.47 358.837 1601.75 358.232 1618.72C358.131 1621.68 358.353 1628.37 358.111 1632.94C358.05 1638.12 358.091 1638.29 358 1640.92C358.101 1648.08 358.071 1646.95 358.04 1650.26C357.96 1659.41 358.182 1714.1 358.323 1720.69L358.877 1720.62C358.807 1723.08 358.736 1725.29 358.696 1727.75C358.454 1740.81 358.847 1734.1 358.242 1751.06C358.141 1754.03 358.363 1760.71 358.121 1765.29C358.061 1770.47 358.101 1770.64 358.01 1773.27C358.111 1780.42 358.081 1779.29 358.05 1782.6C357.99 1789.83 358.111 1825.46 358.232 1843.37C359.684 1843.78 361.227 1844 362.82 1844C368.448 1844 373.409 1841.28 376.424 1837.12C378.209 1839.12 380.841 1840.39 383.786 1840.39C389.03 1840.39 393.316 1836.36 393.528 1831.3C400.395 1829.88 405.559 1823.92 405.559 1816.81C405.559 1808.63 398.741 1801.99 390.331 1801.99C388.233 1801.99 386.227 1802.41 384.411 1803.16C384.311 1802.94 384.189 1802.73 384.079 1802.52C387.648 1798.03 391.299 1793.65 394.657 1788.56C397.067 1789.32 399.599 1789.73 402.221 1789.73C409.592 1789.73 416.299 1786.51 421.321 1781.26C421.331 1779.37 421.351 1777.96 421.361 1777.18C421.381 1775.94 421.674 1775.45 421.442 1766.74C421.674 1761.47 421.714 1755.83 421.714 1755.83V1740.2C421.381 1724.56 421.452 1734.56 421.885 1713.91C422.047 1706.21 421.906 1706.95 421.754 1692.53C422.138 1691.59 422.158 1690.55 421.19 1689.7C421.23 1671.64 421.27 1649.09 421.351 1644.83C421.371 1643.98 421.512 1643.48 421.522 1640.46C421.099 1640.45 420.675 1640.41 420.242 1640.41C414.181 1640.41 408.413 1641.8 403.159 1644.32L403.138 1644.33ZM373.702 1793.37C372.239 1792.8 370.696 1792.39 369.093 1792.16C373.712 1788.52 377.735 1784 380.962 1778.8C381.013 1778.87 381.073 1778.93 381.124 1779C378.633 1783.99 376.142 1788.83 373.692 1793.37H373.702Z" fill="url(#paint10_linear_693_5043)"/>
<path d="M116.207 2224.47C87.6546 2226.54 3.83128 2210 -15 2210V2264.77H542V2210H364.632C340.335 2210 144.747 2222.41 116.194 2224.47H116.207Z" fill="#B99672"/>
<path d="M91.941 2278.1C91.941 2278.1 85.8349 2271.71 89.1729 2258.29C92.5108 2244.88 93.7422 2246.42 93.7422 2246.42C93.7422 2246.42 101.873 2259.45 98.1386 2268.04C94.4037 2276.64 91.941 2278.1 91.941 2278.1V2278.1Z" fill="#999552"/>
<path d="M79.79 2273.71C79.79 2273.71 74.5795 2269.65 76.1162 2258.81C77.6529 2247.96 78.7214 2248.97 78.7214 2248.97C78.7214 2248.97 86.0181 2257.86 83.7996 2265.04C81.5811 2272.22 79.79 2273.71 79.79 2273.71Z" fill="#999552"/>
<path d="M56.5056 2259.79C56.5056 2259.79 57.8692 2250.97 66.7128 2249.53C75.5564 2248.1 75.1392 2249.96 75.1392 2249.96C75.1392 2249.96 70.7632 2263.38 64.5045 2262.61C58.2458 2261.85 56.5056 2259.78 56.5056 2259.78V2259.79Z" fill="#999552"/>
<path d="M59.9657 2276.92C59.9657 2276.92 46.8886 2274.68 43.3165 2250.93C39.7547 2227.18 42.5431 2228 42.5431 2228C42.5431 2228 62.8152 2237.64 62.7541 2254.75C62.693 2271.86 59.9657 2276.93 59.9657 2276.93V2276.92Z" fill="#999552"/>
<path d="M44.2731 2268.5C44.2731 2268.5 34.6663 2267.46 31.4911 2250.28C28.316 2233.1 30.3717 2233.57 30.3717 2233.57C30.3717 2233.57 45.4129 2239.7 45.7793 2252.2C46.1456 2264.7 44.2833 2268.52 44.2833 2268.52L44.2731 2268.5Z" fill="#999552"/>
<path d="M26.4028 2263.61C26.4028 2263.61 20.195 2261.47 19.5131 2249.72C18.8313 2237.99 20.1441 2238.6 20.1441 2238.6C20.1441 2238.6 29.4965 2244.89 28.7129 2253.14C27.9395 2261.39 26.4028 2263.6 26.4028 2263.6V2263.61Z" fill="#999552"/>
<path d="M-6 2260.11C-6 2260.11 -4.35136 2245.41 10.12 2241.92C24.5913 2238.43 24.0316 2241.56 24.0316 2241.56C24.0316 2241.56 17.7322 2264.21 7.37226 2263.75C-2.99785 2263.29 -6 2260.1 -6 2260.1V2260.11Z" fill="#999552"/>
<path d="M150.943 2241.4C150.943 2241.4 155.532 2228.77 169.332 2231.3C183.132 2233.84 181.971 2236.44 181.971 2236.44C181.971 2236.44 171.51 2254.41 162.249 2249.94C152.988 2245.47 150.953 2241.4 150.953 2241.4H150.943Z" fill="#999552"/>
<path d="M157.12 2239.3C157.12 2239.3 151.736 2235.94 152.561 2225.09C153.385 2214.26 154.494 2215.12 154.494 2215.12C154.494 2215.12 162.229 2222.98 160.509 2230.32C158.789 2237.64 157.12 2239.3 157.12 2239.3Z" fill="#999552"/>
<path d="M138.12 2246.82C138.12 2246.82 131.037 2236.93 137.224 2220.33C143.412 2203.72 144.796 2206.04 144.796 2206.04C144.796 2206.04 153.609 2225.07 147.564 2235.32C141.529 2245.57 138.11 2246.83 138.11 2246.83L138.12 2246.82Z" fill="#999552"/>
<path d="M99.173 2247.42C99.173 2247.42 96.8323 2232.95 109.37 2222.61C121.898 2212.28 122.203 2215.46 122.203 2215.46C122.203 2215.46 122.315 2239.6 112.555 2244.25C102.806 2248.9 99.173 2247.42 99.173 2247.42Z" fill="#999552"/>
<path d="M424.3 2245.15C424.3 2245.15 418.052 2238.19 421.858 2224.3C425.664 2210.41 426.916 2212.07 426.916 2212.07C426.916 2212.07 435.128 2226.04 431.027 2234.89C426.926 2243.73 424.31 2245.15 424.31 2245.15H424.3Z" fill="#999552"/>
<path d="M421.064 2243.01C421.064 2243.01 410.195 2243.29 405.229 2224.46C400.263 2205.62 402.624 2205.85 402.624 2205.85C402.624 2205.85 420.005 2210.47 421.43 2224.46C422.855 2238.44 421.064 2243.01 421.064 2243.01V2243.01Z" fill="#999552"/>
<path d="M387.572 2237.72C387.572 2237.72 384.489 2223.46 396.507 2211.91C408.526 2200.37 408.994 2203.53 408.994 2203.53C408.994 2203.53 410.348 2227.68 400.812 2233.27C391.277 2238.87 387.572 2237.72 387.572 2237.72Z" fill="#999552"/>
<path d="M371.33 2230.5C371.33 2230.5 378.189 2218.21 392.661 2224.84C407.132 2231.48 405.483 2233.96 405.483 2233.96C405.483 2233.96 391.49 2250.34 382.209 2242.9C372.928 2235.46 371.34 2230.5 371.34 2230.5H371.33Z" fill="#999552"/>
<path d="M364.817 2242.27C364.817 2242.27 370.74 2233.47 381.548 2239.98C392.355 2246.5 390.951 2248.25 390.951 2248.25C390.951 2248.25 379.319 2259.51 372.551 2252.87C365.784 2246.23 364.827 2242.26 364.827 2242.26L364.817 2242.27Z" fill="#999552"/>
<path d="M205.317 2247.8C205.317 2247.8 201.765 2241.32 206.294 2232.32C210.823 2223.32 211.504 2224.82 211.504 2224.82C211.504 2224.82 215.545 2236.8 211.454 2242.12C207.362 2247.44 205.307 2247.82 205.307 2247.82L205.317 2247.8Z" fill="#999552"/>
<path d="M485.723 2230.94C485.723 2230.94 480.007 2229.36 479.181 2218.4C478.354 2207.44 479.571 2207.94 479.571 2207.94C479.571 2207.94 488.239 2213.2 487.665 2220.99C487.09 2228.77 485.722 2230.96 485.722 2230.96L485.723 2230.94Z" fill="#999552"/>
<path d="M202.925 2240.09C202.925 2240.09 197.216 2239.57 195.242 2229.4C193.268 2219.23 194.489 2219.48 194.489 2219.48C194.489 2219.48 203.444 2222.97 203.729 2230.39C204.014 2237.8 202.925 2240.09 202.925 2240.09Z" fill="#999552"/>
<path d="M480.305 2227.37C480.305 2227.37 475.767 2232.26 469.506 2226.45C463.246 2220.64 464.281 2219.7 464.281 2219.7C464.281 2219.7 472.648 2214.02 476.347 2219.33C480.046 2224.63 480.305 2227.37 480.305 2227.37Z" fill="#999552"/>
<path d="M319.581 2243.43C319.581 2243.43 322.818 2227 339.589 2225.53C356.36 2224.05 355.434 2227.51 355.434 2227.51C355.434 2227.51 346.183 2252.18 334.439 2249.87C322.695 2247.57 319.581 2243.43 319.581 2243.43Z" fill="#999552"/>
<path d="M311.226 2229.61C311.226 2229.61 317.343 2221.19 327.855 2228.22C338.368 2235.23 336.933 2236.9 336.933 2236.9C336.933 2236.9 325.097 2247.46 318.574 2240.52C312.051 2233.59 311.216 2229.62 311.216 2229.62L311.226 2229.61Z" fill="#999552"/>
<path d="M308.448 2239.19C308.448 2239.19 303.4 2231.93 308.01 2219.98C312.62 2208.04 313.618 2209.73 313.618 2209.73C313.618 2209.73 319.846 2223.65 315.389 2230.98C310.931 2238.32 308.448 2239.18 308.448 2239.18V2239.19Z" fill="#999552"/>
<path d="M295.015 2239.64C295.015 2239.64 286.242 2228.62 292.745 2208.57C299.248 2188.51 300.999 2191.11 300.999 2191.11C300.999 2191.11 312.224 2212.73 305.599 2225.3C298.974 2237.87 295.015 2239.64 295.015 2239.64Z" fill="#999552"/>
<path d="M432.14 2246.74C432.14 2246.74 434.439 2228.45 451.995 2225.34C469.55 2222.23 468.815 2226.1 468.815 2226.1C468.815 2226.1 460.745 2253.94 448.218 2252.47C435.705 2251 432.132 2246.75 432.132 2246.75L432.14 2246.74Z" fill="#999552"/>
<path d="M288.817 2245.32C288.817 2245.32 284.838 2239.64 288.43 2230.25C292.023 2220.86 292.806 2222.19 292.806 2222.19C292.806 2222.19 297.722 2233.08 294.241 2238.86C290.761 2244.64 288.817 2245.32 288.817 2245.32V2245.32Z" fill="#999552"/>
<path d="M290.272 2271.45C290.272 2271.45 283.383 2263.88 287.484 2248.59C291.585 2233.32 292.969 2235.12 292.969 2235.12C292.969 2235.12 302.057 2250.39 297.6 2260.14C293.142 2269.88 290.272 2271.45 290.272 2271.45V2271.45Z" fill="#999552"/>
<rect x="364" y="1565" width="55" height="277" fill="#8F7C6E"/>
</g>
</g>
<defs>
<linearGradient id="paint0_linear_693_5043" x1="219.494" y1="2277" x2="219.494" y2="0" gradientUnits="userSpaceOnUse">
<stop offset="0.8" stop-color="#FBF5F7"/>
<stop offset="1" stop-color="#AE9FFA"/>
</linearGradient>
<linearGradient id="paint1_linear_693_5043" x1="211.507" y1="2273" x2="211.507" y2="0" gradientUnits="userSpaceOnUse">
<stop offset="0.73" stop-color="#FBF5F7"/>
<stop offset="1" stop-color="#87A2EA"/>
</linearGradient>
<linearGradient id="paint2_linear_693_5043" x1="-85.3919" y1="1624.89" x2="265.909" y2="1624.89" gradientUnits="userSpaceOnUse">
<stop stop-color="#948174"/>
<stop offset="1" stop-color="#877263"/>
</linearGradient>
<linearGradient id="paint3_linear_693_5043" x1="-85.3913" y1="1248.89" x2="265.907" y2="1248.89" gradientUnits="userSpaceOnUse">
<stop stop-color="#948174"/>
<stop offset="1" stop-color="#877263"/>
</linearGradient>
<linearGradient id="paint4_linear_693_5043" x1="126.335" y1="1906.21" x2="465.862" y2="1906.21" gradientUnits="userSpaceOnUse">
<stop stop-color="#948174"/>
<stop offset="1" stop-color="#877263"/>
</linearGradient>
<linearGradient id="paint5_linear_693_5043" x1="126.335" y1="1707.15" x2="465.862" y2="1707.15" gradientUnits="userSpaceOnUse">
<stop stop-color="#948174"/>
<stop offset="1" stop-color="#877263"/>
</linearGradient>
<linearGradient id="paint6_linear_693_5043" x1="938.958" y1="1412.21" x2="103.177" y2="915.661" gradientUnits="userSpaceOnUse">
<stop stop-color="#948174"/>
<stop offset="1" stop-color="#877263"/>
</linearGradient>
<linearGradient id="paint7_linear_693_5043" x1="531.186" y1="2100.53" x2="-304.585" y2="1603.96" gradientUnits="userSpaceOnUse">
<stop stop-color="#948174"/>
<stop offset="1" stop-color="#877263"/>
</linearGradient>
<linearGradient id="paint8_linear_693_5043" x1="634.308" y1="1924.99" x2="-201.467" y2="1428.43" gradientUnits="userSpaceOnUse">
<stop stop-color="#948174"/>
<stop offset="1" stop-color="#877263"/>
</linearGradient>
<linearGradient id="paint9_linear_693_5043" x1="126.335" y1="1702.43" x2="465.862" y2="1702.43" gradientUnits="userSpaceOnUse">
<stop stop-color="#948174"/>
<stop offset="1" stop-color="#877263"/>
</linearGradient>
<linearGradient id="paint10_linear_693_5043" x1="663.571" y1="1879.9" x2="-181.203" y2="1397.24" gradientUnits="userSpaceOnUse">
<stop stop-color="#948174"/>
<stop offset="1" stop-color="#877263"/>
</linearGradient>
<clipPath id="clip0_693_5043">
<rect width="484" height="2261" fill="white"/>
</clipPath>
<clipPath id="clip1_693_5043">
<rect width="1044" height="2927" fill="white" transform="translate(-254)"/>
</clipPath>
</defs>
</svg>
