<svg width="115" height="34" viewBox="0 0 115 34" fill="none" xmlns="http://www.w3.org/2000/svg">
<rect width="115" height="34" fill="white"/>
<rect width="34" height="34" rx="5" fill="#7D4D2B"/>
<path d="M9.363 16.931C9.363 16.315 9.484 15.7687 9.726 15.292C9.97533 14.8153 10.309 14.4487 10.727 14.192C11.1523 13.9353 11.6253 13.807 12.146 13.807C12.6007 13.807 12.9967 13.8987 13.334 14.082C13.6787 14.2653 13.9537 14.4963 14.159 14.775V13.906H15.71V20H14.159V19.109C13.961 19.395 13.686 19.6333 13.334 19.824C12.9893 20.0073 12.5897 20.099 12.135 20.099C11.6217 20.099 11.1523 19.967 10.727 19.703C10.309 19.439 9.97533 19.0687 9.726 18.592C9.484 18.108 9.363 17.5543 9.363 16.931ZM14.159 16.953C14.159 16.579 14.0857 16.26 13.939 15.996C13.7923 15.7247 13.5943 15.5193 13.345 15.38C13.0957 15.2333 12.828 15.16 12.542 15.16C12.256 15.16 11.992 15.2297 11.75 15.369C11.508 15.5083 11.31 15.7137 11.156 15.985C11.0093 16.249 10.936 16.5643 10.936 16.931C10.936 17.2977 11.0093 17.6203 11.156 17.899C11.31 18.1703 11.508 18.3793 11.75 18.526C11.9993 18.6727 12.2633 18.746 12.542 18.746C12.828 18.746 13.0957 18.6763 13.345 18.537C13.5943 18.3903 13.7923 18.185 13.939 17.921C14.0857 17.6497 14.159 17.327 14.159 16.953ZM21.9221 18.537H18.8641L18.3581 20H16.7411L19.5021 12.311H21.2951L24.0561 20H22.4281L21.9221 18.537ZM21.5041 17.305L20.3931 14.093L19.2821 17.305H21.5041Z" fill="white"/>
<rect x="39" width="34" height="34" rx="5" fill="white"/>
<path d="M44.561 17.257C44.561 16.305 44.748 15.4607 45.122 14.724C45.5073 13.9873 46.023 13.4207 46.669 13.024C47.3263 12.6273 48.0573 12.429 48.862 12.429C49.5647 12.429 50.1767 12.5707 50.698 12.854C51.2307 13.1373 51.6557 13.4943 51.973 13.925V12.582H54.37V22H51.973V20.623C51.667 21.065 51.242 21.4333 50.698 21.728C50.1653 22.0113 49.5477 22.153 48.845 22.153C48.0517 22.153 47.3263 21.949 46.669 21.541C46.023 21.133 45.5073 20.5607 45.122 19.824C44.748 19.076 44.561 18.2203 44.561 17.257ZM51.973 17.291C51.973 16.713 51.8597 16.22 51.633 15.812C51.4063 15.3927 51.1003 15.0753 50.715 14.86C50.3297 14.6333 49.916 14.52 49.474 14.52C49.032 14.52 48.624 14.6277 48.25 14.843C47.876 15.0583 47.57 15.3757 47.332 15.795C47.1053 16.203 46.992 16.6903 46.992 17.257C46.992 17.8237 47.1053 18.3223 47.332 18.753C47.57 19.1723 47.876 19.4953 48.25 19.722C48.6353 19.9487 49.0433 20.062 49.474 20.062C49.916 20.062 50.3297 19.9543 50.715 19.739C51.1003 19.5123 51.4063 19.195 51.633 18.787C51.8597 18.3677 51.973 17.869 51.973 17.291ZM63.9705 19.739H59.2445L58.4625 22H55.9635L60.2305 10.117H63.0015L67.2685 22H64.7525L63.9705 19.739ZM63.3245 17.835L61.6075 12.871L59.8905 17.835H63.3245Z" fill="#EB6A00"/>
<rect x="81" width="34" height="34" rx="5" fill="white"/>
<path d="M84.693 18.141C84.693 16.965 84.924 15.922 85.386 15.012C85.862 14.102 86.499 13.402 87.297 12.912C88.109 12.422 89.012 12.177 90.006 12.177C90.874 12.177 91.63 12.352 92.274 12.702C92.932 13.052 93.457 13.493 93.849 14.025V12.366H96.81V24H93.849V22.299C93.471 22.845 92.946 23.3 92.274 23.664C91.616 24.014 90.853 24.189 89.985 24.189C89.005 24.189 88.109 23.937 87.297 23.433C86.499 22.929 85.862 22.222 85.386 21.312C84.924 20.388 84.693 19.331 84.693 18.141ZM93.849 18.183C93.849 17.469 93.709 16.86 93.429 16.356C93.149 15.838 92.771 15.446 92.295 15.18C91.819 14.9 91.308 14.76 90.762 14.76C90.216 14.76 89.712 14.893 89.25 15.159C88.788 15.425 88.41 15.817 88.116 16.335C87.836 16.839 87.696 17.441 87.696 18.141C87.696 18.841 87.836 19.457 88.116 19.989C88.41 20.507 88.788 20.906 89.25 21.186C89.726 21.466 90.23 21.606 90.762 21.606C91.308 21.606 91.819 21.473 92.295 21.207C92.771 20.927 93.149 20.535 93.429 20.031C93.709 19.513 93.849 18.897 93.849 18.183ZM108.669 21.207H102.831L101.865 24H98.7784L104.049 9.321H107.472L112.743 24H109.635L108.669 21.207ZM107.871 18.855L105.75 12.723L103.629 18.855H107.871Z" fill="#EB6A00"/>
</svg>
