<svg width="500" height="340" viewBox="0 0 500 340" fill="none" xmlns="http://www.w3.org/2000/svg">
<g clip-path="url(#clip0_121_807)">
<path d="M364.367 67.8377C364.367 67.8377 305.195 59.6014 256.331 0.0608592V0.0405728L256.27 0V0.0608592C207.407 59.6014 148.235 67.8377 148.235 67.8377C149.838 209.721 253.977 244.268 256.27 245.019H256.331C258.624 244.268 362.764 209.741 364.367 67.8377Z" fill="url(#paint0_linear_121_807)"/>
<path d="M257.143 33.3711C288.697 64.0644 321.469 78.3461 341.66 84.7363C338.149 129.427 322.768 165.821 295.799 193.106C280.438 208.646 264.894 217.288 256.311 221.304C247.727 217.288 232.183 208.646 216.822 193.106C189.854 165.821 174.472 129.427 170.962 84.7363C191.092 78.3663 223.701 64.1659 255.154 33.6754L256.006 34.7506L257.143 33.3711ZM256.331 0V0.0405728L256.27 0V0.0608592C207.407 59.6014 148.235 67.8377 148.235 67.8377C149.838 209.721 253.977 244.268 256.27 245.019H256.331C258.624 244.268 362.764 209.741 364.367 67.8377C364.367 67.8377 305.174 59.6014 256.331 0.0608592V0V0Z" fill="#E96B24"/>
<path d="M285.126 135.716C288.596 139.611 311.587 150.89 320.272 129.204C339.793 131.598 342.188 94.494 334.801 90.599C347.382 86.2577 348.032 38.7673 308.989 40.0656C308.989 40.0656 292.289 9.6969 263.21 31.8294C248.681 16.6551 216.355 26.4129 207.894 50.9189C195.739 46.1516 165.158 73.2542 177.516 93.642C166.883 97.111 173.62 136.811 199.209 127.906C199.209 127.906 211.14 147.421 233.482 134.418C255.824 121.414 285.106 135.716 285.106 135.716H285.126Z" fill="#386C37"/>
<path d="M333.908 121.881C337.764 115.572 339.123 106.524 338.515 99.7076C334.72 99.1396 331.534 97.9021 329.627 95.9749C317.938 105.875 298.864 105.347 285.836 98.1862C283.157 99.6062 280.337 100.823 277.394 101.838C287.561 117.073 313.778 126.039 333.908 121.881Z" fill="#458744"/>
<path d="M273.133 84.8174C238.799 87.9618 235.613 57.6945 235.613 57.6945C224.087 52.136 218.364 44.6504 216.335 37.1647C212.683 40.9785 209.74 45.6038 207.894 50.8986C195.739 46.1313 165.158 73.2339 177.516 93.6217C176.826 93.8449 176.218 94.2303 175.67 94.7375C184.03 102.02 202.963 113.076 230.702 98.3484C241.782 106.95 261.059 107.498 277.374 101.817C280.296 100.803 283.137 99.5656 285.816 98.1659C279.951 94.9403 275.304 90.3759 273.113 84.7971L273.133 84.8174Z" fill="#458744"/>
<path d="M235.613 57.6945C235.613 57.6945 238.799 87.9618 273.133 84.8174C275.325 90.3962 279.972 94.9606 285.836 98.1861C298.864 105.368 317.938 105.875 329.627 95.9749C331.514 97.9021 334.7 99.1396 338.515 99.7076C338.109 95.1838 336.83 91.6539 334.821 90.599C347.403 86.2577 348.052 38.7673 309.01 40.0656C309.01 40.0656 292.309 9.6969 263.23 31.8294C251.847 19.9415 229.545 23.3496 216.335 37.1647C218.385 44.6504 224.087 52.136 235.613 57.6945Z" fill="#57A855"/>
<path d="M220.962 197.366C229.748 187.284 264.083 146.691 209.903 114.415C194.765 101.655 211.851 112.143 211.851 112.143C211.851 112.143 226.055 121.475 233.969 124.498C241.883 127.52 226.806 108.228 220.292 104.982C213.778 101.736 216.985 101.391 220.191 102.71C223.884 104.231 232.041 111.737 236.891 117.235C246.55 128.19 243.283 108.39 249.148 98.7947C255.012 89.1993 251.542 98.7947 248.924 106.605C246.307 114.415 253.145 126.993 257.285 126.121C261.424 125.248 267.918 117.438 266.396 108.126C264.874 98.815 262.054 88.2864 267.918 102.264C273.782 116.261 265.422 117.884 265.747 122.226C266.071 126.567 274.959 119.629 278.551 114.415C282.143 109.202 289.509 104.11 289.834 104.982C290.158 105.854 285.166 108.999 282.467 112.894C279.769 116.789 279.099 115.166 277.577 128.393C276.055 141.619 297.545 118.533 301.441 112.671C305.337 106.808 304.911 112.245 300.69 116.789C296.469 121.333 277.313 139.246 278.348 162.981C279.383 186.716 290.057 198.766 290.057 198.766C290.057 198.766 263.149 221.751 256.331 222.035C243.04 216.72 220.962 197.366 220.962 197.366Z" fill="#7E4D2C"/>
<path d="M256.412 126.405C252.273 125.857 246.327 114.253 248.782 106.869C251.38 99.0585 254.85 89.463 249.006 99.0585C243.141 108.654 246.408 128.453 236.749 117.499C231.899 112.001 223.742 104.495 220.049 102.974C216.842 101.655 213.657 102 220.15 105.246C226.644 108.492 241.741 127.804 233.827 124.761C225.913 121.718 211.688 112.407 211.688 112.407C211.688 112.407 194.602 101.919 209.74 114.679C263.92 146.975 229.748 187.284 220.962 197.366C220.962 197.366 246.936 220.189 256.331 222.035C256.351 222.035 256.392 222.035 256.412 222.035V126.405Z" fill="#633E23"/>
<path d="M35.694 304.377C35.4911 312.126 35.3084 319.876 35.1055 327.625C35.1055 327.869 35.0446 328.092 35.1055 328.315C35.5519 330.445 34.3141 331.622 32.6298 332.413C30.1948 333.569 27.3336 333.691 24.8173 332.737C22.3011 331.784 21.0227 330.323 21.1039 327.869C21.3271 319.653 20.7589 311.437 20.8604 303.221C20.9618 295.35 21.1242 290.197 21.2662 282.346C21.2662 282.001 21.2662 281.636 21.2865 281.291C21.3271 280.723 21.1039 280.419 20.4748 280.419C20.0487 280.419 19.6225 280.419 19.2167 280.419C14.1639 280.419 9.11118 280.419 4.03813 280.5C2.78001 280.52 2.00891 280.033 1.35956 279.121C-0.34499 276.706 -0.568205 270.438 1.68423 268.45C2.59738 267.638 4.34251 267.395 5.27595 267.395C18.6485 267.395 32.0008 267.395 45.3734 267.395C46.5097 267.395 49.2086 267.334 50.3652 267.395C55.276 267.395 55.4992 274.759 53.5511 278.167C52.8409 279.425 51.8263 280.135 50.2232 280.115C46.3068 280.054 42.5122 280.175 38.4943 280.277C38.0885 280.236 37.6623 280.338 37.2362 280.358C36.6477 280.378 36.3839 280.703 36.3636 281.251C36.323 282.184 36.2419 283.117 36.2216 284.05C36.0592 291.739 35.9172 296.709 35.7751 304.397H35.7549L35.694 304.377Z" fill="#633E23"/>
<path d="M64.5089 279.547C64.5089 279.202 64.448 278.877 64.4886 278.552C64.5495 277.741 64.1436 277.477 63.2711 277.518C61.9115 277.558 60.5519 277.579 59.1923 277.518C57.1834 277.437 56.1688 276.605 56.1688 274.82C56.1688 272.71 55.5195 270.479 56.3514 268.43C56.8993 267.07 57.7922 266.442 59.4764 266.32C66.8628 265.813 74.2289 266.239 81.5949 266.32C82.5893 266.32 83.5836 266.421 84.5373 266.665C85.9984 267.05 86.5057 267.618 86.4042 268.977C86.2216 271.249 86.5868 273.116 86.2824 275.388C86.0592 277.092 85.5113 277.437 83.543 277.295C82.4269 277.214 81.392 277.599 80.276 277.558C78.8758 277.498 78.7743 277.558 78.7337 278.816C78.612 281.879 77.9221 310.321 77.7597 321.012C77.8206 322.27 78.0438 322.777 80.4789 322.635C81.4123 322.594 82.3458 322.533 83.2589 322.554C85.2475 322.615 86.2824 323.446 86.3433 325.211C86.4042 327.26 86.3433 328.822 86.2622 330.891C86.2216 331.622 85.5925 332.575 84.0097 332.575C83.3198 332.575 59.1923 332.575 58.8068 332.575C55.9659 332.677 54.6875 332.677 54.3831 330.06C54.241 328.842 54.1802 327.605 54.1802 326.388C54.1802 324.359 54.586 322.797 56.8182 322.797C58.7053 322.797 60.5519 322.838 62.2159 322.757C63.7175 322.675 64.0016 322.412 64.0219 321.032C64.1436 313.932 64.3263 286.606 64.5292 279.526L64.5089 279.547Z" fill="#633E23"/>
<path d="M122.89 293.422C123.519 293.199 123.62 292.672 123.884 292.246C128.856 284.131 133.868 275.631 138.799 267.517C139.265 266.746 139.793 266.36 140.848 266.381C143.628 266.441 147.301 266.34 150.101 266.381C151.684 266.381 151.907 266.563 151.928 267.943C152.009 271.432 152.009 275.307 152.029 278.816C152.07 295.471 152.09 311.802 152.11 328.457C152.11 330.891 152.11 330.831 149.29 330.851C145.84 330.912 141.761 330.851 138.494 330.851C135.613 330.77 137.358 330.344 136.343 323.811C135.126 316.001 135.41 308.029 136.993 300.279C137.256 298.94 137.216 298.575 137.216 297.622C136.404 297.703 136.384 298.311 136.161 298.677C133.827 302.734 131.27 306.71 128.774 310.706C127.942 312.045 126.907 312.329 124.614 311.924C122.95 311.619 121.246 311.66 119.602 311.984C117.593 312.39 116.721 311.721 115.99 310.605C114.225 307.846 112.419 305.107 110.633 302.348C109.639 300.807 108.644 299.265 107.65 297.743C107.001 297.906 107.204 298.311 107.204 298.595C107.204 308.475 107.123 316.366 107.447 326.246C107.488 327.463 107.346 328.68 107.325 329.897C107.325 330.668 106.899 331.013 106.067 331.033C105.824 331.033 105.56 331.033 105.317 331.033C101.461 330.952 96.3474 330.912 92.4919 330.81C90.4829 330.749 90.3409 330.628 90.4018 328.842C90.4018 318.152 90.625 279.547 90.9091 270.742C91.0308 267.212 91.457 266.482 95.4342 266.381C97.7678 266.32 102.435 266.421 104.769 266.381C105.864 266.381 106.433 266.746 106.96 267.598C111.932 275.712 116.924 284.172 121.936 292.266C122.2 292.692 122.362 293.199 122.91 293.443L122.89 293.422Z" fill="#633E23"/>
<path d="M194.785 294.295C195.191 294.802 195.657 294.822 196.043 294.964C203.389 297.885 207.062 303.282 207.569 310.524C208.421 322.452 198.478 334.259 186.14 336.795C182.752 337.484 179.322 337.748 175.893 336.998C174.026 336.592 172.24 335.943 170.678 334.888C169.927 334.381 169.196 334.178 168.283 334.259C167.127 334.36 165.95 334.32 164.773 334.178C163.251 333.995 162.175 333.305 161.465 332.007C160.613 330.465 160.045 328.822 159.598 327.138C158.401 322.696 157.955 318.152 157.731 313.587C157.325 304.803 157.772 295.979 159.01 287.276C159.862 281.271 160.897 275.286 162.236 269.363C162.5 268.247 163.007 267.598 164.225 267.233C173.133 264.433 181.98 264.311 190.767 267.537C194.501 268.916 197.687 271.047 200.142 274.049C203.45 278.106 203.774 282.488 201.562 287.053C200.507 289.223 198.884 291.029 196.936 292.591C196.246 293.159 195.515 293.686 194.765 294.254L194.785 294.295ZM171.084 308.576H171.185C171.388 310.869 171.53 313.161 171.814 315.453C172.098 317.746 172.605 319.998 172.869 322.27C173.011 323.406 173.884 324.298 175 324.542C180.235 325.658 184.72 324.339 188.555 321.073C191.721 318.375 193.364 314.946 192.999 310.909C192.573 306.385 190.016 303.14 185.511 301.476C180.783 299.711 176.258 300.401 172.058 303.038C171.408 303.444 171.002 304.215 171.063 304.986C171.124 306.183 171.063 307.379 171.063 308.597L171.084 308.576ZM171.429 290.724C171.388 291.292 171.368 291.881 171.327 292.449C171.226 293.95 171.266 294.051 172.93 293.808C177.821 293.078 182.224 291.292 186.019 288.249C187.196 287.316 188.19 286.221 189.042 285.004C192.654 279.871 190.726 275.023 184.416 273.4C181.331 272.609 178.226 272.811 175.101 273.319C173.985 273.501 173.559 273.968 173.377 274.962C172.382 280.175 171.753 285.43 171.429 290.724Z" fill="#633E23"/>
<path d="M210.775 298.19C210.856 290.907 211.384 282.975 213.088 275.124C213.373 273.826 213.758 272.548 214.144 271.27C215.321 267.476 218.141 265.427 222.687 265.265C226.705 265.143 230.722 265.265 234.72 265.265C238.149 265.285 241.558 265.549 244.947 265.955C246.307 266.117 247.078 266.726 247.463 267.841C248.397 270.539 248.397 273.298 248.174 276.057C248.093 277.051 247.484 277.477 246.307 277.457C245.252 277.457 244.217 277.274 243.162 277.193C239.022 276.848 234.882 276.808 230.783 277.64C229.079 277.984 229.079 278.005 228.815 279.526C228.166 283.157 227.658 286.809 227.394 290.481C227.232 292.692 227.009 292.712 229.018 292.652C231.392 292.57 233.766 292.53 236.12 292.692C239.042 292.895 239.59 293.443 240.016 295.918C240.3 297.662 239.955 299.366 239.813 301.091C239.692 302.348 238.819 303.464 236.587 303.606C233.888 303.768 231.209 303.971 228.511 304.154C226.542 304.296 226.786 304.276 226.786 306.446C226.786 309.996 227.009 313.547 227.537 317.036C227.76 318.557 227.78 318.638 229.2 318.963C231.067 319.369 232.995 319.511 234.903 319.369C237.114 319.206 239.326 319.085 241.558 319.206C245.089 319.389 245.921 320.099 246.287 323.142C246.469 324.643 246.347 326.144 246.084 327.625C245.718 329.573 244.846 330.283 242.634 330.648C240.3 331.033 237.926 331.094 235.552 331.216C230.296 331.48 225.02 331.622 219.805 330.709C219.156 330.587 218.527 330.425 217.898 330.283C216.518 329.958 215.686 329.208 215.158 328.031C213.454 324.177 212.601 320.16 211.993 316.103C211.12 310.382 210.836 304.621 210.795 298.19H210.775Z" fill="#633E23"/>
<path d="M278.693 311.072C278.977 311.903 279.85 312.329 280.195 313.06C282.082 316.975 284.639 320.505 288.149 323.061C293.709 327.118 295.353 329.248 292.086 331.683C289.144 333.873 285.755 334.442 282.062 333.387C281.27 333.163 280.763 332.656 280.276 332.088C278.693 330.242 277.09 328.437 275.548 326.57C273.072 323.588 270.617 320.606 268.141 317.624C267.817 317.218 267.553 316.732 266.964 316.508C266.538 317.097 266.66 317.685 266.66 318.233C266.579 321.539 266.538 324.846 266.477 328.153C266.457 329.187 266.477 330.263 265.868 331.196C264.976 332.535 263.575 333.224 261.911 333.468C258.746 333.914 255.885 333.103 253.206 331.683C252.435 331.277 252.131 330.607 251.928 329.836C251.197 326.936 251.096 323.974 251.055 321.012C250.974 315.271 250.893 309.53 250.954 303.789C251.055 293.686 252.049 283.644 253.612 273.623C254.018 270.986 255.296 269.383 258.239 268.531C266.437 266.157 274.513 265.853 282.488 269.099C293.425 273.542 298.478 283.726 294.907 293.99C292.512 300.888 287.541 306 280.804 309.834C280.093 310.24 279.302 310.504 278.713 311.072H278.693ZM266.985 303.586C267.654 303.708 267.979 303.505 268.324 303.342C272.524 301.456 275.974 298.798 278.551 295.289C280.012 293.28 281.108 291.11 281.473 288.716C282.123 284.415 280.946 280.743 276.684 278.268C274.229 276.828 271.429 276.382 268.527 276.422C267.674 276.422 267.37 276.767 267.411 277.477C267.451 278.37 267.289 279.263 267.532 280.155C268.628 284.152 269.257 288.331 268.04 292.307C266.822 296.283 266.985 299.792 266.985 303.586Z" fill="#633E23"/>
<path d="M359.253 304.377C359.05 312.126 358.868 319.876 358.665 327.625C358.665 327.869 358.604 328.092 358.665 328.315C359.111 330.445 357.873 331.622 356.189 332.413C353.754 333.569 350.893 333.691 348.377 332.737C345.86 331.784 344.582 330.323 344.643 327.869C344.866 319.653 344.298 311.437 344.399 303.221C344.501 295.35 344.663 290.197 344.805 282.346C344.805 282.001 344.805 281.636 344.825 281.291C344.866 280.723 344.643 280.419 344.014 280.419C343.588 280.419 343.162 280.419 342.756 280.419C337.703 280.419 332.65 280.419 327.577 280.5C326.319 280.52 325.548 280.033 324.899 279.121C323.194 276.706 322.971 270.438 325.223 268.45C326.136 267.638 327.881 267.395 328.815 267.395C342.187 267.395 355.54 267.395 368.912 267.395C370.049 267.395 372.748 267.334 373.904 267.395C378.815 267.395 379.038 274.759 377.09 278.167C376.38 279.425 375.365 280.135 373.762 280.115C369.846 280.054 366.051 280.175 362.033 280.277C361.607 280.236 361.201 280.338 360.775 280.358C360.187 280.378 359.923 280.703 359.903 281.251C359.862 282.184 359.781 283.117 359.761 284.05C359.598 291.739 359.456 296.709 359.314 304.397H359.294L359.253 304.377Z" fill="#633E23"/>
<path d="M418.993 303.809C418.811 310.848 418.08 319.166 414.935 327.159C414.164 329.167 413.149 331.054 411.83 332.819C411.364 333.427 410.836 333.955 410.085 334.279C407.346 335.476 404.525 335.72 401.644 334.807C399.919 334.259 399.736 333.772 400.386 332.23C403.348 325.272 404.972 318.03 405.804 310.646C405.966 309.246 405.925 309.185 404.322 309.327C399.168 309.794 393.993 310.321 388.839 310.788C387.642 310.889 387.48 311.477 387.48 312.37C387.541 319.45 388.454 326.408 390.868 333.163C391.68 335.415 390.909 337.545 388.657 338.783C385.714 340.406 382.65 340.325 379.586 339.006C378.734 338.641 378.348 337.951 377.942 337.241C375.528 333.001 374.229 328.457 373.681 323.771C371.774 307.785 374.655 292.489 382.528 278.005C384.152 275.023 386.14 272.223 388.515 269.667C392.127 265.772 396.733 264.636 402.11 265.813C405.296 266.502 407.833 268.125 409.963 270.357C412.764 273.298 414.59 276.686 415.787 280.358C418.161 287.58 418.933 294.984 418.993 303.809ZM398.904 275.002C397.991 275.652 397.646 276.382 397.2 277.051C392.045 284.72 389.55 293.159 388.251 301.943C388.007 303.505 388.149 303.566 389.935 303.464C394.846 303.119 399.756 302.795 404.667 302.43C406.128 302.328 406.149 302.328 406.128 300.908C406.027 294.68 405.032 288.574 402.821 282.65C401.847 280.033 400.67 277.477 398.924 275.023L398.904 275.002Z" fill="#633E23"/>
<path d="M460.694 329.735C460.593 330.546 459.984 331.013 459.274 331.297C458.523 331.601 457.731 331.703 456.92 331.703C454.586 331.703 434.578 331.703 427.049 331.804C425.568 331.804 424.351 330.689 424.229 329.208C424.107 327.422 424.168 325.921 424.168 324.116C424.148 315.758 424.127 307.4 424.087 299.042H424.026C424.026 294.072 424.087 289.101 424.067 284.131C424.046 279.161 423.924 274.292 423.864 269.383C423.864 268.206 424.513 267.05 425.609 266.604C427.699 265.772 429.89 265.853 432.082 265.995C433.442 266.076 434.963 266.279 436.242 266.847C437.5 267.415 438.941 268.409 438.941 269.971C438.941 278.451 438.697 311.335 438.758 319.572C438.758 319.916 438.778 320.241 438.799 320.586C438.799 321.073 439.083 321.255 439.57 321.255C440.341 321.255 452.557 321.215 458.076 321.215C459.395 321.215 460.105 321.742 460.43 322.98C461.019 325.191 460.937 327.463 460.653 329.715L460.694 329.735Z" fill="#633E23"/>
<path d="M462.459 298.19C462.541 290.907 463.068 282.975 464.773 275.124C465.057 273.826 465.442 272.548 465.828 271.27C467.005 267.476 469.825 265.427 474.371 265.265C478.389 265.143 482.407 265.265 486.404 265.265C489.834 265.285 493.243 265.549 496.631 265.955C497.991 266.117 498.762 266.726 499.148 267.841C500.081 270.539 500.081 273.298 499.858 276.057C499.777 277.051 499.168 277.477 497.991 277.457C496.936 277.457 495.901 277.274 494.846 277.193C490.706 276.848 486.567 276.808 482.467 277.64C480.763 277.984 480.763 278.005 480.499 279.526C479.85 283.157 479.343 286.809 479.079 290.481C478.916 292.692 478.693 292.712 480.702 292.652C483.076 292.57 485.45 292.53 487.804 292.692C490.726 292.895 491.274 293.443 491.7 295.918C491.985 297.662 491.64 299.366 491.498 301.091C491.376 302.348 490.503 303.464 488.271 303.606C485.572 303.768 482.894 303.971 480.195 304.154C478.226 304.296 478.47 304.276 478.47 306.446C478.47 309.996 478.693 313.547 479.221 317.036C479.444 318.557 479.464 318.638 480.885 318.963C482.752 319.369 484.679 319.511 486.587 319.369C488.799 319.206 491.011 319.085 493.243 319.206C496.774 319.389 497.605 320.099 497.971 323.142C498.153 324.643 498.032 326.144 497.768 327.625C497.403 329.573 496.53 330.283 494.318 330.648C491.985 331.033 489.61 331.094 487.236 331.216C481.98 331.48 476.705 331.622 471.489 330.709C470.84 330.587 470.211 330.425 469.582 330.283C468.202 329.958 467.37 329.208 466.843 328.031C465.138 324.177 464.286 320.16 463.677 316.103C462.804 310.382 462.52 304.621 462.48 298.19H462.459Z" fill="#633E23"/>
</g>
<defs>
<linearGradient id="paint0_linear_121_807" x1="256.311" y1="62.0561" x2="256.311" y2="312.289" gradientUnits="userSpaceOnUse">
<stop offset="0.33" stop-color="white"/>
<stop offset="0.78" stop-color="#4C8FB5"/>
</linearGradient>
<clipPath id="clip0_121_807">
<rect width="500" height="340" fill="white"/>
</clipPath>
</defs>
</svg>
