<svg width="170" height="154" viewBox="0 0 170 154" fill="none" xmlns="http://www.w3.org/2000/svg">
<path fill-rule="evenodd" clip-rule="evenodd" d="M74.1644 115.771C73.7101 116.425 73.6268 117.312 73.9264 118.308C74.226 119.304 74.8933 120.359 75.8351 121.325C76.7769 122.292 77.9459 123.121 79.1787 123.698C80.4114 124.274 81.6461 124.569 82.71 124.541L140.912 123.051C142.048 123.022 142.927 122.627 143.41 121.929C143.893 121.231 143.954 120.27 143.582 119.197L124.508 64.1883C124.16 63.1824 123.45 62.1302 122.477 61.179C121.503 60.2278 120.316 59.4252 119.08 58.8835C117.844 58.3417 116.621 58.088 115.584 58.1578C114.546 58.2277 113.745 58.6175 113.293 59.2728L104.619 71.7966C75.1721 50.8825 63.1286 37.7998 58.3769 29.3539C53.8589 21.3252 55.3091 16.566 56.8379 11.5873L57.2294 10.3026C57.5028 9.37863 57.2476 8.20317 56.5118 6.9973C55.7761 5.79144 54.6105 4.63829 53.2343 3.75485C51.8582 2.8714 50.3663 2.31853 49.0395 2.20026C47.7126 2.08199 46.6422 2.40648 46.0296 3.11265C39.1122 11.0843 31.8747 24.5654 35.3476 42.4406C38.7189 59.7904 52.0433 80.564 82.9074 103.147L74.1644 115.771Z" fill="#FFF8EC"/>
</svg>
