<?xml version="1.0" encoding="UTF-8"?><svg id="Layer_1" xmlns="http://www.w3.org/2000/svg" xmlns:xlink="http://www.w3.org/1999/xlink" viewBox="0 0 484 2261"><defs><style>.cls-1{fill:url(#linear-gradient);}.cls-2{fill:#66a566;}.cls-3{fill:#eee;}.cls-4{fill:#fbf4f6;}.cls-5{fill:#cc9c73;}.cls-6{fill:#72523e;}.cls-7{fill:#458144;}.cls-8{fill:#386a38;}.cls-9{fill:#80be80;}.cls-10{fill:#82b880;}.cls-11{fill:url(#linear-gradient-3);}.cls-12{fill:url(#linear-gradient-2);}</style><linearGradient id="linear-gradient" x1="243.03" y1="-1.38" x2="243.03" y2="2287.1" gradientTransform="translate(0 2262) scale(1 -1)" gradientUnits="userSpaceOnUse"><stop offset=".08" stop-color="#fcf5f7"/><stop offset=".58" stop-color="#82a1f0"/></linearGradient><linearGradient id="linear-gradient-2" x1="806.93" y1="1728.63" x2="301.24" y2="2020.59" gradientTransform="matrix(1, 0, 0, 1, 0, 0)" gradientUnits="userSpaceOnUse"><stop offset="0" stop-color="#988172"/><stop offset="1" stop-color="#8b7161"/></linearGradient><linearGradient id="linear-gradient-3" x1=".68" y1="2184.33" x2="303.91" y2="2184.33" gradientTransform="matrix(1, 0, 0, 1, 0, 0)" gradientUnits="userSpaceOnUse"><stop offset="0" stop-color="#988172"/><stop offset="1" stop-color="#8b7161"/></linearGradient></defs><g id="Layer_2"><rect id="Sumatran_Background" class="cls-1" x=".61" y="-25.1" width="484.83" height="2288.48"/><path class="cls-12" d="M251.5,1815.9c0,23.8,17.8,43.1,39.8,43.1,1.4,0,2.7-.1,4-.2,10,20.8,29.1,35.6,51.6,38.2,0,.4-.1,.7-.1,1.1,0,1.4,.2,2.7,.5,4-5.7,.2-10.3,4.1-10.3,9s4.8,9,10.7,9h1.1c3,4.8,8.9,8.1,15.8,8.1,3.8,0,7.3-1,10.2-2.7,13.2,23.7,32.4,54.1,48.2,70.6,17.5,18.3,21.4,28.6,22.6,49.1-.4,9.6-.5,16.9-.8,26.4-.2,6.9-.4,11.5-.5,17-.3,17.2,.2,8.4-.6,30.7-.1,3.9,.2,12.7-.2,18.7-.1,6.8,0,7.1-.2,10.5,.1,9.4-22.8,7.7-22.9,12-.1,9.9,23.5,62.2,23.8,85.1,0,.8,0,1.7-.1,2.6-.23,13.09,0,11.13-.22,19.28h43.64v-697.11c-39.63,1.47-71.82,34.11-76.41,76.03,0,.4-.1,.8-.1,1.3-.1,1.1-.2,2.3-.2,3.4-1.6,.1-3.2,.3-4.7,.7-11.7-7.4-25.4-11.6-39.9-11.6-40.9,0-74.5,33.2-79.2,76.1,0,.4-.1,.8-.1,1.3-.3,3-.4,6-.4,9,0,6,.6,11.9,1.7,17.6,0,.5-.1,1-.1,1.5-16.2,.9-29.9,12.3-35.3,28-1.6,4.7-2.5,9.7-2.5,15s.9,10.7,2.7,15.5c-1,3.7-1.5,7.6-1.5,11.7Zm211.1,54.7c5.5,3.1,11.8,4.9,18.4,4.9,1.4,0,2.7-.1,4-.2,.1,.1,.1,.2,.2,.4-6.8,36.2-6.7,68.9-12.6,56.9-4.6-9.4-24-35.7-31.4-51.7,8.2-1,15.6-4.7,21.4-10.3Zm-55.4-2.9c9.3,17.2,26.3,44.6,35.5,72,4.5,13.8-7.8,50.1-31.3,12.5-7.7-12.3-13.6-21.8-18.3-29.5,2.4-1.5,4.1-3.9,4.2-6.6,7.3-1.3,12.8-6.8,12.8-13.4,0-7.6-7.3-13.7-16.3-13.7-2.2,0-4.4,.4-6.3,1.1-.4-.7-.9-1.5-1.4-2.1,8.3-5.1,15.5-12,21.1-20.3Z"/><g id="Stage_9_Sumatran_Stump"><g id="Top_Stump_Old_Growth"><path class="cls-5" d="M290.3,2200.1c-8.4,2.9-15.1,3.8-23.7,4.6-3.8,0-24.4-2.5-28.8-5.5-5.8-4-12.6-11-12.6-12.5-.1-2.1,5.4-1.3,7.8-1.7,10.3-1.8,15.9-2.3,23.4-2.9,12.7-1.1,12.1-1.7,26.4,0,1.9,.2,18.3,2.7,20.3,3.4,6,2.2,1.9,7,.7,8.2-4,5.3-7,3.3-11.8,5.6"/><path class="cls-6" d="M270.1,2181c-3.6,0-6.6,.4-13.6,1.1-3.7,.3-6.9,.6-10.5,1-2.7,.7-5.4,1.7-8,2.8l-2.3,1c11.5,3.5,23.2,5.2,34.9,5.3h3.4c4.2-.3,8.8,.5,12.6-4-6.1-1.8-12.2-2.8-18.4-2.9-2.3,0-4.6,.2-6.8,.6h-.5l6.8,1.5-6.1-1.5h3.6c6.5-.1,13.1,.8,19.5,2.7-3.3,2.7-7.2,2-10.8,2.3h-1.9c-3.4,0-6.8-.2-10.1-.5-7.1-.6-14.3-1.9-21.4-3.8,4.8-1.6,9.6-2.8,14.5-3.3,4.5-.5,9-.7,13.6-.7,9.8,0,19.5,1.1,29.2,3.3,.4,.2,3.4,1.2,2.3,2.1-12.2,3.6-28.2,9.6-43,9.6-10.5,0-20.5-3-28.2-12.1,8.1,9.8,18.5,13.1,29.4,13.1,14.6,0,30-5.7,42.1-9.3,.1-.1,.3-.2,.4-.3,.1-.2,.2-.4,.3-.6,.1-.2,.1-.5,.1-.8v-.8c-.2-.6-.5-1.2-.9-1.5s-.8-.6-1.2-.7c-5.6-1-14.8-2.4-16.2-2.7-6.5-.6-9.9-.9-12.8-.9Z"/></g></g><g id="Stage_10_Sumatran_Stump"><g><path class="cls-6" d="M303.91,2259.87c1.5-12.1,1.39-109.47,1.49-118.87,0-1.7,.4-2.3,.1-14.1,.3-7.1,.4-14.8,.4-14.8v-21.1c-.4-21.2-.3-7.6,.2-35.6,.2-10.9,0-9.3-.2-31.6-5.5,6.6-8.3,7.6-15,10.5-13.7,5.8-24.8,7.2-38.6,2.9-8.5-2.7-21-4-27.3-14.8-.7,13.7-.8,22.2-1.1,34.2-.2,7.1-.4,11.8-.5,17.5-.3,17.7,.2,8.6-.6,31.6-.1,4,.2,13.1-.2,19.3-.1,7,0,7.2-.2,10.8,.1,9.7,.1,8.2,.1,12.6-.1,12.4,.9,88.4,1.1,97.4"/><g id="Top_Stump_Old_Growth-2"><path class="cls-5" d="M290.3,2036.1c-8.4,2.9-15.1,3.8-23.7,4.6-3.8,0-24.4-2.5-28.8-5.5-5.8-4-12.6-11-12.6-12.5-.1-2.1,5.4-1.3,7.8-1.7,10.3-1.8,15.9-2.3,23.4-2.9,12.7-1.1,12.1-1.7,26.4,0,1.9,.2,18.3,2.7,20.3,3.4,6,2.2,1.9,7,.7,8.2-4,5.3-7,3.3-11.8,5.6"/><path class="cls-6" d="M270.1,2017.1c-3.6,0-6.6,.4-13.6,1.1-3.7,.3-6.9,.6-10.5,1-2.7,.7-5.4,1.7-8,2.8l-2.3,1c11.5,3.5,23.2,5.2,34.9,5.3h3.4c4.2-.3,8.8,.5,12.6-4-6.1-1.8-12.2-2.8-18.4-2.9-2.3,0-4.6,.2-6.8,.6h-.5l6.8,1.5-6.1-1.5h3.6c6.5-.1,13.1,.8,19.5,2.7-3.3,2.7-7.2,2-10.8,2.3h-1.9c-3.4,0-6.8-.2-10.1-.5-7.1-.6-14.3-1.9-21.4-3.8,4.8-1.6,9.6-2.8,14.5-3.3,4.5-.5,9-.7,13.6-.7,9.8,0,19.5,1.1,29.2,3.3,.4,.2,3.4,1.2,2.3,2.1-12.2,3.6-28.2,9.6-43,9.6-10.5,0-20.5-3-28.2-12.1,8.1,9.8,18.5,13.1,29.4,13.1,14.6,0,30-5.7,42.1-9.3,.1-.1,.3-.2,.4-.3l.3-.6c.1-.2,.1-.5,.1-.8v-.8c-.2-.6-.5-1.2-.9-1.5s-.8-.6-1.2-.7c-5.6-1-14.8-2.4-16.2-2.7-6.5-.6-9.9-.9-12.8-.9Z"/></g></g></g><g><path class="cls-4" d="M-137.6,1681s308.8-6.2,334.4,0,52.6,1.4,55.4-4.8c2.8-6.2,36.7,6.9,31.8-11.1-4.8-18-24.2-36.7-59.5-31.8s-47.1-8.3-62.3-18-36-102.5-103.2-73.4-54,72-49.8,74.1,0,6.9-20.1,9.7c-20.1,2.8-42.2,15.9-29.8,20.8,12.5,4.8-10.4,16.6-29.8,17.3-19.4,.7-31.8,7.6-24.2,7.6,7.6-.1-42.9,9.6-42.9,9.6Z"/><path class="cls-3" d="M-72,1680.4s213.8-4.3,231.5,0,36.4,1,38.3-3.4c1.9-4.3,25.4,4.8,22-7.7s-16.8-25.4-41.2-22-32.6-5.8-43.1-12.5-19.3-84.3-58.4-52c-48.9,40.5-68.3,22.2-47.6,52.5,1.8,2.7,0,4.8-13.9,6.7s-29.2,11-20.6,14.4-7.2,11.5-20.6,12c-13.4,.5-22,5.3-16.8,5.3s-29.6,6.7-29.6,6.7Z"/></g><g id="Congrats_Sumatran_Stump"><path class="cls-6" d="M305.8,2089.3s7.5-64.1,10.6-68.2c19.2-25.2,34.7-21.2,43.8-44.3,9.2-23,24.3-34.1,35.7-53.6,9.1-15.5,15.7-19.9,35.1-51.7,19.4-31.8,46.8-97.2,41.9-95.8s-44.7,72.4-46.3,77.8,1.6-29.8,1.6-48.1-70.1,168.5-97.5,173.3-48,22.3-27.5-4.1,43.7-65.7,45.3-83.9c1.6-18.3,14-52.8,30.7-76.5s20.5-43.3,19.4-54.8-72.2-17.6-63.6,.7c8.6,18.3-4.3,86-11.9,117.1-7.5,31.1-19.9,78.5-36.6,90s-15.6,.7-11.3-30.5,12.4-35.9,19.4-70.4,9.2-54.1,5.9-93.4c-3.2-39.3-18.3-63.6-19.4-52.1s-3.8,127.2-14,169.9c-10.2,42.6-9.1,88.8-15.8,74.6-5.5-11.8-32.6-49.1-33.7-62s9-45.8,11.7-64.1c2.7-18.3,9.2-102.9,8.6-108.3s-8.1-2.7-8.1-2.7c0,0-8.6,145.5-22.6,159.7s-13.5,11.5-12.9-20.3c.5-31.8-.5-87.3-1.1-108.3s-11.9-25-13.5-8.1-3.8,122.5,2.7,138.1,28.5,49.4,39.3,83.2c4.5,14.2-7.5,51.4-30.7,12.9s-30.2-50.8-35.6-63.6c-5.4-12.9-20.8-11-28.4-38-7.5-27.1-26.6-87.2-29.3-109.5l-28-14.2s31.8,122.5,38.3,134.7,25.6,19.3,36.6,42.6c11.1,23.4,37.2,70.4,57.7,92.7,20.5,22.3,22,33.2,22.6,63.6,.7,33.8,.5,61.6,.5,61.6l62.5-4.1,17.9-61.9Z"/><path class="cls-10" d="M349.7,1973.7c-14.4-11-27.9-.5-41.3,7.7-7.3,4.5-18.9,13.3-27.9,12-9.4-1.4-14.9-13.9-18.7-20.9-9-16.4-31.7-22.6-49.7-23.9-15.6-1.2-29.3-1.7-39.6-16.9-4.8-7.1-16.5-.4-11.6,6.8,9.6,14.1,26,18.2,42.2,18.9,10.6,.5,21.6-.3,31.9,3.2,9.5,3.2,16.6,10.6,20.5,19.7,3.4,7.8,6.4,14.8,14.6,18.6,7.1,3.3,15.6,3.1,23,.9,14.7-4.5,34.2-26.4,50-14.4,6.7,5.1,13.4-6.6,6.6-11.7Z"/><g><path class="cls-7" d="M301.3,1805.7c0-37.1-26.6-67.2-59.4-67.2-8.2,0-16,1.9-23.1,5.3-12.6-30-39.6-50.8-70.9-50.8-43.3,0-78.4,39.7-78.4,88.7,0,6.7,.7,13.3,1.9,19.5-20.9,.9-37.5,20.4-37.5,44.2s17.5,44.2,39.1,44.2c1.3,0,2.7-.1,4-.2,10.8,23.5,32.5,39.6,57.6,39.6,22,0,41.3-12.3,53.1-31.2,7,9.1,17.3,14.8,28.7,14.8,20.5,0,37.2-18.3,38-41.2,26.8-6.5,46.9-33.4,46.9-65.7Z"/><g><path class="cls-2" d="M291.2,1742.3c.2,1.8,.3,3.5,.3,5.4,.5,31.7-19.1,58.3-45.4,64.7-.8,22.2-17,39.9-36.8,39.9-11.1,0-21-5.6-27.8-14.3-11.4,18.2-30.1,30.2-51.4,30.2-24.3,0-45.3-15.6-55.7-38.4-1.3,.1-2.5,.2-3.8,.2-16.3,0-30.2-11.6-35.5-27.9-1.6,4.8-2.4,10-2.4,15.4,0,24.4,17.5,44.2,39.1,44.2,1.3,0,2.7-.1,4-.2,10.8,23.5,32.5,39.6,57.6,39.6,22,0,41.3-12.3,53.1-31.2,7,9.1,17.3,14.8,28.7,14.8,20.5,0,37.2-18.3,38-41.2,26.8-6.5,46.9-33.4,46.9-65.7,0-13-3.2-25.2-8.9-35.5Z"/><path class="cls-2" d="M68.8,1743.1c0,.4-.1,.9-.1,1.3h.4c-.2-.4-.3-.8-.3-1.3Z"/><path class="cls-9" d="M70.5,1830c1.3,0,2.6-.1,3.8-.2,10.5,22.8,31.5,38.4,55.7,38.4,21.2,0,40-11.9,51.4-30.2,6.8,8.8,16.7,14.3,27.8,14.3,19.8,0,36-17.7,36.8-39.9,26.3-6.4,45.9-33,45.4-64.7,0-1.8-.1-3.6-.3-5.4-10.5-19.1-29.2-31.8-50.5-31.8-8.2,0-16,1.9-23.1,5.3-12.6-30-39.6-50.8-70.9-50.8-40.2,0-73.3,34.1-77.9,78.1,.1,.4,.2,.9,.2,1.3h-.4c-.3,3-.4,6.1-.4,9.2,0,6.7,.7,13.3,1.9,19.5-16,.9-29.6,12.6-35,28.9,5.4,16.3,19.3,28,35.5,28Z"/></g><ellipse class="cls-9" cx="192.2" cy="1711" rx="30.8" ry="34.8"/></g><g><g><path class="cls-2" d="M190.9,1671.4c0,.4-.1,.9-.1,1.3h.4c-.1-.4-.2-.8-.3-1.3Z"/><path class="cls-9" d="M192.7,1758.3c1.3,0,2.6-.1,3.8-.2,10.5,22.8,31.5,38.4,55.7,38.4,21.2,0,40-11.9,51.4-30.2,6.8,8.8,16.7,14.3,27.8,14.3,19.8,0,36-17.7,36.8-39.9,26.3-6.4,45.9-33,45.4-64.7,0-1.8-.1-3.6-.3-5.4-10.5-19.1-29.2-31.8-50.5-31.8-8.2,0-16,1.9-23.1,5.3-12.6-30-39.6-50.8-70.9-50.8-40.2,0-73.3,34.1-77.9,78.1,.1,.4,.2,.9,.2,1.3h-.4c-.3,3-.4,6.1-.4,9.2,0,6.7,.7,13.3,1.9,19.5-16.1,.7-29.7,12.5-35.1,28.8,5.4,16.4,19.3,28.1,35.6,28.1Z"/></g><ellipse class="cls-9" cx="314.3" cy="1639.3" rx="30.8" ry="34.8"/></g><g><path class="cls-7" d="M488,1823c0-37.1-26.6-67.2-59.4-67.2-8.2,0-16,1.9-23.1,5.3-12.6-30-39.6-50.8-70.9-50.8-43.3,0-78.4,39.7-78.4,88.7,0,6.7,.7,13.3,1.9,19.5-20.9,.9-37.5,20.4-37.5,44.2s17.5,44.2,39.1,44.2c1.3,0,2.7-.1,4-.2,10.8,23.5,32.5,39.6,57.6,39.6,22,0,41.3-12.3,53.1-31.2,7,9.1,17.3,14.8,28.7,14.8,20.5,0,37.2-18.3,38-41.2,26.8-6.5,46.9-33.5,46.9-65.7Z"/><path class="cls-7" d="M407.6,1966.5c0-11.1-9.2-20.1-20.6-20.1-2.8,0-5.6,.6-8,1.6-4.4-9-13.7-15.2-24.6-15.2-15,0-27.2,11.8-27.2,26.5,0,2,.2,4,.7,5.8-7.2,.3-13,6.1-13,13.2s6.1,13.2,13.6,13.2c.5,0,.9,0,1.4-.1,3.7,7,11.3,11.8,20,11.8,7.6,0,14.3-3.7,18.4-9.3,2.4,2.7,6,4.4,10,4.4,7.1,0,12.9-5.5,13.2-12.3,9.1-1.8,16.1-9.8,16.1-19.5Z"/><path class="cls-7" d="M189.9,1934.7c0-7.8-7.2-14-16-14-2.2,0-4.3,.4-6.2,1.1-3.4-6.3-10.6-10.6-19.1-10.6-11.6,0-21.1,8.3-21.1,18.5,0,1.4,.2,2.8,.5,4.1-5.6,.2-10.1,4.3-10.1,9.2s4.7,9.2,10.5,9.2h1.1c2.9,4.9,8.7,8.3,15.5,8.3,5.9,0,11.1-2.6,14.3-6.5,1.9,1.9,4.6,3.1,7.7,3.1,5.5,0,10-3.8,10.2-8.6,7.3-1.4,12.7-7,12.7-13.8Z"/><g><path class="cls-10" d="M477.9,1759.6c.2,1.8,.3,3.5,.3,5.4,.5,31.7-19.1,58.3-45.4,64.7-.8,22.2-17,39.9-36.8,39.9-11.1,0-21-5.6-27.8-14.3-11.4,18.2-30.1,30.2-51.4,30.2-24.3,0-45.3-15.6-55.7-38.4-1.3,.1-2.5,.2-3.8,.2-16.3,0-30.2-11.6-35.5-27.9-1.6,4.8-2.4,10-2.4,15.4,0,24.4,17.5,44.2,39.1,44.2,1.3,0,2.7-.1,4-.2,10.8,23.5,32.5,39.6,57.6,39.6,22,0,41.3-12.3,53.1-31.2,7,9.1,17.3,14.8,28.7,14.8,20.5,0,37.2-18.3,38-41.2,26.8-6.5,46.9-33.4,46.9-65.7,.1-13.1-3.2-25.2-8.9-35.5Z"/><path class="cls-2" d="M255.5,1760.4c0,.4-.1,.9-.1,1.3h.4c-.1-.4-.2-.9-.3-1.3Z"/><path class="cls-9" d="M257.3,1847.2c1.3,0,2.6-.1,3.8-.2,10.5,22.8,31.5,38.4,55.7,38.4,21.2,0,40-11.9,51.4-30.2,6.8,8.8,16.7,14.3,27.8,14.3,19.8,0,36-17.7,36.8-39.9,26.3-6.4,45.9-33,45.4-64.7,0-1.8-.1-3.6-.3-5.4-10.5-19.1-29.2-31.8-50.5-31.8-8.2,0-16,1.9-23.1,5.3-12.6-30-39.6-50.8-70.9-50.8-40.2,0-73.3,34.1-77.9,78.1,.1,.4,.2,.9,.2,1.3h-.4c-.3,3-.4,6.1-.4,9.2,0,6.7,.7,13.3,1.9,19.5-16.1,.7-29.7,12.5-35.1,28.8,5.4,16.5,19.3,28.1,35.6,28.1Z"/></g></g></g><g><path class="cls-4" d="M312.9,1731.9s250.9-14,271.8-8.9c20.9,5.1,43,1.1,45.2-4,2.3-5.1,30,5.7,26-9s-19.8-30-48.6-26-38.4-6.8-50.9-14.7c-12.4-7.9-29.4-83.7-84.2-59.9-54.8,23.7-44.1,58.8-40.7,60.5s0,5.7-16.4,7.9c-16.4,2.3-34.5,13-24.3,17s-8.5,13.6-24.3,14.1c-15.8,.6-26,6.2-19.8,6.2s-33.8,16.8-33.8,16.8Z"/><path class="cls-3" d="M365.8,1725.3s174.5-3.5,189,0,29.7,.8,31.3-2.7,20.7,3.9,18-6.3c-2.7-10.2-13.7-20.7-33.7-18s-26.6-4.7-35.2-10.2c-8.6-5.5-15.8-68.8-47.6-42.4-39.9,33.1-55.8,18.1-38.8,42.8,1.5,2.2,0,3.9-11.3,5.5s-23.9,9-16.8,11.7c7,2.7-5.9,9.4-16.8,9.8s-18,4.3-13.7,4.3-24.4,5.5-24.4,5.5Z"/></g><g><path class="cls-8" d="M256.6,1932.8s-9.2,1-14.3-10.3c-5.2-11.3-3.2-11.3-3.2-11.3,0,0,14.9,1.6,16.9,10.1s.6,11.5,.6,11.5Z"/><path class="cls-8" d="M236,1929.6s-5.7-2-5.7-10.2,1.2-7.7,1.2-7.7c0,0,8.5,5.1,7.3,10.8-1.2,5.7-2.8,7.1-2.8,7.1Z"/><path class="cls-8" d="M217.4,1927.5s-6.9-7.7,0-19.9,8.2-10.4,8.2-10.4c0,0,8.4,14.6,1.9,22-6.6,7.5-10.1,8.3-10.1,8.3Z"/><path class="cls-8" d="M209.9,1911.4s-4.4-4-1.2-11.3,4.1-6.4,4.1-6.4c0,0,5.6,7.8,2.3,12.4-3.2,4.6-5.2,5.3-5.2,5.3Z"/><path class="cls-8" d="M187.9,1899.3s2.3-6.9,12.1-6.9,9.2,1.5,9.2,1.5c0,0-6.1,10.2-12.8,8.7s-8.5-3.3-8.5-3.3Z"/><path class="cls-8" d="M195.4,1908.1s-11.4,.8-17.4-13.5-3.5-14.2-3.5-14.2c0,0,18.5,2.6,20.5,13.3s.4,14.4,.4,14.4Z"/></g><g><path class="cls-8" d="M297.6,1945.7s-2.4-8.3,7.2-14.9,9.9-4.8,9.9-4.8c0,0,.9,14-6.7,17.2-7.5,3.2-10.4,2.5-10.4,2.5Z"/><path class="cls-8" d="M282.5,1959.1s-5.9-12.2,7.1-25.1,14.1-10.1,14.1-10.1c0,0,5.3,21.5-5.6,28.4-10.9,7-15.6,6.8-15.6,6.8Z"/><path class="cls-8" d="M272.3,1957.1s-5.4-8.7,3.4-19.3c8.8-10.6,9.8-8.6,9.8-8.6,0,0,5.6,15.7-2,21.7-7.6,6-11.2,6.2-11.2,6.2Z"/><path class="cls-8" d="M244.7,1941.8s8.4-10.8,25.9-4.8c17.5,6,15.4,8.2,15.4,8.2,0,0-17.1,14.4-28.3,7.7-11.2-6.7-13-11.1-13-11.1Z"/></g><path class="cls-11" d="M14.6,2190.2c-4.4-2.76-9.06-5.08-13.92-6.89v76.57H303.91c-11.01-12.39-26.46-20.07-43.61-20.07-8.3,0-16.3,1.8-23.5,5.1-1.8-4-3.8-7.9-6.1-11.5,9.9-11.5,15.8-27.1,15.6-44.1,0-1.8-.1-3.5-.3-5.2-10.7-18.6-29.7-30.9-51.4-30.9-6.3,0-12.4,1.1-18.2,3,.1-.9,.1-1.7,.1-2.6,0-18.7-14-33.9-31.3-33.9-2.2,0-4.3,.2-6.4,.7-11.8-7.4-25.4-11.6-39.9-11.6-40.9,0-75-.3-79.7,42.5,0,.4,.3,34.4,.3,34.8-.1,1.1-.2,2.3-.2,3.4-1.6,.1-3.2,.3-4.7,.7Z"/></g></svg>