<?xml version="1.0" encoding="utf-8"?>
<!-- Generator: Adobe Illustrator 26.3.1, SVG Export Plug-In . SVG Version: 6.00 Build 0)  -->
<svg version="1.1" xmlns="http://www.w3.org/2000/svg" xmlns:xlink="http://www.w3.org/1999/xlink" x="0px" y="0px"
	 viewBox="0 0 484 2261" style="enable-background:new 0 0 484 2261;" xml:space="preserve">
<style type="text/css">
	.st0{clip-path:url(#SVGID_00000165951303562436705000000004879156450032520348_);}
	.st1{clip-path:url(#SVGID_00000122719326022097142880000001841006193567818393_);}
	.st2{fill:url(#SVGID_00000045600020540738655270000013290896407485840778_);}
	.st3{fill:#98B393;}
	.st4{fill:#C0CCAD;}
	.st5{fill:#C7D5C4;}
	.st6{fill:#DFE7DD;}
	.st7{fill:#BFB3AB;}
	.st8{fill:#AC9C94;}
	.st9{fill:#674836;}
	.st10{fill:#6A8F25;}
	.st11{fill:#6D5341;}
	.st12{fill:#C19F87;}
	.st13{fill:#84A749;}
	.st14{fill:#E0A54F;}
	.st15{fill:#715847;}
	.st16{fill:#FBF5F7;}
	.st17{fill:#EFEFEF;}
	.st18{fill:#AFD079;}
	.st19{fill:#A5CA68;}
	.st20{fill:#AACD70;}
	.st21{fill:#9AC355;}
	.st22{display:none;}
	.st23{display:inline;fill:url(#Sumatran_Background_00000104696266538462486060000008700573710543028385_);}
	.st24{display:inline;}
	.st25{fill:none;}
	.st26{fill:url(#SVGID_00000148649662044639333100000004699383979950489777_);}
	.st27{fill:url(#SVGID_00000165916841711802410260000017448280091682352543_);}
	.st28{fill:url(#SVGID_00000075126652101022010080000015190632103281320351_);}
	.st29{fill:url(#SVGID_00000171718224357578811360000018208389373554590098_);}
	.st30{fill:url(#SVGID_00000162323825248043469440000003995700387014691000_);}
	.st31{fill:url(#SVGID_00000182514422934054182140000002097178908605375652_);}
	.st32{fill:url(#SVGID_00000070809585498518718970000015244275028821942164_);}
	.st33{fill:url(#SVGID_00000168808001176134635350000000819307675112811667_);}
	.st34{fill:url(#SVGID_00000060032397117866600530000000917075696658069385_);}
	.st35{fill:#BE946C;}
	.st36{fill:#928E44;}
	.st37{fill:#5F4539;}
	.st38{fill:#72523E;}
	.st39{fill:#CC9C73;}
	.st40{fill:#FBF4F6;}
	.st41{fill:#EEEEEE;}
	.st42{fill:#82B880;}
	.st43{fill:#458144;}
	.st44{fill:#66A566;}
	.st45{fill:#80BE80;}
	.st46{fill:#386A38;}
</style>
<g id="Layer_1">
	<g>
		<defs>
			<rect id="SVGID_1_" width="484" height="2261"/>
		</defs>
		<clipPath id="SVGID_00000020395215436914201600000008893923983270717601_">
			<use xlink:href="#SVGID_1_"  style="overflow:visible;"/>
		</clipPath>
		<g style="clip-path:url(#SVGID_00000020395215436914201600000008893923983270717601_);">
			<g>
				<defs>
					<rect id="SVGID_00000159440794738364469130000009294633361947973261_" x="-254" width="1044" height="2927"/>
				</defs>
				<clipPath id="SVGID_00000164490849837377407240000015844046684030855303_">
					<use xlink:href="#SVGID_00000159440794738364469130000009294633361947973261_"  style="overflow:visible;"/>
				</clipPath>
				<g style="clip-path:url(#SVGID_00000164490849837377407240000015844046684030855303_);">
					
						<linearGradient id="SVGID_00000177480037383569580410000008371332077967589008_" gradientUnits="userSpaceOnUse" x1="219.5" y1="22.8816" x2="219.5" y2="2299.8816" gradientTransform="matrix(1 0 0 -1 0 2262)">
						<stop  offset="0.1169" style="stop-color:#FBF5F7"/>
						<stop  offset="0.5311" style="stop-color:#AE9FFA"/>
					</linearGradient>
					<path style="fill:url(#SVGID_00000177480037383569580410000008371332077967589008_);" d="M484-37.9H-45v2277h529V-37.9z"/>
					<path class="st3" d="M-165.3,1504.9c0,0,53.3,58.3,168.4,77.7c115.1,19.4,70.1,26.5,155.8,96.9
						c85.6,70.4-27.5,110.2,149.9,208.1c177.4,97.9,171.3,269.4,171.3,269.4l-73.4,238.8L-254,2585.5L-165.3,1504.9z"/>
					<path class="st4" d="M572.9,1916.1c0,0-41.1-92-103.1,1.5c-62,93.4-112.1,39.6-150.3,164.1c-38.2,124.5-46.7,110.4-153.5,157.1
						C59.1,2285.4-44.9,2516-44.9,2516L410.8,2663l379.2-36.7L572.9,1916.1L572.9,1916.1z"/>
					<path class="st5" d="M-31.2,2158.5c0,0,53.3,58.3,168.4,77.8c115.1,19.4,70.1,26.5,155.8,96.9
						c85.6,70.4-27.5,110.2,149.9,208.2s171.3,269.4,171.3,269.4l-73.4,238.8l-660.6,189.6L-31.2,2158.5L-31.2,2158.5z"/>
					<path class="st8" d="M623.1,2223.8c0,0-37.8-48.4-81.7-107.5c4.8,3.2,9.9,6.3,15.4,9.4l56.7,35.3c0,0-76.9-85.7-102.9-124.3
						c-6.8-10.1-18.8-22.2-32.8-34.5l0.5-1.2c0,0,11.8,15.7,55.6,39.3l47.2,28.3c0,0-64.1-68.8-85.6-99.9
						c-2.7-3.9-6.5-8.2-10.9-12.7c16.4,11.6,35.8,23.9,47.1,26.2c0,0-116.6-169.6-120.7-199.8c0,0-63.9,164.3-112.6,190.9
						c-38.6,21.2,19.8-1.9,48.6-17.6l-1.3,2.3c0,0-53.3,61.4-85,74.9c-31.7,13.5,71.5-16.2,76.9-24.3c0.8-1.2,1.5-1.6,2.2-1.5
						l-9.1,16.2c0,0-64,76.5-102,93.2c-33.9,15,60.6-12.7,86.3-26.1c-33.7,53.9-71.7,103.2-105.5,119.5
						c-86.3,41.6,100.7-26.3,111.5-42.9c10.8-16.6-42.1,104.3-27.7,135.1c0,0,51.8-65.2,78.8-102.5c0.8-1.1,3.8,4,8,12.5
						c-0.1,9.6,0.1,5.1-0.4,21.7c-0.1,3.2,0.1,10.3-0.1,15.2c-0.1,5.5,0,5.7-0.1,8.5c0.1,7.6,0.1,6.4,0,10c0,5.1,0.1,23.7,0.4,41.5
						c0,1.4-0.1,2.9-0.2,4.7c-0.1,3.2,0.1,10.3-0.1,15.2c-0.1,5.5,0,5.7-0.1,8.5c0.1,7.6,0.1,6.4,0,10c-0.1,8.1,0.5,50.2,0.7,68.8
						c0,0.7,0,1.4,0,2.1c-0.3,14,0.1,6.8-0.5,24.9c-0.1,3.2,0.1,10.3-0.1,15.2c-0.1,5.5,0,5.7-0.1,8.5c0.1,7.7,0.1,6.4,0,10
						c-0.1,9.6,0.7,67.1,0.8,76.4c-0.1,2.2-0.1,4.3-0.2,6.6c-0.3,14,0.1,6.8-0.5,25c-0.1,3.2,0.1,10.3-0.1,15.2
						c-0.1,5.5,0,5.7-0.1,8.5c0.1,7.6,0.1,6.4,0,10c-0.1,8.5,0.5,54.8,0.8,71.5c0,1.2-0.1,2.5-0.1,3.8c-0.3,14,0.1,6.8-0.5,24.9
						c-0.1,3.2,0.1,10.3-0.1,15.2c-0.1,5.5,0,5.7-0.1,8.5c0.1,7.6,0.1,6.4,0,10c-0.1,9.2,0.6,62.6,0.8,75c-0.1,1.9-0.1,3.8-0.1,5.8
						c-0.3,14,0.1,6.8-0.5,25c-0.1,3.2,0.1,10.3-0.1,15.2c-0.1,5.5,0,5.7-0.1,8.5c0.1,7.6,0.1,6.4,0,10c-0.1,9.6,0.7,68,0.8,76.6
						c-0.1,2.3-0.1,4.4-0.2,6.8c-0.3,14,0.1,6.8-0.5,24.9c-0.1,3.2,0.1,10.3-0.1,15.2c-0.1,5.5,0,5.7-0.1,8.5c0.1,7.6,0.1,6.4,0,10
						c-0.1,9.8,0.1,68.3,0.3,75.3l0.6-0.1c-0.1,2.6-0.1,5-0.2,7.6c-0.3,14,0.1,6.8-0.5,24.9c-0.1,3.2,0.1,10.3-0.1,15.2
						c-0.1,5.5,0,5.7-0.1,8.5c0.1,7.6,0.1,6.4,0,10c-0.1,9.8,0.1,68.3,0.3,75.3l64.9-8.6c0.1-6.4,0.1-65.2,0.3-72.6
						c0-1.3,0.3-1.9,0.1-11.2c0.2-5.6,0.3-11.7,0.3-11.7v-16.7c-0.3-16.7-0.3-6,0.2-28.1c0.2-8.2,0-7.4-0.1-22.9
						c0.4-1,0.4-2.1-0.6-3c0-19.3,0.1-43.4,0.2-48c0-1.3,0.3-1.9,0.1-11.2c0.2-5.6,0.3-11.7,0.3-11.7v-16.7
						c-0.3-16.7-0.3-6,0.2-28.1c0.1-3.4,0.1-5.2,0.1-7.3c0.5-17.5-0.7-60.6-0.6-67.1c0-1.3,0.3-1.9,0.1-11.2
						c0.2-5.6,0.3-11.7,0.3-11.7v-16.7c-0.3-16.7-0.3-6,0.2-28.1c0-2.1,0.1-3.6,0.1-4.9c0.5-17.6-0.7-60.6-0.6-66.9
						c0-1.3,0.3-1.9,0.1-11.2c0.2-5.6,0.3-11.7,0.3-11.7v-16.7c-0.3-15.3-0.3-7.6,0.1-23.3c0.4-5.3,0.3-16.5,0.2-28.5
						c0-0.3,0-0.6,0-0.9c-0.2-18-0.7-37.6-0.6-41.8c0-1.3,0.3-1.9,0.1-11.2c0.2-5.6,0.3-11.7,0.3-11.7v-16.7
						c-0.3-16.7-0.3-6,0.2-28.1c0.1-3.2,0.1-5,0.1-7c0.5-17.5-0.7-60.6-0.6-67c0-1.3,0.3-1.9,0.1-11.2c0.2-5.6,0.3-11.7,0.3-11.7
						v-16.7c-0.3-12.8-0.3-9.6-0.1-17.1c0.6-4.6,0.5-19.3,0.3-34.4c0.1-0.5,0.1-1,0-1.4c-0.2-16.6-0.6-33.3-0.6-37.1
						c0-1.1,0.2-1.6,0.2-6.9l0.1,0c0.8-6.2,0.4-31.6,0-50.9c0.1-2.3,0.1-5.4,0.2-9.9c0.2-8.2,0-7.4-0.1-22.9
						c0.4-0.9,0.4-1.8-0.2-2.7c0.2-4.9,0.2-9.5,0.2-9.5v-17c4.4-5.8,9.9-6.8,16.8,0.6c34.1,36.5,103.1,64.7,103.1,64.7
						s-67.7-110.1-67.7-136.5C497.7,2150.7,583.6,2216.9,623.1,2223.8L623.1,2223.8z"/>
				</g>
			</g>
		</g>
	</g>
	<g id="b">
		<g id="aa">
			<g>
				<path class="st11" d="M287,2407.3c1.1-9-0.4-61.8-0.3-68.8c0-1.2,0.3-1.8,0.1-10.5c0.2-5.3,0.3-11,0.3-11v-15.8
					c-0.3-15.8-0.3-5.7,0.2-26.5c0.2-8.1,0-6.9-0.1-23.5c-4.1,4.9-6.2,5.7-11.1,7.8c-10.2,4.3-18.5,5.4-28.8,2.2
					c-6.3-2-15.7-3-20.4-11c-0.5,10.2-0.6,16.6-0.8,25.5c-0.1,5.3-0.3,8.8-0.3,13c-0.2,13.2,0.1,6.4-0.4,23.5
					c-0.1,3,0.1,9.7-0.1,14.3c-0.1,5.2,0,5.4-0.1,8c0.1,7.2,0.1,6.1,0,9.4c-0.1,9.2,0.7,65.9,0.8,72.5"/>
				<g id="ab">
					<path class="st11" d="M275.4,2260.4c-6.2,2.2-11.3,2.8-17.6,3.4c-2.8,0-18.2-1.8-21.5-4.1c-4.3-2.9-9.4-8.2-9.4-9.3
						c-0.1-1.6,4-0.9,5.8-1.3c7.6-1.4,11.9-1.7,17.4-2.2c9.4-0.9,9-1.2,19.6,0c1.4,0.2,13.6,2,15.1,2.5c4.5,1.6,1.4,5.2,0.5,6.1
						c-3,3.9-5.2,2.5-8.8,4.2"/>
					<path class="st11" d="M260.4,2246.2c-2.7,0-4.9,0.3-10.1,0.8c-2.8,0.3-5.2,0.5-7.8,0.8c-2,0.6-4,1.2-6,2.1l-1.7,0.7
						c8.6,2.6,17.3,3.9,26,4h2.5c3.2-0.2,6.6,0.3,9.4-3c-4.5-1.4-9.1-2.1-13.7-2.2c-1.7,0-3.4,0.1-5,0.4h-0.4v0l5.1,1.1l-4.6-1.1
						h2.7c4.9-0.1,9.7,0.6,14.5,2c-2.5,2-5.4,1.5-8.1,1.7h-1.4c-2.5,0-5-0.1-7.5-0.3c-5.3-0.4-10.6-1.4-15.9-2.8
						c3.6-1.2,7.2-2.1,10.8-2.5c3.4-0.4,6.7-0.5,10.1-0.5c7.3,0,14.5,0.8,21.7,2.5c0.3,0.1,2.6,0.9,1.7,1.6
						c-9.1,2.7-21,7.2-32.1,7.2c-7.9,0-15.3-2.2-21-9c6,7.3,13.8,9.7,21.9,9.7c10.8,0,22.4-4.3,31.4-6.9c0.1-0.1,0.2-0.1,0.3-0.3
						c0.1-0.1,0.2-0.3,0.2-0.4c0.1-0.2,0.1-0.4,0.1-0.6c0-0.2,0-0.4,0-0.6c-0.2-0.5-0.4-0.9-0.7-1.1c-0.3-0.3-0.6-0.5-0.9-0.5
						c-4.2-0.8-11-1.8-12.1-2C265.1,2246.4,262.5,2246.2,260.4,2246.2L260.4,2246.2L260.4,2246.2z"/>
				</g>
			</g>
			<g id="ac">
				<path class="st12" d="M274,2256c-6,2.2-12.1,3.6-18.2,4.2c-2.7,0-16.9-2.1-20.1-4.4c-4.1-2.9-9.6-7.9-9.6-9
					c-0.1-1.6,3.8-0.9,5.6-1.3c7.4-1.4,11.4-1.7,16.8-2.2c9.1-0.9,8.7-1.2,18.9,0c1.4,0.2,13.1,2,14.5,2.5c3.5,1.3,4.8,1.6,4.7,2.1
					c0,0.1,0,0.2-0.1,0.3c-2.9,3.9-9.2,6.2-12.6,7.9"/>
				<path class="st11" d="M258.2,2242.6c-2.6,0-4.7,0.3-9.7,0.8c-2.6,0.3-5,0.4-7.6,0.8c-1.9,0.6-3.9,1.2-5.8,2.1l-1.6,0.7
					c8.3,2.6,16.6,3.9,25,3.9h2.4c3-0.2,6.3,0.3,9-3c-4.4-1.4-8.8-2.1-13.2-2.2c-1.6,0-3.3,0.1-4.9,0.4h-0.4v0l4.9,1.1l-4.4-1.1h2.6
					c4.7-0.1,9.4,0.6,14,2c-2.4,2-5.2,1.5-7.8,1.7h-1.3c-2.4,0-4.8-0.1-7.3-0.3c-5.1-0.5-10.2-1.4-15.3-2.8
					c3.4-1.2,6.9-2.1,10.4-2.5c3.2-0.4,6.5-0.6,9.7-0.6c7,0,14,0.8,20.9,2.5c0.3,0.1,2.5,0.9,1.7,1.6c-8.7,2.7-20.2,7.2-30.9,7.2
					c-7.6,0-14.7-2.2-20.2-9c5.8,7.3,13.3,9.7,21.1,9.7c10.4,0,21.5-4.3,30.2-6.9c0.1,0,0.2-0.1,0.3-0.3c0.1-0.1,0.1-0.3,0.2-0.4
					c0-0.2,0.1-0.4,0.1-0.6c0-0.2,0-0.4,0-0.6c-0.2-0.5-0.4-0.9-0.6-1.1s-0.5-0.4-0.8-0.5c-4-0.8-10.6-1.8-11.6-2
					C262.7,2242.8,260.3,2242.5,258.2,2242.6L258.2,2242.6L258.2,2242.6z"/>
			</g>
		</g>
		<g id="ad">
			<g>
				<path class="st11" d="M287,2273.8c1.1-9-0.4-61.8-0.3-68.8c0-1.2,0.3-1.8,0.1-10.5c0.2-5.3,0.3-11,0.3-11v-15.8
					c-0.3-15.8-0.3-5.7,0.2-26.5c0.2-8.1,0-6.9-0.1-23.5c-4.1,4.9-6.2,5.7-11.1,7.8c-10.2,4.3-18.5,5.4-28.8,2.2
					c-6.3-2-15.7-3-20.4-11c-0.5,10.2-0.6,16.6-0.8,25.5c-0.1,5.3-0.3,8.8-0.3,13c-0.2,13.2,0.1,6.4-0.4,23.5
					c-0.1,3,0.1,9.7-0.1,14.3c-0.1,5.2,0,5.4-0.1,8c0.1,7.2,0.1,6.1,0,9.4c-0.1,9.2,0.7,65.9,0.8,72.5"/>
				<g id="ae">
					<path class="st11" d="M275.4,2126.9c-6.2,2.2-11.3,2.8-17.6,3.4c-2.8,0-18.2-1.8-21.5-4.1c-4.3-2.9-9.4-8.2-9.4-9.3
						c-0.1-1.6,4-1,5.8-1.3c7.6-1.4,11.9-1.7,17.4-2.2c9.4-0.8,9-1.2,19.6,0c1.4,0.2,13.6,2,15.1,2.5c4.5,1.6,1.4,5.2,0.5,6.1
						c-3,3.9-5.2,2.5-8.8,4.2"/>
					<path class="st11" d="M260.4,2112.8c-2.7,0-4.9,0.3-10.1,0.8c-2.8,0.3-5.2,0.4-7.8,0.8c-2,0.6-4,1.2-6,2.1l-1.7,0.7
						c8.6,2.6,17.3,3.9,26,3.9h2.5c3.2-0.2,6.6,0.3,9.4-3c-4.5-1.4-9.1-2.1-13.7-2.2c-1.7,0-3.4,0.1-5,0.4h-0.4v0l5.1,1.1l-4.6-1.1
						h2.7c4.9,0,9.7,0.6,14.5,2c-2.5,2-5.4,1.5-8.1,1.7h-1.4c-2.5,0-5-0.1-7.5-0.3c-5.3-0.4-10.6-1.4-15.9-2.8
						c3.6-1.2,7.2-2.1,10.8-2.5c3.4-0.4,6.7-0.6,10.1-0.6c7.3,0,14.5,0.8,21.7,2.5c0.3,0.1,2.6,0.9,1.7,1.6
						c-9.1,2.7-21,7.2-32.1,7.2c-7.9,0-15.3-2.2-21-9c6,7.3,13.8,9.7,21.9,9.7c10.8,0,22.4-4.3,31.4-6.9c0.1-0.1,0.2-0.1,0.3-0.3
						c0.1-0.1,0.2-0.3,0.2-0.5c0.1-0.2,0.1-0.4,0.1-0.6c0-0.2,0-0.4,0-0.6c-0.2-0.5-0.4-0.9-0.7-1.1c-0.3-0.3-0.6-0.4-0.9-0.5
						c-4.2-0.8-11-1.8-12.1-2C265.1,2113,262.5,2112.7,260.4,2112.8L260.4,2112.8L260.4,2112.8z"/>
				</g>
				<polygon class="st11" points="230.5,2207 189.3,2170.4 190.2,2163 233.2,2190.3 				"/>
			</g>
			<path class="st15" d="M245.4,2187.4c-0.6-0.6-1.5,0.2-1.5,1.4c0,1.2,0.1,2.8-0.7,2.2c-0.8-0.6-2.1-0.7-2.1-0.4s0.1,0.2-0.4,0.3
				s-0.8,0.2-1.3,0.6c-0.5,0.4-0.1,0.9-0.5,0.4c-0.4-0.4-0.9-1.9-1.4-1.5s-0.1,0.3-0.5,0s-0.1-1.1-0.4-0.9c-0.4,0.2-0.4-0.1-0.6-0.2
				c-0.2-0.1,0.8,1-0.3,1.7c-1.1,0.7-3,1.1-3.9,2.5c-0.9,1.3-1,2.6-1.9,3c-0.9,0.4-1.2-0.1-1.1,0.7c0.2,0.9,0.4,2-0.2,2.1
				c-0.6,0.1-1.1,0.3-0.6,0.7c0.4,0.4,1.2-0.1,0.4,0.4s-1-0.4-0.8,0.5s0,1.9-0.3,2c-0.3,0.1-0.2,0-0.2,0.7s-0.1-1.1,0.1,0.7
				s-0.1,2.7-0.5,3s-0.8,1.8-0.7,2.7c0.1,0.9,0.5,1.2,0.1,1.9s-0.1,3.5,0.1,3.9c0.1,0.4,1.2,2,0.6,2.2c-0.6,0.2-0.2,1.3,0.3,1.5
				c0.5,0.2-0.3,1.6,0.2,1.8s1.6,0.3,1.4,0.8s-0.8,0.5,0.3,0.8c1.1,0.3,1.1-0.4,1.1,0.3s-1.4,0.5,0.1,0.7s2.2,0.6,2,1.2
				s0.7,0.5,1.2,0.1s1.1-1.2,1.1-0.5s0.9,0.5,0.9-0.3s-0.6-0.7,0.1-0.8c0.7-0.1,0.9,0,0.9-0.5s-1.1-0.5-0.1-0.5s1.2,0.5,2.4-1.6
				s1.7-3.9,2.1-3.9s1.1-0.8,0.5-0.9s-0.3-0.1,0.1-0.9c0.4-0.8,0.5-1.9,0.3-2.2s-0.3,0,0-0.9s0.4-1.2,0.2-1.4
				c-0.2-0.2,0-0.9,0.2-1.5c0.2-0.6,0.4-1.2,0.2-1.3c-0.2-0.1-0.1,0-0.1-0.5c-0.1-1.5-0.1-1.8,0.1-2s0.8-1.8,0.3-2.3
				c-0.5-0.5-1-0.3-0.1-1.4s0.9-1.1,0.5-1.7c-0.4-0.7-0.9-1.9-0.1-2.3c0.7-0.4,1.6-1.2,1-1.4c-0.6-0.2-0.8-1.4-0.3-1.5
				c0.5-0.1,0.1-0.6-0.1-0.8s-0.7,0.5,0.2-1.2c0.9-1.6,2.4-3.2,2.4-4.1C245.9,2187.8,245.4,2187.4,245.4,2187.4L245.4,2187.4
				L245.4,2187.4z"/>
			<g id="af">
				<path class="st12" d="M274.6,2125.4c-6,2.2-12.1,3.6-18.2,4.2c-2.7,0-16.9-2.1-20.1-4.4c-4.1-2.9-9.6-7.9-9.6-9
					c-0.1-1.6,3.8-0.9,5.6-1.3c7.4-1.4,11.4-1.7,16.8-2.2c9.1-0.8,8.7-1.2,18.9,0c1.4,0.2,13.1,2,14.5,2.5c3.5,1.3,4.8,1.6,4.7,2.1
					c0,0.1,0,0.2-0.1,0.3c-2.9,4-9.2,6.2-12.6,7.9"/>
				<path class="st11" d="M258.9,2112c-2.6,0-4.7,0.3-9.7,0.8c-2.6,0.3-5,0.4-7.6,0.8c-1.9,0.6-3.9,1.2-5.8,2.1l-1.6,0.7
					c8.3,2.6,16.6,3.9,25,3.9h2.4c3-0.2,6.3,0.3,9-3c-4.4-1.4-8.8-2.1-13.2-2.2c-1.6,0-3.3,0.1-4.9,0.4h-0.4v0l4.9,1.1l-4.4-1.1h2.6
					c4.7,0,9.4,0.6,14,2c-2.4,2-5.2,1.5-7.8,1.7h-1.3c-2.4,0-4.8-0.1-7.3-0.3c-5.1-0.4-10.2-1.4-15.3-2.8c3.4-1.2,6.9-2.1,10.4-2.5
					c3.2-0.4,6.5-0.6,9.7-0.6c7,0,14,0.8,20.9,2.5c0.3,0.1,2.5,0.9,1.7,1.6c-8.7,2.7-20.2,7.2-30.9,7.2c-7.6,0-14.7-2.2-20.2-9
					c5.8,7.3,13.3,9.7,21.1,9.7c10.4,0,21.5-4.3,30.2-6.9c0.1-0.1,0.2-0.1,0.3-0.3c0.1-0.1,0.1-0.3,0.2-0.5c0-0.2,0.1-0.4,0.1-0.6
					c0-0.2,0-0.4,0-0.6c-0.2-0.5-0.4-0.9-0.6-1.1s-0.5-0.4-0.8-0.5c-4-0.8-10.6-1.8-11.6-2C263.4,2112.2,260.9,2112,258.9,2112
					L258.9,2112L258.9,2112z"/>
			</g>
			<path class="st14" d="M223.4,2207.4c0,0-2.7,7-3.7,7.4s-3.6,1.8-2.8,2.2c0.8,0.4-1.9,4.5-1.2,6.6c0.6,2.1-3.1,6.3-2.1,7.8
				s2.7,0.6,2.4,3.3s0.4,3.2,0.8,4.2c0.6,1.3,1.7,0.2,1.7-1.8s-0.1-7.8,0.9-8c1-0.3,1.9-2.2,1.9-1c0,1.2,0,3.2,1.1,3.1
				c2,0,2-0.7,1.7-2.9c-0.3-2.3,1-2.6,2.1-3.6c1.2-1-0.5-2.1-0.1-9.3s-0.3-11.7-0.3-11.7l-0.7-2L223.4,2207.4L223.4,2207.4
				L223.4,2207.4z"/>
		</g>
		<g id="ag">
			<g>
				<path class="st11" d="M287,2151.8c1.1-9-0.4-61.8-0.3-68.8c0-1.2,0.3-1.8,0.1-10.5c0.2-5.3,0.3-11,0.3-11v-15.8
					c-0.3-15.8-0.3-5.7,0.2-26.5c0.2-8.1,0-6.9-0.1-23.5c-4.1,4.9-6.2,5.7-11.1,7.8c-10.2,4.3-18.5,5.4-28.8,2.2
					c-6.3-2-15.7-3-20.4-11c-0.5,10.2-0.6,16.6-0.8,25.5c-0.1,5.3-0.3,8.8-0.3,13c-0.2,13.2,0.1,6.4-0.4,23.5
					c-0.1,3,0.1,9.7-0.1,14.3c-0.1,5.2,0,5.4-0.1,8c0.1,7.2,0.1,6.1,0,9.4c-0.1,9.2,0.7,65.9,0.8,72.5"/>
				<g id="ah">
					<path class="st11" d="M275.4,2004.9c-6.2,2.2-11.3,2.8-17.6,3.4c-2.8,0-18.2-1.8-21.5-4.1c-4.3-2.9-9.4-8.2-9.4-9.3
						c-0.1-1.6,4-1,5.8-1.3c7.6-1.4,11.9-1.7,17.4-2.2c9.4-0.8,9-1.2,19.6,0c1.4,0.2,13.6,2,15.1,2.5c4.5,1.6,1.4,5.2,0.5,6.1
						c-3,4-5.2,2.5-8.8,4.2"/>
					<path class="st11" d="M260.4,1990.7c-2.7,0-4.9,0.3-10.1,0.8c-2.8,0.3-5.2,0.4-7.8,0.8c-2,0.5-4,1.2-6,2.1l-1.7,0.7
						c8.6,2.6,17.3,3.9,26,3.9h2.5c3.2-0.2,6.6,0.3,9.4-3c-4.5-1.4-9.1-2.1-13.7-2.2c-1.7,0-3.4,0.1-5,0.4h-0.4v0l5.1,1.1l-4.6-1.1
						h2.7c4.9,0,9.7,0.6,14.5,2c-2.5,2-5.4,1.5-8.1,1.7h-1.4c-2.5,0-5-0.1-7.5-0.3c-5.3-0.4-10.6-1.4-15.9-2.8
						c3.6-1.2,7.2-2.1,10.8-2.5c3.4-0.4,6.7-0.6,10.1-0.6c7.3,0,14.5,0.8,21.7,2.5c0.3,0.1,2.6,0.9,1.7,1.6
						c-9.1,2.7-21,7.2-32.1,7.2c-7.9,0-15.3-2.2-21-9c6,7.3,13.8,9.7,21.9,9.7c10.8,0,22.4-4.3,31.4-6.9c0.1-0.1,0.2-0.1,0.3-0.3
						c0.1-0.1,0.2-0.3,0.2-0.5c0.1-0.2,0.1-0.4,0.1-0.6c0-0.2,0-0.4,0-0.6c-0.2-0.5-0.4-0.9-0.7-1.1c-0.3-0.3-0.6-0.4-0.9-0.5
						c-4.2-0.8-11-1.8-12.1-2C265.1,1990.9,262.5,1990.7,260.4,1990.7L260.4,1990.7L260.4,1990.7z"/>
				</g>
				<path class="st11" d="M284.1,2060.3c0,0,11.8,4.6,24-9.9c5.7-6.7,12.2-10.6,16.7-14.3c5.2-4.2,6.5-4.8,8.9-9.6
					c5-10.3,8.7-22.2,9-10.2c0.3,10.6-13.9,24-13.9,24s4.2,1.3,12.1-1.4c7.3-2.5,9-3.6,10.8-3.6s-3.6,5.8-13,8
					c-9.5,2.2-20.1,9.3-22.2,16.2s-35,31.6-35,31.6L284.1,2060.3L284.1,2060.3L284.1,2060.3z"/>
				<g>
					<path class="st13" d="M320.6,2062.5c0,0-3.5-2.9-1.4-8.6s2.9-5.1,2.9-5.1s4.6,5.8,2.3,9.4
						C322.1,2061.9,320.6,2062.5,320.6,2062.5L320.6,2062.5L320.6,2062.5z"/>
					<path class="st13" d="M328.4,2051.7c0,0-0.6-4.1,4.4-6.6s5-1.6,5-1.6s-0.5,6.7-4.2,7.7C329.7,2052.2,328.4,2051.7,328.4,2051.7
						z"/>
					<path class="st13" d="M348.6,2047.9c0,0-3.6-0.4-4.7-5.2c-1-4.8-0.3-4.7-0.3-4.7s5.6,1.9,5.6,5.4S348.6,2047.9,348.6,2047.9
						L348.6,2047.9L348.6,2047.9z"/>
					<path class="st13" d="M336.5,2043.4c0,0,0.1-4.5,5.8-6.3c5.7-1.9,5.6-0.9,5.6-0.9s-1.6,7.1-5.8,7.6
						C337.9,2044.1,336.5,2043.4,336.5,2043.4L336.5,2043.4L336.5,2043.4z"/>
					<path class="st13" d="M328.6,2039.3c0,0,1.4-3.4,6.4-3.2s4.6,1,4.6,1s-3.4,5-6.8,4.1S328.6,2039.3,328.6,2039.3z"/>
					<path class="st13" d="M338,2032.5c0,0-2.7-3.5,0.6-8.4c3.3-5,3.8-4.2,3.8-4.2s3.1,6.5,0.1,9.4
						C339.5,2032.3,338,2032.5,338,2032.5L338,2032.5z"/>
					<path class="st13" d="M340.7,2021c0,0-3.6-2.4-2.1-8s2.2-5.1,2.2-5.1s4.9,5,3.1,8.7C342.1,2020.3,340.7,2021,340.7,2021z"/>
					<path class="st13" d="M338.8,2033.1c0,0-4.6,0.1-6.8-5.7c-2.2-5.8-1.2-5.8-1.2-5.8s7.4,1.3,8,5.7
						C339.6,2031.7,338.8,2033.1,338.8,2033.1z"/>
					<path class="st13" d="M322.8,2042.8c0,0-2.7-3.2,0.2-8.1s3.4-4.1,3.4-4.1s3.3,6,0.5,9C324.2,2042.5,322.8,2042.8,322.8,2042.8
						L322.8,2042.8L322.8,2042.8z"/>
				</g>
			</g>
			<path class="st11" d="M287,2076.5c1.1-9-0.4-61.8-0.3-68.8c0-1.2,0.3-1.8,0.1-10.5c0.2-5.3,0.3-11,0.3-11v-15.8
				c-0.3-15.8-0.3-5.7,0.2-26.5c0.2-8.1,0-6.9-0.1-23.5c-4.1,4.9-6.2,5.7-11.1,7.8c-10.2,4.3-18.5,5.4-28.8,2.2
				c-6.3-2-15.7-3-20.4-11c-0.5,10.2-0.6,16.6-0.8,25.5c-0.1,5.3-0.3,8.8-0.3,13c-0.2,13.2,0.1,6.4-0.4,23.5
				c-0.1,3,0.1,9.7-0.1,14.3c-0.1,5.2,0,5.4-0.1,8c0.1,7.2,0.1,6.1,0,9.4c-0.1,9.2,0.7,65.9,0.8,72.5"/>
			<path class="st11" d="M287,1936.5c1.1-9-0.4-61.8-0.3-68.8c0-1.2,0.3-1.8,0.1-10.5c0.2-5.3,0.3-11,0.3-11v-15.8
				c-0.3-15.8-0.3-5.7,0.2-26.5c0.2-8.1,0-6.9-0.1-23.5c-4.1,4.9-6.2,5.7-11.1,7.8c-10.2,4.3-18.5,5.4-28.8,2.2
				c-6.3-2-15.7-3-20.4-11c-0.5,10.2-0.6,16.6-0.8,25.5c-0.1,5.3-0.3,8.8-0.3,13c-0.2,13.2,0.1,6.4-0.4,23.5
				c-0.1,3,0.1,9.7-0.1,14.3c-0.1,5.2,0,5.4-0.1,8c0.1,7.2,0.1,6.1,0,9.4c-0.1,9.2,0.7,65.9,0.8,72.5"/>
			<g>
				<path class="st16" d="M60.8,1710.2c0,0,230-4.6,249,0c19.1,4.6,39.2,1,41.2-3.6c2.1-4.6,27.3,5.2,23.7-8.2
					c-3.6-13.4-18-27.3-44.3-23.7s-35.1-6.2-46.4-13.4c-11.3-7.2-26.8-76.3-76.8-54.7c-50,21.7-40.2,53.6-37.1,55.2
					c3.1,1.5,0,5.2-14.9,7.2c-14.9,2.1-31.4,11.9-22.2,15.5s-7.7,12.4-22.2,12.9s-23.7,5.7-18,5.7
					C98.5,1703,60.8,1710.2,60.8,1710.2L60.8,1710.2L60.8,1710.2z"/>
				<path class="st17" d="M109.7,1709.8c0,0,159.2-3.2,172.4,0c13.2,3.2,27.1,0.7,28.6-2.5c1.4-3.2,18.9,3.6,16.4-5.7
					s-12.5-18.9-30.7-16.4c-18.2,2.5-24.3-4.3-32.1-9.3c-7.9-5-14.4-62.8-43.5-38.7c-36.4,30.2-50.9,16.5-35.4,39.1
					c1.4,2,0,3.6-10.4,5c-10.3,1.4-21.8,8.2-15.3,10.7c6.4,2.5-5.4,8.6-15.4,8.9c-10,0.4-16.4,3.9-12.5,3.9
					C135.8,1704.8,109.7,1709.8,109.7,1709.8L109.7,1709.8L109.7,1709.8z"/>
			</g>
			<g>
				<path class="st16" d="M-107.4,1761.6c0,0,229.9-4.6,249,0c19.1,4.6,39.2,1,41.2-3.6c2.1-4.6,27.3,5.2,23.7-8.2
					c-3.6-13.4-18.1-27.3-44.3-23.7s-35.1-6.2-46.4-13.4c-11.3-7.2-26.8-76.3-76.8-54.7c-50,21.7-40.2,53.6-37.1,55.2
					c3.1,1.5,0,5.2-15,7.2c-14.9,2.1-31.5,11.9-22.2,15.5c9.3,3.6-7.7,12.4-22.2,12.9s-23.7,5.7-18,5.7S-107.4,1761.6-107.4,1761.6
					L-107.4,1761.6L-107.4,1761.6z"/>
				<path class="st17" d="M-55.1,1767.7c0,0,159.2-3.2,172.4,0s27.1,0.7,28.6-2.5c1.4-3.2,18.9,3.6,16.4-5.7s-12.5-18.9-30.7-16.4
					c-18.2,2.5-24.3-4.3-32.1-9.3c-7.8-5-14.4-62.8-43.5-38.7c-36.4,30.2-50.9,16.5-35.4,39.1c1.4,2,0,3.6-10.4,5
					c-10.4,1.4-21.8,8.2-15.4,10.7c6.4,2.5-5.3,8.6-15.3,8.9c-10,0.4-16.4,3.9-12.5,3.9S-55.1,1767.7-55.1,1767.7L-55.1,1767.7
					L-55.1,1767.7z"/>
			</g>
			<path class="st18" d="M252.8,1678.4c0,0-106.8,241.4-188.2,280.6c-81.4,39.2,94.9-24.8,105.1-40.5
				c10.2-15.7-39.7,98.3-26.1,127.3c0,0,48.8-61.5,74.3-96.6c3.4-4.6,48.8,107.9,53.5,102.8c0,0,3.9-110.7,31.4-81.3
				c32.2,34.4,97.2,61,97.2,61s-63.9-103.8-63.9-128.6c0,0,81,62.3,118.3,68.9C454.5,1972,259.6,1722.8,252.8,1678.4L252.8,1678.4
				L252.8,1678.4z"/>
			<path class="st19" d="M179,1783.1c0,0-60.3,72-96.2,87.8s81-19,87.1-28.5c6.1-9.5,22,8.7,20.5,43.5
				c-1.5,34.8,28.4,17.5,41.4-22.1c0,0,20.6-36.4,19.9-42.7c-0.8-6.3,40.4,76.5,34.7,95.5c0,0,45.6-21.8,38.8-73.5l-2.5-25.9
				c0,0,19.9,34.8,69.5,62.5l53.5,33.2c0,0-72.6-80.7-97-117.1c-24.4-36.4-120.7-99.7-120.7-99.7L179,1783.1L179,1783.1L179,1783.1z
				"/>
			<path class="st20" d="M193,1721.5c0,0-50.2,57.9-80.1,70.6s67.4-15.3,72.5-22.9s8.3,16.5,7,44.5c-1.3,28,33.7,4.4,44.5-27.3
				c0,0,17.2-29.2,16.5-34.3c-0.6-5.1,18.9,47.1,14.1,62.3c0,0,33.1,15.9,36.9-19.1l13.5-33.2c0,0,11.1,14.8,52.4,37.1l44.5,26.7
				c0,0-60.4-64.9-80.8-94.1s-100.5-80.1-100.5-80.1L193,1721.5L193,1721.5L193,1721.5z"/>
			<path class="st21" d="M254.6,1556.1c0,0-60.2,154.8-106.2,179.9c-45.9,25.1,53.6-15.9,59.3-25.9s-7.6,31,3.8,60.2
				c0,0,27.7-82.8,37.3-94.6c0,0,33.5,41,31.6,71.1s-1,45.2-1,45.2s17.2-77,17.2-92.9c0,0,50.7,41,71.7,45.2
				C368.4,1744.4,258.4,1584.6,254.6,1556.1L254.6,1556.1L254.6,1556.1z"/>
			<g>
				<path class="st16" d="M274.4,1820.3c0,0,186.8-10.4,202.4-6.6c15.6,3.8,32,0.8,33.7-3c1.7-3.8,22.3,4.2,19.4-6.7
					c-3-10.9-14.7-22.3-36.2-19.4s-28.6-5.1-37.9-10.9s-21.9-62.3-62.7-44.6c-40.8,17.7-32.8,43.8-30.3,45c2.5,1.3,0,4.2-12.2,5.9
					s-25.7,9.7-18.1,12.6c7.6,3-6.3,10.1-18.1,10.5s-19.4,4.6-14.7,4.6S274.4,1820.3,274.4,1820.3L274.4,1820.3L274.4,1820.3z"/>
				<path class="st17" d="M313.8,1815.4c0,0,130-2.6,140.8,0s22.1,0.6,23.3-2c1.2-2.6,15.5,2.9,13.4-4.7c-2-7.6-10.2-15.5-25.1-13.4
					s-19.8-3.5-26.2-7.6c-6.4-4.1-11.8-51.3-35.5-31.6c-29.7,24.6-41.5,13.5-28.9,31.9c1.1,1.6,0,2.9-8.5,4.1
					c-8.5,1.2-17.8,6.7-12.5,8.7c5.2,2-4.4,7-12.5,7.3c-8.2,0.3-13.4,3.2-10.2,3.2S313.8,1815.4,313.8,1815.4L313.8,1815.4
					L313.8,1815.4z"/>
			</g>
		</g>
	</g>
</g>
<g id="Layer_2" class="st22">
	
		<linearGradient id="Sumatran_Background_00000047767753577652880160000000888648531296188848_" gradientUnits="userSpaceOnUse" x1="267.376" y1="2860.3616" x2="267.376" y2="-25.0564">
		<stop  offset="8.016948e-02" style="stop-color:#FCF5F7"/>
		<stop  offset="0.5776" style="stop-color:#82A1F0"/>
	</linearGradient>
	
		<rect id="Sumatran_Background" x="-22" y="-25.1" style="display:inline;fill:url(#Sumatran_Background_00000047767753577652880160000000888648531296188848_);" width="578.8" height="2885.4"/>
	<g id="TreesShadows" class="st24">
		<path class="st25" d="M407.1,1867.7c-5.6,8.3-12.8,15.3-21.1,20.3c0.5,0.7,1,1.4,1.4,2.1c1.9-0.7,4.1-1.1,6.3-1.1
			c9,0,16.3,6.1,16.3,13.7c0,6.6-5.5,12.1-12.8,13.4c-0.1,2.7-1.8,5.1-4.2,6.6c4.7,7.7,10.6,17.2,18.3,29.5
			c23.6,37.6,35.9,1.3,31.3-12.5C433.4,1912.3,416.4,1884.8,407.1,1867.7z"/>
		<path class="st25" d="M481,1875.6c-6.6,0-12.9-1.8-18.4-4.9c-5.8,5.6-13.2,9.3-21.4,10.3c7.4,16,26.8,42.2,31.4,51.7
			c5.9,12,5.8-20.7,12.6-56.9c-0.1-0.1-0.1-0.2-0.2-0.4C483.7,1875.5,482.4,1875.6,481,1875.6z"/>
		
			<linearGradient id="SVGID_00000142865622160375407360000012898758557040123032_" gradientUnits="userSpaceOnUse" x1="-141.6399" y1="2974.8833" x2="321.919" y2="2974.8833">
			<stop  offset="0" style="stop-color:#988172"/>
			<stop  offset="1" style="stop-color:#8B7161"/>
		</linearGradient>
		<path style="fill:url(#SVGID_00000142865622160375407360000012898758557040123032_);" d="M135.8,3809.3c0.2-7.3,0.1-8.9,0-16.4
			c0-3.5,0-7.7,0-12.4c0.2-0.6,0.2-1.2,0-1.8c0.1-24.5,0.1-59.8,0.2-66c0-1.6,0.4-2.3,0.1-13.8c0.3-6.9,0.4-14.4,0.4-14.4l0-20.6
			c-0.4-20.6,30.6-20.9,31.2-48.1c0.2-10.1-30.9,4.3-31.1-14.7c0.5-1.2,0.5-2.6-0.7-3.7c0.1-23.8,0.1-53.5,0.2-59.1
			c0-1.6,0.4-2.3,0.1-13.8c0.3-6.9,0.4-14.4,0.4-14.4l0-20.6c-0.4-20.6-0.3-7.4,0.2-34.6c0.1-4.2,0.1-6.4,0.1-9
			c0.6-21.6,22.1-63.7,22.3-71.6c0-1.6-22.7-13.3-23-24.7c0.3-6.9,0.4-14.4,0.4-14.4l0-20.6c-0.4-20.6-0.3-7.4,0.2-34.6
			c0.1-2.6,0.1-4.4,0.1-6c0.6-21.6-0.9-74.6-0.8-82.5c0-1.6,0.4-2.3,0.1-13.8c0.3-6.9,0.4-14.4,0.4-14.4l0-20.6
			c-0.4-18.9-0.4-9.4,0.1-28.7c0.5-6.6,0.4-20.4,0.2-35.2c0.1-0.4,0.1-0.7,0-1.1c-0.3-22.2-0.9-46.3-0.8-51.5
			c0-1.6,0.4-2.3,0.1-13.8c0.3-6.9,0.4-14.4,0.4-14.4l0-20.6c-0.4-20.6-0.3-7.4,0.2-34.6c0.1-4,24.6-22.6,24.6-25
			c-17.1-19.5-25.4-58.3-25.3-66.2c0-1.6,0.4-2.3,0.1-13.8c0.3-6.9,0.4-14.4,0.4-14.4l0-20.6c-0.3-15.7-0.4-11.8-0.1-21.1
			c0.7-5.7,0.6-23.8,0.4-42.4c0.1-0.6,0.2-1.2,0-1.7c-0.3-20.5,28.4-27.5,28.5-32.1c0-1.6-28.8-15.9-29.1-27.3
			c0.3-6.9,0.4-14.4,0.4-14.4l0-20.6c-0.4-20.6-0.3-7.4,0.2-34.6c0.2-8.2,0.1-9.1-0.1-19.2c1.4-11.5,7.7-60.5,10.5-64
			c8.3-10.5,16-15.8,22.7-20.1c3.3,1.8,7.2,2.8,11.3,2.8c7.7,0,14.6-3.6,18.7-9.1c2.5,2.6,6.1,4.3,10.1,4.3c7.2,0,13.1-5.3,13.4-12
			c9.5-1.9,16.6-9.7,16.6-19.1c0-10.8-9.4-19.5-21-19.5c-2.9,0-5.6,0.5-8.1,1.5c-0.3-0.4-0.2-0.4-0.5-0.8c4.9-5.9,10-11.7,14.6-18.4
			c3.3,1,6.8,1.5,10.4,1.5c20.9,0,37.8-17.8,38.7-40.1c27.3-6.3,47.8-32.6,47.8-64c0-5.7-0.7-11.3-2-16.6c0.5-3.4,0.8-7,0.8-10.6
			c0-12.7-3.3-24.5-9.1-34.5c-10.7-18.6-29.7-30.9-51.4-30.9c-8.3,0-16.3,1.8-23.5,5.1c-1.8-4-3.8-7.9-6.1-11.5
			c9.9-11.5,15.8-27.1,15.6-44.1c0-1.8-0.1-3.5-0.3-5.2c-10.7-18.6-29.7-30.9-51.4-30.9c-6.3,0-12.4,1.1-18.2,3
			c0.1-0.9,0.1-1.7,0.1-2.6c0-18.7-14-33.9-31.3-33.9c-2.2,0-4.3,0.2-6.4,0.7c-11.8-7.4-25.4-11.6-39.9-11.6
			c-40.9,0-75-0.3-79.7,42.5c0,0.4,0.3,34.4,0.3,34.8c-0.1,1.1-0.2,2.3-0.2,3.4c-1.6,0.1-3.2,0.3-4.7,0.7
			c-11.8-7.4-25.4-11.6-39.9-11.6c-40.9,0-74.6,33.2-79.3,76.1c0,0.4-0.1,0.8-0.1,1.3c-0.3,3-0.4,6-0.4,9c0,6.4,0.7,12.6,1.9,18.6
			c-0.1,0.2-0.2,0.3-0.3,0.5c-16.2,0.9-29.9,12.3-35.3,28c-1.6,4.7-2.5,9.7-2.5,15c0,5.5,1,10.7,2.7,15.5c-1.5,5.9-2,12.4-0.9,19
			c2.8,18,16.1,32.3,32.8,35.2c3.6,0.6,7.1,0.7,10.5,0.3c10,20.8,29.1,35.6,51.7,38.2c0,0.4-0.1,0.7-0.1,1.1c0,1.4,0.2,2.7,0.5,4
			c-5.7,0.2-10.3,4.1-10.3,9c0,5,4.8,9,10.7,9c0.4,0,0.7,0,1.1,0c3,4.8,8.9,8.1,15.8,8.1c1.9,0,1.2,0.4,0.3,0.6
			c13.1,24,22.5,77.8,38.2,94.2c17.5,18.3,41.3,1.7,42.5,22.1c-0.4,9.6-0.5,16.9-0.8,26.4c-0.2,6.9-0.4,11.5-0.5,17
			c-0.3,17.2,0.2,8.4-0.6,30.7c-0.1,3.9,0.2,12.7-0.2,18.7c-0.1,6.8,0,7.1-0.2,10.5c0.1,9.4,0.1,7.9,0.1,12.3
			c-0.1,9.9,0.6,61.9,0.9,84.8c0,0.8,0,1.7-0.1,2.6c-0.3,17.2,0.2,8.4-0.6,30.7c-0.1,3.9,0.2,12.7-0.2,18.7c-0.1,6.8,0,7.1-0.2,10.5
			c0.1,9.4,0.1,7.9,0.1,12.3c-0.1,11.8,0.9,82.6,1.1,94.1c-0.1,2.8-0.2,5.3-0.2,8.2c-0.3,17.2,0.2,8.4-0.6,30.7
			c-0.1,3.9-28,14-28.3,20c-0.1,6.8,28.1,5.8,28,9.2c0.1,9.4,0.1,7.9,0.1,12.3c-0.1,10.4,0.7,67.5,1,88.2c0,1.5-0.1,3-0.1,4.6
			c-0.3,17.2,0.2,8.4-0.6,30.7c-0.1,3.9,0.2,12.7-0.2,18.7c-0.1,6.8,0,7.1-0.2,10.5c0.1,9.4-0.1,7.9,0.1,12.3
			c2.5,69.6-50.2,54.2-50,69.6c-0.1,2.4,50.9,27.5,50.8,30c-0.3,17.2,0.2,8.4-0.6,30.7c-0.1,3.9,0.2,12.7-0.2,18.7
			c-0.1,6.8,0,7.1-0.2,10.5c0.1,9.4,0.1,7.9,0.1,12.3c-0.1,11.9,0.9,83.8,1.1,94.4c-0.1,2.8-0.2,5.5-0.2,8.3
			c-0.3,17.2,0.2,8.4-0.6,30.7c-0.1,3.9-0.4,4.7-0.7,10.8c-0.1,6.8-30.2,10.2-30.4,13.6c0.1,9.4,30.8,12.8,30.8,17.2
			c-0.1,12.1,0.2,84.1,0.4,92.8l0.7-0.1c-0.1,3.2-0.2,6.2-0.2,9.4c-0.3,17.2,0.2,8.4-0.6,30.7c-0.1,3.9,0.2,12.7-0.2,18.7
			c-0.1,6.8,0,7.1-0.2,10.5c0.1,9.4,0.1,7.9,0.1,12.3c-0.1,11.6,0.2,78.3,0.4,91.4c-0.2,6.5-0.3,10.9-0.4,16.2
			c-0.2,8.4-0.1,10.6-0.1,13.2h84C135.2,3824.7,135.3,3835,135.8,3809.3z M206.2,2422.4c0.1,0.1,0.2,0.2,0.2,0.3
			c-3.4,6.6-6.9,12.9-10.2,18.9c-2-0.8-4.1-1.3-6.4-1.6C196.2,2435.2,201.7,2429.2,206.2,2422.4z M19.7,2491
			c-7.5-12.4-13.6-21.8-18.3-29.5c2.4-1.5,4.1-3.9,4.2-6.6c7.3-1.3,12.8-6.8,12.8-13.4c0-7.6-7.3-13.7-16.3-13.7
			c-2.2,0-4.4,0.4-6.3,1.1c-0.4-0.7-0.9-1.5-1.4-2.1c8.3-5.1,15.5-12,21.1-20.3c9.3,17.2,26.3,44.6,35.5,72
			C55.6,2492.3,58,2554.7,19.7,2491z M81,2471.4c-4.6-9.4-24.1-35.7-31.4-51.7c8.2-1,15.6-4.7,21.4-10.3c5.5,3.1,11.8,4.9,18.4,4.9
			c1.3,0,2.6-0.1,3.9-0.2c0.1,0.2,0.2,0.2,0.3,0.4C86.8,2450.7,87,2483.5,81,2471.4z M116.8,2473.2c-17,11.2-15.9,0.7-11.5-29.7
			c0.5-3.7,1.1-7,1.8-10c7.4,7.5,16.4,13.1,26.4,16.3C128.5,2460.6,123,2469.2,116.8,2473.2z M133.8,2480.5
			c6.7-8.3,13.8-17.9,20.2-27.7c2.8-0.1,5.5-0.4,8.2-0.8c-2.6,3.9-4.2,8.6-4.2,13.6c0,2,0.2,3.9,0.7,5.7
			c-7.4,0.3-13.2,5.9-13.2,12.8c0,1.5,0.3,2.9,0.8,4.2C127.2,2494.1,117.1,2501.1,133.8,2480.5z"/>
		
			<linearGradient id="SVGID_00000023260304099459736410000002129605237557133965_" gradientUnits="userSpaceOnUse" x1="1210.0175" y1="2686.0981" x2="90.9357" y2="2039.9961">
			<stop  offset="0" style="stop-color:#988172"/>
			<stop  offset="1" style="stop-color:#8B7161"/>
		</linearGradient>
		<path style="fill:url(#SVGID_00000023260304099459736410000002129605237557133965_);" d="M711.4,1777.3c0.5-3.4,0.8-7,0.8-10.6
			c0-12.7-3.3-24.5-9.1-34.5c-10.7-18.6-29.7-30.9-51.4-30.9c-8.3,0-16.3,1.8-23.5,5.1c-1.8-4-3.8-7.9-6.1-11.5
			c9.9-11.5,15.8-27.1,15.6-44.1c0-1.8-0.1-3.5-0.3-5.2c-10.7-18.6-29.7-30.9-51.4-30.9c-6.3,0-12.4,1.1-18.2,3
			c0.1-0.9,0.1-1.7,0.1-2.6c0-18.7-14-33.9-31.3-33.9c-2.2,0-4.3,0.2-6.4,0.7c-11.7-7.4-25.4-11.6-39.9-11.6
			c-40.9,0-74.5,33.2-79.2,76.1c0,0.4-0.1,0.8-0.1,1.3c-0.1,1.1-0.2,2.3-0.2,3.4c-1.6,0.1-3.2,0.3-4.7,0.7
			c-11.7-7.4-25.4-11.6-39.9-11.6c-40.9,0-74.5,33.2-79.2,76.1c0,0.4-0.1,0.8-0.1,1.3c-0.3,3-0.4,6-0.4,9c0,6,0.6,11.9,1.7,17.6
			c0,0.5-0.1,1-0.1,1.5c-16.2,0.9-29.9,12.3-35.3,28c-1.6,4.7-2.5,9.7-2.5,15c0,5.5,0.9,10.7,2.7,15.5c-1,3.7-1.5,7.6-1.5,11.7
			c0,23.8,17.8,43.1,39.8,43.1c1.4,0,2.7-0.1,4-0.2c10,20.8,29.1,35.6,51.6,38.2c0,0.4-0.1,0.7-0.1,1.1c0,1.4,0.2,2.7,0.5,4
			c-5.7,0.2-10.3,4.1-10.3,9c0,5,4.8,9,10.7,9c0.4,0,0.7,0,1.1,0c3,4.8,8.9,8.1,15.8,8.1c3.8,0,7.3-1,10.2-2.7
			c13.2,23.7,32.4,54.1,48.2,70.6c17.5,18.3,21.4,28.6,22.6,49.1c-0.4,9.6-0.5,16.9-0.8,26.4c-0.2,6.9-0.4,11.5-0.5,17
			c-0.3,17.2,0.2,8.4-0.6,30.7c-0.1,3.9,0.2,12.7-0.2,18.7c-0.1,6.8,0,7.1-0.2,10.5c0.1,9.4-22.8,7.7-22.9,12
			c-0.1,9.9,23.5,62.2,23.8,85.1c0,0.8,0,1.7-0.1,2.6c-0.3,17.2,0.2,8.4-0.6,30.7c-0.1,3.9,0.2,12.7-0.2,18.7
			c-0.1,6.8,0,7.1-0.2,10.5c0.1,9.4,0.1,7.9,0.1,12.3c-0.1,11.8,0.9,82.6,1.1,94.1c-0.1,2.8-0.2,5.3-0.2,8.2
			c-0.3,17.2,0.2,8.4-0.6,30.7c-0.1,3.9,0.2,12.7-0.2,18.7c-0.1,6.8-22.9-4.3-23-0.8c0.1,9.4,19.3,37.8,19.3,42.2
			c-0.1,10.4,4.3,48.9,4.6,69.6c0,1.5-0.1,3-0.1,4.6c-0.3,17.2,0.2,8.4-0.6,30.7c-0.1,3.9,0.2,12.7-0.2,18.7
			c-0.1,6.8,0,7.1-0.2,10.5c0.1,9.4,0.1,7.9,0.1,12.3c-0.1,11.3-20.8,68.3-20.5,83.6c-0.1,2.4,21.4,13.5,21.4,16
			c-0.3,17.2,0.2,8.4-0.6,30.7c-0.1,3.9,0.2,12.7-0.2,18.7c-0.1,6.8,0,7.1-0.2,10.5c0.1,9.4,0.1,7.9,0.1,12.3
			c-0.1,7.8,0.3,41.4,0.7,66.6c0.7,2.9,1.1,6,1.1,9.2c0,0.9,0,1.8-0.1,2.6c5.5-2,11.4-3,17.6-3c21,0,39.4,12.4,49.7,30.9
			c0.2,1.7,0.3,3.5,0.3,5.2c0.3,17-5.5,32.6-15.1,44.1c2.2,3.7,4.2,7.5,5.9,11.5c7-3.3,14.7-5.1,22.7-5.1c0.6,0,1.1,0,1.7,0.1
			c0-1.8,0-4.4-0.1-8c0.3-6.9,0.4-14.4,0.4-14.4l0-20.6c-0.4-20.6-0.3-7.4,0.2-34.6c0.1-4.2,17.4-7.1,17.4-9.6
			c0.6-21.6-18.2-74.1-18.1-82c0-1.6,0.4-2.3,0.1-13.8c0.3-6.9,0.4-14.4,0.4-14.4l0-20.6c-0.4-20.6-0.3-7.4,0.2-34.6
			c0.1-2.6,0.1-4.4,0.1-6c0.6-21.6-0.9-74.6-0.8-82.5c0-1.6,0.4-2.3,0.1-13.8c0.3-6.9,18-17.2,18-17.2l-17.7-17.8
			c-0.4-18.9-0.4-9.4,0.1-28.7c0.5-6.6,0.4-20.4,0.2-35.2c0.1-0.4,0.1-0.7,0-1.1c-0.3-22.2-0.9-46.3-0.8-51.5
			c0-1.6,0.4-2.3,0.1-13.8c0.3-6.9,0.4-14.4,0.4-14.4l0-20.6c-0.4-20.6,18.3-3.2,18.9-30.4c0.1-4-18.5-10.5-18.5-12.9
			c0.6-21.6-0.9-74.6-0.8-82.5c0-1.6,0.4-2.3,0.1-13.8c0.3-6.9,0.4-14.4,0.4-14.4l0-20.6c-0.3-15.7-0.4-11.8-0.1-21.1
			c0.7-5.7,0.6-23.8,0.4-42.4c0.1-0.6,0.2-1.2,0-1.7c-0.3-20.5-0.8-41-0.7-45.7c0-1.6,0.4-2.3,0.1-13.8c0.3-6.9,0.4-14.4,0.4-14.4
			l0-20.6c-0.4-20.6-0.3-7.4,0.2-34.6c0.2-8.2,0.1-9.1-0.1-19.2c1.4-11.5,7.7-60.5,10.5-64c8.3-10.5,15.9-15.8,22.7-20.1
			c3.3,1.8,7.2,2.8,11.2,2.8c7.7,0,14.6-3.6,18.7-9.1c2.5,2.6,6.1,4.3,10.1,4.3c7.2,0,13.1-5.3,13.4-12c9.5-1.9,16.6-9.7,16.6-19.1
			c0-10.8-9.4-19.5-21-19.5c-2.9,0-5.7,0.5-8.2,1.5c-0.1-0.3-0.3-0.6-0.5-0.8c4.9-5.9,9.9-11.7,14.6-18.4c3.3,1,6.8,1.5,10.4,1.5
			c20.8,0,37.8-17.8,38.7-40.1c27.3-6.3,47.8-32.6,47.8-64C713.4,1788.2,712.7,1782.6,711.4,1777.3z M411.4,1952.2
			c-7.7-12.3-13.6-21.8-18.3-29.5c2.4-1.5,4.1-3.9,4.2-6.6c7.3-1.3,12.8-6.8,12.8-13.4c0-7.6-7.3-13.7-16.3-13.7
			c-2.2,0-4.4,0.4-6.3,1.1c-0.4-0.7-0.9-1.5-1.4-2.1c8.3-5.1,15.5-12,21.1-20.3c9.3,17.2,26.3,44.6,35.5,72
			C447.2,1953.5,434.9,1989.8,411.4,1952.2z M472.6,1932.6c-4.6-9.4-24-35.7-31.4-51.7c8.2-1,15.6-4.7,21.4-10.3
			c5.5,3.1,11.8,4.9,18.4,4.9c1.4,0,2.7-0.1,4-0.2c0.1,0.1,0.1,0.2,0.2,0.4C478.4,1911.9,478.5,1944.6,472.6,1932.6z M508.4,1934.4
			c-17,11.2-15.9,0.7-11.5-29.7c0.5-3.7,1.1-7,1.8-10c7.4,7.5,16.4,13.1,26.4,16.3C520.1,1921.8,514.5,1930.4,508.4,1934.4z
			 M550.4,1932.4c-7.4,0.3-13.2,5.9-13.2,12.8c0,1.5,0.3,2.9,0.8,4.2c-19.1,5.9-29.2,12.9-12.5-7.7c6.7-8.3,13.7-17.9,20.2-27.7
			c2.8-0.1,5.5-0.4,8.2-0.8c-2.6,3.9-4.2,8.6-4.2,13.6C549.7,1928.6,549.9,1930.5,550.4,1932.4z M587.7,1902.8
			c-2-0.8-4.1-1.3-6.3-1.6c6.4-4.8,11.9-10.8,16.4-17.6c0.1,0.1,0.2,0.2,0.2,0.3C594.5,1890.4,591.1,1896.8,587.7,1902.8z"/>
	</g>
	<g id="Stage_9_Sumatran_Stump" class="st24">
		<g>
			<path class="st38" d="M305.8,2397.3c1.5-12.1-0.5-83-0.4-92.4c0-1.7,0.4-2.3,0.1-14.1c0.3-7.1,0.4-14.8,0.4-14.8l0-21.1
				c-0.4-21.2-0.3-7.6,0.2-35.6c0.2-10.9,0-9.3-0.2-31.6c-5.5,6.6-8.3,7.6-15,10.5c-13.7,5.8-24.8,7.2-38.6,2.9
				c-8.5-2.7-21-4-27.3-14.8c-0.7,13.7-0.8,22.2-1.1,34.2c-0.2,7.1-0.4,11.8-0.5,17.5c-0.3,17.7,0.2,8.6-0.6,31.6
				c-0.1,4,0.2,13.1-0.2,19.3c-0.1,7,0,7.2-0.2,10.8c0.1,9.7,0.1,8.2,0.1,12.6c-0.1,12.4,0.9,88.4,1.1,97.4"/>
			<g id="Top_Stump_Old_Growth_00000122678059214476972580000011952149713104334000_">
				<path class="st39" d="M290.3,2200.1c-8.4,2.9-15.1,3.8-23.7,4.6c-3.8,0-24.4-2.5-28.8-5.5c-5.8-4-12.6-11-12.6-12.5
					c-0.1-2.1,5.4-1.3,7.8-1.7c10.3-1.8,15.9-2.3,23.4-2.9c12.7-1.1,12.1-1.7,26.4,0c1.9,0.2,18.3,2.7,20.3,3.4c6,2.2,1.9,7,0.7,8.2
					c-4,5.3-7,3.3-11.8,5.6"/>
				<path class="st38" d="M270.1,2181c-3.6,0-6.6,0.4-13.6,1.1c-3.7,0.3-6.9,0.6-10.5,1c-2.7,0.7-5.4,1.7-8,2.8l-2.3,1
					c11.5,3.5,23.2,5.2,34.9,5.3h3.4c4.2-0.3,8.8,0.5,12.6-4c-6.1-1.8-12.2-2.8-18.4-2.9c-2.3,0-4.6,0.2-6.8,0.6h-0.5v0l6.8,1.5
					l-6.1-1.5c1.2,0,2.4,0,3.6,0c6.5-0.1,13.1,0.8,19.5,2.7c-3.3,2.7-7.2,2-10.8,2.3H272c-3.4,0-6.8-0.2-10.1-0.5
					c-7.1-0.6-14.3-1.9-21.4-3.8c4.8-1.6,9.6-2.8,14.5-3.3c4.5-0.5,9-0.7,13.6-0.7c9.8,0,19.5,1.1,29.2,3.3c0.4,0.2,3.4,1.2,2.3,2.1
					c-12.2,3.6-28.2,9.6-43,9.6c-10.5,0-20.5-3-28.2-12.1c8.1,9.8,18.5,13.1,29.4,13.1c14.6,0,30-5.7,42.1-9.3
					c0.1-0.1,0.3-0.2,0.4-0.3c0.1-0.2,0.2-0.4,0.3-0.6c0.1-0.2,0.1-0.5,0.1-0.8c0-0.3,0-0.5,0-0.8c-0.2-0.6-0.5-1.2-0.9-1.5
					s-0.8-0.6-1.2-0.7c-5.6-1-14.8-2.4-16.2-2.7C276.4,2181.3,273,2181,270.1,2181z"/>
			</g>
		</g>
	</g>
	<g id="Stage_10_Sumatran_Stump" class="st24">
		<g>
			<path class="st38" d="M305.8,2233.4c1.5-12.1-0.5-83-0.4-92.4c0-1.7,0.4-2.3,0.1-14.1c0.3-7.1,0.4-14.8,0.4-14.8l0-21.1
				c-0.4-21.2-0.3-7.6,0.2-35.6c0.2-10.9,0-9.3-0.2-31.6c-5.5,6.6-8.3,7.6-15,10.5c-13.7,5.8-24.8,7.2-38.6,2.9
				c-8.5-2.7-21-4-27.3-14.8c-0.7,13.7-0.8,22.2-1.1,34.2c-0.2,7.1-0.4,11.8-0.5,17.5c-0.3,17.7,0.2,8.6-0.6,31.6
				c-0.1,4,0.2,13.1-0.2,19.3c-0.1,7,0,7.2-0.2,10.8c0.1,9.7,0.1,8.2,0.1,12.6c-0.1,12.4,0.9,88.4,1.1,97.4"/>
			<g id="Top_Stump_Old_Growth_00000181048881037227966250000000596077239476416942_">
				<path class="st39" d="M290.3,2036.1c-8.4,2.9-15.1,3.8-23.7,4.6c-3.8,0-24.4-2.5-28.8-5.5c-5.8-4-12.6-11-12.6-12.5
					c-0.1-2.1,5.4-1.3,7.8-1.7c10.3-1.8,15.9-2.3,23.4-2.9c12.7-1.1,12.1-1.7,26.4,0c1.9,0.2,18.3,2.7,20.3,3.4c6,2.2,1.9,7,0.7,8.2
					c-4,5.3-7,3.3-11.8,5.6"/>
				<path class="st38" d="M270.1,2017.1c-3.6,0-6.6,0.4-13.6,1.1c-3.7,0.3-6.9,0.6-10.5,1c-2.7,0.7-5.4,1.7-8,2.8l-2.3,1
					c11.5,3.5,23.2,5.2,34.9,5.3h3.4c4.2-0.3,8.8,0.5,12.6-4c-6.1-1.8-12.2-2.8-18.4-2.9c-2.3,0-4.6,0.2-6.8,0.6h-0.5v0l6.8,1.5
					l-6.1-1.5c1.2,0,2.4,0,3.6,0c6.5-0.1,13.1,0.8,19.5,2.7c-3.3,2.7-7.2,2-10.8,2.3H272c-3.4,0-6.8-0.2-10.1-0.5
					c-7.1-0.6-14.3-1.9-21.4-3.8c4.8-1.6,9.6-2.8,14.5-3.3c4.5-0.5,9-0.7,13.6-0.7c9.8,0,19.5,1.1,29.2,3.3c0.4,0.2,3.4,1.2,2.3,2.1
					c-12.2,3.6-28.2,9.6-43,9.6c-10.5,0-20.5-3-28.2-12.1c8.1,9.8,18.5,13.1,29.4,13.1c14.6,0,30-5.7,42.1-9.3
					c0.1-0.1,0.3-0.2,0.4-0.3c0.1-0.2,0.2-0.4,0.3-0.6c0.1-0.2,0.1-0.5,0.1-0.8c0-0.3,0-0.5,0-0.8c-0.2-0.6-0.5-1.2-0.9-1.5
					s-0.8-0.6-1.2-0.7c-5.6-1-14.8-2.4-16.2-2.7C276.4,2017.4,273,2017.1,270.1,2017.1z"/>
			</g>
		</g>
	</g>
	<g class="st24">
		<path class="st40" d="M-137.6,1681c0,0,308.8-6.2,334.4,0s52.6,1.4,55.4-4.8c2.8-6.2,36.7,6.9,31.8-11.1
			c-4.8-18-24.2-36.7-59.5-31.8s-47.1-8.3-62.3-18c-15.2-9.7-36-102.5-103.2-73.4s-54,72-49.8,74.1s0,6.9-20.1,9.7
			c-20.1,2.8-42.2,15.9-29.8,20.8c12.5,4.8-10.4,16.6-29.8,17.3c-19.4,0.7-31.8,7.6-24.2,7.6C-87.1,1671.3-137.6,1681-137.6,1681z"
			/>
		<path class="st41" d="M-72,1680.4c0,0,213.8-4.3,231.5,0c17.7,4.3,36.4,1,38.3-3.4c1.9-4.3,25.4,4.8,22-7.7
			c-3.4-12.5-16.8-25.4-41.2-22s-32.6-5.8-43.1-12.5c-10.5-6.7-19.3-84.3-58.4-52c-48.9,40.5-68.3,22.2-47.6,52.5
			c1.8,2.7,0,4.8-13.9,6.7s-29.2,11-20.6,14.4s-7.2,11.5-20.6,12s-22,5.3-16.8,5.3S-72,1680.4-72,1680.4z"/>
	</g>
	<g id="Congrats_Sumatran_Stump" class="st24">
		<g>
			<path class="st38" d="M305.8,2284.5c1.5-12.1-0.5-83-0.4-92.4c0-1.7,0.4-2.3,0.1-14.1c0.3-7.1,0.4-14.8,0.4-14.8l0-21.1
				c-0.4-21.2-0.3-7.6,0.2-35.6c0.2-10.9,0-9.3-0.2-31.6c-5.5,6.6-8.3,7.6-15,10.5c-13.7,5.8-24.8,7.2-38.6,2.9
				c-8.5-2.7-21-4-27.3-14.8c-0.7,13.7-0.8,22.2-1.1,34.2c-0.2,7.1-0.4,11.8-0.5,17.5c-0.3,17.7,0.2,8.6-0.6,31.6
				c-0.1,4,0.2,13.1-0.2,19.3c-0.1,7,0,7.2-0.2,10.8c0.1,9.7,0.1,8.2,0.1,12.6c-0.1,12.4,0.9,88.4,1.1,97.4"/>
		</g>
		<path class="st38" d="M305.8,2089.3c0,0,7.5-64.1,10.6-68.2c19.2-25.2,34.7-21.2,43.8-44.3c9.2-23,24.3-34.1,35.7-53.6
			c9.1-15.5,15.7-19.9,35.1-51.7c19.4-31.8,46.8-97.2,41.9-95.8s-44.7,72.4-46.3,77.8s1.6-29.8,1.6-48.1
			c0-18.3-70.1,168.5-97.5,173.3s-48,22.3-27.5-4.1c20.5-26.4,43.7-65.7,45.3-83.9c1.6-18.3,14-52.8,30.7-76.5
			c16.7-23.7,20.5-43.3,19.4-54.8c-1.1-11.5-72.2-17.6-63.6,0.7c8.6,18.3-4.3,86-11.9,117.1c-7.5,31.1-19.9,78.5-36.6,90
			c-16.7,11.5-15.6,0.7-11.3-30.5s12.4-35.9,19.4-70.4c7-34.5,9.2-54.1,5.9-93.4c-3.2-39.3-18.3-63.6-19.4-52.1
			c-1.1,11.5-3.8,127.2-14,169.9c-10.2,42.6-9.1,88.8-15.8,74.6c-5.5-11.8-32.6-49.1-33.7-62c-1.1-12.9,9-45.8,11.7-64.1
			c2.7-18.3,9.2-102.9,8.6-108.3s-8.1-2.7-8.1-2.7s-8.6,145.5-22.6,159.7s-13.5,11.5-12.9-20.3c0.5-31.8-0.5-87.3-1.1-108.3
			s-11.9-25-13.5-8.1s-3.8,122.5,2.7,138.1s28.5,49.4,39.3,83.2c4.5,14.2-7.5,51.4-30.7,12.9s-30.2-50.8-35.6-63.6
			c-5.4-12.9-20.8-11-28.4-38c-7.5-27.1-26.6-87.2-29.3-109.5l-28-14.2c0,0,31.8,122.5,38.3,134.7c6.5,12.2,25.6,19.3,36.6,42.6
			c11.1,23.4,37.2,70.4,57.7,92.7c20.5,22.3,22,33.2,22.6,63.6c0.7,33.8,0.5,61.6,0.5,61.6l62.5-4.1L305.8,2089.3z"/>
		<path class="st42" d="M349.7,1973.7c-14.4-11-27.9-0.5-41.3,7.7c-7.3,4.5-18.9,13.3-27.9,12c-9.4-1.4-14.9-13.9-18.7-20.9
			c-9-16.4-31.7-22.6-49.7-23.9c-15.6-1.2-29.3-1.7-39.6-16.9c-4.8-7.1-16.5-0.4-11.6,6.8c9.6,14.1,26,18.2,42.2,18.9
			c10.6,0.5,21.6-0.3,31.9,3.2c9.5,3.2,16.6,10.6,20.5,19.7c3.4,7.8,6.4,14.8,14.6,18.6c7.1,3.3,15.6,3.1,23,0.9
			c14.7-4.5,34.2-26.4,50-14.4C349.8,1990.5,356.5,1978.8,349.7,1973.7z"/>
		<g>
			<path class="st43" d="M301.3,1805.7c0-37.1-26.6-67.2-59.4-67.2c-8.2,0-16,1.9-23.1,5.3c-12.6-30-39.6-50.8-70.9-50.8
				c-43.3,0-78.4,39.7-78.4,88.7c0,6.7,0.7,13.3,1.9,19.5c-20.9,0.9-37.5,20.4-37.5,44.2c0,24.4,17.5,44.2,39.1,44.2
				c1.3,0,2.7-0.1,4-0.2c10.8,23.5,32.5,39.6,57.6,39.6c22,0,41.3-12.3,53.1-31.2c7,9.1,17.3,14.8,28.7,14.8
				c20.5,0,37.2-18.3,38-41.2C281.2,1864.9,301.3,1838,301.3,1805.7z"/>
			<g>
				<path class="st44" d="M291.2,1742.3c0.2,1.8,0.3,3.5,0.3,5.4c0.5,31.7-19.1,58.3-45.4,64.7c-0.8,22.2-17,39.9-36.8,39.9
					c-11.1,0-21-5.6-27.8-14.3c-11.4,18.2-30.1,30.2-51.4,30.2c-24.3,0-45.3-15.6-55.7-38.4c-1.3,0.1-2.5,0.2-3.8,0.2
					c-16.3,0-30.2-11.6-35.5-27.9c-1.6,4.8-2.4,10-2.4,15.4c0,24.4,17.5,44.2,39.1,44.2c1.3,0,2.7-0.1,4-0.2
					c10.8,23.5,32.5,39.6,57.6,39.6c22,0,41.3-12.3,53.1-31.2c7,9.1,17.3,14.8,28.7,14.8c20.5,0,37.2-18.3,38-41.2
					c26.8-6.5,46.9-33.4,46.9-65.7C300.1,1764.8,296.9,1752.6,291.2,1742.3z"/>
				<path class="st44" d="M68.8,1743.1c0,0.4-0.1,0.9-0.1,1.3c0.1,0,0.2,0,0.4,0C68.9,1744,68.8,1743.6,68.8,1743.1z"/>
				<path class="st45" d="M70.5,1830c1.3,0,2.6-0.1,3.8-0.2c10.5,22.8,31.5,38.4,55.7,38.4c21.2,0,40-11.9,51.4-30.2
					c6.8,8.8,16.7,14.3,27.8,14.3c19.8,0,36-17.7,36.8-39.9c26.3-6.4,45.9-33,45.4-64.7c0-1.8-0.1-3.6-0.3-5.4
					c-10.5-19.1-29.2-31.8-50.5-31.8c-8.2,0-16,1.9-23.1,5.3c-12.6-30-39.6-50.8-70.9-50.8c-40.2,0-73.3,34.1-77.9,78.1
					c0.1,0.4,0.2,0.9,0.2,1.3c-0.1,0-0.2,0-0.4,0c-0.3,3-0.4,6.1-0.4,9.2c0,6.7,0.7,13.3,1.9,19.5C54,1774,40.4,1785.7,35,1802
					C40.4,1818.3,54.3,1830,70.5,1830z"/>
			</g>
			<ellipse class="st45" cx="192.2" cy="1711" rx="30.8" ry="34.8"/>
		</g>
		<g>
			<g>
				<path class="st44" d="M190.9,1671.4c0,0.4-0.1,0.9-0.1,1.3c0.1,0,0.2,0,0.4,0C191.1,1672.3,191,1671.9,190.9,1671.4z"/>
				<path class="st45" d="M192.7,1758.3c1.3,0,2.6-0.1,3.8-0.2c10.5,22.8,31.5,38.4,55.7,38.4c21.2,0,40-11.9,51.4-30.2
					c6.8,8.8,16.7,14.3,27.8,14.3c19.8,0,36-17.7,36.8-39.9c26.3-6.4,45.9-33,45.4-64.7c0-1.8-0.1-3.6-0.3-5.4
					c-10.5-19.1-29.2-31.8-50.5-31.8c-8.2,0-16,1.9-23.1,5.3c-12.6-30-39.6-50.8-70.9-50.8c-40.2,0-73.3,34.1-77.9,78.1
					c0.1,0.4,0.2,0.9,0.2,1.3c-0.1,0-0.2,0-0.4,0c-0.3,3-0.4,6.1-0.4,9.2c0,6.7,0.7,13.3,1.9,19.5c-16.1,0.7-29.7,12.5-35.1,28.8
					C162.5,1746.6,176.4,1758.3,192.7,1758.3z"/>
			</g>
			<ellipse class="st45" cx="314.3" cy="1639.3" rx="30.8" ry="34.8"/>
		</g>
		<g>
			<path class="st43" d="M488,1823c0-37.1-26.6-67.2-59.4-67.2c-8.2,0-16,1.9-23.1,5.3c-12.6-30-39.6-50.8-70.9-50.8
				c-43.3,0-78.4,39.7-78.4,88.7c0,6.7,0.7,13.3,1.9,19.5c-20.9,0.9-37.5,20.4-37.5,44.2c0,24.4,17.5,44.2,39.1,44.2
				c1.3,0,2.7-0.1,4-0.2c10.8,23.5,32.5,39.6,57.6,39.6c22,0,41.3-12.3,53.1-31.2c7,9.1,17.3,14.8,28.7,14.8
				c20.5,0,37.2-18.3,38-41.2C467.9,1882.2,488,1855.2,488,1823z"/>
			<path class="st43" d="M407.6,1966.5c0-11.1-9.2-20.1-20.6-20.1c-2.8,0-5.6,0.6-8,1.6c-4.4-9-13.7-15.2-24.6-15.2
				c-15,0-27.2,11.8-27.2,26.5c0,2,0.2,4,0.7,5.8c-7.2,0.3-13,6.1-13,13.2c0,7.3,6.1,13.2,13.6,13.2c0.5,0,0.9,0,1.4-0.1
				c3.7,7,11.3,11.8,20,11.8c7.6,0,14.3-3.7,18.4-9.3c2.4,2.7,6,4.4,10,4.4c7.1,0,12.9-5.5,13.2-12.3
				C400.6,1984.2,407.6,1976.2,407.6,1966.5z"/>
			<path class="st43" d="M189.9,1934.7c0-7.8-7.2-14-16-14c-2.2,0-4.3,0.4-6.2,1.1c-3.4-6.3-10.6-10.6-19.1-10.6
				c-11.6,0-21.1,8.3-21.1,18.5c0,1.4,0.2,2.8,0.5,4.1c-5.6,0.2-10.1,4.3-10.1,9.2c0,5.1,4.7,9.2,10.5,9.2c0.4,0,0.7,0,1.1,0
				c2.9,4.9,8.7,8.3,15.5,8.3c5.9,0,11.1-2.6,14.3-6.5c1.9,1.9,4.6,3.1,7.7,3.1c5.5,0,10-3.8,10.2-8.6
				C184.5,1947.1,189.9,1941.5,189.9,1934.7z"/>
			<g>
				<path class="st42" d="M477.9,1759.6c0.2,1.8,0.3,3.5,0.3,5.4c0.5,31.7-19.1,58.3-45.4,64.7c-0.8,22.2-17,39.9-36.8,39.9
					c-11.1,0-21-5.6-27.8-14.3c-11.4,18.2-30.1,30.2-51.4,30.2c-24.3,0-45.3-15.6-55.7-38.4c-1.3,0.1-2.5,0.2-3.8,0.2
					c-16.3,0-30.2-11.6-35.5-27.9c-1.6,4.8-2.4,10-2.4,15.4c0,24.4,17.5,44.2,39.1,44.2c1.3,0,2.7-0.1,4-0.2
					c10.8,23.5,32.5,39.6,57.6,39.6c22,0,41.3-12.3,53.1-31.2c7,9.1,17.3,14.8,28.7,14.8c20.5,0,37.2-18.3,38-41.2
					c26.8-6.5,46.9-33.4,46.9-65.7C486.9,1782,483.6,1769.9,477.9,1759.6z"/>
				<path class="st44" d="M255.5,1760.4c0,0.4-0.1,0.9-0.1,1.3c0.1,0,0.2,0,0.4,0C255.7,1761.3,255.6,1760.8,255.5,1760.4z"/>
				<path class="st45" d="M257.3,1847.2c1.3,0,2.6-0.1,3.8-0.2c10.5,22.8,31.5,38.4,55.7,38.4c21.2,0,40-11.9,51.4-30.2
					c6.8,8.8,16.7,14.3,27.8,14.3c19.8,0,36-17.7,36.8-39.9c26.3-6.4,45.9-33,45.4-64.7c0-1.8-0.1-3.6-0.3-5.4
					c-10.5-19.1-29.2-31.8-50.5-31.8c-8.2,0-16,1.9-23.1,5.3c-12.6-30-39.6-50.8-70.9-50.8c-40.2,0-73.3,34.1-77.9,78.1
					c0.1,0.4,0.2,0.9,0.2,1.3c-0.1,0-0.2,0-0.4,0c-0.3,3-0.4,6.1-0.4,9.2c0,6.7,0.7,13.3,1.9,19.5c-16.1,0.7-29.7,12.5-35.1,28.8
					C227.1,1835.6,241,1847.2,257.3,1847.2z"/>
			</g>
		</g>
	</g>
	<g class="st24">
		<path class="st40" d="M312.9,1731.9c0,0,250.9-14,271.8-8.9c20.9,5.1,43,1.1,45.2-4c2.3-5.1,30,5.7,26-9c-4-14.7-19.8-30-48.6-26
			c-28.8,4-38.4-6.8-50.9-14.7c-12.4-7.9-29.4-83.7-84.2-59.9c-54.8,23.7-44.1,58.8-40.7,60.5c3.4,1.7,0,5.7-16.4,7.9
			c-16.4,2.3-34.5,13-24.3,17c10.2,4-8.5,13.6-24.3,14.1c-15.8,0.6-26,6.2-19.8,6.2C353,1715.1,312.9,1731.9,312.9,1731.9z"/>
		<path class="st41" d="M365.8,1725.3c0,0,174.5-3.5,189,0s29.7,0.8,31.3-2.7c1.6-3.5,20.7,3.9,18-6.3c-2.7-10.2-13.7-20.7-33.7-18
			c-20,2.7-26.6-4.7-35.2-10.2c-8.6-5.5-15.8-68.8-47.6-42.4c-39.9,33.1-55.8,18.1-38.8,42.8c1.5,2.2,0,3.9-11.3,5.5
			c-11.3,1.6-23.9,9-16.8,11.7c7,2.7-5.9,9.4-16.8,9.8s-18,4.3-13.7,4.3S365.8,1725.3,365.8,1725.3z"/>
	</g>
	<g class="st24">
		<g>
			<g>
				<path class="st46" d="M256.6,1932.8c0,0-9.2,1-14.3-10.3c-5.2-11.3-3.2-11.3-3.2-11.3s14.9,1.6,16.9,10.1
					S256.6,1932.8,256.6,1932.8z"/>
			</g>
			<g>
				<path class="st46" d="M236,1929.6c0,0-5.7-2-5.7-10.2c0-8.2,1.2-7.7,1.2-7.7s8.5,5.1,7.3,10.8
					C237.6,1928.2,236,1929.6,236,1929.6z"/>
			</g>
			<g>
				<path class="st46" d="M217.4,1927.5c0,0-6.9-7.7,0-19.9s8.2-10.4,8.2-10.4s8.4,14.6,1.9,22
					C220.9,1926.7,217.4,1927.5,217.4,1927.5z"/>
			</g>
			<g>
				<path class="st46" d="M209.9,1911.4c0,0-4.4-4-1.2-11.3c3.2-7.3,4.1-6.4,4.1-6.4s5.6,7.8,2.3,12.4
					C211.9,1910.7,209.9,1911.4,209.9,1911.4z"/>
			</g>
			<g>
				<path class="st46" d="M187.9,1899.3c0,0,2.3-6.9,12.1-6.9c9.8,0,9.2,1.5,9.2,1.5s-6.1,10.2-12.8,8.7S187.9,1899.3,187.9,1899.3z
					"/>
			</g>
			<g>
				<path class="st46" d="M195.4,1908.1c0,0-11.4,0.8-17.4-13.5c-6-14.3-3.5-14.2-3.5-14.2s18.5,2.6,20.5,13.3
					S195.4,1908.1,195.4,1908.1z"/>
			</g>
		</g>
	</g>
	<g class="st24">
		<g>
			<g>
				<path class="st46" d="M297.6,1945.7c0,0-2.4-8.3,7.2-14.9c9.6-6.6,9.9-4.8,9.9-4.8s0.9,14-6.7,17.2
					C300.5,1946.4,297.6,1945.7,297.6,1945.7z"/>
			</g>
			<g>
				<path class="st46" d="M282.5,1959.1c0,0-5.9-12.2,7.1-25.1c13-12.9,14.1-10.1,14.1-10.1s5.3,21.5-5.6,28.4
					C287.2,1959.3,282.5,1959.1,282.5,1959.1z"/>
			</g>
			<g>
				<path class="st46" d="M272.3,1957.1c0,0-5.4-8.7,3.4-19.3c8.8-10.6,9.8-8.6,9.8-8.6s5.6,15.7-2,21.7
					C275.9,1956.9,272.3,1957.1,272.3,1957.1z"/>
			</g>
			<g>
				<path class="st46" d="M244.7,1941.8c0,0,8.4-10.8,25.9-4.8s15.4,8.2,15.4,8.2s-17.1,14.4-28.3,7.7
					C246.5,1946.2,244.7,1941.8,244.7,1941.8z"/>
			</g>
		</g>
	</g>
</g>
</svg>
