<?xml version="1.0" encoding="utf-8"?>
<!-- Generator: Adobe Illustrator 26.2.1, SVG Export Plug-In . SVG Version: 6.00 Build 0)  -->
<svg version="1.1" id="Layer_1" xmlns="http://www.w3.org/2000/svg" xmlns:xlink="http://www.w3.org/1999/xlink" x="0px" y="0px"
	 viewBox="0 0 428 2136.5" style="enable-background:new 0 0 428 2136.5;" xml:space="preserve">
<style type="text/css">
	.st0{opacity:0.78;}
	.st1{fill:#6D5341;}
	.st2{fill:#C19F87;}
	.st3{fill:#82B880;}
	.st4{fill:#458144;}
	.st5{fill:#66A566;}
	.st6{fill:#80BE80;}
	.st7{fill:#386A38;}
</style>
<g id="Layer_1_00000153675157064098978880000012107090250208182671_">
	<g id="a">
		<g id="b" class="st0">
		</g>
	</g>
	<g id="c">
		<g id="d">
			<g>
				<path id="e" class="st1" d="M245.4,2075.2c0,0,6.1,15.6,14.1,20.8c9.3,5.9,1.5,6.4-3,5.8c-4.5-0.6-12.4-4.7-15.4-8.4
					s-56.1,12.3-63,12.9s-14.7,1.8-15.8-0.4s7.5-4.4,10.5-12.1c3-7.7,5.5-21.8,7.2-24.6C183.6,2063.5,245.4,2075.2,245.4,2075.2
					L245.4,2075.2z"/>
				<path class="st1" d="M257.2,2101.9c-2.9-3.6-5.8-6.5-8.6-9.1c-0.7-0.6-1.2-1.5-1.7-2.4c-0.2-2.8-0.4-5.4-0.4-5.4v-0.3
					c-0.6-11.5-0.7-34.5-1.9-52.4c-0.6-8.1-0.6-9.4-0.8-26.1c-4.1,4.9-10,5-15,7.1c-10.2,4.3-18.5,5.4-28.8,2.2
					c-6.3-2-14.4-2.6-19.1-10.6c0.7,12.4,0,17.5,0.1,26.4c0.1,4.2-0.2,11.3-0.4,15.5c-0.7,11.5-0.1,15.9-2.4,26.8
					c-0.5,2.9-0.9,5.9-1.2,8.9c-0.3,2.6-0.6,5.2-0.6,7.8c-0.3,2.4-0.6,5.5-0.8,8.8c-0.5,8.4-4.6,10.4-9.8,12.1
					c-5.1,1.7-7.5,4.1-7.5,4.1s-10.2,8.6-3,6.2c3.5-1.2,13.9-5.7,18.2-5.8s7.8,0.1,12.4-3.1c4.6-3.2,3.7-5.3,11-4.2
					c4.4,0.7,5.9,4.7,2.9,14.4c-2.8,8.8-0.7,15.1,3.2,14.2c1.4-0.3,6.3-16.3,13.4-22.6c2.1-1.8,2.8-2.6,5.9-4.3
					c4.2-2.3,7.4-0.5,14.4,4.6c5.4,3.9,6.8,6.1,9.1,7.8s4.7-1.4,1.9-5.4s-3.8-3.4-6.6-10.9s4.3-1.7,10,2.1c6.1,4,16.8,6,19.5,5.5
					C272.9,2113.2,260.2,2105.5,257.2,2101.9L257.2,2101.9z"/>
				<g id="f">
					<path class="st2" d="M230.7,2014.2c-6.2,2.2-12.6,3.6-18.9,4.2c-2.8,0-17.6-2.1-20.9-4.4c-4.3-2.9-10-7.9-10-9
						c-0.1-1.6,4-0.9,5.8-1.3c7.6-1.4,11.9-1.7,17.4-2.2c9.4-0.8,9-1.2,19.6,0c1.4,0.2,13.6,2,15.1,2.5c3.6,1.3,5,1.6,4.9,2.1
						c0,0.1,0,0.2-0.1,0.3c-3,3.9-9.6,6.2-13.1,7.9"/>
					<path class="st1" d="M214.4,2000.7c-2.7,0-4.9,0.3-10.1,0.8c-2.8,0.3-5.2,0.4-7.8,0.8c-2,0.6-4,1.2-6,2.1l-1.7,0.7
						c8.6,2.6,17.3,3.9,26,3.9h2.5c3.2-0.2,6.6,0.3,9.4-3c-4.5-1.4-9.1-2.1-13.7-2.2c-1.7,0-3.4,0.1-5,0.4h-0.4l0,0l5.1,1.1
						l-4.6-1.1h2.7c4.9-0.1,9.7,0.6,14.5,2c-2.5,2-5.4,1.5-8.1,1.7h-1.4c-2.5,0-5-0.1-7.5-0.3c-5.3-0.4-10.6-1.4-15.9-2.8
						c3.6-1.2,7.2-2.1,10.8-2.5c3.4-0.4,6.7-0.6,10.1-0.6c7.3,0,14.5,0.8,21.7,2.5c0.3,0.1,2.6,0.9,1.7,1.6
						c-9.1,2.7-21,7.2-32.1,7.2c-7.9,0-15.3-2.2-21-9c6,7.3,13.8,9.7,21.9,9.7c10.8,0,22.4-4.3,31.4-6.9c0.1-0.1,0.2-0.1,0.3-0.3
						c0.1-0.1,0.2-0.3,0.2-0.4c0.1-0.2,0.1-0.4,0.1-0.6s0-0.4,0-0.6c-0.2-0.5-0.4-0.9-0.7-1.1c-0.3-0.3-0.6-0.4-0.9-0.5
						c-4.2-0.8-11.1-1.8-12.1-2C219.1,2000.9,216.5,2000.7,214.4,2000.7L214.4,2000.7z"/>
				</g>
			</g>
		</g>
	</g>
	<g id="g">
	</g>
	<g id="h">
		<g id="i">
		</g>
		<g id="j">
		</g>
	</g>
	<g id="k">
		<g id="l">
		</g>
		<g id="m">
		</g>
	</g>
</g>
<g id="TreeTop_x5F_Sumatran">
	<path class="st1" d="M243.7,2004.9c0,0,2.3-45,4.6-48.1c14.3-18.8,25.8-15.8,32.7-33c6.8-17.1,18.1-25.4,26.6-39.9
		c6.8-11.5,2.6-15,17-38.7s-20.2-2.5-23.8-1.5c-3.6,1,30.8-15.8,29.6-11.8c-1.2,4-22.2,7.1-22.2-6.5c0-13.6-28.8,96.3-49.3,99.8
		s-35.7,16.6-20.5-3c15.2-19.7,32.5-48.9,33.7-62.5s-6.1-27.5,6.3-45.2s-12.6-18.2-13.4-26.7s-9.4-39-3-25.4
		c6.4,13.6-3.2,64-8.8,87.2c-5.6,23.2-14.8,58.5-27.3,67s-11.6,0.5-8.4-22.7s9.2-26.7,14.4-52.4c5.2-25.7,6.8-40.3,4.4-69.6
		c-2.4-29.2-13.6-47.4-14.4-38.8c-0.8,8.6-2.8,94.8-10.4,126.5c-7.6,31.8-6.8,66.1-11.7,55.6c-4.1-8.8-24.3-36.6-25.1-46.1
		c-0.8-9.6,6.7-34.1,8.7-47.7s6.8-76.6,6.4-80.6c-0.4-4-6-2-6-2s-6.4,108.4-16.9,118.9c-10.4,10.6-10,8.6-9.6-15.1
		c0.4-23.7,0.2-41.1-0.2-56.7c-0.4-15.6-12.2-4.7-13.4,7.9c-1.2,12.6-0.1,53.3,4.8,64.9s21.2,36.8,29.3,62
		c3.4,10.6-5.6,38.3-22.9,9.6s-22.5-37.8-26.5-47.4c-4-9.6-15.5-8.2-21.1-28.3c-5.6-20.2-3.4-2.6-5.4-19.2l-11.2,8.9
		c0,0-2.5,9.4,2.3,18.5c4.8,9.1,19,14.3,27.3,31.8c8.3,17.5,27.7,52.4,42.9,69c15.2,16.6,16.4,24.7,16.9,47.4
		c0.5,25.2,0.4,45.9,0.4,45.9l64.4-3.6L243.7,2004.9z"/>
	<path class="st3" d="M257.9,1932c-8.1-6.1-15.6-0.3-23.1,4.3c-4.1,2.5-10.6,7.5-15.6,6.7c-5.3-0.8-8.3-7.8-10.5-11.7
		c-5.1-9.2-17.8-12.7-27.8-13.4c-8.8-0.7-16.4-1-22.2-9.5c-2.7-4-9.2-0.2-6.5,3.8c5.4,7.9,14.6,10.2,23.6,10.6
		c6,0.3,12.1-0.2,17.8,1.8c5.3,1.8,9.3,5.9,11.5,11c1.9,4.4,3.6,8.3,8.2,10.4c4,1.8,8.7,1.8,12.9,0.5c8.3-2.5,19.2-14.8,28-8.1
		C258,1941.4,261.7,1934.9,257.9,1932z"/>
	<g>
		<path class="st4" d="M230.8,1838c0-20.8-14.9-37.6-33.3-37.6c-4.6,0-9,1.1-12.9,3c-7-16.8-22.2-28.5-39.7-28.5
			c-24.2,0-43.9,22.2-43.9,49.6c0,3.8,0.4,7.4,1.1,10.9c-11.7,0.5-21,11.4-21,24.7c0,13.7,9.8,24.8,21.9,24.8c0.7,0,1.5,0,2.2-0.1
			c6,13.2,18.2,22.2,32.3,22.2c12.3,0,23.1-6.9,29.7-17.5c3.9,5.1,9.7,8.3,16.1,8.3c11.5,0,20.8-10.2,21.3-23.1
			C219.6,1871.1,230.8,1856,230.8,1838z"/>
		<g>
			<path class="st5" d="M225.2,1802.5c0.1,1,0.1,2,0.2,3c0.3,17.8-10.7,32.7-25.4,36.2c-0.5,12.4-9.5,22.3-20.6,22.3
				c-6.2,0-11.8-3.1-15.6-8c-6.4,10.2-16.9,16.9-28.7,16.9c-13.6,0-25.4-8.7-31.2-21.5c-0.7,0.1-1.4,0.1-2.1,0.1
				c-9.1,0-16.9-6.5-19.9-15.6c-0.9,2.7-1.4,5.6-1.4,8.6c0,13.7,9.8,24.8,21.9,24.8c0.7,0,1.5,0,2.2-0.1c6,13.2,18.2,22.2,32.3,22.2
				c12.3,0,23.1-6.9,29.7-17.5c3.9,5.1,9.7,8.3,16.1,8.3c11.5,0,20.8-10.2,21.3-23.1c15-3.6,26.3-18.7,26.3-36.8
				C230.2,1815,228.3,1808.3,225.2,1802.5z"/>
			<path class="st5" d="M100.7,1802.9c0,0.2-0.1,0.5-0.1,0.7c0.1,0,0.1,0,0.2,0C100.7,1803.4,100.7,1803.2,100.7,1802.9z"/>
			<path class="st6" d="M101.7,1851.5c0.7,0,1.4,0,2.1-0.1c5.9,12.8,17.6,21.5,31.2,21.5c11.9,0,22.4-6.7,28.7-16.9
				c3.8,4.9,9.3,8,15.6,8c11.1,0,20.1-9.9,20.6-22.3c14.7-3.6,25.7-18.5,25.4-36.2c0-1-0.1-2-0.2-3c-5.9-10.7-16.3-17.8-28.3-17.8
				c-4.6,0-9,1.1-12.9,3c-7-16.8-22.2-28.5-39.7-28.5c-22.5,0-41,19.1-43.6,43.7c0,0.2,0.1,0.5,0.1,0.7c-0.1,0-0.1,0-0.2,0
				c-0.2,1.7-0.2,3.4-0.2,5.2c0,3.8,0.4,7.4,1.1,10.9c-9,0.4-16.6,7-19.6,16.1C84.8,1845,92.5,1851.5,101.7,1851.5z"/>
		</g>
		<ellipse class="st6" cx="169.7" cy="1784.9" rx="17.2" ry="19.5"/>
	</g>
	<g>
		<g>
			<path class="st5" d="M169,1762.8c0,0.2-0.1,0.5-0.1,0.7c0.1,0,0.1,0,0.2,0C169.1,1763.3,169.1,1763,169,1762.8z"/>
			<path class="st6" d="M170,1811.4c0.7,0,1.4,0,2.1-0.1c5.9,12.8,17.6,21.5,31.2,21.5c11.9,0,22.4-6.7,28.7-16.9
				c3.8,4.9,9.3,8,15.6,8c11.1,0,20.1-9.9,20.6-22.3c14.7-3.6,25.7-18.5,25.4-36.2c0-1-0.1-2-0.2-3c-5.9-10.7-16.3-17.8-28.3-17.8
				c-4.6,0-9,1.1-12.9,3c-7-16.8-22.2-28.5-39.7-28.5c-22.5,0-41,19.1-43.6,43.7c0,0.2,0.1,0.5,0.1,0.7c-0.1,0-0.1,0-0.2,0
				c-0.2,1.7-0.2,3.4-0.2,5.2c0,3.8,0.4,7.4,1.1,10.9c-9,0.4-16.6,7-19.6,16.1C153.1,1804.9,160.9,1811.4,170,1811.4z"/>
		</g>
		<ellipse class="st6" cx="238.1" cy="1744.8" rx="17.2" ry="19.5"/>
	</g>
	<g>
		<path class="st4" d="M335.4,1847.6c0-20.8-14.9-37.6-33.3-37.6c-4.6,0-9,1.1-12.9,3c-7-16.8-22.2-28.5-39.7-28.5
			c-24.2,0-43.9,22.2-43.9,49.6c0,3.8,0.4,7.4,1.1,10.9c-11.7,0.5-21,11.4-21,24.7c0,13.7,9.8,24.8,21.9,24.8c0.7,0,1.5,0,2.2-0.1
			c6,13.2,18.2,22.2,32.3,22.2c12.3,0,23.1-6.9,29.7-17.5c3.9,5.1,9.7,8.3,16.1,8.3c11.5,0,20.8-10.2,21.3-23.1
			C324.1,1880.8,335.4,1865.7,335.4,1847.6z"/>
		<path class="st4" d="M290.3,1928c0-6.2-5.2-11.2-11.5-11.2c-1.6,0-3.1,0.3-4.5,0.9c-2.4-5-7.7-8.5-13.8-8.5
			c-8.4,0-15.2,6.6-15.2,14.8c0,1.1,0.1,2.2,0.4,3.3c-4.1,0.2-7.3,3.4-7.3,7.4c0,4.1,3.4,7.4,7.6,7.4c0.3,0,0.5,0,0.8,0
			c2.1,3.9,6.3,6.6,11.2,6.6c4.3,0,8-2.1,10.3-5.2c1.4,1.5,3.4,2.5,5.6,2.5c4,0,7.2-3.1,7.4-6.9
			C286.4,1937.9,290.3,1933.4,290.3,1928z"/>
		<path class="st4" d="M168.5,1910.2c0-4.3-4-7.9-8.9-7.9c-1.2,0-2.4,0.2-3.5,0.6c-1.9-3.5-6-5.9-10.7-5.9
			c-6.5,0-11.8,4.6-11.8,10.4c0,0.8,0.1,1.6,0.3,2.3c-3.1,0.1-5.6,2.4-5.6,5.2c0,2.9,2.6,5.2,5.9,5.2c0.2,0,0.4,0,0.6,0
			c1.6,2.8,4.9,4.6,8.7,4.6c3.3,0,6.2-1.4,8-3.6c1.1,1.1,2.6,1.7,4.3,1.7c3.1,0,5.6-2.1,5.7-4.8
			C165.4,1917.1,168.5,1914,168.5,1910.2z"/>
		<g>
			<path class="st3" d="M329.7,1812.2c0.1,1,0.1,2,0.2,3c0.3,17.8-10.7,32.7-25.4,36.2c-0.5,12.4-9.5,22.3-20.6,22.3
				c-6.2,0-11.8-3.1-15.6-8c-6.4,10.2-16.9,16.9-28.7,16.9c-13.6,0-25.4-8.7-31.2-21.5c-0.7,0.1-1.4,0.1-2.1,0.1
				c-9.1,0-16.9-6.5-19.9-15.6c-0.9,2.7-1.4,5.6-1.4,8.6c0,13.7,9.8,24.8,21.9,24.8c0.7,0,1.5,0,2.2-0.1c6,13.2,18.2,22.2,32.3,22.2
				c12.3,0,23.1-6.9,29.7-17.5c3.9,5.1,9.7,8.3,16.1,8.3c11.5,0,20.8-10.2,21.3-23.1c15-3.6,26.3-18.7,26.3-36.8
				C334.7,1824.7,332.9,1817.9,329.7,1812.2z"/>
			<path class="st5" d="M205.2,1812.6c0,0.2-0.1,0.5-0.1,0.7c0.1,0,0.1,0,0.2,0C205.3,1813.1,205.2,1812.8,205.2,1812.6z"/>
			<path class="st6" d="M206.2,1861.2c0.7,0,1.4,0,2.1-0.1c5.9,12.8,17.6,21.5,31.2,21.5c11.9,0,22.4-6.7,28.7-16.9
				c3.8,4.9,9.3,8,15.6,8c11.1,0,20.1-9.9,20.6-22.3c14.7-3.6,25.7-18.5,25.4-36.2c0-1-0.1-2-0.2-3c-5.9-10.7-16.3-17.8-28.3-17.8
				c-4.6,0-9,1.1-12.9,3c-7-16.8-22.2-28.5-39.7-28.5c-22.5,0-41,19.1-43.6,43.7c0,0.2,0.1,0.5,0.1,0.7c-0.1,0-0.1,0-0.2,0
				c-0.2,1.7-0.2,3.4-0.2,5.2c0,3.8,0.4,7.4,1.1,10.9c-9,0.4-16.6,7-19.6,16.1C189.3,1854.7,197.1,1861.2,206.2,1861.2z"/>
		</g>
	</g>
	<g id="String_Leaves">
		<g>
			<g>
				<g>
					<path class="st7" d="M205,1936.5c0,0-4.4,0.4-6.9-5.1s-1.5-5.5-1.5-5.5s7.2,0.8,8.1,5S205,1936.5,205,1936.5z"/>
				</g>
				<g>
					<path class="st7" d="M188.9,1937.5c0,0-2.4-4.7,2.6-9.8c5-5.1,5.4-4,5.4-4s2.2,8.3-2,11.1
						C190.7,1937.6,188.9,1937.5,188.9,1937.5z"/>
				</g>
				<g>
					<path class="st7" d="M183.9,1932c0,0-2.3-3.4,1.1-7.9c3.4-4.4,3.8-3.6,3.8-3.6s2.5,6.2-0.5,8.8
						C185.3,1931.9,183.9,1932,183.9,1932z"/>
				</g>
				<g>
					<path class="st7" d="M177.6,1931.9c0,0-5.3-5.4-0.8-14.6c4.6-9.2,5.6-7.9,5.6-7.9s6.7,10.4,2.2,16.1
						C180.2,1931.2,177.6,1931.9,177.6,1931.9z"/>
				</g>
				<g>
					<path class="st7" d="M165.9,1921.3c0,0,0.5-5.5,7.6-7.2c7.2-1.8,7-0.6,7-0.6s-2.6,8.5-7.8,8.7
						C167.4,1922.4,165.9,1921.3,165.9,1921.3z"/>
				</g>
				<g>
					<path class="st7" d="M158.1,1918.7c0,0,0.9-5.5,8.3-6.7s7.1-0.1,7.1-0.1s-3.3,8.5-8.6,8.3
						C159.7,1919.9,158.1,1918.7,158.1,1918.7z"/>
				</g>
			</g>
		</g>
		<g>
			<g>
				<g>
					<path class="st7" d="M228.8,1944.7c0,0-1.3-4.7,4.1-8.3c5.4-3.7,5.6-2.7,5.6-2.7s0.5,7.9-3.7,9.6
						C230.4,1945.1,228.8,1944.7,228.8,1944.7z"/>
				</g>
				<g>
					<path class="st7" d="M220.3,1952.4c0,0-3.3-6.8,4-14c7.3-7.2,7.9-5.7,7.9-5.7s3,12-3.1,15.9S220.3,1952.4,220.3,1952.4z"/>
				</g>
				<g>
					<path class="st7" d="M214.6,1951.3c0,0-3-4.9,1.9-10.8s5.5-4.8,5.5-4.8s3.1,8.8-1.1,12.2
						C216.6,1951.2,214.6,1951.3,214.6,1951.3z"/>
				</g>
				<g>
					<path class="st7" d="M199.1,1942.7c0,0,4.7-6.1,14.5-2.7s8.6,4.6,8.6,4.6s-9.6,8.1-15.8,4.3
						C200.2,1945.2,199.1,1942.7,199.1,1942.7z"/>
				</g>
			</g>
		</g>
	</g>
</g>
</svg>
