<?xml version="1.0" encoding="utf-8"?>
<!-- Generator: Adobe Illustrator 26.2.1, SVG Export Plug-In . SVG Version: 6.00 Build 0)  -->
<svg version="1.1" id="Layer_1" xmlns="http://www.w3.org/2000/svg" xmlns:xlink="http://www.w3.org/1999/xlink" x="0px" y="0px"
	 viewBox="0 0 428 2136.5" style="enable-background:new 0 0 428 2136.5;" xml:space="preserve">
<style type="text/css">
	.st0{opacity:0.78;}
	.st1{fill:#6D5341;}
	.st2{fill:#C19F87;}
	.st3{fill:#84A749;}
	.st4{fill:#82B880;}
	.st5{fill:#458144;}
	.st6{fill:#66A566;}
	.st7{fill:#80BE80;}
	.st8{fill:#386A38;}
</style>
<g id="a">
	<g id="b" class="st0">
	</g>
</g>
<g id="c">
	<g id="d">
		<g>
			<path id="e" class="st1" d="M245.4,2075.2c0,0,6.1,15.6,14.1,20.8c9.3,5.9,1.5,6.4-3,5.8c-4.5-0.6-12.4-4.7-15.4-8.4
				s-56.1,12.3-63,12.9s-14.7,1.8-15.8-0.4s7.5-4.4,10.5-12.1c3-7.7,5.5-21.8,7.2-24.6C183.6,2063.5,245.4,2075.2,245.4,2075.2
				L245.4,2075.2z"/>
			<path class="st1" d="M257.2,2101.9c-2.9-3.6-5.8-6.5-8.6-9.1c-0.7-0.6-1.2-1.5-1.7-2.4c-0.2-2.8-0.4-5.4-0.4-5.4v-0.3
				c-0.6-11.5-0.7-34.5-1.9-52.4c-0.6-8.1-0.6-9.4-0.8-26.1c-4.1,4.9-10,5-15,7.1c-10.2,4.3-18.5,5.4-28.8,2.2
				c-6.3-2-14.4-2.6-19.1-10.6c0.7,12.4,0,17.5,0.1,26.4c0.1,4.2-0.2,11.3-0.4,15.5c-0.7,11.5-0.1,15.9-2.4,26.8
				c-0.5,2.9-0.9,5.9-1.2,8.9c-0.3,2.6-0.6,5.2-0.6,7.8c-0.3,2.4-0.6,5.5-0.8,8.8c-0.5,8.4-4.6,10.4-9.8,12.1
				c-5.1,1.7-7.5,4.1-7.5,4.1s-10.2,8.6-3,6.2c3.5-1.2,13.9-5.7,18.2-5.8s7.8,0.1,12.4-3.1c4.6-3.2,3.7-5.3,11-4.2
				c4.4,0.7,5.9,4.7,2.9,14.4c-2.8,8.8-0.7,15.1,3.2,14.2c1.4-0.3,6.3-16.3,13.4-22.6c2.1-1.8,2.8-2.6,5.9-4.3
				c4.2-2.3,7.4-0.5,14.4,4.6c5.4,3.9,6.8,6.1,9.1,7.8s4.7-1.4,1.9-5.4s-3.8-3.4-6.6-10.9s4.3-1.7,10,2.1c6.1,4,16.8,6,19.5,5.5
				C272.9,2113.2,260.2,2105.5,257.2,2101.9L257.2,2101.9z"/>
			<g id="f">
				<path class="st2" d="M230.7,2014.2c-6.2,2.2-12.6,3.6-18.9,4.2c-2.8,0-17.6-2.1-20.9-4.4c-4.3-2.9-10-7.9-10-9
					c-0.1-1.6,4-0.9,5.8-1.3c7.6-1.4,11.9-1.7,17.4-2.2c9.4-0.8,9-1.2,19.6,0c1.4,0.2,13.6,2,15.1,2.5c3.6,1.3,5,1.6,4.9,2.1
					c0,0.1,0,0.2-0.1,0.3c-3,3.9-9.6,6.2-13.1,7.9"/>
				<path class="st1" d="M214.4,2000.7c-2.7,0-4.9,0.3-10.1,0.8c-2.8,0.3-5.2,0.4-7.8,0.8c-2,0.6-4,1.2-6,2.1l-1.7,0.7
					c8.6,2.6,17.3,3.9,26,3.9h2.5c3.2-0.2,6.6,0.3,9.4-3c-4.5-1.4-9.1-2.1-13.7-2.2c-1.7,0-3.4,0.1-5,0.4h-0.4l0,0l5.1,1.1l-4.6-1.1
					h2.7c4.9-0.1,9.7,0.6,14.5,2c-2.5,2-5.4,1.5-8.1,1.7h-1.4c-2.5,0-5-0.1-7.5-0.3c-5.3-0.4-10.6-1.4-15.9-2.8
					c3.6-1.2,7.2-2.1,10.8-2.5c3.4-0.4,6.7-0.6,10.1-0.6c7.3,0,14.5,0.8,21.7,2.5c0.3,0.1,2.6,0.9,1.7,1.6c-9.1,2.7-21,7.2-32.1,7.2
					c-7.9,0-15.3-2.2-21-9c6,7.3,13.8,9.7,21.9,9.7c10.8,0,22.4-4.3,31.4-6.9c0.1-0.1,0.2-0.1,0.3-0.3c0.1-0.1,0.2-0.3,0.2-0.4
					c0.1-0.2,0.1-0.4,0.1-0.6s0-0.4,0-0.6c-0.2-0.5-0.4-0.9-0.7-1.1c-0.3-0.3-0.6-0.4-0.9-0.5c-4.2-0.8-11.1-1.8-12.1-2
					C219.1,2000.9,216.5,2000.7,214.4,2000.7L214.4,2000.7z"/>
			</g>
		</g>
	</g>
	<g id="g">
		<g>
			<path class="st1" d="M243.9,2017.5c0.1-6-0.1-12.5,0-19.4c0-1.2,0.3-1.8,0.1-10.5c0.2-5.3,0.3-11,0.3-11l0.2-16.1
				c-0.3-15.8-0.3-8.3,0-26.2c0.1-8.1,0-6.9-0.1-23.5c-4.1,4.9-6.2,5.7-11.1,7.8c-10.2,4.3-18.5,5.4-28.8,2.2c-6.3-2-15.7-3-20.4-11
				c-0.5,10.2-1.1,17.5-1.3,26.5c-0.1,5.3-0.6,10.6-0.6,14.8c-0.2,13.2-0.2,9.2-0.8,26.3c-0.1,3,0.3,7.5,0,10.5
				c-0.3,2.6-0.2,4.7-0.3,7.3c0.1,7.2,0,4.7-0.1,8c-0.1,9.2,0.3,12.7,0.4,19.3"/>
			<g id="h">
				<path class="st1" d="M232.5,1920c-6.2,2.2-11.3,2.8-17.6,3.4c-2.8,0-18.2-1.8-21.5-4.1c-4.3-2.9-9.4-8.2-9.4-9.3
					c-0.1-1.6,4-0.9,5.8-1.3c7.6-1.4,11.9-1.7,17.4-2.2c9.4-0.8,9-1.2,19.6,0c1.4,0.2,13.6,2,15.1,2.5c4.5,1.6,1.4,5.2,0.5,6.1
					c-3,3.9-5.2,2.5-8.8,4.2"/>
				<path class="st1" d="M217.4,1905.8c-2.7,0-4.9,0.3-10.1,0.8c-2.8,0.3-5.2,0.4-7.8,0.8c-2,0.6-4,1.2-6,2.1l-1.7,0.7
					c8.6,2.6,17.3,3.9,26,3.9h2.5c3.2-0.2,6.6,0.3,9.4-3c-4.5-1.4-9.1-2.1-13.7-2.2c-1.7,0-3.4,0.1-5,0.4h-0.4l0,0l5.1,1.1l-4.6-1.1
					h2.7c4.9-0.1,9.7,0.6,14.5,2c-2.5,2-5.4,1.5-8.1,1.7h-1.4c-2.5,0-5-0.1-7.5-0.3c-5.3-0.4-10.6-1.4-15.9-2.8
					c3.6-1.2,7.2-2.1,10.8-2.5c3.4-0.4,6.7-0.6,10.1-0.6c7.3,0,14.5,0.8,21.7,2.5c0.3,0.1,2.6,0.9,1.7,1.6c-9.1,2.7-21,7.2-32.1,7.2
					c-7.9,0-15.3-2.2-21-9c6,7.3,13.8,9.7,21.9,9.7c10.8,0,22.4-4.3,31.4-6.9c0.1-0.1,0.2-0.1,0.3-0.3c0.1-0.1,0.2-0.3,0.2-0.4
					c0.1-0.2,0.1-0.4,0.1-0.6s0-0.4,0-0.6c-0.2-0.5-0.4-0.9-0.7-1.1c-0.3-0.3-0.6-0.4-0.9-0.5c-4.2-0.8-11.1-1.8-12.1-2
					C222.2,1906,219.6,1905.8,217.4,1905.8L217.4,1905.8z"/>
			</g>
		</g>
		<g id="i">
			<path class="st2" d="M231.9,1918.7c-6,2.2-12.1,3.6-18.2,4.2c-2.7,0-16.9-2.1-20.1-4.4c-4.1-2.9-9.6-7.9-9.6-9
				c-0.1-1.6,3.8-0.9,5.6-1.3c7.4-1.4,11.4-1.7,16.8-2.2c9.1-0.8,8.6-1.2,18.9,0c1.4,0.2,13.1,2,14.5,2.5c3.5,1.3,4.8,1.6,4.7,2.1
				c0,0.1,0,0.2-0.1,0.3c-2.9,3.9-9.2,6.2-12.6,7.9"/>
			<path class="st1" d="M216.2,1905.2c-2.6,0-4.7,0.3-9.7,0.8c-2.6,0.3-5,0.4-7.6,0.8c-1.9,0.6-3.9,1.2-5.8,2.1l-1.6,0.7
				c8.3,2.6,16.6,3.9,25,3.9h2.4c3-0.2,6.3,0.3,9-3c-4.4-1.4-8.8-2.1-13.2-2.2c-1.6,0-3.3,0.1-4.9,0.4h-0.4l0,0l4.9,1.1l-4.4-1.1
				h2.6c4.7-0.1,9.4,0.6,14,2c-2.4,2-5.2,1.5-7.8,1.7h-1.3c-2.4,0-4.8-0.1-7.3-0.3c-5.1-0.4-10.2-1.4-15.3-2.8
				c3.4-1.2,6.9-2.1,10.4-2.5c3.2-0.4,6.5-0.6,9.7-0.6c7,0,14,0.8,20.9,2.5c0.3,0.1,2.5,0.9,1.7,1.6c-8.7,2.7-20.2,7.2-30.9,7.2
				c-7.6,0-14.7-2.2-20.2-9c5.8,7.3,13.3,9.7,21.1,9.7c10.4,0,21.5-4.3,30.2-6.9c0.1-0.1,0.2-0.1,0.3-0.3c0.1-0.1,0.1-0.3,0.2-0.4
				c0.1-0.2,0.1-0.4,0.1-0.6s0-0.4,0-0.6c-0.2-0.5-0.4-0.9-0.6-1.1s-0.5-0.4-0.8-0.5c-4-0.8-10.6-1.8-11.6-2
				C220.7,1905.4,218.2,1905.2,216.2,1905.2L216.2,1905.2z"/>
		</g>
	</g>
	<g id="j">
		<g>
			<path class="st1" d="M244.5,1932c0.1-6-0.2-93.6-0.1-100.5c0-1.2,0.3-1.8,0.1-10.5c0.2-5.3,0.3-11,0.3-11v-15.8
				c-0.3-15.8-0.3-5.7,0.2-26.5c0.2-8.1,0-6.9-0.1-23.5c-4.1,4.9-6.2,5.7-11.1,7.8c-10.2,4.3-18.5,5.4-28.8,2.2
				c-6.3-2-15.7-3-20.4-11c-0.5,10.2-0.6,16.6-0.8,25.5c-0.1,5.3-0.3,8.8-0.3,13c-0.2,13.2,0.1,6.4-0.4,23.5
				c-0.1,3,0.1,9.7-0.1,14.3c-0.1,5.2,0,5.4-0.1,8c0.1,7.2,0.1,6.1,0,9.4c-0.1,9.2-0.1,91.9,0,98.5"/>
			<g id="k">
				<path class="st1" d="M233.2,1753.3c-6.2,2.2-11.3,2.8-17.6,3.4c-2.8,0-18.2-1.8-21.5-4.1c-4.3-2.9-9.4-8.2-9.4-9.3
					c-0.1-1.6,4-0.9,5.8-1.3c7.6-1.4,11.9-1.7,17.4-2.2c9.4-0.8,9-1.2,19.6,0c1.4,0.2,13.6,2,15.1,2.5c1.1,0.4,1.6,0.5,1.9,1.1
					c0.8,1.6-0.8,4.3-1.4,5c-3,3.9-5.2,2.5-8.8,4.2"/>
				<path class="st1" d="M218.1,1739.2c-2.7,0-4.9,0.3-10.1,0.8c-2.8,0.3-5.2,0.4-7.8,0.8c-2,0.6-4,1.2-6,2.1l-1.7,0.7
					c8.6,2.6,17.3,3.9,26,3.9h2.5c3.2-0.2,6.6,0.3,9.4-3c-4.5-1.4-9.1-2.1-13.7-2.2c-1.7,0-3.4,0.1-5,0.4h-0.4l0,0l5.1,1.1l-4.6-1.1
					h2.7c4.9-0.1,9.7,0.6,14.5,2c-2.5,2-5.4,1.5-8.1,1.7h-1.4c-2.5,0-5-0.1-7.5-0.3c-5.3-0.4-10.6-1.4-15.9-2.8
					c3.6-1.2,7.2-2.1,10.8-2.5c3.4-0.4,6.7-0.6,10.1-0.6c7.3,0,14.5,0.8,21.7,2.5c0.3,0.1,2.6,0.9,1.7,1.6c-9.1,2.7-21,7.2-32.1,7.2
					c-7.9,0-15.3-2.2-21-9c6,7.3,13.8,9.7,21.9,9.7c10.8,0,22.4-4.3,31.4-6.9c0.1-0.1,0.2-0.1,0.3-0.3c0.1-0.1,0.2-0.3,0.2-0.4
					c0.1-0.2,0.1-0.4,0.1-0.6s0-0.4,0-0.6c-0.2-0.5-0.4-0.9-0.7-1.1c-0.3-0.3-0.6-0.4-0.9-0.5c-4.2-0.8-11.1-1.8-12.1-2
					C222.9,1739.4,220.3,1739.1,218.1,1739.2L218.1,1739.2z"/>
			</g>
		</g>
		<path class="st1" d="M240.6,1862.2c0,0,11.8,4.6,24-9.9c5.7-6.7,12.2-10.6,16.7-14.3c5.2-4.2,6.5-4.8,8.9-9.6
			c5-10.3,8.7-22.2,9-10.2c0.3,10.6-13.9,24.1-13.9,24.1s4.2,1.3,12.1-1.4c7.3-2.5,9-3.6,10.8-3.6s-3.6,5.8-13,8
			c-9.5,2.2-20.1,9.3-22.2,16.2s-35,31.6-35,31.6L240.6,1862.2L240.6,1862.2z"/>
		<g>
			<path class="st3" d="M285.5,1854.8c0,0-0.6-4.1,4.4-6.6s5-1.6,5-1.6s-0.5,6.7-4.2,7.7S285.5,1854.8,285.5,1854.8z"/>
			<path class="st3" d="M305,1849.7c0,0-3.6-0.4-4.7-5.2c-1-4.8-0.3-4.7-0.3-4.7s5.6,1.9,5.6,5.4S305,1849.7,305,1849.7L305,1849.7z
				"/>
			<path class="st3" d="M293,1845.2c0,0,0.1-4.5,5.8-6.3s5.6-0.9,5.6-0.9s-1.6,7.1-5.8,7.6C294.3,1846,293,1845.2,293,1845.2
				L293,1845.2z"/>
			<path class="st3" d="M285,1841.1c0,0,1.4-3.4,6.4-3.2s4.6,1,4.6,1s-3.4,5-6.8,4.1S285,1841.1,285,1841.1L285,1841.1z"/>
			<path class="st3" d="M294.5,1834.4c0,0-2.7-3.5,0.6-8.4s3.8-4.2,3.8-4.2s3.1,6.5,0.1,9.4S294.5,1834.4,294.5,1834.4L294.5,1834.4
				z"/>
			<path class="st3" d="M297.2,1822.9c0,0-3.6-2.4-2.1-8s2.2-5.1,2.2-5.1s4.9,5,3.1,8.7C298.5,1822.2,297.2,1822.9,297.2,1822.9
				L297.2,1822.9z"/>
			<path class="st3" d="M295.2,1834.9c0,0-4.6,0.1-6.8-5.7s-1.2-5.8-1.2-5.8s7.4,1.3,8,5.7S295.2,1834.9,295.2,1834.9L295.2,1834.9z
				"/>
			<path class="st3" d="M279.2,1844.6c0,0-2.7-3.2,0.2-8.1s3.4-4.1,3.4-4.1s3.3,6,0.5,9S279.2,1844.6,279.2,1844.6z"/>
		</g>
		<g id="l">
			<path class="st2" d="M232.6,1751.5c-6,2.2-12.1,3.6-18.2,4.2c-2.7,0-16.9-2.1-20.1-4.4c-4.1-2.9-9.6-7.9-9.6-9
				c-0.1-1.6,3.8-0.9,5.6-1.3c7.4-1.4,11.4-1.7,16.8-2.2c9.1-0.8,8.6-1.2,18.9,0c1.4,0.2,13.1,2,14.5,2.5c3.5,1.3,4.8,1.6,4.7,2.1
				c0,0.1,0,0.2-0.1,0.3c-2.9,3.9-9.2,6.2-12.6,7.9"/>
			<path class="st1" d="M216.8,1738.1c-2.6,0-4.7,0.3-9.7,0.8c-2.6,0.3-5,0.4-7.6,0.8c-1.9,0.6-3.9,1.2-5.8,2.1l-1.6,0.7
				c8.3,2.6,16.6,3.9,25,3.9h2.4c3-0.2,6.3,0.3,9-3c-4.4-1.4-8.8-2.1-13.2-2.2c-1.6,0-3.3,0.1-4.9,0.4H210l0,0l4.9,1.1l-4.4-1.1h2.6
				c4.7-0.1,9.4,0.6,14,2c-2.4,2-5.2,1.5-7.8,1.7H218c-2.4,0-4.8-0.1-7.3-0.3c-5.1-0.4-10.2-1.4-15.3-2.8c3.4-1.2,6.9-2.1,10.4-2.5
				c3.2-0.4,6.5-0.6,9.7-0.6c7,0,14,0.8,20.9,2.5c0.3,0.1,2.5,0.9,1.7,1.6c-8.7,2.7-20.2,7.2-30.9,7.2c-7.6,0-14.7-2.2-20.2-9
				c5.8,7.3,13.3,9.7,21.1,9.7c10.4,0,21.5-4.3,30.2-6.9c0.1-0.1,0.2-0.1,0.3-0.3c0.1-0.1,0.1-0.3,0.2-0.4c0.1-0.2,0.1-0.4,0.1-0.6
				s0-0.4,0-0.6c-0.2-0.5-0.4-0.9-0.6-1.1s-0.5-0.4-0.8-0.5c-4-0.8-10.6-1.8-11.6-2C221.3,1738.3,218.9,1738,216.8,1738.1
				L216.8,1738.1z"/>
		</g>
	</g>
</g>
<g id="m">
</g>
<g id="n">
	<g id="o">
	</g>
	<g id="p">
	</g>
</g>
<g id="q">
	<g id="r">
	</g>
	<g id="s">
	</g>
</g>
<g id="TreeTop_x5F_Sumatran">
	<path class="st1" d="M245.1,1792.8c0,0,2.3-45,4.6-48.1c14.3-18.8,25.8-15.8,32.7-33c6.8-17.1,18.1-25.4,26.6-39.9
		c6.8-11.5,2.6-15,17-38.7s-20.2-2.5-23.8-1.5c-3.6,1,30.8-15.8,29.6-11.8c-1.2,4-22.2,7.1-22.2-6.5s-28.8,96.3-49.3,99.8
		c-20.5,3.5-35.7,16.6-20.5-3c15.2-19.7,32.5-48.9,33.7-62.5c1.2-13.6-6.1-27.5,6.3-45.2c12.4-17.6-12.6-18.2-13.4-26.7
		c-0.8-8.6-9.4-39-3-25.4c6.4,13.6-3.2,64-8.8,87.2c-5.6,23.2-14.8,58.5-27.3,67c-12.4,8.6-11.6,0.5-8.4-22.7
		c3.2-23.2,9.2-26.7,14.4-52.4c5.2-25.7,6.8-40.3,4.4-69.6c-2.4-29.2-13.6-47.4-14.4-38.8s-2.8,94.8-10.4,126.5s-6.8,66.1-11.7,55.6
		c-4.1-8.8-24.3-36.6-25.1-46.1c-0.8-9.6,6.7-34.1,8.7-47.7c2-13.6,6.8-76.6,6.4-80.6c-0.4-4-6-2-6-2s-6.4,108.4-16.9,118.9
		s-10,8.6-9.6-15.1c0.4-23.7,0.2-41.1-0.2-56.7c-0.4-15.6-12.2-4.7-13.4,7.9s-0.1,53.3,4.8,64.9c4.8,11.6,21.2,36.8,29.3,62
		c3.4,10.6-5.6,38.3-22.9,9.6s-22.5-37.8-26.5-47.4c-4-9.6-15.5-8.2-21.1-28.3c-5.6-20.2-3.4-2.6-5.4-19.2l-11.2,8.9
		c0,0-2.5,9.4,2.3,18.5c4.8,9.1,19,14.3,27.3,31.8c8.3,17.5,27.7,52.4,42.9,69c15.2,16.6,16.4,24.7,16.9,47.4
		c0.5,25.2,1.1,46,1.1,46l61.3-3.1L245.1,1792.8z"/>
	<path class="st4" d="M259.3,1719.9c-8.1-6.1-15.6-0.3-23.1,4.3c-4.1,2.5-10.6,7.5-15.6,6.7c-5.3-0.8-8.3-7.8-10.5-11.7
		c-5.1-9.2-17.8-12.7-27.8-13.4c-8.8-0.7-16.4-1-22.2-9.5c-2.7-4-9.2-0.2-6.5,3.8c5.4,7.9,14.6,10.2,23.6,10.6
		c6,0.3,12.1-0.2,17.8,1.8c5.3,1.8,9.3,5.9,11.5,11c1.9,4.4,3.6,8.3,8.2,10.4c4,1.8,8.7,1.8,12.9,0.5c8.3-2.5,19.2-14.8,28-8.1
		C259.4,1729.3,263.1,1722.8,259.3,1719.9z"/>
	<g>
		<path class="st5" d="M232.2,1625.8c0-20.8-14.9-37.6-33.3-37.6c-4.6,0-9,1.1-12.9,3c-7-16.8-22.2-28.5-39.7-28.5
			c-24.2,0-43.9,22.2-43.9,49.6c0,3.8,0.4,7.4,1.1,10.9c-11.7,0.5-21,11.4-21,24.7c0,13.7,9.8,24.8,21.9,24.8c0.7,0,1.5,0,2.2-0.1
			c6,13.2,18.2,22.2,32.3,22.2c12.3,0,23.1-6.9,29.7-17.5c3.9,5.1,9.7,8.3,16.1,8.3c11.5,0,20.8-10.2,21.3-23.1
			C221,1659,232.2,1643.9,232.2,1625.8z"/>
		<g>
			<path class="st6" d="M226.6,1590.4c0.1,1,0.1,2,0.2,3c0.3,17.8-10.7,32.7-25.4,36.2c-0.5,12.4-9.5,22.3-20.6,22.3
				c-6.2,0-11.8-3.1-15.6-8c-6.4,10.2-16.9,16.9-28.7,16.9c-13.6,0-25.4-8.7-31.2-21.5c-0.7,0.1-1.4,0.1-2.1,0.1
				c-9.1,0-16.9-6.5-19.9-15.6c-0.9,2.7-1.4,5.6-1.4,8.6c0,13.7,9.8,24.8,21.9,24.8c0.7,0,1.5,0,2.2-0.1c6,13.2,18.2,22.2,32.3,22.2
				c12.3,0,23.1-6.9,29.7-17.5c3.9,5.1,9.7,8.3,16.1,8.3c11.5,0,20.8-10.2,21.3-23.1c15-3.6,26.3-18.7,26.3-36.8
				C231.6,1602.9,229.7,1596.1,226.6,1590.4z"/>
			<path class="st6" d="M102.1,1590.8c0,0.2-0.1,0.5-0.1,0.7c0.1,0,0.1,0,0.2,0C102.1,1591.3,102.1,1591.1,102.1,1590.8z"/>
			<path class="st7" d="M103.1,1639.4c0.7,0,1.4,0,2.1-0.1c5.9,12.8,17.6,21.5,31.2,21.5c11.9,0,22.4-6.7,28.7-16.9
				c3.8,4.9,9.3,8,15.6,8c11.1,0,20.1-9.9,20.6-22.3c14.7-3.6,25.7-18.5,25.4-36.2c0-1-0.1-2-0.2-3c-5.9-10.7-16.3-17.8-28.3-17.8
				c-4.6,0-9,1.1-12.9,3c-7-16.8-22.2-28.5-39.7-28.5c-22.5,0-41,19.1-43.6,43.7c0,0.2,0.1,0.5,0.1,0.7c-0.1,0-0.1,0-0.2,0
				c-0.2,1.7-0.2,3.4-0.2,5.2c0,3.8,0.4,7.4,1.1,10.9c-9,0.4-16.6,7-19.6,16.1C86.2,1632.9,93.9,1639.4,103.1,1639.4z"/>
		</g>
		<ellipse class="st7" cx="171.1" cy="1572.8" rx="17.2" ry="19.5"/>
	</g>
	<g>
		<g>
			<path class="st6" d="M170.4,1550.7c0,0.2-0.1,0.5-0.1,0.7c0.1,0,0.1,0,0.2,0C170.5,1551.2,170.5,1550.9,170.4,1550.7z"/>
			<path class="st7" d="M171.4,1599.3c0.7,0,1.4,0,2.1-0.1c5.9,12.8,17.6,21.5,31.2,21.5c11.9,0,22.4-6.7,28.7-16.9
				c3.8,4.9,9.3,8,15.6,8c11.1,0,20.1-9.9,20.6-22.3c14.7-3.6,25.7-18.5,25.4-36.2c0-1-0.1-2-0.2-3c-5.9-10.7-16.3-17.8-28.3-17.8
				c-4.6,0-9,1.1-12.9,3c-7-16.8-22.2-28.5-39.7-28.5c-22.5,0-41,19.1-43.6,43.7c0,0.2,0.1,0.5,0.1,0.7c-0.1,0-0.1,0-0.2,0
				c-0.2,1.7-0.2,3.4-0.2,5.2c0,3.8,0.4,7.4,1.1,10.9c-9,0.4-16.6,7-19.6,16.1C154.5,1592.8,162.3,1599.3,171.4,1599.3z"/>
		</g>
		<ellipse class="st7" cx="239.5" cy="1532.7" rx="17.2" ry="19.5"/>
	</g>
	<g>
		<path class="st5" d="M336.7,1635.5c0-20.8-14.9-37.6-33.3-37.6c-4.6,0-9,1.1-12.9,3c-7-16.8-22.2-28.5-39.7-28.5
			c-24.2,0-43.9,22.2-43.9,49.6c0,3.8,0.4,7.4,1.1,10.9c-11.7,0.5-21,11.4-21,24.7c0,13.7,9.8,24.8,21.9,24.8c0.7,0,1.5,0,2.2-0.1
			c6,13.2,18.2,22.2,32.3,22.2c12.3,0,23.1-6.9,29.7-17.5c3.9,5.1,9.7,8.3,16.1,8.3c11.5,0,20.8-10.2,21.3-23.1
			C325.5,1668.7,336.7,1653.6,336.7,1635.5z"/>
		<path class="st5" d="M291.7,1715.9c0-6.2-5.2-11.2-11.5-11.2c-1.6,0-3.1,0.3-4.5,0.9c-2.4-5-7.7-8.5-13.8-8.5
			c-8.4,0-15.2,6.6-15.2,14.8c0,1.1,0.1,2.2,0.4,3.3c-4.1,0.2-7.3,3.4-7.3,7.4c0,4.1,3.4,7.4,7.6,7.4c0.3,0,0.5,0,0.8,0
			c2.1,3.9,6.3,6.6,11.2,6.6c4.3,0,8-2.1,10.3-5.2c1.4,1.5,3.4,2.5,5.6,2.5c4,0,7.2-3.1,7.4-6.9
			C287.8,1725.8,291.7,1721.3,291.7,1715.9z"/>
		<path class="st5" d="M169.8,1698.1c0-4.3-4-7.9-8.9-7.9c-1.2,0-2.4,0.2-3.5,0.6c-1.9-3.5-6-5.9-10.7-5.9
			c-6.5,0-11.8,4.6-11.8,10.4c0,0.8,0.1,1.6,0.3,2.3c-3.1,0.1-5.6,2.4-5.6,5.2c0,2.9,2.6,5.2,5.9,5.2c0.2,0,0.4,0,0.6,0
			c1.6,2.8,4.9,4.6,8.7,4.6c3.3,0,6.2-1.4,8-3.6c1.1,1.1,2.6,1.7,4.3,1.7c3.1,0,5.6-2.1,5.7-4.8
			C166.8,1705,169.8,1701.8,169.8,1698.1z"/>
		<g>
			<path class="st4" d="M331.1,1600c0.1,1,0.1,2,0.2,3c0.3,17.8-10.7,32.7-25.4,36.2c-0.5,12.4-9.5,22.3-20.6,22.3
				c-6.2,0-11.8-3.1-15.6-8c-6.4,10.2-16.9,16.9-28.7,16.9c-13.6,0-25.4-8.7-31.2-21.5c-0.7,0.1-1.4,0.1-2.1,0.1
				c-9.1,0-16.9-6.5-19.9-15.6c-0.9,2.7-1.4,5.6-1.4,8.6c0,13.7,9.8,24.8,21.9,24.8c0.7,0,1.5,0,2.2-0.1c6,13.2,18.2,22.2,32.3,22.2
				c12.3,0,23.1-6.9,29.7-17.5c3.9,5.1,9.7,8.3,16.1,8.3c11.5,0,20.8-10.2,21.3-23.1c15-3.6,26.3-18.7,26.3-36.8
				C336.1,1612.6,334.3,1605.8,331.1,1600z"/>
			<path class="st6" d="M206.6,1600.5c0,0.2-0.1,0.5-0.1,0.7c0.1,0,0.1,0,0.2,0C206.7,1601,206.6,1600.7,206.6,1600.5z"/>
			<path class="st7" d="M207.6,1649.1c0.7,0,1.4,0,2.1-0.1c5.9,12.8,17.6,21.5,31.2,21.5c11.9,0,22.4-6.7,28.7-16.9
				c3.8,4.9,9.3,8,15.6,8c11.1,0,20.1-9.9,20.6-22.3c14.7-3.6,25.7-18.5,25.4-36.2c0-1-0.1-2-0.2-3c-5.9-10.7-16.3-17.8-28.3-17.8
				c-4.6,0-9,1.1-12.9,3c-7-16.8-22.2-28.5-39.7-28.5c-22.5,0-41,19.1-43.6,43.7c0,0.2,0.1,0.5,0.1,0.7c-0.1,0-0.1,0-0.2,0
				c-0.2,1.7-0.2,3.4-0.2,5.2c0,3.8,0.4,7.4,1.1,10.9c-9,0.4-16.6,7-19.6,16.1C190.7,1642.6,198.5,1649.1,207.6,1649.1z"/>
		</g>
	</g>
	<g id="String_Leaves">
		<g>
			<g>
				<g>
					<path class="st8" d="M206.4,1724.4c0,0-4.4,0.4-6.9-5.1s-1.5-5.5-1.5-5.5s7.2,0.8,8.1,5C207.1,1723,206.4,1724.4,206.4,1724.4z
						"/>
				</g>
				<g>
					<path class="st8" d="M190.2,1725.4c0,0-2.4-4.7,2.6-9.8s5.4-4,5.4-4s2.2,8.3-2,11.1C192.1,1725.5,190.2,1725.4,190.2,1725.4z"
						/>
				</g>
				<g>
					<path class="st8" d="M185.3,1719.9c0,0-2.3-3.4,1.1-7.9c3.4-4.4,3.8-3.6,3.8-3.6s2.5,6.2-0.5,8.8
						C186.7,1719.7,185.3,1719.9,185.3,1719.9z"/>
				</g>
				<g>
					<path class="st8" d="M179,1719.8c0,0-5.3-5.4-0.8-14.6s5.6-7.9,5.6-7.9s6.7,10.4,2.2,16.1S179,1719.8,179,1719.8z"/>
				</g>
				<g>
					<path class="st8" d="M167.3,1709.2c0,0,0.5-5.5,7.6-7.2c7.2-1.8,7-0.6,7-0.6s-2.6,8.5-7.8,8.7
						C168.8,1710.3,167.3,1709.2,167.3,1709.2z"/>
				</g>
				<g>
					<path class="st8" d="M159.5,1706.5c0,0,0.9-5.5,8.3-6.7c7.4-1.2,7.1-0.1,7.1-0.1s-3.3,8.5-8.6,8.3
						C161.1,1707.8,159.5,1706.5,159.5,1706.5z"/>
				</g>
			</g>
		</g>
		<g>
			<g>
				<g>
					<path class="st8" d="M230.2,1732.6c0,0-1.3-4.7,4.1-8.3s5.6-2.7,5.6-2.7s0.5,7.9-3.7,9.6C231.8,1733,230.2,1732.6,230.2,1732.6
						z"/>
				</g>
				<g>
					<path class="st8" d="M221.7,1740.3c0,0-3.3-6.8,4-14s7.9-5.7,7.9-5.7s3,12-3.1,15.9C224.4,1740.4,221.7,1740.3,221.7,1740.3z"
						/>
				</g>
				<g>
					<path class="st8" d="M216,1739.2c0,0-3-4.9,1.9-10.8c4.9-5.9,5.5-4.8,5.5-4.8s3.1,8.8-1.1,12.2
						C218,1739.1,216,1739.2,216,1739.2z"/>
				</g>
				<g>
					<path class="st8" d="M200.5,1730.6c0,0,4.7-6.1,14.5-2.7c9.8,3.4,8.6,4.6,8.6,4.6s-9.6,8.1-15.8,4.3
						C201.6,1733.1,200.5,1730.6,200.5,1730.6z"/>
				</g>
			</g>
		</g>
	</g>
</g>
</svg>
