<?xml version="1.0" encoding="utf-8"?>
<!-- Generator: Adobe Illustrator 26.2.1, SVG Export Plug-In . SVG Version: 6.00 Build 0)  -->
<svg version="1.1" id="Layer_1" xmlns="http://www.w3.org/2000/svg" xmlns:xlink="http://www.w3.org/1999/xlink" x="0px" y="0px"
	 viewBox="0 0 428 2136.5" style="enable-background:new 0 0 428 2136.5;" xml:space="preserve">
<style type="text/css">
	.st0{opacity:0.78;}
	.st1{fill:#6D5341;}
	.st2{fill:#C19F87;}
	.st3{fill:#82B880;}
	.st4{fill:#458144;}
	.st5{fill:#66A566;}
	.st6{fill:#80BE80;}
	.st7{fill:#386A38;}
</style>
<g id="a">
	<g id="b" class="st0">
	</g>
</g>
<g id="c">
	<g id="d">
		<g>
			<path id="e" class="st1" d="M245.4,2075.2c0,0,6.1,15.6,14.1,20.8c9.3,5.9,1.5,6.4-3,5.8c-4.5-0.6-12.4-4.7-15.4-8.4
				s-56.1,12.3-63,12.9s-14.7,1.8-15.8-0.4s7.5-4.4,10.5-12.1c3-7.7,5.5-21.8,7.2-24.6C183.6,2063.5,245.4,2075.2,245.4,2075.2
				L245.4,2075.2z"/>
			<path class="st1" d="M257.2,2101.9c-2.9-3.6-5.8-6.5-8.6-9.1c-0.7-0.6-1.2-1.5-1.7-2.4c-0.2-2.8-0.4-5.4-0.4-5.4v-0.3
				c-0.6-11.5-0.7-34.5-1.9-52.4c-0.6-8.1-0.6-9.4-0.8-26.1c-4.1,4.9-10,5-15,7.1c-10.2,4.3-18.5,5.4-28.8,2.2
				c-6.3-2-14.4-2.6-19.1-10.6c0.7,12.4,0,17.5,0.1,26.4c0.1,4.2-0.2,11.3-0.4,15.5c-0.7,11.5-0.1,15.9-2.4,26.8
				c-0.5,2.9-0.9,5.9-1.2,8.9c-0.3,2.6-0.6,5.2-0.6,7.8c-0.3,2.4-0.6,5.5-0.8,8.8c-0.5,8.4-4.6,10.4-9.8,12.1
				c-5.1,1.7-7.5,4.1-7.5,4.1s-10.2,8.6-3,6.2c3.5-1.2,13.9-5.7,18.2-5.8s7.8,0.1,12.4-3.1c4.6-3.2,3.7-5.3,11-4.2
				c4.4,0.7,5.9,4.7,2.9,14.4c-2.8,8.8-0.7,15.1,3.2,14.2c1.4-0.3,6.3-16.3,13.4-22.6c2.1-1.8,2.8-2.6,5.9-4.3
				c4.2-2.3,7.4-0.5,14.4,4.6c5.4,3.9,6.8,6.1,9.1,7.8s4.7-1.4,1.9-5.4s-3.8-3.4-6.6-10.9s4.3-1.7,10,2.1c6.1,4,16.8,6,19.5,5.5
				C272.9,2113.2,260.2,2105.5,257.2,2101.9L257.2,2101.9z"/>
			<g id="f">
				<path class="st2" d="M230.7,2014.2c-6.2,2.2-12.6,3.6-18.9,4.2c-2.8,0-17.6-2.1-20.9-4.4c-4.3-2.9-10-7.9-10-9
					c-0.1-1.6,4-0.9,5.8-1.3c7.6-1.4,11.9-1.7,17.4-2.2c9.4-0.8,9-1.2,19.6,0c1.4,0.2,13.6,2,15.1,2.5c3.6,1.3,5,1.6,4.9,2.1
					c0,0.1,0,0.2-0.1,0.3c-3,3.9-9.6,6.2-13.1,7.9"/>
				<path class="st1" d="M214.4,2000.7c-2.7,0-4.9,0.3-10.1,0.8c-2.8,0.3-5.2,0.4-7.8,0.8c-2,0.6-4,1.2-6,2.1l-1.7,0.7
					c8.6,2.6,17.3,3.9,26,3.9h2.5c3.2-0.2,6.6,0.3,9.4-3c-4.5-1.4-9.1-2.1-13.7-2.2c-1.7,0-3.4,0.1-5,0.4h-0.4l0,0l5.1,1.1l-4.6-1.1
					h2.7c4.9-0.1,9.7,0.6,14.5,2c-2.5,2-5.4,1.5-8.1,1.7h-1.4c-2.5,0-5-0.1-7.5-0.3c-5.3-0.4-10.6-1.4-15.9-2.8
					c3.6-1.2,7.2-2.1,10.8-2.5c3.4-0.4,6.7-0.6,10.1-0.6c7.3,0,14.5,0.8,21.7,2.5c0.3,0.1,2.6,0.9,1.7,1.6c-9.1,2.7-21,7.2-32.1,7.2
					c-7.9,0-15.3-2.2-21-9c6,7.3,13.8,9.7,21.9,9.7c10.8,0,22.4-4.3,31.4-6.9c0.1-0.1,0.2-0.1,0.3-0.3c0.1-0.1,0.2-0.3,0.2-0.4
					c0.1-0.2,0.1-0.4,0.1-0.6s0-0.4,0-0.6c-0.2-0.5-0.4-0.9-0.7-1.1c-0.3-0.3-0.6-0.4-0.9-0.5c-4.2-0.8-11.1-1.8-12.1-2
					C219.1,2000.9,216.5,2000.7,214.4,2000.7L214.4,2000.7z"/>
			</g>
		</g>
	</g>
	<g id="g">
		<g>
			<path class="st1" d="M243.9,2017.5c0.1-6-0.1-12.5,0-19.4c0-1.2,0.3-1.8,0.1-10.5c0.2-5.3,0.3-11,0.3-11l0.2-16.1
				c-0.3-15.8-0.3-8.3,0-26.2c0.1-8.1,0-6.9-0.1-23.5c-4.1,4.9-6.2,5.7-11.1,7.8c-10.2,4.3-18.5,5.4-28.8,2.2c-6.3-2-15.7-3-20.4-11
				c-0.5,10.2-1.1,17.5-1.3,26.5c-0.1,5.3-0.6,10.6-0.6,14.8c-0.2,13.2-0.2,9.2-0.8,26.3c-0.1,3,0.3,7.5,0,10.5
				c-0.3,2.6-0.2,4.7-0.3,7.3c0.1,7.2,0,4.7-0.1,8c-0.1,9.2,0.3,12.7,0.4,19.3"/>
			<g id="h">
				<path class="st1" d="M232.5,1920c-6.2,2.2-11.3,2.8-17.6,3.4c-2.8,0-18.2-1.8-21.5-4.1c-4.3-2.9-9.4-8.2-9.4-9.3
					c-0.1-1.6,4-0.9,5.8-1.3c7.6-1.4,11.9-1.7,17.4-2.2c9.4-0.8,9-1.2,19.6,0c1.4,0.2,13.6,2,15.1,2.5c4.5,1.6,1.4,5.2,0.5,6.1
					c-3,3.9-5.2,2.5-8.8,4.2"/>
				<path class="st1" d="M217.4,1905.8c-2.7,0-4.9,0.3-10.1,0.8c-2.8,0.3-5.2,0.4-7.8,0.8c-2,0.6-4,1.2-6,2.1l-1.7,0.7
					c8.6,2.6,17.3,3.9,26,3.9h2.5c3.2-0.2,6.6,0.3,9.4-3c-4.5-1.4-9.1-2.1-13.7-2.2c-1.7,0-3.4,0.1-5,0.4h-0.4l0,0l5.1,1.1l-4.6-1.1
					h2.7c4.9-0.1,9.7,0.6,14.5,2c-2.5,2-5.4,1.5-8.1,1.7h-1.4c-2.5,0-5-0.1-7.5-0.3c-5.3-0.4-10.6-1.4-15.9-2.8
					c3.6-1.2,7.2-2.1,10.8-2.5c3.4-0.4,6.7-0.6,10.1-0.6c7.3,0,14.5,0.8,21.7,2.5c0.3,0.1,2.6,0.9,1.7,1.6c-9.1,2.7-21,7.2-32.1,7.2
					c-7.9,0-15.3-2.2-21-9c6,7.3,13.8,9.7,21.9,9.7c10.8,0,22.4-4.3,31.4-6.9c0.1-0.1,0.2-0.1,0.3-0.3c0.1-0.1,0.2-0.3,0.2-0.4
					c0.1-0.2,0.1-0.4,0.1-0.6s0-0.4,0-0.6c-0.2-0.5-0.4-0.9-0.7-1.1c-0.3-0.3-0.6-0.4-0.9-0.5c-4.2-0.8-11.1-1.8-12.1-2
					C222.2,1906,219.6,1905.8,217.4,1905.8L217.4,1905.8z"/>
			</g>
		</g>
		<g id="i">
			<path class="st2" d="M231.9,1918.7c-6,2.2-12.1,3.6-18.2,4.2c-2.7,0-16.9-2.1-20.1-4.4c-4.1-2.9-9.6-7.9-9.6-9
				c-0.1-1.6,3.8-0.9,5.6-1.3c7.4-1.4,11.4-1.7,16.8-2.2c9.1-0.8,8.6-1.2,18.9,0c1.4,0.2,13.1,2,14.5,2.5c3.5,1.3,4.8,1.6,4.7,2.1
				c0,0.1,0,0.2-0.1,0.3c-2.9,3.9-9.2,6.2-12.6,7.9"/>
			<path class="st1" d="M216.2,1905.2c-2.6,0-4.7,0.3-9.7,0.8c-2.6,0.3-5,0.4-7.6,0.8c-1.9,0.6-3.9,1.2-5.8,2.1l-1.6,0.7
				c8.3,2.6,16.6,3.9,25,3.9h2.4c3-0.2,6.3,0.3,9-3c-4.4-1.4-8.8-2.1-13.2-2.2c-1.6,0-3.3,0.1-4.9,0.4h-0.4l0,0l4.9,1.1l-4.4-1.1
				h2.6c4.7-0.1,9.4,0.6,14,2c-2.4,2-5.2,1.5-7.8,1.7h-1.3c-2.4,0-4.8-0.1-7.3-0.3c-5.1-0.4-10.2-1.4-15.3-2.8
				c3.4-1.2,6.9-2.1,10.4-2.5c3.2-0.4,6.5-0.6,9.7-0.6c7,0,14,0.8,20.9,2.5c0.3,0.1,2.5,0.9,1.7,1.6c-8.7,2.7-20.2,7.2-30.9,7.2
				c-7.6,0-14.7-2.2-20.2-9c5.8,7.3,13.3,9.7,21.1,9.7c10.4,0,21.5-4.3,30.2-6.9c0.1-0.1,0.2-0.1,0.3-0.3c0.1-0.1,0.1-0.3,0.2-0.4
				c0.1-0.2,0.1-0.4,0.1-0.6s0-0.4,0-0.6c-0.2-0.5-0.4-0.9-0.6-1.1s-0.5-0.4-0.8-0.5c-4-0.8-10.6-1.8-11.6-2
				C220.7,1905.4,218.2,1905.2,216.2,1905.2L216.2,1905.2z"/>
		</g>
	</g>
</g>
<g id="j">
</g>
<g id="k">
	<g id="l">
	</g>
	<g id="m">
	</g>
</g>
<g id="n">
	<g id="o">
	</g>
	<g id="p">
	</g>
</g>
<g id="TreeTop_x5F_Sumatran">
	<path class="st1" d="M243.7,1945.3c0,0,2.3-45,4.6-48.1c14.3-18.8,25.8-15.8,32.7-33c6.8-17.1,18.1-25.4,26.6-39.9
		c6.8-11.5,2.6-15,17-38.7s-20.2-2.5-23.8-1.5c-3.6,1,30.8-15.8,29.6-11.8c-1.2,4-22.2,7.1-22.2-6.5s-28.8,96.3-49.3,99.8
		c-20.5,3.5-35.7,16.6-20.5-3c15.2-19.7,32.5-48.9,33.7-62.5s-6.1-27.5,6.3-45.2c12.4-17.6-12.6-18.2-13.4-26.7s-9.4-39-3-25.4
		c6.4,13.6-3.2,64-8.8,87.2s-14.8,58.5-27.3,67c-12.4,8.6-11.6,0.5-8.4-22.7s9.2-26.7,14.4-52.4c5.2-25.7,6.8-40.3,4.4-69.6
		c-2.4-29.2-13.6-47.4-14.4-38.8s-2.8,94.8-10.4,126.5c-7.6,31.8-6.8,66.1-11.7,55.6c-4.1-8.8-24.3-36.6-25.1-46.1
		s6.7-34.1,8.7-47.7c2-13.6,6.8-76.6,6.4-80.6c-0.4-4-6-2-6-2s-6.4,108.4-16.9,118.9c-10.4,10.6-10,8.6-9.6-15.1
		c0.4-23.7,0.2-41.1-0.2-56.7c-0.4-15.6-12.2-4.7-13.4,7.9s-0.1,53.3,4.8,64.9c4.8,11.6,21.2,36.8,29.3,62
		c3.4,10.6-5.6,38.3-22.9,9.6c-17.3-28.7-22.5-37.8-26.5-47.4c-4-9.6-15.5-8.2-21.1-28.3c-5.6-20.2-3.4-2.6-5.4-19.2l-11.2,8.9
		c0,0-2.5,9.4,2.3,18.5c4.8,9.1,19,14.3,27.3,31.8c8.3,17.5,27.7,52.4,42.9,69c15.2,16.6,16.4,24.7,16.9,47.4
		c0.5,25.2,1.1,46,1.1,46l62.7-3.4L243.7,1945.3z"/>
	<path class="st3" d="M257.9,1872.4c-8.1-6.1-15.6-0.3-23.1,4.3c-4.1,2.5-10.6,7.5-15.6,6.7c-5.3-0.8-8.3-7.8-10.5-11.7
		c-5.1-9.2-17.8-12.7-27.8-13.4c-8.8-0.7-16.4-1-22.2-9.5c-2.7-4-9.2-0.2-6.5,3.8c5.4,7.9,14.6,10.2,23.6,10.6
		c6,0.3,12.1-0.2,17.8,1.8c5.3,1.8,9.3,5.9,11.5,11c1.9,4.4,3.6,8.3,8.2,10.4c4,1.8,8.7,1.8,12.9,0.5c8.3-2.5,19.2-14.8,28-8.1
		C258,1881.8,261.7,1875.3,257.9,1872.4z"/>
	<g>
		<path class="st4" d="M230.8,1778.4c0-20.8-14.9-37.6-33.3-37.6c-4.6,0-9,1.1-12.9,3c-7-16.8-22.2-28.5-39.7-28.5
			c-24.2,0-43.9,22.2-43.9,49.6c0,3.8,0.4,7.4,1.1,10.9c-11.7,0.5-21,11.4-21,24.7c0,13.7,9.8,24.8,21.9,24.8c0.7,0,1.5,0,2.2-0.1
			c6,13.2,18.2,22.2,32.3,22.2c12.3,0,23.1-6.9,29.7-17.5c3.9,5.1,9.7,8.3,16.1,8.3c11.5,0,20.8-10.2,21.3-23.1
			C219.6,1811.5,230.8,1796.4,230.8,1778.4z"/>
		<g>
			<path class="st5" d="M225.2,1742.9c0.1,1,0.1,2,0.2,3c0.3,17.8-10.7,32.7-25.4,36.2c-0.5,12.4-9.5,22.3-20.6,22.3
				c-6.2,0-11.8-3.1-15.6-8c-6.4,10.2-16.9,16.9-28.7,16.9c-13.6,0-25.4-8.7-31.2-21.5c-0.7,0.1-1.4,0.1-2.1,0.1
				c-9.1,0-16.9-6.5-19.9-15.6c-0.9,2.7-1.4,5.6-1.4,8.6c0,13.7,9.8,24.8,21.9,24.8c0.7,0,1.5,0,2.2-0.1c6,13.2,18.2,22.2,32.3,22.2
				c12.3,0,23.1-6.9,29.7-17.5c3.9,5.1,9.7,8.3,16.1,8.3c11.5,0,20.8-10.2,21.3-23.1c15-3.6,26.3-18.7,26.3-36.8
				C230.2,1755.4,228.3,1748.7,225.2,1742.9z"/>
			<path class="st5" d="M100.7,1743.3c0,0.2-0.1,0.5-0.1,0.7c0.1,0,0.1,0,0.2,0C100.7,1743.8,100.7,1743.6,100.7,1743.3z"/>
			<path class="st6" d="M101.7,1791.9c0.7,0,1.4,0,2.1-0.1c5.9,12.8,17.6,21.5,31.2,21.5c11.9,0,22.4-6.7,28.7-16.9
				c3.8,4.9,9.3,8,15.6,8c11.1,0,20.1-9.9,20.6-22.3c14.7-3.6,25.7-18.5,25.4-36.2c0-1-0.1-2-0.2-3c-5.9-10.7-16.3-17.8-28.3-17.8
				c-4.6,0-9,1.1-12.9,3c-7-16.8-22.2-28.5-39.7-28.5c-22.5,0-41,19.1-43.6,43.7c0,0.2,0.1,0.5,0.1,0.7c-0.1,0-0.1,0-0.2,0
				c-0.2,1.7-0.2,3.4-0.2,5.2c0,3.8,0.4,7.4,1.1,10.9c-9,0.4-16.6,7-19.6,16.1C84.8,1785.4,92.5,1791.9,101.7,1791.9z"/>
		</g>
		<ellipse class="st6" cx="169.7" cy="1725.3" rx="17.2" ry="19.5"/>
	</g>
	<g>
		<g>
			<path class="st5" d="M169,1703.2c0,0.2-0.1,0.5-0.1,0.7c0.1,0,0.1,0,0.2,0C169.1,1703.7,169.1,1703.4,169,1703.2z"/>
			<path class="st6" d="M170,1751.8c0.7,0,1.4,0,2.1-0.1c5.9,12.8,17.6,21.5,31.2,21.5c11.9,0,22.4-6.7,28.7-16.9
				c3.8,4.9,9.3,8,15.6,8c11.1,0,20.1-9.9,20.6-22.3c14.7-3.6,25.7-18.5,25.4-36.2c0-1-0.1-2-0.2-3c-5.9-10.7-16.3-17.8-28.3-17.8
				c-4.6,0-9,1.1-12.9,3c-7-16.8-22.2-28.5-39.7-28.5c-22.5,0-41,19.1-43.6,43.7c0,0.2,0.1,0.5,0.1,0.7c-0.1,0-0.1,0-0.2,0
				c-0.2,1.7-0.2,3.4-0.2,5.2c0,3.8,0.4,7.4,1.1,10.9c-9,0.4-16.6,7-19.6,16.1C153.1,1745.3,160.9,1751.8,170,1751.8z"/>
		</g>
		<ellipse class="st6" cx="238.1" cy="1685.2" rx="17.2" ry="19.5"/>
	</g>
	<g>
		<path class="st4" d="M335.4,1788c0-20.8-14.9-37.6-33.3-37.6c-4.6,0-9,1.1-12.9,3c-7-16.8-22.2-28.5-39.7-28.5
			c-24.2,0-43.9,22.2-43.9,49.6c0,3.8,0.4,7.4,1.1,10.9c-11.7,0.5-21,11.4-21,24.7c0,13.7,9.8,24.8,21.9,24.8c0.7,0,1.5,0,2.2-0.1
			c6,13.2,18.2,22.2,32.3,22.2c12.3,0,23.1-6.9,29.7-17.5c3.9,5.1,9.7,8.3,16.1,8.3c11.5,0,20.8-10.2,21.3-23.1
			C324.1,1821.2,335.4,1806.1,335.4,1788z"/>
		<path class="st4" d="M290.3,1868.4c0-6.2-5.2-11.2-11.5-11.2c-1.6,0-3.1,0.3-4.5,0.9c-2.4-5-7.7-8.5-13.8-8.5
			c-8.4,0-15.2,6.6-15.2,14.8c0,1.1,0.1,2.2,0.4,3.3c-4.1,0.2-7.3,3.4-7.3,7.4c0,4.1,3.4,7.4,7.6,7.4c0.3,0,0.5,0,0.8,0
			c2.1,3.9,6.3,6.6,11.2,6.6c4.3,0,8-2.1,10.3-5.2c1.4,1.5,3.4,2.5,5.6,2.5c4,0,7.2-3.1,7.4-6.9
			C286.4,1878.3,290.3,1873.8,290.3,1868.4z"/>
		<path class="st4" d="M168.5,1850.6c0-4.3-4-7.9-8.9-7.9c-1.2,0-2.4,0.2-3.5,0.6c-1.9-3.5-6-5.9-10.7-5.9
			c-6.5,0-11.8,4.6-11.8,10.4c0,0.8,0.1,1.6,0.3,2.3c-3.1,0.1-5.6,2.4-5.6,5.2c0,2.9,2.6,5.2,5.9,5.2c0.2,0,0.4,0,0.6,0
			c1.6,2.8,4.9,4.6,8.7,4.6c3.3,0,6.2-1.4,8-3.6c1.1,1.1,2.6,1.7,4.3,1.7c3.1,0,5.6-2.1,5.7-4.8
			C165.4,1857.5,168.5,1854.4,168.5,1850.6z"/>
		<g>
			<path class="st3" d="M329.7,1752.6c0.1,1,0.1,2,0.2,3c0.3,17.8-10.7,32.7-25.4,36.2c-0.5,12.4-9.5,22.3-20.6,22.3
				c-6.2,0-11.8-3.1-15.6-8c-6.4,10.2-16.9,16.9-28.7,16.9c-13.6,0-25.4-8.7-31.2-21.5c-0.7,0.1-1.4,0.1-2.1,0.1
				c-9.1,0-16.9-6.5-19.9-15.6c-0.9,2.7-1.4,5.6-1.4,8.6c0,13.7,9.8,24.8,21.9,24.8c0.7,0,1.5,0,2.2-0.1c6,13.2,18.2,22.2,32.3,22.2
				c12.3,0,23.1-6.9,29.7-17.5c3.9,5.1,9.7,8.3,16.1,8.3c11.5,0,20.8-10.2,21.3-23.1c15-3.6,26.3-18.7,26.3-36.8
				C334.7,1765.1,332.9,1758.3,329.7,1752.6z"/>
			<path class="st5" d="M205.2,1753c0,0.2-0.1,0.5-0.1,0.7c0.1,0,0.1,0,0.2,0C205.3,1753.5,205.2,1753.2,205.2,1753z"/>
			<path class="st6" d="M206.2,1801.6c0.7,0,1.4,0,2.1-0.1c5.9,12.8,17.6,21.5,31.2,21.5c11.9,0,22.4-6.7,28.7-16.9
				c3.8,4.9,9.3,8,15.6,8c11.1,0,20.1-9.9,20.6-22.3c14.7-3.6,25.7-18.5,25.4-36.2c0-1-0.1-2-0.2-3c-5.9-10.7-16.3-17.8-28.3-17.8
				c-4.6,0-9,1.1-12.9,3c-7-16.8-22.2-28.5-39.7-28.5c-22.5,0-41,19.1-43.6,43.7c0,0.2,0.1,0.5,0.1,0.7c-0.1,0-0.1,0-0.2,0
				c-0.2,1.7-0.2,3.4-0.2,5.2c0,3.8,0.4,7.4,1.1,10.9c-9,0.4-16.6,7-19.6,16.1C189.3,1795.1,197.1,1801.6,206.2,1801.6z"/>
		</g>
	</g>
	<g id="String_Leaves">
		<g>
			<g>
				<g>
					<path class="st7" d="M205,1876.9c0,0-4.4,0.4-6.9-5.1s-1.5-5.5-1.5-5.5s7.2,0.8,8.1,5S205,1876.9,205,1876.9z"/>
				</g>
				<g>
					<path class="st7" d="M188.9,1877.9c0,0-2.4-4.7,2.6-9.8c5-5.1,5.4-4,5.4-4s2.2,8.3-2,11.1
						C190.7,1878,188.9,1877.9,188.9,1877.9z"/>
				</g>
				<g>
					<path class="st7" d="M183.9,1872.4c0,0-2.3-3.4,1.1-7.9c3.4-4.4,3.8-3.6,3.8-3.6s2.5,6.2-0.5,8.8
						C185.3,1872.3,183.9,1872.4,183.9,1872.4z"/>
				</g>
				<g>
					<path class="st7" d="M177.6,1872.3c0,0-5.3-5.4-0.8-14.6c4.6-9.2,5.6-7.9,5.6-7.9s6.7,10.4,2.2,16.1
						C180.2,1871.6,177.6,1872.3,177.6,1872.3z"/>
				</g>
				<g>
					<path class="st7" d="M165.9,1861.7c0,0,0.5-5.5,7.6-7.2c7.2-1.8,7-0.6,7-0.6s-2.6,8.5-7.8,8.7
						C167.4,1862.8,165.9,1861.7,165.9,1861.7z"/>
				</g>
				<g>
					<path class="st7" d="M158.1,1859.1c0,0,0.9-5.5,8.3-6.7c7.4-1.2,7.1-0.1,7.1-0.1s-3.3,8.5-8.6,8.3
						C159.7,1860.3,158.1,1859.1,158.1,1859.1z"/>
				</g>
			</g>
		</g>
		<g>
			<g>
				<g>
					<path class="st7" d="M228.8,1885.1c0,0-1.3-4.7,4.1-8.3s5.6-2.7,5.6-2.7s0.5,7.9-3.7,9.6
						C230.4,1885.5,228.8,1885.1,228.8,1885.1z"/>
				</g>
				<g>
					<path class="st7" d="M220.3,1892.8c0,0-3.3-6.8,4-14s7.9-5.7,7.9-5.7s3,12-3.1,15.9S220.3,1892.8,220.3,1892.8z"/>
				</g>
				<g>
					<path class="st7" d="M214.6,1891.7c0,0-3-4.9,1.9-10.8s5.5-4.8,5.5-4.8s3.1,8.8-1.1,12.2
						C216.6,1891.6,214.6,1891.7,214.6,1891.7z"/>
				</g>
				<g>
					<path class="st7" d="M199.1,1883.1c0,0,4.7-6.1,14.5-2.7c9.8,3.4,8.6,4.6,8.6,4.6s-9.6,8.1-15.8,4.3
						C200.2,1885.6,199.1,1883.1,199.1,1883.1z"/>
				</g>
			</g>
		</g>
	</g>
</g>
</svg>
