<?xml version="1.0" encoding="utf-8"?>
<!-- Generator: Adobe Illustrator 26.2.1, SVG Export Plug-In . SVG Version: 6.00 Build 0)  -->
<svg version="1.1" id="Layer_1" xmlns="http://www.w3.org/2000/svg" xmlns:xlink="http://www.w3.org/1999/xlink" x="0px" y="0px"
	 viewBox="0 0 428 2136.5" style="enable-background:new 0 0 428 2136.5;" xml:space="preserve">
<style type="text/css">
	.st0{opacity:0.78;}
	.st1{fill:#6D5341;}
	.st2{fill:#C19F87;}
	.st3{fill:#84A749;}
	.st4{fill:#396D0A;}
	.st5{fill:#66A566;}
	.st6{fill:#316700;}
	.st7{fill:#458144;}
	.st8{fill:#4D7600;}
</style>
<g id="a">
	<g id="b" class="st0">
	</g>
</g>
<g id="c">
	<g id="d">
		<g>
			<path id="e" class="st1" d="M245.4,2075.2c0,0,6.1,15.6,14.1,20.8c9.3,5.9,1.5,6.4-3,5.8c-4.5-0.6-12.4-4.7-15.4-8.4
				s-56.1,12.3-63,12.9s-14.7,1.8-15.8-0.4s7.5-4.4,10.5-12.1c3-7.7,5.5-21.8,7.2-24.6C183.6,2063.5,245.4,2075.2,245.4,2075.2
				L245.4,2075.2z"/>
			<path class="st1" d="M257.2,2101.9c-2.9-3.6-5.8-6.5-8.6-9.1c-0.7-0.6-1.2-1.5-1.7-2.4c-0.2-2.8-0.4-5.4-0.4-5.4v-0.3
				c-0.6-11.5-0.7-34.5-1.9-52.4c-0.6-8.1-0.6-9.4-0.8-26.1c-4.1,4.9-10,5-15,7.1c-10.2,4.3-18.5,5.4-28.8,2.2
				c-6.3-2-14.4-2.6-19.1-10.6c0.7,12.4,0,17.5,0.1,26.4c0.1,4.2-0.2,11.3-0.4,15.5c-0.7,11.5-0.1,15.9-2.4,26.8
				c-0.5,2.9-0.9,5.9-1.2,8.9c-0.3,2.6-0.6,5.2-0.6,7.8c-0.3,2.4-0.6,5.5-0.8,8.8c-0.5,8.4-4.6,10.4-9.8,12.1
				c-5.1,1.7-7.5,4.1-7.5,4.1s-10.2,8.6-3,6.2c3.5-1.2,13.9-5.7,18.2-5.8s7.8,0.1,12.4-3.1c4.6-3.2,3.7-5.3,11-4.2
				c4.4,0.7,5.9,4.7,2.9,14.4c-2.8,8.8-0.7,15.1,3.2,14.2c1.4-0.3,6.3-16.3,13.4-22.6c2.1-1.8,2.8-2.6,5.9-4.3
				c4.2-2.3,7.4-0.5,14.4,4.6c5.4,3.9,6.8,6.1,9.1,7.8s4.7-1.4,1.9-5.4s-3.8-3.4-6.6-10.9s4.3-1.7,10,2.1c6.1,4,16.8,6,19.5,5.5
				C272.9,2113.2,260.2,2105.5,257.2,2101.9L257.2,2101.9z"/>
			<g id="f">
				<path class="st2" d="M230.7,2014.2c-6.2,2.2-12.6,3.6-18.9,4.2c-2.8,0-17.6-2.1-20.9-4.4c-4.3-2.9-10-7.9-10-9
					c-0.1-1.6,4-0.9,5.8-1.3c7.6-1.4,11.9-1.7,17.4-2.2c9.4-0.8,9-1.2,19.6,0c1.4,0.2,13.6,2,15.1,2.5c3.6,1.3,5,1.6,4.9,2.1
					c0,0.1,0,0.2-0.1,0.3c-3,3.9-9.6,6.2-13.1,7.9"/>
				<path class="st1" d="M214.4,2000.7c-2.7,0-4.9,0.3-10.1,0.8c-2.8,0.3-5.2,0.4-7.8,0.8c-2,0.6-4,1.2-6,2.1l-1.7,0.7
					c8.6,2.6,17.3,3.9,26,3.9h2.5c3.2-0.2,6.6,0.3,9.4-3c-4.5-1.4-9.1-2.1-13.7-2.2c-1.7,0-3.4,0.1-5,0.4h-0.4l0,0l5.1,1.1l-4.6-1.1
					h2.7c4.9-0.1,9.7,0.6,14.5,2c-2.5,2-5.4,1.5-8.1,1.7h-1.4c-2.5,0-5-0.1-7.5-0.3c-5.3-0.4-10.6-1.4-15.9-2.8
					c3.6-1.2,7.2-2.1,10.8-2.5c3.4-0.4,6.7-0.6,10.1-0.6c7.3,0,14.5,0.8,21.7,2.5c0.3,0.1,2.6,0.9,1.7,1.6c-9.1,2.7-21,7.2-32.1,7.2
					c-7.9,0-15.3-2.2-21-9c6,7.3,13.8,9.7,21.9,9.7c10.8,0,22.4-4.3,31.4-6.9c0.1-0.1,0.2-0.1,0.3-0.3c0.1-0.1,0.2-0.3,0.2-0.4
					c0.1-0.2,0.1-0.4,0.1-0.6s0-0.4,0-0.6c-0.2-0.5-0.4-0.9-0.7-1.1c-0.3-0.3-0.6-0.4-0.9-0.5c-4.2-0.8-11.1-1.8-12.1-2
					C219.1,2000.9,216.5,2000.7,214.4,2000.7L214.4,2000.7z"/>
			</g>
		</g>
	</g>
	<g id="g">
		<g>
			<path class="st1" d="M243.9,2017.5c0.1-6-0.1-12.5,0-19.4c0-1.2,0.3-1.8,0.1-10.5c0.2-5.3,0.3-11,0.3-11l0.2-16.1
				c-0.3-15.8-0.3-8.3,0-26.2c0.1-8.1,0-6.9-0.1-23.5c-4.1,4.9-6.2,5.7-11.1,7.8c-10.2,4.3-18.5,5.4-28.8,2.2c-6.3-2-15.7-3-20.4-11
				c-0.5,10.2-1.1,17.5-1.3,26.5c-0.1,5.3-0.6,10.6-0.6,14.8c-0.2,13.2-0.2,9.2-0.8,26.3c-0.1,3,0.3,7.5,0,10.5
				c-0.3,2.6-0.2,4.7-0.3,7.3c0.1,7.2,0,4.7-0.1,8c-0.1,9.2,0.3,12.7,0.4,19.3"/>
			<g id="h">
				<path class="st1" d="M232.5,1920c-6.2,2.2-11.3,2.8-17.6,3.4c-2.8,0-18.2-1.8-21.5-4.1c-4.3-2.9-9.4-8.2-9.4-9.3
					c-0.1-1.6,4-0.9,5.8-1.3c7.6-1.4,11.9-1.7,17.4-2.2c9.4-0.8,9-1.2,19.6,0c1.4,0.2,13.6,2,15.1,2.5c4.5,1.6,1.4,5.2,0.5,6.1
					c-3,3.9-5.2,2.5-8.8,4.2"/>
				<path class="st1" d="M217.4,1905.8c-2.7,0-4.9,0.3-10.1,0.8c-2.8,0.3-5.2,0.4-7.8,0.8c-2,0.6-4,1.2-6,2.1l-1.7,0.7
					c8.6,2.6,17.3,3.9,26,3.9h2.5c3.2-0.2,6.6,0.3,9.4-3c-4.5-1.4-9.1-2.1-13.7-2.2c-1.7,0-3.4,0.1-5,0.4h-0.4l0,0l5.1,1.1l-4.6-1.1
					h2.7c4.9-0.1,9.7,0.6,14.5,2c-2.5,2-5.4,1.5-8.1,1.7h-1.4c-2.5,0-5-0.1-7.5-0.3c-5.3-0.4-10.6-1.4-15.9-2.8
					c3.6-1.2,7.2-2.1,10.8-2.5c3.4-0.4,6.7-0.6,10.1-0.6c7.3,0,14.5,0.8,21.7,2.5c0.3,0.1,2.6,0.9,1.7,1.6c-9.1,2.7-21,7.2-32.1,7.2
					c-7.9,0-15.3-2.2-21-9c6,7.3,13.8,9.7,21.9,9.7c10.8,0,22.4-4.3,31.4-6.9c0.1-0.1,0.2-0.1,0.3-0.3c0.1-0.1,0.2-0.3,0.2-0.4
					c0.1-0.2,0.1-0.4,0.1-0.6s0-0.4,0-0.6c-0.2-0.5-0.4-0.9-0.7-1.1c-0.3-0.3-0.6-0.4-0.9-0.5c-4.2-0.8-11.1-1.8-12.1-2
					C222.2,1906,219.6,1905.8,217.4,1905.8L217.4,1905.8z"/>
			</g>
		</g>
		<g id="i">
			<path class="st2" d="M231.9,1918.7c-6,2.2-12.1,3.6-18.2,4.2c-2.7,0-16.9-2.1-20.1-4.4c-4.1-2.9-9.6-7.9-9.6-9
				c-0.1-1.6,3.8-0.9,5.6-1.3c7.4-1.4,11.4-1.7,16.8-2.2c9.1-0.8,8.6-1.2,18.9,0c1.4,0.2,13.1,2,14.5,2.5c3.5,1.3,4.8,1.6,4.7,2.1
				c0,0.1,0,0.2-0.1,0.3c-2.9,3.9-9.2,6.2-12.6,7.9"/>
			<path class="st1" d="M216.2,1905.2c-2.6,0-4.7,0.3-9.7,0.8c-2.6,0.3-5,0.4-7.6,0.8c-1.9,0.6-3.9,1.2-5.8,2.1l-1.6,0.7
				c8.3,2.6,16.6,3.9,25,3.9h2.4c3-0.2,6.3,0.3,9-3c-4.4-1.4-8.8-2.1-13.2-2.2c-1.6,0-3.3,0.1-4.9,0.4h-0.4l0,0l4.9,1.1l-4.4-1.1
				h2.6c4.7-0.1,9.4,0.6,14,2c-2.4,2-5.2,1.5-7.8,1.7h-1.3c-2.4,0-4.8-0.1-7.3-0.3c-5.1-0.4-10.2-1.4-15.3-2.8
				c3.4-1.2,6.9-2.1,10.4-2.5c3.2-0.4,6.5-0.6,9.7-0.6c7,0,14,0.8,20.9,2.5c0.3,0.1,2.5,0.9,1.7,1.6c-8.7,2.7-20.2,7.2-30.9,7.2
				c-7.6,0-14.7-2.2-20.2-9c5.8,7.3,13.3,9.7,21.1,9.7c10.4,0,21.5-4.3,30.2-6.9c0.1-0.1,0.2-0.1,0.3-0.3c0.1-0.1,0.1-0.3,0.2-0.4
				c0.1-0.2,0.1-0.4,0.1-0.6s0-0.4,0-0.6c-0.2-0.5-0.4-0.9-0.6-1.1s-0.5-0.4-0.8-0.5c-4-0.8-10.6-1.8-11.6-2
				C220.7,1905.4,218.2,1905.2,216.2,1905.2L216.2,1905.2z"/>
		</g>
	</g>
	<g id="j">
		<g>
			<path class="st1" d="M244.5,1932c0.1-6-0.2-93.6-0.1-100.5c0-1.2,0.3-1.8,0.1-10.5c0.2-5.3,0.3-11,0.3-11v-15.8
				c-0.3-15.8-0.3-5.7,0.2-26.5c0.2-8.1,0-6.9-0.1-23.5c-4.1,4.9-6.2,5.7-11.1,7.8c-10.2,4.3-18.5,5.4-28.8,2.2
				c-6.3-2-15.7-3-20.4-11c-0.5,10.2-0.6,16.6-0.8,25.5c-0.1,5.3-0.3,8.8-0.3,13c-0.2,13.2,0.1,6.4-0.4,23.5
				c-0.1,3,0.1,9.7-0.1,14.3c-0.1,5.2,0,5.4-0.1,8c0.1,7.2,0.1,6.1,0,9.4c-0.1,9.2-0.1,91.9,0,98.5"/>
			<g id="k">
				<path class="st1" d="M233.2,1753.3c-6.2,2.2-11.3,2.8-17.6,3.4c-2.8,0-18.2-1.8-21.5-4.1c-4.3-2.9-9.4-8.2-9.4-9.3
					c-0.1-1.6,4-0.9,5.8-1.3c7.6-1.4,11.9-1.7,17.4-2.2c9.4-0.8,9-1.2,19.6,0c1.4,0.2,13.6,2,15.1,2.5c1.1,0.4,1.6,0.5,1.9,1.1
					c0.8,1.6-0.8,4.3-1.4,5c-3,3.9-5.2,2.5-8.8,4.2"/>
				<path class="st1" d="M218.1,1739.2c-2.7,0-4.9,0.3-10.1,0.8c-2.8,0.3-5.2,0.4-7.8,0.8c-2,0.6-4,1.2-6,2.1l-1.7,0.7
					c8.6,2.6,17.3,3.9,26,3.9h2.5c3.2-0.2,6.6,0.3,9.4-3c-4.5-1.4-9.1-2.1-13.7-2.2c-1.7,0-3.4,0.1-5,0.4h-0.4l0,0l5.1,1.1l-4.6-1.1
					h2.7c4.9-0.1,9.7,0.6,14.5,2c-2.5,2-5.4,1.5-8.1,1.7h-1.4c-2.5,0-5-0.1-7.5-0.3c-5.3-0.4-10.6-1.4-15.9-2.8
					c3.6-1.2,7.2-2.1,10.8-2.5c3.4-0.4,6.7-0.6,10.1-0.6c7.3,0,14.5,0.8,21.7,2.5c0.3,0.1,2.6,0.9,1.7,1.6c-9.1,2.7-21,7.2-32.1,7.2
					c-7.9,0-15.3-2.2-21-9c6,7.3,13.8,9.7,21.9,9.7c10.8,0,22.4-4.3,31.4-6.9c0.1-0.1,0.2-0.1,0.3-0.3c0.1-0.1,0.2-0.3,0.2-0.4
					c0.1-0.2,0.1-0.4,0.1-0.6s0-0.4,0-0.6c-0.2-0.5-0.4-0.9-0.7-1.1c-0.3-0.3-0.6-0.4-0.9-0.5c-4.2-0.8-11.1-1.8-12.1-2
					C222.9,1739.4,220.3,1739.1,218.1,1739.2L218.1,1739.2z"/>
			</g>
		</g>
		<path class="st1" d="M240.6,1862.2c0,0,11.8,4.6,24-9.9c5.7-6.7,12.2-10.6,16.7-14.3c5.2-4.2,6.5-4.8,8.9-9.6
			c5-10.3,8.7-22.2,9-10.2c0.3,10.6-13.9,24.1-13.9,24.1s4.2,1.3,12.1-1.4c7.3-2.5,9-3.6,10.8-3.6s-3.6,5.8-13,8
			c-9.5,2.2-20.1,9.3-22.2,16.2s-35,31.6-35,31.6L240.6,1862.2L240.6,1862.2z"/>
		<g>
			<path class="st3" d="M285.5,1854.8c0,0-0.6-4.1,4.4-6.6s5-1.6,5-1.6s-0.5,6.7-4.2,7.7S285.5,1854.8,285.5,1854.8z"/>
			<path class="st3" d="M305,1849.7c0,0-3.6-0.4-4.7-5.2c-1-4.8-0.3-4.7-0.3-4.7s5.6,1.9,5.6,5.4S305,1849.7,305,1849.7L305,1849.7z
				"/>
			<path class="st3" d="M293,1845.2c0,0,0.1-4.5,5.8-6.3s5.6-0.9,5.6-0.9s-1.6,7.1-5.8,7.6C294.3,1846,293,1845.2,293,1845.2
				L293,1845.2z"/>
			<path class="st3" d="M285,1841.1c0,0,1.4-3.4,6.4-3.2s4.6,1,4.6,1s-3.4,5-6.8,4.1S285,1841.1,285,1841.1L285,1841.1z"/>
			<path class="st3" d="M294.5,1834.4c0,0-2.7-3.5,0.6-8.4s3.8-4.2,3.8-4.2s3.1,6.5,0.1,9.4S294.5,1834.4,294.5,1834.4L294.5,1834.4
				z"/>
			<path class="st3" d="M297.2,1822.9c0,0-3.6-2.4-2.1-8s2.2-5.1,2.2-5.1s4.9,5,3.1,8.7C298.5,1822.2,297.2,1822.9,297.2,1822.9
				L297.2,1822.9z"/>
			<path class="st3" d="M295.2,1834.9c0,0-4.6,0.1-6.8-5.7s-1.2-5.8-1.2-5.8s7.4,1.3,8,5.7S295.2,1834.9,295.2,1834.9L295.2,1834.9z
				"/>
			<path class="st3" d="M279.2,1844.6c0,0-2.7-3.2,0.2-8.1s3.4-4.1,3.4-4.1s3.3,6,0.5,9S279.2,1844.6,279.2,1844.6z"/>
		</g>
		<g id="l">
			<path class="st2" d="M232.6,1751.5c-6,2.2-12.1,3.6-18.2,4.2c-2.7,0-16.9-2.1-20.1-4.4c-4.1-2.9-9.6-7.9-9.6-9
				c-0.1-1.6,3.8-0.9,5.6-1.3c7.4-1.4,11.4-1.7,16.8-2.2c9.1-0.8,8.6-1.2,18.9,0c1.4,0.2,13.1,2,14.5,2.5c3.5,1.3,4.8,1.6,4.7,2.1
				c0,0.1,0,0.2-0.1,0.3c-2.9,3.9-9.2,6.2-12.6,7.9"/>
			<path class="st1" d="M216.8,1738.1c-2.6,0-4.7,0.3-9.7,0.8c-2.6,0.3-5,0.4-7.6,0.8c-1.9,0.6-3.9,1.2-5.8,2.1l-1.6,0.7
				c8.3,2.6,16.6,3.9,25,3.9h2.4c3-0.2,6.3,0.3,9-3c-4.4-1.4-8.8-2.1-13.2-2.2c-1.6,0-3.3,0.1-4.9,0.4H210l0,0l4.9,1.1l-4.4-1.1h2.6
				c4.7-0.1,9.4,0.6,14,2c-2.4,2-5.2,1.5-7.8,1.7H218c-2.4,0-4.8-0.1-7.3-0.3c-5.1-0.4-10.2-1.4-15.3-2.8c3.4-1.2,6.9-2.1,10.4-2.5
				c3.2-0.4,6.5-0.6,9.7-0.6c7,0,14,0.8,20.9,2.5c0.3,0.1,2.5,0.9,1.7,1.6c-8.7,2.7-20.2,7.2-30.9,7.2c-7.6,0-14.7-2.2-20.2-9
				c5.8,7.3,13.3,9.7,21.1,9.7c10.4,0,21.5-4.3,30.2-6.9c0.1-0.1,0.2-0.1,0.3-0.3c0.1-0.1,0.1-0.3,0.2-0.4c0.1-0.2,0.1-0.4,0.1-0.6
				s0-0.4,0-0.6c-0.2-0.5-0.4-0.9-0.6-1.1s-0.5-0.4-0.8-0.5c-4-0.8-10.6-1.8-11.6-2C221.3,1738.3,218.9,1738,216.8,1738.1
				L216.8,1738.1z"/>
		</g>
	</g>
</g>
<g id="m">
</g>
<g id="n">
	<g id="o">
	</g>
	<g id="p">
	</g>
</g>
<g id="q">
	<g id="r">
	</g>
	<g id="s">
	</g>
</g>
<g id="TreeTop_x5F_Amazon">
	<path class="st1" d="M244.4,1799.2c0,0,2.6-46.6,4.9-49.7c14.3-18.8,25.8-15.8,32.7-33c6.8-17.1,18.1-25.4,26.6-39.9
		c6.8-11.5-4.8,6.9,9.7-16.8s4.4-8.8,0.8-7.8c-3.6,1,0.5-13.4-0.7-9.4s-10.8,20.1-10.8,6.5s-27,65.2-47.5,68.8
		c-20.5,3.5-24.1,8.9-8.8-10.7c15.2-19.7,14.7-32.9,19.1-47.1c4-13.1,1.9-13.4,14.3-31c12.4-17.6-5.7-2.9-6.5-11.5
		c-0.8-8.6-22.2-20.8-15.8-7.2c6.4,13.6-2.3,8.7-8,31.9c-5.6,23.2-14.8,58.5-27.3,67c-12.4,8.6-11.6,0.5-8.4-22.7
		c3.2-23.2,6.4-29.4,11.7-55.1c0.6-3.1,5.4,10.1,1.8-8.7c-3.8-20.2,20.1,7.5,18-18.2c-2.4-29.2-27.2,2.2-28,10.8
		c-0.8,8.6-1.9,5.2-9.5,37s-6.8,66.1-11.7,55.6c-4.1-8.8-24.3-36.6-25.1-46.1c-0.8-9.6,6.7-34.1,8.7-47.7s5,9.7,4.6,5.7
		c-0.4-4-18.6,5-18.6,5s10.5,6.6,0.1,17.1c-10.4,10.6-8.5,15.8-12.2-6.6c-3.8-23.4,6,5.1,5.6-10.5s-11.7,3.9-12.9,16.5
		c-1.2,12.6-2.6-2.4-1.6,10.1c0.6,6.7-6.8,4.2,3.2,13.3c15.8,14.3,19.3,27.6,26.1,48.7c3.4,10.6,3.8,37.4-22.9,9.6
		c-23.2-24.2-22.5-37.8-26.5-47.4c-4-9.6-17.9-1.1-23.5-21.3c-5.6-20.2-6,7.1-8-9.5l-3.5,16.6c0,0-5.1-15-0.3-5.9
		c4.8,9.1,19,14.3,27.3,31.8c8.3,17.5,7.9,40,42.9,69c17.4,14.4,15.4,24.2,15.9,46.9c0.5,25.2,5,58.6,5,58.6l55.5-14.8L244.4,1799.2
		z"/>
	<g>
		<path class="st4" d="M151.8,1669c0-11.2-8.1-20.4-18-20.4c-2.5,0-4.9,0.6-7,1.6c-3.8-9.1-12-15.4-21.5-15.4
			c-13.1,0-23.8,12-23.8,26.9c0,2,0.2,4,0.6,5.9c-6.3,0.3-11.4,6.2-11.4,13.4c0,7.4,5.3,13.4,11.9,13.4c0.4,0,0.8,0,1.2-0.1
			c3.3,7.1,9.9,12,17.5,12c6.7,0,12.5-3.7,16.1-9.5c2.1,2.7,5.2,4.5,8.7,4.5c6.2,0,11.3-5.5,11.5-12.5
			C145.7,1686.9,151.8,1678.8,151.8,1669z"/>
		<g>
			<path class="st5" d="M84.6,1620.3c0,0.1,0,0.3,0,0.4c0,0,0.1,0,0.1,0C84.6,1620.6,84.6,1620.5,84.6,1620.3z"/>
			<path class="st6" d="M81.9,1676.3c0.4,0,0.8,0,1.2-0.1c3.2,6.9,9.5,11.6,16.9,11.6c6.4,0,12.1-3.6,15.6-9.1
				c2,2.7,5.1,4.3,8.4,4.3c6,0,10.9-5.4,11.2-12.1c8-1.9,13.9-10,13.8-19.6c0-0.5,0-1.1-0.1-1.6c-3.2-5.8-8.8-9.6-15.3-9.6
				c-2.5,0-4.9,0.6-7,1.6c-3.8-9.1-12-15.4-21.5-15.4c-12.2,0-22.2,10.3-23.6,23.7c0,0.1,0,0.3,0.1,0.4c0,0-0.1,0-0.1,0
				c-0.1,0.9-0.1,1.9-0.1,2.8c0,2,0.2,4,0.6,5.9c-4.9,0.2-9,3.8-10.6,8.7C72.8,1672.8,77,1676.3,81.9,1676.3z"/>
		</g>
	</g>
	<g>
		<g>
			<path class="st5" d="M210.3,1602.9c0,0.2,0,0.3-0.1,0.5c0,0,0.1,0,0.1,0C210.3,1603.3,210.3,1603.1,210.3,1602.9z"/>
			<path class="st6" d="M297.5,1602.6c-4.1-7.5-11.4-12.5-19.8-12.5c-3.2,0-6.3,0.7-9.1,2.1c-4.9-11.8-15.5-19.9-27.8-19.9
				c-15.7,0-28.7,13.4-30.5,30.6c0,0.2,0.1,0.3,0.1,0.5c0,0-0.1,0-0.1,0c-0.1,1.2-0.2,2.4-0.2,3.6c0,2.6,0.3,5.2,0.8,7.7
				c-6.3,0.3-11.7,4.9-13.8,11.3c2.1,6.4,7.5,11,13.9,11c0.5,0,1,0,1.5-0.1c4.1,8.9,12.3,15,21.9,15c0,0,0.1,0,0.1,0
				c-0.1,3.1,0,6.2,0.3,9.2c0.6,5.9,2.2,11.5,4.2,17.1c2.3,6.4,4.7,13.4,0,19.3c-5.8,7.4-15.8,11.3-16.1,22
				c-0.3,10.1,10,17.7,19.2,12.7c3-1.6,0.3-6.2-2.7-4.6c-5,2.7-10.4-1.1-11.1-6.3c-0.6-4.8,2.1-8.5,5.4-11.6
				c5.9-5.6,13-10.2,13.4-19.1c0.2-5.3-1.7-10.3-3.5-15.1c-1.8-5.1-3.2-10.3-3.7-15.7c-0.3-2.9-0.3-5.8-0.1-8.7
				c6-1.6,11.2-5.6,14.6-11.1c2.6,3.4,6.5,5.6,10.9,5.6c7.8,0,14.1-6.9,14.4-15.6c10.3-2.5,18-12.9,17.8-25.4
				C297.6,1604,297.5,1603.3,297.5,1602.6z"/>
		</g>
		<ellipse class="st6" cx="258.6" cy="1590.3" rx="12.1" ry="13.6"/>
	</g>
	<g>
		<path class="st4" d="M340.4,1660.1c0-11.7-8.4-21.2-18.8-21.2c-2.6,0-5.1,0.6-7.3,1.7c-4-9.5-12.5-16.1-22.4-16.1
			c-13.7,0-24.8,12.5-24.8,28c0,2.1,0.2,4.2,0.6,6.2c-6.6,0.3-11.9,6.4-11.9,14c0,7.7,5.5,14,12.4,14c0.4,0,0.8,0,1.3-0.1
			c3.4,7.4,10.3,12.5,18.2,12.5c6.9,0,13.1-3.9,16.8-9.9c2.2,2.9,5.5,4.7,9.1,4.7c6.5,0,11.7-5.8,12-13
			C334,1678.8,340.4,1670.3,340.4,1660.1z"/>
		<path class="st7" d="M275,1664.7c0-3.5-2.9-6.3-6.5-6.3c-0.9,0-1.8,0.2-2.5,0.5c-1.4-2.8-4.3-4.8-7.8-4.8c-4.7,0-8.6,3.7-8.6,8.4
			c0,0.6,0.1,1.2,0.2,1.8c-2.3,0.1-4.1,1.9-4.1,4.2c0,2.3,1.9,4.2,4.3,4.2c0.1,0,0.3,0,0.4,0c1.2,2.2,3.6,3.7,6.3,3.7
			c2.4,0,4.5-1.2,5.8-2.9c0.8,0.9,1.9,1.4,3.1,1.4c2.2,0,4.1-1.7,4.2-3.9C272.8,1670.3,275,1667.8,275,1664.7z"/>
		<path class="st7" d="M231.5,1643c0-2.4-2.3-4.4-5-4.4c-0.7,0-1.4,0.1-2,0.3c-1.1-2-3.4-3.4-6-3.4c-3.7,0-6.7,2.6-6.7,5.9
			c0,0.4,0.1,0.9,0.2,1.3c-1.8,0.1-3.2,1.3-3.2,2.9c0,1.6,1.5,2.9,3.3,2.9c0.1,0,0.2,0,0.3,0c0.9,1.6,2.8,2.6,4.9,2.6
			c1.9,0,3.5-0.8,4.5-2.1c0.6,0.6,1.5,1,2.4,1c1.7,0,3.2-1.2,3.2-2.7C229.8,1646.9,231.5,1645.2,231.5,1643z"/>
		<g>
			<path class="st5" d="M262.2,1638c0,0.1,0,0.3,0,0.4c0,0,0.1,0,0.1,0C262.3,1638.3,262.2,1638.1,262.2,1638z"/>
			<path class="st6" d="M332.4,1637.8c-3.3-6-9.2-10-15.9-10c-2.6,0-5.1,0.6-7.3,1.7c-4-9.5-12.5-16.1-22.4-16.1
				c-12.7,0-23.1,10.8-24.6,24.7c0,0.1,0,0.3,0.1,0.4c0,0-0.1,0-0.1,0c-0.1,1-0.1,1.9-0.1,2.9c0,2.1,0.2,4.2,0.6,6.2
				c-5.1,0.2-9.4,3.9-11.1,9.1c1.7,5.2,6.1,8.8,11.2,8.8c0.4,0,0.8,0,1.2-0.1c1.9,4.2,5,7.6,8.7,9.7c-5.8,7.5-8.1,17.2-6.3,26.6
				c1,5,3.2,9.4,6.2,13.4c3.5,4.7,8.7,10.2,5.5,16.4c-2.6,5-7.7,8.2-10,13.5c-1.9,4.4-1.5,9.3,2,12.7c3.6,3.5,9.8,4.1,12.4,8.7
				c3.5,6.1-1,13.3-7.9,13.5c-3.4,0.1-3.4,5.5,0,5.3c10.9-0.4,18.1-11.8,12.5-21.6c-2.8-5-8-5.9-12.3-9c-6.7-5,1.4-12.2,4.9-16.4
				c3.2-3.9,5.5-8.4,4.5-13.5c-1.2-6-5.9-10.3-9-15.2c-6.4-10-5.1-23.7,2.8-32.5c1.2,0.2,2.4,0.4,3.6,0.4c6.7,0,12.6-3.8,16.2-9.5
				c2.1,2.8,5.3,4.5,8.8,4.5c6.3,0,11.4-5.6,11.6-12.6c8.3-2,14.5-10.4,14.3-20.4C332.5,1638.9,332.5,1638.3,332.4,1637.8z"/>
		</g>
	</g>
	<g>
		<path class="st4" d="M221,1622.8c0-11.7-8.4-21.2-18.8-21.2c-2.6,0-5.1,0.6-7.3,1.7c-4-9.5-12.5-16.1-22.4-16.1
			c-13.7,0-24.8,12.5-24.8,28c0,2.1,0.2,4.2,0.6,6.2c-6.6,0.3-11.9,6.4-11.9,14c0,7.7,5.5,14,12.4,14c0.4,0,0.8,0,1.3-0.1
			c3.4,7.4,10.3,12.5,18.2,12.5c6.9,0,13.1-3.9,16.8-9.9c2.2,2.9,5.5,4.7,9.1,4.7c6.5,0,11.7-5.8,12-13
			C214.7,1641.5,221,1633,221,1622.8z"/>
		<path class="st7" d="M172.4,1660.7c0-3.5-2.9-6.3-6.5-6.3c-0.9,0-1.8,0.2-2.5,0.5c-1.4-2.8-4.3-4.8-7.8-4.8
			c-4.7,0-8.6,3.7-8.6,8.4c0,0.6,0.1,1.2,0.2,1.8c-2.3,0.1-4.1,1.9-4.1,4.2c0,2.3,1.9,4.2,4.3,4.2c0.1,0,0.3,0,0.4,0
			c1.2,2.2,3.6,3.7,6.3,3.7c2.4,0,4.5-1.2,5.8-2.9c0.8,0.9,1.9,1.4,3.1,1.4c2.2,0,4.1-1.7,4.2-3.9
			C170.2,1666.3,172.4,1663.7,172.4,1660.7z"/>
		<path class="st7" d="M125.7,1701.3c0-2.4-2.3-4.4-5-4.4c-0.7,0-1.4,0.1-2,0.3c-1.1-2-3.4-3.4-6-3.4c-3.7,0-6.7,2.6-6.7,5.9
			c0,0.4,0.1,0.9,0.2,1.3c-1.8,0.1-3.2,1.3-3.2,2.9c0,1.6,1.5,2.9,3.3,2.9c0.1,0,0.2,0,0.3,0c0.9,1.6,2.8,2.6,4.9,2.6
			c1.9,0,3.5-0.8,4.5-2.1c0.6,0.6,1.5,1,2.4,1c1.7,0,3.2-1.2,3.2-2.7C124,1705.3,125.7,1703.5,125.7,1701.3z"/>
		<g>
			<path class="st5" d="M142.8,1600.7c0,0.1,0,0.3,0,0.4c0,0,0.1,0,0.1,0C142.9,1601,142.9,1600.8,142.8,1600.7z"/>
			<path class="st6" d="M149.1,1637.1c0.4,0,0.8,0,1.2-0.1c3.3,7.2,9.9,12.1,17.6,12.1c6.7,0,12.6-3.8,16.2-9.5
				c2.1,2.8,5.3,4.5,8.8,4.5c6.3,0,11.4-5.6,11.6-12.6c8.3-2,14.5-10.4,14.3-20.4c0-0.6,0-1.1-0.1-1.7c-3.3-6-9.2-10-15.9-10
				c-2.6,0-5.1,0.6-7.3,1.7c-4-9.5-12.5-16.1-22.4-16.1c-12.7,0-23.1,10.8-24.6,24.7c0,0.1,0,0.3,0.1,0.4c0,0-0.1,0-0.1,0
				c-0.1,1-0.1,1.9-0.1,2.9c0,2.1,0.2,4.2,0.6,6.2c-5.1,0.2-9.4,3.9-11.1,9.1C139.5,1633.4,143.9,1637.1,149.1,1637.1z"/>
		</g>
	</g>
	<g id="Strings_Leaves">
		<path class="st6" d="M178.6,1643.1c-8.5,4.5-12.1,14.2-12.3,23.4c-0.1,6.1,1.1,12.2,2,18.2c1.1,7.3,1,14.4,0,21.7
			c-1.8,13.2-3.8,25.9-3.6,39.3c0.2,13.7,1.2,27.4,1.9,41c0.8,15.6,1.6,31.3,2.4,46.9c0.2,3.4,5.5,3.4,5.3,0
			c-1.3-26.1-2.8-52.3-4-78.4c-0.6-12.8-0.4-25.3,1.6-38c1-6,2-12.1,2.4-18.2c0.4-6-0.3-12-1.3-17.9c-1.7-11.2-3.9-27.1,8.2-33.5
			C184.3,1646.1,181.6,1641.5,178.6,1643.1z"/>
		<path class="st6" d="M107.3,1672.2c-6.1,6.4-9.7,14.7-10.3,23.5c-0.3,4.3,0.3,8.7,1.5,12.9c1.5,5.2,4.3,10.4,4,15.9
			c-0.3,5-3.1,9.5-4.4,14.2c-1.3,4.4-1.9,9.1-1.7,13.7c0.2,9.3,3.2,18.3,8.5,25.9c2,2.8,6.6,0.1,4.6-2.7c-5-7.2-7.8-15.6-7.8-24.4
			c0-4.6,0.8-9,2.3-13.3c1.4-4,3.3-7.8,3.8-12.1c1-9.1-4.9-17.1-5.4-26.1c-0.4-8.8,2.7-17.3,8.8-23.7
			C113.5,1673.5,109.7,1669.7,107.3,1672.2z"/>
		<g>
			<g>
				<g>
					<path class="st8" d="M108.9,1788.2c0,0-3.1,0.6-5.1-3c-2.1-3.6-1.4-3.7-1.4-3.7s5.1,0.1,6,2.9S108.9,1788.2,108.9,1788.2z"/>
				</g>
				<g>
					<path class="st8" d="M105.9,1784.6c0,0-3.2-1.3-2.9-6c0.3-4.7,0.9-4.3,0.9-4.3s4.7,3.2,3.8,6.4
						C106.8,1783.8,105.9,1784.6,105.9,1784.6z"/>
				</g>
				<g>
					<path class="st8" d="M105.3,1777.7c0,0-2.5-0.2-3.3-3.5c-0.8-3.3-0.3-3.2-0.3-3.2s3.9,1.2,4,3.5
						C105.7,1777,105.3,1777.7,105.3,1777.7z"/>
				</g>
				<g>
					<path class="st8" d="M96.6,1774.2c0,0-1.2-4,3.5-7.3s4.8-2.3,4.8-2.3s0.5,6.8-3.2,8.4S96.6,1774.2,96.6,1774.2z"/>
				</g>
				<g>
					<path class="st8" d="M98.9,1768.3c0,0-1.8-1.9-0.3-5c1.6-3.2,1.9-2.7,1.9-2.7s2.3,3.6,0.8,5.5
						C99.8,1768,98.9,1768.3,98.9,1768.3z"/>
				</g>
				<g>
					<path class="st8" d="M100,1766.7c0,0-4.6-1.9-4.1-8.6s1.4-6.2,1.4-6.2s6.6,4.6,5.3,9.2C101.4,1765.6,100,1766.7,100,1766.7z"/>
				</g>
				<g>
					<path class="st8" d="M94.4,1756.2c0,0-0.1-3,3.7-4.4c3.8-1.4,3.7-0.7,3.7-0.7s-0.9,4.8-3.7,5.2
						C95.3,1756.7,94.4,1756.2,94.4,1756.2z"/>
				</g>
				<g>
					<path class="st8" d="M91.2,1749c0,0,2.1-4.3,8.6-3.5c6.5,0.8,5.9,1.7,5.9,1.7s-4.9,6.2-9.2,4.7S91.2,1749,91.2,1749z"/>
				</g>
				<g>
					<path class="st8" d="M95.5,1749.5c0,0-2.5-4,1.6-8.9c4.1-4.9,4.5-4,4.5-4s2.5,7.3-1,10C97.2,1749.4,95.5,1749.5,95.5,1749.5z"
						/>
				</g>
				<g>
					<path class="st8" d="M99.1,1745c0,0-4-2.5-2.5-8.7c1.5-6.1,2.3-5.5,2.3-5.5s5.5,5.4,3.5,9.4C100.6,1744.3,99.1,1745,99.1,1745z
						"/>
				</g>
				<g>
					<path class="st8" d="M102.5,1736.2c0,0-2.8,0.1-4.1-3.4s-0.7-3.5-0.7-3.5s4.5,0.8,4.9,3.4S102.5,1736.2,102.5,1736.2z"/>
				</g>
				<g>
					<path class="st8" d="M96.6,1731.3c0,0-0.3-4.3,5.1-6.6c5.4-2.3,5.4-1.3,5.4-1.3s-1,7-5,7.8C98,1731.9,96.6,1731.3,96.6,1731.3z
						"/>
				</g>
				<g>
					<path class="st8" d="M101.3,1727.1c0,0-1.8-2.9,1.2-6.4c3-3.5,3.3-2.8,3.3-2.8s1.8,5.3-0.8,7.3
						C102.5,1727.1,101.3,1727.1,101.3,1727.1z"/>
				</g>
				<g>
					<path class="st8" d="M101.3,1718.9c0,0,0-2.2,2.9-3.1c2.8-0.9,2.8-0.4,2.8-0.4s-0.8,3.5-2.9,3.7
						C102,1719.3,101.3,1718.9,101.3,1718.9z"/>
				</g>
				<g>
					<path class="st8" d="M98.1,1715.1c0,0,0.1-4.3,5.7-6c5.6-1.7,5.5-0.8,5.5-0.8s-1.7,6.9-5.8,7.2
						C99.4,1715.8,98.1,1715.1,98.1,1715.1z"/>
				</g>
				<g>
					<path class="st8" d="M102.1,1709.8c0,0-1.4-1.6,0-4s1.7-2.1,1.7-2.1s1.7,3,0.4,4.5C102.8,1709.6,102.1,1709.8,102.1,1709.8z"/>
				</g>
				<g>
					<path class="st8" d="M105.2,1706.9c0,0-4.2,0.2-6.3-5s-1.2-5.2-1.2-5.2s6.7,1,7.4,5S105.2,1706.9,105.2,1706.9z"/>
				</g>
				<g>
					<path class="st8" d="M96.4,1700.4c0,0-0.9-3.7,3.4-6.5c4.3-2.8,4.4-2,4.4-2s0.2,6.2-3.2,7.5
						C97.6,1700.7,96.4,1700.4,96.4,1700.4z"/>
				</g>
				<g>
					<path class="st8" d="M98.5,1694.3c0,0-1.2-2.1,0.9-4.6c2.2-2.5,2.4-2,2.4-2s1.3,3.8-0.6,5.2S98.5,1694.3,98.5,1694.3z"/>
				</g>
				<g>
					<path class="st8" d="M94.7,1688.2c0,0,0.3-4,5.5-5.2c5.2-1.3,5.1-0.4,5.1-0.4s-1.9,6.2-5.7,6.3
						C95.8,1689,94.7,1688.2,94.7,1688.2z"/>
				</g>
			</g>
		</g>
		<g>
			<g>
				<g>
					<path class="st8" d="M162.2,1837.8c0,0-0.8-4.4,4.4-7.4s5.4-2,5.4-2s-0.2,7.3-4.2,8.6C163.7,1838.3,162.2,1837.8,162.2,1837.8z
						"/>
				</g>
				<g>
					<path class="st8" d="M163.4,1830.8c0,0-0.3-3.2,3.8-5c4-1.7,4-1,4-1s-0.7,5.2-3.7,5.9C164.4,1831.3,163.4,1830.8,163.4,1830.8z
						"/>
				</g>
				<g>
					<path class="st8" d="M172.4,1828.3c0,0-4.8,1-8.1-4.7c-3.3-5.6-2.3-5.8-2.3-5.8s7.9,0.1,9.4,4.4
						C172.9,1826.7,172.4,1828.3,172.4,1828.3z"/>
				</g>
				<g>
					<path class="st8" d="M166.6,1823.5c0,0-3.2-2.6-1.2-7.7c1.9-5.2,2.6-4.5,2.6-4.5s4.2,5.2,2.1,8.5
						C167.9,1823,166.6,1823.5,166.6,1823.5z"/>
				</g>
				<g>
					<path class="st8" d="M170,1815.3c0,0-2.4,0-3.5-3.1c-1.1-3.1-0.6-3.1-0.6-3.1s3.9,0.8,4.2,3.1
						C170.4,1814.5,170,1815.3,170,1815.3z"/>
				</g>
				<g>
					<path class="st8" d="M165,1809c0,0,0.3-3.3,4.6-4.3c4.3-1,4.2-0.3,4.2-0.3s-1.6,5.1-4.7,5.2C166,1809.7,165,1809,165,1809z"/>
				</g>
				<g>
					<path class="st8" d="M171.3,1805.8c0,0-2.5-1-2.3-4.5c0.2-3.6,0.7-3.3,0.7-3.3s3.6,2.4,3,4.8
						C172,1805.2,171.3,1805.8,171.3,1805.8z"/>
				</g>
				<g>
					<path class="st8" d="M168.3,1800.2c0,0-1.5-2.3,0.8-5.2c2.3-2.9,2.6-2.4,2.6-2.4s1.6,4.2-0.4,5.9
						C169.3,1800.1,168.3,1800.2,168.3,1800.2z"/>
				</g>
				<g>
					<path class="st8" d="M165.5,1794.8c0,0-0.8-3.6,3.5-6.1s4.4-1.7,4.4-1.7s0,6-3.3,7.1C166.7,1795.2,165.5,1794.8,165.5,1794.8z"
						/>
				</g>
				<g>
					<path class="st8" d="M170.2,1790.5c0,0-3-1-3-5.3c0-4.3,0.6-4,0.6-4s4.4,2.6,3.8,5.6C171,1789.8,170.2,1790.5,170.2,1790.5z"/>
				</g>
				<g>
					<path class="st8" d="M165.2,1785.5c0,0-1.7-3.7,2.3-7.4c4-3.7,4.3-2.9,4.3-2.9s1.4,6.5-1.9,8.5
						C166.6,1785.6,165.2,1785.5,165.2,1785.5z"/>
				</g>
				<g>
					<path class="st8" d="M168.8,1780.3c0,0-3.1-1.4-2.6-6c0.5-4.5,1.1-4.2,1.1-4.2s4.4,3.3,3.4,6.4S168.8,1780.3,168.8,1780.3z"/>
				</g>
				<g>
					<path class="st8" d="M168.1,1777.1c0,0-4.2-2.3-3.1-8.6c1.1-6.3,1.9-5.8,1.9-5.8s5.9,5,4.3,9.2S168.1,1777.1,168.1,1777.1z"/>
				</g>
				<g>
					<path class="st8" d="M162.4,1766.1c0,0,0.7-3.4,5.4-4c4.7-0.5,4.5,0.2,4.5,0.2s-2.3,5.2-5.7,4.9
						C163.4,1766.9,162.4,1766.1,162.4,1766.1z"/>
				</g>
				<g>
					<path class="st8" d="M171.4,1764.9c0,0-4.6,0.6-7.3-5.1s-1.7-5.7-1.7-5.7s7.6,0.7,8.6,5C172,1763.4,171.4,1764.9,171.4,1764.9z
						"/>
				</g>
				<g>
					<path class="st8" d="M160.8,1757.5c0,0-0.2-4.6,5.6-6.8s5.7-1.2,5.7-1.2s-1.3,7.3-5.6,8
						C162.2,1758.2,160.8,1757.5,160.8,1757.5z"/>
				</g>
				<g>
					<path class="st8" d="M162.5,1755.2c0,0-2.6-4.3,1.7-9.5s4.8-4.2,4.8-4.2s2.7,7.8-1,10.7
						C164.3,1755.2,162.5,1755.2,162.5,1755.2z"/>
				</g>
				<g>
					<path class="st8" d="M170.5,1749.6c0,0-4.9,0.1-7.2-6c-2.3-6.2-1.2-6.1-1.2-6.1s7.8,1.4,8.5,6
						C171.3,1748,170.5,1749.6,170.5,1749.6z"/>
				</g>
				<g>
					<path class="st8" d="M161.1,1738.8c0,0,1.5-3.8,7.1-3.6c5.6,0.3,5.2,1.1,5.2,1.1s-3.7,5.6-7.5,4.6
						C162,1739.9,161.1,1738.8,161.1,1738.8z"/>
				</g>
				<g>
					<path class="st8" d="M164.5,1732.6c0,0,1.1-2.1,4.3-1.5c3.1,0.6,2.8,1,2.8,1s-2.5,2.9-4.6,2
						C164.9,1733.3,164.5,1732.6,164.5,1732.6z"/>
				</g>
				<g>
					<path class="st8" d="M171.7,1731.7c0,0-2.9-0.3-3.8-4.2c-0.9-3.9-0.3-3.8-0.3-3.8s4.6,1.5,4.6,4.3
						C172.3,1730.8,171.7,1731.7,171.7,1731.7z"/>
				</g>
				<g>
					<path class="st8" d="M166.2,1724.6c0,0,0.7-3.9,5.9-4.7s5,0,5,0s-2.4,6-6.1,5.8C167.2,1725.5,166.2,1724.6,166.2,1724.6z"/>
				</g>
				<g>
					<path class="st8" d="M171,1724.4c0,0-3.1-3.6,0.3-9.1c3.3-5.5,3.9-4.6,3.9-4.6s3.6,6.8,0.5,10.1S171,1724.4,171,1724.4z"/>
				</g>
				<g>
					<path class="st8" d="M174.7,1718.2c0,0-3.7-1.5-3.4-6.8c0.3-5.3,1-5,1-5s5.4,3.6,4.4,7.2S174.7,1718.2,174.7,1718.2z"/>
				</g>
				<g>
					<path class="st8" d="M170.7,1709.1c0,0-0.2-2.6,3.1-4c3.3-1.4,3.3-0.8,3.3-0.8s-0.6,4.3-3.1,4.7S170.7,1709.1,170.7,1709.1z"/>
				</g>
				<g>
					<path class="st8" d="M173.5,1704.4c0,0-1.3-1.4-0.1-3.7c1.2-2.3,1.5-2,1.5-2s1.7,2.7,0.5,4.1
						C174.2,1704.2,173.5,1704.4,173.5,1704.4z"/>
				</g>
				<g>
					<path class="st8" d="M170.9,1699.1c0,0-0.7-2.6,2.3-4.5c3-2,3.1-1.4,3.1-1.4s0.2,4.3-2.1,5.3S170.9,1699.1,170.9,1699.1z"/>
				</g>
				<g>
					<path class="st8" d="M168.6,1694.6c0,0-0.6-3.8,3.9-6.2c4.5-2.4,4.6-1.6,4.6-1.6s-0.3,6.2-3.8,7.2
						C169.8,1695,168.6,1694.6,168.6,1694.6z"/>
				</g>
				<g>
					<path class="st8" d="M174.1,1692.8c0,0-4.6-1.3-5-7.8c-0.4-6.5,0.6-6.1,0.6-6.1s7,3.6,6.3,8.2
						C175.3,1691.6,174.1,1692.8,174.1,1692.8z"/>
				</g>
				<g>
					<path class="st8" d="M169.8,1684.3c0,0-1.6-2.5,1-5.6c2.6-3.1,2.8-2.5,2.8-2.5s1.6,4.6-0.6,6.3
						C170.8,1684.3,169.8,1684.3,169.8,1684.3z"/>
				</g>
				<g>
					<path class="st8" d="M164.9,1675.2c0,0,2.3-4.3,8.9-3.3c6.5,1.1,6,2,6,2s-5.2,6.1-9.5,4.4S164.9,1675.2,164.9,1675.2z"/>
				</g>
				<g>
					<path class="st8" d="M170.6,1672c0,0-0.6-2,1.8-3.7s2.4-1.2,2.4-1.2s0.3,3.5-1.6,4.2C171.3,1672.2,170.6,1672,170.6,1672z"/>
				</g>
				<g>
					<path class="st8" d="M168.5,1664c0,0,1.7-2.6,5.8-1.5c4,1.1,3.6,1.6,3.6,1.6s-3.6,3.5-6.2,2.2C169,1665,168.5,1664,168.5,1664z
						"/>
				</g>
				<g>
					<path class="st8" d="M177.7,1664.7c0,0-3.6-0.5-4.5-5.3s-0.2-4.6-0.2-4.6s5.6,2,5.5,5.4
						C178.4,1663.7,177.7,1664.7,177.7,1664.7z"/>
				</g>
				<g>
					<path class="st8" d="M174.7,1658.7c0,0-1.2-3.1,2.3-6.1c3.5-2.9,3.7-2.2,3.7-2.2s0.9,5.4-2,6.9
						C175.8,1658.9,174.7,1658.7,174.7,1658.7z"/>
				</g>
				<g>
					<path class="st8" d="M180.7,1654.4c0,0-2.8-1.2-2.5-5.2s0.9-3.8,0.9-3.8s4.1,2.8,3.3,5.6
						C181.5,1653.8,180.7,1654.4,180.7,1654.4z"/>
				</g>
				<g>
					<path class="st8" d="M175.6,1646.4c0,0,1.3-4.3,7.3-4.4c6-0.2,5.6,0.7,5.6,0.7s-3.5,6.3-7.7,5.6
						C176.7,1647.5,175.6,1646.4,175.6,1646.4z"/>
				</g>
			</g>
		</g>
		<g>
			<g>
				<g>
					<path class="st8" d="M244.7,1740.9c0,0-2.5-0.9-2.4-4.5c0.1-3.5,0.6-3.3,0.6-3.3s3.6,2.3,3.1,4.7
						C245.4,1740.3,244.7,1740.9,244.7,1740.9z"/>
				</g>
				<g>
					<path class="st8" d="M240.6,1735.4c0,0-1.3-2.2,1-4.7s2.5-2.1,2.5-2.1s1.2,3.9-0.7,5.4C241.5,1735.3,240.6,1735.4,240.6,1735.4
						z"/>
				</g>
				<g>
					<path class="st8" d="M236.1,1734.9c0,0-1.9-2.4,0.3-5.8c2.2-3.4,2.6-2.9,2.6-2.9s2.2,4.4,0.2,6.4
						C237.1,1734.7,236.1,1734.9,236.1,1734.9z"/>
				</g>
				<g>
					<path class="st8" d="M228.4,1733.5c0,0-1.6-4.4,3.4-8.3c5-3.9,5.2-2.9,5.2-2.9s1,7.6-3,9.6S228.4,1733.5,228.4,1733.5z"/>
				</g>
				<g>
					<path class="st8" d="M226,1726.4c0,0,0.1-2.5,3.4-3.5c3.3-0.9,3.2-0.4,3.2-0.4s-1.1,4-3.5,4.2
						C226.7,1726.8,226,1726.4,226,1726.4z"/>
				</g>
				<g>
					<path class="st8" d="M229.2,1722.7c0,0-2.2-0.3-2.8-3.4c-0.5-3-0.1-2.9-0.1-2.9s3.5,1.3,3.4,3.5
						C229.7,1722.1,229.2,1722.7,229.2,1722.7z"/>
				</g>
				<g>
					<path class="st8" d="M224.3,1715.2c0,0,0.8-2.5,4.5-2.6c3.6,0,3.4,0.5,3.4,0.5s-2.2,3.8-4.7,3.3
						C224.9,1715.8,224.3,1715.2,224.3,1715.2z"/>
				</g>
				<g>
					<path class="st8" d="M223.3,1710.1c0,0,1.6-4,7.3-3.7c5.8,0.3,5.3,1.1,5.3,1.1s-3.9,5.8-7.8,4.8
						C224.3,1711.3,223.3,1710.1,223.3,1710.1z"/>
				</g>
				<g>
					<path class="st8" d="M228.8,1708.2c0,0-0.7-3.3,3.3-5.6c4-2.3,4.1-1.6,4.1-1.6s-0.1,5.5-3.1,6.6S228.8,1708.2,228.8,1708.2z"/>
				</g>
				<g>
					<path class="st8" d="M236.5,1704.1c0,0-2.4-0.8-2.4-4.1c0-3.4,0.5-3.1,0.5-3.1s3.5,2.1,3,4.4S236.5,1704.1,236.5,1704.1z"/>
				</g>
				<g>
					<path class="st8" d="M243.1,1701c0,0-4.4,0.9-7.5-4.3c-3.1-5.2-2.1-5.4-2.1-5.4s7.4,0,8.7,4.1
						C243.6,1699.5,243.1,1701,243.1,1701z"/>
				</g>
				<g>
					<path class="st8" d="M235.8,1690.3c0,0,2.2-2.8,6.7-1.1c4.5,1.7,4,2.2,4,2.2s-4.5,3.6-7.4,1.8S235.8,1690.3,235.8,1690.3z"/>
				</g>
				<g>
					<path class="st8" d="M240.7,1691.2c0,0-3-1.7-2.1-6.3c0.9-4.6,1.5-4.1,1.5-4.1s4.2,3.8,2.9,6.8
						C241.7,1690.6,240.7,1691.2,240.7,1691.2z"/>
				</g>
				<g>
					<path class="st8" d="M242.5,1684.3c0,0-2.8,0.1-4.2-3.4c-1.4-3.6-0.7-3.5-0.7-3.5s4.5,0.8,4.9,3.4S242.5,1684.3,242.5,1684.3z"
						/>
				</g>
				<g>
					<path class="st8" d="M236.9,1680.3c0,0-2-2.9,0.8-6.8c2.9-3.9,3.3-3.2,3.3-3.2s2.2,5.4-0.3,7.6
						C238.2,1680.1,236.9,1680.3,236.9,1680.3z"/>
				</g>
				<g>
					<path class="st8" d="M234.4,1669.7c0,0,1.4-2,4.6-1.1c3.2,0.9,2.8,1.4,2.8,1.4s-3,2.7-5,1.6S234.4,1669.7,234.4,1669.7z"/>
				</g>
				<g>
					<path class="st8" d="M233.6,1665.7c0,0,0.7-2.2,3.7-2.3c3.1-0.1,2.9,0.3,2.9,0.3s-1.8,3.2-3.9,2.9S233.6,1665.7,233.6,1665.7z"
						/>
				</g>
				<g>
					<path class="st8" d="M238.8,1663.4c0,0-3,0.3-4.6-3.5c-1.6-3.7-1-3.7-1-3.7s4.9,0.6,5.4,3.4S238.8,1663.4,238.8,1663.4z"/>
				</g>
				<g>
					<path class="st8" d="M238.1,1656.6c0,0-1.9,0.4-3.2-2c-1.3-2.3-0.9-2.4-0.9-2.4s3.2,0.1,3.8,1.9S238.1,1656.6,238.1,1656.6z"/>
				</g>
				<g>
					<path class="st8" d="M232.2,1652.2c0,0-0.6-3.3,3.4-5.5c4-2.2,4.1-1.5,4.1-1.5s-0.2,5.5-3.3,6.5S232.2,1652.2,232.2,1652.2z"/>
				</g>
				<g>
					<path class="st8" d="M230.3,1646.4c0,0,0.3-4.2,5.8-5.7s5.4-0.6,5.4-0.6s-1.9,6.7-5.9,6.9
						C231.5,1647.2,230.3,1646.4,230.3,1646.4z"/>
				</g>
			</g>
		</g>
		<g>
			<g>
				<g>
					<path class="st8" d="M273.8,1792.4c0,0-1.9-2.9,1-6.7s3.3-3.1,3.3-3.1s2.1,5.3-0.5,7.5C275.1,1792.3,273.8,1792.4,273.8,1792.4
						z"/>
				</g>
				<g>
					<path class="st8" d="M275.7,1783.4c0,0,1.6-2.3,5.1-1.3c3.6,1,3.2,1.5,3.2,1.5s-3.2,3.1-5.5,1.9
						C276.1,1784.3,275.7,1783.4,275.7,1783.4z"/>
				</g>
				<g>
					<path class="st8" d="M276.9,1779.2c0,0,1-2.5,4.6-2.3c3.6,0.2,3.4,0.7,3.4,0.7s-2.4,3.7-4.9,3S276.9,1779.2,276.9,1779.2z"/>
				</g>
				<g>
					<path class="st8" d="M281.5,1776.6c0,0-1.9-0.8-1.7-3.7c0.2-2.8,0.6-2.6,0.6-2.6s2.8,2,2.2,3.9
						C282.1,1776.1,281.5,1776.6,281.5,1776.6z"/>
				</g>
				<g>
					<path class="st8" d="M274.9,1772.2c0,0-0.7-4.3,4.5-7c5.2-2.7,5.3-1.8,5.3-1.8s-0.4,7.1-4.4,8.2
						C276.3,1772.8,274.9,1772.2,274.9,1772.2z"/>
				</g>
				<g>
					<path class="st8" d="M275.1,1763.6c0,0,0.8-2.5,4.3-2.5c3.5,0,3.3,0.5,3.3,0.5s-2.1,3.7-4.6,3.2
						C275.7,1764.3,275.1,1763.6,275.1,1763.6z"/>
				</g>
				<g>
					<path class="st8" d="M278,1764.4c0,0-3.9-1.9-3.2-7.7c0.7-5.8,1.5-5.3,1.5-5.3s5.6,4.3,4.3,8.2
						C279.3,1763.5,278,1764.4,278,1764.4z"/>
				</g>
				<g>
					<path class="st8" d="M271,1761.1c0,0-3-3.9,0.7-9.5c3.7-5.6,4.3-4.7,4.3-4.7s3.5,7.3,0.1,10.6
						C272.7,1760.9,271,1761.1,271,1761.1z"/>
				</g>
				<g>
					<path class="st8" d="M274.7,1753.1c0,0-2.9-0.1-4-3.7c-1.2-3.7-0.5-3.6-0.5-3.6s4.5,1.1,4.8,3.8S274.7,1753.1,274.7,1753.1z"/>
				</g>
				<g>
					<path class="st8" d="M272.7,1747.9c0,0-0.9-2.5,1.9-4.8s3-1.7,3-1.7s0.6,4.3-1.7,5.5C273.6,1748,272.7,1747.9,272.7,1747.9z"/>
				</g>
				<g>
					<path class="st8" d="M277.1,1747.2c0,0-2.7-3.2,0.2-8c2.9-4.8,3.4-4.1,3.4-4.1s3.2,6,0.5,8.9S277.1,1747.2,277.1,1747.2z"/>
				</g>
				<g>
					<path class="st8" d="M281.8,1739.9c0,0-1.5-1.4-0.4-3.8s1.4-2.1,1.4-2.1s1.9,2.7,0.7,4.2S281.8,1739.9,281.8,1739.9z"/>
				</g>
				<g>
					<path class="st8" d="M280.8,1732.1c0,0,1.5-2.4,5.1-1.5c3.6,0.8,3.3,1.3,3.3,1.3s-3.1,3.3-5.5,2.1
						C281.3,1733,280.8,1732.1,280.8,1732.1z"/>
				</g>
				<g>
					<path class="st8" d="M285.4,1731.8c0,0-2.6-1.7-1.6-5.8c1-4.1,1.6-3.6,1.6-3.6s3.6,3.6,2.3,6.2
						C286.4,1731.2,285.4,1731.8,285.4,1731.8z"/>
				</g>
				<g>
					<path class="st8" d="M285.1,1726.3c0,0-2.6-1.3-2.1-5.1c0.5-3.8,1-3.5,1-3.5s3.7,2.9,2.8,5.5
						C286,1725.7,285.1,1726.3,285.1,1726.3z"/>
				</g>
				<g>
					<path class="st8" d="M283.7,1721.2c0,0-2.7-1-2.6-4.8c0.1-3.8,0.6-3.5,0.6-3.5s3.9,2.4,3.3,5
						C284.4,1720.5,283.7,1721.2,283.7,1721.2z"/>
				</g>
				<g>
					<path class="st8" d="M278,1715.6c0,0-1.1-2.6,1.7-5.1c2.8-2.5,3-1.9,3-1.9s0.9,4.5-1.4,5.8C278.9,1715.7,278,1715.6,278,1715.6
						z"/>
				</g>
				<g>
					<path class="st8" d="M277.3,1711.4c0,0-2-1.2-1.3-4.3c0.7-3.1,1.1-2.8,1.1-2.8s2.8,2.6,1.9,4.6
						C278.1,1711,277.3,1711.4,277.3,1711.4z"/>
				</g>
				<g>
					<path class="st8" d="M272.4,1706.9c0,0-1.3-2.2,0.9-4.8c2.2-2.7,2.4-2.2,2.4-2.2s1.4,3.9-0.5,5.4S272.4,1706.9,272.4,1706.9z"
						/>
				</g>
				<g>
					<path class="st8" d="M272.3,1701.8c0,0-1.9-0.8-1.7-3.6c0.2-2.8,0.6-2.6,0.6-2.6s2.8,1.9,2.2,3.8
						C272.8,1701.4,272.3,1701.8,272.3,1701.8z"/>
				</g>
				<g>
					<path class="st8" d="M274,1699.6c0,0-4.7,0.7-7.6-4.9c-2.9-5.6-1.9-5.7-1.9-5.7s7.7,0.4,8.9,4.8
						C274.5,1698.1,274,1699.6,274,1699.6z"/>
				</g>
				<g>
					<path class="st8" d="M268.1,1696.1c0,0-3.8-2.9-1.8-9.1c2.1-6.2,2.8-5.5,2.8-5.5s5.1,6,2.8,9.9
						C269.6,1695.4,268.1,1696.1,268.1,1696.1z"/>
				</g>
				<g>
					<path class="st8" d="M266.3,1686.3c0,0-0.7-2.6,2.4-4.7c3.1-2,3.2-1.4,3.2-1.4s0.2,4.4-2.2,5.4S266.3,1686.3,266.3,1686.3z"/>
				</g>
				<g>
					<path class="st8" d="M266.5,1684.4c0,0-2.1-4.3,2.5-8.7c4.5-4.5,4.9-3.5,4.9-3.5s1.8,7.5-1.9,9.9
						C268.1,1684.5,266.5,1684.4,266.5,1684.4z"/>
				</g>
				<g>
					<path class="st8" d="M268,1672.7c0,0,2.6-2.8,7.3-0.6c4.7,2.2,4.1,2.7,4.1,2.7s-5.2,3.5-8.1,1.4
						C268.4,1673.9,268,1672.7,268,1672.7z"/>
				</g>
				<g>
					<path class="st8" d="M279,1675.8c0,0-4.1-0.7-5-6.3c-0.9-5.6,0-5.4,0-5.4s6.3,2.5,6.1,6.5C279.9,1674.6,279,1675.8,279,1675.8z
						"/>
				</g>
			</g>
		</g>
		<g>
			<g>
				<g>
					<path class="st8" d="M152.6,1771c0,0-0.3-3.5,4-5.3c4.3-1.9,4.3-1.1,4.3-1.1s-0.7,5.6-4,6.3S152.6,1771,152.6,1771z"/>
				</g>
				<g>
					<path class="st8" d="M152.1,1764.4c0,0,0.4-3.1,4.6-3.9s4-0.1,4-0.1s-1.8,4.8-4.8,4.7C153,1765.1,152.1,1764.4,152.1,1764.4z"
						/>
				</g>
				<g>
					<path class="st8" d="M154.7,1763.9c0,0-3.3-3-0.9-8.4c2.4-5.4,3-4.7,3-4.7s4.2,5.8,1.8,9.2
						C156.2,1763.4,154.7,1763.9,154.7,1763.9z"/>
				</g>
				<g>
					<path class="st8" d="M151.8,1753.9c0,0,0-2.3,3-3.3c3-1,2.9-0.5,2.9-0.5s-0.8,3.7-3,3.9S151.8,1753.9,151.8,1753.9z"/>
				</g>
				<g>
					<path class="st8" d="M156.3,1751.1c0,0-3.3,0.3-5.1-3.7c-1.8-4.1-1.1-4.1-1.1-4.1s5.3,0.6,6,3.7
						C156.8,1750.1,156.3,1751.1,156.3,1751.1z"/>
				</g>
				<g>
					<path class="st8" d="M146,1743.1c0,0,1.2-3.7,6.5-3.7c5.3,0,4.9,0.7,4.9,0.7s-3.2,5.5-6.9,4.7
						C146.9,1744.1,146,1743.1,146,1743.1z"/>
				</g>
				<g>
					<path class="st8" d="M143.1,1741.7c0,0-0.5-4.6,5.2-7.3s5.7-1.6,5.7-1.6s-0.8,7.5-5.1,8.5S143.1,1741.7,143.1,1741.7z"/>
				</g>
				<g>
					<path class="st8" d="M141.8,1733.9c0,0,0.8-2.5,4.4-2.6c3.6,0,3.4,0.5,3.4,0.5s-2.2,3.8-4.7,3.3
						C142.5,1734.6,141.8,1733.9,141.8,1733.9z"/>
				</g>
				<g>
					<path class="st8" d="M144.3,1734.1c0,0-3.6-0.9-4-5.9s0.4-4.7,0.4-4.7s5.4,2.7,5,6.2C145.2,1733.2,144.3,1734.1,144.3,1734.1z"
						/>
				</g>
				<g>
					<path class="st8" d="M132.7,1726.7c0,0,0.9-4.9,7.5-5.8c6.6-0.9,6.3,0.1,6.3,0.1s-3.1,7.4-7.8,7.1
						C134,1727.8,132.7,1726.7,132.7,1726.7z"/>
				</g>
				<g>
					<path class="st8" d="M137.2,1726.5c0,0-4-2.4-2.6-8.5c1.4-6.1,2.2-5.5,2.2-5.5s5.5,5.2,3.7,9.2
						C138.6,1725.7,137.2,1726.5,137.2,1726.5z"/>
				</g>
				<g>
					<path class="st8" d="M132.6,1720.9c0,0-2.7-3.4,0.4-8.4c3.2-5,3.7-4.2,3.7-4.2s3.2,6.4,0.3,9.3
						C134.1,1720.6,132.6,1720.9,132.6,1720.9z"/>
				</g>
				<g>
					<path class="st8" d="M128.2,1713.6c0,0-0.7-3.8,3.8-6.3s4.6-1.7,4.6-1.7s-0.2,6.2-3.7,7.3
						C129.5,1714.1,128.2,1713.6,128.2,1713.6z"/>
				</g>
				<g>
					<path class="st8" d="M126.4,1705.4c0,0,1.1-2.3,4.5-2c3.5,0.4,3.2,0.8,3.2,0.8s-2.5,3.4-4.9,2.6
						C127,1706.1,126.4,1705.4,126.4,1705.4z"/>
				</g>
				<g>
					<path class="st8" d="M127.2,1704.8c0,0-2.3-1.9-0.8-5.7c1.5-3.8,1.9-3.3,1.9-3.3s3,3.8,1.4,6.2
						C128.2,1704.4,127.2,1704.8,127.2,1704.8z"/>
				</g>
				<g>
					<path class="st8" d="M119.9,1700.3c0,0-0.9-4.8,4.8-8.1s5.9-2.2,5.9-2.2s-0.2,8-4.6,9.4S119.9,1700.3,119.9,1700.3z"/>
				</g>
				<g>
					<path class="st8" d="M122.3,1696.4c0,0-2.9-2.4-1.2-7.2c1.8-4.8,2.4-4.2,2.4-4.2s3.9,4.8,2,7.9
						C123.6,1695.9,122.3,1696.4,122.3,1696.4z"/>
				</g>
			</g>
		</g>
	</g>
</g>
</svg>
