<?xml version="1.0" encoding="utf-8"?>
<!-- Generator: Adobe Illustrator 26.2.1, SVG Export Plug-In . SVG Version: 6.00 Build 0)  -->
<svg version="1.1" id="Layer_1" xmlns="http://www.w3.org/2000/svg" xmlns:xlink="http://www.w3.org/1999/xlink" x="0px" y="0px"
	 viewBox="0 0 428 2136.5" style="enable-background:new 0 0 428 2136.5;" xml:space="preserve">
<style type="text/css">
	.st0{opacity:0.78;}
	.st1{fill:#6D5341;}
	.st2{fill:#C19F87;}
	.st3{fill:#84A749;}
	.st4{fill:#715847;}
	.st5{fill:#396D0A;}
	.st6{fill:#66A566;}
	.st7{fill:#316700;}
	.st8{fill:#458144;}
	.st9{fill:#4D7600;}
</style>
<g id="a">
	<g id="b" class="st0">
	</g>
</g>
<g id="c">
	<g id="d">
		<g>
			<path id="e" class="st1" d="M245.4,2075.2c0,0,6.1,15.6,14.1,20.8c9.3,5.9,1.5,6.4-3,5.8c-4.5-0.6-12.4-4.7-15.4-8.4
				s-56.1,12.3-63,12.9s-14.7,1.8-15.8-0.4s7.5-4.4,10.5-12.1c3-7.7,5.5-21.8,7.2-24.6C183.6,2063.5,245.4,2075.2,245.4,2075.2
				L245.4,2075.2z"/>
			<path class="st1" d="M257.2,2101.9c-2.9-3.6-5.8-6.5-8.6-9.1c-0.7-0.6-1.2-1.5-1.7-2.4c-0.2-2.8-0.4-5.4-0.4-5.4v-0.3
				c-0.6-11.5-0.7-34.5-1.9-52.4c-0.6-8.1-0.6-9.4-0.8-26.1c-4.1,4.9-10,5-15,7.1c-10.2,4.3-18.5,5.4-28.8,2.2
				c-6.3-2-14.4-2.6-19.1-10.6c0.7,12.4,0,17.5,0.1,26.4c0.1,4.2-0.2,11.3-0.4,15.5c-0.7,11.5-0.1,15.9-2.4,26.8
				c-0.5,2.9-0.9,5.9-1.2,8.9c-0.3,2.6-0.6,5.2-0.6,7.8c-0.3,2.4-0.6,5.5-0.8,8.8c-0.5,8.4-4.6,10.4-9.8,12.1
				c-5.1,1.7-7.5,4.1-7.5,4.1s-10.2,8.6-3,6.2c3.5-1.2,13.9-5.7,18.2-5.8s7.8,0.1,12.4-3.1c4.6-3.2,3.7-5.3,11-4.2
				c4.4,0.7,5.9,4.7,2.9,14.4c-2.8,8.8-0.7,15.1,3.2,14.2c1.4-0.3,6.3-16.3,13.4-22.6c2.1-1.8,2.8-2.6,5.9-4.3
				c4.2-2.3,7.4-0.5,14.4,4.6c5.4,3.9,6.8,6.1,9.1,7.8s4.7-1.4,1.9-5.4s-3.8-3.4-6.6-10.9s4.3-1.7,10,2.1c6.1,4,16.8,6,19.5,5.5
				C272.9,2113.2,260.2,2105.5,257.2,2101.9L257.2,2101.9z"/>
			<g id="f">
				<path class="st2" d="M230.7,2014.2c-6.2,2.2-12.6,3.6-18.9,4.2c-2.8,0-17.6-2.1-20.9-4.4c-4.3-2.9-10-7.9-10-9
					c-0.1-1.6,4-0.9,5.8-1.3c7.6-1.4,11.9-1.7,17.4-2.2c9.4-0.8,9-1.2,19.6,0c1.4,0.2,13.6,2,15.1,2.5c3.6,1.3,5,1.6,4.9,2.1
					c0,0.1,0,0.2-0.1,0.3c-3,3.9-9.6,6.2-13.1,7.9"/>
				<path class="st1" d="M214.4,2000.7c-2.7,0-4.9,0.3-10.1,0.8c-2.8,0.3-5.2,0.4-7.8,0.8c-2,0.6-4,1.2-6,2.1l-1.7,0.7
					c8.6,2.6,17.3,3.9,26,3.9h2.5c3.2-0.2,6.6,0.3,9.4-3c-4.5-1.4-9.1-2.1-13.7-2.2c-1.7,0-3.4,0.1-5,0.4h-0.4l0,0l5.1,1.1l-4.6-1.1
					h2.7c4.9-0.1,9.7,0.6,14.5,2c-2.5,2-5.4,1.5-8.1,1.7h-1.4c-2.5,0-5-0.1-7.5-0.3c-5.3-0.4-10.6-1.4-15.9-2.8
					c3.6-1.2,7.2-2.1,10.8-2.5c3.4-0.4,6.7-0.6,10.1-0.6c7.3,0,14.5,0.8,21.7,2.5c0.3,0.1,2.6,0.9,1.7,1.6c-9.1,2.7-21,7.2-32.1,7.2
					c-7.9,0-15.3-2.2-21-9c6,7.3,13.8,9.7,21.9,9.7c10.8,0,22.4-4.3,31.4-6.9c0.1-0.1,0.2-0.1,0.3-0.3c0.1-0.1,0.2-0.3,0.2-0.4
					c0.1-0.2,0.1-0.4,0.1-0.6s0-0.4,0-0.6c-0.2-0.5-0.4-0.9-0.7-1.1c-0.3-0.3-0.6-0.4-0.9-0.5c-4.2-0.8-11.1-1.8-12.1-2
					C219.1,2000.9,216.5,2000.7,214.4,2000.7L214.4,2000.7z"/>
			</g>
		</g>
	</g>
	<g id="g">
		<g>
			<path class="st1" d="M243.9,2017.5c0.1-6-0.1-12.5,0-19.4c0-1.2,0.3-1.8,0.1-10.5c0.2-5.3,0.3-11,0.3-11l0.2-16.1
				c-0.3-15.8-0.3-8.3,0-26.2c0.1-8.1,0-6.9-0.1-23.5c-4.1,4.9-6.2,5.7-11.1,7.8c-10.2,4.3-18.5,5.4-28.8,2.2c-6.3-2-15.7-3-20.4-11
				c-0.5,10.2-1.1,17.5-1.3,26.5c-0.1,5.3-0.6,10.6-0.6,14.8c-0.2,13.2-0.2,9.2-0.8,26.3c-0.1,3,0.3,7.5,0,10.5
				c-0.3,2.6-0.2,4.7-0.3,7.3c0.1,7.2,0,4.7-0.1,8c-0.1,9.2,0.3,12.7,0.4,19.3"/>
			<g id="h">
				<path class="st1" d="M232.5,1920c-6.2,2.2-11.3,2.8-17.6,3.4c-2.8,0-18.2-1.8-21.5-4.1c-4.3-2.9-9.4-8.2-9.4-9.3
					c-0.1-1.6,4-0.9,5.8-1.3c7.6-1.4,11.9-1.7,17.4-2.2c9.4-0.8,9-1.2,19.6,0c1.4,0.2,13.6,2,15.1,2.5c4.5,1.6,1.4,5.2,0.5,6.1
					c-3,3.9-5.2,2.5-8.8,4.2"/>
				<path class="st1" d="M217.4,1905.8c-2.7,0-4.9,0.3-10.1,0.8c-2.8,0.3-5.2,0.4-7.8,0.8c-2,0.6-4,1.2-6,2.1l-1.7,0.7
					c8.6,2.6,17.3,3.9,26,3.9h2.5c3.2-0.2,6.6,0.3,9.4-3c-4.5-1.4-9.1-2.1-13.7-2.2c-1.7,0-3.4,0.1-5,0.4h-0.4l0,0l5.1,1.1l-4.6-1.1
					h2.7c4.9-0.1,9.7,0.6,14.5,2c-2.5,2-5.4,1.5-8.1,1.7h-1.4c-2.5,0-5-0.1-7.5-0.3c-5.3-0.4-10.6-1.4-15.9-2.8
					c3.6-1.2,7.2-2.1,10.8-2.5c3.4-0.4,6.7-0.6,10.1-0.6c7.3,0,14.5,0.8,21.7,2.5c0.3,0.1,2.6,0.9,1.7,1.6c-9.1,2.7-21,7.2-32.1,7.2
					c-7.9,0-15.3-2.2-21-9c6,7.3,13.8,9.7,21.9,9.7c10.8,0,22.4-4.3,31.4-6.9c0.1-0.1,0.2-0.1,0.3-0.3c0.1-0.1,0.2-0.3,0.2-0.4
					c0.1-0.2,0.1-0.4,0.1-0.6s0-0.4,0-0.6c-0.2-0.5-0.4-0.9-0.7-1.1c-0.3-0.3-0.6-0.4-0.9-0.5c-4.2-0.8-11.1-1.8-12.1-2
					C222.2,1906,219.6,1905.8,217.4,1905.8L217.4,1905.8z"/>
			</g>
		</g>
		<g id="i">
			<path class="st2" d="M231.9,1918.7c-6,2.2-12.1,3.6-18.2,4.2c-2.7,0-16.9-2.1-20.1-4.4c-4.1-2.9-9.6-7.9-9.6-9
				c-0.1-1.6,3.8-0.9,5.6-1.3c7.4-1.4,11.4-1.7,16.8-2.2c9.1-0.8,8.6-1.2,18.9,0c1.4,0.2,13.1,2,14.5,2.5c3.5,1.3,4.8,1.6,4.7,2.1
				c0,0.1,0,0.2-0.1,0.3c-2.9,3.9-9.2,6.2-12.6,7.9"/>
			<path class="st1" d="M216.2,1905.2c-2.6,0-4.7,0.3-9.7,0.8c-2.6,0.3-5,0.4-7.6,0.8c-1.9,0.6-3.9,1.2-5.8,2.1l-1.6,0.7
				c8.3,2.6,16.6,3.9,25,3.9h2.4c3-0.2,6.3,0.3,9-3c-4.4-1.4-8.8-2.1-13.2-2.2c-1.6,0-3.3,0.1-4.9,0.4h-0.4l0,0l4.9,1.1l-4.4-1.1
				h2.6c4.7-0.1,9.4,0.6,14,2c-2.4,2-5.2,1.5-7.8,1.7h-1.3c-2.4,0-4.8-0.1-7.3-0.3c-5.1-0.4-10.2-1.4-15.3-2.8
				c3.4-1.2,6.9-2.1,10.4-2.5c3.2-0.4,6.5-0.6,9.7-0.6c7,0,14,0.8,20.9,2.5c0.3,0.1,2.5,0.9,1.7,1.6c-8.7,2.7-20.2,7.2-30.9,7.2
				c-7.6,0-14.7-2.2-20.2-9c5.8,7.3,13.3,9.7,21.1,9.7c10.4,0,21.5-4.3,30.2-6.9c0.1-0.1,0.2-0.1,0.3-0.3c0.1-0.1,0.1-0.3,0.2-0.4
				c0.1-0.2,0.1-0.4,0.1-0.6s0-0.4,0-0.6c-0.2-0.5-0.4-0.9-0.6-1.1s-0.5-0.4-0.8-0.5c-4-0.8-10.6-1.8-11.6-2
				C220.7,1905.4,218.2,1905.2,216.2,1905.2L216.2,1905.2z"/>
		</g>
	</g>
	<g id="j">
		<g>
			<path class="st1" d="M244.5,1932c0.1-6-0.2-93.6-0.1-100.5c0-1.2,0.3-1.8,0.1-10.5c0.2-5.3,0.3-11,0.3-11v-15.8
				c-0.3-15.8-0.3-5.7,0.2-26.5c0.2-8.1,0-6.9-0.1-23.5c-4.1,4.9-6.2,5.7-11.1,7.8c-10.2,4.3-18.5,5.4-28.8,2.2
				c-6.3-2-15.7-3-20.4-11c-0.5,10.2-0.6,16.6-0.8,25.5c-0.1,5.3-0.3,8.8-0.3,13c-0.2,13.2,0.1,6.4-0.4,23.5
				c-0.1,3,0.1,9.7-0.1,14.3c-0.1,5.2,0,5.4-0.1,8c0.1,7.2,0.1,6.1,0,9.4c-0.1,9.2-0.1,91.9,0,98.5"/>
			<g id="k">
				<path class="st1" d="M233.2,1753.3c-6.2,2.2-11.3,2.8-17.6,3.4c-2.8,0-18.2-1.8-21.5-4.1c-4.3-2.9-9.4-8.2-9.4-9.3
					c-0.1-1.6,4-0.9,5.8-1.3c7.6-1.4,11.9-1.7,17.4-2.2c9.4-0.8,9-1.2,19.6,0c1.4,0.2,13.6,2,15.1,2.5c1.1,0.4,1.6,0.5,1.9,1.1
					c0.8,1.6-0.8,4.3-1.4,5c-3,3.9-5.2,2.5-8.8,4.2"/>
				<path class="st1" d="M218.1,1739.2c-2.7,0-4.9,0.3-10.1,0.8c-2.8,0.3-5.2,0.4-7.8,0.8c-2,0.6-4,1.2-6,2.1l-1.7,0.7
					c8.6,2.6,17.3,3.9,26,3.9h2.5c3.2-0.2,6.6,0.3,9.4-3c-4.5-1.4-9.1-2.1-13.7-2.2c-1.7,0-3.4,0.1-5,0.4h-0.4l0,0l5.1,1.1l-4.6-1.1
					h2.7c4.9-0.1,9.7,0.6,14.5,2c-2.5,2-5.4,1.5-8.1,1.7h-1.4c-2.5,0-5-0.1-7.5-0.3c-5.3-0.4-10.6-1.4-15.9-2.8
					c3.6-1.2,7.2-2.1,10.8-2.5c3.4-0.4,6.7-0.6,10.1-0.6c7.3,0,14.5,0.8,21.7,2.5c0.3,0.1,2.6,0.9,1.7,1.6c-9.1,2.7-21,7.2-32.1,7.2
					c-7.9,0-15.3-2.2-21-9c6,7.3,13.8,9.7,21.9,9.7c10.8,0,22.4-4.3,31.4-6.9c0.1-0.1,0.2-0.1,0.3-0.3c0.1-0.1,0.2-0.3,0.2-0.4
					c0.1-0.2,0.1-0.4,0.1-0.6s0-0.4,0-0.6c-0.2-0.5-0.4-0.9-0.7-1.1c-0.3-0.3-0.6-0.4-0.9-0.5c-4.2-0.8-11.1-1.8-12.1-2
					C222.9,1739.4,220.3,1739.1,218.1,1739.2L218.1,1739.2z"/>
			</g>
		</g>
		<path class="st1" d="M240.6,1862.2c0,0,11.8,4.6,24-9.9c5.7-6.7,12.2-10.6,16.7-14.3c5.2-4.2,6.5-4.8,8.9-9.6
			c5-10.3,8.7-22.2,9-10.2c0.3,10.6-13.9,24.1-13.9,24.1s4.2,1.3,12.1-1.4c7.3-2.5,9-3.6,10.8-3.6s-3.6,5.8-13,8
			c-9.5,2.2-20.1,9.3-22.2,16.2s-35,31.6-35,31.6L240.6,1862.2L240.6,1862.2z"/>
		<g>
			<path class="st3" d="M285.5,1854.8c0,0-0.6-4.1,4.4-6.6s5-1.6,5-1.6s-0.5,6.7-4.2,7.7S285.5,1854.8,285.5,1854.8z"/>
			<path class="st3" d="M305,1849.7c0,0-3.6-0.4-4.7-5.2c-1-4.8-0.3-4.7-0.3-4.7s5.6,1.9,5.6,5.4S305,1849.7,305,1849.7L305,1849.7z
				"/>
			<path class="st3" d="M293,1845.2c0,0,0.1-4.5,5.8-6.3s5.6-0.9,5.6-0.9s-1.6,7.1-5.8,7.6C294.3,1846,293,1845.2,293,1845.2
				L293,1845.2z"/>
			<path class="st3" d="M285,1841.1c0,0,1.4-3.4,6.4-3.2s4.6,1,4.6,1s-3.4,5-6.8,4.1S285,1841.1,285,1841.1L285,1841.1z"/>
			<path class="st3" d="M294.5,1834.4c0,0-2.7-3.5,0.6-8.4s3.8-4.2,3.8-4.2s3.1,6.5,0.1,9.4S294.5,1834.4,294.5,1834.4L294.5,1834.4
				z"/>
			<path class="st3" d="M297.2,1822.9c0,0-3.6-2.4-2.1-8s2.2-5.1,2.2-5.1s4.9,5,3.1,8.7C298.5,1822.2,297.2,1822.9,297.2,1822.9
				L297.2,1822.9z"/>
			<path class="st3" d="M295.2,1834.9c0,0-4.6,0.1-6.8-5.7s-1.2-5.8-1.2-5.8s7.4,1.3,8,5.7S295.2,1834.9,295.2,1834.9L295.2,1834.9z
				"/>
			<path class="st3" d="M279.2,1844.6c0,0-2.7-3.2,0.2-8.1s3.4-4.1,3.4-4.1s3.3,6,0.5,9S279.2,1844.6,279.2,1844.6z"/>
		</g>
		<g id="l">
			<path class="st2" d="M232.6,1751.5c-6,2.2-12.1,3.6-18.2,4.2c-2.7,0-16.9-2.1-20.1-4.4c-4.1-2.9-9.6-7.9-9.6-9
				c-0.1-1.6,3.8-0.9,5.6-1.3c7.4-1.4,11.4-1.7,16.8-2.2c9.1-0.8,8.6-1.2,18.9,0c1.4,0.2,13.1,2,14.5,2.5c3.5,1.3,4.8,1.6,4.7,2.1
				c0,0.1,0,0.2-0.1,0.3c-2.9,3.9-9.2,6.2-12.6,7.9"/>
			<path class="st1" d="M216.8,1738.1c-2.6,0-4.7,0.3-9.7,0.8c-2.6,0.3-5,0.4-7.6,0.8c-1.9,0.6-3.9,1.2-5.8,2.1l-1.6,0.7
				c8.3,2.6,16.6,3.9,25,3.9h2.4c3-0.2,6.3,0.3,9-3c-4.4-1.4-8.8-2.1-13.2-2.2c-1.6,0-3.3,0.1-4.9,0.4H210l0,0l4.9,1.1l-4.4-1.1h2.6
				c4.7-0.1,9.4,0.6,14,2c-2.4,2-5.2,1.5-7.8,1.7H218c-2.4,0-4.8-0.1-7.3-0.3c-5.1-0.4-10.2-1.4-15.3-2.8c3.4-1.2,6.9-2.1,10.4-2.5
				c3.2-0.4,6.5-0.6,9.7-0.6c7,0,14,0.8,20.9,2.5c0.3,0.1,2.5,0.9,1.7,1.6c-8.7,2.7-20.2,7.2-30.9,7.2c-7.6,0-14.7-2.2-20.2-9
				c5.8,7.3,13.3,9.7,21.1,9.7c10.4,0,21.5-4.3,30.2-6.9c0.1-0.1,0.2-0.1,0.3-0.3c0.1-0.1,0.1-0.3,0.2-0.4c0.1-0.2,0.1-0.4,0.1-0.6
				s0-0.4,0-0.6c-0.2-0.5-0.4-0.9-0.6-1.1s-0.5-0.4-0.8-0.5c-4-0.8-10.6-1.8-11.6-2C221.3,1738.3,218.9,1738,216.8,1738.1
				L216.8,1738.1z"/>
		</g>
	</g>
	<g id="m">
		<g>
			<path class="st1" d="M244.9,1758.2c0.1-6,0.1-49.2,0.3-56.1c0-1.2,0.3-1.8,0.1-10.5c0.2-5.3,0.3-11,0.3-11v-15.8
				c-0.3-15.8-0.3-5.7,0.2-26.5c0.2-8.1,0-6.9-0.1-23.5c-4.1,4.9-6.2,5.7-11.1,7.8c-10.2,4.3-18.5,5.4-28.8,2.2
				c-6.3-2-15.7-3-20.4-11c-0.5,10.2-0.6,16.6-0.8,25.5c-0.1,5.3-0.3,8.8-0.3,13c-0.2,13.2,0.1,6.4-0.4,23.5
				c-0.1,3,0.1,9.7-0.1,14.3c-0.1,5.2,0,5.4-0.1,8c0.1,7.2,0.1,6.1,0,9.4c-0.1,9.2,0.6,43.3,0.8,50"/>
			<g id="n">
				<path class="st1" d="M233.9,1623.9c-6.2,2.2-11.3,2.8-17.6,3.4c-2.8,0-18.2-1.8-21.5-4.1c-4.3-2.9-9.4-8.2-9.4-9.3
					c-0.1-1.6,4-0.9,5.8-1.3c7.6-1.4,11.9-1.7,17.4-2.2c9.4-0.8,9-1.2,19.6,0c1.4,0.2,13.6,2,15.1,2.5c4.5,1.6,1.4,5.2,0.5,6.1
					c-3,3.9-5.2,2.5-8.8,4.2"/>
				<path class="st1" d="M218.8,1609.8c-2.7,0-4.9,0.3-10.1,0.8c-2.8,0.3-5.2,0.4-7.8,0.8c-2,0.6-4,1.2-6,2.1l-1.7,0.7
					c8.6,2.6,17.3,3.9,26,3.9h2.5c3.2-0.2,6.6,0.3,9.4-3c-4.5-1.4-9.1-2.1-13.7-2.2c-1.7,0-3.4,0.1-5,0.4H212l0,0l5.1,1.1l-4.6-1.1
					h2.7c4.9-0.1,9.7,0.6,14.5,2c-2.5,2-5.4,1.5-8.1,1.7h-1.4c-2.5,0-5-0.1-7.5-0.3c-5.3-0.4-10.6-1.4-15.9-2.8
					c3.6-1.2,7.2-2.1,10.8-2.5c3.4-0.4,6.7-0.6,10.1-0.6c7.3,0,14.5,0.8,21.7,2.5c0.3,0.1,2.6,0.9,1.7,1.6c-9.1,2.7-21,7.2-32.1,7.2
					c-7.9,0-15.3-2.2-21-9c6,7.3,13.8,9.7,21.9,9.7c10.8,0,22.4-4.3,31.4-6.9c0.1-0.1,0.2-0.1,0.3-0.3c0.1-0.1,0.2-0.3,0.2-0.4
					c0.1-0.2,0.1-0.4,0.1-0.6s0-0.4,0-0.6c-0.2-0.5-0.4-0.9-0.7-1.1c-0.3-0.3-0.6-0.4-0.9-0.5c-4.2-0.8-11.1-1.8-12.1-2
					C223.6,1610,221,1609.7,218.8,1609.8L218.8,1609.8z"/>
			</g>
		</g>
		<path class="st1" d="M176.9,1734c-0.1-0.2-6.5-8.3-6.6-8.5c-4.3-7.7-4.8-9.9-14.6-21.3c-10.8-12.6-4.7-7.6-16.1-18.7
			c-0.1-0.1-1.7-2-1.7-2.1l-3-3.5c-1.1-1.4,1.9-0.8,3.3,0.4c0.4,0.3,1.4,1.6,1.8,2c2.3,2.3,6,4.9,8.8,8c1.1,1.2,3.1-0.1,2.4-1.6
			c-2.5-5.9-5.8-14.5-8.1-23.6c0-0.2-0.5-2-0.5-2.1c-0.4-1.8,1.6,0,2.2,1.7c4,10.4,10.2,26.5,14.7,30.3c18.8,16,20.7,26.3,30.9,21.1
			c6.3-3.2-0.5,22.1-0.9,23.9c0,0.1,5.4,6,5.4,6.1C194.1,1747.4,186.8,1747.2,176.9,1734L176.9,1734z"/>
		<g>
			<path class="st3" d="M146.6,1702.1c0,0-2.3-3.8,1.5-8.4s4.3-3.8,4.3-3.8s2.4,6.8-0.9,9.5S146.7,1702.1,146.6,1702.1L146.6,1702.1
				z"/>
			<path class="st3" d="M140.3,1694.8c0,0-3.6-2.5-1.9-8.1s2.3-5,2.3-5s4.8,5.1,2.9,8.8S140.3,1694.9,140.3,1694.8L140.3,1694.8z"/>
			<path class="st3" d="M149.6,1691c0,0-4.2-0.8-5-6.6s0.1-5.5,0.1-5.5s6.4,2.7,6.1,6.8C150.6,1689.9,149.6,1691,149.6,1691
				L149.6,1691z"/>
			<path class="st3" d="M138.9,1676.5c0,0,0.8-3.4,5.6-3.8s4.5,0.3,4.5,0.3s-2.5,5.2-5.8,4.7S138.9,1676.5,138.9,1676.5
				L138.9,1676.5z"/>
			<path class="st3" d="M140.9,1673.1c0,0,0.7-3.3,5.1-3.9s4.3,0.1,4.3,0.1s-2.2,5-5.4,4.8S140.9,1673.1,140.9,1673.1L140.9,1673.1z
				"/>
		</g>
		<g id="o">
			<path class="st2" d="M233.3,1622.1c-6,2.2-12.1,3.6-18.2,4.2c-2.7,0-16.9-2.1-20.1-4.4c-4.1-2.9-9.6-7.9-9.6-9
				c-0.1-1.6,3.8-0.9,5.6-1.3c7.4-1.4,11.4-1.7,16.8-2.2c9.1-0.8,8.6-1.2,18.9,0c1.4,0.2,13.1,2,14.5,2.5c3.5,1.3,4.8,1.6,4.7,2.1
				c0,0.1,0,0.2-0.1,0.3c-2.9,3.9-9.2,6.2-12.6,7.9"/>
			<path class="st1" d="M217.5,1608.7c-2.6,0-4.7,0.3-9.7,0.8c-2.6,0.3-5,0.4-7.6,0.8c-1.9,0.6-3.9,1.2-5.8,2.1l-1.6,0.7
				c8.3,2.6,16.6,3.9,25,3.9h2.4c3-0.2,6.3,0.3,9-3c-4.4-1.4-8.8-2.1-13.2-2.2c-1.6,0-3.3,0.1-4.9,0.4h-0.4l0,0l4.9,1.1l-4.4-1.1
				h2.6c4.7-0.1,9.4,0.6,14,2c-2.4,2-5.2,1.5-7.8,1.7h-1.3c-2.4,0-4.8-0.1-7.3-0.3c-5.1-0.4-10.2-1.4-15.3-2.8
				c3.4-1.2,6.9-2.1,10.4-2.5c3.2-0.4,6.5-0.6,9.7-0.6c7,0,14,0.8,20.9,2.5c0.3,0.1,2.5,0.9,1.7,1.6c-8.7,2.7-20.2,7.2-30.9,7.2
				c-7.6,0-14.7-2.2-20.2-9c5.8,7.3,13.3,9.7,21.1,9.7c10.4,0,21.5-4.3,30.2-6.9c0.1-0.1,0.2-0.1,0.3-0.3c0.1-0.1,0.1-0.3,0.2-0.4
				c0.1-0.2,0.1-0.4,0.1-0.6s0-0.4,0-0.6c-0.2-0.5-0.4-0.9-0.6-1.1s-0.5-0.4-0.8-0.5c-4-0.8-10.6-1.8-11.6-2
				C222,1608.9,219.6,1608.7,217.5,1608.7L217.5,1608.7z"/>
		</g>
	</g>
	<g id="p">
		<g>
			<path class="st1" d="M245.6,1632.9c0.1-6,0.1-61.4,0.2-68.4c0-1.2,0.3-1.8,0.1-10.5c0.2-5.3,0.3-11,0.3-11v-15.8
				c-0.3-15.8-0.3-5.7,0.2-26.5c0.2-8.1,0-6.9-0.1-23.5c-4.1,4.9-6.2,5.7-11.1,7.8c-10.2,4.3-18.5,5.4-28.8,2.2
				c-6.3-2-15.7-3-20.4-11c-0.5,10.2-0.6,16.6-0.8,25.5c-0.1,5.3-0.3,8.8-0.3,13c-0.2,13.2,0.1,6.4-0.4,23.5
				c-0.1,3,0.1,9.7-0.1,14.3c-0.1,5.2,0,5.4-0.1,8c0.1,7.2,0.1,6.1,0,9.4c-0.1,9.2,0.1,64.3,0.3,71"/>
			<g id="q">
				<path class="st1" d="M234.6,1486.4c-6.2,2.2-11.3,2.8-17.6,3.4c-2.8,0-18.2-1.8-21.5-4.1c-4.3-2.9-9.4-8.2-9.4-9.3
					c-0.1-1.6,4-0.9,5.8-1.3c7.6-1.4,11.9-1.7,17.4-2.2c9.4-0.8,9-1.2,19.6,0c1.4,0.2,13.6,2,15.1,2.5c4.5,1.6,1.4,5.2,0.5,6.1
					c-3,3.9-5.2,2.5-8.8,4.2"/>
				<path class="st1" d="M219.5,1472.2c-2.7,0-4.9,0.3-10.1,0.8c-2.8,0.3-5.2,0.4-7.8,0.8c-2,0.6-4,1.2-6,2.1l-1.7,0.7
					c8.6,2.6,17.3,3.9,26,3.9h2.5c3.2-0.2,6.6,0.3,9.4-3c-4.5-1.4-9.1-2.1-13.7-2.2c-1.7,0-3.4,0.1-5,0.4h-0.4l0,0l5.1,1.1l-4.6-1.1
					h2.7c4.9-0.1,9.7,0.6,14.5,2c-2.5,2-5.4,1.5-8.1,1.7H221c-2.5,0-5-0.1-7.5-0.3c-5.3-0.4-10.6-1.4-15.9-2.8
					c3.6-1.2,7.2-2.1,10.8-2.5c3.4-0.4,6.7-0.6,10.1-0.6c7.3,0,14.5,0.8,21.7,2.5c0.3,0.1,2.6,0.9,1.7,1.6c-9.1,2.7-21,7.2-32.1,7.2
					c-7.9,0-15.3-2.2-21-9c6,7.3,13.8,9.7,21.9,9.7c10.8,0,22.4-4.3,31.4-6.9c0.1-0.1,0.2-0.1,0.3-0.3c0.1-0.1,0.2-0.3,0.2-0.4
					c0.1-0.2,0.1-0.4,0.1-0.6s0-0.4,0-0.6c-0.2-0.5-0.4-0.9-0.7-1.1c-0.3-0.3-0.6-0.4-0.9-0.5c-4.2-0.8-11.1-1.8-12.1-2
					C224.3,1472.4,221.7,1472.2,219.5,1472.2L219.5,1472.2z"/>
			</g>
		</g>
		<polygon class="st1" points="244.3,1588.8 272.4,1572.7 272.7,1577.8 243.1,1604.1 233.5,1599.6 		"/>
		<path class="st4" d="M225,1551c0.6-0.6,1.5,0.2,1.5,1.4s-0.1,2.8,0.7,2.2s2.1-0.7,2.1-0.4s-0.1,0.2,0.4,0.3s0.8,0.2,1.3,0.6
			s0.1,0.9,0.5,0.4s0.9-1.9,1.4-1.5s0.1,0.3,0.5,0s0.1-1.1,0.4-0.9s0.4-0.1,0.6-0.2s-0.8,1,0.3,1.7s3,1.1,3.9,2.5s1,2.7,1.9,3
			s1.2-0.1,1.1,0.7s-0.4,2,0.2,2.1s1.1,0.3,0.6,0.7s-1.2-0.1-0.4,0.4s1-0.4,0.8,0.5s0,1.9,0.3,2s0.2,0,0.2,0.7s0.1-1.1-0.1,0.7
			s0.1,2.7,0.5,3s0.8,1.8,0.7,2.7s-0.5,1.2-0.1,1.9s0.1,3.5-0.1,3.9s-1.2,2-0.6,2.2s0.2,1.3-0.3,1.5s0.3,1.6-0.2,1.8
			s-1.6,0.3-1.4,0.8s0.8,0.5-0.3,0.8s-1.1-0.4-1.1,0.3s1.4,0.5-0.1,0.7s-2.2,0.6-2,1.2s-0.7,0.5-1.2,0.1s-1.1-1.2-1.1-0.5
			s-0.9,0.5-0.9-0.3s0.6-0.7-0.1-0.8s-0.9,0-0.9-0.5s1.1-0.5,0.1-0.5s-1.2,0.5-2.4-1.6s-1.7-3.9-2.1-3.9s-1.1-0.8-0.5-0.9
			s0.3-0.1-0.1-0.9s-0.5-1.9-0.3-2.2s0.3,0,0-0.9s-0.4-1.2-0.2-1.4s0-0.9-0.2-1.5s-0.4-1.2-0.2-1.3s0.1,0,0.1-0.5
			c0.1-1.5,0.1-1.8-0.1-2s-0.8-1.8-0.3-2.3s1-0.3,0.1-1.4s-0.9-1.1-0.5-1.7s0.9-1.9,0.1-2.3s-1.6-1.2-1-1.4s0.8-1.4,0.3-1.5
			s-0.1-0.6,0.1-0.8s0.7,0.5-0.2-1.2s-2.4-3.2-2.4-4.1S225,1551,225,1551L225,1551z"/>
		<g id="r">
			<path class="st2" d="M234,1484.6c-6,2.2-12.1,3.6-18.2,4.2c-2.7,0-16.9-2.1-20.1-4.4c-4.1-2.9-9.6-7.9-9.6-9
				c-0.1-1.6,3.8-0.9,5.6-1.3c7.4-1.4,11.4-1.7,16.8-2.2c9.1-0.8,8.6-1.2,18.9,0c1.4,0.2,13.1,2,14.5,2.5c3.5,1.3,4.8,1.6,4.7,2.1
				c0,0.1,0,0.2-0.1,0.3c-2.9,3.9-9.2,6.2-12.6,7.9"/>
			<path class="st1" d="M218.2,1471.1c-2.6,0-4.7,0.3-9.7,0.8c-2.6,0.3-5,0.4-7.6,0.8c-1.9,0.6-3.9,1.2-5.8,2.1l-1.6,0.7
				c8.3,2.6,16.6,3.9,25,3.9h2.4c3-0.2,6.3,0.3,9-3c-4.4-1.4-8.8-2.1-13.2-2.2c-1.6,0-3.3,0.1-4.9,0.4h-0.4l0,0l4.9,1.1l-4.4-1.1
				h2.6c4.7-0.1,9.4,0.6,14,2c-2.4,2-5.2,1.5-7.8,1.7h-1.3c-2.4,0-4.8-0.1-7.3-0.3c-5.1-0.4-10.2-1.4-15.3-2.8
				c3.4-1.2,6.9-2.1,10.4-2.5c3.2-0.4,6.5-0.6,9.7-0.6c7,0,14,0.8,20.9,2.5c0.3,0.1,2.5,0.9,1.7,1.6c-8.7,2.7-20.2,7.2-30.9,7.2
				c-7.6,0-14.7-2.2-20.2-9c5.8,7.3,13.3,9.7,21.1,9.7c10.4,0,21.5-4.3,30.2-6.9c0.1-0.1,0.2-0.1,0.3-0.3c0.1-0.1,0.1-0.3,0.2-0.4
				c0.1-0.2,0.1-0.4,0.1-0.6s0-0.4,0-0.6c-0.2-0.5-0.4-0.9-0.6-1.1s-0.5-0.4-0.8-0.5c-4-0.8-10.6-1.8-11.6-2
				C222.8,1471.3,220.3,1471.1,218.2,1471.1L218.2,1471.1z"/>
		</g>
	</g>
	<g id="s">
		<g>
			<path class="st1" d="M246.4,1483.3c0.1-6-0.7-45.2-0.6-52.2c0-1.2,0.3-1.8,0.1-10.5c0.2-5.3,0.3-11,0.3-11v-15.8
				c-0.3-15.8-0.3-5.7,0.2-26.5c0.2-8.1,0-6.9-0.1-23.5c-4.1,4.9-6.2,5.7-11.1,7.8c-10.2,4.3-18.5,5.4-28.8,2.2
				c-6.3-2-15.7-3-20.4-11c-0.5,10.2-0.6,16.6-0.8,25.5c-0.1,5.3-0.3,8.8-0.3,13c-0.2,13.2,0.1,6.4-0.4,23.5
				c-0.1,3,0.1,9.7-0.1,14.3c-0.1,5.2,0,5.4-0.1,8c0.1,7.2,0.1,6.1,0,9.4c-0.1,9.2,0.6,64.5,0.7,71.2"/>
			<g id="t">
				<path class="st1" d="M234.6,1353.1c-6.2,2.2-11.3,2.8-17.6,3.4c-2.8,0-18.2-1.8-21.5-4.1c-4.3-2.9-9.4-8.2-9.4-9.3
					c-0.1-1.6,4-0.9,5.8-1.3c7.6-1.4,11.9-1.7,17.4-2.2c9.4-0.8,9-1.2,19.6,0c1.4,0.2,13.6,2,15.1,2.5c4.5,1.6,1.4,5.2,0.5,6.1
					c-3,3.9-5.2,2.5-8.8,4.2"/>
				<path class="st1" d="M219.5,1338.8c-2.7,0-4.9,0.3-10.1,0.8c-2.8,0.3-5.2,0.4-7.8,0.8c-2,0.6-4,1.2-6,2.1l-1.7,0.7
					c8.6,2.6,17.3,3.9,26,3.9h2.5c3.2-0.2,6.6,0.3,9.4-3c-4.5-1.4-9.1-2.1-13.7-2.2c-1.7,0-3.4,0.1-5,0.4h-0.4l0,0l5.1,1.1l-4.6-1.1
					h2.7c4.9-0.1,9.7,0.6,14.5,2c-2.5,2-5.4,1.5-8.1,1.7H221c-2.5,0-5-0.1-7.5-0.3c-5.3-0.4-10.6-1.4-15.9-2.8
					c3.6-1.2,7.2-2.1,10.8-2.5c3.4-0.4,6.7-0.6,10.1-0.6c7.3,0,14.5,0.8,21.7,2.5c0.3,0.1,2.6,0.9,1.7,1.6c-9.1,2.7-21,7.2-32.1,7.2
					c-7.9,0-15.3-2.2-21-9c6,7.3,13.8,9.7,21.9,9.7c10.8,0,22.4-4.3,31.4-6.9c0.1-0.1,0.2-0.1,0.3-0.3c0.1-0.1,0.2-0.3,0.2-0.4
					c0.1-0.2,0.1-0.4,0.1-0.6s0-0.4,0-0.6c-0.2-0.5-0.4-0.9-0.7-1.1c-0.3-0.3-0.6-0.4-0.9-0.5c-4.2-0.8-11.1-1.8-12.1-2
					C224.3,1339,221.7,1338.8,219.5,1338.8L219.5,1338.8z"/>
			</g>
		</g>
		<polygon class="st1" points="193.3,1447 152.2,1410.5 153.1,1403.1 196.1,1430.4 		"/>
		<path class="st4" d="M183.7,1430.1c0.6-0.6,1.5,0.2,1.5,1.4s-0.1,2.8,0.7,2.2s2.1-0.7,2.1-0.4s-0.1,0.2,0.4,0.3s0.8,0.2,1.3,0.6
			s0.1,0.9,0.5,0.4s0.9-1.9,1.4-1.5s0.1,0.3,0.5,0s0.1-1.1,0.4-0.9s0.4-0.1,0.6-0.2s-0.8,1,0.3,1.7s3,1.1,3.9,2.5s1,2.7,1.9,3
			s1.2-0.1,1.1,0.7s-0.4,2,0.2,2.1s1.1,0.3,0.6,0.7s-1.2-0.1-0.4,0.4s1-0.4,0.8,0.5s0,1.9,0.3,2s0.2,0,0.2,0.7s0.1-1.1-0.1,0.7
			s0.1,2.7,0.5,3s0.8,1.8,0.7,2.7s-0.5,1.2-0.1,1.9s0.1,3.5-0.1,3.9s-1.2,2-0.6,2.2s0.2,1.3-0.3,1.5s0.3,1.6-0.2,1.8
			s-1.6,0.3-1.4,0.8s0.8,0.5-0.3,0.8s-1.1-0.4-1.1,0.3s1.4,0.5-0.1,0.7s-2.2,0.6-2,1.2s-0.7,0.5-1.2,0.1s-1.1-1.2-1.1-0.5
			s-0.9,0.5-0.9-0.3s0.6-0.7-0.1-0.8s-0.9,0-0.9-0.5s1.1-0.5,0.1-0.5s-1.2,0.5-2.4-1.6c-1.2-2-1.7-3.9-2.1-3.9s-1.1-0.8-0.5-0.9
			s0.3-0.1-0.1-0.9s-0.5-1.9-0.3-2.2s0.3,0,0-0.9s-0.4-1.2-0.2-1.4s0-0.9-0.2-1.5s-0.4-1.2-0.2-1.3s0.1,0,0.1-0.5
			c0.1-1.5,0.1-1.8-0.1-2s-0.8-1.8-0.3-2.3s1-0.3,0.1-1.4s-0.9-1.1-0.5-1.7s0.9-1.9,0.1-2.3s-1.6-1.2-1-1.4s0.8-1.4,0.3-1.5
			s-0.1-0.6,0.1-0.8s0.7,0.5-0.2-1.2s-2.4-3.2-2.4-4.1S183.7,1430.1,183.7,1430.1L183.7,1430.1z"/>
		<g id="u">
			<path class="st1" d="M219.6,1338.8c-2.6,0-4.7,0.3-9.7,0.8c-2.6,0.3-5,0.4-7.6,0.8c-1.9,0.6-3.9,1.2-5.8,2.1l-1.6,0.7
				c8.3,2.6,16.6,3.9,25,3.9h2.4c3-0.2,6.3,0.3,9-3c-4.4-1.4-8.8-2.1-13.2-2.2c-1.6,0-3.3,0.1-4.9,0.4h-0.4l0,0l4.9,1.1l-4.4-1.1
				h2.6c4.7-0.1,9.4,0.6,14,2c-2.4,2-5.2,1.5-7.8,1.7h-1.3c-2.4,0-4.8-0.1-7.3-0.3c-5.1-0.4-10.2-1.4-15.3-2.8
				c3.4-1.2,6.9-2.1,10.4-2.5c3.2-0.4,6.5-0.6,9.7-0.6c7,0,14,0.8,20.9,2.5c0.3,0.1,2.5,0.9,1.7,1.6c-8.7,2.7-20.2,7.2-30.9,7.2
				c-7.6,0-14.7-2.2-20.2-9c5.8,7.3,13.3,9.7,21.1,9.7c10.4,0,21.5-4.3,30.2-6.9c0.1-0.1,0.2-0.1,0.3-0.3c0.1-0.1,0.1-0.3,0.2-0.4
				c0.1-0.2,0.1-0.4,0.1-0.6s0-0.4,0-0.6c-0.2-0.5-0.4-0.9-0.6-1.1s-0.5-0.4-0.8-0.5c-4-0.8-10.6-1.8-11.6-2
				C224.1,1339,221.6,1338.8,219.6,1338.8L219.6,1338.8z"/>
		</g>
	</g>
	<g id="v">
		<g>
			<path class="st1" d="M246.1,1366.2c1.1-9-0.4-61.8-0.3-68.8c0-1.2,0.3-1.8,0.1-10.5c0.2-5.3,0.3-11,0.3-11v-15.8
				c-0.3-15.8-0.3-5.7,0.2-26.5c0.2-8.1,0-6.9-0.1-23.5c-4.1,4.9-6.2,5.7-11.1,7.8c-10.2,4.3-18.5,5.4-28.8,2.2
				c-6.3-2-15.7-3-20.4-11c-0.5,10.2-0.6,16.6-0.8,25.5c-0.1,5.3-0.3,8.8-0.3,13c-0.2,13.2,0.1,6.4-0.4,23.5
				c-0.1,3,0.1,9.7-0.1,14.3c-0.1,5.2,0,5.4-0.1,8c0.1,7.2,0.1,6.1,0,9.4c-0.1,9.2,0.7,65.9,0.8,72.5"/>
			<g id="w">
				<path class="st1" d="M234.6,1219.2c-6.2,2.2-11.3,2.8-17.6,3.4c-2.8,0-18.2-1.8-21.5-4.1c-4.3-2.9-9.4-8.2-9.4-9.3
					c-0.1-1.6,4-0.9,5.8-1.3c7.6-1.4,11.9-1.7,17.4-2.2c9.4-0.8,9-1.2,19.6,0c1.4,0.2,13.6,2,15.1,2.5c4.5,1.6,1.4,5.2,0.5,6.1
					c-3,3.9-5.2,2.5-8.8,4.2"/>
				<path class="st1" d="M219.5,1205.1c-2.7,0-4.9,0.3-10.1,0.8c-2.8,0.3-5.2,0.4-7.8,0.8c-2,0.6-4,1.2-6,2.1l-1.7,0.7
					c8.6,2.6,17.3,3.9,26,3.9h2.5c3.2-0.2,6.6,0.3,9.4-3c-4.5-1.4-9.1-2.1-13.7-2.2c-1.7,0-3.4,0.1-5,0.4h-0.4l0,0l5.1,1.1l-4.6-1.1
					h2.7c4.9-0.1,9.7,0.6,14.5,2c-2.5,2-5.4,1.5-8.1,1.7H221c-2.5,0-5-0.1-7.5-0.3c-5.3-0.4-10.6-1.4-15.9-2.8
					c3.6-1.2,7.2-2.1,10.8-2.5c3.4-0.4,6.7-0.6,10.1-0.6c7.3,0,14.5,0.8,21.7,2.5c0.3,0.1,2.6,0.9,1.7,1.6c-9.1,2.7-21,7.2-32.1,7.2
					c-7.9,0-15.3-2.2-21-9c6,7.3,13.8,9.7,21.9,9.7c10.8,0,22.4-4.3,31.4-6.9c0.1-0.1,0.2-0.1,0.3-0.3c0.1-0.1,0.2-0.3,0.2-0.4
					c0.1-0.2,0.1-0.4,0.1-0.6s0-0.4,0-0.6c-0.2-0.5-0.4-0.9-0.7-1.1c-0.3-0.3-0.6-0.4-0.9-0.5c-4.2-0.8-11.1-1.8-12.1-2
					C224.3,1205.2,221.7,1205,219.5,1205.1L219.5,1205.1z"/>
			</g>
		</g>
		<path class="st1" d="M242.2,1287.3c0,0,9.5,4.6,21.7-9.9c5.7-6.7,14.5-10.7,19-14.3c5.2-4.2,6.5-4.8,8.9-9.6
			c5-10.3,7.3-21.9,7.6-9.8c0.3,10.6-12.6,23.7-12.6,23.7s4.2,1.3,12.1-1.4c7.3-2.5,9-3.6,10.8-3.6s-6.2,5.6-15.6,7.7
			c-9.5,2.2-22.8,13.1-26.8,19.2c-8.5,12.9-27.9,28.9-27.9,28.9L242.2,1287.3L242.2,1287.3z"/>
		<g>
			<path class="st3" d="M287.1,1279.9c0,0-0.6-4.1,4.4-6.6c4.9-2.5,5-1.6,5-1.6s-0.5,6.7-4.2,7.7
				C288.4,1280.5,287.1,1279.9,287.1,1279.9z"/>
			<path class="st3" d="M306.6,1274.8c0,0-3.6-0.4-4.7-5.2s-0.3-4.7-0.3-4.7s5.6,1.9,5.6,5.4
				C307.3,1273.8,306.6,1274.8,306.6,1274.8L306.6,1274.8z"/>
			<path class="st3" d="M294.5,1270.3c0,0,0.1-4.5,5.8-6.3s5.6-0.9,5.6-0.9s-1.6,7.1-5.8,7.6S294.5,1270.3,294.5,1270.3
				L294.5,1270.3z"/>
			<path class="st3" d="M286.6,1266.2c0,0,1.4-3.4,6.4-3.2s4.6,1,4.6,1s-3.4,5-6.8,4.1S286.6,1266.2,286.6,1266.2L286.6,1266.2z"/>
			<path class="st3" d="M296,1259.5c0,0-2.7-3.5,0.6-8.4c3.3-5,3.8-4.2,3.8-4.2s3.1,6.5,0.1,9.4
				C297.6,1259.2,296.1,1259.5,296,1259.5L296,1259.5z"/>
			<path class="st3" d="M298.7,1248c0,0-3.6-2.4-2.1-8s2.2-5.1,2.2-5.1s4.9,5,3.1,8.7S298.7,1248,298.7,1248L298.7,1248z"/>
			<path class="st3" d="M296.8,1260c0,0-4.6,0.1-6.8-5.7c-2.2-5.8-1.2-5.8-1.2-5.8s7.4,1.3,8,5.7S296.8,1260,296.8,1260L296.8,1260z
				"/>
			<path class="st3" d="M280.8,1269.7c0,0-2.7-3.2,0.2-8.1s3.4-4.1,3.4-4.1s3.3,6,0.5,9S280.8,1269.7,280.8,1269.7z"/>
		</g>
		<g id="x">
			<path class="st2" d="M233.3,1218.4c-6,2.2-12.1,3.6-18.2,4.2c-2.7,0-16.9-2.1-20.1-4.4c-4.1-2.9-9.6-7.9-9.6-9
				c-0.1-1.6,3.8-0.9,5.6-1.3c7.4-1.4,11.4-1.7,16.8-2.2c9.1-0.8,8.6-1.2,18.9,0c1.4,0.2,13.1,2,14.5,2.5c3.5,1.3,4.8,1.6,4.7,2.1
				c0,0.1,0,0.2-0.1,0.3c-2.9,3.9-9.2,6.2-12.6,7.9"/>
			<path class="st1" d="M217.5,1205c-2.6,0-4.7,0.3-9.7,0.8c-2.6,0.3-5,0.4-7.6,0.8c-1.9,0.6-3.9,1.2-5.8,2.1l-1.6,0.7
				c8.3,2.6,16.6,3.9,25,3.9h2.4c3-0.2,6.3,0.3,9-3c-4.4-1.4-8.8-2.1-13.2-2.2c-1.6,0-3.3,0.1-4.9,0.4h-0.4l0,0l4.9,1.1l-4.4-1.1
				h2.6c4.7-0.1,9.4,0.6,14,2c-2.4,2-5.2,1.5-7.8,1.7h-1.3c-2.4,0-4.8-0.1-7.3-0.3c-5.1-0.4-10.2-1.4-15.3-2.8
				c3.4-1.2,6.9-2.1,10.4-2.5c3.2-0.4,6.5-0.6,9.7-0.6c7,0,14,0.8,20.9,2.5c0.3,0.1,2.5,0.9,1.7,1.6c-8.7,2.7-20.2,7.2-30.9,7.2
				c-7.6,0-14.7-2.2-20.2-9c5.8,7.3,13.3,9.7,21.1,9.7c10.4,0,21.5-4.3,30.2-6.9c0.1-0.1,0.2-0.1,0.3-0.3c0.1-0.1,0.1-0.3,0.2-0.4
				c0.1-0.2,0.1-0.4,0.1-0.6s0-0.4,0-0.6c-0.2-0.5-0.4-0.9-0.6-1.1s-0.5-0.4-0.8-0.5c-4-0.8-10.6-1.8-11.6-2
				C222.1,1205.2,219.6,1205,217.5,1205L217.5,1205z"/>
		</g>
	</g>
	<g id="y">
		<g>
			<path class="st1" d="M246.1,1234.7c1.1-9-0.4-61.8-0.3-68.8c0-1.2,0.3-1.8,0.1-10.5c0.2-5.3,0.3-11,0.3-11v-15.8
				c-0.3-15.8-0.3-5.7,0.2-26.5c0.2-8.1,0-6.9-0.1-23.5c-4.1,4.9-6.2,5.7-11.1,7.8c-10.2,4.3-18.5,5.4-28.8,2.2
				c-6.3-2-15.7-3-20.4-11c-0.5,10.2-0.6,16.6-0.8,25.5c-0.1,5.3-0.3,8.8-0.3,13c-0.2,13.2,0.1,6.4-0.4,23.5
				c-0.1,3,0.1,9.7-0.1,14.3c-0.1,5.2,0,5.4-0.1,8c0.1,7.2,0.1,6.1,0,9.4c-0.1,9.2,0.7,65.9,0.8,72.5"/>
			<g id="a_x60_">
				<path class="st1" d="M234.6,1087.8c-6.2,2.2-11.3,2.8-17.6,3.4c-2.8,0-18.2-1.8-21.5-4.1c-4.3-2.9-9.4-8.2-9.4-9.3
					c-0.1-1.6,4-0.9,5.8-1.3c7.6-1.4,11.9-1.7,17.4-2.2c9.4-0.8,9-1.2,19.6,0c1.4,0.2,13.6,2,15.1,2.5c4.5,1.6,1.4,5.2,0.5,6.1
					c-3,3.9-5.2,2.5-8.8,4.2"/>
				<path class="st1" d="M219.5,1073.6c-2.7,0-4.9,0.3-10.1,0.8c-2.8,0.3-5.2,0.4-7.8,0.8c-2,0.6-4,1.2-6,2.1l-1.7,0.7
					c8.6,2.6,17.3,3.9,26,3.9h2.5c3.2-0.2,6.6,0.3,9.4-3c-4.5-1.4-9.1-2.1-13.7-2.2c-1.7,0-3.4,0.1-5,0.4h-0.4l0,0l5.1,1.1l-4.6-1.1
					h2.7c4.9-0.1,9.7,0.6,14.5,2c-2.5,2-5.4,1.5-8.1,1.7H221c-2.5,0-5-0.1-7.5-0.3c-5.3-0.4-10.6-1.4-15.9-2.8
					c3.6-1.2,7.2-2.1,10.8-2.5c3.4-0.4,6.7-0.6,10.1-0.6c7.3,0,14.5,0.8,21.7,2.5c0.3,0.1,2.6,0.9,1.7,1.6c-9.1,2.7-21,7.2-32.1,7.2
					c-7.9,0-15.3-2.2-21-9c6,7.3,13.8,9.7,21.9,9.7c10.8,0,22.4-4.3,31.4-6.9c0.1-0.1,0.2-0.1,0.3-0.3c0.1-0.1,0.2-0.3,0.2-0.4
					c0.1-0.2,0.1-0.4,0.1-0.6s0-0.4,0-0.6c-0.2-0.5-0.4-0.9-0.7-1.1c-0.3-0.3-0.6-0.4-0.9-0.5c-4.2-0.8-11.1-1.8-12.1-2
					C224.3,1073.8,221.7,1073.6,219.5,1073.6L219.5,1073.6z"/>
			</g>
		</g>
		<path class="st1" d="M174.4,1163.2c-0.1-0.2-6.5-8.3-6.6-8.5c-4.3-7.7-4.8-9.9-14.6-21.3c-10.8-12.6-4.7-7.6-16.1-18.7
			c-0.1-0.1-1.7-2-1.7-2.1l-3-3.5c-1.1-1.4,1.9-0.8,3.3,0.4c0.4,0.3,1.4,1.6,1.8,2c2.3,2.3,6,4.9,8.8,8c1.1,1.2,3.1-0.1,2.4-1.6
			c-2.5-5.9-5.8-14.5-8.1-23.6c0-0.2-0.5-2-0.5-2.1c-0.4-1.8,1.6,0,2.2,1.7c4,10.4,10.2,26.5,14.7,30.3c18.8,16,20.7,26.3,30.9,21.1
			c6.3-3.2-0.5,22.1-0.9,23.9c0,0.1,5.4,6,5.4,6.1C191.7,1176.6,184.4,1176.5,174.4,1163.2L174.4,1163.2z"/>
		<g>
			<path class="st3" d="M144.2,1131.4c0,0-2.3-3.8,1.5-8.4s4.3-3.8,4.3-3.8s2.4,6.8-0.9,9.5S144.3,1131.4,144.2,1131.4L144.2,1131.4
				z"/>
			<path class="st3" d="M137.9,1124.1c0,0-3.6-2.5-1.9-8.1s2.3-5,2.3-5s4.8,5.1,2.9,8.8C139.2,1123.5,137.9,1124.1,137.9,1124.1
				L137.9,1124.1z"/>
			<path class="st3" d="M147.2,1120.3c0,0-4.2-0.8-5-6.6s0.1-5.5,0.1-5.5s6.4,2.7,6.1,6.8C148.2,1119.1,147.2,1120.3,147.2,1120.3
				L147.2,1120.3z"/>
			<path class="st3" d="M136.5,1105.8c0,0,0.8-3.4,5.6-3.8s4.5,0.3,4.5,0.3s-2.5,5.2-5.8,4.7S136.5,1105.8,136.5,1105.8
				L136.5,1105.8z"/>
			<path class="st3" d="M138.5,1102.4c0,0,0.7-3.3,5.1-3.9s4.3,0.1,4.3,0.1s-2.2,5-5.4,4.8S138.5,1102.4,138.5,1102.4L138.5,1102.4z
				"/>
		</g>
		<g id="aa">
			<path class="st2" d="M234,1086c-6,2.2-12.1,3.6-18.2,4.2c-2.7,0-16.9-2.1-20.1-4.4c-4.1-2.9-9.6-7.9-9.6-9
				c-0.1-1.6,3.8-0.9,5.6-1.3c7.4-1.4,11.4-1.7,16.8-2.2c9.1-0.8,8.6-1.2,18.9,0c1.4,0.2,13.1,2,14.5,2.5c3.5,1.3,4.8,1.6,4.7,2.1
				c0,0.1,0,0.2-0.1,0.3c-2.9,3.9-9.2,6.2-12.6,7.9"/>
			<path class="st1" d="M218.2,1072.5c-2.6,0-4.7,0.3-9.7,0.8c-2.6,0.3-5,0.4-7.6,0.8c-1.9,0.6-3.9,1.2-5.8,2.1l-1.6,0.7
				c8.3,2.6,16.6,3.9,25,3.9h2.4c3-0.2,6.3,0.3,9-3c-4.4-1.4-8.8-2.1-13.2-2.2c-1.6,0-3.3,0.1-4.9,0.4h-0.4l0,0l4.9,1.1l-4.4-1.1
				h2.6c4.7-0.1,9.4,0.6,14,2c-2.4,2-5.2,1.5-7.8,1.7h-1.3c-2.4,0-4.8-0.1-7.3-0.3c-5.1-0.4-10.2-1.4-15.3-2.8
				c3.4-1.2,6.9-2.1,10.4-2.5c3.2-0.4,6.5-0.6,9.7-0.6c7,0,14,0.8,20.9,2.5c0.3,0.1,2.5,0.9,1.7,1.6c-8.7,2.7-20.2,7.2-30.9,7.2
				c-7.6,0-14.7-2.2-20.2-9c5.8,7.3,13.3,9.7,21.1,9.7c10.4,0,21.5-4.3,30.2-6.9c0.1-0.1,0.2-0.1,0.3-0.3c0.1-0.1,0.1-0.3,0.2-0.4
				c0.1-0.2,0.1-0.4,0.1-0.6s0-0.4,0-0.6c-0.2-0.5-0.4-0.9-0.6-1.1s-0.5-0.4-0.8-0.5c-4-0.8-10.6-1.8-11.6-2
				C222.8,1072.7,220.3,1072.5,218.2,1072.5L218.2,1072.5z"/>
		</g>
	</g>
	<g id="ab">
		<g>
			<path class="st1" d="M246.1,1108.5c1.1-9-0.4-61.8-0.3-68.8c0-1.2,0.3-1.8,0.1-10.5c0.2-5.3,0.3-11,0.3-11v-15.8
				c-0.3-15.8-0.3-5.7,0.2-26.5c0.2-8.1,0-6.9-0.1-23.5c-4.1,4.9-6.2,5.7-11.1,7.8c-10.2,4.3-18.5,5.4-28.8,2.2
				c-6.3-2-15.7-3-20.4-11c-0.5,10.2-0.6,16.6-0.8,25.5c-0.1,5.3-0.3,8.8-0.3,13c-0.2,13.2,0.1,6.4-0.4,23.5
				c-0.1,3,0.1,9.7-0.1,14.3c-0.1,5.2,0,5.4-0.1,8c0.1,7.2,0.1,6.1,0,9.4c-0.1,9.2,0.7,65.9,0.8,72.5"/>
			<g id="ac">
				<path class="st1" d="M234.6,961.6c-6.2,2.2-11.3,2.8-17.6,3.5c-2.8,0-18.2-1.8-21.5-4.1c-4.3-2.9-9.4-8.2-9.4-9.3
					c-0.1-1.6,4-1,5.8-1.3c7.6-1.4,11.9-1.7,17.4-2.2c9.4-0.8,9-1.2,19.6,0c1.4,0.2,13.6,2,15.1,2.5c4.5,1.6,1.4,5.2,0.5,6.1
					c-3,4-5.2,2.5-8.8,4.2"/>
				<path class="st1" d="M219.5,947.4c-2.7,0-4.9,0.3-10.1,0.8c-2.8,0.3-5.2,0.5-7.8,0.8c-2,0.5-4,1.2-6,2.1l-1.7,0.7
					c8.6,2.6,17.3,3.9,26,4h2.5c3.2-0.2,6.6,0.3,9.4-3c-4.5-1.4-9.1-2.1-13.7-2.2c-1.7,0-3.4,0.1-5,0.4h-0.4l0,0l5.1,1.1l-4.6-1.1
					h2.7c4.9,0,9.7,0.6,14.5,2c-2.5,2-5.4,1.5-8.1,1.7H221c-2.5,0-5-0.1-7.5-0.3c-5.3-0.5-10.6-1.4-15.9-2.8
					c3.6-1.2,7.2-2.1,10.8-2.5c3.4-0.4,6.7-0.5,10.1-0.5c7.3,0,14.5,0.8,21.7,2.5c0.3,0.1,2.6,0.9,1.7,1.6c-9.1,2.7-21,7.2-32.1,7.2
					c-7.9,0-15.3-2.2-21-9c6,7.3,13.8,9.7,21.9,9.7c10.8,0,22.4-4.3,31.4-6.9c0.1,0,0.2-0.1,0.3-0.3c0.1-0.1,0.2-0.3,0.2-0.5
					c0.1-0.2,0.1-0.4,0.1-0.6c0-0.2,0-0.4,0-0.6c-0.2-0.5-0.4-0.9-0.7-1.1c-0.3-0.3-0.6-0.5-0.9-0.5c-4.2-0.8-11.1-1.8-12.1-2
					C224.3,947.6,221.7,947.4,219.5,947.4L219.5,947.4z"/>
			</g>
		</g>
		<polygon class="st1" points="247.8,1010.5 275.9,994.3 276.2,999.4 246.6,1025.8 237,1021.3 		"/>
		<g id="ad">
			<path class="st2" d="M233.1,957.2c-6,2.2-12.1,3.6-18.2,4.2c-2.7,0-16.9-2.1-20.1-4.4c-4.1-2.9-9.6-7.9-9.6-9
				c-0.1-1.6,3.8-1,5.6-1.3c7.4-1.4,11.4-1.7,16.8-2.2c9.1-0.8,8.6-1.2,18.9,0c1.4,0.2,13.1,2,14.5,2.5c3.5,1.3,4.8,1.6,4.7,2.1
				c0,0.1,0,0.2-0.1,0.3c-2.9,4-9.2,6.2-12.6,7.9"/>
			<path class="st1" d="M217.4,943.7c-2.6,0-4.7,0.3-9.7,0.8c-2.6,0.3-5,0.5-7.6,0.8c-1.9,0.5-3.9,1.2-5.8,2.1l-1.6,0.7
				c8.3,2.6,16.6,3.9,25,4h2.4c3-0.2,6.3,0.3,9-3c-4.4-1.4-8.8-2.1-13.2-2.2c-1.6,0-3.3,0.1-4.9,0.4h-0.4l0,0l4.9,1.1l-4.4-1.1h2.6
				c4.7,0,9.4,0.6,14,2c-2.4,2-5.2,1.5-7.8,1.7h-1.3c-2.4,0-4.8-0.1-7.3-0.3c-5.1-0.5-10.2-1.4-15.3-2.8c3.4-1.2,6.9-2.1,10.4-2.5
				c3.2-0.4,6.5-0.5,9.7-0.5c7,0,14,0.8,20.9,2.5c0.3,0.1,2.5,0.9,1.7,1.6c-8.7,2.7-20.2,7.2-30.9,7.2c-7.6,0-14.7-2.2-20.2-9
				c5.8,7.3,13.3,9.7,21.1,9.7c10.4,0,21.5-4.3,30.2-6.9c0.1,0,0.2-0.1,0.3-0.3c0.1-0.1,0.1-0.3,0.2-0.5c0.1-0.2,0.1-0.4,0.1-0.6
				c0-0.2,0-0.4,0-0.6c-0.2-0.5-0.4-0.9-0.6-1.1s-0.5-0.5-0.8-0.5c-4-0.8-10.6-1.8-11.6-2C221.9,943.9,219.4,943.7,217.4,943.7
				L217.4,943.7z"/>
		</g>
	</g>
	<g id="ae">
		<g>
			<path class="st1" d="M246.1,975c1.1-9-0.4-61.8-0.3-68.8c0-1.2,0.3-1.8,0.1-10.5c0.2-5.3,0.3-11,0.3-11V869
				c-0.3-15.8-0.3-5.7,0.2-26.5c0.2-8.1,0-6.9-0.1-23.5c-4.1,4.9-6.2,5.7-11.1,7.8c-10.2,4.3-18.5,5.4-28.8,2.2
				c-6.3-2-15.7-3-20.4-11c-0.5,10.2-0.6,16.6-0.8,25.5c-0.1,5.3-0.3,8.8-0.3,13c-0.2,13.2,0.1,6.4-0.4,23.5
				c-0.1,3,0.1,9.7-0.1,14.3c-0.1,5.2,0,5.4-0.1,8c0.1,7.2,0.1,6.1,0,9.4c-0.1,9.2,0.7,65.9,0.8,72.5"/>
			<g id="af">
				<path class="st1" d="M234.6,828.1c-6.2,2.2-11.3,2.8-17.6,3.5c-2.8,0-18.2-1.8-21.5-4.1c-4.3-2.9-9.4-8.2-9.4-9.3
					c-0.1-1.6,4-1,5.8-1.3c7.6-1.4,11.9-1.7,17.4-2.2c9.4-0.8,9-1.2,19.6,0c1.4,0.2,13.6,2,15.1,2.5c4.5,1.6,1.4,5.2,0.5,6.1
					c-3,4-5.2,2.5-8.8,4.2"/>
				<path class="st1" d="M219.5,813.9c-2.7,0-4.9,0.3-10.1,0.8c-2.8,0.3-5.2,0.5-7.8,0.8c-2,0.5-4,1.2-6,2.1l-1.7,0.7
					c8.6,2.6,17.3,3.9,26,4h2.5c3.2-0.2,6.6,0.3,9.4-3c-4.5-1.4-9.1-2.1-13.7-2.2c-1.7,0-3.4,0.1-5,0.4h-0.4l0,0l5.1,1.1l-4.6-1.1
					h2.7c4.9,0,9.7,0.6,14.5,2c-2.5,2-5.4,1.5-8.1,1.7H221c-2.5,0-5-0.1-7.5-0.3c-5.3-0.5-10.6-1.4-15.9-2.8
					c3.6-1.2,7.2-2.1,10.8-2.5c3.4-0.4,6.7-0.5,10.1-0.5c7.3,0,14.5,0.8,21.7,2.5c0.3,0.1,2.6,0.9,1.7,1.6c-9.1,2.7-21,7.2-32.1,7.2
					c-7.9,0-15.3-2.2-21-9c6,7.3,13.8,9.7,21.9,9.7c10.8,0,22.4-4.3,31.4-6.9c0.1,0,0.2-0.1,0.3-0.3c0.1-0.1,0.2-0.3,0.2-0.5
					c0.1-0.2,0.1-0.4,0.1-0.6c0-0.2,0-0.4,0-0.6c-0.2-0.5-0.4-0.9-0.7-1.1c-0.3-0.3-0.6-0.5-0.9-0.5c-4.2-0.8-11.1-1.8-12.1-2
					C224.3,814.1,221.7,813.9,219.5,813.9L219.5,813.9z"/>
			</g>
			<polygon class="st1" points="189.6,908.1 148.4,871.6 149.4,864.2 192.4,891.5 			"/>
		</g>
		<g id="ag">
			<path class="st2" d="M233.8,826.6c-6,2.2-12.1,3.6-18.2,4.2c-2.7,0-16.9-2.1-20.1-4.4c-4.1-2.9-9.6-7.9-9.6-9
				c-0.1-1.6,3.8-1,5.6-1.3c7.4-1.4,11.4-1.7,16.8-2.2c9.1-0.8,8.6-1.2,18.9,0c1.4,0.2,13.1,2,14.5,2.5c3.5,1.3,4.8,1.6,4.7,2.1
				c0,0.1,0,0.2-0.1,0.3c-2.9,4-9.2,6.2-12.6,7.9"/>
			<path class="st1" d="M218,813.2c-2.6,0-4.7,0.3-9.7,0.8c-2.6,0.3-5,0.5-7.6,0.8c-1.9,0.5-3.9,1.2-5.8,2.1l-1.6,0.7
				c8.3,2.6,16.6,3.9,25,4h2.4c3-0.2,6.3,0.3,9-3c-4.4-1.4-8.8-2.1-13.2-2.2c-1.6,0-3.3,0.1-4.9,0.4h-0.4l0,0l4.9,1.1l-4.4-1.1h2.6
				c4.7,0,9.4,0.6,14,2c-2.4,2-5.2,1.5-7.8,1.7h-1.3c-2.4,0-4.8-0.1-7.3-0.3c-5.1-0.5-10.2-1.4-15.3-2.8c3.4-1.2,6.9-2.1,10.4-2.5
				c3.2-0.4,6.5-0.5,9.7-0.5c7,0,14,0.8,20.9,2.5c0.3,0.1,2.5,0.9,1.7,1.6c-8.7,2.7-20.2,7.2-30.9,7.2c-7.6,0-14.7-2.2-20.2-9
				c5.8,7.3,13.3,9.7,21.1,9.7c10.4,0,21.5-4.3,30.2-6.9c0.1,0,0.2-0.1,0.3-0.3c0.1-0.1,0.1-0.3,0.2-0.5c0.1-0.2,0.1-0.4,0.1-0.6
				c0-0.2,0-0.4,0-0.6c-0.2-0.5-0.4-0.9-0.6-1.1s-0.5-0.5-0.8-0.5c-4-0.8-10.6-1.8-11.6-2C222.6,813.4,220.1,813.2,218,813.2
				L218,813.2z"/>
		</g>
	</g>
</g>
<g id="ah">
</g>
<g id="ai">
	<g id="aj">
	</g>
	<g id="ak">
	</g>
</g>
<g id="al">
	<g id="am">
	</g>
	<g id="an">
	</g>
</g>
<g id="TreeTop_x5F_Amazon">
	<path class="st1" d="M246.1,832.8c0,0,0.9-45,3.2-48.1c14.3-18.8,25.8-15.8,32.7-33s18.1-25.4,26.6-39.9c6.8-11.5-4.8,6.9,9.7-16.8
		s4.4-8.8,0.8-7.8s0.5-13.4-0.7-9.4s-10.8,20.1-10.8,6.5s-27,65.2-47.5,68.8c-20.5,3.5-24.1,8.9-8.8-10.7
		c15.2-19.7,14.7-32.9,19.1-47.1c4-13.1,1.9-13.4,14.3-31c12.4-17.6-5.7-2.9-6.5-11.5c-0.8-8.6-22.2-20.8-15.8-7.2
		c6.4,13.6-2.3,8.7-8,31.9c-5.6,23.2-14.8,58.5-27.3,67c-12.4,8.6-11.6,0.5-8.4-22.7c3.2-23.2,6.4-29.4,11.7-55.1
		c0.6-3.1,5.4,10.1,1.8-8.7c-3.8-20.2,20.1,7.5,18-18.2c-2.4-29.2-27.2,2.2-28,10.8c-0.8,8.6-1.9,5.2-9.5,37s-6.8,66.1-11.7,55.6
		c-4.1-8.8-24.3-36.6-25.1-46.1s6.7-34.1,8.7-47.7s5,9.7,4.6,5.7c-0.4-4-18.6,5-18.6,5s10.5,6.6,0.1,17.1
		c-10.4,10.6-8.5,15.8-12.2-6.6c-3.8-23.4,6,5.1,5.6-10.5s-11.7,3.9-12.9,16.5c-1.2,12.6-2.6-2.4-1.6,10.1c0.6,6.7-6.8,4.2,3.2,13.3
		c15.8,14.3,19.3,27.6,26.1,48.7c3.4,10.6,3.8,37.4-22.9,9.6c-23.2-24.2-22.5-37.8-26.5-47.4c-4-9.6-17.9-1.1-23.5-21.3
		s-6,7.1-8-9.5l-3.5,16.6c0,0-5.1-15-0.3-5.9c4.8,9.1,19,14.3,27.3,31.8c8.3,17.5,7.9,40,42.9,69c17.4,14.4,15.4,24.2,15.9,46.9
		c0.5,25.2,5,58.6,5,58.6l58.4-14.8L246.1,832.8z"/>
	<g>
		<path class="st5" d="M151.8,704.2c0-11.2-8.1-20.4-18-20.4c-2.5,0-4.9,0.6-7,1.6c-3.8-9.1-12-15.4-21.5-15.4
			c-13.1,0-23.8,12-23.8,26.9c0,2,0.2,4,0.6,5.9c-6.3,0.3-11.4,6.2-11.4,13.4c0,7.4,5.3,13.4,11.9,13.4c0.4,0,0.8,0,1.2-0.1
			c3.3,7.1,9.9,12,17.5,12c6.7,0,12.5-3.7,16.1-9.5c2.1,2.7,5.2,4.5,8.7,4.5c6.2,0,11.3-5.5,11.5-12.5
			C145.7,722.1,151.8,714,151.8,704.2z"/>
		<g>
			<path class="st6" d="M84.6,655.5c0,0.1,0,0.3,0,0.4c0,0,0.1,0,0.1,0C84.6,655.8,84.6,655.7,84.6,655.5z"/>
			<path class="st7" d="M81.9,711.5c0.4,0,0.8,0,1.2-0.1c3.2,6.9,9.5,11.6,16.9,11.6c6.4,0,12.1-3.6,15.6-9.1c2,2.7,5.1,4.3,8.4,4.3
				c6,0,10.9-5.4,11.2-12.1c8-1.9,13.9-10,13.8-19.6c0-0.5,0-1.1-0.1-1.6c-3.2-5.8-8.8-9.6-15.3-9.6c-2.5,0-4.9,0.6-7,1.6
				c-3.8-9.1-12-15.4-21.5-15.4c-12.2,0-22.2,10.3-23.6,23.7c0,0.1,0,0.3,0.1,0.4c0,0-0.1,0-0.1,0c-0.1,0.9-0.1,1.9-0.1,2.8
				c0,2,0.2,4,0.6,5.9c-4.9,0.2-9,3.8-10.6,8.7C72.8,708,77,711.5,81.9,711.5z"/>
		</g>
	</g>
	<g>
		<g>
			<path class="st6" d="M210.3,638.1c0,0.2,0,0.3-0.1,0.5c0,0,0.1,0,0.1,0C210.3,638.5,210.3,638.3,210.3,638.1z"/>
			<path class="st7" d="M297.5,637.8c-4.1-7.5-11.4-12.5-19.8-12.5c-3.2,0-6.3,0.7-9.1,2.1c-4.9-11.8-15.5-19.9-27.8-19.9
				c-15.7,0-28.7,13.4-30.5,30.6c0,0.2,0.1,0.3,0.1,0.5c0,0-0.1,0-0.1,0c-0.1,1.2-0.2,2.4-0.2,3.6c0,2.6,0.3,5.2,0.8,7.7
				c-6.3,0.3-11.7,4.9-13.8,11.3c2.1,6.4,7.5,11,13.9,11c0.5,0,1,0,1.5-0.1c4.1,8.9,12.3,15,21.9,15c0,0,0.1,0,0.1,0
				c-0.1,3.1,0,6.2,0.3,9.2c0.6,5.9,2.2,11.5,4.2,17.1c2.3,6.4,4.7,13.4,0,19.3c-5.8,7.4-15.8,11.3-16.1,22
				c-0.3,10.1,10,17.7,19.2,12.7c3-1.6,0.3-6.2-2.7-4.6c-5,2.7-10.4-1.1-11.1-6.3c-0.6-4.8,2.1-8.5,5.4-11.6
				c5.9-5.6,13-10.2,13.4-19.1c0.2-5.3-1.7-10.3-3.5-15.1c-1.8-5.1-3.2-10.3-3.7-15.7c-0.3-2.9-0.3-5.8-0.1-8.7
				c6-1.6,11.2-5.6,14.6-11.1c2.6,3.4,6.5,5.6,10.9,5.6c7.8,0,14.1-6.9,14.4-15.6c10.3-2.5,18-12.9,17.8-25.4
				C297.6,639.2,297.5,638.5,297.5,637.8z"/>
		</g>
		<ellipse class="st7" cx="258.6" cy="625.5" rx="12.1" ry="13.6"/>
	</g>
	<g>
		<path class="st5" d="M340.4,695.4c0-11.7-8.4-21.2-18.8-21.2c-2.6,0-5.1,0.6-7.3,1.7c-4-9.5-12.5-16.1-22.4-16.1
			c-13.7,0-24.8,12.5-24.8,28c0,2.1,0.2,4.2,0.6,6.2c-6.6,0.3-11.9,6.4-11.9,14c0,7.7,5.5,14,12.4,14c0.4,0,0.8,0,1.3-0.1
			c3.4,7.4,10.3,12.5,18.2,12.5c6.9,0,13.1-3.9,16.8-9.9c2.2,2.9,5.5,4.7,9.1,4.7c6.5,0,11.7-5.8,12-13
			C334,714.1,340.4,705.5,340.4,695.4z"/>
		<path class="st8" d="M275,699.9c0-3.5-2.9-6.3-6.5-6.3c-0.9,0-1.8,0.2-2.5,0.5c-1.4-2.8-4.3-4.8-7.8-4.8c-4.7,0-8.6,3.7-8.6,8.4
			c0,0.6,0.1,1.2,0.2,1.8c-2.3,0.1-4.1,1.9-4.1,4.2c0,2.3,1.9,4.2,4.3,4.2c0.1,0,0.3,0,0.4,0c1.2,2.2,3.6,3.7,6.3,3.7
			c2.4,0,4.5-1.2,5.8-2.9c0.8,0.9,1.9,1.4,3.1,1.4c2.2,0,4.1-1.7,4.2-3.9C272.8,705.5,275,703,275,699.9z"/>
		<path class="st8" d="M231.5,678.2c0-2.4-2.3-4.4-5-4.4c-0.7,0-1.4,0.1-2,0.3c-1.1-2-3.4-3.4-6-3.4c-3.7,0-6.7,2.6-6.7,5.9
			c0,0.4,0.1,0.9,0.2,1.3c-1.8,0.1-3.2,1.3-3.2,2.9c0,1.6,1.5,2.9,3.3,2.9c0.1,0,0.2,0,0.3,0c0.9,1.6,2.8,2.6,4.9,2.6
			c1.9,0,3.5-0.8,4.5-2.1c0.6,0.6,1.5,1,2.4,1c1.7,0,3.2-1.2,3.2-2.7C229.8,682.2,231.5,680.4,231.5,678.2z"/>
		<g>
			<path class="st6" d="M262.2,673.2c0,0.1,0,0.3,0,0.4c0,0,0.1,0,0.1,0C262.3,673.5,262.2,673.4,262.2,673.2z"/>
			<path class="st7" d="M332.4,673c-3.3-6-9.2-10-15.9-10c-2.6,0-5.1,0.6-7.3,1.7c-4-9.5-12.5-16.1-22.4-16.1
				c-12.7,0-23.1,10.8-24.6,24.7c0,0.1,0,0.3,0.1,0.4c0,0-0.1,0-0.1,0c-0.1,1-0.1,1.9-0.1,2.9c0,2.1,0.2,4.2,0.6,6.2
				c-5.1,0.2-9.4,3.9-11.1,9.1c1.7,5.2,6.1,8.8,11.2,8.8c0.4,0,0.8,0,1.2-0.1c1.9,4.2,5,7.6,8.7,9.7c-5.8,7.5-8.1,17.2-6.3,26.6
				c1,5,3.2,9.4,6.2,13.4c3.5,4.7,8.7,10.2,5.5,16.4c-2.6,5-7.7,8.2-10,13.5c-1.9,4.4-1.5,9.3,2,12.7c3.6,3.5,9.8,4.1,12.4,8.7
				c3.5,6.1-1,13.3-7.9,13.5c-3.4,0.1-3.4,5.5,0,5.3c10.9-0.4,18.1-11.8,12.5-21.6c-2.8-5-8-5.9-12.3-9c-6.7-5,1.4-12.2,4.9-16.4
				c3.2-3.9,5.5-8.4,4.5-13.5c-1.2-6-5.9-10.3-9-15.2c-6.4-10-5.1-23.7,2.8-32.5c1.2,0.2,2.4,0.4,3.6,0.4c6.7,0,12.6-3.8,16.2-9.5
				c2.1,2.8,5.3,4.5,8.8,4.5c6.3,0,11.4-5.6,11.6-12.6c8.3-2,14.5-10.4,14.3-20.4C332.5,674.1,332.5,673.5,332.4,673z"/>
		</g>
	</g>
	<g>
		<path class="st5" d="M221,658.1c0-11.7-8.4-21.2-18.8-21.2c-2.6,0-5.1,0.6-7.3,1.7c-4-9.5-12.5-16.1-22.4-16.1
			c-13.7,0-24.8,12.5-24.8,28c0,2.1,0.2,4.2,0.6,6.2c-6.6,0.3-11.9,6.4-11.9,14c0,7.7,5.5,14,12.4,14c0.4,0,0.8,0,1.3-0.1
			c3.4,7.4,10.3,12.5,18.2,12.5c6.9,0,13.1-3.9,16.8-9.9c2.2,2.9,5.5,4.7,9.1,4.7c6.5,0,11.7-5.8,12-13
			C214.7,676.8,221,668.2,221,658.1z"/>
		<path class="st8" d="M172.4,695.9c0-3.5-2.9-6.3-6.5-6.3c-0.9,0-1.8,0.2-2.5,0.5c-1.4-2.8-4.3-4.8-7.8-4.8c-4.7,0-8.6,3.7-8.6,8.4
			c0,0.6,0.1,1.2,0.2,1.8c-2.3,0.1-4.1,1.9-4.1,4.2c0,2.3,1.9,4.2,4.3,4.2c0.1,0,0.3,0,0.4,0c1.2,2.2,3.6,3.7,6.3,3.7
			c2.4,0,4.5-1.2,5.8-2.9c0.8,0.9,1.9,1.4,3.1,1.4c2.2,0,4.1-1.7,4.2-3.9C170.2,701.5,172.4,698.9,172.4,695.9z"/>
		<path class="st8" d="M125.7,736.6c0-2.4-2.3-4.4-5-4.4c-0.7,0-1.4,0.1-2,0.3c-1.1-2-3.4-3.4-6-3.4c-3.7,0-6.7,2.6-6.7,5.9
			c0,0.4,0.1,0.9,0.2,1.3c-1.8,0.1-3.2,1.3-3.2,2.9c0,1.6,1.5,2.9,3.3,2.9c0.1,0,0.2,0,0.3,0c0.9,1.6,2.8,2.6,4.9,2.6
			c1.9,0,3.5-0.8,4.5-2.1c0.6,0.6,1.5,1,2.4,1c1.7,0,3.2-1.2,3.2-2.7C124,740.5,125.7,738.7,125.7,736.6z"/>
		<g>
			<path class="st6" d="M142.8,635.9c0,0.1,0,0.3,0,0.4c0,0,0.1,0,0.1,0C142.9,636.2,142.9,636.1,142.8,635.9z"/>
			<path class="st7" d="M149.1,672.3c0.4,0,0.8,0,1.2-0.1c3.3,7.2,9.9,12.1,17.6,12.1c6.7,0,12.6-3.8,16.2-9.5
				c2.1,2.8,5.3,4.5,8.8,4.5c6.3,0,11.4-5.6,11.6-12.6c8.3-2,14.5-10.4,14.3-20.4c0-0.6,0-1.1-0.1-1.7c-3.3-6-9.2-10-15.9-10
				c-2.6,0-5.1,0.6-7.3,1.7c-4-9.5-12.5-16.1-22.4-16.1c-12.7,0-23.1,10.8-24.6,24.7c0,0.1,0,0.3,0.1,0.4c0,0-0.1,0-0.1,0
				c-0.1,1-0.1,1.9-0.1,2.9c0,2.1,0.2,4.2,0.6,6.2c-5.1,0.2-9.4,3.9-11.1,9.1C139.5,668.6,143.9,672.3,149.1,672.3z"/>
		</g>
	</g>
	<g id="Strings_Leaves">
		<path class="st7" d="M178.6,678.3c-8.5,4.5-12.1,14.2-12.3,23.4c-0.1,6.1,1.1,12.2,2,18.2c1.1,7.3,1,14.4,0,21.7
			c-1.8,13.2-3.8,25.9-3.6,39.3c0.2,13.7,1.2,27.4,1.9,41c0.8,15.6,1.6,31.3,2.4,46.9c0.2,3.4,5.5,3.4,5.3,0
			c-1.3-26.1-2.8-52.3-4-78.4c-0.6-12.8-0.4-25.3,1.6-38c1-6,2-12.1,2.4-18.2c0.4-6-0.3-12-1.3-17.9c-1.7-11.2-3.9-27.1,8.2-33.5
			C184.3,681.3,181.6,676.7,178.6,678.3z"/>
		<path class="st7" d="M107.3,707.4c-6.1,6.4-9.7,14.7-10.3,23.5c-0.3,4.3,0.3,8.7,1.5,12.9c1.5,5.2,4.3,10.4,4,15.9
			c-0.3,5-3.1,9.5-4.4,14.2c-1.3,4.4-1.9,9.1-1.7,13.7c0.2,9.3,3.2,18.3,8.5,25.9c2,2.8,6.6,0.1,4.6-2.7c-5-7.2-7.8-15.6-7.8-24.4
			c0-4.6,0.8-9,2.3-13.3c1.4-4,3.3-7.8,3.8-12.1c1-9.1-4.9-17.1-5.4-26.1c-0.4-8.8,2.7-17.3,8.8-23.7
			C113.5,708.7,109.7,704.9,107.3,707.4z"/>
		<g>
			<g>
				<g>
					<path class="st9" d="M108.9,823.4c0,0-3.1,0.6-5.1-3c-2.1-3.6-1.4-3.7-1.4-3.7s5.1,0.1,6,2.9S108.9,823.4,108.9,823.4z"/>
				</g>
				<g>
					<path class="st9" d="M105.9,819.8c0,0-3.2-1.3-2.9-6c0.3-4.7,0.9-4.3,0.9-4.3s4.7,3.2,3.8,6.4
						C106.8,819,105.9,819.8,105.9,819.8z"/>
				</g>
				<g>
					<path class="st9" d="M105.3,813c0,0-2.5-0.2-3.3-3.5c-0.8-3.3-0.3-3.2-0.3-3.2s3.9,1.2,4,3.5C105.7,812.2,105.3,813,105.3,813z
						"/>
				</g>
				<g>
					<path class="st9" d="M96.6,809.4c0,0-1.2-4,3.5-7.3s4.8-2.3,4.8-2.3s0.5,6.8-3.2,8.4S96.6,809.4,96.6,809.4z"/>
				</g>
				<g>
					<path class="st9" d="M98.9,803.5c0,0-1.8-1.9-0.3-5c1.6-3.2,1.9-2.7,1.9-2.7s2.3,3.6,0.8,5.5C99.8,803.2,98.9,803.5,98.9,803.5
						z"/>
				</g>
				<g>
					<path class="st9" d="M100,801.9c0,0-4.6-1.9-4.1-8.6c0.5-6.7,1.4-6.2,1.4-6.2s6.6,4.6,5.3,9.2C101.4,800.8,100,801.9,100,801.9
						z"/>
				</g>
				<g>
					<path class="st9" d="M94.4,791.4c0,0-0.1-3,3.7-4.4c3.8-1.4,3.7-0.7,3.7-0.7s-0.9,4.8-3.7,5.2
						C95.3,791.9,94.4,791.4,94.4,791.4z"/>
				</g>
				<g>
					<path class="st9" d="M91.2,784.2c0,0,2.1-4.3,8.6-3.5c6.5,0.8,5.9,1.7,5.9,1.7s-4.9,6.2-9.2,4.7S91.2,784.2,91.2,784.2z"/>
				</g>
				<g>
					<path class="st9" d="M95.5,784.7c0,0-2.5-4,1.6-8.9s4.5-4,4.5-4s2.5,7.3-1,10C97.2,784.7,95.5,784.7,95.5,784.7z"/>
				</g>
				<g>
					<path class="st9" d="M99.1,780.2c0,0-4-2.5-2.5-8.7s2.3-5.5,2.3-5.5s5.5,5.4,3.5,9.4S99.1,780.2,99.1,780.2z"/>
				</g>
				<g>
					<path class="st9" d="M102.5,771.5c0,0-2.8,0.1-4.1-3.4c-1.3-3.5-0.7-3.5-0.7-3.5s4.5,0.8,4.9,3.4S102.5,771.5,102.5,771.5z"/>
				</g>
				<g>
					<path class="st9" d="M96.6,766.5c0,0-0.3-4.3,5.1-6.6s5.4-1.3,5.4-1.3s-1,7-5,7.8C98,767.1,96.6,766.5,96.6,766.5z"/>
				</g>
				<g>
					<path class="st9" d="M101.3,762.3c0,0-1.8-2.9,1.2-6.4c3-3.5,3.3-2.8,3.3-2.8s1.8,5.3-0.8,7.3
						C102.5,762.3,101.3,762.3,101.3,762.3z"/>
				</g>
				<g>
					<path class="st9" d="M101.3,754.1c0,0,0-2.2,2.9-3.1c2.8-0.9,2.8-0.4,2.8-0.4s-0.8,3.5-2.9,3.7
						C102,754.5,101.3,754.1,101.3,754.1z"/>
				</g>
				<g>
					<path class="st9" d="M98.1,750.3c0,0,0.1-4.3,5.7-6s5.5-0.8,5.5-0.8s-1.7,6.9-5.8,7.2S98.1,750.3,98.1,750.3z"/>
				</g>
				<g>
					<path class="st9" d="M102.1,745c0,0-1.4-1.6,0-4c1.4-2.5,1.7-2.1,1.7-2.1s1.7,3,0.4,4.5C102.8,744.8,102.1,745,102.1,745z"/>
				</g>
				<g>
					<path class="st9" d="M105.2,742.1c0,0-4.2,0.2-6.3-5s-1.2-5.2-1.2-5.2s6.7,1,7.4,5S105.2,742.1,105.2,742.1z"/>
				</g>
				<g>
					<path class="st9" d="M96.4,735.6c0,0-0.9-3.7,3.4-6.5c4.3-2.8,4.4-2,4.4-2s0.2,6.2-3.2,7.5C97.6,735.9,96.4,735.6,96.4,735.6z"
						/>
				</g>
				<g>
					<path class="st9" d="M98.5,729.5c0,0-1.2-2.1,0.9-4.6c2.2-2.5,2.4-2,2.4-2s1.3,3.8-0.6,5.2C99.4,729.4,98.5,729.5,98.5,729.5z"
						/>
				</g>
				<g>
					<path class="st9" d="M94.7,723.4c0,0,0.3-4,5.5-5.2s5.1-0.4,5.1-0.4s-1.9,6.2-5.7,6.3C95.8,724.2,94.7,723.4,94.7,723.4z"/>
				</g>
			</g>
		</g>
		<g>
			<g>
				<g>
					<path class="st9" d="M162.2,873c0,0-0.8-4.4,4.4-7.4c5.3-3,5.4-2,5.4-2s-0.2,7.3-4.2,8.6S162.2,873,162.2,873z"/>
				</g>
				<g>
					<path class="st9" d="M163.4,866c0,0-0.3-3.2,3.8-5c4-1.7,4-1,4-1s-0.7,5.2-3.7,5.9S163.4,866,163.4,866z"/>
				</g>
				<g>
					<path class="st9" d="M172.4,863.5c0,0-4.8,1-8.1-4.7c-3.3-5.6-2.3-5.8-2.3-5.8s7.9,0.1,9.4,4.4
						C172.9,861.9,172.4,863.5,172.4,863.5z"/>
				</g>
				<g>
					<path class="st9" d="M166.6,858.7c0,0-3.2-2.6-1.2-7.7c1.9-5.2,2.6-4.5,2.6-4.5s4.2,5.2,2.1,8.5
						C167.9,858.2,166.6,858.7,166.6,858.7z"/>
				</g>
				<g>
					<path class="st9" d="M170,850.5c0,0-2.4,0-3.5-3.1c-1.1-3.1-0.6-3.1-0.6-3.1s3.9,0.8,4.2,3.1C170.4,849.7,170,850.5,170,850.5z
						"/>
				</g>
				<g>
					<path class="st9" d="M165,844.2c0,0,0.3-3.3,4.6-4.3s4.2-0.3,4.2-0.3s-1.6,5.1-4.7,5.2C166,844.9,165,844.2,165,844.2z"/>
				</g>
				<g>
					<path class="st9" d="M171.3,841c0,0-2.5-1-2.3-4.5c0.2-3.6,0.7-3.3,0.7-3.3s3.6,2.4,3,4.8C172,840.4,171.3,841,171.3,841z"/>
				</g>
				<g>
					<path class="st9" d="M168.3,835.4c0,0-1.5-2.3,0.8-5.2s2.6-2.4,2.6-2.4s1.6,4.2-0.4,5.9C169.3,835.3,168.3,835.4,168.3,835.4z"
						/>
				</g>
				<g>
					<path class="st9" d="M165.5,830c0,0-0.8-3.6,3.5-6.1c4.3-2.5,4.4-1.7,4.4-1.7s0,6-3.3,7.1S165.5,830,165.5,830z"/>
				</g>
				<g>
					<path class="st9" d="M170.2,825.7c0,0-3-1-3-5.3c0-4.3,0.6-4,0.6-4s4.4,2.6,3.8,5.6C171,825,170.2,825.7,170.2,825.7z"/>
				</g>
				<g>
					<path class="st9" d="M165.2,820.7c0,0-1.7-3.7,2.3-7.4c4-3.7,4.3-2.9,4.3-2.9s1.4,6.5-1.9,8.5
						C166.6,820.8,165.2,820.7,165.2,820.7z"/>
				</g>
				<g>
					<path class="st9" d="M168.8,815.5c0,0-3.1-1.4-2.6-6c0.5-4.5,1.1-4.2,1.1-4.2s4.4,3.3,3.4,6.4S168.8,815.5,168.8,815.5z"/>
				</g>
				<g>
					<path class="st9" d="M168.1,812.3c0,0-4.2-2.3-3.1-8.6s1.9-5.8,1.9-5.8s5.9,5,4.3,9.2S168.1,812.3,168.1,812.3z"/>
				</g>
				<g>
					<path class="st9" d="M162.4,801.3c0,0,0.7-3.4,5.4-4c4.7-0.5,4.5,0.2,4.5,0.2s-2.3,5.2-5.7,4.9S162.4,801.3,162.4,801.3z"/>
				</g>
				<g>
					<path class="st9" d="M171.4,800.1c0,0-4.6,0.6-7.3-5.1c-2.7-5.7-1.7-5.7-1.7-5.7s7.6,0.7,8.6,5
						C172,798.6,171.4,800.1,171.4,800.1z"/>
				</g>
				<g>
					<path class="st9" d="M160.8,792.7c0,0-0.2-4.6,5.6-6.8c5.8-2.2,5.7-1.2,5.7-1.2s-1.3,7.3-5.6,8
						C162.2,793.4,160.8,792.7,160.8,792.7z"/>
				</g>
				<g>
					<path class="st9" d="M162.5,790.4c0,0-2.6-4.3,1.7-9.5s4.8-4.2,4.8-4.2s2.7,7.8-1,10.7C164.3,790.4,162.5,790.4,162.5,790.4z"
						/>
				</g>
				<g>
					<path class="st9" d="M170.5,784.8c0,0-4.9,0.1-7.2-6c-2.3-6.2-1.2-6.1-1.2-6.1s7.8,1.4,8.5,6
						C171.3,783.3,170.5,784.8,170.5,784.8z"/>
				</g>
				<g>
					<path class="st9" d="M161.1,774c0,0,1.5-3.8,7.1-3.6s5.2,1.1,5.2,1.1s-3.7,5.6-7.5,4.6C162,775.1,161.1,774,161.1,774z"/>
				</g>
				<g>
					<path class="st9" d="M164.5,767.8c0,0,1.1-2.1,4.3-1.5c3.1,0.6,2.8,1,2.8,1s-2.5,2.9-4.6,2
						C164.9,768.5,164.5,767.8,164.5,767.8z"/>
				</g>
				<g>
					<path class="st9" d="M171.7,766.9c0,0-2.9-0.3-3.8-4.2c-0.9-3.9-0.3-3.8-0.3-3.8s4.6,1.5,4.6,4.3
						C172.3,766,171.7,766.9,171.7,766.9z"/>
				</g>
				<g>
					<path class="st9" d="M166.2,759.8c0,0,0.7-3.9,5.9-4.7c5.3-0.8,5,0,5,0s-2.4,6-6.1,5.8C167.2,760.7,166.2,759.8,166.2,759.8z"
						/>
				</g>
				<g>
					<path class="st9" d="M171,759.6c0,0-3.1-3.6,0.3-9.1c3.3-5.5,3.9-4.6,3.9-4.6s3.6,6.8,0.5,10.1S171,759.6,171,759.6z"/>
				</g>
				<g>
					<path class="st9" d="M174.7,753.4c0,0-3.7-1.5-3.4-6.8c0.3-5.3,1-5,1-5s5.4,3.6,4.4,7.2C175.7,752.6,174.7,753.4,174.7,753.4z"
						/>
				</g>
				<g>
					<path class="st9" d="M170.7,744.3c0,0-0.2-2.6,3.1-4c3.3-1.4,3.3-0.8,3.3-0.8s-0.6,4.3-3.1,4.7S170.7,744.3,170.7,744.3z"/>
				</g>
				<g>
					<path class="st9" d="M173.5,739.6c0,0-1.3-1.4-0.1-3.7s1.5-2,1.5-2s1.7,2.7,0.5,4.1C174.2,739.4,173.5,739.6,173.5,739.6z"/>
				</g>
				<g>
					<path class="st9" d="M170.9,734.3c0,0-0.7-2.6,2.3-4.5s3.1-1.4,3.1-1.4s0.2,4.3-2.1,5.3C171.8,734.5,170.9,734.3,170.9,734.3z"
						/>
				</g>
				<g>
					<path class="st9" d="M168.6,729.8c0,0-0.6-3.8,3.9-6.2c4.5-2.4,4.6-1.6,4.6-1.6s-0.3,6.2-3.8,7.2
						C169.8,730.3,168.6,729.8,168.6,729.8z"/>
				</g>
				<g>
					<path class="st9" d="M174.1,728c0,0-4.6-1.3-5-7.8s0.6-6.1,0.6-6.1s7,3.6,6.3,8.2C175.3,726.8,174.1,728,174.1,728z"/>
				</g>
				<g>
					<path class="st9" d="M169.8,719.5c0,0-1.6-2.5,1-5.6c2.6-3.1,2.8-2.5,2.8-2.5s1.6,4.6-0.6,6.3
						C170.8,719.5,169.8,719.5,169.8,719.5z"/>
				</g>
				<g>
					<path class="st9" d="M164.9,710.4c0,0,2.3-4.3,8.9-3.3c6.5,1.1,6,2,6,2s-5.2,6.1-9.5,4.4C165.8,711.9,164.9,710.4,164.9,710.4z
						"/>
				</g>
				<g>
					<path class="st9" d="M170.6,707.2c0,0-0.6-2,1.8-3.7c2.4-1.6,2.4-1.2,2.4-1.2s0.3,3.5-1.6,4.2
						C171.3,707.4,170.6,707.2,170.6,707.2z"/>
				</g>
				<g>
					<path class="st9" d="M168.5,699.2c0,0,1.7-2.6,5.8-1.5c4,1.1,3.6,1.6,3.6,1.6s-3.6,3.5-6.2,2.2
						C169,700.2,168.5,699.2,168.5,699.2z"/>
				</g>
				<g>
					<path class="st9" d="M177.7,699.9c0,0-3.6-0.5-4.5-5.3c-0.9-4.8-0.2-4.6-0.2-4.6s5.6,2,5.5,5.4
						C178.4,698.9,177.7,699.9,177.7,699.9z"/>
				</g>
				<g>
					<path class="st9" d="M174.7,693.9c0,0-1.2-3.1,2.3-6.1c3.5-2.9,3.7-2.2,3.7-2.2s0.9,5.4-2,6.9
						C175.8,694.1,174.7,693.9,174.7,693.9z"/>
				</g>
				<g>
					<path class="st9" d="M180.7,689.7c0,0-2.8-1.2-2.5-5.2s0.9-3.8,0.9-3.8s4.1,2.8,3.3,5.6C181.5,689,180.7,689.7,180.7,689.7z"/>
				</g>
				<g>
					<path class="st9" d="M175.6,681.6c0,0,1.3-4.3,7.3-4.4c6-0.2,5.6,0.7,5.6,0.7s-3.5,6.3-7.7,5.6
						C176.7,682.7,175.6,681.6,175.6,681.6z"/>
				</g>
			</g>
		</g>
		<g>
			<g>
				<g>
					<path class="st9" d="M244.7,776.1c0,0-2.5-0.9-2.4-4.5c0.1-3.5,0.6-3.3,0.6-3.3s3.6,2.3,3.1,4.7S244.7,776.1,244.7,776.1z"/>
				</g>
				<g>
					<path class="st9" d="M240.6,770.6c0,0-1.3-2.2,1-4.7c2.3-2.5,2.5-2.1,2.5-2.1s1.2,3.9-0.7,5.4S240.6,770.6,240.6,770.6z"/>
				</g>
				<g>
					<path class="st9" d="M236.1,770.1c0,0-1.9-2.4,0.3-5.8c2.2-3.4,2.6-2.9,2.6-2.9s2.2,4.4,0.2,6.4
						C237.1,769.9,236.1,770.1,236.1,770.1z"/>
				</g>
				<g>
					<path class="st9" d="M228.4,768.7c0,0-1.6-4.4,3.4-8.3c5-3.9,5.2-2.9,5.2-2.9s1,7.6-3,9.6C230,769,228.4,768.7,228.4,768.7z"/>
				</g>
				<g>
					<path class="st9" d="M226,761.6c0,0,0.1-2.5,3.4-3.5c3.3-0.9,3.2-0.4,3.2-0.4s-1.1,4-3.5,4.2C226.7,762,226,761.6,226,761.6z"
						/>
				</g>
				<g>
					<path class="st9" d="M229.2,758c0,0-2.2-0.3-2.8-3.4c-0.5-3-0.1-2.9-0.1-2.9s3.5,1.3,3.4,3.5C229.7,757.3,229.2,758,229.2,758z
						"/>
				</g>
				<g>
					<path class="st9" d="M224.3,750.4c0,0,0.8-2.5,4.5-2.6c3.6,0,3.4,0.5,3.4,0.5s-2.2,3.8-4.7,3.3
						C224.9,751.1,224.3,750.4,224.3,750.4z"/>
				</g>
				<g>
					<path class="st9" d="M223.3,745.3c0,0,1.6-4,7.3-3.7c5.8,0.3,5.3,1.1,5.3,1.1s-3.9,5.8-7.8,4.8
						C224.3,746.5,223.3,745.3,223.3,745.3z"/>
				</g>
				<g>
					<path class="st9" d="M228.8,743.4c0,0-0.7-3.3,3.3-5.6c4-2.3,4.1-1.6,4.1-1.6s-0.1,5.5-3.1,6.6S228.8,743.4,228.8,743.4z"/>
				</g>
				<g>
					<path class="st9" d="M236.5,739.3c0,0-2.4-0.8-2.4-4.1c0-3.4,0.5-3.1,0.5-3.1s3.5,2.1,3,4.4
						C237.1,738.7,236.5,739.3,236.5,739.3z"/>
				</g>
				<g>
					<path class="st9" d="M243.1,736.2c0,0-4.4,0.9-7.5-4.3s-2.1-5.4-2.1-5.4s7.4,0,8.7,4.1S243.1,736.2,243.1,736.2z"/>
				</g>
				<g>
					<path class="st9" d="M235.8,725.5c0,0,2.2-2.8,6.7-1.1c4.5,1.7,4,2.2,4,2.2s-4.5,3.6-7.4,1.8
						C236.3,726.7,235.8,725.5,235.8,725.5z"/>
				</g>
				<g>
					<path class="st9" d="M240.7,726.4c0,0-3-1.7-2.1-6.3c0.9-4.6,1.5-4.1,1.5-4.1s4.2,3.8,2.9,6.8
						C241.7,725.8,240.7,726.4,240.7,726.4z"/>
				</g>
				<g>
					<path class="st9" d="M242.5,719.5c0,0-2.8,0.1-4.2-3.4s-0.7-3.5-0.7-3.5s4.5,0.8,4.9,3.4C243,718.6,242.5,719.5,242.5,719.5z"
						/>
				</g>
				<g>
					<path class="st9" d="M236.9,715.5c0,0-2-2.9,0.8-6.8c2.9-3.9,3.3-3.2,3.3-3.2s2.2,5.4-0.3,7.6
						C238.2,715.4,236.9,715.5,236.9,715.5z"/>
				</g>
				<g>
					<path class="st9" d="M234.4,704.9c0,0,1.4-2,4.6-1.1c3.2,0.9,2.8,1.4,2.8,1.4s-3,2.7-5,1.6S234.4,704.9,234.4,704.9z"/>
				</g>
				<g>
					<path class="st9" d="M233.6,700.9c0,0,0.7-2.2,3.7-2.3s2.9,0.3,2.9,0.3s-1.8,3.2-3.9,2.9S233.6,700.9,233.6,700.9z"/>
				</g>
				<g>
					<path class="st9" d="M238.8,698.6c0,0-3,0.3-4.6-3.5c-1.6-3.7-1-3.7-1-3.7s4.9,0.6,5.4,3.4
						C239.3,697.7,238.8,698.6,238.8,698.6z"/>
				</g>
				<g>
					<path class="st9" d="M238.1,691.8c0,0-1.9,0.4-3.2-2c-1.3-2.3-0.9-2.4-0.9-2.4s3.2,0.1,3.8,1.9
						C238.4,691.2,238.1,691.8,238.1,691.8z"/>
				</g>
				<g>
					<path class="st9" d="M232.2,687.5c0,0-0.6-3.3,3.4-5.5s4.1-1.5,4.1-1.5s-0.2,5.5-3.3,6.5S232.2,687.5,232.2,687.5z"/>
				</g>
				<g>
					<path class="st9" d="M230.3,681.6c0,0,0.3-4.2,5.8-5.7s5.4-0.6,5.4-0.6s-1.9,6.7-5.9,6.9C231.5,682.4,230.3,681.6,230.3,681.6z
						"/>
				</g>
			</g>
		</g>
		<g>
			<g>
				<g>
					<path class="st9" d="M273.8,827.6c0,0-1.9-2.9,1-6.7c2.9-3.7,3.3-3.1,3.3-3.1s2.1,5.3-0.5,7.5
						C275.1,827.5,273.8,827.6,273.8,827.6z"/>
				</g>
				<g>
					<path class="st9" d="M275.7,818.6c0,0,1.6-2.3,5.1-1.3c3.6,1,3.2,1.5,3.2,1.5s-3.2,3.1-5.5,1.9
						C276.1,819.5,275.7,818.6,275.7,818.6z"/>
				</g>
				<g>
					<path class="st9" d="M276.9,814.4c0,0,1-2.5,4.6-2.3c3.6,0.2,3.4,0.7,3.4,0.7s-2.4,3.7-4.9,3
						C277.5,815.1,276.9,814.4,276.9,814.4z"/>
				</g>
				<g>
					<path class="st9" d="M281.5,811.8c0,0-1.9-0.8-1.7-3.7c0.2-2.8,0.6-2.6,0.6-2.6s2.8,2,2.2,3.9
						C282.1,811.3,281.5,811.8,281.5,811.8z"/>
				</g>
				<g>
					<path class="st9" d="M274.9,807.4c0,0-0.7-4.3,4.5-7c5.2-2.7,5.3-1.8,5.3-1.8s-0.4,7.1-4.4,8.2
						C276.3,808,274.9,807.4,274.9,807.4z"/>
				</g>
				<g>
					<path class="st9" d="M275.1,798.9c0,0,0.8-2.5,4.3-2.5c3.5,0,3.3,0.5,3.3,0.5s-2.1,3.7-4.6,3.2
						C275.7,799.5,275.1,798.9,275.1,798.9z"/>
				</g>
				<g>
					<path class="st9" d="M278,799.6c0,0-3.9-1.9-3.2-7.7c0.7-5.8,1.5-5.3,1.5-5.3s5.6,4.3,4.3,8.2C279.3,798.7,278,799.6,278,799.6
						z"/>
				</g>
				<g>
					<path class="st9" d="M271,796.3c0,0-3-3.9,0.7-9.5s4.3-4.7,4.3-4.7s3.5,7.3,0.1,10.6C272.7,796.1,271,796.3,271,796.3z"/>
				</g>
				<g>
					<path class="st9" d="M274.7,788.3c0,0-2.9-0.1-4-3.7c-1.2-3.7-0.5-3.6-0.5-3.6s4.5,1.1,4.8,3.8
						C275.2,787.4,274.7,788.3,274.7,788.3z"/>
				</g>
				<g>
					<path class="st9" d="M272.7,783.1c0,0-0.9-2.5,1.9-4.8c2.8-2.2,3-1.7,3-1.7s0.6,4.3-1.7,5.5
						C273.6,783.2,272.7,783.1,272.7,783.1z"/>
				</g>
				<g>
					<path class="st9" d="M277.1,782.4c0,0-2.7-3.2,0.2-8c2.9-4.8,3.4-4.1,3.4-4.1s3.2,6,0.5,8.9S277.1,782.4,277.1,782.4z"/>
				</g>
				<g>
					<path class="st9" d="M281.8,775.1c0,0-1.5-1.4-0.4-3.8c1.1-2.5,1.4-2.1,1.4-2.1s1.9,2.7,0.7,4.2
						C282.4,774.9,281.8,775.1,281.8,775.1z"/>
				</g>
				<g>
					<path class="st9" d="M280.8,767.4c0,0,1.5-2.4,5.1-1.5c3.6,0.8,3.3,1.3,3.3,1.3s-3.1,3.3-5.5,2.1
						C281.3,768.2,280.8,767.4,280.8,767.4z"/>
				</g>
				<g>
					<path class="st9" d="M285.4,767c0,0-2.6-1.7-1.6-5.8c1-4.1,1.6-3.6,1.6-3.6s3.6,3.6,2.3,6.2C286.4,766.5,285.4,767,285.4,767z"
						/>
				</g>
				<g>
					<path class="st9" d="M285.1,761.5c0,0-2.6-1.3-2.1-5.1c0.5-3.8,1-3.5,1-3.5s3.7,2.9,2.8,5.5C286,760.9,285.1,761.5,285.1,761.5
						z"/>
				</g>
				<g>
					<path class="st9" d="M283.7,756.4c0,0-2.7-1-2.6-4.8c0.1-3.8,0.6-3.5,0.6-3.5s3.9,2.4,3.3,5
						C284.4,755.7,283.7,756.4,283.7,756.4z"/>
				</g>
				<g>
					<path class="st9" d="M278,750.8c0,0-1.1-2.6,1.7-5.1c2.8-2.5,3-1.9,3-1.9s0.9,4.5-1.4,5.8S278,750.8,278,750.8z"/>
				</g>
				<g>
					<path class="st9" d="M277.3,746.6c0,0-2-1.2-1.3-4.3s1.1-2.8,1.1-2.8s2.8,2.6,1.9,4.6S277.3,746.6,277.3,746.6z"/>
				</g>
				<g>
					<path class="st9" d="M272.4,742.1c0,0-1.3-2.2,0.9-4.8s2.4-2.2,2.4-2.2s1.4,3.9-0.5,5.4C273.3,742.1,272.4,742.1,272.4,742.1z"
						/>
				</g>
				<g>
					<path class="st9" d="M272.3,737c0,0-1.9-0.8-1.7-3.6c0.2-2.8,0.6-2.6,0.6-2.6s2.8,1.9,2.2,3.8C272.8,736.6,272.3,737,272.3,737
						z"/>
				</g>
				<g>
					<path class="st9" d="M274,734.8c0,0-4.7,0.7-7.6-4.9c-2.9-5.6-1.9-5.7-1.9-5.7s7.7,0.4,8.9,4.8
						C274.5,733.3,274,734.8,274,734.8z"/>
				</g>
				<g>
					<path class="st9" d="M268.1,731.3c0,0-3.8-2.9-1.8-9.1c2.1-6.2,2.8-5.5,2.8-5.5s5.1,6,2.8,9.9S268.1,731.3,268.1,731.3z"/>
				</g>
				<g>
					<path class="st9" d="M266.3,721.5c0,0-0.7-2.6,2.4-4.7c3.1-2,3.2-1.4,3.2-1.4s0.2,4.4-2.2,5.4S266.3,721.5,266.3,721.5z"/>
				</g>
				<g>
					<path class="st9" d="M266.5,719.6c0,0-2.1-4.3,2.5-8.7s4.9-3.5,4.9-3.5s1.8,7.5-1.9,9.9S266.5,719.6,266.5,719.6z"/>
				</g>
				<g>
					<path class="st9" d="M268,707.9c0,0,2.6-2.8,7.3-0.6c4.7,2.2,4.1,2.7,4.1,2.7s-5.2,3.5-8.1,1.4S268,707.9,268,707.9z"/>
				</g>
				<g>
					<path class="st9" d="M279,711c0,0-4.1-0.7-5-6.3c-0.9-5.6,0-5.4,0-5.4s6.3,2.5,6.1,6.5C279.9,709.8,279,711,279,711z"/>
				</g>
			</g>
		</g>
		<g>
			<g>
				<g>
					<path class="st9" d="M152.6,806.2c0,0-0.3-3.5,4-5.3c4.3-1.9,4.3-1.1,4.3-1.1s-0.7,5.6-4,6.3
						C153.7,806.7,152.6,806.2,152.6,806.2z"/>
				</g>
				<g>
					<path class="st9" d="M152.1,799.6c0,0,0.4-3.1,4.6-3.9c4.2-0.8,4-0.1,4-0.1s-1.8,4.8-4.8,4.7
						C153,800.3,152.1,799.6,152.1,799.6z"/>
				</g>
				<g>
					<path class="st9" d="M154.7,799.1c0,0-3.3-3-0.9-8.4c2.4-5.4,3-4.7,3-4.7s4.2,5.8,1.8,9.2C156.2,798.6,154.7,799.1,154.7,799.1
						z"/>
				</g>
				<g>
					<path class="st9" d="M151.8,789.1c0,0,0-2.3,3-3.3c3-1,2.9-0.5,2.9-0.5s-0.8,3.7-3,3.9C152.5,789.5,151.8,789.1,151.8,789.1z"
						/>
				</g>
				<g>
					<path class="st9" d="M156.3,786.3c0,0-3.3,0.3-5.1-3.7c-1.8-4.1-1.1-4.1-1.1-4.1s5.3,0.6,6,3.7
						C156.8,785.3,156.3,786.3,156.3,786.3z"/>
				</g>
				<g>
					<path class="st9" d="M146,778.3c0,0,1.2-3.7,6.5-3.7c5.3,0,4.9,0.7,4.9,0.7s-3.2,5.5-6.9,4.7C146.9,779.3,146,778.3,146,778.3z
						"/>
				</g>
				<g>
					<path class="st9" d="M143.1,776.9c0,0-0.5-4.6,5.2-7.3s5.7-1.6,5.7-1.6s-0.8,7.5-5.1,8.5S143.1,776.9,143.1,776.9z"/>
				</g>
				<g>
					<path class="st9" d="M141.8,769.1c0,0,0.8-2.5,4.4-2.6c3.6,0,3.4,0.5,3.4,0.5s-2.2,3.8-4.7,3.3
						C142.5,769.8,141.8,769.1,141.8,769.1z"/>
				</g>
				<g>
					<path class="st9" d="M144.3,769.3c0,0-3.6-0.9-4-5.9c-0.4-5,0.4-4.7,0.4-4.7s5.4,2.7,5,6.2
						C145.2,768.4,144.3,769.3,144.3,769.3z"/>
				</g>
				<g>
					<path class="st9" d="M132.7,761.9c0,0,0.9-4.9,7.5-5.8c6.6-0.9,6.3,0.1,6.3,0.1s-3.1,7.4-7.8,7.1
						C134,763,132.7,761.9,132.7,761.9z"/>
				</g>
				<g>
					<path class="st9" d="M137.2,761.8c0,0-4-2.4-2.6-8.5s2.2-5.5,2.2-5.5s5.5,5.2,3.7,9.2C138.6,761,137.2,761.8,137.2,761.8z"/>
				</g>
				<g>
					<path class="st9" d="M132.6,756.1c0,0-2.7-3.4,0.4-8.4c3.2-5,3.7-4.2,3.7-4.2s3.2,6.4,0.3,9.3
						C134.1,755.9,132.6,756.1,132.6,756.1z"/>
				</g>
				<g>
					<path class="st9" d="M128.2,748.8c0,0-0.7-3.8,3.8-6.3c4.5-2.5,4.6-1.7,4.6-1.7s-0.2,6.2-3.7,7.3
						C129.5,749.3,128.2,748.8,128.2,748.8z"/>
				</g>
				<g>
					<path class="st9" d="M126.4,740.6c0,0,1.1-2.3,4.5-2c3.5,0.4,3.2,0.8,3.2,0.8s-2.5,3.4-4.9,2.6
						C127,741.3,126.4,740.6,126.4,740.6z"/>
				</g>
				<g>
					<path class="st9" d="M127.2,740c0,0-2.3-1.9-0.8-5.7c1.5-3.8,1.9-3.3,1.9-3.3s3,3.8,1.4,6.2C128.2,739.6,127.2,740,127.2,740z"
						/>
				</g>
				<g>
					<path class="st9" d="M119.9,735.5c0,0-0.9-4.8,4.8-8.1c5.8-3.3,5.9-2.2,5.9-2.2s-0.2,8-4.6,9.4
						C121.6,736.1,119.9,735.5,119.9,735.5z"/>
				</g>
				<g>
					<path class="st9" d="M122.3,731.6c0,0-2.9-2.4-1.2-7.2c1.8-4.8,2.4-4.2,2.4-4.2s3.9,4.8,2,7.9
						C123.6,731.1,122.3,731.6,122.3,731.6z"/>
				</g>
			</g>
		</g>
	</g>
</g>
</svg>
