<?xml version="1.0" encoding="utf-8"?>
<!-- Generator: Adobe Illustrator 26.2.1, SVG Export Plug-In . SVG Version: 6.00 Build 0)  -->
<svg version="1.1" id="Layer_1" xmlns="http://www.w3.org/2000/svg" xmlns:xlink="http://www.w3.org/1999/xlink" x="0px" y="0px"
	 viewBox="0 0 428 2136.5" style="enable-background:new 0 0 428 2136.5;" xml:space="preserve">
<style type="text/css">
	.st0{opacity:0.78;}
	.st1{fill:#6D5341;}
	.st2{fill:#C19F87;}
	.st3{fill:#396D0A;}
	.st4{fill:#66A566;}
	.st5{fill:#316700;}
	.st6{fill:#458144;}
	.st7{fill:#4D7600;}
</style>
<g id="a">
	<g id="b" class="st0">
	</g>
</g>
<g id="c">
	<g id="d">
		<g>
			<path id="e" class="st1" d="M245.4,2075.2c0,0,6.1,15.6,14.1,20.8c9.3,5.9,1.5,6.4-3,5.8c-4.5-0.6-12.4-4.7-15.4-8.4
				s-56.1,12.3-63,12.9s-14.7,1.8-15.8-0.4s7.5-4.4,10.5-12.1c3-7.7,5.5-21.8,7.2-24.6C183.6,2063.5,245.4,2075.2,245.4,2075.2
				L245.4,2075.2z"/>
			<path class="st1" d="M257.2,2101.9c-2.9-3.6-5.8-6.5-8.6-9.1c-0.7-0.6-1.2-1.5-1.7-2.4c-0.2-2.8-0.4-5.4-0.4-5.4v-0.3
				c-0.6-11.5-0.7-34.5-1.9-52.4c-0.6-8.1-0.6-9.4-0.8-26.1c-4.1,4.9-10,5-15,7.1c-10.2,4.3-18.5,5.4-28.8,2.2
				c-6.3-2-14.4-2.6-19.1-10.6c0.7,12.4,0,17.5,0.1,26.4c0.1,4.2-0.2,11.3-0.4,15.5c-0.7,11.5-0.1,15.9-2.4,26.8
				c-0.5,2.9-0.9,5.9-1.2,8.9c-0.3,2.6-0.6,5.2-0.6,7.8c-0.3,2.4-0.6,5.5-0.8,8.8c-0.5,8.4-4.6,10.4-9.8,12.1
				c-5.1,1.7-7.5,4.1-7.5,4.1s-10.2,8.6-3,6.2c3.5-1.2,13.9-5.7,18.2-5.8s7.8,0.1,12.4-3.1c4.6-3.2,3.7-5.3,11-4.2
				c4.4,0.7,5.9,4.7,2.9,14.4c-2.8,8.8-0.7,15.1,3.2,14.2c1.4-0.3,6.3-16.3,13.4-22.6c2.1-1.8,2.8-2.6,5.9-4.3
				c4.2-2.3,7.4-0.5,14.4,4.6c5.4,3.9,6.8,6.1,9.1,7.8s4.7-1.4,1.9-5.4s-3.8-3.4-6.6-10.9s4.3-1.7,10,2.1c6.1,4,16.8,6,19.5,5.5
				C272.9,2113.2,260.2,2105.5,257.2,2101.9L257.2,2101.9z"/>
			<g id="f">
				<path class="st2" d="M230.7,2014.2c-6.2,2.2-12.6,3.6-18.9,4.2c-2.8,0-17.6-2.1-20.9-4.4c-4.3-2.9-10-7.9-10-9
					c-0.1-1.6,4-0.9,5.8-1.3c7.6-1.4,11.9-1.7,17.4-2.2c9.4-0.8,9-1.2,19.6,0c1.4,0.2,13.6,2,15.1,2.5c3.6,1.3,5,1.6,4.9,2.1
					c0,0.1,0,0.2-0.1,0.3c-3,3.9-9.6,6.2-13.1,7.9"/>
				<path class="st1" d="M214.4,2000.7c-2.7,0-4.9,0.3-10.1,0.8c-2.8,0.3-5.2,0.4-7.8,0.8c-2,0.6-4,1.2-6,2.1l-1.7,0.7
					c8.6,2.6,17.3,3.9,26,3.9h2.5c3.2-0.2,6.6,0.3,9.4-3c-4.5-1.4-9.1-2.1-13.7-2.2c-1.7,0-3.4,0.1-5,0.4h-0.4l0,0l5.1,1.1l-4.6-1.1
					h2.7c4.9-0.1,9.7,0.6,14.5,2c-2.5,2-5.4,1.5-8.1,1.7h-1.4c-2.5,0-5-0.1-7.5-0.3c-5.3-0.4-10.6-1.4-15.9-2.8
					c3.6-1.2,7.2-2.1,10.8-2.5c3.4-0.4,6.7-0.6,10.1-0.6c7.3,0,14.5,0.8,21.7,2.5c0.3,0.1,2.6,0.9,1.7,1.6c-9.1,2.7-21,7.2-32.1,7.2
					c-7.9,0-15.3-2.2-21-9c6,7.3,13.8,9.7,21.9,9.7c10.8,0,22.4-4.3,31.4-6.9c0.1-0.1,0.2-0.1,0.3-0.3c0.1-0.1,0.2-0.3,0.2-0.4
					c0.1-0.2,0.1-0.4,0.1-0.6s0-0.4,0-0.6c-0.2-0.5-0.4-0.9-0.7-1.1c-0.3-0.3-0.6-0.4-0.9-0.5c-4.2-0.8-11.1-1.8-12.1-2
					C219.1,2000.9,216.5,2000.7,214.4,2000.7L214.4,2000.7z"/>
			</g>
		</g>
	</g>
	<g id="g">
		<g>
			<path class="st1" d="M243.9,2017.5c0.1-6-0.1-12.5,0-19.4c0-1.2,0.3-1.8,0.1-10.5c0.2-5.3,0.3-11,0.3-11l0.2-16.1
				c-0.3-15.8-0.3-8.3,0-26.2c0.1-8.1,0-6.9-0.1-23.5c-4.1,4.9-6.2,5.7-11.1,7.8c-10.2,4.3-18.5,5.4-28.8,2.2c-6.3-2-15.7-3-20.4-11
				c-0.5,10.2-1.1,17.5-1.3,26.5c-0.1,5.3-0.6,10.6-0.6,14.8c-0.2,13.2-0.2,9.2-0.8,26.3c-0.1,3,0.3,7.5,0,10.5
				c-0.3,2.6-0.2,4.7-0.3,7.3c0.1,7.2,0,4.7-0.1,8c-0.1,9.2,0.3,12.7,0.4,19.3"/>
			<g id="h">
				<path class="st1" d="M232.5,1920c-6.2,2.2-11.3,2.8-17.6,3.4c-2.8,0-18.2-1.8-21.5-4.1c-4.3-2.9-9.4-8.2-9.4-9.3
					c-0.1-1.6,4-0.9,5.8-1.3c7.6-1.4,11.9-1.7,17.4-2.2c9.4-0.8,9-1.2,19.6,0c1.4,0.2,13.6,2,15.1,2.5c4.5,1.6,1.4,5.2,0.5,6.1
					c-3,3.9-5.2,2.5-8.8,4.2"/>
				<path class="st1" d="M217.4,1905.8c-2.7,0-4.9,0.3-10.1,0.8c-2.8,0.3-5.2,0.4-7.8,0.8c-2,0.6-4,1.2-6,2.1l-1.7,0.7
					c8.6,2.6,17.3,3.9,26,3.9h2.5c3.2-0.2,6.6,0.3,9.4-3c-4.5-1.4-9.1-2.1-13.7-2.2c-1.7,0-3.4,0.1-5,0.4h-0.4l0,0l5.1,1.1l-4.6-1.1
					h2.7c4.9-0.1,9.7,0.6,14.5,2c-2.5,2-5.4,1.5-8.1,1.7h-1.4c-2.5,0-5-0.1-7.5-0.3c-5.3-0.4-10.6-1.4-15.9-2.8
					c3.6-1.2,7.2-2.1,10.8-2.5c3.4-0.4,6.7-0.6,10.1-0.6c7.3,0,14.5,0.8,21.7,2.5c0.3,0.1,2.6,0.9,1.7,1.6c-9.1,2.7-21,7.2-32.1,7.2
					c-7.9,0-15.3-2.2-21-9c6,7.3,13.8,9.7,21.9,9.7c10.8,0,22.4-4.3,31.4-6.9c0.1-0.1,0.2-0.1,0.3-0.3c0.1-0.1,0.2-0.3,0.2-0.4
					c0.1-0.2,0.1-0.4,0.1-0.6s0-0.4,0-0.6c-0.2-0.5-0.4-0.9-0.7-1.1c-0.3-0.3-0.6-0.4-0.9-0.5c-4.2-0.8-11.1-1.8-12.1-2
					C222.2,1906,219.6,1905.8,217.4,1905.8L217.4,1905.8z"/>
			</g>
		</g>
		<g id="i">
			<path class="st2" d="M231.9,1918.7c-6,2.2-12.1,3.6-18.2,4.2c-2.7,0-16.9-2.1-20.1-4.4c-4.1-2.9-9.6-7.9-9.6-9
				c-0.1-1.6,3.8-0.9,5.6-1.3c7.4-1.4,11.4-1.7,16.8-2.2c9.1-0.8,8.6-1.2,18.9,0c1.4,0.2,13.1,2,14.5,2.5c3.5,1.3,4.8,1.6,4.7,2.1
				c0,0.1,0,0.2-0.1,0.3c-2.9,3.9-9.2,6.2-12.6,7.9"/>
			<path class="st1" d="M216.2,1905.2c-2.6,0-4.7,0.3-9.7,0.8c-2.6,0.3-5,0.4-7.6,0.8c-1.9,0.6-3.9,1.2-5.8,2.1l-1.6,0.7
				c8.3,2.6,16.6,3.9,25,3.9h2.4c3-0.2,6.3,0.3,9-3c-4.4-1.4-8.8-2.1-13.2-2.2c-1.6,0-3.3,0.1-4.9,0.4h-0.4l0,0l4.9,1.1l-4.4-1.1
				h2.6c4.7-0.1,9.4,0.6,14,2c-2.4,2-5.2,1.5-7.8,1.7h-1.3c-2.4,0-4.8-0.1-7.3-0.3c-5.1-0.4-10.2-1.4-15.3-2.8
				c3.4-1.2,6.9-2.1,10.4-2.5c3.2-0.4,6.5-0.6,9.7-0.6c7,0,14,0.8,20.9,2.5c0.3,0.1,2.5,0.9,1.7,1.6c-8.7,2.7-20.2,7.2-30.9,7.2
				c-7.6,0-14.7-2.2-20.2-9c5.8,7.3,13.3,9.7,21.1,9.7c10.4,0,21.5-4.3,30.2-6.9c0.1-0.1,0.2-0.1,0.3-0.3c0.1-0.1,0.1-0.3,0.2-0.4
				c0.1-0.2,0.1-0.4,0.1-0.6s0-0.4,0-0.6c-0.2-0.5-0.4-0.9-0.6-1.1s-0.5-0.4-0.8-0.5c-4-0.8-10.6-1.8-11.6-2
				C220.7,1905.4,218.2,1905.2,216.2,1905.2L216.2,1905.2z"/>
		</g>
	</g>
</g>
<g id="j">
</g>
<g id="k">
	<g id="l">
	</g>
	<g id="m">
	</g>
</g>
<g id="n">
	<g id="o">
	</g>
	<g id="p">
	</g>
</g>
<g id="TreeTop_x5F_Amazon">
	<path class="st1" d="M244.4,1950.4c0,0,2.6-46.6,4.9-49.7c14.3-18.8,25.8-15.8,32.7-33c6.8-17.1,18.1-25.4,26.6-39.9
		c6.8-11.5-4.8,6.9,9.7-16.8c14.4-23.7,4.4-8.8,0.8-7.8s0.5-13.4-0.7-9.4c-1.2,4-10.8,20.1-10.8,6.5s-27,65.2-47.5,68.8
		c-20.5,3.5-24.1,8.9-8.8-10.7c15.2-19.7,14.7-32.9,19.1-47.1c4-13.1,1.9-13.4,14.3-31c12.4-17.6-5.7-2.9-6.5-11.5
		c-0.8-8.6-22.2-20.8-15.8-7.2c6.4,13.6-2.3,8.7-8,31.9c-5.6,23.2-14.8,58.5-27.3,67c-12.4,8.6-11.6,0.5-8.4-22.7
		c3.2-23.2,6.4-29.4,11.7-55.1c0.6-3.1,5.4,10.1,1.8-8.7c-3.8-20.2,20.1,7.5,18-18.2c-2.4-29.2-27.2,2.2-28,10.8
		c-0.8,8.6-1.9,5.2-9.5,37s-6.8,66.1-11.7,55.6c-4.1-8.8-24.3-36.6-25.1-46.1c-0.8-9.6,6.7-34.1,8.7-47.7s5,9.7,4.6,5.7
		c-0.4-4-18.6,5-18.6,5s10.5,6.6,0.1,17.1c-10.4,10.6-8.5,15.8-12.2-6.6c-3.8-23.4,6,5.1,5.6-10.5c-0.4-15.6-11.7,3.9-12.9,16.5
		c-1.2,12.6-2.6-2.4-1.6,10.1c0.6,6.7-6.8,4.2,3.2,13.3c15.8,14.3,19.3,27.6,26.1,48.7c3.4,10.6,3.8,37.4-22.9,9.6
		c-23.2-24.2-22.5-37.8-26.5-47.4c-4-9.6-17.9-1.1-23.5-21.3c-5.6-20.2-6,7.1-8-9.5l-3.5,16.6c0,0-5.1-15-0.3-5.9
		c4.8,9.1,19,14.3,27.3,31.8c8.3,17.5,7.9,40,42.9,69c17.4,14.4,15.4,24.2,15.9,46.9c0.5,25.2,1.4,46.4,1.4,46.4l59.1-2.5
		L244.4,1950.4z"/>
	<g>
		<path class="st3" d="M151.8,1820.1c0-11.2-8.1-20.4-18-20.4c-2.5,0-4.9,0.6-7,1.6c-3.8-9.1-12-15.4-21.5-15.4
			c-13.1,0-23.8,12-23.8,26.9c0,2,0.2,4,0.6,5.9c-6.3,0.3-11.4,6.2-11.4,13.4c0,7.4,5.3,13.4,11.9,13.4c0.4,0,0.8,0,1.2-0.1
			c3.3,7.1,9.9,12,17.5,12c6.7,0,12.5-3.7,16.1-9.5c2.1,2.7,5.2,4.5,8.7,4.5c6.2,0,11.3-5.5,11.5-12.5
			C145.7,1838.1,151.8,1829.9,151.8,1820.1z"/>
		<g>
			<path class="st4" d="M84.6,1771.5c0,0.1,0,0.3,0,0.4c0,0,0.1,0,0.1,0C84.6,1771.8,84.6,1771.6,84.6,1771.5z"/>
			<path class="st5" d="M81.9,1827.5c0.4,0,0.8,0,1.2-0.1c3.2,6.9,9.5,11.6,16.9,11.6c6.4,0,12.1-3.6,15.6-9.1
				c2,2.7,5.1,4.3,8.4,4.3c6,0,10.9-5.4,11.2-12.1c8-1.9,13.9-10,13.8-19.6c0-0.5,0-1.1-0.1-1.6c-3.2-5.8-8.8-9.6-15.3-9.6
				c-2.5,0-4.9,0.6-7,1.6c-3.8-9.1-12-15.4-21.5-15.4c-12.2,0-22.2,10.3-23.6,23.7c0,0.1,0,0.3,0.1,0.4c0,0-0.1,0-0.1,0
				c-0.1,0.9-0.1,1.9-0.1,2.8c0,2,0.2,4,0.6,5.9c-4.9,0.2-9,3.8-10.6,8.7C72.8,1824,77,1827.5,81.9,1827.5z"/>
		</g>
	</g>
	<g>
		<g>
			<path class="st4" d="M210.3,1754.1c0,0.2,0,0.3-0.1,0.5c0,0,0.1,0,0.1,0C210.3,1754.4,210.3,1754.3,210.3,1754.1z"/>
			<path class="st5" d="M297.5,1753.8c-4.1-7.5-11.4-12.5-19.8-12.5c-3.2,0-6.3,0.7-9.1,2.1c-4.9-11.8-15.5-19.9-27.8-19.9
				c-15.7,0-28.7,13.4-30.5,30.6c0,0.2,0.1,0.3,0.1,0.5c0,0-0.1,0-0.1,0c-0.1,1.2-0.2,2.4-0.2,3.6c0,2.6,0.3,5.2,0.8,7.7
				c-6.3,0.3-11.7,4.9-13.8,11.3c2.1,6.4,7.5,11,13.9,11c0.5,0,1,0,1.5-0.1c4.1,8.9,12.3,15,21.9,15c0,0,0.1,0,0.1,0
				c-0.1,3.1,0,6.2,0.3,9.2c0.6,5.9,2.2,11.5,4.2,17.1c2.3,6.4,4.7,13.4,0,19.3c-5.8,7.4-15.8,11.3-16.1,22
				c-0.3,10.1,10,17.7,19.2,12.7c3-1.6,0.3-6.2-2.7-4.6c-5,2.7-10.4-1.1-11.1-6.3c-0.6-4.8,2.1-8.5,5.4-11.6
				c5.9-5.6,13-10.2,13.4-19.1c0.2-5.3-1.7-10.3-3.5-15.1c-1.8-5.1-3.2-10.3-3.7-15.7c-0.3-2.9-0.3-5.8-0.1-8.7
				c6-1.6,11.2-5.6,14.6-11.1c2.6,3.4,6.5,5.6,10.9,5.6c7.8,0,14.1-6.9,14.4-15.6c10.3-2.5,18-12.9,17.8-25.4
				C297.6,1755.2,297.5,1754.5,297.5,1753.8z"/>
		</g>
		<ellipse class="st5" cx="258.6" cy="1741.5" rx="12.1" ry="13.6"/>
	</g>
	<g>
		<path class="st3" d="M340.4,1811.3c0-11.7-8.4-21.2-18.8-21.2c-2.6,0-5.1,0.6-7.3,1.7c-4-9.5-12.5-16.1-22.4-16.1
			c-13.7,0-24.8,12.5-24.8,28c0,2.1,0.2,4.2,0.6,6.2c-6.6,0.3-11.9,6.4-11.9,14c0,7.7,5.5,14,12.4,14c0.4,0,0.8,0,1.3-0.1
			c3.4,7.4,10.3,12.5,18.2,12.5c6.9,0,13.1-3.9,16.8-9.9c2.2,2.9,5.5,4.7,9.1,4.7c6.5,0,11.7-5.8,12-13
			C334,1830,340.4,1821.5,340.4,1811.3z"/>
		<path class="st6" d="M275,1815.9c0-3.5-2.9-6.3-6.5-6.3c-0.9,0-1.8,0.2-2.5,0.5c-1.4-2.8-4.3-4.8-7.8-4.8c-4.7,0-8.6,3.7-8.6,8.4
			c0,0.6,0.1,1.2,0.2,1.8c-2.3,0.1-4.1,1.9-4.1,4.2c0,2.3,1.9,4.2,4.3,4.2c0.1,0,0.3,0,0.4,0c1.2,2.2,3.6,3.7,6.3,3.7
			c2.4,0,4.5-1.2,5.8-2.9c0.8,0.9,1.9,1.4,3.1,1.4c2.2,0,4.1-1.7,4.2-3.9C272.8,1821.5,275,1818.9,275,1815.9z"/>
		<path class="st6" d="M231.5,1794.2c0-2.4-2.3-4.4-5-4.4c-0.7,0-1.4,0.1-2,0.3c-1.1-2-3.4-3.4-6-3.4c-3.7,0-6.7,2.6-6.7,5.9
			c0,0.4,0.1,0.9,0.2,1.3c-1.8,0.1-3.2,1.3-3.2,2.9c0,1.6,1.5,2.9,3.3,2.9c0.1,0,0.2,0,0.3,0c0.9,1.6,2.8,2.6,4.9,2.6
			c1.9,0,3.5-0.8,4.5-2.1c0.6,0.6,1.5,1,2.4,1c1.7,0,3.2-1.2,3.2-2.7C229.8,1798.1,231.5,1796.3,231.5,1794.2z"/>
		<g>
			<path class="st4" d="M262.2,1789.2c0,0.1,0,0.3,0,0.4c0,0,0.1,0,0.1,0C262.3,1789.4,262.2,1789.3,262.2,1789.2z"/>
			<path class="st5" d="M332.4,1788.9c-3.3-6-9.2-10-15.9-10c-2.6,0-5.1,0.6-7.3,1.7c-4-9.5-12.5-16.1-22.4-16.1
				c-12.7,0-23.1,10.8-24.6,24.7c0,0.1,0,0.3,0.1,0.4c0,0-0.1,0-0.1,0c-0.1,1-0.1,1.9-0.1,2.9c0,2.1,0.2,4.2,0.6,6.2
				c-5.1,0.2-9.4,3.9-11.1,9.1c1.7,5.2,6.1,8.8,11.2,8.8c0.4,0,0.8,0,1.2-0.1c1.9,4.2,5,7.6,8.7,9.7c-5.8,7.5-8.1,17.2-6.3,26.6
				c1,5,3.2,9.4,6.2,13.4c3.5,4.7,8.7,10.2,5.5,16.4c-2.6,5-7.7,8.2-10,13.5c-1.9,4.4-1.5,9.3,2,12.7c3.6,3.5,9.8,4.1,12.4,8.7
				c3.5,6.1-1,13.3-7.9,13.5c-3.4,0.1-3.4,5.5,0,5.3c10.9-0.4,18.1-11.8,12.5-21.6c-2.8-5-8-5.9-12.3-9c-6.7-5,1.4-12.2,4.9-16.4
				c3.2-3.9,5.5-8.4,4.5-13.5c-1.2-6-5.9-10.3-9-15.2c-6.4-10-5.1-23.7,2.8-32.5c1.2,0.2,2.4,0.4,3.6,0.4c6.7,0,12.6-3.8,16.2-9.5
				c2.1,2.8,5.3,4.5,8.8,4.5c6.3,0,11.4-5.6,11.6-12.6c8.3-2,14.5-10.4,14.3-20.4C332.5,1790,332.5,1789.5,332.4,1788.9z"/>
		</g>
	</g>
	<g>
		<path class="st3" d="M221,1774c0-11.7-8.4-21.2-18.8-21.2c-2.6,0-5.1,0.6-7.3,1.7c-4-9.5-12.5-16.1-22.4-16.1
			c-13.7,0-24.8,12.5-24.8,28c0,2.1,0.2,4.2,0.6,6.2c-6.6,0.3-11.9,6.4-11.9,14c0,7.7,5.5,14,12.4,14c0.4,0,0.8,0,1.3-0.1
			c3.4,7.4,10.3,12.5,18.2,12.5c6.9,0,13.1-3.9,16.8-9.8c2.2,2.9,5.5,4.7,9.1,4.7c6.5,0,11.7-5.8,12-13
			C214.7,1792.7,221,1784.2,221,1774z"/>
		<path class="st6" d="M172.4,1811.8c0-3.5-2.9-6.3-6.5-6.3c-0.9,0-1.8,0.2-2.5,0.5c-1.4-2.8-4.3-4.8-7.8-4.8
			c-4.7,0-8.6,3.7-8.6,8.4c0,0.6,0.1,1.2,0.2,1.8c-2.3,0.1-4.1,1.9-4.1,4.2c0,2.3,1.9,4.2,4.3,4.2c0.1,0,0.3,0,0.4,0
			c1.2,2.2,3.6,3.7,6.3,3.7c2.4,0,4.5-1.2,5.8-2.9c0.8,0.9,1.9,1.4,3.1,1.4c2.2,0,4.1-1.7,4.2-3.9
			C170.2,1817.4,172.4,1814.9,172.4,1811.8z"/>
		<path class="st6" d="M125.7,1852.5c0-2.4-2.3-4.4-5-4.4c-0.7,0-1.4,0.1-2,0.3c-1.1-2-3.4-3.4-6-3.4c-3.7,0-6.7,2.6-6.7,5.9
			c0,0.4,0.1,0.9,0.2,1.3c-1.8,0.1-3.2,1.3-3.2,2.9c0,1.6,1.5,2.9,3.3,2.9c0.1,0,0.2,0,0.3,0c0.9,1.6,2.8,2.6,4.9,2.6
			c1.9,0,3.5-0.8,4.5-2.1c0.6,0.6,1.5,1,2.4,1c1.7,0,3.2-1.2,3.2-2.7C124,1856.4,125.7,1854.6,125.7,1852.5z"/>
		<g>
			<path class="st4" d="M142.8,1751.9c0,0.1,0,0.3,0,0.4c0,0,0.1,0,0.1,0C142.9,1752.1,142.9,1752,142.8,1751.9z"/>
			<path class="st5" d="M149.1,1788.2c0.4,0,0.8,0,1.2-0.1c3.3,7.2,9.9,12.1,17.6,12.1c6.7,0,12.6-3.8,16.2-9.5
				c2.1,2.8,5.3,4.5,8.8,4.5c6.3,0,11.4-5.6,11.6-12.6c8.3-2,14.5-10.4,14.3-20.4c0-0.6,0-1.1-0.1-1.7c-3.3-6-9.2-10-15.9-10
				c-2.6,0-5.1,0.6-7.3,1.7c-4-9.5-12.5-16.1-22.4-16.1c-12.7,0-23.1,10.8-24.6,24.7c0,0.1,0,0.3,0.1,0.4c0,0-0.1,0-0.1,0
				c-0.1,1-0.1,1.9-0.1,2.9c0,2.1,0.2,4.2,0.6,6.2c-5.1,0.2-9.4,3.9-11.1,9.1C139.5,1784.6,143.9,1788.2,149.1,1788.2z"/>
		</g>
	</g>
	<g id="Strings_Leaves">
		<path class="st5" d="M178.6,1794.2c-8.5,4.5-12.1,14.2-12.3,23.4c-0.1,6.1,1.1,12.2,2,18.2c1.1,7.3,1,14.4,0,21.7
			c-1.8,13.2-3.8,25.9-3.6,39.3c0.2,13.7,1.2,27.4,1.9,41c0.8,15.6,1.6,31.3,2.4,46.9c0.2,3.4,5.5,3.4,5.3,0
			c-1.3-26.1-2.8-52.3-4-78.4c-0.6-12.8-0.4-25.3,1.6-38c1-6,2-12.1,2.4-18.2c0.4-6-0.3-12-1.3-17.9c-1.7-11.2-3.9-27.1,8.2-33.5
			C184.3,1797.3,181.6,1792.6,178.6,1794.2z"/>
		<path class="st5" d="M107.3,1823.4c-6.1,6.4-9.7,14.7-10.3,23.5c-0.3,4.3,0.3,8.7,1.5,12.9c1.5,5.2,4.3,10.4,4,15.9
			c-0.3,5-3.1,9.5-4.4,14.2c-1.3,4.4-1.9,9.1-1.7,13.7c0.2,9.3,3.2,18.3,8.5,25.9c2,2.8,6.6,0.1,4.6-2.7c-5-7.2-7.8-15.6-7.8-24.4
			c0-4.6,0.8-9,2.3-13.3c1.4-4,3.3-7.8,3.8-12.1c1-9.1-4.9-17.1-5.4-26.1c-0.4-8.8,2.7-17.3,8.8-23.7
			C113.5,1824.7,109.7,1820.9,107.3,1823.4z"/>
		<g>
			<g>
				<g>
					<path class="st7" d="M108.9,1939.4c0,0-3.1,0.6-5.1-3c-2.1-3.6-1.4-3.7-1.4-3.7s5.1,0.1,6,2.9S108.9,1939.4,108.9,1939.4z"/>
				</g>
				<g>
					<path class="st7" d="M105.9,1935.7c0,0-3.2-1.3-2.9-6c0.3-4.7,0.9-4.3,0.9-4.3s4.7,3.2,3.8,6.4
						C106.8,1935,105.9,1935.7,105.9,1935.7z"/>
				</g>
				<g>
					<path class="st7" d="M105.3,1928.9c0,0-2.5-0.2-3.3-3.5c-0.8-3.3-0.3-3.2-0.3-3.2s3.9,1.2,4,3.5
						C105.7,1928.2,105.3,1928.9,105.3,1928.9z"/>
				</g>
				<g>
					<path class="st7" d="M96.6,1925.4c0,0-1.2-4,3.5-7.3s4.8-2.3,4.8-2.3s0.5,6.8-3.2,8.4S96.6,1925.4,96.6,1925.4z"/>
				</g>
				<g>
					<path class="st7" d="M98.9,1919.4c0,0-1.8-1.9-0.3-5c1.6-3.2,1.9-2.7,1.9-2.7s2.3,3.6,0.8,5.5
						C99.8,1919.2,98.9,1919.4,98.9,1919.4z"/>
				</g>
				<g>
					<path class="st7" d="M100,1917.8c0,0-4.6-1.9-4.1-8.6s1.4-6.2,1.4-6.2s6.6,4.6,5.3,9.2C101.4,1916.8,100,1917.8,100,1917.8z"/>
				</g>
				<g>
					<path class="st7" d="M94.4,1907.3c0,0-0.1-3,3.7-4.4c3.8-1.4,3.7-0.7,3.7-0.7s-0.9,4.8-3.7,5.2
						C95.3,1907.8,94.4,1907.3,94.4,1907.3z"/>
				</g>
				<g>
					<path class="st7" d="M91.2,1900.1c0,0,2.1-4.3,8.6-3.5c6.5,0.8,5.9,1.7,5.9,1.7s-4.9,6.2-9.2,4.7S91.2,1900.1,91.2,1900.1z"/>
				</g>
				<g>
					<path class="st7" d="M95.5,1900.7c0,0-2.5-4,1.6-8.9c4.1-4.9,4.5-4,4.5-4s2.5,7.3-1,10C97.2,1900.6,95.5,1900.7,95.5,1900.7z"
						/>
				</g>
				<g>
					<path class="st7" d="M99.1,1896.2c0,0-4-2.5-2.5-8.7c1.5-6.1,2.3-5.5,2.3-5.5s5.5,5.4,3.5,9.4
						C100.6,1895.4,99.1,1896.2,99.1,1896.2z"/>
				</g>
				<g>
					<path class="st7" d="M102.5,1887.4c0,0-2.8,0.1-4.1-3.4c-1.3-3.5-0.7-3.5-0.7-3.5s4.5,0.8,4.9,3.4
						C103,1886.5,102.5,1887.4,102.5,1887.4z"/>
				</g>
				<g>
					<path class="st7" d="M96.6,1882.4c0,0-0.3-4.3,5.1-6.6s5.4-1.3,5.4-1.3s-1,7-5,7.8C98,1883.1,96.6,1882.4,96.6,1882.4z"/>
				</g>
				<g>
					<path class="st7" d="M101.3,1878.3c0,0-1.8-2.9,1.2-6.4c3-3.5,3.3-2.8,3.3-2.8s1.8,5.3-0.8,7.3
						C102.5,1878.2,101.3,1878.3,101.3,1878.3z"/>
				</g>
				<g>
					<path class="st7" d="M101.3,1870.1c0,0,0-2.2,2.9-3.1c2.8-0.9,2.8-0.4,2.8-0.4s-0.8,3.5-2.9,3.7
						C102,1870.5,101.3,1870.1,101.3,1870.1z"/>
				</g>
				<g>
					<path class="st7" d="M98.1,1866.2c0,0,0.1-4.3,5.7-6c5.6-1.7,5.5-0.8,5.5-0.8s-1.7,6.9-5.8,7.2
						C99.4,1867,98.1,1866.2,98.1,1866.2z"/>
				</g>
				<g>
					<path class="st7" d="M102.1,1860.9c0,0-1.4-1.6,0-4c1.4-2.5,1.7-2.1,1.7-2.1s1.7,3,0.4,4.5
						C102.8,1860.8,102.1,1860.9,102.1,1860.9z"/>
				</g>
				<g>
					<path class="st7" d="M105.2,1858.1c0,0-4.2,0.2-6.3-5s-1.2-5.2-1.2-5.2s6.7,1,7.4,5S105.2,1858.1,105.2,1858.1z"/>
				</g>
				<g>
					<path class="st7" d="M96.4,1851.5c0,0-0.9-3.7,3.4-6.5c4.3-2.8,4.4-2,4.4-2s0.2,6.2-3.2,7.5
						C97.6,1851.9,96.4,1851.5,96.4,1851.5z"/>
				</g>
				<g>
					<path class="st7" d="M98.5,1845.4c0,0-1.2-2.1,0.9-4.6c2.2-2.5,2.4-2,2.4-2s1.3,3.8-0.6,5.2S98.5,1845.4,98.5,1845.4z"/>
				</g>
				<g>
					<path class="st7" d="M94.7,1839.4c0,0,0.3-4,5.5-5.2c5.2-1.3,5.1-0.4,5.1-0.4s-1.9,6.2-5.7,6.3
						C95.8,1840.1,94.7,1839.4,94.7,1839.4z"/>
				</g>
			</g>
		</g>
		<g>
			<g>
				<g>
					<path class="st7" d="M162.2,1989c0,0-0.8-4.4,4.4-7.4c5.3-3,5.4-2,5.4-2s-0.2,7.3-4.2,8.6C163.7,1989.5,162.2,1989,162.2,1989z
						"/>
				</g>
				<g>
					<path class="st7" d="M163.4,1982c0,0-0.3-3.2,3.8-5c4-1.7,4-1,4-1s-0.7,5.2-3.7,5.9C164.4,1982.5,163.4,1982,163.4,1982z"/>
				</g>
				<g>
					<path class="st7" d="M172.4,1979.4c0,0-4.8,1-8.1-4.7c-3.3-5.6-2.3-5.8-2.3-5.8s7.9,0.1,9.4,4.4
						C172.9,1977.8,172.4,1979.4,172.4,1979.4z"/>
				</g>
				<g>
					<path class="st7" d="M166.6,1974.7c0,0-3.2-2.6-1.2-7.7c1.9-5.2,2.6-4.5,2.6-4.5s4.2,5.2,2.1,8.5S166.6,1974.7,166.6,1974.7z"
						/>
				</g>
				<g>
					<path class="st7" d="M170,1966.5c0,0-2.4,0-3.5-3.1c-1.1-3.1-0.6-3.1-0.6-3.1s3.9,0.8,4.2,3.1
						C170.4,1965.7,170,1966.5,170,1966.5z"/>
				</g>
				<g>
					<path class="st7" d="M165,1960.2c0,0,0.3-3.3,4.6-4.3s4.2-0.3,4.2-0.3s-1.6,5.1-4.7,5.2C166,1960.8,165,1960.2,165,1960.2z"/>
				</g>
				<g>
					<path class="st7" d="M171.3,1956.9c0,0-2.5-1-2.3-4.5c0.2-3.6,0.7-3.3,0.7-3.3s3.6,2.4,3,4.8
						C172,1956.3,171.3,1956.9,171.3,1956.9z"/>
				</g>
				<g>
					<path class="st7" d="M168.3,1951.4c0,0-1.5-2.3,0.8-5.2s2.6-2.4,2.6-2.4s1.6,4.2-0.4,5.9
						C169.3,1951.3,168.3,1951.4,168.3,1951.4z"/>
				</g>
				<g>
					<path class="st7" d="M165.5,1946c0,0-0.8-3.6,3.5-6.1c4.3-2.5,4.4-1.7,4.4-1.7s0,6-3.3,7.1C166.7,1946.4,165.5,1946,165.5,1946
						z"/>
				</g>
				<g>
					<path class="st7" d="M170.2,1941.7c0,0-3-1-3-5.3c0-4.3,0.6-4,0.6-4s4.4,2.6,3.8,5.6C171,1941,170.2,1941.7,170.2,1941.7z"/>
				</g>
				<g>
					<path class="st7" d="M165.2,1936.6c0,0-1.7-3.7,2.3-7.4c4-3.7,4.3-2.9,4.3-2.9s1.4,6.5-1.9,8.5S165.2,1936.6,165.2,1936.6z"/>
				</g>
				<g>
					<path class="st7" d="M168.8,1931.5c0,0-3.1-1.4-2.6-6c0.5-4.5,1.1-4.2,1.1-4.2s4.4,3.3,3.4,6.4S168.8,1931.5,168.8,1931.5z"/>
				</g>
				<g>
					<path class="st7" d="M168.1,1928.2c0,0-4.2-2.3-3.1-8.6c1.1-6.3,1.9-5.8,1.9-5.8s5.9,5,4.3,9.2S168.1,1928.2,168.1,1928.2z"/>
				</g>
				<g>
					<path class="st7" d="M162.4,1917.2c0,0,0.7-3.4,5.4-4c4.7-0.5,4.5,0.2,4.5,0.2s-2.3,5.2-5.7,4.9S162.4,1917.2,162.4,1917.2z"/>
				</g>
				<g>
					<path class="st7" d="M171.4,1916.1c0,0-4.6,0.6-7.3-5.1s-1.7-5.7-1.7-5.7s7.6,0.7,8.6,5C172,1914.6,171.4,1916.1,171.4,1916.1z
						"/>
				</g>
				<g>
					<path class="st7" d="M160.8,1908.7c0,0-0.2-4.6,5.6-6.8c5.8-2.2,5.7-1.2,5.7-1.2s-1.3,7.3-5.6,8
						C162.2,1909.4,160.8,1908.7,160.8,1908.7z"/>
				</g>
				<g>
					<path class="st7" d="M162.5,1906.4c0,0-2.6-4.3,1.7-9.5s4.8-4.2,4.8-4.2s2.7,7.8-1,10.7S162.5,1906.4,162.5,1906.4z"/>
				</g>
				<g>
					<path class="st7" d="M170.5,1900.7c0,0-4.9,0.1-7.2-6c-2.3-6.2-1.2-6.1-1.2-6.1s7.8,1.4,8.5,6
						C171.3,1899.2,170.5,1900.7,170.5,1900.7z"/>
				</g>
				<g>
					<path class="st7" d="M161.1,1889.9c0,0,1.5-3.8,7.1-3.6c5.6,0.3,5.2,1.1,5.2,1.1s-3.7,5.6-7.5,4.6
						C162,1891,161.1,1889.9,161.1,1889.9z"/>
				</g>
				<g>
					<path class="st7" d="M164.5,1883.8c0,0,1.1-2.1,4.3-1.5c3.1,0.6,2.8,1,2.8,1s-2.5,2.9-4.6,2
						C164.9,1884.5,164.5,1883.8,164.5,1883.8z"/>
				</g>
				<g>
					<path class="st7" d="M171.7,1882.9c0,0-2.9-0.3-3.8-4.2c-0.9-3.9-0.3-3.8-0.3-3.8s4.6,1.5,4.6,4.3
						C172.3,1882,171.7,1882.9,171.7,1882.9z"/>
				</g>
				<g>
					<path class="st7" d="M166.2,1875.8c0,0,0.7-3.9,5.9-4.7s5,0,5,0s-2.4,6-6.1,5.8C167.2,1876.7,166.2,1875.8,166.2,1875.8z"/>
				</g>
				<g>
					<path class="st7" d="M171,1875.5c0,0-3.1-3.6,0.3-9.1c3.3-5.5,3.9-4.6,3.9-4.6s3.6,6.8,0.5,10.1S171,1875.5,171,1875.5z"/>
				</g>
				<g>
					<path class="st7" d="M174.7,1869.4c0,0-3.7-1.5-3.4-6.8s1-5,1-5s5.4,3.6,4.4,7.2C175.7,1868.5,174.7,1869.4,174.7,1869.4z"/>
				</g>
				<g>
					<path class="st7" d="M170.7,1860.3c0,0-0.2-2.6,3.1-4c3.3-1.4,3.3-0.8,3.3-0.8s-0.6,4.3-3.1,4.7S170.7,1860.3,170.7,1860.3z"/>
				</g>
				<g>
					<path class="st7" d="M173.5,1855.6c0,0-1.3-1.4-0.1-3.7c1.2-2.3,1.5-2,1.5-2s1.7,2.7,0.5,4.1S173.5,1855.6,173.5,1855.6z"/>
				</g>
				<g>
					<path class="st7" d="M170.9,1850.2c0,0-0.7-2.6,2.3-4.5s3.1-1.4,3.1-1.4s0.2,4.3-2.1,5.3
						C171.8,1850.5,170.9,1850.2,170.9,1850.2z"/>
				</g>
				<g>
					<path class="st7" d="M168.6,1845.8c0,0-0.6-3.8,3.9-6.2c4.5-2.4,4.6-1.6,4.6-1.6s-0.3,6.2-3.8,7.2
						C169.8,1846.2,168.6,1845.8,168.6,1845.8z"/>
				</g>
				<g>
					<path class="st7" d="M174.1,1844c0,0-4.6-1.3-5-7.8c-0.4-6.5,0.6-6.1,0.6-6.1s7,3.6,6.3,8.2
						C175.3,1842.8,174.1,1844,174.1,1844z"/>
				</g>
				<g>
					<path class="st7" d="M169.8,1835.5c0,0-1.6-2.5,1-5.6c2.6-3.1,2.8-2.5,2.8-2.5s1.6,4.6-0.6,6.3
						C170.8,1835.4,169.8,1835.5,169.8,1835.5z"/>
				</g>
				<g>
					<path class="st7" d="M164.9,1826.4c0,0,2.3-4.3,8.9-3.3c6.5,1.1,6,2,6,2s-5.2,6.1-9.5,4.4
						C165.8,1827.8,164.9,1826.4,164.9,1826.4z"/>
				</g>
				<g>
					<path class="st7" d="M170.6,1823.2c0,0-0.6-2,1.8-3.7s2.4-1.2,2.4-1.2s0.3,3.5-1.6,4.2C171.3,1823.3,170.6,1823.2,170.6,1823.2
						z"/>
				</g>
				<g>
					<path class="st7" d="M168.5,1815.2c0,0,1.7-2.6,5.8-1.5c4,1.1,3.6,1.6,3.6,1.6s-3.6,3.5-6.2,2.2
						C169,1816.1,168.5,1815.2,168.5,1815.2z"/>
				</g>
				<g>
					<path class="st7" d="M177.7,1815.9c0,0-3.6-0.5-4.5-5.3c-0.9-4.8-0.2-4.6-0.2-4.6s5.6,2,5.5,5.4S177.7,1815.9,177.7,1815.9z"/>
				</g>
				<g>
					<path class="st7" d="M174.7,1809.9c0,0-1.2-3.1,2.3-6.1s3.7-2.2,3.7-2.2s0.9,5.4-2,6.9C175.8,1810,174.7,1809.9,174.7,1809.9z"
						/>
				</g>
				<g>
					<path class="st7" d="M180.7,1805.6c0,0-2.8-1.2-2.5-5.2s0.9-3.8,0.9-3.8s4.1,2.8,3.3,5.6C181.5,1805,180.7,1805.6,180.7,1805.6
						z"/>
				</g>
				<g>
					<path class="st7" d="M175.6,1797.6c0,0,1.3-4.3,7.3-4.4c6-0.2,5.6,0.7,5.6,0.7s-3.5,6.3-7.7,5.6
						C176.7,1798.7,175.6,1797.6,175.6,1797.6z"/>
				</g>
			</g>
		</g>
		<g>
			<g>
				<g>
					<path class="st7" d="M244.7,1892.1c0,0-2.5-0.9-2.4-4.5c0.1-3.5,0.6-3.3,0.6-3.3s3.6,2.3,3.1,4.7
						C245.4,1891.5,244.7,1892.1,244.7,1892.1z"/>
				</g>
				<g>
					<path class="st7" d="M240.6,1886.5c0,0-1.3-2.2,1-4.7s2.5-2.1,2.5-2.1s1.2,3.9-0.7,5.4S240.6,1886.5,240.6,1886.5z"/>
				</g>
				<g>
					<path class="st7" d="M236.1,1886c0,0-1.9-2.4,0.3-5.8s2.6-2.9,2.6-2.9s2.2,4.4,0.2,6.4C237.1,1885.9,236.1,1886,236.1,1886z"/>
				</g>
				<g>
					<path class="st7" d="M228.4,1884.7c0,0-1.6-4.4,3.4-8.3c5-3.9,5.2-2.9,5.2-2.9s1,7.6-3,9.6
						C230,1884.9,228.4,1884.7,228.4,1884.7z"/>
				</g>
				<g>
					<path class="st7" d="M226,1877.5c0,0,0.1-2.5,3.4-3.5s3.2-0.4,3.2-0.4s-1.1,4-3.5,4.2C226.7,1878,226,1877.5,226,1877.5z"/>
				</g>
				<g>
					<path class="st7" d="M229.2,1873.9c0,0-2.2-0.3-2.8-3.4c-0.5-3-0.1-2.9-0.1-2.9s3.5,1.3,3.4,3.5
						C229.7,1873.3,229.2,1873.9,229.2,1873.9z"/>
				</g>
				<g>
					<path class="st7" d="M224.3,1866.3c0,0,0.8-2.5,4.5-2.6s3.4,0.5,3.4,0.5s-2.2,3.8-4.7,3.3S224.3,1866.3,224.3,1866.3z"/>
				</g>
				<g>
					<path class="st7" d="M223.3,1861.3c0,0,1.6-4,7.3-3.7s5.3,1.1,5.3,1.1s-3.9,5.8-7.8,4.8
						C224.3,1862.5,223.3,1861.3,223.3,1861.3z"/>
				</g>
				<g>
					<path class="st7" d="M228.8,1859.4c0,0-0.7-3.3,3.3-5.6c4-2.3,4.1-1.6,4.1-1.6s-0.1,5.5-3.1,6.6S228.8,1859.4,228.8,1859.4z"/>
				</g>
				<g>
					<path class="st7" d="M236.5,1855.2c0,0-2.4-0.8-2.4-4.1c0-3.4,0.5-3.1,0.5-3.1s3.5,2.1,3,4.4S236.5,1855.2,236.5,1855.2z"/>
				</g>
				<g>
					<path class="st7" d="M243.1,1852.2c0,0-4.4,0.9-7.5-4.3c-3.1-5.2-2.1-5.4-2.1-5.4s7.4,0,8.7,4.1S243.1,1852.2,243.1,1852.2z"/>
				</g>
				<g>
					<path class="st7" d="M235.8,1841.5c0,0,2.2-2.8,6.7-1.1c4.5,1.7,4,2.2,4,2.2s-4.5,3.6-7.4,1.8S235.8,1841.5,235.8,1841.5z"/>
				</g>
				<g>
					<path class="st7" d="M240.7,1842.4c0,0-3-1.7-2.1-6.3c0.9-4.6,1.5-4.1,1.5-4.1s4.2,3.8,2.9,6.8
						C241.7,1841.7,240.7,1842.4,240.7,1842.4z"/>
				</g>
				<g>
					<path class="st7" d="M242.5,1835.4c0,0-2.8,0.1-4.2-3.4s-0.7-3.5-0.7-3.5s4.5,0.8,4.9,3.4
						C243,1834.6,242.5,1835.4,242.5,1835.4z"/>
				</g>
				<g>
					<path class="st7" d="M236.9,1831.4c0,0-2-2.9,0.8-6.8c2.9-3.9,3.3-3.2,3.3-3.2s2.2,5.4-0.3,7.6
						C238.2,1831.3,236.9,1831.4,236.9,1831.4z"/>
				</g>
				<g>
					<path class="st7" d="M234.4,1820.9c0,0,1.4-2,4.6-1.1c3.2,0.9,2.8,1.4,2.8,1.4s-3,2.7-5,1.6
						C234.8,1821.7,234.4,1820.9,234.4,1820.9z"/>
				</g>
				<g>
					<path class="st7" d="M233.6,1816.8c0,0,0.7-2.2,3.7-2.3s2.9,0.3,2.9,0.3s-1.8,3.2-3.9,2.9S233.6,1816.8,233.6,1816.8z"/>
				</g>
				<g>
					<path class="st7" d="M238.8,1814.6c0,0-3,0.3-4.6-3.5c-1.6-3.7-1-3.7-1-3.7s4.9,0.6,5.4,3.4
						C239.3,1813.6,238.8,1814.6,238.8,1814.6z"/>
				</g>
				<g>
					<path class="st7" d="M238.1,1807.8c0,0-1.9,0.4-3.2-2c-1.3-2.3-0.9-2.4-0.9-2.4s3.2,0.1,3.8,1.9
						C238.4,1807.1,238.1,1807.8,238.1,1807.8z"/>
				</g>
				<g>
					<path class="st7" d="M232.2,1803.4c0,0-0.6-3.3,3.4-5.5c4-2.2,4.1-1.5,4.1-1.5s-0.2,5.5-3.3,6.5S232.2,1803.4,232.2,1803.4z"/>
				</g>
				<g>
					<path class="st7" d="M230.3,1797.6c0,0,0.3-4.2,5.8-5.7c5.5-1.5,5.4-0.6,5.4-0.6s-1.9,6.7-5.9,6.9
						C231.5,1798.4,230.3,1797.6,230.3,1797.6z"/>
				</g>
			</g>
		</g>
		<g>
			<g>
				<g>
					<path class="st7" d="M273.8,1943.5c0,0-1.9-2.9,1-6.7s3.3-3.1,3.3-3.1s2.1,5.3-0.5,7.5C275.1,1943.5,273.8,1943.5,273.8,1943.5
						z"/>
				</g>
				<g>
					<path class="st7" d="M275.7,1934.6c0,0,1.6-2.3,5.1-1.3c3.6,1,3.2,1.5,3.2,1.5s-3.2,3.1-5.5,1.9
						C276.1,1935.4,275.7,1934.6,275.7,1934.6z"/>
				</g>
				<g>
					<path class="st7" d="M276.9,1930.3c0,0,1-2.5,4.6-2.3c3.6,0.2,3.4,0.7,3.4,0.7s-2.4,3.7-4.9,3S276.9,1930.3,276.9,1930.3z"/>
				</g>
				<g>
					<path class="st7" d="M281.5,1927.7c0,0-1.9-0.8-1.7-3.7c0.2-2.8,0.6-2.6,0.6-2.6s2.8,2,2.2,3.9S281.5,1927.7,281.5,1927.7z"/>
				</g>
				<g>
					<path class="st7" d="M274.9,1923.4c0,0-0.7-4.3,4.5-7c5.2-2.7,5.3-1.8,5.3-1.8s-0.4,7.1-4.4,8.2
						C276.3,1923.9,274.9,1923.4,274.9,1923.4z"/>
				</g>
				<g>
					<path class="st7" d="M275.1,1914.8c0,0,0.8-2.5,4.3-2.5c3.5,0,3.3,0.5,3.3,0.5s-2.1,3.7-4.6,3.2
						C275.7,1915.5,275.1,1914.8,275.1,1914.8z"/>
				</g>
				<g>
					<path class="st7" d="M278,1915.5c0,0-3.9-1.9-3.2-7.7c0.7-5.8,1.5-5.3,1.5-5.3s5.6,4.3,4.3,8.2
						C279.3,1914.7,278,1915.5,278,1915.5z"/>
				</g>
				<g>
					<path class="st7" d="M271,1912.3c0,0-3-3.9,0.7-9.5c3.7-5.6,4.3-4.7,4.3-4.7s3.5,7.3,0.1,10.6
						C272.7,1912,271,1912.3,271,1912.3z"/>
				</g>
				<g>
					<path class="st7" d="M274.7,1904.2c0,0-2.9-0.1-4-3.7c-1.2-3.7-0.5-3.6-0.5-3.6s4.5,1.1,4.8,3.8
						C275.2,1903.4,274.7,1904.2,274.7,1904.2z"/>
				</g>
				<g>
					<path class="st7" d="M272.7,1899c0,0-0.9-2.5,1.9-4.8c2.8-2.2,3-1.7,3-1.7s0.6,4.3-1.7,5.5C273.6,1899.2,272.7,1899,272.7,1899
						z"/>
				</g>
				<g>
					<path class="st7" d="M277.1,1898.4c0,0-2.7-3.2,0.2-8c2.9-4.8,3.4-4.1,3.4-4.1s3.2,6,0.5,8.9
						C278.5,1898.1,277.1,1898.4,277.1,1898.4z"/>
				</g>
				<g>
					<path class="st7" d="M281.8,1891.1c0,0-1.5-1.4-0.4-3.8c1.1-2.5,1.4-2.1,1.4-2.1s1.9,2.7,0.7,4.2S281.8,1891.1,281.8,1891.1z"
						/>
				</g>
				<g>
					<path class="st7" d="M280.8,1883.3c0,0,1.5-2.4,5.1-1.5c3.6,0.8,3.3,1.3,3.3,1.3s-3.1,3.3-5.5,2.1
						C281.3,1884.2,280.8,1883.3,280.8,1883.3z"/>
				</g>
				<g>
					<path class="st7" d="M285.4,1882.9c0,0-2.6-1.7-1.6-5.8c1-4.1,1.6-3.6,1.6-3.6s3.6,3.6,2.3,6.2
						C286.4,1882.4,285.4,1882.9,285.4,1882.9z"/>
				</g>
				<g>
					<path class="st7" d="M285.1,1877.5c0,0-2.6-1.3-2.1-5.1s1-3.5,1-3.5s3.7,2.9,2.8,5.5C286,1876.9,285.1,1877.5,285.1,1877.5z"/>
				</g>
				<g>
					<path class="st7" d="M283.7,1872.3c0,0-2.7-1-2.6-4.8c0.1-3.8,0.6-3.5,0.6-3.5s3.9,2.4,3.3,5
						C284.4,1871.7,283.7,1872.3,283.7,1872.3z"/>
				</g>
				<g>
					<path class="st7" d="M278,1866.7c0,0-1.1-2.6,1.7-5.1c2.8-2.5,3-1.9,3-1.9s0.9,4.5-1.4,5.8C278.9,1866.8,278,1866.7,278,1866.7
						z"/>
				</g>
				<g>
					<path class="st7" d="M277.3,1862.6c0,0-2-1.2-1.3-4.3s1.1-2.8,1.1-2.8s2.8,2.6,1.9,4.6C278.1,1862.2,277.3,1862.6,277.3,1862.6
						z"/>
				</g>
				<g>
					<path class="st7" d="M272.4,1858.1c0,0-1.3-2.2,0.9-4.8s2.4-2.2,2.4-2.2s1.4,3.9-0.5,5.4C273.3,1858,272.4,1858.1,272.4,1858.1
						z"/>
				</g>
				<g>
					<path class="st7" d="M272.3,1853c0,0-1.9-0.8-1.7-3.6s0.6-2.6,0.6-2.6s2.8,1.9,2.2,3.8C272.8,1852.6,272.3,1853,272.3,1853z"/>
				</g>
				<g>
					<path class="st7" d="M274,1850.8c0,0-4.7,0.7-7.6-4.9c-2.9-5.6-1.9-5.7-1.9-5.7s7.7,0.4,8.9,4.8
						C274.5,1849.2,274,1850.8,274,1850.8z"/>
				</g>
				<g>
					<path class="st7" d="M268.1,1847.2c0,0-3.8-2.9-1.8-9.1s2.8-5.5,2.8-5.5s5.1,6,2.8,9.9C269.6,1846.6,268.1,1847.2,268.1,1847.2
						z"/>
				</g>
				<g>
					<path class="st7" d="M266.3,1837.5c0,0-0.7-2.6,2.4-4.7c3.1-2,3.2-1.4,3.2-1.4s0.2,4.4-2.2,5.4
						C267.2,1837.7,266.3,1837.5,266.3,1837.5z"/>
				</g>
				<g>
					<path class="st7" d="M266.5,1835.6c0,0-2.1-4.3,2.5-8.7c4.5-4.5,4.9-3.5,4.9-3.5s1.8,7.5-1.9,9.9
						C268.1,1835.7,266.5,1835.6,266.5,1835.6z"/>
				</g>
				<g>
					<path class="st7" d="M268,1823.8c0,0,2.6-2.8,7.3-0.6c4.7,2.2,4.1,2.7,4.1,2.7s-5.2,3.5-8.1,1.4
						C268.4,1825.1,268,1823.8,268,1823.8z"/>
				</g>
				<g>
					<path class="st7" d="M279,1826.9c0,0-4.1-0.7-5-6.3c-0.9-5.6,0-5.4,0-5.4s6.3,2.5,6.1,6.5C279.9,1825.8,279,1826.9,279,1826.9z
						"/>
				</g>
			</g>
		</g>
		<g>
			<g>
				<g>
					<path class="st7" d="M152.6,1922.1c0,0-0.3-3.5,4-5.3c4.3-1.9,4.3-1.1,4.3-1.1s-0.7,5.6-4,6.3S152.6,1922.1,152.6,1922.1z"/>
				</g>
				<g>
					<path class="st7" d="M152.1,1915.6c0,0,0.4-3.1,4.6-3.9c4.2-0.8,4-0.1,4-0.1s-1.8,4.8-4.8,4.7
						C153,1916.2,152.1,1915.6,152.1,1915.6z"/>
				</g>
				<g>
					<path class="st7" d="M154.7,1915.1c0,0-3.3-3-0.9-8.4s3-4.7,3-4.7s4.2,5.8,1.8,9.2C156.2,1914.6,154.7,1915.1,154.7,1915.1z"/>
				</g>
				<g>
					<path class="st7" d="M151.8,1905c0,0,0-2.3,3-3.3c3-1,2.9-0.5,2.9-0.5s-0.8,3.7-3,3.9S151.8,1905,151.8,1905z"/>
				</g>
				<g>
					<path class="st7" d="M156.3,1902.3c0,0-3.3,0.3-5.1-3.7c-1.8-4.1-1.1-4.1-1.1-4.1s5.3,0.6,6,3.7
						C156.8,1901.2,156.3,1902.3,156.3,1902.3z"/>
				</g>
				<g>
					<path class="st7" d="M146,1894.2c0,0,1.2-3.7,6.5-3.7c5.3,0,4.9,0.7,4.9,0.7s-3.2,5.5-6.9,4.7S146,1894.2,146,1894.2z"/>
				</g>
				<g>
					<path class="st7" d="M143.1,1892.8c0,0-0.5-4.6,5.2-7.3s5.7-1.6,5.7-1.6s-0.8,7.5-5.1,8.5S143.1,1892.8,143.1,1892.8z"/>
				</g>
				<g>
					<path class="st7" d="M141.8,1885c0,0,0.8-2.5,4.4-2.6c3.6,0,3.4,0.5,3.4,0.5s-2.2,3.8-4.7,3.3S141.8,1885,141.8,1885z"/>
				</g>
				<g>
					<path class="st7" d="M144.3,1885.3c0,0-3.6-0.9-4-5.9c-0.4-5,0.4-4.7,0.4-4.7s5.4,2.7,5,6.2
						C145.2,1884.4,144.3,1885.3,144.3,1885.3z"/>
				</g>
				<g>
					<path class="st7" d="M132.7,1877.8c0,0,0.9-4.9,7.5-5.8s6.3,0.1,6.3,0.1s-3.1,7.4-7.8,7.1
						C134,1878.9,132.7,1877.8,132.7,1877.8z"/>
				</g>
				<g>
					<path class="st7" d="M137.2,1877.7c0,0-4-2.4-2.6-8.5c1.4-6.1,2.2-5.5,2.2-5.5s5.5,5.2,3.7,9.2
						C138.6,1876.9,137.2,1877.7,137.2,1877.7z"/>
				</g>
				<g>
					<path class="st7" d="M132.6,1872.1c0,0-2.7-3.4,0.4-8.4c3.2-5,3.7-4.2,3.7-4.2s3.2,6.4,0.3,9.3
						C134.1,1871.8,132.6,1872.1,132.6,1872.1z"/>
				</g>
				<g>
					<path class="st7" d="M128.2,1864.8c0,0-0.7-3.8,3.8-6.3c4.5-2.5,4.6-1.7,4.6-1.7s-0.2,6.2-3.7,7.3
						C129.5,1865.2,128.2,1864.8,128.2,1864.8z"/>
				</g>
				<g>
					<path class="st7" d="M126.4,1856.6c0,0,1.1-2.3,4.5-2c3.5,0.4,3.2,0.8,3.2,0.8s-2.5,3.4-4.9,2.6
						C127,1857.3,126.4,1856.6,126.4,1856.6z"/>
				</g>
				<g>
					<path class="st7" d="M127.2,1855.9c0,0-2.3-1.9-0.8-5.7c1.5-3.8,1.9-3.3,1.9-3.3s3,3.8,1.4,6.2
						C128.2,1855.6,127.2,1855.9,127.2,1855.9z"/>
				</g>
				<g>
					<path class="st7" d="M119.9,1851.5c0,0-0.9-4.8,4.8-8.1s5.9-2.2,5.9-2.2s-0.2,8-4.6,9.4S119.9,1851.5,119.9,1851.5z"/>
				</g>
				<g>
					<path class="st7" d="M122.3,1847.5c0,0-2.9-2.4-1.2-7.2c1.8-4.8,2.4-4.2,2.4-4.2s3.9,4.8,2,7.9
						C123.6,1847.1,122.3,1847.5,122.3,1847.5z"/>
				</g>
			</g>
		</g>
	</g>
</g>
</svg>
