<?xml version="1.0" encoding="utf-8"?>
<!-- Generator: Adobe Illustrator 26.3.1, SVG Export Plug-In . SVG Version: 6.00 Build 0)  -->
<svg version="1.1" id="Layer_1" xmlns="http://www.w3.org/2000/svg" xmlns:xlink="http://www.w3.org/1999/xlink" x="0px" y="0px"
	 viewBox="0 0 428 2136.5" style="enable-background:new 0 0 428 2136.5;" xml:space="preserve">
<style type="text/css">
	.st0{opacity:0.78;}
	.st1{fill:#6D5341;}
	.st2{fill:#C19F87;}
	.st3{fill:#AFD079;}
	.st4{fill:#A5CA68;}
	.st5{fill:#AACD70;}
	.st6{fill:#9AC355;}
</style>
<g id="Layer_1_00000153675157064098978880000012107090250208182671_">
	<g id="a">
		<g id="b" class="st0">
		</g>
	</g>
	<g id="c">
		<g id="d">
			<g>
				<path id="e" class="st1" d="M245.4,2066.6c0,0,6.1,17.8,14.1,23.7c9.3,6.7,1.5,7.3-3,6.6s-12.4-5.4-15.4-9.6s-56.1,14-63,14.7
					s-14.7,2.1-15.8-0.5s7.5-5,10.5-13.8c3-8.8,5.5-24.8,7.2-28C183.6,2053.2,245.4,2066.6,245.4,2066.6L245.4,2066.6z"/>
				<path class="st1" d="M257.2,2097c-2.9-4.1-5.8-7.4-8.6-10.4c-0.7-0.7-1.2-1.7-1.7-2.7c-0.2-3.2-0.4-6.2-0.4-6.2v-0.3
					c-0.6-13.1-0.7-39.3-1.9-59.7c-0.6-9.2-0.6-10.7-0.8-29.7c-4.1,5.6-10,5.7-15,8.1c-10.2,4.9-18.5,6.2-28.8,2.5
					c-6.3-2.3-14.4-3-19.1-12.1c0.7,14.1,0,19.9,0.1,30.1c0.1,4.8-0.2,12.9-0.4,17.7c-0.7,13.1-0.1,18.1-2.4,30.5
					c-0.5,3.3-0.9,6.7-1.2,10.1c-0.3,3-0.6,5.9-0.6,8.9c-0.3,2.7-0.6,6.3-0.8,10c-0.5,9.6-4.6,11.9-9.8,13.8
					c-5.1,1.9-7.5,4.7-7.5,4.7s-10.2,9.8-3,7.1c3.5-1.4,13.9-6.5,18.2-6.6c4.3-0.1,7.8,0.1,12.4-3.5c4.6-3.6,3.7-6,11-4.8
					c4.4,0.8,5.9,5.4,2.9,16.4c-2.8,10-0.7,17.2,3.2,16.2c1.4-0.3,6.3-18.6,13.4-25.8c2.1-2.1,2.8-3,5.9-4.9
					c4.2-2.6,7.4-0.6,14.4,5.2c5.4,4.4,6.8,7,9.1,8.9s4.7-1.6,1.9-6.2s-3.8-3.9-6.6-12.4s4.3-1.9,10,2.4c6.1,4.6,16.8,6.8,19.5,6.3
					C272.9,2109.9,260.2,2101.1,257.2,2097L257.2,2097z"/>
				<g id="f">
					<path class="st2" d="M230.7,1997c-6.2,2.5-12.6,4.1-18.9,4.8c-2.8,0-17.6-2.4-20.9-5c-4.3-3.3-10-9-10-10.3
						c-0.1-1.8,4-1,5.8-1.5c7.6-1.6,11.9-1.9,17.4-2.5c9.4-0.9,9-1.4,19.6,0c1.4,0.2,13.6,2.3,15.1,2.8c3.6,1.5,5,1.8,4.9,2.4
						c0,0.1,0,0.2-0.1,0.3c-3,4.4-9.6,7.1-13.1,9"/>
					<path class="st1" d="M214.4,1981.6c-2.7,0-4.9,0.3-10.1,0.9c-2.8,0.3-5.2,0.5-7.8,0.9c-2,0.7-4,1.4-6,2.4l-1.7,0.8
						c8.6,3,17.3,4.4,26,4.4h2.5c3.2-0.2,6.6,0.3,9.4-3.4c-4.5-1.6-9.1-2.4-13.7-2.5c-1.7,0-3.4,0.1-5,0.5h-0.4l0,0l5.1,1.3
						l-4.6-1.3h2.7c4.9-0.1,9.7,0.7,14.5,2.3c-2.5,2.3-5.4,1.7-8.1,1.9h-1.4c-2.5,0-5-0.1-7.5-0.3c-5.3-0.5-10.6-1.6-15.9-3.2
						c3.6-1.4,7.2-2.4,10.8-2.8c3.4-0.5,6.7-0.7,10.1-0.7c7.3,0,14.5,0.9,21.7,2.8c0.3,0.1,2.6,1,1.7,1.8c-9.1,3.1-21,8.2-32.1,8.2
						c-7.9,0-15.3-2.5-21-10.3c6,8.3,13.8,11.1,21.9,11.1c10.8,0,22.4-4.9,31.4-7.9c0.1-0.1,0.2-0.1,0.3-0.3
						c0.1-0.1,0.2-0.3,0.2-0.5c0.1-0.2,0.1-0.5,0.1-0.7s0-0.5,0-0.7c-0.2-0.6-0.4-1-0.7-1.3c-0.3-0.3-0.6-0.5-0.9-0.6
						c-4.2-0.9-11.1-2.1-12.1-2.3C219.1,1981.9,216.5,1981.6,214.4,1981.6L214.4,1981.6z"/>
				</g>
			</g>
		</g>
	</g>
	<g id="g">
	</g>
	<g id="h">
		<g id="i">
		</g>
		<g id="j">
		</g>
	</g>
	<g id="k">
		<g id="l">
		</g>
		<g id="m">
		</g>
	</g>
</g>
<g id="OldGrowth_x5F_Top">
	<g id="ag">
		<path class="st3" d="M208.1,1856c0,0-55.6,125.8-98,146.2s49.4-12.9,54.7-21.1s-20.7,51.3-13.6,66.4c0,0,25.5-32,38.7-50.3
			c1.7-2.4,25.5,56.2,27.9,53.6c0,0,2.1-57.7,16.4-42.4c16.7,18,50.7,31.8,50.7,31.8s-33.3-54-33.3-67c0,0,42.3,32.5,61.6,35.9
			C313.3,2009,211.7,1879.1,208.1,1856L208.1,1856L208.1,1856z"/>
		<path class="st4" d="M169.6,1910.5c0,0-31.4,37.6-50.1,45.7c-18.7,8.3,42.2-9.9,45.4-14.9s11.4,4.5,10.7,22.7
			c-0.8,18.2,14.9,9.1,21.5-11.5c0,0,10.7-19,10.4-22.2c-0.3-3.3,21.1,39.9,18.1,49.8c0,0,23.7-11.4,20.3-38.4l-1.3-13.5
			c0,0,10.4,18.2,36.2,32.6l27.9,17.3c0,0-37.8-42-50.6-61.1c-12.8-19-62.9-52-62.9-52L169.6,1910.5L169.6,1910.5L169.6,1910.5z"/>
		<path class="st5" d="M176.9,1878.5c0,0-26.1,30.2-41.7,36.7c-15.6,6.7,35.1-7.9,37.8-12c2.6-4,4.3,8.6,3.7,23.2
			c-0.7,14.6,17.5,2.3,23.2-14.3c0,0,9-15.2,8.6-17.9c-0.3-2.6,9.8,24.5,7.4,32.5c0,0,17.3,8.3,19.2-9.9l7-17.3
			c0,0,5.8,7.7,27.3,19.4l23.2,13.9c0,0-31.4-33.8-42-49.1c-10.6-15.2-52.4-41.7-52.4-41.7L176.9,1878.5L176.9,1878.5L176.9,1878.5z
			"/>
		<path class="st6" d="M209,1792.2c0,0-31.4,80.6-55.3,93.8c-23.8,13.1,27.9-8.3,30.9-13.5s-4,16.1,2,31.4c0,0,14.4-43.2,19.5-49.3
			c0,0,17.4,21.3,16.5,37.1c-1,15.7-0.5,23.5-0.5,23.5s9-40.1,9-48.4c0,0,26.4,21.3,37.3,23.5C268.3,1890.3,211,1807.1,209,1792.2
			L209,1792.2L209,1792.2z"/>
	</g>
</g>
</svg>
